<svg width="167" height="151" viewBox="0 0 167 151" fill="none" xmlns="http://www.w3.org/2000/svg">
<path d="M20 0.824219H147C157.77 0.824219 166.5 9.55467 166.5 20.3242V130.324C166.5 141.094 157.77 149.824 147 149.824H20C9.23045 149.824 0.5 141.094 0.5 130.324V20.3242C0.5 9.55467 9.23045 0.824219 20 0.824219Z" fill="white" stroke="#CFCFCF"/>
<path d="M115.812 89.4318V67.0655H98.5563L89.3594 57.8933V40.8242H66.8125V63.1905H84.0687L93.315 72.3628V84.1835L84.0687 93.3557H66.8125V115.722H89.3594V98.653L98.6057 89.4808H115.812V89.4318ZM74.3281 48.2796H81.8438V55.7352H74.3281V48.2796ZM81.8438 108.218H74.3281V100.762H81.8438V108.218Z" fill="#FFAE1A"/>
</svg>
