<svg width="168" height="151" viewBox="0 0 168 151" fill="none" xmlns="http://www.w3.org/2000/svg">
<rect x="0.5" y="0.824219" width="167" height="149" rx="19.5" fill="white" stroke="#CFCFCF"/>
<path d="M86.3594 70.4942V58.7041L103.576 67.4143V84.4611L96.7277 81.1582V75.7966L86.3594 70.4942Z" fill="#4396B9"/>
<path d="M109.128 81.6745L113.589 83.9561L96.7708 92.3653L96.7278 81.145L103.576 84.448L109.128 81.6745Z" fill="#B8DDE8"/>
<path d="M86.3594 63.418L79.3396 66.8929L86.3594 70.4942V63.418Z" fill="#75BED5"/>
<path d="M79.6782 101.024L79.5358 84.0392L62.4567 75.5252L45.375 67.0918V84.324L45.5389 101.013L62.0563 109.272L62.5508 109.519L62.5858 109.535L79.6756 118.06L79.6782 101.024Z" fill="#4396B9"/>
<path d="M113.589 83.9669L96.7277 92.3976V75.7969L79.5277 84.026L79.6755 101.368V118.058L96.7223 109.533V109.439L113.589 101.024V83.9669Z" fill="#75BED5"/>
<path d="M120.625 75.9362L103.578 84.4583V67.4115L120.625 58.8867V75.9362Z" fill="#75BED5"/>
<path d="M86.3594 58.7044L103.576 67.4146L120.625 58.8871L103.237 49.9942L91.4871 56.0572L78.8559 49.5884L61.7016 58.5136L45.375 67.0921L62.4567 75.5281L79.5358 84.0287L96.7358 75.7996L79.3396 66.8932L79.1166 67.0088L79.0736 66.9873L79.3423 66.8932L86.3621 63.3994L86.3594 58.7044Z" fill="#B8DDE8"/>
</svg>
