<svg width="168" height="151" viewBox="0 0 168 151" fill="none" xmlns="http://www.w3.org/2000/svg">
<rect x="0.5" y="0.565918" width="167" height="149" rx="19.5" fill="white" stroke="#CFCFCF"/>
<path d="M74.5298 87.0128C77.082 89.5842 80.528 91.0367 84.126 91.0574V85.3087C83.0874 85.3182 82.0575 85.1157 81.0977 84.7132C80.1379 84.3107 79.2678 83.7164 78.5393 82.9658L74.5298 87.0128ZM89.0603 64.5493L86.961 69.8715C88.62 70.55 90.025 71.7429 90.975 73.2797H97.086C96.475 71.3098 95.4371 69.5034 94.0484 67.9928C92.6598 66.4823 90.9554 65.3057 89.0603 64.5493Z" fill="#3F5364"/>
<path d="M70.5179 77.3244C70.5246 79.2306 70.9175 81.1151 71.6722 82.861L76.8472 80.5182C76.4166 79.5108 76.2019 78.4222 76.2172 77.3244C76.2372 75.2096 77.0761 73.1874 78.553 71.6938C80.0299 70.2003 82.0265 69.3549 84.1124 69.3401V63.5913C80.5161 63.5931 77.0668 65.0389 74.5191 67.6126C71.9714 70.1862 70.5328 73.6781 70.5179 77.3244ZM86.9407 84.7773L89.0399 90.0994C90.9617 89.3445 92.6892 88.157 94.0924 86.6265C95.4955 85.096 96.5376 83.2625 97.1399 81.2642H91.0357C90.1039 82.8728 88.6596 84.1118 86.9407 84.7773Z" fill="#F18B21"/>
<path d="M84.1058 91.6962C81.4722 91.685 78.8937 90.9302 76.6595 89.5163C74.4254 88.1025 72.6239 86.0856 71.4571 83.6917C70.2903 81.2979 69.8043 78.6218 70.0537 75.9636C70.3031 73.3054 71.2779 70.7702 72.8689 68.6423C74.4599 66.5144 76.6041 64.8779 79.0611 63.9165C81.5181 62.9551 84.1907 62.7066 86.7791 63.199C89.3676 63.6915 91.7695 64.9053 93.7156 66.7044C95.6617 68.5035 97.075 70.8167 97.797 73.3846H103.278C102.303 68.5952 99.61 64.343 95.7204 61.4511C91.8308 58.5592 87.0213 57.2333 82.2229 57.7302C77.4245 58.227 72.9786 60.5113 69.7459 64.1407C66.5132 67.77 64.7236 72.4864 64.7236 77.3768C64.7236 82.2671 66.5132 86.9835 69.7459 90.6129C72.9786 94.2423 77.4245 96.5265 82.2229 97.0233C87.0213 97.5202 91.8308 96.1943 95.7204 93.3024C99.61 90.4105 102.303 86.1583 103.278 81.3689H97.797C96.9306 84.3643 95.1259 86.9922 92.6558 88.8554C90.1857 90.7186 87.1844 91.7158 84.1058 91.6962Z" fill="#3F5364"/>
<path d="M84.1058 56.884V51.4546C78.9569 51.4435 73.9255 53.0142 69.6744 55.9597C65.4234 58.9051 62.1522 63.0872 60.2917 67.9549L65.2417 69.8712C66.7491 66.0452 69.3509 62.7639 72.7127 60.4494C76.0744 58.135 80.0422 56.8933 84.1058 56.884ZM84.1058 97.764V103.193C90.1917 103.199 96.0803 101.005 100.714 97.0051C105.348 93.0051 108.424 87.4611 109.389 81.3687H103.908C102.995 86.006 100.521 90.1774 96.9081 93.1684C93.2955 96.1594 88.7697 97.784 84.1058 97.764Z" fill="#3F5364"/>
<path d="M104.014 73.3843H109.389C108.681 68.905 106.83 64.6913 104.019 61.1617C101.209 57.6321 97.5363 54.9093 93.3667 53.2637L91.4767 58.2665C94.6394 59.5341 97.4412 61.5797 99.6298 64.2188C101.818 66.8579 103.325 70.0077 104.014 73.3843ZM63.8827 77.324H58.5052C58.5103 82.5103 60.0501 87.5757 62.9253 91.8651C65.8006 96.1545 69.879 99.4706 74.6332 101.384L76.629 96.3816C72.8743 94.8529 69.6553 92.2223 67.3844 88.827C65.1135 85.4318 63.8942 81.4263 63.8827 77.324Z" fill="#F18B21"/>
<path d="M110.019 73.3847H115.394C114.784 68.8171 113.239 64.4292 110.858 60.5024L106.322 63.3768C108.285 66.3865 109.549 69.8082 110.019 73.3847ZM52.5001 77.3449C52.457 82.0925 53.4087 86.7952 55.2923 91.1419L60.5011 88.9702C58.8377 85.3211 57.9573 81.3555 57.9181 77.3358" fill="#3F5364"/>
<path d="M84.1057 103.832C80.6627 103.837 77.2525 103.154 74.0707 101.82C70.8889 100.486 67.9979 98.5289 65.5635 96.0603L61.7632 99.8928C64.684 102.885 68.165 105.255 72.0018 106.864C75.8386 108.473 79.9538 109.288 84.1057 109.262C91.7995 109.256 99.2283 106.412 105.005 101.26C110.782 96.1076 114.513 89.0002 115.5 81.2641H110.125C109.146 87.5498 105.989 93.2757 101.219 97.4124C96.4503 101.549 90.3821 103.826 84.1057 103.832ZM84.1057 50.8162C89.7715 50.7817 95.2885 52.6535 99.7927 56.1384L103.069 51.7744C97.6021 47.6091 90.944 45.3664 84.1057 45.3869C77.7437 45.3856 71.5282 47.3237 66.2665 50.9496C61.0047 54.5755 56.9397 59.7216 54.5992 65.7196L59.6595 67.7431C61.588 62.76 64.951 58.4806 69.3109 55.4617C73.6709 52.4428 78.8261 50.8241 84.1057 50.8162Z" fill="#F18B21"/>
</svg>
