<svg width="167" height="151" viewBox="0 0 167 151" fill="none" xmlns="http://www.w3.org/2000/svg">
<rect x="0.5" y="0.824219" width="166" height="149" rx="19.5" fill="white" stroke="#CFCFCF"/>
<path d="M56.1415 72.0189L42.4121 77.1011C42.5885 79.3404 42.9671 81.5523 43.5005 83.7198L56.541 78.8882C56.1231 76.6489 55.9736 74.3358 56.1446 72.0186M116.813 56.5739C115.856 54.5646 114.748 52.6227 113.465 50.7925L99.7398 55.8746C101.337 57.537 102.677 59.4051 103.773 61.4031L116.814 56.5732L116.813 56.5739Z" fill="#DA2430"/>
<path d="M92.4596 56.4917C90.7329 54.9674 88.7825 53.6516 86.6117 52.6215H86.6106C73.8655 46.5762 58.6576 52.2004 52.7156 65.172C52.3842 65.8963 52.0868 66.6362 51.8243 67.3891C51.0826 69.5843 50.6492 71.8287 50.4836 74.0694L50.4352 74.0878L50.4315 74.137L42.1688 77.1959L36.8522 79.1949L36.8499 79.1648L36.7041 79.2188C36.1881 72.5765 37.2886 65.7147 40.2493 59.2556C40.634 58.4159 41.0471 57.5899 41.4879 56.7791C51.2482 38.2838 73.457 30.5529 92.1869 39.5777C95.9685 41.3988 99.4352 43.8311 102.452 46.7802C104.421 48.634 106.197 50.6885 107.753 52.9116L94.0278 57.9951C93.9571 57.9217 93.886 57.8487 93.8145 57.7761L93.7765 57.7901C93.3525 57.3421 92.9134 56.9092 92.46 56.492" fill="#DA2430"/>
<path d="M37.4705 101.754L37.449 101.762C34.5995 97.679 32.5197 93.093 31.3154 88.2374L44.3582 83.4048L44.3589 83.4058L44.3669 83.4485L44.4516 83.4167L44.4536 83.4219C45.1235 87.031 46.5179 90.4743 48.5514 93.5021C49.3302 94.634 50.1978 95.6999 51.1455 96.6895L51.0938 96.709L51.1925 96.8142L37.5911 101.931C37.5508 101.872 37.5106 101.813 37.4705 101.754Z" fill="#E82429"/>
<path d="M89.2735 98.1831C82.2016 102.632 73.1307 103.492 65.048 99.6569C62.2718 98.3424 59.754 96.5247 57.6177 94.2927L43.9209 99.366L44.026 99.5154L44.0193 99.5181C47.7852 104.992 52.9223 109.568 59.2259 112.607C72.8213 119.157 88.2465 116.88 99.4154 108.067C104.417 104.256 108.592 99.1756 111.413 93.0224C114.375 86.5646 115.47 79.7056 114.945 73.0684L114.564 73.2098C114.559 73.1388 114.553 73.0677 114.548 72.9966L100.946 78.1085L100.946 78.1098C100.724 81.2394 99.9492 84.3027 98.6599 87.1531C96.5385 91.8535 93.2298 95.5976 89.2738 98.1831" fill="#DA2430"/>
<path d="M104.42 61.1631L104.624 61.0872C106.775 65.5928 108.08 70.4671 108.472 75.4601L94.7744 80.5299L94.7818 80.426L94.5231 80.5234C94.896 75.3668 93.7588 70.2385 91.3535 65.7852L104.303 60.9149L104.304 60.9136C104.343 60.9965 104.382 61.0797 104.42 61.1631Z" fill="#E82429"/>
<path d="M56.1585 71.9374L42.5261 77.0626C42.7008 79.3217 43.0771 81.5522 43.6075 83.7381L56.5566 78.8651C56.1376 76.6019 55.9871 74.2724 56.1638 71.9361M116.404 56.3625C115.454 54.3362 114.353 52.3781 113.079 50.5322L99.4507 55.6574C101.036 57.3342 102.367 59.218 103.455 61.2335L116.403 56.3612L116.404 56.3625Z" fill="#C22035"/>
<path d="M42.5254 77.0634L56.1248 71.9953L56.0694 74.7749L42.949 79.8157L42.5237 77.06L42.5254 77.0634ZM99.4527 55.6152L113.264 50.7935L114.7 52.9975L101.28 57.8237L99.4547 55.6142L99.4527 55.6152Z" fill="#AC223B"/>
<path d="M44.0222 99.466L57.6378 94.4252L61.7557 98.3778L47.4773 103.831L44.0229 99.4646L44.0222 99.466ZM114.776 73.0337L100.947 78.107L99.9286 83.7387L114.674 78.3923L114.778 73.0344L114.776 73.0337Z" fill="#B92135"/>
</svg>
