<svg width="168" height="151" viewBox="0 0 168 151" fill="none" xmlns="http://www.w3.org/2000/svg">
<rect x="0.5" y="0.824219" width="167" height="149" rx="19.5" fill="white" stroke="#CFCFCF"/>
<path d="M87.5 41.4165C69.8541 41.4165 55.4166 55.854 55.4166 73.4998C55.4166 91.1457 69.8541 105.583 87.5 105.583C105.146 105.583 119.583 91.1457 119.583 73.4998C119.583 55.854 105.146 41.4165 87.5 41.4165ZM100.654 89.5415C100.045 89.5415 99.5633 89.2207 98.8895 88.6753L82.3345 75.2965L76.7841 89.2207H72.0037L86.0241 55.5011C86.377 54.6028 87.147 54.1536 88.0454 54.1536C88.9437 54.1536 89.6495 54.6028 90.0345 55.5011L102.804 86.2369C102.932 86.5898 103.028 86.9428 103.028 87.1673C102.996 88.5148 101.937 89.5415 100.654 89.5415ZM88.0454 61.0194L96.355 81.5207L83.8104 71.639L88.0454 61.0194Z" fill="black"/>
</svg>
