<svg width="81" height="81" viewBox="0 0 81 81" fill="none" xmlns="http://www.w3.org/2000/svg">
<path d="M40.4491 1.68061C39.7421 1.71649 39.0494 1.89201 38.4116 2.19686L10.5985 15.4856C9.87871 15.8294 9.24625 16.3296 8.7481 16.949C8.24994 17.5685 7.89889 18.2913 7.72101 19.0637L0.860385 48.9137C0.701991 49.6014 0.684265 50.3136 0.808257 51.0081C0.932249 51.7027 1.19544 52.3656 1.58226 52.9575C1.67612 53.1023 1.77708 53.2425 1.88476 53.3775L21.1348 77.3125C21.633 77.9318 22.2656 78.4319 22.9855 78.7755C23.7053 79.1192 24.494 79.2976 25.2929 79.2975L56.1641 79.29C56.9627 79.2905 57.7512 79.1127 58.471 78.7697C59.1909 78.4267 59.8236 77.9274 60.3223 77.3087L79.5654 53.3706C80.0639 52.751 80.4152 52.0279 80.5932 51.2551C80.7712 50.4823 80.7713 49.6797 80.5935 48.9069L73.721 19.0569C73.5432 18.2843 73.1922 17.5614 72.694 16.9418C72.1959 16.3223 71.5634 15.822 70.8435 15.4781L43.0279 2.19686C42.2255 1.81333 41.3387 1.63582 40.4491 1.68061Z" fill="#326CE5"/>
<path d="M40.7108 11.8252V11.8314C39.7908 11.8402 39.0458 12.6664 39.0458 13.6889C39.0458 13.7064 39.049 13.7214 39.049 13.7352C39.0477 13.8739 39.0415 14.0414 39.0458 14.1627C39.0677 14.7539 39.1958 15.2052 39.274 15.7471C39.3802 16.6346 39.4083 17.3389 39.414 18.0514L39.4365 17.9489C39.4265 17.4496 39.4019 16.9506 39.3627 16.4527C39.4496 17.2202 39.5127 17.9302 39.479 18.5727C39.4696 18.3696 39.4408 18.1496 39.4377 17.9589L39.4152 18.0614C39.4171 18.2783 39.4752 18.5552 39.4583 18.7633C39.4202 18.9446 39.2765 19.0727 39.1665 19.2271L39.1508 19.3027C39.259 19.1608 39.3721 19.0252 39.4383 18.8658C39.3546 19.1302 39.1758 19.3633 38.9965 19.5496C39.0465 19.4721 39.0877 19.3858 39.1465 19.3089L39.1627 19.2339C39.0721 19.3608 39.0208 19.5196 38.9221 19.6152L38.9183 19.6189L38.8783 20.3189C37.8695 20.4027 36.8677 20.5564 35.8802 20.7789C31.7184 21.7205 27.9323 23.8825 25.0065 26.9883C24.8215 26.8621 24.5065 26.6383 24.4127 26.5683L24.4096 26.5652L24.4033 26.5664C24.1046 26.6064 23.8096 26.6958 23.4221 26.4708C22.6802 25.9708 22.0027 25.2789 21.1821 24.4458C20.8065 24.0477 20.534 23.6671 20.0858 23.2827C19.984 23.1946 19.8296 23.0764 19.7158 22.9871C19.3833 22.7192 18.9737 22.5648 18.5471 22.5464C18.0315 22.5289 17.5346 22.7302 17.2096 23.1383C16.6315 23.8633 16.8171 24.9714 17.6208 25.6133L17.6458 25.6296C17.7546 25.7189 17.8896 25.8333 17.9908 25.9083C18.4671 26.2589 18.9015 26.4389 19.3721 26.7164C20.3683 27.3314 21.1908 27.8402 21.8446 28.4533C22.0958 28.7202 22.1408 29.1971 22.1758 29.4064V29.4114L22.7052 29.8827C19.8546 34.1789 18.5333 39.4827 19.3102 44.8864L18.6208 45.0889L18.6183 45.0927C18.434 45.3308 18.1733 45.7002 17.909 45.8096C17.0552 46.0783 16.0915 46.1771 14.9277 46.299C14.3827 46.3446 13.9115 46.3183 13.3302 46.4283C13.2021 46.4533 13.024 46.4983 12.8846 46.5308L12.8702 46.5346L12.8452 46.5415C11.8577 46.7808 11.2202 47.6896 11.4265 48.5864C11.6308 49.4833 12.5971 50.0277 13.5915 49.8133L13.6158 49.8096H13.6171C13.6296 49.8064 13.6408 49.8002 13.6483 49.7983C13.7858 49.7683 13.9583 49.7352 14.0796 49.7021C14.6502 49.5489 15.0633 49.3252 15.5752 49.1296C16.6752 48.7346 17.5865 48.4046 18.4733 48.2764C18.8371 48.2477 19.2258 48.5027 19.4215 48.6121L19.4265 48.6146L20.1465 48.4914C21.8177 53.6627 25.3127 57.8414 29.7377 60.4677L29.4377 61.1877L29.4396 61.1939C29.5483 61.4752 29.6671 61.8546 29.5877 62.1264C29.2652 62.9614 28.7127 63.8446 28.0827 64.8302C27.7777 65.2852 27.464 65.6396 27.189 66.1621C27.1221 66.2877 27.039 66.479 26.9752 66.6102C26.544 67.5321 26.8602 68.5958 27.6896 68.9952C28.524 69.3971 29.5583 68.9727 30.0065 68.0496L30.0108 68.0446V68.0383C30.0733 67.9089 30.1621 67.7396 30.2165 67.6171C30.4527 67.0758 30.5321 66.6127 30.6977 66.0914H30.6958C31.1371 64.9833 31.3796 63.8246 31.9827 63.1052C32.1452 62.9114 32.4127 62.8352 32.6927 62.7602L32.699 62.7577L33.074 62.0802C38.0113 63.9785 43.4746 63.9922 48.4215 62.1189C48.529 62.3083 48.7202 62.6596 48.7733 62.7502L48.7758 62.7539L48.7808 62.7564C49.0671 62.8496 49.3733 62.8958 49.6246 63.2664C50.0758 64.0396 50.3858 64.9558 50.7633 66.0633C50.929 66.5833 51.0115 67.0477 51.2477 67.5889C51.3021 67.7139 51.3915 67.8858 51.454 68.0164C51.9008 68.9427 52.9383 69.3683 53.7746 68.9664C54.6033 68.5664 54.9196 67.5039 54.489 66.5821C54.4252 66.4508 54.3371 66.2583 54.2715 66.1327C53.9958 65.6102 53.6821 65.2596 53.3777 64.8046C52.7465 63.819 52.2258 63.0014 51.9027 62.1658C51.7696 61.7377 51.9252 61.4758 52.0315 61.1939L52.0352 61.1852L52.029 61.1789C52.0069 61.1458 51.9881 61.1107 51.9727 61.0739C51.9461 61.0142 51.9211 60.9538 51.8977 60.8927C51.8477 60.7614 51.7977 60.6164 51.7577 60.5202C56.3565 57.8014 59.749 53.4671 61.3452 48.4608C61.5621 48.4946 61.9265 48.5577 62.0452 48.5814L62.0515 48.5827L62.0571 48.5802C62.3083 48.4146 62.5321 48.2014 62.979 48.2371C63.8658 48.3652 64.7765 48.6958 65.8777 49.0908C66.3883 49.2858 66.8021 49.514 67.3733 49.6665C67.4946 49.6989 67.6671 49.7296 67.8046 49.7596C67.8121 49.7614 67.8227 49.7671 67.8358 49.7702H67.8371L67.8621 49.7727C68.8558 49.9858 69.8227 49.4427 70.0271 48.5458C70.2315 47.6489 69.5952 46.7408 68.6071 46.5027C68.4652 46.4702 68.2627 46.4146 68.1227 46.3877C67.5415 46.2777 67.0708 46.3052 66.5246 46.2596C65.3621 46.1377 64.3983 46.0389 63.5433 45.7702C63.2015 45.6371 62.9546 45.2252 62.8321 45.0527L62.8283 45.049L62.1621 44.8552C62.5182 42.2669 62.3996 39.6353 61.8121 37.0896C61.2233 34.5182 60.1677 32.0768 58.6977 29.8864C58.8715 29.7289 59.1883 29.4483 59.2802 29.3639L59.2846 29.3602V29.3539C59.3121 29.0539 59.2883 28.7477 59.594 28.4202C60.2471 27.8077 61.0715 27.2971 62.0671 26.6833C62.5383 26.4058 62.9758 26.2264 63.4508 25.8752C63.5596 25.7952 63.7058 25.6702 63.8183 25.5796C64.6221 24.9383 64.8083 23.8308 64.2296 23.1052C63.6515 22.3802 62.5308 22.3133 61.7277 22.9539C61.614 23.0446 61.459 23.1614 61.3565 23.2496C60.9083 23.6358 60.6315 24.0158 60.2565 24.4139C59.4358 25.2483 58.7577 25.9427 58.0152 26.4427C57.6983 26.6264 57.229 26.5633 57.0133 26.5502H57.0083L56.3808 26.9996C52.7715 23.2196 47.8621 20.8021 42.5746 20.3296C42.559 20.0851 42.5457 19.8405 42.5346 19.5958V19.5908L42.5308 19.5871C42.3121 19.3789 42.0558 19.2058 41.9908 18.7633V18.7621C41.919 17.8696 42.039 16.9077 42.1783 15.7471C42.2565 15.2052 42.3858 14.7533 42.4071 14.1627C42.4127 14.0277 42.404 13.8333 42.404 13.6889C42.404 12.6608 41.6521 11.8252 40.724 11.8252H40.7108ZM18.7265 22.5964C18.8148 22.6089 18.9019 22.6269 18.9877 22.6502C18.902 22.6261 18.8147 22.6081 18.7265 22.5964ZM38.6252 24.7683L38.1333 33.4746L38.0977 33.4927L38.0965 33.5008C38.0952 33.5321 38.0877 33.5602 38.084 33.5902C38.0633 33.7775 38.0075 33.9592 37.9196 34.1258C37.8967 34.17 37.8715 34.2131 37.844 34.2552C37.7301 34.4212 37.5833 34.562 37.4127 34.6689C37.369 34.6971 37.3208 34.7189 37.274 34.7427C37.1026 34.8238 36.9175 34.8718 36.7283 34.8839C36.7002 34.8858 36.6733 34.8927 36.6452 34.8927C36.614 34.8927 36.5865 34.8789 36.5558 34.8764C36.3479 34.8567 36.1468 34.7918 35.9665 34.6864C35.9383 34.6702 35.9077 34.6608 35.8808 34.6433L35.8771 34.6571L35.8796 34.6433C35.8521 34.6264 35.8158 34.6333 35.7896 34.6139L35.7821 34.6077L35.7683 34.6164L28.6302 29.5558C28.6883 29.4989 28.7502 29.4471 28.8096 29.3908C29.4397 28.7914 30.1146 28.2408 30.8283 27.7439C30.9765 27.6408 31.124 27.5364 31.2752 27.4377C32.0346 26.9423 32.8321 26.508 33.6602 26.1389C33.8102 26.0721 33.9646 26.0114 34.1165 25.9483C34.9365 25.6099 35.7815 25.3358 36.644 25.1283C36.719 25.1096 36.7927 25.0864 36.869 25.0696C37.229 24.9883 37.5952 24.9408 37.9596 24.8827L37.9633 24.8671H37.9658L37.9621 24.8827C38.184 24.8477 38.4027 24.7952 38.6252 24.7683ZM42.829 24.7696C42.9521 24.7846 43.0727 24.8121 43.1952 24.8302C43.8609 24.9288 44.5203 25.0657 45.1702 25.2402C45.4277 25.3094 45.6829 25.3844 45.9358 25.4652C46.5813 25.6716 47.2143 25.9154 47.8315 26.1952C48.0656 26.3014 48.2973 26.4129 48.5265 26.5296C49.1358 26.8409 49.7264 27.1878 50.2952 27.5683C50.5094 27.7125 50.7208 27.8619 50.9296 28.0164C51.4742 28.418 51.9951 28.8508 52.4896 29.3127C52.5796 29.3964 52.6752 29.4733 52.7633 29.5596L45.6721 34.5871L45.6471 34.5777L45.6408 34.5827C45.6127 34.6027 45.5821 34.6108 45.5533 34.6289C45.3856 34.7351 45.1981 34.8061 45.0021 34.8377C44.954 34.8452 44.9065 34.8564 44.8583 34.8583C44.6466 34.8667 44.4355 34.8292 44.2396 34.7483C44.1825 34.726 44.1271 34.6994 44.074 34.6689C43.8915 34.5682 43.7325 34.4297 43.6077 34.2627C43.5765 34.2196 43.5527 34.1714 43.5265 34.1252C43.4308 33.954 43.3696 33.7656 43.3465 33.5708C43.3427 33.5364 43.3302 33.5064 43.3277 33.4714V33.4646L43.3208 33.4608L42.829 24.7696ZM60.124 32.4096C60.429 33.0308 60.7033 33.6652 60.9471 34.3127C60.7029 33.6657 60.4283 33.0306 60.124 32.4096ZM26.014 32.8408L32.5327 38.6708L32.5252 38.7058L32.5315 38.7108C33.119 39.2214 33.2002 40.1046 32.7146 40.7127C32.6971 40.7346 32.6721 40.7483 32.6533 40.7689C32.4858 40.9546 32.2737 41.0944 32.0371 41.1752C32.0102 41.1846 31.9883 41.2021 31.9615 41.2096L31.9527 41.2108L31.9452 41.2402L23.5908 43.6527C23.5783 43.5371 23.5783 43.4214 23.5677 43.3058C23.5054 42.611 23.4862 41.913 23.5102 41.2158C23.5181 40.9742 23.5313 40.7329 23.5496 40.4921C23.6021 39.7979 23.6975 39.1076 23.8352 38.4252C23.8856 38.171 23.9425 37.9179 24.0058 37.6658C24.1714 36.995 24.3781 36.335 24.6246 35.6896C24.7121 35.4587 24.8054 35.2302 24.9046 35.0039C25.1803 34.3627 25.4954 33.7392 25.8483 33.1371C25.9046 33.0396 25.9546 32.9371 26.014 32.8408ZM55.3902 32.8452C55.4508 32.9439 55.5002 33.0477 55.559 33.1471C55.9153 33.7543 56.2346 34.3826 56.5152 35.0283C56.609 35.2446 56.7015 35.4621 56.7865 35.6821C57.0451 36.3531 57.2622 37.0394 57.4365 37.7371C57.4646 37.8464 57.5015 37.9533 57.5265 38.0639C57.9577 39.9402 58.064 41.8133 57.8877 43.6239L49.4915 41.2052L49.4846 41.1696L49.4758 41.1671C49.4477 41.1596 49.4233 41.1458 49.3965 41.1364C49.2152 41.0741 49.0476 40.9775 48.9027 40.8521C48.866 40.8204 48.8306 40.7871 48.7965 40.7521C48.6599 40.6033 48.5554 40.428 48.4896 40.2371C48.4727 40.1883 48.4621 40.1383 48.4502 40.0877C48.4092 39.9047 48.4028 39.7156 48.4315 39.5302C48.4371 39.4996 48.4377 39.4702 48.444 39.4396C48.4502 39.4114 48.4677 39.3871 48.4752 39.3589C48.5447 39.1228 48.6736 38.9085 48.8496 38.7364C48.8708 38.7158 48.8833 38.6889 48.9058 38.6696L48.9121 38.6633L48.9083 38.6446L55.3902 32.8452ZM61.1577 34.9108C61.3648 35.5142 61.5448 36.1262 61.6977 36.7471C61.5446 36.1274 61.3644 35.5147 61.1577 34.9108ZM39.3927 39.1308H42.0565L43.7127 41.2021L43.119 43.7852L40.7252 44.9352L38.3271 43.7802L37.7315 41.1977L39.3927 39.1308ZM47.9721 46.2527C48.0846 46.2464 48.1952 46.2577 48.3052 46.2777L48.314 46.2796L48.3283 46.2608L56.9708 47.7221C56.9308 47.8346 56.879 47.9414 56.8365 48.0533C56.5904 48.6968 56.3066 49.3252 55.9865 49.9352C55.8681 50.1619 55.7446 50.3856 55.6158 50.6064C55.2645 51.2056 54.8777 51.7833 54.4577 52.3364C54.306 52.5364 54.1502 52.7325 53.9902 52.9246C53.5438 53.4593 53.0659 53.9668 52.559 54.4446C52.3773 54.6154 52.1915 54.7821 52.0015 54.9446C51.4768 55.396 50.9258 55.8159 50.3515 56.2021C50.2515 56.2689 50.1577 56.3427 50.0571 56.4077L46.704 48.3033L46.7133 48.2896L46.7108 48.2827C46.6983 48.2546 46.6946 48.2252 46.684 48.1971C46.6211 48.0188 46.5925 47.8303 46.5996 47.6414C46.6021 47.5908 46.6033 47.5402 46.6108 47.4902C46.6418 47.2925 46.7128 47.1032 46.8196 46.9339C46.8477 46.8889 46.8808 46.8483 46.9133 46.8064C47.0312 46.6605 47.1753 46.538 47.3383 46.4452C47.3652 46.4302 47.3877 46.4108 47.4152 46.3977C47.5958 46.3108 47.7846 46.2614 47.9721 46.2527ZM33.4033 46.2877L33.4115 46.2889C33.4302 46.2889 33.449 46.2939 33.469 46.2952C33.7455 46.3137 34.0112 46.4102 34.2352 46.5733C34.2781 46.6042 34.319 46.6371 34.3577 46.6721C34.5635 46.8573 34.7128 47.0969 34.7883 47.3633C34.7933 47.3821 34.8021 47.4002 34.8071 47.4196C34.8758 47.7189 34.8477 48.0321 34.7258 48.3139L34.7227 48.3214L34.7477 48.3527L31.429 56.3758C31.3321 56.3133 31.2415 56.2433 31.1471 56.1789C30.5727 55.793 30.0218 55.3733 29.4971 54.9221C29.3079 54.7588 29.1222 54.5914 28.9402 54.4202C28.4376 53.947 27.9634 53.4444 27.5202 52.9152C27.3577 52.7202 27.1994 52.5221 27.0452 52.3208C26.6335 51.7801 26.2537 51.2158 25.9077 50.6308C25.7715 50.4 25.6409 50.166 25.5158 49.9289C25.2001 49.3317 24.9192 48.7168 24.6746 48.0871C24.6308 47.9739 24.5783 47.8646 24.5371 47.7502L33.104 46.2964L33.1183 46.3152L33.1271 46.3121C33.2188 46.2954 33.3104 46.2873 33.4033 46.2877ZM40.6721 49.8133C40.7083 49.8121 40.7433 49.8214 40.7796 49.8227C40.9407 49.8292 41.0996 49.8628 41.2496 49.9221C41.2833 49.9352 41.3196 49.9408 41.3521 49.9571V49.9583C41.6299 50.0896 41.8584 50.3064 42.004 50.5771L42.0077 50.5846H42.0408L46.264 58.2177C46.0915 58.2752 45.9158 58.3258 45.7415 58.3777C45.535 58.4392 45.3275 58.4969 45.119 58.5508C44.9421 58.5971 44.7665 58.6446 44.5877 58.6852C44.5102 58.7033 44.4315 58.7139 44.3527 58.7302C43.4921 58.9138 42.6187 59.031 41.7402 59.0808C41.5652 59.0908 41.3915 59.1027 41.2165 59.1077C40.3142 59.1322 39.4114 59.0856 38.5165 58.9683C38.3415 58.9458 38.1665 58.9152 37.9927 58.8871C37.1337 58.7484 36.2865 58.5447 35.4583 58.2777C35.379 58.2521 35.2977 58.2327 35.2183 58.2058L39.4321 50.5883H39.4383L39.4427 50.5808C39.459 50.5508 39.4833 50.5277 39.5015 50.4996C39.6015 50.3424 39.7299 50.2053 39.8802 50.0952C39.9315 50.0577 39.9856 50.0235 40.0427 49.9927C40.208 49.9055 40.3882 49.8499 40.574 49.8289C40.6077 49.8258 40.6383 49.8146 40.6721 49.8133ZM48.0277 62.2233C47.359 62.4617 46.6802 62.6664 45.9915 62.8377C46.6798 62.666 47.3593 62.461 48.0277 62.2233Z" fill="white"/>
</svg>
