<svg width="168" height="151" viewBox="0 0 168 151" fill="none" xmlns="http://www.w3.org/2000/svg">
<rect x="0.5" y="0.824219" width="167" height="149" rx="19.5" fill="white" stroke="#CFCFCF"/>
<path d="M144.459 69.5011C144.156 69.2995 141.635 67.3332 136.19 67.3332C134.779 67.3332 133.367 67.4845 131.955 67.7365C130.897 60.6782 124.998 57.0986 124.746 56.9474L123.284 56.0903L122.376 57.4515C121.166 59.2665 120.208 61.3336 119.805 63.4511C118.797 67.4845 119.402 71.3161 121.469 74.5932C118.998 76.0049 114.965 76.3578 114.108 76.3578H47.7091C45.9949 76.3578 44.5833 77.7695 44.5833 79.534C44.5833 85.332 45.4908 91.1299 47.5074 96.5749C49.7762 102.574 53.2045 107.011 57.5908 109.734C62.5316 112.759 70.6487 114.473 79.8749 114.473C83.8578 114.473 87.992 114.12 92.0758 113.364C97.7224 112.355 103.167 110.389 108.159 107.515C112.292 105.151 115.992 102.099 119.099 98.4907C124.393 92.592 127.519 85.8865 129.787 80.0886H130.745C136.493 80.0886 140.072 77.7695 142.039 75.8032C143.349 74.5932 144.307 73.1311 145.013 71.417L145.417 70.207L144.459 69.5011ZM53.9103 74.4924H62.7837C63.187 74.4924 63.5903 74.1395 63.5903 73.6857V65.7199C63.5903 65.3165 63.2374 64.9132 62.7837 64.9132H53.9103C53.4566 64.9132 53.1037 65.2661 53.1037 65.7199V73.6857C53.1541 74.1395 53.4566 74.4924 53.9103 74.4924ZM66.1616 74.4924H75.0349C75.4383 74.4924 75.8416 74.1395 75.8416 73.6857V65.7199C75.8416 65.3165 75.4887 64.9132 75.0349 64.9132H66.1616C65.7078 64.9132 65.3549 65.2661 65.3549 65.7199V73.6857C65.4053 74.1395 65.7078 74.4924 66.1616 74.4924ZM78.6145 74.4924H87.4374C87.9416 74.4924 88.2945 74.1395 88.2945 73.6857V65.7199C88.2945 65.3165 87.992 64.9132 87.4374 64.9132H78.6145C78.2112 64.9132 77.8583 65.2661 77.8583 65.7199V73.6857C77.8583 74.1395 78.1608 74.4924 78.6145 74.4924ZM90.9162 74.4924H99.8399C100.243 74.4924 100.596 74.1395 100.596 73.6857V65.7199C100.596 65.3165 100.294 64.9132 99.8399 64.9132H90.9162C90.5128 64.9132 90.1599 65.2661 90.1599 65.7199V73.6857C90.1599 74.1395 90.5128 74.4924 90.9162 74.4924ZM66.1616 63.199H75.0349C75.4383 63.199 75.8416 62.7453 75.8416 62.2915V54.3761C75.8416 53.9224 75.4887 53.5695 75.0349 53.5695H66.1616C65.7078 53.5695 65.3549 53.872 65.3549 54.3761V62.2915C65.4053 62.7453 65.7078 63.199 66.1616 63.199ZM78.6145 63.199H87.4374C87.9416 63.199 88.2945 62.7453 88.2945 62.2915V54.3761C88.2945 53.9224 87.992 53.5695 87.4374 53.5695H78.6145C78.2112 53.5695 77.8583 53.872 77.8583 54.3761V62.2915C77.8583 62.7453 78.1608 63.199 78.6145 63.199ZM90.9162 63.199H99.8399C100.243 63.199 100.596 62.7453 100.596 62.2915V54.3761C100.596 53.9224 100.243 53.5695 99.8399 53.5695H90.9162C90.5128 53.5695 90.1599 53.872 90.1599 54.3761V62.2915C90.1599 62.7453 90.5128 63.199 90.9162 63.199ZM90.9162 51.704H99.8399C100.243 51.704 100.596 51.3511 100.596 50.8974V43.0324C100.596 42.5282 100.243 42.1753 99.8399 42.1753H90.9162C90.5128 42.1753 90.1599 42.4778 90.1599 43.0324V50.8974C90.1599 51.3007 90.5128 51.704 90.9162 51.704ZM103.319 74.4924H112.192C112.646 74.4924 112.999 74.1395 112.999 73.6857V65.7199C112.999 65.3165 112.646 64.9132 112.192 64.9132H103.319C102.915 64.9132 102.562 65.2661 102.562 65.7199V73.6857C102.562 74.1395 102.915 74.4924 103.319 74.4924Z" fill="#0288D1"/>
</svg>
