<svg width="48" height="49" viewBox="0 0 48 49" fill="none" xmlns="http://www.w3.org/2000/svg">
<g clip-path="url(#clip0_8_57854)">
<path d="M45.1697 0.434814L41.3139 43.6298L23.9818 48.4348L6.69744 43.6366L2.8457 0.434814H45.1697Z" fill="#264DE4"/>
<path d="M24.0078 44.7622L38.013 40.8794L41.308 3.96729H24.0078V44.7622Z" fill="#2965F1"/>
<path d="M24.0077 19.9902H11.6758L12.1507 25.2887H24.0077V19.9902Z" fill="#EBEBEB"/>
<path d="M24.0069 9.26587H23.9886H10.7207L11.2024 14.5644H24.0069V9.26587Z" fill="#EBEBEB"/>
<path d="M12.3867 27.9377L13.129 36.2572L23.9827 39.2702L24.0071 39.2634V33.7508L23.9838 33.7569L18.0828 32.1636L17.7056 27.9377H14.8382H12.3867Z" fill="#EBEBEB"/>
<path d="M30.5148 25.2887L29.8998 32.1604L23.9902 33.7555V39.2679L34.8525 36.2574L34.9322 35.3623L36.1773 21.413L36.3066 19.9902L37.2631 9.26587H23.9902V14.5644H31.4564L30.9743 19.9902H23.9902V25.2887H30.5148Z" fill="white"/>
</g>
<defs>
<clipPath id="clip0_8_57854">
<rect width="48" height="48" fill="white" transform="translate(-0.00390625 0.434814)"/>
</clipPath>
</defs>
</svg>
