<svg width="64" height="64" viewBox="0 0 64 64" fill="none" xmlns="http://www.w3.org/2000/svg">
<path d="M52.2499 16.7996C52.6841 16.1528 52.9154 15.3912 52.9143 14.6122C52.9143 12.4407 51.1537 10.6808 48.9829 10.6808C48.2038 10.6796 47.4422 10.911 46.7954 11.3454C42.5586 8.22554 37.3251 6.38086 31.6595 6.38086C17.5458 6.38086 6.10547 17.8218 6.10547 31.9349C6.10547 46.0486 17.5464 57.489 31.6595 57.489C45.772 57.489 57.2136 46.0483 57.2136 31.9349C57.2136 26.2699 55.3688 21.0364 52.2492 16.7991L52.2499 16.7996ZM48.3477 48.623C46.1798 50.7909 43.6557 52.4928 40.8456 53.6815C37.9374 54.9115 34.847 55.5352 31.6602 55.5352C28.4733 55.5352 25.3828 54.9115 22.4746 53.6815C19.6645 52.4928 17.1405 50.791 14.9725 48.623C12.8044 46.4549 11.1025 43.931 9.91401 41.1209C8.68385 38.2126 8.06011 35.1221 8.06011 31.9352C8.06011 28.7483 8.68385 25.6578 9.91389 22.7496C11.1024 19.9395 12.8043 17.4156 14.9724 15.2475C17.1404 13.0795 19.6644 11.3775 22.4745 10.189C25.3828 8.95887 28.4733 8.33513 31.6602 8.33513C34.847 8.33513 37.9374 8.95887 40.8456 10.1889C42.4881 10.8832 44.0462 11.7622 45.4898 12.8091C45.2012 13.3663 45.0509 13.9849 45.0515 14.6125C45.0515 16.7839 46.8116 18.5439 48.9829 18.5439C49.6332 18.5439 50.2458 18.385 50.7862 18.1055C51.8332 19.549 52.7122 21.107 53.4063 22.7496C54.6365 25.6578 55.2602 28.7483 55.2602 31.9352C55.2602 35.1221 54.6365 38.2126 53.4063 41.1209C52.2177 43.931 50.5159 46.4551 48.3477 48.623Z" fill="#448AFF"/>
<path d="M31.6594 43.729C38.1732 43.729 43.4536 38.4486 43.4536 31.9348C43.4536 25.4211 38.1732 20.1406 31.6594 20.1406C25.1457 20.1406 19.8652 25.4211 19.8652 31.9348C19.8652 38.4486 25.1457 43.729 31.6594 43.729Z" fill="#448AFF"/>
</svg>
