<svg width="44" height="43" viewBox="0 0 44 43" fill="none" xmlns="http://www.w3.org/2000/svg">
<path d="M8.83966 18.769C8.83966 17.2966 7.64609 16.103 6.17374 16.103C4.70139 16.103 3.50781 17.2966 3.50781 18.769V26.7667C3.50781 28.2391 4.70139 29.4326 6.17374 29.4326C7.64609 29.4326 8.83966 28.2391 8.83966 26.7667V18.769Z" fill="#8BC34A"/>
<path d="M40.8318 18.769C40.8318 17.2966 39.6383 16.103 38.1659 16.103C36.6936 16.103 35.5 17.2966 35.5 18.769V26.7667C35.5 28.2391 36.6936 29.4326 38.1659 29.4326C39.6383 29.4326 40.8318 28.2391 40.8318 26.7667V18.769Z" fill="#8BC34A"/>
<path d="M11.5039 16.1027H32.8313V32.0982H11.5039V16.1027ZM14.1698 32.0982H19.5017V37.43C19.5017 38.1371 19.2208 38.8152 18.7208 39.3151C18.2209 39.8151 17.5428 40.096 16.8358 40.096C16.1287 40.096 15.4506 39.8151 14.9507 39.3151C14.4507 38.8152 14.1698 38.1371 14.1698 37.43V32.0982ZM24.8335 32.0982H30.1654V37.43C30.1654 38.1371 29.8845 38.8152 29.3845 39.3151C28.8846 39.8151 28.2065 40.096 27.4995 40.096C26.7924 40.096 26.1143 39.8151 25.6144 39.3151C25.1144 38.8152 24.8335 38.1371 24.8335 37.43V32.0982ZM29.5589 5.7602L32.3848 2.93432C32.6276 2.68292 32.7619 2.34622 32.7589 1.99672C32.7558 1.64722 32.6157 1.3129 32.3685 1.06575C32.1214 0.818611 31.7871 0.678425 31.4376 0.675388C31.0881 0.672351 30.7513 0.806706 30.4999 1.04952L27.3995 4.14999C25.8036 3.24698 24.0012 2.77239 22.1676 2.77239C20.334 2.77239 18.5316 3.24698 16.9357 4.14999L13.8366 1.04952C13.7136 0.922204 13.5665 0.820656 13.4039 0.750797C13.2413 0.680938 13.0664 0.644166 12.8894 0.642628C12.7124 0.64109 12.5369 0.674817 12.3731 0.741839C12.2092 0.808862 12.0604 0.907838 11.9353 1.03299C11.8101 1.15815 11.7111 1.30698 11.6441 1.47079C11.5771 1.63461 11.5434 1.81013 11.5449 1.98712C11.5464 2.16411 11.5832 2.33902 11.6531 2.50165C11.7229 2.66428 11.8245 2.81136 11.9518 2.93432L14.7777 5.7602C13.742 6.7525 12.9181 7.94423 12.3554 9.26355C11.7928 10.5829 11.5031 12.0025 11.5039 13.4367H32.8313C32.8322 12.0025 32.5428 10.583 31.9804 9.26371C31.418 7.94439 30.5943 6.75262 29.5589 5.7602ZM19.5017 10.7708H16.8358V8.10488H19.5017V10.7708ZM27.4995 10.7708H24.8335V8.10488H27.4995V10.7708Z" fill="#8BC34A"/>
</svg>
