<svg width="61" height="61" viewBox="0 0 61 61" fill="none" xmlns="http://www.w3.org/2000/svg">
<path d="M22.8137 46.4295C22.8137 46.4295 20.5793 47.7297 24.406 48.1684C29.0425 48.6981 31.4119 48.6221 36.52 47.6566C36.52 47.6566 37.8657 48.4979 39.7415 49.2272C28.2865 54.1347 13.8176 48.9427 22.8137 46.4295ZM21.4132 40.0244C21.4132 40.0244 18.9065 41.8801 22.7364 42.2766C27.6893 42.788 31.5999 42.8297 38.3701 41.5267C38.3701 41.5267 39.3042 42.4758 40.7755 42.9942C26.9286 47.044 11.5059 43.3129 21.4132 40.0244Z" fill="#0074BD"/>
<path d="M33.2149 29.1574C36.0389 32.408 32.4743 35.3305 32.4743 35.3305C32.4743 35.3305 39.6406 31.6318 36.3501 26.998C33.2758 22.6788 30.9191 20.5334 43.6786 13.1333C43.6786 13.1338 23.6497 18.1345 33.2149 29.1574Z" fill="#EA2D2E"/>
<path d="M48.3644 51.1676C48.3644 51.1676 50.0185 52.5316 46.542 53.5857C39.9321 55.5881 19.0254 56.1918 13.2189 53.6659C11.1326 52.7575 15.0464 51.4981 16.2777 51.2323C17.5616 50.9543 18.2946 51.005 18.2946 51.005C15.9731 49.3705 3.28951 54.2157 11.853 55.6054C35.2051 59.3908 54.4207 53.9007 48.3644 51.1676ZM23.8921 33.3867C23.8921 33.3867 13.2587 35.9127 20.1269 36.8309C23.0273 37.219 28.8066 37.1299 34.1936 36.6781C38.5949 36.3083 43.0116 35.5185 43.0116 35.5185C43.0116 35.5185 41.4611 36.1836 40.338 36.9495C29.5378 39.7904 8.67885 38.4672 14.6846 35.563C19.7617 33.1074 23.8921 33.3867 23.8921 33.3867ZM42.9676 44.0487C53.9454 38.3458 48.8692 32.865 45.3262 33.6033C44.46 33.7837 44.0714 33.9408 44.0714 33.9408C44.0714 33.9408 44.3939 33.435 45.0088 33.2175C52.0176 30.7544 57.4069 40.4841 42.7482 44.3379C42.7482 44.337 42.9165 44.1846 42.9676 44.0487Z" fill="#0074BD"/>
<path d="M36.3454 1.18262C36.3454 1.18262 42.4238 7.26472 30.5788 16.6143C21.0797 24.1166 28.4128 28.3932 30.5755 33.2815C25.0301 28.2788 20.9625 23.8743 23.6909 19.7753C27.6975 13.7598 38.7973 10.842 36.3454 1.18262Z" fill="#EA2D2E"/>
<path d="M24.9688 59.5073C35.5037 60.1808 51.6858 59.1323 52.0687 54.147C52.0687 54.147 51.3324 56.0369 43.3613 57.5363C34.3685 59.2293 23.2748 59.032 16.6973 57.9459C16.6973 57.9464 18.0448 59.062 24.9688 59.5073Z" fill="#0074BD"/>
</svg>
