<svg width="47" height="47" viewBox="0 0 47 47" fill="none" xmlns="http://www.w3.org/2000/svg">
<path d="M31.0588 25.4866L45.0013 24.1068C45.175 25.9882 44.9745 27.8854 44.4114 29.689C43.8483 31.4926 42.9337 33.1669 41.7204 34.6153C40.5072 36.0638 39.0192 37.2577 37.3423 38.1283C35.6654 38.9989 33.8327 39.529 31.95 39.6879C29.5674 39.8965 27.1705 39.5072 24.9764 38.5554C22.7823 37.6036 20.8603 36.1193 19.3848 34.2371C17.9092 32.3549 16.9266 30.1343 16.526 27.7764C16.1254 25.4185 16.3195 22.998 17.0907 20.7341C17.8619 18.4701 19.1858 16.4344 20.9425 14.8114C22.6991 13.1884 24.833 12.0294 27.1507 11.4394C29.4685 10.8494 31.8968 10.847 34.2157 11.4325C36.5346 12.0181 38.6707 13.1729 40.4305 14.7926L35.5434 20.0821C34.476 19.1035 33.1378 18.4701 31.7042 18.2651C30.2707 18.06 28.8086 18.2928 27.5096 18.933C26.2106 19.5732 25.1354 20.5908 24.4247 21.8526C23.714 23.1144 23.4011 24.5614 23.5269 26.0041C23.6707 27.6427 24.3893 29.1663 25.5105 30.345C26.2292 31.1212 28.3853 32.731 30.6276 32.7023C32.9274 32.6448 35.1697 31.9836 36.5783 30.3737C36.5783 30.3737 38.8781 27.614 38.5331 24.9692M7.68701 25.3717L1.9375 25.4004M6.24963 31.1499H10.5618M4.81226 19.6796L10.5618 19.6221" stroke="#7DC4E4" stroke-width="2.87476" stroke-linecap="round" stroke-linejoin="round"/>
</svg>
