<svg width="61" height="61" viewBox="0 0 61 61" fill="none" xmlns="http://www.w3.org/2000/svg">
<path d="M46.7031 0H14.2969C6.40093 0 0 6.40093 0 14.2969V46.7031C0 54.5991 6.40093 61 14.2969 61H46.7031C54.5991 61 61 54.5991 61 46.7031V14.2969C61 6.40093 54.5991 0 46.7031 0Z" fill="#F4F2ED"/>
<path d="M28.9393 6.68469C28.8368 6.69398 28.5106 6.72663 28.217 6.74974C21.4484 7.35998 15.1082 11.0124 11.0925 16.6258C8.85668 19.747 7.42627 23.2874 6.88609 27.0377C6.69523 28.3468 6.67188 28.7336 6.67188 30.5083C6.67188 32.2832 6.69523 32.67 6.88633 33.9789C8.18115 42.9277 14.5495 50.4467 23.1862 53.2324C24.7329 53.7309 26.3632 54.071 28.2173 54.2759C28.9395 54.355 32.0605 54.355 32.7827 54.2759C35.9831 53.9218 38.6943 53.13 41.3682 51.7649C41.7781 51.5554 41.8574 51.4994 41.8014 51.453C41.7643 51.4249 40.0172 49.0816 37.921 46.2494L34.1104 41.1018L29.3353 34.0348C26.708 30.1497 24.5465 26.9724 24.5277 26.9724C24.5091 26.9679 24.4905 30.1077 24.4813 33.9417C24.4672 40.6545 24.4627 40.9247 24.3788 41.083C24.2577 41.3112 24.1646 41.4044 23.9687 41.5071C23.8198 41.5815 23.6892 41.5955 22.9858 41.5955H22.1799L21.9655 41.4604C21.8327 41.3772 21.7249 41.2598 21.6533 41.1204L21.5556 40.9107L21.5652 31.5705L21.579 22.2256L21.7234 22.0438C21.798 21.9461 21.9564 21.8203 22.0682 21.7598C22.259 21.6666 22.3336 21.6573 23.1395 21.6573C24.09 21.6573 24.2482 21.6945 24.4953 21.9647C24.5651 22.0393 27.1505 25.9338 30.2438 30.6248C33.3755 35.373 36.5091 40.12 39.6445 44.8657L43.4179 50.5818L43.609 50.456C45.2999 49.3566 47.0889 47.7913 48.505 46.1607C51.519 42.6995 53.4617 38.479 54.1139 33.9789C54.3048 32.67 54.3281 32.2832 54.3281 30.5083C54.3281 28.7333 54.3048 28.3468 54.1139 27.0377C52.8189 18.0888 46.4505 10.5701 37.8138 7.78436C36.2905 7.2904 34.6694 6.95037 32.8525 6.74545C32.4053 6.69875 29.326 6.64775 28.9395 6.68493M38.6943 21.0983C38.9178 21.2101 39.0996 21.4243 39.1649 21.6478C39.202 21.7691 39.2113 24.3592 39.202 30.1961L39.188 38.5722L37.7113 36.3081L36.2299 34.0441V27.9556C36.2299 24.0192 36.2485 21.8063 36.2764 21.699C36.351 21.4383 36.514 21.2334 36.7377 21.1121C36.9286 21.0144 36.9986 21.0049 37.7299 21.0049C38.4195 21.0049 38.5406 21.0144 38.6943 21.0983Z" fill="black"/>
</svg>
