<svg width="69" height="69" viewBox="0 0 69 69" fill="none" xmlns="http://www.w3.org/2000/svg">
<path d="M24.2637 26.7071C26.6273 33.9351 27.5226 46.8284 34.4343 46.8284C34.9598 46.8284 35.4922 46.777 36.0257 46.6754C29.7434 45.2107 28.9985 32.4576 25.1643 25.8525C24.8588 26.1318 24.5585 26.4167 24.2637 26.7071Z" fill="url(#paint0_linear_8_58109)"/>
<path d="M25.168 25.8521C29.0021 32.4567 29.747 45.2098 36.0294 46.675C36.5336 46.5798 37.0298 46.4458 37.5133 46.2741C31.8736 43.5108 30.3153 31.1269 25.961 25.165C25.6974 25.3848 25.433 25.6138 25.168 25.8521Z" fill="url(#paint1_linear_8_58109)"/>
<path d="M30.6937 21.9248C30.1693 21.9248 29.6358 21.9762 29.1006 22.0779C27.7029 22.3417 26.2816 22.9437 24.8496 23.855C25.2403 24.2414 25.6132 24.6829 25.9632 25.165C27.4204 23.9562 28.8673 23.063 30.3084 22.5258C30.8346 22.3286 31.3769 22.1778 31.9293 22.0752C31.5253 21.9741 31.1102 21.9236 30.6937 21.9248Z" fill="#14559A"/>
<path d="M41.9119 43.7275C42.5128 43.2477 43.0914 42.7405 43.6458 42.2077C41.2441 35.014 40.3842 21.9355 33.4243 21.9355C32.9267 21.9355 32.4247 21.9821 31.9238 22.0747C38.2635 23.6517 39.0758 37.4446 41.9119 43.7275Z" fill="url(#paint2_linear_8_58109)"/>
<path d="M31.9222 22.0748C31.5178 21.9734 31.1024 21.9227 30.6855 21.9238L33.4222 21.934C32.925 21.934 32.4231 21.98 31.9222 22.0748Z" fill="#3092C4"/>
<path d="M41.7883 45.2554C41.5109 44.9879 41.249 44.7049 41.0038 44.4077C39.8329 45.2366 38.6664 45.8654 37.5078 46.2748C37.9204 46.476 38.3522 46.6258 38.8114 46.7184C39.1667 46.7912 39.5354 46.8286 39.9218 46.8286C41.2227 46.8286 42.2512 46.6745 43.1256 46.255C42.6439 45.9938 42.2019 45.6567 41.7883 45.2554Z" fill="#1969BC"/>
<path d="M30.3008 22.5264C35.979 25.4963 36.4729 38.9462 41.0038 44.4072C41.3071 44.1931 41.6087 43.9664 41.9087 43.727C39.0726 37.4441 38.2618 23.6496 31.9233 22.0742C31.3828 22.1748 30.842 22.3256 30.3008 22.5264Z" fill="url(#paint3_linear_8_58109)"/>
<path d="M25.9531 25.165C30.3074 31.1269 31.8657 43.5113 37.5054 46.2747C38.6645 45.8653 39.8311 45.2371 41.0014 44.4076C36.4705 38.9467 35.9766 25.4973 30.2983 22.5269C28.8573 23.0631 27.4103 23.9562 25.9531 25.165Z" fill="url(#paint4_linear_8_58109)"/>
<path d="M21.4855 26.5326C20.8032 28.0753 20.106 30.104 19.2637 32.7513C20.9392 30.3897 22.6098 28.3557 24.2708 26.707C24.0611 26.0503 23.8142 25.406 23.5313 24.7773C22.8178 25.3246 22.1349 25.9106 21.4855 26.5326Z" fill="url(#paint5_linear_8_58109)"/>
<path d="M24.134 24.332C23.9339 24.4754 23.7321 24.6221 23.5293 24.7773C23.7942 25.3552 24.0393 26.0038 24.2678 26.7075C24.5632 26.4174 24.8636 26.1325 25.1689 25.8529C24.8634 25.3202 24.5174 24.8117 24.134 24.332Z" fill="#2B74B1"/>
<path d="M24.8463 23.8545C24.6087 24.0058 24.3702 24.1647 24.1309 24.3313C24.5028 24.7888 24.8442 25.2999 25.1669 25.8532C25.4316 25.6131 25.6959 25.3835 25.9599 25.1645C25.6099 24.6829 25.2375 24.2409 24.8463 23.8545Z" fill="#125A9E"/>
<path d="M63.5737 21.3747C60.3624 33.7597 53.6546 43.7077 48.0315 46.2153H48.0203L47.7169 46.3453L47.6799 46.3598L47.5938 46.3929L47.5553 46.409L47.4145 46.4588L47.3567 46.4791L47.2866 46.5021L47.2192 46.5257L47.1593 46.546L47.0394 46.5824L46.988 46.5958L46.9072 46.6177L46.8521 46.6327L46.7638 46.6557L46.6562 46.6792C46.9104 46.7729 47.1753 46.8205 47.4605 46.8205C52.7931 46.8205 58.17 37.2642 67.0665 21.3721H63.5732L63.5737 21.3747Z" fill="url(#paint6_linear_8_58109)"/>
<path d="M18.1013 22.4282L18.1114 22.4196L18.1237 22.4116H18.1307L18.2168 22.3784L18.234 22.3699L18.2564 22.3608L18.349 22.3276H18.3538L18.5588 22.2559L18.5893 22.2479L18.6771 22.2216L18.7172 22.2088L18.8055 22.1826L18.8392 22.1735L19.1324 22.0975L19.1726 22.0884L19.2582 22.0718L19.2999 22.059L19.3861 22.0429H19.4064L19.5846 22.0097H19.6199L19.7024 21.9953L19.7489 21.9873L19.8276 21.9755L19.8709 21.9669L20.0625 21.9498C19.8738 21.9318 19.6843 21.9221 19.4947 21.9209C13.489 21.9209 5.2149 33.0633 1.48828 47.4935H2.20696C3.32116 45.5018 4.40261 43.4919 5.45089 41.4648C8.06177 31.2439 13.3782 24.2733 18.1013 22.4266" fill="url(#paint7_linear_8_58109)"/>
<path d="M21.4883 26.5326C22.1383 25.9112 22.8212 25.3251 23.5341 24.7768C23.389 24.454 23.2263 24.1394 23.0466 23.8345C22.4975 24.5012 21.9956 25.381 21.4883 26.5326Z" fill="#0D82CA"/>
<path d="M21.9822 22.5117C22.3745 22.8403 22.7261 23.293 23.0471 23.8351C23.1477 23.7113 23.2512 23.5955 23.3575 23.4878C22.9262 23.08 22.4372 22.738 21.9062 22.4727L21.9705 22.5032L21.9822 22.5117Z" fill="#0D82CA"/>
<path d="M5.45117 41.4649C10.9271 30.9128 13.5214 24.2344 18.1015 22.4268C13.3791 24.2751 8.06152 31.2451 5.45117 41.4649Z" fill="url(#paint8_linear_8_58109)"/>
<path d="M23.3533 23.4888C23.2469 23.5979 23.1452 23.7119 23.043 23.8361C23.2153 24.124 23.3753 24.4375 23.5315 24.7779C23.7338 24.6227 23.9361 24.4766 24.1357 24.3327C23.8954 24.033 23.634 23.751 23.3533 23.4888Z" fill="#127BCA"/>
<path d="M7.93099 47.446L7.83146 47.4577H7.81273L7.72818 47.4663H7.71426L7.51306 47.4797H7.49219C13.0339 47.3245 15.5678 44.5498 16.8248 40.5246C17.78 37.4739 18.565 34.9031 19.2526 32.7466C16.9313 36.0141 14.5992 39.9087 12.2548 44.2727C11.1246 46.3757 9.40526 47.2544 7.93099 47.4417" fill="url(#paint9_linear_8_58109)"/>
<path d="M7.94389 47.4436C9.41817 47.2557 11.1375 46.3781 12.2677 44.274C14.6121 39.9122 16.9452 36.0165 19.2645 32.7485C20.1084 30.1001 20.8046 28.0731 21.4874 26.5298C16.8644 30.9301 12.2238 38.2469 7.94336 47.4409" fill="url(#paint10_linear_8_58109)"/>
<path d="M5.4515 41.4653C4.40322 43.4926 3.32158 45.5025 2.20703 47.4941H4.29616C4.56063 45.4636 4.94625 43.4508 5.45096 41.4664" fill="#05A1E6"/>
<path d="M19.8658 21.9714L19.8214 21.9799L19.7433 21.9912L19.6973 21.9992L19.6148 22.0136L19.5795 22.0222L19.4013 22.0532H19.381L19.2943 22.0704L19.251 22.0821L19.1669 22.0987L19.1273 22.1084L18.8336 22.1843L18.7999 22.194L18.711 22.2202L18.6709 22.2314L18.5837 22.2577L18.5516 22.2662L18.3477 22.3379L18.2551 22.37L18.2166 22.3861L18.1304 22.4182L18.1015 22.4321C13.5219 24.2392 10.9276 30.9176 5.45168 41.4697C4.9457 43.4539 4.56007 45.4668 4.29688 47.4974H4.58959L6.59899 47.4888H7.52101L7.72168 47.4755H7.73452L7.81907 47.4669H7.83887L7.93841 47.4551C12.2194 38.2606 16.86 30.9443 21.4824 26.544C21.9908 25.3924 22.4922 24.5127 23.0402 23.847C22.7191 23.3049 22.3681 22.8511 21.9764 22.522L21.9651 22.5134L21.8998 22.4819L21.8351 22.4492L21.7725 22.4187L21.6981 22.3877L21.6403 22.3625L21.5188 22.3117L21.4669 22.2924L21.3765 22.256L21.3278 22.24L21.202 22.1966H21.1919L21.0463 22.1554L21.0137 22.1453L20.8911 22.111L20.8628 22.103C20.7621 22.077 20.6605 22.0547 20.5583 22.0361L20.5267 22.0275L20.3945 22.0061L20.3683 21.9981L20.2121 21.9772H20.1848L20.0638 21.9639L19.8722 21.9815" fill="url(#paint11_linear_8_58109)"/>
<path d="M51.0288 28.2309C49.9746 31.606 49.1222 34.3902 48.3789 36.6811C51.2702 32.7024 54.1181 27.6979 56.8296 21.9229C53.6654 22.9166 51.9787 25.1909 51.0288 28.2309Z" fill="url(#paint12_linear_8_58109)"/>
<path d="M48.4853 46.0043C48.3382 46.0792 48.1899 46.1503 48.0449 46.2151C53.668 43.707 60.3764 33.759 63.5871 21.374H62.9364C55.5581 34.5547 53.1853 43.3784 48.4853 46.0043Z" fill="url(#paint13_linear_8_58109)"/>
<path d="M44.8045 44.897C46.0283 43.4035 47.0242 40.8648 48.385 36.6807C46.8155 38.8367 45.2358 40.6898 43.6545 42.201L43.6465 42.2144C43.9916 43.2477 44.37 44.1601 44.8013 44.8965" fill="#079AE1"/>
<path d="M44.8014 44.8979C44.385 45.4063 43.9436 45.7932 43.4534 46.08C43.3464 46.1428 43.2375 46.2012 43.127 46.255C43.6587 46.5439 44.2412 46.7276 44.8426 46.796L45.123 46.8207H45.1396L45.2744 46.8292H45.7319L45.7839 46.8207L45.885 46.8121H45.9342L46.0439 46.8003H46.053L46.0867 46.7923L46.2039 46.7741H46.2382L46.3698 46.7522H46.3912L46.654 46.6965C45.9278 46.4311 45.3204 45.8045 44.7976 44.9124" fill="#1969BC"/>
<path d="M34.4316 46.8286C34.9571 46.8286 35.489 46.7772 36.0226 46.6745C36.5271 46.581 37.0233 46.4473 37.5065 46.2747C37.9191 46.4759 38.3514 46.6258 38.8095 46.7194C39.1641 46.7922 39.5346 46.8288 39.921 46.8291L34.4316 46.8286ZM39.921 46.8291C41.2208 46.8291 42.2504 46.6745 43.1242 46.2544C43.656 46.5435 44.2385 46.7274 44.8398 46.7959L45.1202 46.82H45.1368L45.2717 46.8286H45.4333L39.921 46.8291Z" fill="#1E5CB3"/>
<path d="M45.4355 46.8282H45.7358L45.7877 46.8196L45.8899 46.8111H45.9391L46.0483 46.7993H46.0574L46.0905 46.7907L46.2077 46.7731L46.2436 46.765L46.3758 46.7436H46.3966L46.6594 46.688C46.9136 46.7816 47.1785 46.8293 47.4637 46.8293L45.4366 46.8378L45.4355 46.8282Z" fill="#1D60B5"/>
<path d="M43.6437 42.2151V42.2065C43.0893 42.7394 42.5107 43.2465 41.9099 43.7263C41.6144 43.9616 41.3123 44.1884 41.0039 44.4064C41.2586 44.7104 41.5171 44.9951 41.7895 45.2546C42.2026 45.6554 42.6441 45.9931 43.1262 46.2537C43.2364 46.1995 43.3451 46.1411 43.4521 46.0787C43.9434 45.7919 44.3838 45.4045 44.8006 44.8966C44.3693 44.1603 43.991 43.2474 43.6464 42.2146" fill="#175FAB"/>
<path d="M60.8669 21.374H57.5914L57.0723 21.3992L56.8309 21.9161C54.1189 27.6917 51.2721 32.6962 48.3808 36.6749C47.0216 40.8585 46.0241 43.3977 44.8008 44.8907C45.3236 45.7832 45.932 46.4104 46.6555 46.6764L46.7122 46.6641H46.724L46.7642 46.6555L46.8551 46.633L46.9092 46.6175L46.99 46.5966L47.0403 46.5822L47.1612 46.5458L47.2212 46.5255L47.2886 46.5009L47.3581 46.4789L47.4149 46.4575L47.5561 46.4077L47.5952 46.3933L47.6819 46.3596L47.7183 46.3462L48.0222 46.2162H48.0329C48.178 46.1525 48.3257 46.0802 48.4723 46.0053C53.1734 43.3789 55.5466 34.5558 62.925 21.3756H60.8642L60.8669 21.374Z" fill="url(#paint14_linear_8_58109)"/>
<path d="M20.0664 21.9537L20.1001 21.9623L20.1857 21.9714H20.2146L20.3709 21.9917L20.3971 22.0003L20.5288 22.0222L20.5619 22.0303L20.8653 22.0977L20.8932 22.1062L21.0152 22.1405L21.0489 22.1507L21.1939 22.1919L21.2052 22.2004L21.332 22.2438L21.3801 22.2593L21.4711 22.2962L21.5225 22.3144L21.6434 22.3647L21.7023 22.3899L21.7751 22.4214L21.8393 22.4519L21.903 22.4851C22.4268 22.742 22.9085 23.085 23.3548 23.5008C23.5192 23.3285 23.6908 23.1726 23.8695 23.0331C22.894 22.3412 21.7879 21.9468 20.5138 21.9468C20.3661 21.9468 20.2184 21.9553 20.0685 21.9666" fill="#7DCBEC"/>
<path d="M23.3438 23.4882C23.6172 23.7424 23.8789 24.026 24.1261 24.3321C24.3658 24.1657 24.6034 24.0051 24.8416 23.8553C24.5382 23.5493 24.2089 23.27 23.8575 23.0205C23.6795 23.1596 23.5082 23.3155 23.3438 23.4882Z" fill="#5EC5ED"/>
<path d="M19.9132 21.9887L20.3587 21.9698C21.6337 21.9698 22.7387 22.3641 23.7139 23.0557C24.7431 22.2426 25.9882 21.959 27.7171 21.959H19.3457L19.9132 21.9887Z" fill="url(#paint15_linear_8_58109)"/>
<path d="M27.7336 21.9582C26.0048 21.9582 24.7624 22.2418 23.7305 23.0549C24.0726 23.2962 24.4004 23.5745 24.7138 23.8896C26.1482 22.9793 27.5663 22.3742 28.9656 22.1121C29.5004 22.0113 30.0308 21.9609 30.5566 21.9609L27.7336 21.9582Z" fill="url(#paint16_linear_8_58109)"/>
<path d="M48.391 36.6835C49.1354 34.391 49.9857 31.6078 51.042 28.2317C51.9929 25.1901 53.6775 22.9158 56.8401 21.9237L57.0841 21.4067C51.9277 21.7155 49.5175 24.3387 48.3054 28.2232C46.1842 35.0048 44.8993 39.4009 43.6621 42.2023C45.2418 40.6916 46.8215 38.8374 48.391 36.6835Z" fill="url(#paint17_linear_8_58109)"/>
<defs>
<linearGradient id="paint0_linear_8_58109" x1="30.2619" y1="21.7544" x2="30.2619" y2="53.0841" gradientUnits="userSpaceOnUse">
<stop stop-color="#0994DC"/>
<stop offset="0.35" stop-color="#66CEF5"/>
<stop offset="0.846" stop-color="#127BCA"/>
<stop offset="1" stop-color="#127BCA"/>
</linearGradient>
<linearGradient id="paint1_linear_8_58109" x1="31.4452" y1="21.0004" x2="31.4452" y2="53.0463" gradientUnits="userSpaceOnUse">
<stop stop-color="#0E76BC"/>
<stop offset="0.36" stop-color="#36AEE8"/>
<stop offset="0.846" stop-color="#00ADEF"/>
<stop offset="1" stop-color="#00ADEF"/>
</linearGradient>
<linearGradient id="paint2_linear_8_58109" x1="37.7827" y1="46.0673" x2="37.7827" y2="20.5689" gradientUnits="userSpaceOnUse">
<stop stop-color="#1C63B7"/>
<stop offset="0.5" stop-color="#33BDF2"/>
<stop offset="1" stop-color="#33BDF2" stop-opacity="0.42"/>
</linearGradient>
<linearGradient id="paint3_linear_8_58109" x1="36.0579" y1="17.652" x2="36.0579" y2="51.0091" gradientUnits="userSpaceOnUse">
<stop stop-color="#166AB8"/>
<stop offset="0.4" stop-color="#36AEE8"/>
<stop offset="0.846" stop-color="#0798DD"/>
<stop offset="1" stop-color="#0798DD"/>
</linearGradient>
<linearGradient id="paint4_linear_8_58109" x1="33.5978" y1="17.9129" x2="33.5978" y2="53.3839" gradientUnits="userSpaceOnUse">
<stop stop-color="#124379"/>
<stop offset="0.39" stop-color="#1487CB"/>
<stop offset="0.78" stop-color="#165197"/>
<stop offset="1" stop-color="#165197"/>
</linearGradient>
<linearGradient id="paint5_linear_8_58109" x1="18.9946" y1="28.3852" x2="24.0013" y2="28.3852" gradientUnits="userSpaceOnUse">
<stop stop-color="#33BDF2" stop-opacity="0.698"/>
<stop offset="1" stop-color="#1DACD8"/>
</linearGradient>
<linearGradient id="paint6_linear_8_58109" x1="56.9018" y1="45.3429" x2="56.9018" y2="20.504" gradientUnits="userSpaceOnUse">
<stop stop-color="#136AB4"/>
<stop offset="0.6" stop-color="#59CAF5" stop-opacity="0.549"/>
<stop offset="1" stop-color="#59CAF5" stop-opacity="0.235"/>
</linearGradient>
<linearGradient id="paint7_linear_8_58109" x1="1.2222" y1="34.3259" x2="19.7946" y2="34.3259" gradientUnits="userSpaceOnUse">
<stop stop-color="#05A1E6" stop-opacity="0.247"/>
<stop offset="1" stop-color="#05A1E6"/>
</linearGradient>
<linearGradient id="paint8_linear_8_58109" x1="11.8756" y1="46.0452" x2="11.8756" y2="20.6121" gradientUnits="userSpaceOnUse">
<stop stop-color="#318ED5"/>
<stop offset="1" stop-color="#38A7E4"/>
</linearGradient>
<linearGradient id="paint9_linear_8_58109" x1="13.2743" y1="46.2082" x2="13.2743" y2="21.4223" gradientUnits="userSpaceOnUse">
<stop stop-color="#05A1E6"/>
<stop offset="1" stop-color="#05A1E6" stop-opacity="0.549"/>
</linearGradient>
<linearGradient id="paint10_linear_8_58109" x1="14.8071" y1="47.4762" x2="14.8071" y2="26.5318" gradientUnits="userSpaceOnUse">
<stop stop-color="#1959A6"/>
<stop offset="0.5" stop-color="#05A1E6"/>
<stop offset="0.918" stop-color="#7EC5EA"/>
<stop offset="1" stop-color="#7EC5EA"/>
</linearGradient>
<linearGradient id="paint11_linear_8_58109" x1="15.4242" y1="46.0905" x2="11.4301" y2="23.439" gradientUnits="userSpaceOnUse">
<stop stop-color="#165096"/>
<stop offset="1" stop-color="#0D82CA"/>
</linearGradient>
<linearGradient id="paint12_linear_8_58109" x1="52.4748" y1="33.2409" x2="52.4748" y2="21.4033" gradientUnits="userSpaceOnUse">
<stop stop-color="#05A1E6"/>
<stop offset="0.874" stop-color="#0495D6"/>
<stop offset="1" stop-color="#0495D6"/>
</linearGradient>
<linearGradient id="paint13_linear_8_58109" x1="58.2597" y1="20.3551" x2="53.4466" y2="47.652" gradientUnits="userSpaceOnUse">
<stop stop-color="#38A7E4" stop-opacity="0.329"/>
<stop offset="0.962" stop-color="#0E88D3"/>
<stop offset="1" stop-color="#0E88D3"/>
</linearGradient>
<linearGradient id="paint14_linear_8_58109" x1="53.7076" y1="21.3294" x2="53.7076" y2="47.1542" gradientUnits="userSpaceOnUse">
<stop stop-color="#168CD4"/>
<stop offset="0.5" stop-color="#1C87CC"/>
<stop offset="1" stop-color="#154B8D"/>
</linearGradient>
<linearGradient id="paint15_linear_8_58109" x1="18.773" y1="18.8099" x2="48.8003" y2="31.2649" gradientUnits="userSpaceOnUse">
<stop stop-color="#97D6EE"/>
<stop offset="0.703" stop-color="#55C1EA"/>
<stop offset="1" stop-color="#55C1EA"/>
</linearGradient>
<linearGradient id="paint16_linear_8_58109" x1="26.9529" y1="25.8581" x2="50.6695" y2="15.1073" gradientUnits="userSpaceOnUse">
<stop stop-color="#7ACCEC"/>
<stop offset="1" stop-color="#3FB7ED"/>
</linearGradient>
<linearGradient id="paint17_linear_8_58109" x1="50.1904" y1="22.7342" x2="50.1904" y2="47.9934" gradientUnits="userSpaceOnUse">
<stop stop-color="#1DA7E7"/>
<stop offset="1" stop-color="#37ABE7" stop-opacity="0"/>
</linearGradient>
</defs>
</svg>
