<svg width="61" height="61" viewBox="0 0 61 61" fill="none" xmlns="http://www.w3.org/2000/svg">
<path d="M0 30.4342C0 39.1877 13.4902 46.2845 30.1309 46.2845C46.7716 46.2845 60.2617 39.1877 60.2617 30.4342C60.2617 21.6807 46.7711 14.584 30.1309 14.584C13.4906 14.584 0 21.6807 0 30.4342Z" fill="url(#paint0_radial_8_58155)"/>
<path d="M30.1316 45.1073C46.1221 45.1073 59.0855 38.5373 59.0855 30.434C59.0855 22.3297 46.1221 15.7607 30.1316 15.7607C14.1411 15.7607 1.17773 22.3297 1.17773 30.434C1.17773 38.5373 14.1411 45.1073 30.1316 45.1073Z" fill="#777BB3"/>
<path d="M16.3635 32.2537C17.6784 32.2537 18.6595 32.0113 19.2805 31.5334C19.8954 31.0598 20.3196 30.2402 20.5423 29.0971C20.7494 28.0284 20.6703 27.2826 20.3069 26.8796C19.9359 26.4681 19.1332 26.2596 17.9213 26.2596H15.8197L14.6554 32.2537H16.3635ZM9.49035 39.6372C9.44213 39.6371 9.39453 39.6264 9.35095 39.6058C9.30737 39.5851 9.2689 39.5551 9.2383 39.5178C9.2077 39.4806 9.18572 39.437 9.17395 39.3902C9.16218 39.3435 9.1609 39.2947 9.17021 39.2474L12.2572 23.3637C12.2718 23.2895 12.3117 23.2226 12.37 23.1744C12.4284 23.1263 12.5017 23.0998 12.5774 23.0996H19.2316C21.3228 23.0996 22.8793 23.6674 23.8581 24.7874C24.8411 25.9126 25.1452 27.4869 24.7606 29.4648C24.6038 30.2703 24.3345 31.0184 23.9602 31.6888C23.5707 32.3784 23.0736 33.0015 22.4876 33.5343C21.7668 34.2085 20.9509 34.6981 20.0644 34.9858C19.1925 35.2701 18.072 35.4142 16.7359 35.4142H14.0411L13.2718 39.3726C13.2572 39.4471 13.2173 39.5143 13.1587 39.5625C13.1001 39.6108 13.0266 39.6372 12.9507 39.6372H9.49035Z" fill="black"/>
<path d="M16.0964 26.5859H17.9283C19.391 26.5859 19.899 26.907 20.0718 27.0986C20.3576 27.4159 20.4122 28.0858 20.2276 29.0345C20.0209 30.0971 19.6377 30.8508 19.0883 31.2736C18.5262 31.7067 17.6109 31.9261 16.3704 31.9261H15.0588L16.0964 26.5859ZM19.2385 22.7724H12.5847C12.433 22.7725 12.286 22.8252 12.1688 22.9216C12.0517 23.0181 11.9717 23.1522 11.9426 23.3011L8.85557 39.1853C8.83734 39.2799 8.84023 39.3774 8.86403 39.4708C8.88783 39.5641 8.93196 39.6511 8.99326 39.7254C9.05456 39.7998 9.13152 39.8597 9.21864 39.9008C9.30577 39.942 9.40091 39.9634 9.49726 39.9635H12.9576C13.1093 39.9634 13.2563 39.9105 13.3733 39.814C13.4904 39.7175 13.5703 39.5833 13.5993 39.4343L14.3173 35.7405H16.7423C18.1133 35.7405 19.2677 35.5908 20.173 35.2961C21.1038 34.9938 21.9601 34.4811 22.7181 33.7721C23.3286 33.2163 23.8465 32.5668 24.2524 31.848C24.6437 31.1479 24.9252 30.3664 25.0881 29.5265C25.493 27.4441 25.1639 25.7771 24.1107 24.5718C23.0674 23.3774 21.4281 22.772 19.2385 22.772V22.7724ZM14.2655 32.5796H16.3704C17.7655 32.5799 18.8044 32.317 19.4871 31.791C20.1697 31.2656 20.6308 30.3882 20.8703 29.1588C21.0987 27.978 20.9944 27.145 20.5572 26.6598C20.1193 26.1746 19.243 25.9319 17.9283 25.9319H15.5573L14.2655 32.5796ZM19.2389 23.425C21.2408 23.425 22.7007 23.9504 23.6188 25.0012C24.5368 26.052 24.813 27.5187 24.4473 29.4012C24.2961 30.1771 24.0411 30.8861 23.6823 31.5283C23.3229 32.1711 22.8536 32.7591 22.2742 33.2924C21.5837 33.9389 20.816 34.3995 19.971 34.6741C19.1264 34.9491 18.0503 35.0864 16.7428 35.0861H13.7787L12.9581 39.3091H9.49773L12.5852 23.425H19.2389Z" fill="white"/>
<path d="M32.7066 35.4141C32.6583 35.4141 32.6106 35.4035 32.567 35.383C32.5233 35.3624 32.4848 35.3324 32.4541 35.2952C32.4234 35.258 32.4013 35.2144 32.3894 35.1677C32.3776 35.1209 32.3762 35.0721 32.3855 35.0247L33.7508 27.9967C33.8812 27.3282 33.8492 26.8489 33.6613 26.6455C33.546 26.5217 33.2004 26.3141 32.1783 26.3141H29.7038L27.9873 35.15C27.9726 35.2244 27.9325 35.2913 27.8738 35.3394C27.8151 35.3875 27.7416 35.4137 27.6658 35.4136H24.2337C24.1855 35.4136 24.1378 35.403 24.0942 35.3825C24.0506 35.362 24.012 35.3321 23.9813 35.2949C23.9506 35.2577 23.9284 35.2143 23.9165 35.1676C23.9045 35.1208 23.903 35.0721 23.9121 35.0247L26.9996 19.1406C27.0142 19.0662 27.0542 18.9991 27.1128 18.951C27.1714 18.9028 27.2448 18.8765 27.3207 18.8765H30.7528C30.801 18.8764 30.8486 18.8871 30.8922 18.9076C30.9359 18.9281 30.9744 18.958 31.0051 18.9952C31.0359 19.0323 31.058 19.0758 31.07 19.1225C31.0819 19.1692 31.0834 19.218 31.0743 19.2653L30.3295 23.0995H32.9909C35.0186 23.0995 36.3934 23.4564 37.1942 24.1922C38.0101 24.9422 38.2652 26.1413 37.9512 27.7575L36.5148 35.15C36.5001 35.2243 36.46 35.2912 36.4015 35.3393C36.3429 35.3874 36.2695 35.4136 36.1937 35.4136L32.7066 35.4141Z" fill="black"/>
<path d="M30.742 18.5498H27.3094C27.1576 18.5498 27.0106 18.6026 26.8934 18.6992C26.7763 18.7957 26.6963 18.93 26.6673 19.079L23.5803 34.9626C23.562 35.0573 23.5648 35.1548 23.5886 35.2483C23.6123 35.3417 23.6564 35.4287 23.7177 35.5031C23.7791 35.5775 23.856 35.6374 23.9432 35.6786C24.0304 35.7198 24.1256 35.7412 24.222 35.7413H27.6545C27.8063 35.7413 27.9534 35.6885 28.0705 35.592C28.1877 35.4954 28.2676 35.3612 28.2967 35.2122L29.9619 26.6414H32.1662C33.1868 26.6414 33.4015 26.8593 33.4095 26.8692C33.4717 26.9351 33.5531 27.2435 33.4185 27.9351L32.0532 34.9626C32.0348 35.0573 32.0377 35.1549 32.0615 35.2484C32.0853 35.3418 32.1294 35.4289 32.1908 35.5033C32.2521 35.5777 32.3292 35.6376 32.4164 35.6788C32.5036 35.7199 32.5989 35.7413 32.6953 35.7413H36.183C36.3347 35.7412 36.4817 35.6883 36.5987 35.5918C36.7158 35.4953 36.7956 35.3611 36.8247 35.2122L38.2611 27.8207C38.5977 26.0853 38.3096 24.7841 37.4042 23.9522C36.5398 23.1584 35.0926 22.7728 32.9797 22.7728H30.7152L31.3842 19.329C31.4026 19.2342 31.3998 19.1366 31.376 19.0431C31.3523 18.9496 31.3081 18.8625 31.2468 18.788C31.1854 18.7135 31.1083 18.6536 31.021 18.6124C30.9338 18.5712 30.8385 18.5498 30.742 18.5498ZM30.742 19.2042L29.9214 23.4263H32.9797C34.904 23.4263 36.2312 23.7621 36.9612 24.4338C37.6919 25.1048 37.9113 26.1924 37.6194 27.6964L36.1825 35.0874H32.6953L34.0611 28.0594C34.2165 27.26 34.1592 26.7148 33.8893 26.4238C33.6193 26.1332 33.0453 25.9879 32.1671 25.9879H29.4228L27.6545 35.0869H24.2215L27.309 19.2028H30.742V19.2042Z" fill="white"/>
<path d="M43.3767 32.2537C44.6916 32.2537 45.6732 32.0113 46.2947 31.5334C46.9086 31.0598 47.3332 30.2402 47.5559 29.0971C47.7631 28.0284 47.6845 27.2826 47.3205 26.8796C46.9495 26.4681 46.1468 26.2596 44.935 26.2596H42.8339L41.6686 32.2537H43.3767ZM36.505 39.6372C36.4567 39.6373 36.409 39.6267 36.3653 39.6061C36.3216 39.5855 36.283 39.5555 36.2523 39.5182C36.2216 39.4809 36.1995 39.4373 36.1877 39.3905C36.1759 39.3437 36.1746 39.2948 36.1839 39.2474L39.2709 23.3637C39.2855 23.2893 39.3255 23.2223 39.3841 23.1741C39.4427 23.1259 39.5161 23.0996 39.592 23.0996H46.2457C48.337 23.0996 49.8934 23.6674 50.8717 24.7874C51.8552 25.9126 52.1589 27.4869 51.7742 29.4648C51.6271 30.2438 51.3571 30.9945 50.9744 31.6888C50.5849 32.3784 50.0877 33.0015 49.5017 33.5343C48.7814 34.2085 47.9646 34.6981 47.0785 34.9858C46.2066 35.2701 45.0861 35.4142 43.7496 35.4142H41.0552L40.2864 39.3726C40.2718 39.4472 40.2318 39.5144 40.1731 39.5627C40.1145 39.611 40.0408 39.6373 39.9648 39.6372H36.505Z" fill="black"/>
<path d="M43.1062 26.5859H44.938C46.4008 26.5859 46.9088 26.907 47.0811 27.0986C47.3683 27.4159 47.4219 28.0858 47.2379 29.0345C47.0307 30.0971 46.6475 30.8508 46.0981 31.2736C45.5355 31.7067 44.6202 31.9261 43.3802 31.9261H42.0685L43.1062 26.5859ZM46.2482 22.7724H39.5945C39.4428 22.7726 39.2959 22.8254 39.1789 22.9218C39.0619 23.0182 38.9819 23.1523 38.9528 23.3011L35.8653 39.1853C35.8471 39.2799 35.85 39.3775 35.8738 39.4709C35.8976 39.5643 35.9418 39.6513 36.0032 39.7256C36.0645 39.8 36.1415 39.8598 36.2287 39.901C36.3159 39.9421 36.4111 39.9634 36.5075 39.9635H39.9678C40.1196 39.9634 40.2665 39.9105 40.3836 39.814C40.5006 39.7175 40.5805 39.5833 40.6095 39.4343L41.3275 35.7405H43.7521C45.1226 35.7405 46.2774 35.5908 47.1823 35.2961C48.1135 34.9938 48.9699 34.4811 49.7284 33.7716C50.3386 33.2159 50.8564 32.5666 51.2622 31.848C51.6539 31.1479 51.9345 30.3664 52.0979 29.5265C52.5027 27.4441 52.1741 25.7771 51.1205 24.5718C50.0772 23.3774 48.4384 22.772 46.2478 22.772L46.2482 22.7724ZM41.2752 32.5796H43.3797C44.7748 32.5799 45.814 32.317 46.4973 31.791C47.1799 31.2656 47.6407 30.3882 47.8795 29.1588C48.109 27.978 48.0046 27.145 47.5665 26.6598C47.1283 26.1746 46.2522 25.9319 44.938 25.9319H42.5676L41.2752 32.5796ZM46.2482 23.425C48.2501 23.425 49.71 23.9504 50.628 25.0012C51.5461 26.052 51.8221 27.5187 51.4562 29.4012C51.3055 30.1771 51.0507 30.8861 50.6916 31.5283C50.3325 32.1711 49.863 32.7591 49.283 33.2924C48.5925 33.9389 47.8248 34.3995 46.9799 34.6741C46.1356 34.9491 45.0596 35.0864 43.7521 35.0861H40.7884L39.9669 39.3091H36.5066L39.594 23.425H46.2482Z" fill="white"/>
<defs>
<radialGradient id="paint0_radial_8_58155" cx="0" cy="0" r="1" gradientUnits="userSpaceOnUse" gradientTransform="translate(18.0908 20.1563) scale(39.5662)">
<stop stop-color="#AEB2D5"/>
<stop offset="0.3" stop-color="#AEB2D5"/>
<stop offset="0.75" stop-color="#484C89"/>
<stop offset="1" stop-color="#484C89"/>
</radialGradient>
</defs>
</svg>
