<svg width="58" height="58" viewBox="0 0 58 58" fill="none" xmlns="http://www.w3.org/2000/svg">
<path d="M30.5483 9.5617C34.8272 9.48999 38.1499 10.3984 40.3969 14.3187C46.0383 28.3744 25.8631 35.6413 25.0503 35.9282H25.0264C25.0264 35.9282 24.4288 39.7529 30.2136 39.6094C37.3371 39.6094 44.7953 34.0875 47.6638 31.721C48.357 31.1712 49.361 31.219 49.9825 31.8644L52.11 34.0875C52.7076 34.7329 52.7315 35.7369 52.1578 36.4062C50.3172 38.4859 45.9666 42.7409 39.4168 45.466C39.4168 45.466 28.4925 50.5576 21.13 45.7528C16.7555 42.8843 15.5364 39.4421 15.0344 35.8804C15.0344 35.8804 9.70374 35.5935 6.28542 34.2788C2.8432 32.9162 6.30933 28.8764 6.30933 28.8764C6.30933 28.8764 7.36112 27.1792 9.36908 28.8764C11.3531 30.5736 15.1061 29.8087 15.1061 29.8087C15.4408 27.1553 15.9906 23.6652 17.64 19.984C21.0583 12.2868 26.2933 9.65732 30.5483 9.5617ZM33.0583 17.3067C30.8113 15.1314 24.2854 19.482 24.0224 29.474C24.0224 29.474 25.9587 30.0477 30.1897 27.1314C34.4686 24.1911 35.2814 19.5059 33.0344 17.3067H33.0583Z" fill="#FF5722"/>
</svg>
