<svg width="61" height="61" viewBox="0 0 61 61" fill="none" xmlns="http://www.w3.org/2000/svg">
<path d="M30.75 37.9375V41.6873H38.2495C39.244 41.6873 40.1978 41.2922 40.901 40.589C41.6042 39.8858 41.9993 38.932 41.9993 37.9375V34.1877C41.9993 33.1932 41.6042 32.2395 40.901 31.5363C40.1978 30.8331 39.244 30.438 38.2495 30.438H34.4998V26.6882H41.9993V22.9385H34.4998C33.5053 22.9385 32.5515 23.3335 31.8483 24.0368C31.1451 24.74 30.75 25.6937 30.75 26.6882V30.438C30.75 31.4325 31.1451 32.3862 31.8483 33.0895C32.5515 33.7927 33.5053 34.1877 34.4998 34.1877H38.2495V37.9375H30.75Z" fill="#8BC34A"/>
<path d="M30.7505 6.06445L8.25195 19.1886V45.4369L15.7515 49.1866H27.0007V23.8758C27.0007 23.6272 26.902 23.3887 26.7262 23.2129C26.5504 23.0371 26.3119 22.9384 26.0633 22.9384H24.1884C23.9398 22.9384 23.7013 23.0371 23.5255 23.2129C23.3497 23.3887 23.251 23.6272 23.251 23.8758V45.4369H15.7515L12.0017 43.4983V21.3391L30.7505 10.4029L49.4993 21.3391V43.2808L30.7505 54.2169L27.4788 52.3008L25.1259 55.28L30.7505 58.561L53.249 45.4369V19.1886L30.7505 6.06445Z" fill="#8BC34A"/>
</svg>
