<svg width="169" height="151" viewBox="0 0 169 151" fill="none" xmlns="http://www.w3.org/2000/svg">
<rect x="1" y="0.830078" width="167" height="149" rx="19.5" fill="white" stroke="#CFCFCF"/>
<path d="M59.375 43.8301C57.1538 43.8301 55.0236 44.7124 53.453 46.2831C51.8824 47.8537 51 49.9839 51 52.2051V102.455C51 104.676 51.8824 106.806 53.453 108.377C55.0236 109.948 57.1538 110.83 59.375 110.83H109.625C111.846 110.83 113.976 109.948 115.547 108.377C117.118 106.806 118 104.676 118 102.455V52.2051C118 49.9839 117.118 47.8537 115.547 46.2831C113.976 44.7124 111.846 43.8301 109.625 43.8301H59.375ZM85.4464 66.3798C83.0009 66.3798 81.5227 67.0665 81.5227 68.863C81.5227 70.8227 84.0645 71.6853 87.2177 72.7573C92.3599 74.4951 99.1269 76.7899 99.1562 85.2905C99.1562 93.5273 92.5568 98.2676 82.9506 98.2676C78.6171 98.2494 74.3317 97.3579 70.3504 95.6462V84.6917C74.2281 86.8106 79.1233 88.3767 82.9548 88.3767C85.5385 88.3767 87.3852 87.6858 87.3852 85.5669C87.3852 83.3978 84.6298 82.4053 81.3008 81.2077C76.2339 79.382 69.8438 77.0788 69.8438 69.4157C69.8438 61.271 76.0747 56.3926 85.4464 56.3926C89.3628 56.3575 93.2495 57.0755 96.895 58.5073V69.3236C93.3859 67.4392 88.9555 66.3798 85.4464 66.3798Z" fill="#6772E5"/>
</svg>
