<svg width="168" height="151" viewBox="0 0 168 151" fill="none" xmlns="http://www.w3.org/2000/svg">
<path d="M20.5 0.830078H147.5C158.27 0.830078 167 9.56053 167 20.3301V130.33C167 141.1 158.27 149.83 147.5 149.83H20.5C9.73045 149.83 1 141.1 1 130.33V20.3301C1 9.56053 9.73045 0.830078 20.5 0.830078Z" fill="white" stroke="#CFCFCF"/>
<path d="M104.732 85.9006C114.296 89.1334 116.465 89.3065 116.465 89.3065V54.567C116.465 48.6375 111.706 43.833 105.829 43.833H60.6766C54.7974 43.833 50.0348 48.6375 50.0348 54.567V100.099C50.0348 106.026 54.7974 110.833 60.6794 110.833H105.829C111.706 110.833 116.465 106.026 116.465 100.099V99.6608C116.465 99.6608 99.1849 92.3968 90.4609 88.1619C84.6096 95.4258 77.0609 99.8338 69.2247 99.8338C55.9643 99.8338 51.4669 88.1368 57.7454 80.4346C59.1133 78.754 61.4415 77.1543 65.0512 76.2554C70.7043 74.854 79.699 77.1292 88.1271 79.932C89.6983 77.0008 90.9532 73.9107 91.8707 70.714H65.8887V68.0563H79.2859V63.3021H63.0663V60.6416H79.2859V53.8551C79.2859 53.8551 79.2859 52.7133 80.4332 52.7133H86.9853V60.6416H103.021V63.2965H86.9853V68.0535H100.078C98.8987 72.9979 97.0325 77.7527 94.534 82.1793C98.5093 83.631 102.074 85.0017 104.732 85.9006ZM66.1818 80.228C64.518 80.3955 61.408 81.1353 59.7023 82.6539C54.5936 87.1429 57.6505 95.356 67.988 95.356C73.9929 95.356 79.995 91.4812 84.7101 85.2781C78.0017 81.9783 72.3207 79.6166 66.1818 80.228Z" fill="#1677FC"/>
</svg>
