<svg width="168" height="151" viewBox="0 0 168 151" fill="none" xmlns="http://www.w3.org/2000/svg">
<rect x="1" y="0.830078" width="166" height="149" rx="19.5" fill="white" stroke="#CFCFCF"/>
<path d="M93.5 68.5059H74.5V87.5059H93.5V68.5059Z" fill="black"/>
<path fill-rule="evenodd" clip-rule="evenodd" d="M50.75 63.7559C50.75 58.7167 52.7518 53.884 56.315 50.3208C59.8782 46.7576 64.7109 44.7559 69.75 44.7559H98.25C103.289 44.7559 108.122 46.7576 111.685 50.3208C115.248 53.884 117.25 58.7167 117.25 63.7559V92.2559C117.25 97.295 115.248 102.128 111.685 105.691C108.122 109.254 103.289 111.256 98.25 111.256H69.75C64.7109 111.256 59.8782 109.254 56.315 105.691C52.7518 102.128 50.75 97.295 50.75 92.2559V63.7559ZM69.75 59.0059H98.25C99.5098 59.0059 100.718 59.5063 101.609 60.3971C102.5 61.2879 103 62.4961 103 63.7559V92.2559C103 93.5156 102.5 94.7238 101.609 95.6146C100.718 96.5054 99.5098 97.0059 98.25 97.0059H69.75C68.4902 97.0059 67.282 96.5054 66.3912 95.6146C65.5004 94.7238 65 93.5156 65 92.2559V63.7559C65 62.4961 65.5004 61.2879 66.3912 60.3971C67.282 59.5063 68.4902 59.0059 69.75 59.0059Z" fill="black"/>
</svg>
