<svg width="168" height="151" viewBox="0 0 168 151" fill="none" xmlns="http://www.w3.org/2000/svg">
<rect x="1" y="0.830078" width="166" height="149" rx="19.5" fill="white" stroke="#CFCFCF"/>
<path d="M43.0825 67.2213C45.3113 67.2213 47.1179 69.0298 47.1179 71.2607V87.3602H31.0352C28.8064 87.3602 27 85.5517 27 83.3207V78.8128C27 76.5818 28.8066 74.7733 31.0352 74.7733H35.3823V81.1714C35.3825 81.4775 35.504 81.7709 35.7202 81.9874C35.9363 82.2038 36.2295 82.3254 36.5353 82.3255H38.7353V73.4099C38.7351 73.1038 38.6136 72.8104 38.3974 72.594C38.1812 72.3777 37.8881 72.2561 37.5824 72.256H27.2881V67.2213H43.0825ZM62.2055 82.3255L62.2057 58.8301H70.5883V87.3602H54.5058C52.2773 87.3602 50.4706 85.5517 50.4706 83.3207V71.2607C50.4706 69.0298 52.2773 67.2213 54.5058 67.2213H58.8525V81.1714C58.8527 81.4775 58.9742 81.7709 59.1903 81.9874C59.4065 82.2038 59.6997 82.3254 60.0055 82.3255H62.2055ZM85.6762 82.3255V67.2213H94.0589V91.711C94.0589 93.9422 92.2523 95.7505 90.0237 95.7505H74.2294V89.8778H85.6764V87.3602H77.9763C75.7477 87.3602 73.9411 85.5517 73.9411 83.3207V67.2213H82.3232V81.1714C82.3233 81.4775 82.4448 81.7709 82.661 81.9874C82.8772 82.2038 83.1704 82.3254 83.4761 82.3255H85.6762ZM113.494 67.2213C115.723 67.2213 117.529 69.0298 117.529 71.2607V75.7687C117.529 77.9999 115.723 79.8082 113.494 79.8082H109.147V73.4103C109.147 73.2587 109.117 73.1086 109.059 72.9686C109.001 72.8286 108.916 72.7013 108.809 72.5941C108.702 72.487 108.575 72.402 108.435 72.344C108.295 72.286 108.145 72.2561 107.994 72.2562H105.794V81.1714C105.794 81.4775 105.916 81.7709 106.132 81.9874C106.348 82.2038 106.641 82.3254 106.947 82.3255H117.241V87.3602H101.447C99.2183 87.3602 97.4117 85.5517 97.4117 83.3207V67.2213H113.494ZM136.965 67.2213C139.194 67.2213 141 69.0298 141 71.2607V87.3602H132.618V73.4101C132.618 72.7753 132.099 72.256 131.465 72.256H129.265V87.3602H120.882V67.2213H136.965Z" fill="#32AA52"/>
</svg>
