<svg width="168" height="151" viewBox="0 0 168 151" fill="none" xmlns="http://www.w3.org/2000/svg">
<rect x="1" y="0.830078" width="166" height="149" rx="19.5" fill="white" stroke="#CFCFCF"/>
<path d="M105.944 44.0898C102.515 40.1982 96.316 38.5298 88.3861 38.5298H65.3714C64.5868 38.5297 63.8278 38.8083 63.2311 39.3156C62.6344 39.8229 62.2391 40.5256 62.1163 41.2972L52.5334 101.812C52.3429 103.006 53.271 104.086 54.4857 104.086H68.6941L72.2625 81.5502L72.1518 82.2559C72.406 80.663 73.7743 79.488 75.3945 79.488H82.1464C95.4103 79.488 105.796 74.1238 108.83 58.6061C108.92 58.1471 108.998 57.7004 109.066 57.264C108.683 57.0621 108.683 57.0621 109.066 57.264C109.969 51.5285 109.059 47.6244 105.944 44.0898Z" fill="#27346A"/>
<path d="M77.6992 55.1979C78.0875 55.0135 78.5125 54.918 78.9427 54.9186H96.9858C99.1224 54.9186 101.115 55.057 102.936 55.3489C103.446 55.4298 103.953 55.5264 104.456 55.6385C105.17 55.7953 105.876 55.9873 106.57 56.2136C107.466 56.5113 108.299 56.858 109.066 57.264C109.969 51.5263 109.059 47.6244 105.944 44.0898C102.513 40.1982 96.316 38.5298 88.3861 38.5298H65.3694C63.7489 38.5298 62.3703 39.7045 62.1163 41.2972L52.5334 101.81C52.3429 103.005 53.271 104.084 54.4837 104.084H68.6941L76.0974 57.3395C76.1702 56.8801 76.3541 56.4451 76.6331 56.0721C76.9121 55.699 77.278 55.399 77.6992 55.1979Z" fill="#27346A"/>
<path d="M108.83 58.6062C105.796 74.1217 95.4106 79.4882 82.1464 79.4882H75.3926C73.7723 79.4882 72.4038 80.6631 72.152 82.2561L67.7127 110.277C67.5469 111.321 68.358 112.267 69.4192 112.267H81.3965C82.0826 112.267 82.7462 112.023 83.2678 111.58C83.7894 111.136 84.1349 110.521 84.2421 109.847L84.3588 109.239L86.6162 94.9936L86.7616 94.2063C86.8689 93.5316 87.2143 92.9171 87.7359 92.4734C88.2574 92.0296 88.9209 91.7856 89.607 91.7854H91.3995C103.002 91.7854 112.087 87.092 114.742 73.5182C115.85 67.8457 115.277 63.1097 112.345 59.7831C111.456 58.7755 110.352 57.9434 109.066 57.2642C108.996 57.7028 108.92 58.1473 108.83 58.6062Z" fill="#2790C3"/>
<path d="M105.891 56.0037C105.418 55.8662 104.94 55.7444 104.459 55.6386C103.955 55.5283 103.448 55.4324 102.939 55.3509C101.116 55.0571 99.1242 54.9185 96.9857 54.9185H78.9448C78.5142 54.9177 78.0891 55.014 77.7013 55.2C77.2795 55.4004 76.9131 55.7002 76.634 56.0734C76.3548 56.4465 76.1713 56.8818 76.0992 57.3416L72.2646 81.5504L72.1538 82.2561C72.4061 80.6631 73.7743 79.4882 75.3949 79.4882H82.1487C95.4126 79.4882 105.798 74.1239 108.832 58.6062C108.922 58.1473 108.998 57.7025 109.068 57.2642C108.3 56.8607 107.468 56.5112 106.572 56.2157C106.347 56.1411 106.119 56.0704 105.891 56.0037" fill="#1F264F"/>
</svg>
