<svg width="162" height="145" viewBox="0 0 162 145" fill="none" xmlns="http://www.w3.org/2000/svg">
<rect x="0.5" y="0.5" width="161" height="144" rx="19.5" fill="white" stroke="#CFCFCF"/>
<path d="M77.3156 108.873C73.9863 108.214 71.1119 105.947 69.7144 102.879C69.0997 101.529 68.8381 100.253 68.8427 98.6273C68.8551 93.9536 71.807 90.0511 76.3928 88.6442C77.2376 88.385 77.7951 88.3166 79.0904 88.3132C79.9884 88.3111 80.9787 88.3581 81.2911 88.4183L81.859 88.5279L82.5579 87.1767C83.9852 84.4176 86.2096 82.25 89.0852 80.8162C91.4574 79.6334 92.9481 79.2894 95.7018 79.2894C97.6305 79.2894 98.0779 79.3357 99.3223 79.6639C104.696 81.0814 108.884 85.2799 110.202 90.5704C110.532 91.8951 110.697 94.8653 110.505 96.0305L110.374 96.8262L111.126 96.9939C113.013 97.4141 114.64 98.726 115.472 100.496C116.295 102.247 116.145 104.513 115.095 106.168C114.56 107.013 113.509 107.952 112.633 108.37C112.184 108.584 111.705 108.817 111.57 108.888C111.265 109.047 78.1214 109.033 77.3156 108.873ZM111.772 106.92C112.705 106.458 113.627 105.426 114.01 104.415C114.805 102.318 113.745 99.8816 111.628 98.9441C111.094 98.7073 110.695 98.6526 109.58 98.6631C108.819 98.6703 108.196 98.6224 108.196 98.5568C108.196 98.4912 108.337 97.876 108.51 97.1896C108.952 95.4337 108.948 92.6338 108.5 90.9238C107.513 87.1532 104.953 84.0081 101.452 82.264C99.913 81.4976 98.4497 81.1471 96.4501 81.0658C93.4913 80.9456 91.4256 81.4098 89.1492 82.7064C86.4948 84.2185 84.2066 86.9584 83.3197 89.687C83.1491 90.2117 82.9423 90.6402 82.86 90.6392C82.7774 90.6383 82.2952 90.5014 81.7876 90.335C80.3755 89.8723 77.9672 89.9004 76.5579 90.3961C75.1393 90.8951 74.118 91.5347 73.0547 92.59C71.4609 94.1718 70.5756 96.3277 70.5756 98.6273C70.5756 102.042 72.465 105.036 75.5389 106.491C77.3056 107.328 76.6943 107.303 94.6366 107.275L111.106 107.25L111.772 106.92ZM64.2537 100.311C58.2954 99.5067 53.7093 98.0173 50.3169 95.7843C48.9172 94.8629 47.9508 93.8324 47.4059 92.6802L47 91.8217L47.0372 68.5802L47.0744 45.3388L47.4134 44.7056C48.2703 43.1049 49.941 41.7391 52.6009 40.4649C55.9642 38.8537 59.8428 37.8464 65.2475 37.1804C67.4732 36.9061 75.0314 36.9546 77.3156 37.2578C85.727 38.3743 92.2544 41.1104 94.3351 44.3918C95.155 45.6849 95.1339 45.2162 95.1339 62.1119V77.6241L94.6725 77.6953C94.4187 77.7344 93.8438 77.8055 93.3949 77.8532C88.7628 78.3456 83.9592 81.5337 81.4969 85.7496L80.9927 86.6127L79.0123 86.7058C76.6722 86.8158 75.4798 87.1142 73.7007 88.0351C70.646 89.6163 68.4628 92.3575 67.5725 95.7296C67.3266 96.661 67.2539 97.3362 67.2489 98.7333L67.2386 100.535L66.454 100.519C66.0226 100.51 65.0306 100.416 64.2498 100.311H64.2537ZM76.3663 78.8885C75.2486 77.9442 74.282 77.1258 74.2182 77.0698C74.1542 77.0139 74.3868 76.8022 74.7342 76.5994C75.5047 76.1498 76.4969 75.0739 76.9182 74.2309C77.9477 72.1708 77.9248 69.6084 76.8583 67.5695C75.6856 65.327 73.2316 64.1506 70.4513 64.4982C68.9289 64.6885 67.9752 65.1136 66.9695 66.0503C65.3819 67.5288 64.8321 68.9794 64.9156 71.4692C64.9631 72.8847 65.0137 73.1393 65.4204 73.9984C66.2955 75.8477 68.1253 77.2298 69.9895 77.4496C70.6908 77.5323 70.7516 77.5781 72.1451 79.07L73.5792 80.6053H75.9886H78.3982L76.3663 78.8885ZM70.2862 74.0679C69.3097 73.5747 68.939 72.7297 68.939 70.9974C68.939 69.8702 68.9937 69.5411 69.272 68.9774C69.7172 68.0774 70.6048 67.5363 71.4755 67.634C72.332 67.7301 72.7772 68.075 73.2302 68.9933C73.574 69.6902 73.6237 69.9544 73.6196 71.0643C73.6196 72.4334 73.3714 73.1353 72.6797 73.7758C71.9571 74.445 71.2126 74.5359 70.2862 74.0679ZM60.4616 77.3488C63.029 76.7592 64.4236 74.6186 63.6842 72.4025C63.312 71.2866 62.5252 70.5896 60.6035 69.6734C59.716 69.2503 58.9224 68.8177 58.8398 68.712C58.5166 68.2987 58.5174 68.0251 58.8398 67.649C59.3398 67.0702 60.4782 67.0426 62.0194 67.5717L63.1952 67.9753L63.1549 66.4132L63.1146 64.851L62.3337 64.6662C61.1528 64.3867 58.6003 64.4004 57.5961 64.6916C55.5825 65.2755 54.5214 66.5857 54.5281 68.4801C54.5384 70.4296 55.4171 71.3538 58.5239 72.6662C59.8382 73.2214 59.9888 74.2591 58.8139 74.6653C58.2701 74.8533 58.1154 74.8497 57.2549 74.6285C56.7295 74.4934 55.9323 74.1933 55.4833 73.9615L54.6669 73.54V75.2312V76.9223L55.4833 77.1486C55.9323 77.273 56.3635 77.397 56.4416 77.4241C56.7662 77.5366 59.896 77.478 60.4584 77.3488H60.4616ZM87.893 75.8701V74.3859H85.6213H83.3497V69.5094V64.6329H81.504H79.6583V70.9936V77.3543H83.7757H87.893V75.8701ZM76.9607 50.4217C80.663 49.9945 83.7011 49.2219 85.6213 48.2192C86.8829 47.5605 87.1854 47.3232 87.6704 46.6117C89.17 44.4117 85.8121 42.1996 79.3033 41.0998C73.1884 40.0666 65.1299 40.3004 59.9722 41.6605C49.3303 44.4669 53.5255 49.6222 67.2784 50.6386C69.5355 50.8054 74.623 50.6915 76.9607 50.4217Z" fill="#00BCF2"/>
</svg>
