<svg width="162" height="145" viewBox="0 0 162 145" fill="none" xmlns="http://www.w3.org/2000/svg">
<rect x="0.5" y="0.5" width="161" height="144" rx="19.5" fill="white" stroke="#CFCFCF"/>
<path d="M81.2224 34C61.675 34 62.8957 42.4769 62.8957 42.4769L62.9175 51.2589H81.5711V53.8957H55.5084C55.5084 53.8957 43 52.4771 43 72.2006C43 91.9241 53.9176 91.2247 53.9176 91.2247H60.4333V82.0722C60.4333 82.0722 60.0821 71.1546 71.1765 71.1546H89.6776C89.6776 71.1546 100.072 71.3227 100.072 61.1087V44.2202C100.072 44.2202 101.65 34 81.2224 34ZM70.9368 39.9055C72.7927 39.9055 74.2927 41.4055 74.2927 43.2614C74.2927 45.1173 72.7927 46.6173 70.9368 46.6173C69.0809 46.6173 67.5809 45.1173 67.5809 43.2614C67.5809 41.4055 69.0809 39.9055 70.9368 39.9055Z" fill="url(#paint0_linear_8_30491)"/>
<path d="M81.7784 110.599C101.326 110.599 100.105 102.122 100.105 102.122L100.083 93.3399H81.4297V90.7031H107.492C107.492 90.7031 120.001 92.1217 120.001 72.3982C120.001 52.6747 109.083 53.3742 109.083 53.3742H102.568V62.5266C102.568 62.5266 102.919 73.4442 91.8243 73.4442H73.3232C73.3232 73.4442 62.9287 73.2762 62.9287 83.4901V100.379C62.9287 100.379 61.3505 110.599 81.7784 110.599ZM92.064 104.693C90.2081 104.693 88.7081 103.193 88.7081 101.337C88.7081 99.4815 90.2081 97.9815 92.064 97.9815C93.9199 97.9815 95.4199 99.4815 95.4199 101.337C95.4199 103.193 93.9199 104.693 92.064 104.693Z" fill="url(#paint1_linear_8_30491)"/>
<defs>
<linearGradient id="paint0_linear_8_30491" x1="782.985" y1="722.988" x2="4598.83" y2="4500.76" gradientUnits="userSpaceOnUse">
<stop stop-color="#387EB8"/>
<stop offset="1" stop-color="#366994"/>
</linearGradient>
<linearGradient id="paint1_linear_8_30491" x1="1155.09" y1="1231.07" x2="5252.9" y2="5104.85" gradientUnits="userSpaceOnUse">
<stop stop-color="#FFE052"/>
<stop offset="1" stop-color="#FFC331"/>
</linearGradient>
</defs>
</svg>
