<svg width="162" height="145" viewBox="0 0 162 145" fill="none" xmlns="http://www.w3.org/2000/svg">
<rect x="0.5" y="0.5" width="161" height="144" rx="19.5" fill="white" stroke="#CFCFCF"/>
<path d="M80.5229 78.9017H90.3741V81.2401H80.3543C80.2528 81.2401 80.1182 81.2624 80.0167 81.2624C78.7687 81.3751 78.3975 81.5779 78.2291 82.2974C78.195 82.4099 78.195 82.5001 78.195 82.5902V84.1866C78.195 84.2994 78.195 84.3896 78.2291 84.5021C78.3977 85.4469 79.0724 85.8733 80.4889 85.8733H84.7397C85.7857 85.8733 86.8646 86.0536 87.7427 86.3914C89.3954 87.0208 90.2394 87.9653 90.2394 88.9776V91.5412C90.2394 92.7788 89.4969 93.7237 87.979 94.4202C87.0672 94.8477 85.9207 95.0944 84.7395 95.0944H74.6526V92.7561H84.3356C84.4706 92.7561 84.5713 92.7337 84.7065 92.7337C85.3808 92.6885 85.887 92.5084 86.1902 92.2379C86.5283 91.9693 86.6965 91.6538 86.6965 91.406V89.3598C86.6965 89.1353 86.6289 88.9325 86.427 88.7298C86.0898 88.3252 85.6165 88.1231 84.5036 88.033C84.4023 88.0105 84.2678 88.0105 84.1328 88.0105H80.4887C80.1515 88.0105 79.8145 87.988 79.4765 87.9653C76.4743 87.6508 74.6863 86.3013 74.6863 84.7266V82.6804C74.6863 80.8812 75.5973 79.8462 77.6889 79.1939C78.3636 78.9918 79.1059 78.9017 80.5229 78.9017ZM107.835 94.385L111.291 97.5043H107.217L104.421 94.9804L101.606 95.159H97.8533C97.2112 95.159 96.5351 95.0688 95.7915 94.866C93.5607 94.2576 92.4782 93.086 92.4782 91.1471V82.8086C92.4782 80.6897 93.9665 79.4044 96.9069 78.9988C97.2112 78.9536 97.5492 78.9313 97.8533 78.9313H104.514C104.852 78.9313 105.156 78.9536 105.494 78.9988C108.435 79.4044 109.922 80.6897 109.922 82.8086V91.1471C109.922 92.8657 109.291 93.786 107.835 94.385ZM106.643 83.0116C106.643 82.9213 106.643 82.8086 106.61 82.695C106.407 81.7938 105.494 81.2753 104.142 81.2753H98.8347C97.2789 81.2753 96.2658 81.9514 96.2658 83.0114V90.9441C96.2658 91.0569 96.2996 91.1694 96.3325 91.3047C96.5353 92.2744 97.4488 92.8152 98.8347 92.8152H102.022L99.0938 90.1717H103.168L105.722 92.4772C106.192 92.2258 106.502 91.8428 106.61 91.3497C106.643 91.238 106.643 91.1244 106.643 91.0117V83.0116ZM50.6709 78.924C48.0058 78.092 46.2174 78.8115 45.4082 80.6107L40.0776 92.531L34.9161 80.6107C34.14 78.8115 32.3183 78.092 29.6533 78.924C28.54 79.2612 28 79.9138 28 81.2624V95.0946H31.5082V81.2399L36.9402 93.3179C37.5811 94.7801 38.4583 95.2974 40.1785 95.2974C41.8993 95.2974 42.7426 94.7801 43.3839 93.3179L48.8155 81.2399V95.0946H52.3243V81.2624C52.3241 79.9138 51.7843 79.2612 50.6709 78.924ZM68.4332 83.781V92.869C68.3717 92.869 61.7845 92.8846 60.8039 92.869C58.8819 92.8394 58.716 91.8655 58.749 91.451V83.8173H55.2414C55.3181 83.8936 55.2406 91.5308 55.2431 91.6919C55.2704 93.4338 57.4799 94.9473 60.9494 94.98H68.4067V95.8995C68.4071 96.2774 68.6737 97.3999 66.4156 97.6391C66.3878 97.6408 55.3368 97.6391 55.3177 97.6391V100H66.3962C68.1533 99.9479 71.9655 99.2839 71.946 96.2271C71.9455 96.1742 71.9655 83.7806 71.9491 83.7806H68.4332V83.781ZM132.34 92.869L133.187 94.1657H132.609L131.836 92.8898H131.374V94.1657H130.879V91.2138H132.029C132.76 91.2138 133.14 91.4624 133.14 92.0622C133.14 92.6004 132.795 92.8207 132.34 92.869ZM131.905 92.4757C132.277 92.4757 132.602 92.4409 132.602 92.0285C132.602 91.6838 132.243 91.6281 131.946 91.6281H131.374V92.4757H131.905ZM134.498 92.6898C134.498 94.2341 133.278 95.2749 131.912 95.2749C130.547 95.2749 129.326 94.2341 129.326 92.6898C129.326 91.1452 130.547 90.1044 131.912 90.1044C133.278 90.1044 134.498 91.1452 134.498 92.6898ZM133.919 92.6898C133.919 91.517 133.023 90.6417 131.912 90.6417C130.788 90.6417 129.905 91.517 129.905 92.6898C129.905 93.8615 130.788 94.7376 131.912 94.7376C133.023 94.7376 133.919 93.8615 133.919 92.6898ZM103.353 51.6557C102.904 51.6474 102.585 51.7045 102.249 51.7783C102.249 51.7987 102.249 51.8189 102.249 51.8393C102.27 51.8393 102.29 51.8393 102.311 51.8393C102.526 52.2801 102.905 52.564 103.17 52.9437C103.373 53.3732 103.578 53.8022 103.782 54.2311C103.803 54.2106 103.824 54.1904 103.844 54.17C104.224 53.9026 104.398 53.4745 104.396 52.821C104.243 52.6605 104.221 52.46 104.089 52.2689C103.914 52.014 103.575 51.87 103.353 51.6557ZM133.035 83.1164C133.324 83.3288 133.518 83.6581 133.894 83.7915C133.894 83.7706 133.894 83.75 133.894 83.73C133.696 83.4795 133.646 83.1337 133.465 82.8711C133.199 82.606 132.932 82.3399 132.667 82.0737C131.887 81.039 130.898 80.1307 129.846 79.3759C129.008 78.7733 127.13 77.9605 126.78 76.9845C126.76 76.9637 126.739 76.9431 126.718 76.9222C127.313 76.8555 128.01 76.6405 128.558 76.4931C129.48 76.2459 130.305 76.3101 131.256 76.064C131.686 75.9408 132.115 75.8179 132.544 75.6964C132.544 75.614 132.544 75.5328 132.544 75.4502C132.063 74.9563 131.72 74.3027 131.196 73.8557C129.822 72.6869 128.323 71.5181 126.78 70.5444C125.924 70.0038 124.866 69.6531 123.959 69.195C123.654 69.0412 123.118 68.9609 122.916 68.7044C122.44 68.0966 122.18 67.3266 121.813 66.619C121.043 65.1366 120.286 63.5177 119.604 61.9579C119.14 60.8946 118.836 59.8459 118.256 58.8916C115.471 54.3134 112.473 51.5499 107.83 48.8336C106.842 48.2561 105.652 48.0281 104.396 47.7301C103.722 47.6895 103.046 47.648 102.372 47.6074C101.96 47.4354 101.532 46.9319 101.146 46.6874C99.6073 45.7158 95.6615 43.6019 94.5227 46.3811C93.8033 48.1348 95.5973 49.8463 96.2394 50.7354C96.6902 51.3587 97.2664 52.058 97.5891 52.7589C97.8006 53.2197 97.8366 53.6821 98.019 54.1696C98.4646 55.3709 98.8518 56.6776 99.4283 57.788C99.7203 58.3495 100.042 58.9416 100.41 59.4436C100.636 59.7519 101.023 59.8876 101.083 60.3636C100.706 60.8936 100.684 61.7159 100.472 62.3872C99.5129 65.4096 99.8745 69.1656 101.269 71.4027C101.696 72.089 102.704 73.5622 104.089 72.9968C105.3 72.5033 105.03 70.9736 105.377 69.6241C105.455 69.3175 105.407 69.0926 105.561 68.8882C105.561 68.9082 105.561 68.9288 105.561 68.9493C105.929 69.6852 106.297 70.4211 106.665 71.1567C107.482 72.4724 108.932 73.8484 110.161 74.7756C110.797 75.2566 111.299 76.0886 112.123 76.3701C112.123 76.3493 112.123 76.3287 112.123 76.3078C112.102 76.3078 112.082 76.3078 112.062 76.3078C111.901 76.06 111.652 75.956 111.449 75.7566C110.969 75.2858 110.435 74.701 110.038 74.1618C108.92 72.6448 107.933 70.9842 107.033 69.256C106.603 68.4305 106.23 67.52 105.867 66.6803C105.728 66.3562 105.73 65.8667 105.438 65.6989C105.041 66.3141 104.457 66.8122 104.15 67.5387C103.66 68.7004 103.596 70.117 103.415 71.5861C103.307 71.6248 103.355 71.5984 103.291 71.6471C102.437 71.4416 102.137 70.5622 101.82 69.8077C101.017 67.9003 100.868 64.8286 101.574 62.6325C101.757 62.0646 102.584 60.275 102.249 59.7502C102.089 59.2263 101.563 58.9239 101.269 58.5235C100.903 58.0287 100.539 57.3779 100.286 56.8062C99.6296 55.319 99.3228 53.6494 98.6311 52.1457C98.3001 51.4273 97.741 50.6995 97.2816 50.0603C96.7731 49.3526 96.2035 48.8316 95.8098 47.975C95.6696 47.6709 95.4789 47.1843 95.6869 46.8715C95.7525 46.6603 95.8463 46.5724 96.0554 46.5034C96.4115 46.2291 97.4013 46.5947 97.772 46.7487C98.7549 47.157 99.5765 47.5461 100.409 48.0977C100.809 48.3628 101.214 48.8759 101.696 49.0179C101.881 49.0179 102.065 49.0179 102.248 49.0179C103.113 49.2161 104.08 49.0798 104.886 49.3247C106.311 49.7579 107.589 50.4319 108.749 51.1647C112.284 53.3962 115.174 56.5736 117.151 60.3636C117.469 60.9738 117.607 61.5561 117.887 62.2036C118.452 63.5089 119.164 64.8517 119.726 66.1284C120.287 67.4014 120.834 68.6867 121.627 69.7466C122.044 70.3035 123.655 70.6024 124.388 70.9121C124.901 71.1286 125.741 71.3549 126.227 71.6471C127.156 72.2076 128.055 72.8741 128.925 73.4876C129.36 73.7946 130.699 74.4669 130.765 75.0201C128.608 74.963 126.961 75.1632 125.552 75.7568C125.152 75.925 124.514 75.93 124.448 76.4308C124.668 76.6613 124.703 77.0064 124.878 77.2897C125.213 77.834 125.781 78.5628 126.288 78.9459C126.842 79.3638 127.412 79.8108 128.005 80.1724C129.061 80.8164 130.239 81.1838 131.255 81.8284C131.856 82.209 132.451 82.6873 133.035 83.1164ZM115.635 91.0023V78.9015H112.127V91.0246C112.127 93.4305 113.915 94.7801 117.525 95.0502C117.862 95.0719 118.199 95.0944 118.537 95.0944H127.679V92.7561H118.469C116.412 92.7563 115.635 92.2381 115.635 91.0023Z" fill="black"/>
</svg>
