<svg width="162" height="145" viewBox="0 0 162 145" fill="none" xmlns="http://www.w3.org/2000/svg">
<rect x="0.5" y="0.5" width="161" height="144" rx="19.5" fill="white" stroke="#CFCFCF"/>
<path d="M115.814 79.2368C115.597 78.6033 115.204 78.0443 114.683 77.6243C114.161 77.2042 113.531 76.9403 112.866 76.8629C112.08 76.7684 111.283 76.8129 110.512 76.9944C109.32 77.2577 108.108 77.4172 106.888 77.4712C110.15 71.9694 112.64 66.0461 114.291 59.8672C116.747 50.3589 115.435 46.0288 113.902 44.0674C111.865 41.4908 109.259 39.4217 106.287 38.0228C103.316 36.6239 100.061 35.9332 96.7771 36.0051C93.765 35.9769 90.7655 36.3973 87.8772 37.2526C86.1569 36.9576 84.416 36.7991 82.6707 36.7783C79.4984 36.6579 76.3563 37.4323 73.6032 39.013C71.5154 38.3071 69.3744 37.7692 67.2008 37.4046C64.667 36.7968 62.0382 36.6943 59.4647 37.1029C56.8912 37.5115 54.4235 38.4234 52.2026 39.7862C47.7333 42.941 45.661 48.4258 46.0451 56.0886C46.7327 61.8052 47.9458 67.4462 49.669 72.94C50.6614 76.3717 51.9676 79.7046 53.5712 82.8967C54.7555 85.8087 57.0068 88.1587 59.8654 89.4667C60.9132 89.8119 62.0343 89.8707 63.1124 89.6368C64.1905 89.403 65.1865 88.885 65.9971 88.1367C66.3651 88.5723 66.8001 88.9465 67.2859 89.245C68.0388 89.7123 68.8596 90.0601 69.719 90.276C72.5321 91.0596 75.5267 90.8781 78.2246 89.7605C78.2401 90.2013 78.2529 90.624 78.2607 90.99C78.2761 91.5802 78.2942 92.1601 78.3148 92.704C78.2842 95.579 78.667 98.4435 79.4515 101.21C79.4927 101.32 79.5468 101.485 79.6035 101.663C80.0563 103.356 80.9357 104.905 82.1578 106.161C83.623 107.506 85.5564 108.225 87.5447 108.164C88.3916 108.158 89.2356 108.064 90.0629 107.883C91.6311 107.686 93.144 107.177 94.5123 106.386C95.8806 105.595 97.0766 104.537 98.0298 103.277C100.12 100.3 101.138 95.8175 101.321 88.7527C101.344 88.5517 101.368 88.3609 101.388 88.1805L101.432 87.8068L101.924 87.8506H102.051C104.838 87.9687 107.618 87.487 110.203 86.4382C111.829 85.683 117.044 82.9302 115.814 79.2213" fill="black"/>
<path d="M111.128 79.9585C102.975 81.639 102.416 78.8812 102.416 78.8812C111.022 66.1099 114.62 49.8977 111.514 45.931C103.045 35.1056 88.3818 40.2271 88.137 40.3585L88.0571 40.374C86.2661 40.0145 84.4452 39.8247 82.6186 39.8069C79.5383 39.6524 76.4985 40.5625 74.0099 42.3844C74.0099 42.3844 47.8539 31.608 49.0705 55.9366C49.3282 61.1122 56.4884 95.0985 65.0275 84.8325C68.1488 81.0797 71.1644 77.9043 71.1644 77.9043C72.6832 78.9294 74.5105 79.3958 76.3348 79.224L76.4817 79.1002C76.4386 79.5879 76.4585 80.0791 76.541 80.5617C74.3398 83.0206 74.9945 83.451 70.5896 84.3557C66.1409 85.2733 68.7545 86.9048 70.4608 87.3326C72.2736 87.9191 74.2254 87.9178 76.0376 87.3291C77.8497 86.7403 79.4295 85.5941 80.5515 84.0541L80.4226 84.5696C81.2835 85.2604 81.8892 89.0595 81.7887 92.5056C81.5076 95.0686 81.6821 97.661 82.3042 100.163C82.9846 102.011 83.6599 106.166 89.4411 104.929C91.4969 104.726 93.409 103.783 94.8218 102.276C96.2346 100.769 97.052 98.7998 97.122 96.7352C97.3797 93.5546 97.9287 94.0237 97.9622 91.1808L98.4107 89.8354C98.9262 85.5233 98.4932 84.1314 101.468 84.7784L102.192 84.8428C104.493 84.9395 106.789 84.5532 108.932 83.7087C112.556 82.0282 114.703 79.2188 111.13 79.9585" fill="#336791"/>
<path d="M75.5416 58.251C74.9503 58.1266 74.3341 58.218 73.8044 58.5088C73.7354 58.5584 73.677 58.6214 73.6327 58.694C73.5885 58.7666 73.5592 58.8474 73.5466 58.9315C73.5467 59.2287 73.6537 59.516 73.8482 59.7408C74.194 60.2157 74.7104 60.5381 75.289 60.6403C75.3659 60.6509 75.4434 60.6561 75.521 60.6558C75.9039 60.6608 76.2791 60.548 76.5958 60.3327C76.9125 60.1174 77.1554 59.81 77.2917 59.4521C77.3819 58.8129 76.4514 58.385 75.5493 58.2587M99.8857 58.2794C99.8161 57.7768 98.9217 57.635 98.0814 57.7639C97.2412 57.8927 96.4138 58.2639 96.4834 58.7665C96.6145 59.0818 96.8364 59.351 97.121 59.5396C97.4056 59.7283 97.74 59.8279 98.0814 59.8258C98.153 59.8257 98.2245 59.8205 98.2954 59.8104C98.7423 59.7319 99.1509 59.5081 99.4578 59.1737C99.7144 58.9484 99.8711 58.6304 99.8934 58.2897" fill="white"/>
<path d="M113.841 79.7679C113.529 78.8272 112.529 78.5256 110.866 78.8684C105.93 79.8994 104.165 79.1803 103.582 78.755C107.491 72.7549 110.425 66.174 112.276 59.2565C113.025 56.5203 113.458 53.707 113.565 50.8721C113.764 48.8891 113.302 46.8959 112.253 45.2017C110.395 42.8638 108.02 40.9892 105.315 39.7256C102.609 38.4621 99.647 37.8441 96.6619 37.9204C93.5957 37.8724 90.544 38.3528 87.6408 39.3405C85.9804 38.9308 84.2785 38.712 82.5684 38.6884C79.4917 38.5532 76.4506 39.3911 73.8772 41.0829C71.5866 40.2454 69.222 39.6258 66.815 39.2323C62.2138 38.1188 57.3591 38.8643 53.304 41.3071C49.4378 44.0495 47.6336 48.9519 47.9918 55.8775C48.6689 61.4281 49.8534 66.9049 51.5307 72.2392C54.2886 81.2732 57.2861 86.3894 60.4409 87.4462C60.8488 87.5835 61.2761 87.654 61.7065 87.6549C62.5073 87.6053 63.2864 87.3739 63.9844 86.9782C64.6824 86.5825 65.2811 86.033 65.735 85.3713C67.5255 83.2234 69.377 81.1288 71.2895 79.0875C72.5189 79.7529 73.8872 80.121 75.2845 80.1623V80.2705C75.044 80.5558 74.8094 80.8462 74.5809 81.1417C73.6143 82.366 73.4159 82.6212 70.3074 83.263C69.4234 83.4459 67.0753 83.9305 67.0418 85.5827C67.0057 87.3869 69.8177 88.1369 70.1348 88.2168C71.1867 88.4873 72.2679 88.6276 73.354 88.6344C75.7295 88.6782 78.0328 87.8177 79.7976 86.227C79.5341 91.1322 79.8638 96.0512 80.7797 100.877C81.2028 102.422 82.1188 103.787 83.3883 104.764C84.6579 105.741 86.2116 106.277 87.8135 106.29C88.6082 106.287 89.4005 106.201 90.1771 106.032C92.2974 105.849 94.2826 104.914 95.7742 103.396C97.2658 101.878 98.1657 99.8767 98.3115 97.7534C98.7677 95.1089 99.5513 88.7967 99.9198 85.41C100.851 85.666 101.815 85.7849 102.781 85.7631C105.005 85.7791 107.211 85.3588 109.273 84.5259C111.109 83.6728 114.428 81.585 113.817 79.7679H113.841ZM101.752 56.8827C101.719 57.8396 101.619 58.793 101.453 59.7359C101.262 60.844 101.141 61.9632 101.093 63.0866C101.084 64.3542 101.17 65.6207 101.35 66.8755C101.907 69.4437 101.702 72.1185 100.76 74.5718C100.56 74.217 100.382 73.8503 100.227 73.4738C100.077 73.1104 99.7497 72.5253 99.3013 71.7185C97.5486 68.574 93.4401 61.2077 95.5433 58.2024C96.1696 57.308 97.7599 56.3981 101.75 56.8827H101.752ZM96.9145 39.9514C99.5528 39.8974 102.168 40.4564 104.553 41.5844C106.939 42.7124 109.03 44.3785 110.663 46.4517C113.176 49.6607 110.405 64.2671 102.402 76.8657L102.16 76.559L102.059 76.4327C103.649 73.4283 104.112 69.9542 103.363 66.6384C103.191 65.4848 103.105 64.32 103.106 63.1536C103.152 62.1114 103.265 61.0732 103.443 60.0452C103.675 58.7761 103.781 57.4871 103.76 56.1971C103.802 56.0199 103.814 55.8368 103.794 55.6558C102.94 52.2044 101.247 49.0172 98.8657 46.377C96.7259 43.8556 94.0497 41.8443 91.0328 40.4901C92.9649 40.0872 94.9361 39.9022 96.9094 39.9385L96.9145 39.9514ZM64.1937 84.0852C62.5777 86.0286 61.459 85.6574 61.1008 85.5337C58.7089 84.7347 55.9304 79.6777 53.4844 71.6567C51.8603 66.4792 50.7044 61.1664 50.0306 55.7821C49.7213 49.5962 51.2214 45.2816 54.4896 42.9619C59.8069 39.191 68.5522 41.4489 72.0653 42.5933C72.0137 42.6423 71.9622 42.6886 71.9132 42.7402C66.1474 48.5627 66.284 58.5116 66.2995 59.1199C66.2995 59.3545 66.3176 59.687 66.3459 60.1509C66.5573 62.9225 66.4873 65.7083 66.1371 68.4658C65.8975 70.0446 66.0206 71.6574 66.4971 73.1815C66.9736 74.7057 67.791 76.1014 68.8873 77.2626C69.1158 77.4998 69.3547 77.7249 69.6038 77.9379C68.6166 78.9947 66.4696 81.335 64.1911 84.0852H64.1937ZM70.3538 75.8631C69.465 74.9233 68.8021 73.7932 68.4158 72.5587C68.0295 71.3242 67.9298 70.0178 68.1243 68.739C68.4938 65.8493 68.5689 62.9295 68.3486 60.0246C68.3331 59.7798 68.3202 59.5658 68.3125 59.3983C70.4716 57.7711 73.151 56.9891 75.8464 57.1997C76.4666 57.3403 77.0276 57.6704 77.4516 58.1443C77.8756 58.6182 78.1415 59.2123 78.2125 59.8442C79.8775 67.5482 78.4316 70.7571 77.2717 73.3372C77.032 73.8681 76.8052 74.3682 76.6145 74.8836L76.465 75.2857C76.0946 76.2197 75.7779 77.174 75.5165 78.1441C74.5475 78.1303 73.5913 77.9207 72.7054 77.5278C71.8195 77.1349 71.0223 76.5669 70.3616 75.8579L70.3538 75.8631ZM70.6451 86.2502C70.1669 86.1325 69.7114 85.9366 69.2971 85.6703C69.7578 85.4735 70.2395 85.3299 70.7327 85.2424C74.3876 84.4898 74.952 83.9537 76.1866 82.3943C76.4701 82.0361 76.7898 81.6211 77.2331 81.134C77.8929 80.3942 78.197 80.5205 78.7435 80.7474C79.0026 80.8881 79.2299 81.081 79.4109 81.3139C79.5919 81.5468 79.7227 81.8146 79.7951 82.1005C79.8671 82.3081 79.8929 82.5289 79.8706 82.7475C79.8484 82.9661 79.7786 83.1772 79.6662 83.3661C78.667 84.7458 77.2531 85.77 75.6306 86.2893C74.0082 86.8087 72.2623 86.7959 70.6477 86.2528L70.6451 86.2502ZM89.7801 104.05C89.0568 104.302 88.2885 104.398 87.5255 104.332C86.7625 104.267 86.0219 104.041 85.352 103.67C84.6822 103.299 84.0981 102.79 83.638 102.178C83.1779 101.566 82.8521 100.864 82.6818 100.117C81.7742 94.2756 81.5148 88.3519 81.9086 82.4536C81.9112 82.3454 81.8964 82.2375 81.8648 82.134C81.8377 81.9337 81.7964 81.7356 81.741 81.5412C81.5884 80.9614 81.3102 80.4223 80.9263 79.9618C80.5424 79.5013 80.0621 79.1307 79.5193 78.8761C78.8865 78.5624 78.1662 78.4715 77.4754 78.6184C77.7196 77.7245 78.0138 76.845 78.3568 75.9842L78.5063 75.5796C78.6764 75.1233 78.8878 74.6517 79.112 74.1516C80.326 71.453 81.9911 67.7544 80.1843 59.4034C80.0699 58.6931 79.8113 58.0137 79.4243 57.4071C79.0373 56.8006 78.5302 56.2797 77.9342 55.8766C77.3381 55.4736 76.6659 55.1969 75.9588 55.0636C75.2518 54.9303 74.5249 54.9433 73.8231 55.1017C72.1254 55.3219 70.4794 55.8374 68.9594 56.6249C68.7584 56.728 68.5728 56.826 68.4027 56.9214C68.5977 52.238 70.3357 47.7506 73.3463 44.1578C74.5555 42.9744 75.9986 42.0568 77.5832 41.4638C79.1678 40.8709 80.8588 40.6156 82.5478 40.7143C85.4012 40.7391 88.2143 41.3897 90.7889 42.6202C93.3634 43.8506 95.6366 45.6311 97.4481 47.8358C99.2159 49.9002 100.597 52.2663 101.526 54.8207C97.7548 54.4367 95.1902 55.1816 93.8912 57.0399C91.056 61.0814 95.4376 68.9271 97.5408 72.698C97.9275 73.3887 98.26 73.9867 98.3631 74.2444C98.9185 75.5411 99.6667 76.7463 100.582 77.8194C100.781 78.0771 100.974 78.3065 101.118 78.5179C99.9765 78.8478 97.9249 79.6081 98.113 83.415C97.9636 85.3223 96.8913 94.2532 96.3449 97.4106C95.6258 101.578 94.0922 103.133 89.7776 104.058L89.7801 104.05ZM108.446 82.6882C106.859 83.3177 105.175 83.6665 103.469 83.7192C102.334 83.8864 101.174 83.7374 100.118 83.2887C100.002 80.92 100.892 80.6726 101.819 80.4097C101.966 80.3685 102.108 80.3272 102.247 80.2808C102.338 80.3543 102.433 80.4231 102.531 80.487C104.178 81.5747 107.119 81.6907 111.268 80.835H111.315C110.457 81.5977 109.487 82.2236 108.438 82.6908L108.446 82.6882Z" fill="white"/>
</svg>
