<svg width="168" height="150" viewBox="0 0 168 150" fill="none" xmlns="http://www.w3.org/2000/svg">
<rect x="0.5" y="0.5" width="167" height="149" rx="19.5" fill="white" stroke="#CFCFCF"/>
<path fill-rule="evenodd" clip-rule="evenodd" d="M66.3207 39.6333C64.0624 39.6394 61.8526 40.9264 60.7174 42.8812L43.0331 73.6845C41.9161 75.6514 41.9161 78.2194 43.0331 80.1863L60.7174 110.984C61.8526 112.944 64.0624 114.231 66.3207 114.231H101.683C103.942 114.225 106.151 112.938 107.287 110.984L124.971 80.1863C126.088 78.2194 126.088 75.6514 124.971 73.6845L107.293 42.8812C106.157 40.9203 103.948 39.6333 101.689 39.6333H66.3207ZM66.6425 57.6515C66.691 57.6454 66.7396 57.6454 66.7882 57.6515H72.8893C73.1625 57.6575 73.4236 57.8154 73.5571 58.0461L83.9018 76.5378C83.9564 76.6288 83.9868 76.732 83.9989 76.8352C84.0111 76.732 84.0475 76.6288 84.096 76.5378L94.4164 58.0461C94.5561 57.8032 94.8292 57.6454 95.1085 57.6515H101.21C101.75 57.6575 102.157 58.3375 101.902 58.8171L91.806 76.9324L101.908 95.0234C102.187 95.503 101.768 96.2193 101.216 96.2133H95.1146C94.8292 96.2133 94.5561 96.0433 94.4225 95.7944L84.1021 77.3027C84.0475 77.2116 84.0171 77.1084 84.005 77.0052C83.9928 77.1084 83.9564 77.2116 83.9079 77.3027L73.5571 95.7944C73.4296 96.0372 73.1625 96.2072 72.8893 96.2133H66.7942C66.2418 96.2193 65.8229 95.503 66.1022 95.0234L76.204 76.9324L66.1022 58.8171C65.8593 58.38 66.1507 57.7425 66.6425 57.6515Z" fill="#3498DB"/>
</svg>
