<svg width="167" height="150" viewBox="0 0 167 150" fill="none" xmlns="http://www.w3.org/2000/svg">
<rect x="0.5" y="0.5" width="166" height="149" rx="19.5" fill="white" stroke="#CFCFCF"/>
<g clip-path="url(#clip0_2038_842)">
<path d="M108.06 48.2358C107.819 41.9921 102.281 40.6825 102.281 40.6825C102.281 40.6825 83.0871 37.8161 74.6786 36.7756C66.2675 35.7296 66.7911 43.8072 66.7911 43.8072C66.7911 43.8072 68.7011 102.68 68.8995 109.973C69.1248 118.661 77.3079 117.262 77.3079 117.262L106.226 112.307C111.485 111.263 111.745 104.756 111.745 104.756C111.745 104.756 108.329 55.052 108.06 48.2358C108.329 55.052 107.819 41.9921 108.06 48.2358ZM101.592 98.2465L80.089 100.454C80.089 100.454 73.8267 101.4 73.6858 93.8606C73.5827 88.3055 72.3426 56.4853 72.3426 56.4853C72.3426 56.4853 71.9111 50.6504 78.3552 51.1289C84.9321 51.6128 100.691 52.8014 100.691 52.8014C100.691 52.8014 104.91 53.7964 105.095 58.5611C105.293 63.7399 107.113 92.5001 107.113 92.5001C107.113 92.5001 107.588 97.2272 101.592 98.2465ZM48.9515 89.6686L44.979 89.9485C44.979 89.9485 40.9713 90.4862 40.8793 86.1409C40.8143 82.9386 40.4126 64.7615 40.4126 64.7615C40.4126 64.7615 40.1358 61.3979 44.2574 61.6722C45.3021 61.7393 46.7833 61.8334 48.4194 61.9303C48.3626 58.9159 48.314 56.2806 48.2759 54.2751C46.0075 54.1055 43.8856 53.9226 42.369 53.7641C36.9232 53.1698 37.2569 57.7006 37.2569 57.7006C37.2569 57.7006 37.914 91.0375 38.0362 95.1246C38.1856 99.9968 43.479 99.2063 43.479 99.2063L49.1307 98.6068C49.0818 96.1893 49.0165 93.1081 48.9517 89.6689L48.9515 89.6686ZM64.7509 59.3676C64.7352 58.9745 64.6687 58.585 64.5529 58.2087C62.8136 58.069 58.4476 56.9423 57.0479 58.4078C56.1605 59.3302 56.5267 61.2742 56.5484 62.3794L59.715 62.5565C59.715 62.5565 62.4146 63.1294 62.5315 65.872C62.6563 68.8624 62.6399 85.6111 62.6399 85.6111C62.6399 85.6111 62.9437 88.343 59.1127 88.9213L57.1021 89.0694C57.1129 89.6634 57.1238 90.1421 57.129 90.4969C57.2134 95.2727 62.3387 93.7427 65.5539 93.4332C65.8307 88.3674 65.3395 83.1483 65.2258 78.0798C65.0872 71.8443 65.0357 65.598 64.7509 59.3676C64.9243 63.1804 64.7319 58.9429 64.7509 59.3676Z" fill="#012F69"/>
<path d="M66.414 95.3906L60.621 95.9446C60.621 95.9446 55.2189 96.7133 55.1023 90.5451C55.0182 85.9929 54.4754 60.1902 54.4754 60.1902C54.4754 60.1902 54.101 55.4202 59.6443 55.8019C61.0687 55.8989 63.028 56.0574 65.1607 56.227C65.0004 51.2767 64.8727 47.3721 64.8077 45.3611C61.8884 45.0786 59.1369 44.7938 57.102 44.5627C49.7758 43.7393 50.2375 50.1578 50.2375 50.1578C50.2375 50.1578 51.1084 97.4876 51.2792 103.271C51.4773 110.185 58.6052 109.074 58.6052 109.074L66.8074 108.033C66.726 105.342 66.5877 100.822 66.414 95.3903V95.3906ZM78.2005 53.14C77.1751 53.0593 75.9295 53.1266 75.1699 53.9198C74.3666 54.7533 74.3531 55.9364 74.3994 57.0065C77.3052 57.2568 79.4133 57.442 79.4133 57.442C79.4133 57.442 83.0437 58.2517 83.2092 62.1504C83.3773 66.3909 84.4167 89.432 84.4167 89.432C84.4167 89.432 84.8237 93.3067 79.6629 94.1428L75.7558 94.5139C76.2743 100.566 84.1724 98.0122 88.2123 97.5982C87.7975 88.4963 86.5114 60.3464 86.2211 53.7369C83.5482 53.5292 80.8747 53.3302 78.2005 53.14C80.2327 53.2822 77.9998 53.124 78.2005 53.14Z" fill="#012F69"/>
</g>
<defs>
<clipPath id="clip0_2038_842">
<rect width="75" height="81" fill="white" transform="translate(37 36.4321)"/>
</clipPath>
</defs>
</svg>
