<svg width="167" height="150" viewBox="0 0 167 150" fill="none" xmlns="http://www.w3.org/2000/svg">
<rect x="0.5" y="0.5" width="166" height="149" rx="19.5" fill="white" stroke="#CFCFCF"/>
<path d="M121.797 102.14L83.9396 36.5695C83.4388 35.6991 82.5068 35.1616 81.502 35.1616C80.4971 35.1616 79.5703 35.6984 79.0669 36.5695L41.2066 102.14C40.702 103.01 40.702 103.982 41.2066 104.854C41.7107 105.724 42.6388 106.156 43.6436 106.156H119.362C120.368 106.156 121.293 105.724 121.797 104.854C122.302 103.982 122.302 103.01 121.797 102.14ZM97.7107 96.847L97.8123 94.0049L86.8885 95.9346L86.3916 95.4764L86.5326 91.7364H86.2474C86.2474 91.7364 83.254 96.6871 76.6241 96.6871C71.7062 96.6871 67.0728 94.7207 67.0728 86.7399C67.0728 78.6818 73.1305 76.0055 79.4753 76.0055H86.0901V72.6942C86.0901 69.4857 83.9586 67.6334 79.9662 67.6334C75.4751 67.6334 70.1305 68.3459 70.1305 68.3459L69.7038 67.8465V62.4291C69.7038 62.4291 75.4397 61.7173 81.3604 61.7173C86.7777 61.7173 93.3001 63.1429 93.3001 71.1263V89.4967L96.987 88.8046L95.9678 86.1454L105.083 90.1397L97.7107 96.847ZM73.9865 86.2044C73.9865 89.911 76.5448 90.7133 79.0388 90.7133C81.3918 90.7133 84.1238 90.088 86.0901 87.1653V81.2492H81.3302C76.4799 81.2492 73.9865 82.3543 73.9865 86.2044Z" fill="#AC162C"/>
</svg>
