<svg width="74" height="75" viewBox="0 0 74 75" fill="none" xmlns="http://www.w3.org/2000/svg">
<path fill-rule="evenodd" clip-rule="evenodd" d="M46.3293 52.9563C33.2695 52.9563 30.5315 47.4754 30.5315 42.8736C30.5315 42.437 30.916 42.0854 31.3934 42.0854H35.2516C35.6759 42.0854 36.0339 42.3704 36.1002 42.7523C36.6836 46.3477 38.4138 48.1605 46.316 48.1605C52.6073 48.1605 55.2789 46.863 55.2789 43.8073C55.2789 42.049 54.5166 40.7455 44.7449 39.8724C36.5709 39.1327 31.5193 37.4897 31.5193 31.5056C31.5193 26.0004 36.5974 22.7203 45.1095 22.7203C54.669 22.7203 59.4024 25.7518 59.999 32.2756C60.0189 32.4999 59.9327 32.7181 59.767 32.8818C59.6013 33.0395 59.3692 33.1365 59.1306 33.1365H55.259C54.8547 33.1365 54.5033 32.8758 54.4237 32.5241C53.489 28.7469 51.235 27.5343 45.0962 27.5343C38.2282 27.5343 37.4327 29.723 37.4327 31.36C37.4327 33.3487 38.3741 33.9307 47.6419 35.0524C56.8169 36.168 61.1724 37.7383 61.1724 43.6375C61.1724 49.5853 55.7496 52.9926 46.2895 52.9926L46.3293 52.9563ZM37.1079 74.6616C36.014 74.6616 34.9334 74.4009 33.9788 73.8977L24.0149 68.5017C22.5233 67.7377 23.2525 67.471 23.7431 67.3133C25.7253 66.6767 26.1296 66.5373 28.251 65.4338C28.4764 65.3186 28.7681 65.3611 28.9935 65.4823L36.6504 69.6354C36.9289 69.7749 37.32 69.7749 37.5785 69.6354L67.4305 53.8778C67.709 53.7323 67.888 53.4413 67.888 53.1382V21.6411C67.888 21.3259 67.709 21.047 67.4239 20.8893L37.5785 5.14385C37.3001 4.99228 36.9355 4.99228 36.6571 5.14385L6.82495 20.8893C6.53326 21.0409 6.35427 21.3319 6.35427 21.6351V53.1382C6.35427 53.4413 6.53326 53.7263 6.81832 53.8718L14.9923 58.1886C19.4274 60.2197 22.1454 57.8248 22.1454 55.4239V24.327C22.1454 23.8844 22.5233 23.5388 23.0138 23.5388H26.7926C27.2633 23.5388 27.6544 23.8784 27.6544 24.327V55.436C27.6544 60.8502 24.4259 63.9545 18.8175 63.9545C17.0938 63.9545 15.7282 63.9545 11.9362 62.2447L4.09366 58.1158C2.15788 57.0912 0.9646 55.1814 0.9646 53.1382V21.6351C0.9646 19.5858 2.15788 17.6699 4.09366 16.6574L33.9722 0.893722C35.8615 -0.0824126 38.3741 -0.0824126 40.2502 0.893722L70.0955 16.6635C72.0247 17.682 73.2246 19.5858 73.2246 21.6411V53.1442C73.2246 55.1874 72.0247 57.0912 70.0955 58.1219L40.2502 73.8856C39.2955 74.3888 38.2083 74.6495 37.1079 74.6495V74.6616Z" fill="#689F63"/>
</svg>
