<svg width="167" height="150" viewBox="0 0 167 150" fill="none" xmlns="http://www.w3.org/2000/svg">
<path d="M20 0.5H147C157.77 0.5 166.5 9.23045 166.5 20V130C166.5 140.77 157.77 149.5 147 149.5H20C9.23045 149.5 0.5 140.77 0.5 130V20C0.5 9.23045 9.23045 0.5 20 0.5Z" fill="white" stroke="#CFCFCF"/>
<path fill-rule="evenodd" clip-rule="evenodd" d="M83.5059 56.0337C74.4204 56.0337 67.0404 63.4079 67.0404 72.4992C67.0404 81.5964 74.4145 88.9706 83.5059 88.9706C92.603 88.9706 99.9772 81.5964 99.9772 72.4992C99.9713 63.4079 92.5972 56.0396 83.5059 56.0337ZM116.396 57.5274L116.078 56.8393L115.584 57.4156C114.355 58.8093 112.797 59.8855 111.056 60.5323L110.562 60.7087L110.756 61.2027C112.25 64.7957 113.02 68.6592 113.02 72.5404C113.02 88.8471 99.7949 102.084 83.4823 102.084C67.1697 102.084 53.9503 88.8471 53.9503 72.5345C53.9503 56.2219 67.1756 42.9966 83.4882 42.9966C87.8751 42.9966 92.1973 43.9727 96.1608 45.8545L96.6194 46.0721L96.8135 45.5781C97.5486 43.8786 98.7012 42.3732 100.154 41.2148L100.736 40.7208L100.071 40.3738C94.9905 37.7335 89.3276 36.3516 83.5882 36.3516C83.5705 36.3516 83.5294 36.3516 83.4941 36.3516C63.5532 36.3516 47.3759 52.5289 47.3759 72.4816C47.3759 92.4342 63.565 108.612 83.5059 108.612C103.464 108.612 119.636 92.4342 119.636 72.4816C119.636 67.3067 118.53 62.1847 116.378 57.4862L116.396 57.5274ZM114.649 49.9885C114.649 45.8486 111.297 42.4908 107.151 42.4908C103.012 42.4908 99.6538 45.8486 99.6538 49.9885C99.6538 54.1402 103.012 57.498 107.151 57.498C111.303 57.498 114.649 54.1343 114.649 49.9885Z" fill="#478AFF"/>
</svg>
