<svg width="168" height="150" viewBox="0 0 168 150" fill="none" xmlns="http://www.w3.org/2000/svg">
<rect x="0.5" y="0.5" width="167" height="149" rx="19.5" fill="white" stroke="#CFCFCF"/>
<path d="M83.2523 81.6081H93.4213V84.0219H83.0783C82.9735 84.0219 82.8345 84.0449 82.7298 84.0449C81.4416 84.1613 81.0584 84.3706 80.8846 85.1133C80.8493 85.2295 80.8493 85.3226 80.8493 85.4156V87.0635C80.8493 87.1799 80.8493 87.273 80.8846 87.3892C81.0586 88.3644 81.755 88.8046 83.2173 88.8046H87.6051C88.6849 88.8046 89.7986 88.9907 90.705 89.3394C92.411 89.9891 93.2823 90.9641 93.2823 92.009V94.6553C93.2823 95.9328 92.5158 96.9082 90.949 97.6272C90.0078 98.0684 88.8243 98.3232 87.6049 98.3232H77.1927V95.9094H87.188C87.3274 95.9094 87.4313 95.8863 87.5709 95.8863C88.2669 95.8397 88.7895 95.6538 89.1025 95.3745C89.4514 95.0972 89.625 94.7715 89.625 94.5157V92.4035C89.625 92.1718 89.5553 91.9625 89.3469 91.7532C88.9988 91.3356 88.5102 91.1269 87.3614 91.034C87.2568 91.0108 87.1181 91.0108 86.9787 91.0108H83.2171C82.869 91.0108 82.5211 90.9875 82.1722 90.9641C79.0732 90.6394 77.2275 89.2464 77.2275 87.6209V85.5087C77.2275 83.6515 78.1679 82.5831 80.327 81.9097C81.0233 81.7011 81.7896 81.6081 83.2523 81.6081ZM111.446 97.5908L115.013 100.811H110.808L107.922 98.2055L105.016 98.3899H101.142C100.479 98.3899 99.7811 98.2967 99.0135 98.0874C96.7107 97.4594 95.5933 96.2499 95.5933 94.2485V85.641C95.5933 83.4537 97.1296 82.127 100.165 81.7084C100.479 81.6617 100.828 81.6387 101.142 81.6387H108.017C108.366 81.6387 108.68 81.6617 109.029 81.7084C112.064 82.127 113.6 83.4537 113.6 85.641V94.2485C113.6 96.0225 112.949 96.9725 111.446 97.5908ZM110.215 85.8506C110.215 85.7574 110.216 85.641 110.181 85.5238C109.971 84.5935 109.029 84.0583 107.634 84.0583H102.155C100.549 84.0583 99.5031 84.7562 99.5031 85.8503V94.039C99.5031 94.1554 99.538 94.2715 99.572 94.4112C99.7813 95.4122 100.724 95.9705 102.155 95.9705H105.444L102.422 93.2417H106.628L109.265 95.6215C109.75 95.3621 110.07 94.9666 110.181 94.4576C110.216 94.3423 110.215 94.2251 110.215 94.1087V85.8506ZM52.4374 81.6311C49.6863 80.7723 47.8402 81.515 47.0049 83.3722L41.5024 95.677L36.1744 83.3722C35.3732 81.515 33.4927 80.7723 30.7418 81.6311C29.5926 81.9792 29.0352 82.6528 29.0352 84.0449V98.3234H32.6565V84.0217L38.2638 96.4894C38.9253 97.9987 39.8308 98.5327 41.6065 98.5327C43.3829 98.5327 44.2533 97.9987 44.9153 96.4894L50.5221 84.0217V98.3234H54.1441V84.0449C54.1439 82.6528 53.5867 81.9792 52.4374 81.6311ZM70.7726 86.6448V96.026C70.7092 96.026 63.9094 96.0421 62.8972 96.026C60.9133 95.9954 60.742 94.9901 60.776 94.5622V86.6823H57.1553C57.2345 86.761 57.1544 94.6446 57.157 94.8109C57.1852 96.609 59.4661 98.1713 63.0474 98.205H70.7453V99.1542C70.7457 99.5443 71.0209 100.703 68.6899 100.95C68.6613 100.952 57.2538 100.95 57.234 100.95V103.387H68.6699C70.4837 103.333 74.4189 102.648 74.3987 99.4924C74.3983 99.4378 74.4189 86.6444 74.4019 86.6444H70.7726V86.6448ZM136.741 96.026L137.616 97.3645H137.018L136.221 96.0475H135.744V97.3645H135.232V94.3174H136.42C137.175 94.3174 137.566 94.574 137.566 95.1932C137.566 95.7486 137.21 95.976 136.741 96.026ZM136.292 95.62C136.676 95.62 137.011 95.5841 137.011 95.1583C137.011 94.8025 136.641 94.745 136.334 94.745H135.744V95.62H136.292ZM138.968 95.8409C138.968 97.4351 137.709 98.5095 136.299 98.5095C134.891 98.5095 133.63 97.4351 133.63 95.8409C133.63 94.2466 134.891 93.1722 136.299 93.1722C137.709 93.1722 138.968 94.2466 138.968 95.8409ZM138.371 95.8409C138.371 94.6304 137.446 93.7268 136.299 93.7268C135.139 93.7268 134.228 94.6304 134.228 95.8409C134.228 97.0504 135.139 97.9548 136.299 97.9548C137.446 97.9548 138.371 97.0504 138.371 95.8409ZM106.819 53.4832C106.355 53.4746 106.027 53.5336 105.68 53.6097C105.68 53.6308 105.68 53.6517 105.68 53.6728C105.701 53.6728 105.722 53.6728 105.743 53.6728C105.965 54.1278 106.356 54.4208 106.63 54.8128C106.84 55.2561 107.051 55.6989 107.262 56.1416C107.284 56.1206 107.305 56.0997 107.326 56.0786C107.718 55.8026 107.897 55.3607 107.896 54.686C107.738 54.5204 107.715 54.3134 107.579 54.1162C107.398 53.853 107.048 53.7044 106.819 53.4832ZM137.458 85.9588C137.757 86.178 137.957 86.5179 138.345 86.6556C138.345 86.6341 138.345 86.6128 138.345 86.5921C138.141 86.3335 138.089 85.9766 137.902 85.7056C137.628 85.4319 137.352 85.1572 137.079 84.8825C136.274 83.8143 135.253 82.8768 134.167 82.0975C133.302 81.4756 131.363 80.6366 131.002 79.6291C130.981 79.6076 130.959 79.5863 130.938 79.5648C131.552 79.4959 132.271 79.2739 132.837 79.1218C133.789 78.8667 134.64 78.9329 135.622 78.6789C136.066 78.5517 136.509 78.4248 136.952 78.2994C136.952 78.2144 136.952 78.1305 136.952 78.0453C136.455 77.5354 136.101 76.8608 135.56 76.3993C134.141 75.1928 132.595 73.9864 131.001 72.9812C130.118 72.4232 129.026 72.0611 128.089 71.5883C127.774 71.4295 127.221 71.3467 127.013 71.0818C126.522 70.4545 126.254 69.6596 125.874 68.9292C125.08 67.3989 124.299 65.7278 123.594 64.1177C123.115 63.0201 122.801 61.9376 122.202 60.9525C119.328 56.2266 116.233 53.3739 111.441 50.5701C110.42 49.974 109.193 49.7386 107.896 49.431C107.2 49.389 106.502 49.3462 105.806 49.3043C105.381 49.1268 104.94 48.607 104.54 48.3547C102.952 47.3517 98.8792 45.1696 97.7038 48.0384C96.9611 49.8488 98.813 51.6154 99.4758 52.5332C99.9411 53.1767 100.536 53.8984 100.869 54.6219C101.087 55.0976 101.125 55.575 101.313 56.0782C101.773 57.3182 102.173 58.6671 102.768 59.8133C103.069 60.3929 103.401 61.0041 103.781 61.5224C104.015 61.8405 104.414 61.9806 104.476 62.472C104.086 63.019 104.064 63.868 103.845 64.5609C102.855 67.6808 103.228 71.5579 104.668 73.8672C105.109 74.5756 106.149 76.0964 107.579 75.5127C108.829 75.0033 108.55 73.4242 108.908 72.0312C108.989 71.7148 108.94 71.4826 109.098 71.2716C109.098 71.2922 109.098 71.3135 109.098 71.3346C109.478 72.0942 109.858 72.8539 110.238 73.6133C111.081 74.9714 112.578 76.3918 113.847 77.3489C114.503 77.8454 115.021 78.7042 115.872 78.9949C115.872 78.9734 115.872 78.9521 115.872 78.9306C115.851 78.9306 115.829 78.9306 115.809 78.9306C115.643 78.6748 115.385 78.5674 115.176 78.3615C114.68 77.8755 114.129 77.2719 113.719 76.7153C112.565 75.1494 111.546 73.4352 110.618 71.6513C110.174 70.7991 109.788 69.8592 109.414 68.9924C109.27 68.6579 109.272 68.1526 108.971 67.9794C108.562 68.6145 107.959 69.1286 107.642 69.8786C107.135 71.0777 107.07 72.54 106.882 74.0565C106.771 74.0965 106.821 74.0692 106.755 74.1195C105.873 73.9074 105.564 72.9995 105.236 72.2207C104.408 70.2518 104.254 67.081 104.983 64.8141C105.172 64.2279 106.025 62.3805 105.679 61.8388C105.514 61.298 104.971 60.9858 104.667 60.5725C104.289 60.0618 103.914 59.3899 103.653 58.7998C102.975 57.2646 102.659 55.5412 101.945 53.989C101.603 53.2474 101.026 52.4962 100.552 51.8364C100.027 51.1058 99.4388 50.568 99.0324 49.6837C98.8876 49.3699 98.6908 48.8675 98.9055 48.5446C98.9733 48.3267 99.0701 48.2359 99.2858 48.1647C99.6535 47.8816 100.675 48.2589 101.058 48.4179C102.072 48.8393 102.921 49.241 103.78 49.8105C104.193 50.0841 104.61 50.6138 105.109 50.7603C105.299 50.7603 105.489 50.7603 105.679 50.7603C106.571 50.9649 107.569 50.8242 108.401 51.077C109.873 51.5242 111.192 52.22 112.389 52.9764C116.038 55.2798 119.021 58.5597 121.062 62.472C121.39 63.1019 121.533 63.7029 121.821 64.3714C122.405 65.7188 123.14 67.1049 123.721 68.4228C124.299 69.7368 124.864 71.0635 125.683 72.1577C126.113 72.7325 127.776 73.041 128.532 73.3607C129.062 73.5843 129.929 73.8179 130.43 74.1195C131.389 74.698 132.317 75.386 133.216 76.0194C133.665 76.3363 135.047 77.0303 135.115 77.6012C132.889 77.5423 131.188 77.749 129.734 78.3617C129.321 78.5354 128.662 78.5405 128.594 79.0575C128.822 79.2954 128.858 79.6517 129.038 79.9441C129.384 80.506 129.97 81.2583 130.494 81.6537C131.065 82.0851 131.654 82.5465 132.266 82.9198C133.356 83.5846 134.573 83.9638 135.621 84.6292C136.242 85.0221 136.855 85.5158 137.458 85.9588ZM119.497 94.099V81.6079H115.876V94.122C115.876 96.6055 117.722 97.9987 121.448 98.2775C121.796 98.2999 122.144 98.3232 122.493 98.3232H131.93V95.9094H122.423C120.299 95.9096 119.497 95.3747 119.497 94.099Z" fill="black"/>
</svg>
