<svg width="167" height="150" viewBox="0 0 167 150" fill="none" xmlns="http://www.w3.org/2000/svg">
<rect x="0.5" y="0.5" width="166" height="149" rx="19.5" fill="white" stroke="#CFCFCF"/>
<path d="M86.1217 74.4116L70.9015 79.3813L57.6609 85.225L53.9559 86.2035C52.978 87.1373 51.9768 88.0464 50.9533 88.93C49.7801 89.9417 48.6876 90.8627 47.848 91.5294C46.9158 92.2657 45.5353 93.6462 44.8335 94.5207C43.7862 95.8323 42.9585 97.2241 42.6016 98.294C41.9687 100.227 42.2798 102.182 43.4988 103.989C45.0639 106.289 48.1811 108.637 51.816 110.235C53.6685 111.053 56.7857 112.099 59.1334 112.685C63.0326 113.675 70.5797 114.746 74.7324 114.906C75.572 114.941 76.6995 114.941 76.7452 114.906C76.8378 114.848 77.4821 113.618 78.2302 112.088C80.7833 106.876 82.6239 101.987 83.6256 97.8107C84.2235 95.2802 84.6949 91.9094 85.0055 87.9177C85.0862 86.8014 85.1206 83.0626 85.0518 81.7973C84.9479 79.7269 84.7638 78.0472 84.4758 76.4025C84.4301 76.1602 84.4188 75.9417 84.442 75.9298C84.4877 75.896 84.6261 75.8497 86.5011 75.3088L86.1217 74.4116ZM82.6477 76.4482C82.786 76.4482 83.1536 79.9792 83.2456 82.2111C83.2687 82.6832 83.2575 82.9937 83.2337 82.9937C83.1423 82.9937 81.2898 81.9012 79.9675 81.0723C78.8168 80.3479 76.6306 78.8986 76.2862 78.6219C76.1705 78.5417 76.1817 78.5299 77.1252 78.2081C78.7242 77.6677 82.5212 76.4476 82.6471 76.4476L82.6477 76.4482ZM74.8933 79.0013C74.9972 79.0013 75.2614 79.1509 75.8944 79.5422C78.264 81.0266 81.4857 82.8215 82.8662 83.4194C83.2913 83.6035 83.3376 83.534 82.3597 84.202C80.2662 85.6282 77.6548 87.0318 74.4569 88.4467C73.8928 88.6996 73.4208 88.895 73.4095 88.895C73.3864 88.895 73.4558 88.6076 73.5479 88.2626C74.318 85.3978 74.7556 82.4991 74.7787 80.1752C74.7906 79.0245 74.7906 79.0245 74.8939 78.99C74.8702 79.0019 74.882 79.0019 74.8939 79.0019L74.8933 79.0013ZM73.2949 79.6111C73.3638 79.6806 73.3175 82.2574 73.2255 82.9592C73.0192 84.6549 72.6651 86.3293 72.1674 87.9634C72.0409 88.3891 71.9257 88.7459 71.9026 88.7685C71.8563 88.8261 70.2805 87.2841 69.7627 86.6862C68.8656 85.6507 68.1637 84.6158 67.646 83.6035C67.3818 83.0857 66.9673 82.0734 67.0018 82.0389C67.1858 81.9119 73.2486 79.5654 73.2949 79.6111ZM65.7709 82.568C65.7822 82.568 65.7935 82.568 65.8054 82.5792C65.8285 82.6024 65.9093 82.7871 65.9782 82.9937C66.3463 83.9942 67.174 85.4667 67.8876 86.4101C68.6702 87.4456 69.6938 88.5506 70.5453 89.275C70.8214 89.5047 71.0743 89.7232 71.1087 89.7577C71.1776 89.8272 71.2008 89.8153 69.3251 90.529C67.152 91.3572 64.7817 92.1855 62.0665 93.0595C61.418 93.2687 60.77 93.4797 60.1226 93.6925C60.0187 93.7269 60.0537 93.6687 60.3524 93.1973C61.6984 91.093 63.7457 86.9629 64.8963 84.0405C65.0923 83.534 65.2882 83.0281 65.3227 82.9129C65.3684 82.752 65.426 82.6944 65.575 82.6137C65.6557 82.5911 65.7365 82.568 65.7709 82.568ZM63.4702 83.5227C63.5046 83.5459 62.918 84.7767 62.3426 85.9037C61.2264 88.0786 60.0074 90.2184 58.374 92.8185C58.0973 93.2667 57.8337 93.6812 57.7981 93.7269C57.7411 93.8077 57.7185 93.7845 57.5338 93.4282C57.1426 92.657 56.8207 91.6678 56.648 90.7587C56.4758 89.8616 56.5102 88.2971 56.7062 87.3304C56.8546 86.6179 56.8439 86.6292 57.1889 86.4564C58.6614 85.7083 63.4238 83.477 63.4702 83.5227ZM83.3145 84.3284V84.8111C83.3145 87.3767 83.0384 90.8971 82.6358 93.4621C82.5669 93.911 82.5093 94.2791 82.4981 94.291C82.4981 94.291 82.1644 94.1989 81.7737 94.0837C79.9402 93.5016 78.1676 92.7425 76.481 91.8174C75.3647 91.2076 73.7438 90.2066 73.7895 90.1608C73.8008 90.149 74.2841 89.896 74.8476 89.5968C77.1026 88.4235 79.2651 87.1582 81.1407 85.9037C81.8426 85.4322 82.9006 84.6734 83.1304 84.4662L83.3145 84.3284ZM54.7848 87.733C54.8305 87.733 54.8186 87.825 54.7497 88.2395C54.6923 88.6478 54.6502 89.0582 54.6233 89.4697C54.5312 91.15 54.8073 92.3927 55.6356 94.095C55.866 94.5665 56.0501 94.9577 56.0382 94.969C55.958 95.0385 48.342 97.2704 45.9492 97.9259C45.2361 98.1218 44.615 98.294 44.5687 98.3053C44.488 98.3291 44.4767 98.3172 44.5111 98.1212C44.7759 96.4302 46.0644 94.2215 47.8593 92.3577C49.0551 91.115 50.0104 90.3906 51.6438 89.459C52.8171 88.7917 54.6233 87.7906 54.761 87.7449C54.761 87.733 54.7729 87.733 54.7848 87.733ZM72.7309 90.9428C72.7427 90.9309 73.0182 91.0812 73.3519 91.2765C75.8142 92.7033 79.2419 94.0262 82.1638 94.7048L82.4286 94.7624L82.0605 94.9696C80.531 95.8211 75.5031 97.9146 70.3612 99.8354C69.6131 100.111 68.8768 100.388 68.7391 100.445C68.6013 100.503 68.4743 100.537 68.4743 100.525C68.4743 100.513 68.6815 100.111 68.9457 99.6169C70.3838 96.9248 71.8331 93.6462 72.57 91.3685C72.662 91.15 72.719 90.9547 72.7303 90.9428H72.7309ZM70.9021 91.5407C70.9134 91.5526 70.8214 91.7942 70.7062 92.0703C69.7051 94.4976 68.3935 97.1439 66.7138 100.111C66.2887 100.871 65.9318 101.481 65.9206 101.481C65.9093 101.481 65.5637 101.273 65.1493 101.021C62.7107 99.5249 60.5477 97.6842 59.1334 95.9012L58.9256 95.6483L59.973 95.3603C63.7231 94.3367 66.9097 93.2323 70.0732 91.875C70.5221 91.6909 70.8908 91.5407 70.9021 91.5407ZM82.2677 95.5099C82.2796 95.7747 81.6923 98.1444 81.209 99.8586C80.8065 101.297 80.4615 102.424 79.8286 104.414C79.5531 105.289 79.312 106.013 79.3001 106.013C79.2882 106.013 79.2194 106.002 79.1499 105.979C75.7335 105.357 72.6733 104.495 69.7971 103.344C68.992 103.022 67.8419 102.504 67.7725 102.447C67.7499 102.424 68.4398 102.102 69.3144 101.722C74.5489 99.4328 79.9782 96.8328 81.8426 95.7172C82.0611 95.5788 82.2332 95.5099 82.2677 95.5099ZM56.0269 96.4071C56.0501 96.4308 54.5888 98.5357 52.5416 101.401C51.8279 102.401 50.9996 103.574 50.6891 104.011C50.3299 104.518 49.9809 105.032 49.6423 105.553L49.159 106.301L48.6412 105.864C48.0315 105.357 46.9734 104.276 46.5014 103.678C45.5122 102.447 44.8448 101.147 44.5806 99.9625C44.4535 99.4103 44.4535 99.1336 44.5687 99.0997C46.6071 98.6128 48.6472 98.1332 50.6891 97.6611C52.0632 97.3448 53.4359 97.0227 54.8073 96.6951C55.4747 96.5342 56.0156 96.4071 56.0269 96.4071ZM57.4994 96.9712L57.8675 97.385C59.5241 99.2375 61.2151 100.607 63.2629 101.802C63.6311 102.01 63.9072 102.194 63.884 102.206C63.8038 102.263 56.7744 104.759 53.5189 105.887C52.4056 106.281 51.2897 106.669 50.1713 107.049C50.1601 107.049 50.0562 106.979 49.9416 106.899L49.7343 106.75L50.068 106.266C51.1487 104.702 52.5066 102.988 55.4628 99.4216L57.4994 96.9712ZM66.68 103.54C66.6912 103.528 67.1971 103.712 67.8188 103.943C69.3144 104.506 70.499 104.863 72.0866 105.266C74.0425 105.76 76.8723 106.244 78.5407 106.382C78.7937 106.405 78.9314 106.428 78.8857 106.462C78.8049 106.508 77.1139 107.072 75.8718 107.463C73.8928 108.084 67.8532 109.867 62.9292 111.282C62.3515 111.451 61.7726 111.616 61.1925 111.777C61.0773 111.8 60.6973 111.696 60.6973 111.65C60.6973 111.628 60.9734 111.271 61.3071 110.88C62.9637 108.901 64.609 106.692 65.9782 104.598C66.3582 104.023 66.68 103.551 66.68 103.54ZM64.6553 103.597C64.6666 103.609 63.8496 104.92 62.4228 107.175C61.8136 108.13 61.1343 109.212 60.8933 109.591C60.6629 109.959 60.3173 110.535 60.1226 110.857L59.7889 111.443L59.6161 111.397C59.2017 111.282 56.2911 110.258 55.5204 109.948C54.6064 109.584 53.7118 109.173 52.8402 108.717C51.9199 108.222 50.7698 107.486 50.8619 107.463C50.8844 107.451 52.4608 107.026 54.3591 106.508C59.397 105.139 62.193 104.346 64.0223 103.77C64.356 103.666 64.6434 103.586 64.6547 103.598L64.6553 103.597ZM78.9777 106.956H78.9896C79.0353 107.072 77.1715 112.248 76.4923 113.882C76.3432 114.25 76.2856 114.342 76.2049 114.331C76.0096 114.319 73.3062 113.94 71.6609 113.698C68.7967 113.261 63.9873 112.421 62.7802 112.145L62.5035 112.087L64.2177 111.696C67.8989 110.868 69.6707 110.42 71.4656 109.867C73.7833 109.159 76.0477 108.286 78.2415 107.255C78.5977 107.095 78.897 106.968 78.9777 106.956Z" fill="url(#paint0_linear_2038_851)"/>
<path d="M70.4301 38.9327C70.1772 38.8983 66.0928 40.3708 63.4589 41.4407C59.9035 42.8901 57.1432 44.2705 55.4403 45.4669C54.8074 45.9158 54.0135 46.7097 53.8871 47.0202C53.8399 47.1452 53.8165 47.2779 53.8182 47.4115L55.3602 48.8721L59.0295 50.0459L67.7612 51.6105L77.7463 53.3246L77.8502 52.4619C77.8158 52.4619 77.7926 52.45 77.7582 52.45L76.4466 52.2434L76.1824 51.7714C74.8245 49.3786 73.3294 46.4104 72.4548 44.4089C71.7768 42.8556 71.132 41.0613 70.7757 39.7729C70.5798 38.9903 70.5572 38.944 70.4301 38.9321V38.9327ZM70.2461 39.5193H70.258C70.2692 39.5312 70.315 39.8536 70.3613 40.233C70.5572 41.8433 70.9135 43.3965 71.4775 45.0763C71.9026 46.3409 71.9026 46.2727 71.408 46.123C70.2348 45.8012 64.9777 44.8922 61.1694 44.3626C60.5596 44.2824 60.0419 44.2023 60.0419 44.1904C59.9962 44.1441 62.791 42.6834 64.0224 42.1081C65.5982 41.3837 69.9243 39.5769 70.2461 39.5193ZM59.156 44.6737L59.6049 44.8233C62.044 45.6516 68.1751 46.8254 71.5577 47.1015C71.9371 47.136 72.2595 47.1704 72.2702 47.1704C72.282 47.1823 71.9602 47.3545 71.5458 47.5498C69.9124 48.3668 68.1175 49.3679 66.8754 50.1386C66.5072 50.3683 66.1735 50.553 66.1272 50.553C66.0815 50.553 65.8399 50.5067 65.5869 50.4717L65.1268 50.4028L63.9761 49.2753C62.5772 47.9129 61.17 46.5591 59.7545 45.214L59.156 44.6737ZM58.6959 45.0305L60.318 47.0552C61.2039 48.1715 62.1016 49.264 62.297 49.5056C62.4923 49.7473 62.6532 49.9426 62.6413 49.9545C62.5956 49.9889 60.2948 49.5401 59.0759 49.2646C57.8219 48.9766 57.3041 48.8383 56.5334 48.5966L55.9005 48.3894V48.2291C55.9124 47.4572 56.8903 46.3071 58.5462 45.1344L58.6959 45.0305ZM72.478 47.7915C72.5237 47.7915 72.5813 47.8948 72.719 48.2053C73.1109 49.068 74.3299 51.392 74.6291 51.8408C74.7212 51.9905 74.8821 52.0023 73.26 51.7375C69.3602 51.1046 68.1062 50.8974 68.1062 50.8748C68.1062 50.8629 68.2214 50.7828 68.371 50.702C69.5793 50.0347 70.7983 49.1838 71.8801 48.2748C72.1443 48.0563 72.386 47.8491 72.4323 47.8146C72.4435 47.7915 72.4661 47.7802 72.478 47.7915Z" fill="url(#paint1_linear_2038_851)"/>
<path d="M53.9678 46.8589C53.9678 46.8589 53.7149 47.262 53.9559 47.8605C54.1056 48.2287 54.5426 48.6769 55.0377 49.1371C55.0377 49.1371 60.1565 54.1299 60.7781 54.843C63.6079 58.1104 64.8394 61.3315 64.954 65.7722C65.0234 68.6252 64.4825 71.1332 63.1365 74.0437C60.7437 79.2664 55.6932 85.0305 47.905 91.4264L49.0438 91.0464C49.7801 90.4942 50.7812 89.9081 53.1282 88.6197C58.5462 85.6509 64.6434 82.925 72.1211 80.1172C82.8888 76.0678 100.594 71.3285 110.671 69.7871L111.718 69.6262L111.557 69.3727C110.636 67.9459 110.004 67.0606 109.244 66.1172C107.035 63.3794 104.356 61.1594 101.077 59.3187C96.567 56.7989 90.7346 54.8318 83.3489 53.3711C81.9566 53.0944 78.8964 52.5654 76.4116 52.186C72.2642 51.5479 68.1227 50.873 63.9873 50.1613C62.6413 49.9309 60.6279 49.586 59.2937 49.298C58.6032 49.1484 57.2809 48.8379 56.2454 48.4816C55.4172 48.1592 54.2207 47.8374 53.9672 46.8595L53.9678 46.8589ZM56.936 49.735C56.9472 49.7243 57.1313 49.7932 57.373 49.8734C57.924 50.0585 58.4804 50.2274 59.0414 50.3798C59.5462 50.5187 60.0523 50.6529 60.5596 50.7824C61.2496 50.9546 61.8249 51.1155 61.8362 51.1155C61.9169 51.1962 63.0789 54.9119 63.4702 56.3387C63.6198 56.879 63.735 57.3392 63.7237 57.3392C63.7118 57.351 63.5854 57.1551 63.4357 56.8909C62.0897 54.5212 59.9617 52.1171 57.4994 50.1839C57.1776 49.9541 56.936 49.7469 56.936 49.735ZM62.5956 51.3001C62.6538 51.3001 62.9067 51.3346 63.2172 51.4034C65.1725 51.8404 68.6815 52.5078 70.9241 52.8878C71.3041 52.9454 71.6034 53.0143 71.6034 53.0369C71.6034 53.0606 71.4656 53.1408 71.2928 53.2328C70.9128 53.4281 69.3833 54.3372 68.8769 54.6815C67.6003 55.5336 66.4496 56.4539 65.6213 57.2822C65.2877 57.6159 65.0003 57.8919 65.0003 57.8919C65.0003 57.8919 64.9314 57.696 64.8732 57.4549C64.4594 55.8554 63.5967 53.4857 62.8141 51.8173C62.6876 51.5531 62.5843 51.3114 62.5843 51.2889C62.5843 51.3114 62.5837 51.3001 62.5956 51.3001ZM72.5587 53.1978C72.6276 53.2215 72.7428 53.6122 72.9726 54.4749C73.4041 56.1964 73.59 57.9703 73.5247 59.7439C73.5016 60.2272 73.4784 60.676 73.4553 60.7336L73.4208 60.8482L72.8229 60.6523C71.5921 60.2616 69.5906 59.675 67.8764 59.1917C66.8985 58.9269 66.1047 58.6858 66.1047 58.6632C66.1047 58.5938 67.5314 57.167 68.1412 56.6267C69.3026 55.6024 72.4548 53.1639 72.5587 53.1978ZM73.352 53.3129C73.3864 53.2785 78.115 54.0949 80.2662 54.5094C81.8657 54.8199 84.1891 55.3032 84.3274 55.3608C84.3957 55.3839 84.1547 55.5211 83.3834 55.8673C80.3463 57.2359 78.0919 58.4667 75.8487 59.9624C75.2621 60.3536 74.7669 60.676 74.7562 60.676C74.7443 60.676 74.7324 60.3424 74.7324 59.9398C74.7324 57.7542 74.296 55.5449 73.4903 53.6817C73.4096 53.4976 73.3407 53.3248 73.352 53.3135V53.3129ZM85.5808 55.7295C85.6153 55.7634 85.4662 56.6955 85.3279 57.2477C84.9135 58.9619 83.7978 61.5043 82.4292 63.8971C82.187 64.3229 81.9685 64.6678 81.9453 64.6791C81.9227 64.691 81.6128 64.5182 81.2554 64.311C79.9212 63.5284 78.4024 62.7928 76.7458 62.1022C76.2857 61.9063 75.8831 61.746 75.8718 61.7222C75.7911 61.6539 79.4955 59.2035 81.4507 58.0297C83.0046 57.0862 85.5357 55.6832 85.5808 55.7289V55.7295ZM86.4554 55.8673C86.5588 55.8673 88.6523 56.442 89.7454 56.7644C92.4487 57.5695 95.5552 58.7084 97.5799 59.6287L98.4195 60.0087L97.8329 60.1464C92.8869 61.2852 88.6529 62.5974 84.5685 64.2534C84.2348 64.3917 83.9356 64.5069 83.913 64.5069C83.8904 64.5069 84.005 64.2421 84.1547 63.9203C85.3855 61.3084 86.1793 58.5825 86.3753 56.2579C86.3866 56.0394 86.421 55.8673 86.4554 55.8673ZM65.6101 60.6529C65.6445 60.6184 67.2429 60.9979 68.1062 61.2395C69.4184 61.6076 72.2019 62.5398 72.2019 62.6081C72.2019 62.62 71.8913 62.8848 71.5232 63.2066C70.0163 64.4606 68.5663 65.7835 66.829 67.4632C66.3119 67.9578 65.8749 68.3604 65.8517 68.3604C65.828 68.3604 65.8173 68.2915 65.828 68.1994C66.0928 66.2668 66.0358 63.7819 65.6677 61.2627C65.6326 60.9403 65.5988 60.6642 65.6101 60.6529ZM99.2133 60.6873C99.2359 60.7105 98.4771 61.9063 97.9938 62.5849C97.3038 63.5747 96.2909 64.8863 94.002 67.7624C92.9934 69.0285 91.9887 70.2977 90.9881 71.5702C90.528 72.1455 90.1486 72.6282 90.1361 72.6282C90.1254 72.6282 89.9758 72.4216 89.8143 72.1687C88.5258 70.2354 86.9845 68.5444 85.1551 67.0262C84.8763 66.7902 84.5926 66.56 84.3043 66.3357C84.1772 66.2436 84.0739 66.1516 84.0739 66.1397C84.0739 66.1059 86.0291 65.2657 87.5135 64.6678C90.1141 63.6092 93.6564 62.3439 96.3147 61.5269C97.7064 61.0899 99.1902 60.6642 99.2133 60.6873ZM100.099 60.9171C100.145 60.9058 100.422 61.0442 100.755 61.2395C103.551 62.8385 106.288 64.8982 108.451 67.0143C109.061 67.6128 110.568 69.1774 110.545 69.1886C110.545 69.1886 110.015 69.2349 109.394 69.2807C104.551 69.6488 98.3506 70.6724 92.3917 72.1105C91.9886 72.2025 91.6317 72.2827 91.6092 72.2827C91.5866 72.2827 92.0349 71.8344 92.599 71.2941C96.0962 67.9234 97.6951 65.7954 99.5815 61.9983C99.8463 61.4354 100.076 60.9515 100.099 60.9171C100.087 60.9171 100.087 60.9171 100.099 60.9171ZM74.4795 63.5403C74.6404 63.5747 76.1361 64.2765 77.2636 64.8406C78.2991 65.3578 79.8523 66.186 79.9325 66.2555C79.9444 66.2668 79.3922 66.5542 78.7129 66.8885C76.685 67.8966 74.7007 68.9903 72.7653 70.1665C72.2132 70.5002 71.753 70.7763 71.7417 70.7763C71.6954 70.7763 71.7073 70.73 72.0178 70.1665C73.0533 68.2802 73.8816 66.0251 74.353 63.8277C74.3987 63.6555 74.4451 63.5403 74.4795 63.5403ZM72.9838 63.8164C73.0183 63.8508 72.6276 65.2657 72.3859 66.037C71.9139 67.4976 71.1201 69.3264 70.3494 70.7074C70.1653 71.0293 69.8892 71.5013 69.7396 71.7655L69.4522 72.2257L68.808 71.6046C68.0599 70.8802 67.4507 70.4314 66.6687 70.0282C66.3576 69.8679 66.1159 69.7295 66.1159 69.7064C66.1159 69.6144 68.0836 67.8313 69.5906 66.5429C70.6712 65.6107 72.9494 63.7819 72.9838 63.8164ZM82.13 67.5784L82.694 67.9465C83.9825 68.7867 85.5007 69.9023 86.6627 70.8796C87.3182 71.42 88.5834 72.5599 88.837 72.8354L88.9747 72.9851L88.0425 73.2499C82.7742 74.7105 78.7017 76.0108 73.9505 77.7594C73.4208 77.9554 72.9726 78.1157 72.9381 78.1157C72.8692 78.1157 72.8117 78.1733 73.9968 77.0802C77.0338 74.2854 79.7253 71.202 81.7274 68.1994L82.13 67.5784ZM79.7253 68.1763C79.749 68.1994 78.1726 70.4195 77.2292 71.6735C76.1016 73.1691 74.1001 75.6771 72.719 77.3105C72.1443 77.9898 71.6503 78.5533 71.6265 78.5645C71.5921 78.5764 71.5802 78.4042 71.5802 78.1388C71.5802 76.7471 71.224 75.2627 70.6029 73.9974C70.3381 73.4684 70.2918 73.3419 70.35 73.2843C70.5685 73.0884 73.916 71.1789 76.0322 70.0401C77.4595 69.2807 79.6908 68.1537 79.7253 68.1763ZM65.1843 71.7429C65.2188 71.7429 65.483 71.8807 65.7828 72.0416C66.4829 72.4232 67.1453 72.8701 67.7612 73.3764C67.7844 73.3989 67.4851 73.6412 67.0938 73.9285C66.0013 74.7105 64.3448 75.9651 63.3782 76.7358C62.3658 77.5409 62.3314 77.5635 62.446 77.3913C63.206 76.2293 63.5854 75.5738 63.9879 74.7337C64.3583 73.9524 64.6809 73.1493 64.954 72.329C65.046 71.9965 65.1612 71.7429 65.1843 71.7429ZM69.0615 74.7794C69.1185 74.7687 69.188 74.872 69.4979 75.3322C70.1534 76.3101 70.6599 77.6217 70.7864 78.6797L70.8101 78.9095L69.2337 79.5199C66.4152 80.6124 63.8152 81.6936 62.0553 82.4993C61.4123 82.8008 60.7718 83.1076 60.1339 83.4196C59.5698 83.707 59.1103 83.9255 59.1103 83.9142C59.1103 83.903 59.4665 83.6381 59.9035 83.3157C63.3437 80.8196 66.3232 78.0812 68.5551 75.3434C68.7967 75.0561 69.0152 74.7913 69.0378 74.78L69.0615 74.7794ZM67.2779 75.217C67.3242 75.2627 66.0126 76.7471 65.1155 77.6561C62.8948 79.9219 60.698 81.6936 57.9715 83.419C57.6259 83.6375 57.3154 83.8335 57.2809 83.856C57.2008 83.9024 57.3035 83.7872 58.5005 82.4875C59.2021 81.7343 59.8663 80.9473 60.4907 80.1291C60.9277 79.565 61.0079 79.4849 61.6408 79.0366C63.3324 77.8164 67.2322 75.1713 67.2779 75.217Z" fill="url(#paint2_radial_2038_851)"/>
<defs>
<linearGradient id="paint0_linear_2038_851" x1="53.7418" y1="107.417" x2="59.2427" y2="104.167" gradientUnits="userSpaceOnUse">
<stop stop-color="#909CA9"/>
<stop offset="1" stop-color="#EDEDEE"/>
</linearGradient>
<linearGradient id="paint1_linear_2038_851" x1="53.8679" y1="46.1393" x2="58.294" y2="46.1393" gradientUnits="userSpaceOnUse">
<stop stop-color="#939FAB"/>
<stop offset="1" stop-color="#DCDEE1"/>
</linearGradient>
<radialGradient id="paint2_radial_2038_851" cx="0" cy="0" r="1" gradientUnits="userSpaceOnUse" gradientTransform="translate(76.2514 66.5178) rotate(-171.408) scale(5.7113 11.4234)">
<stop stop-color="#EE352C"/>
<stop offset="1" stop-color="#A91D22"/>
</radialGradient>
</defs>
</svg>
