<svg width="168" height="150" viewBox="0 0 168 150" fill="none" xmlns="http://www.w3.org/2000/svg">
<rect x="0.5" y="0.5" width="167" height="149" rx="19.5" fill="white" stroke="#CFCFCF"/>
<path fill-rule="evenodd" clip-rule="evenodd" d="M97.4604 65.2539C98.4259 68.047 99.1213 70.8984 99.3499 73.8538C99.6339 77.5204 99.5039 81.161 98.7309 84.7674C98.7099 84.8666 98.6653 84.9599 98.6323 85.0561C98.3898 85.0567 98.1426 85.0267 97.9056 85.0634C95.903 85.378 93.9022 85.704 91.9014 86.0283C89.8332 86.3633 87.762 86.6852 85.6975 87.0431C84.966 87.1694 84.0606 87.0184 83.7652 88.0303C83.7568 88.0579 83.6726 88.0627 83.6239 88.0784L83.7237 82.0321L83.6221 67.443L84.5858 67.2776C86.1619 67.0195 87.738 66.7578 89.3153 66.507C91.1975 66.208 93.0816 65.9174 94.9651 65.6257C95.7959 65.4963 96.6279 65.3778 97.4604 65.2539Z" fill="#439934"/>
<path fill-rule="evenodd" clip-rule="evenodd" d="M81.6339 105.704C80.6173 104.83 79.5651 103.995 78.5906 103.075C73.3468 98.1293 69.5112 92.308 67.6223 85.2896C67.102 83.358 66.7549 81.3951 66.6436 79.3991C66.5654 78.0023 66.4523 76.5928 66.5509 75.2032C66.8138 71.5072 67.348 67.8467 68.432 64.2866L68.4916 64.2036C68.5968 64.3438 68.7484 64.4677 68.802 64.6259C69.8599 67.742 70.9111 70.8603 71.9554 73.9808C75.2387 83.7863 78.5178 93.5942 81.8066 103.397C81.8709 103.589 82.0376 103.746 82.1573 103.918L81.6339 105.704Z" fill="#45A538"/>
<path fill-rule="evenodd" clip-rule="evenodd" d="M97.4604 65.2541C96.6278 65.378 95.7953 65.4965 94.9645 65.6247C93.081 65.9164 91.1969 66.207 89.3146 66.5059C87.7373 66.7568 86.1612 67.0185 84.5851 67.2765L83.6214 67.442L83.6142 66.8133C83.5823 66.2966 83.5276 65.7805 83.5216 65.2637C83.4801 61.9684 83.4542 58.673 83.4133 55.3776C83.388 53.3149 83.3501 51.2527 83.308 49.1906C83.2822 47.9092 83.2545 46.6273 83.1967 45.3478C83.1655 44.6602 83.0548 43.9762 83.0097 43.2886C82.9844 42.8934 83.0193 42.4952 83.0271 42.0981C83.5186 43.0504 83.9992 44.0099 84.5045 44.955C85.3028 46.4492 86.5745 47.5501 87.7193 48.7514C92.2448 53.499 95.4578 59.0189 97.4604 65.2541Z" fill="#46A037"/>
<path fill-rule="evenodd" clip-rule="evenodd" d="M83.6232 88.078C83.6719 88.0623 83.7567 88.0575 83.7645 88.0299C84.0599 87.018 84.9653 87.169 85.6968 87.0427C87.7613 86.6854 89.8325 86.3629 91.9007 86.0279C93.9015 85.7036 95.9023 85.3776 97.9049 85.063C98.1419 85.0257 98.3891 85.0563 98.6316 85.0557C98.2574 86.3912 97.9626 87.7555 97.488 89.0543C96.949 90.5275 96.2969 91.9653 95.6045 93.3747C94.5686 95.4774 93.2857 97.449 91.7828 99.2478C90.6284 100.636 89.3416 101.919 88.0519 103.187C87.339 103.888 86.4986 104.459 85.7166 105.088L85.5139 104.95L84.7836 104.326L84.028 102.669C83.5119 100.738 83.2304 98.7505 83.1895 96.7513L83.2033 96.4138L83.3062 94.9544C83.3404 94.4564 83.3862 93.9589 83.4072 93.4596C83.4848 91.6657 83.5522 89.8718 83.6232 88.078Z" fill="#409433"/>
<path fill-rule="evenodd" clip-rule="evenodd" d="M83.6232 88.078C83.5522 89.8719 83.4849 91.6657 83.4085 93.4602C83.3874 93.9595 83.3417 94.457 83.3074 94.9551L82.8472 95.1289C81.8252 92.1199 80.8025 89.1428 79.8021 86.1578C78.1478 81.2196 76.5134 76.2735 74.8615 71.3341C73.5273 67.3472 72.1838 63.3635 70.831 59.3829C70.7678 59.1964 70.5862 59.0508 70.4598 58.886L73.4051 53.4707C73.5062 53.6464 73.6397 53.8106 73.7035 53.9995C75.0675 58.0312 76.4247 62.0653 77.7748 66.1017C79.529 71.3534 81.2723 76.6092 83.0253 81.8614C83.0951 82.0714 83.2106 82.2651 83.3206 82.5003L83.7237 82.0311L83.6232 88.078Z" fill="#4FAA41"/>
<path fill-rule="evenodd" clip-rule="evenodd" d="M70.4604 58.8867C70.5867 59.0515 70.7678 59.1971 70.8315 59.3836C72.1843 63.3642 73.5278 67.348 74.862 71.3348C76.5139 76.2743 78.1483 81.2203 79.8026 86.1586C80.8024 89.1429 81.8251 92.1206 82.8478 95.1297L83.3079 94.9558L83.2051 96.4152L83.1118 96.7515C82.9518 98.3492 82.8171 99.9506 82.6222 101.545C82.5241 102.344 82.316 103.128 82.1578 103.919C82.0387 103.746 81.8714 103.589 81.807 103.398C78.5183 93.5945 75.2392 83.7872 71.9559 73.9817C70.9113 70.8612 69.8602 67.7429 68.8025 64.6268C68.7489 64.4686 68.5979 64.3447 68.4921 64.2045L70.4604 58.8867Z" fill="#4AA73C"/>
<path fill-rule="evenodd" clip-rule="evenodd" d="M83.723 82.0315L83.32 82.5007C83.2099 82.2655 83.0944 82.0712 83.0246 81.8619C81.2723 76.6096 79.5283 71.3538 77.7742 66.1021C76.424 62.0657 75.0669 58.0316 73.7028 53.9999C73.6396 53.811 73.5061 53.6462 73.4044 53.4711L77.0469 48.6797C77.1618 48.8331 77.3254 48.9696 77.385 49.1423C78.3956 52.1028 79.3988 55.0661 80.3946 58.0322C81.3252 60.8018 82.242 63.5756 83.1834 66.3416C83.2466 66.5268 83.4662 66.658 83.6129 66.8144L83.6202 67.443C83.655 72.3053 83.6893 77.1681 83.723 82.0315Z" fill="#57AE47"/>
<path fill-rule="evenodd" clip-rule="evenodd" d="M83.6142 66.8134C83.4674 66.657 83.2478 66.5259 83.1846 66.3406C82.2432 63.5746 81.3264 60.8008 80.3958 58.0312C79.4 55.0655 78.3968 52.1022 77.3862 49.1413C77.3266 48.9687 77.163 48.8321 77.0481 48.6787C78.2326 47.5189 79.3804 46.3176 80.6124 45.2113C81.7078 44.2284 82.5885 43.1744 82.6288 41.6212C82.6306 41.5568 82.6643 41.4925 82.716 41.312L83.0282 42.0977C83.0204 42.4953 82.9849 42.8929 83.0108 43.2881C83.0559 43.9757 83.1666 44.6597 83.1979 45.3473C83.2556 46.6268 83.2833 47.9087 83.3092 49.1901C83.3507 51.2522 83.3886 53.3144 83.4144 55.3771C83.4547 58.6725 83.4812 61.9679 83.5227 65.2632C83.5275 65.7812 83.5817 66.2967 83.6142 66.8134Z" fill="#60B24F"/>
<path fill-rule="evenodd" clip-rule="evenodd" d="M82.1567 103.918C82.3149 103.127 82.523 102.342 82.6211 101.544C82.8166 99.9504 82.9507 98.3484 83.1107 96.7506L83.1504 96.7446L83.1901 96.7512C83.2311 98.7505 83.5126 100.738 84.0287 102.669C83.9228 102.809 83.7731 102.934 83.7171 103.091C83.2798 104.324 82.8677 105.567 82.428 106.8C82.3678 106.969 82.2006 107.1 82.0827 107.248L81.6333 105.704L82.1567 103.918Z" fill="#A9AA88"/>
<path fill-rule="evenodd" clip-rule="evenodd" d="M82.0833 107.248C82.2012 107.1 82.369 106.969 82.4285 106.801C82.8683 105.568 83.281 104.325 83.7177 103.092C83.7736 102.934 83.9228 102.809 84.0293 102.67L84.7843 104.327C84.6351 104.538 84.4293 104.729 84.3463 104.965L82.9002 109.211C82.8406 109.382 82.6373 109.502 82.5013 109.646L82.0833 107.248Z" fill="#B6B598"/>
<path fill-rule="evenodd" clip-rule="evenodd" d="M82.5013 109.645C82.6379 109.502 82.8406 109.381 82.9002 109.211L84.3463 104.964C84.4287 104.729 84.6351 104.538 84.7843 104.326L85.5152 104.95C85.1621 105.299 84.9659 105.702 85.0838 106.211L84.8619 106.938C84.7608 107.063 84.6146 107.171 84.5647 107.314C84.06 108.759 83.5781 110.212 83.0698 111.658C83.0054 111.841 82.8268 111.985 82.7005 112.146C82.6347 111.313 82.5683 110.479 82.5013 109.645Z" fill="#C2C1A7"/>
<path fill-rule="evenodd" clip-rule="evenodd" d="M82.701 112.146C82.8267 111.984 83.0054 111.841 83.0703 111.658C83.5787 110.213 84.0605 108.76 84.5652 107.313C84.6152 107.171 84.7607 107.063 84.8624 106.938L84.5562 110.274C84.4744 110.368 84.3559 110.451 84.3168 110.561C83.9709 111.532 83.6448 112.51 83.2977 113.481C83.2261 113.681 83.089 113.858 82.9819 114.045C82.8869 113.92 82.7166 113.8 82.7088 113.67C82.6781 113.164 82.6992 112.655 82.701 112.146Z" fill="#CECDB7"/>
<path fill-rule="evenodd" clip-rule="evenodd" d="M82.9813 114.045C83.0884 113.857 83.2256 113.681 83.2971 113.481C83.6448 112.511 83.9703 111.532 84.3162 110.561C84.3553 110.451 84.4744 110.369 84.5556 110.274L84.5628 112.464L83.8301 114.343L82.9813 114.045Z" fill="#DBDAC7"/>
<path fill-rule="evenodd" clip-rule="evenodd" d="M83.8302 114.344L84.5629 112.464L84.7139 114.688L83.8302 114.344Z" fill="#EBE9DC"/>
<path fill-rule="evenodd" clip-rule="evenodd" d="M85.0838 106.212C84.9659 105.703 85.1614 105.299 85.5151 104.951L85.7179 105.089L85.0838 106.212Z" fill="#CECDB7"/>
<path fill-rule="evenodd" clip-rule="evenodd" d="M83.1901 96.7519L83.1504 96.7453L83.1107 96.7513L83.204 96.415L83.1901 96.7519Z" fill="#4FAA41"/>
</svg>
