<svg width="167" height="150" viewBox="0 0 167 150" fill="none" xmlns="http://www.w3.org/2000/svg">
<rect x="0.5" y="0.5" width="166" height="149" rx="19.5" fill="white" stroke="#CFCFCF"/>
<path d="M129.335 112.038C129.255 111.806 129.212 111.563 129.21 111.317C129.21 110.737 128.762 109.971 128.099 109.422C127.707 109.073 127.36 108.679 127.064 108.246C126.537 107.458 125.964 107.147 123.86 106.502C121.551 105.804 120.842 105.202 120.637 103.764L120.531 103.044L120.11 103.658C119.287 104.849 118.745 105.038 117.626 104.527C116.917 104.201 116.402 104.17 115.814 104.42C115.435 104.58 115.366 104.572 115.124 104.352C114.858 104.117 114.836 104.113 114.464 104.333C114.172 104.508 113.933 104.542 113.49 104.474C112.78 104.367 112.401 104.576 111.927 105.327C111.029 106.752 110.388 106.1 110.392 103.764C110.396 101.171 111.616 99.6998 115.135 98.0542C116.948 97.2087 117.767 96.6589 118.275 95.9574C118.661 95.4152 118.695 95.3963 118.866 95.6276C119.226 96.1205 120.466 98.6609 121.061 100.117C121.736 101.778 121.941 102.089 122.195 101.831C122.411 101.615 121.888 100.087 120.872 97.9632C118.354 92.6928 114.631 88.9239 109.986 86.9409C107.851 86.0309 106.801 85.8337 104.033 85.8413C101.933 85.8413 101.417 85.8906 99.9912 86.1901C97.9133 86.6337 95.5891 87.3769 92.624 88.5485C89.6361 89.7277 89.6361 89.7277 86.6256 88.6509C85.554 88.2635 84.4703 87.9107 83.3761 87.593C82.2158 87.2973 80.502 87.248 79.5389 87.4793C78.4318 87.7447 76.8696 88.5789 74.951 89.9325C72.6495 91.5553 71.4096 92.1961 69.7602 92.6246C68.3308 92.9962 67.7279 93.3222 67.3715 93.9024C67.0871 94.3687 67.0606 94.7441 67.2767 95.2143C67.4246 95.5404 68.8313 96.5679 70.4806 97.5537C70.9281 97.8192 71.3262 98.0959 71.3679 98.1604C71.4627 98.3159 69.2294 99.4306 67.599 100.037C64.7021 101.122 61.5854 101.808 56.8875 102.396C53.7556 102.786 53.2248 102.896 50.8853 103.628C49.8982 103.937 48.8989 104.205 47.8899 104.432C44.7238 105.088 41.8573 104.31 41.4213 102.676C41.3611 102.413 41.2545 102.163 41.1066 101.937C40.5265 101.273 40.3103 99.6771 40.6857 98.8088C40.8983 98.1035 41.0593 97.3837 41.1673 96.6551C41.7095 93.4474 42.2593 91.7108 43.4423 89.4699C45.5239 85.5417 49.6606 80.5595 54.6694 75.945C57.9795 72.8965 61.1266 70.5533 68.399 65.7113C72.8959 62.7235 72.9376 62.6818 73.4571 61.2409C73.5708 60.9224 74.1282 58.8598 74.6932 56.6568C76.4601 49.8015 77.59 47.2156 79.6944 45.2287C80.8812 44.1102 82.7694 43.4087 83.869 43.6893C84.4946 43.8448 84.5288 44.1557 84.0965 45.8961C83.3685 48.8005 83.1258 50.6357 83.1183 53.2254C83.1107 55.7809 83.2699 56.7706 83.8766 57.9649C84.7108 59.6105 85.2681 59.929 88.5328 60.5964C100.067 62.9586 107.764 66.5114 113.232 71.9979C118.297 77.0787 122.423 85.0337 125.111 94.8806L125.619 96.7575L126.597 97.5044C129.096 99.4192 130.491 101.345 131.238 103.893C131.633 105.247 131.572 108.114 131.113 109.808C130.628 111.613 130.211 112.372 129.706 112.372C129.562 112.372 129.407 112.231 129.335 112.038ZM129.547 108.25C129.597 108.06 129.604 107.257 129.562 106.457C129.441 103.916 128.656 102.096 126.859 100.2C125.479 98.7405 122.976 96.9812 122.282 96.9812C122.017 96.9812 122.002 97.0305 122.07 97.6106C122.112 97.9519 122.389 98.877 122.684 99.6581C122.98 100.439 123.257 101.353 123.299 101.69C123.363 102.233 123.329 102.35 123.033 102.646C122.627 103.052 122.244 103.071 121.661 102.714C121.418 102.566 121.194 102.475 121.156 102.509C121.122 102.547 121.134 102.813 121.183 103.101C121.361 104.151 121.971 104.576 124.315 105.27C127.746 106.286 128.448 106.749 128.994 108.364C129.107 108.705 129.452 108.637 129.547 108.25ZM47.8065 103.423C48.4093 103.317 49.6113 103.006 50.4796 102.726C52.3489 102.134 53.7783 101.838 57.7331 101.216C62.3741 100.492 64.2396 100.106 66.3098 99.4458C67.6217 99.0249 68.8237 98.4865 68.8161 98.3159C68.8161 98.2628 68.4256 97.986 67.9554 97.6978C67.4852 97.4097 66.6018 96.693 65.9951 96.1053C65.3884 95.51 64.8348 95.0247 64.7666 95.0247C64.4367 95.0247 63.6101 95.4873 62.5674 96.2532C59.572 98.4524 58.5255 98.8846 53.7556 99.9008C51.3896 100.405 50.5516 100.693 49.4445 101.372C47.9164 102.308 47.5865 102.464 46.5818 102.722C45.9355 102.878 45.2747 102.966 44.6101 102.983C43.2489 102.983 43.0972 103.408 44.3826 103.632C45.1371 103.768 46.305 103.696 47.8065 103.423ZM112.792 103.158C113.01 102.963 113.258 102.805 113.527 102.691L114.089 102.445L115.291 102.809C116.796 103.264 118.768 103.332 119.302 102.945L120.068 102.388C120.333 102.195 120.606 102.096 120.751 102.142C120.883 102.18 120.993 102.199 120.993 102.172C120.993 102.039 119.15 97.823 118.976 97.5575L118.768 97.2428L118.112 97.7623C117.751 98.0467 116.527 98.8391 115.393 99.5216C112.477 101.273 111.563 102.164 111.783 103.048C111.848 103.298 111.95 103.374 112.238 103.374C112.443 103.374 112.693 103.275 112.792 103.158ZM57.862 95.6465C58.1259 95.5248 58.364 95.3536 58.5634 95.1422C59.1094 94.2322 56.9254 94.3308 56.3377 95.2408C56.1823 95.4797 56.186 95.5442 56.368 95.7299C56.66 96.0219 57.1833 95.9916 57.862 95.6465ZM61.9721 92.7952C63.3751 92.416 64.778 91.9572 65.2102 91.7297C66.1088 91.2558 66.871 90.433 67.417 89.3524C67.6331 88.9239 68.0388 88.3589 68.3156 88.1011C68.5924 87.8433 68.8199 87.5362 68.8199 87.4186C68.8199 86.4062 65.3316 85.9437 63.0831 86.6603C60.3531 87.5324 57.752 90.3079 57.6913 92.4122C57.6534 93.7014 58.3587 93.7659 61.9721 92.7914M115.51 88.8102C115.51 88.5751 114.642 87.4186 114.032 86.8385C112.834 85.7048 111.616 85.0109 109.266 84.1199C107.87 83.589 107.294 83.2629 107.294 83.0051C107.294 82.9444 107.411 82.7776 107.559 82.6373C108.291 81.9017 111.798 82.8042 114.271 84.3625C115.249 84.9768 116.364 85.8451 117.293 86.7134C118.005 87.3807 118.123 87.4489 118.123 87.2025C118.123 86.8082 117.478 85.6289 116.69 84.5787C114.722 81.9624 111.525 79.9187 107.946 79.0049C105.054 78.2617 102.539 78.2188 100.401 78.876C98.4214 79.4827 96.1237 80.9121 93.8183 82.971C90.5689 85.8754 89.6096 86.6868 88.7754 87.2101C88.2787 87.5286 87.8882 87.8433 87.9071 87.9153C87.9261 87.9874 88.3053 88.1542 88.7413 88.2945L89.5376 88.5485L91.4713 87.6575C95.3009 85.8982 98.812 84.7682 101.428 84.4497C105.417 83.9644 109.884 85.227 113.884 87.9684C115.101 88.8064 115.51 89.0187 115.51 88.8102ZM80.1683 99.8439C76.062 99.3358 72.1831 97.9026 69.0171 95.7186C68.2966 95.2257 68.0957 95.0095 68.0616 94.7214C67.9781 94.0009 68.6379 93.5725 70.4238 93.1933C71.9935 92.8634 73.0324 92.3364 75.406 90.6681C78.6176 88.412 79.8878 87.9002 81.9808 88.0139C82.959 88.067 83.5733 88.2338 86.8189 89.3182C91.6874 90.9411 96.8479 92.78 97.2346 93.0303C98.1257 93.5952 96.5901 95.6844 94.1823 97.1859C92.3623 98.3197 89.9698 99.2069 87.509 99.6619C86.1478 99.9122 81.6319 100.026 80.1683 99.8439ZM49.835 79.5926C49.7819 79.4599 49.7743 78.8115 49.816 78.1556C49.9943 75.2663 51.5678 72.0017 53.7063 70.0679C54.5253 69.3248 55.8296 68.5513 56.2657 68.5513C56.6941 68.5513 56.9596 68.9987 57.2818 70.2575C57.4487 70.9211 57.7141 71.6339 57.8658 71.8425C58.0174 72.051 58.1312 72.2406 58.1046 72.2595L56.7548 73.3364C55.0031 74.7279 52.5764 76.9688 51.1204 78.5423C50.1232 79.6154 49.9108 79.7936 49.835 79.5926Z" fill="black"/>
</svg>
