<svg width="168" height="150" viewBox="0 0 168 150" fill="none" xmlns="http://www.w3.org/2000/svg">
<rect x="0.5" y="0.5" width="167" height="149" rx="19.5" fill="white" stroke="#CFCFCF"/>
<path d="M56.157 33.9028C54.9985 34.6588 53.882 35.7403 52.678 36.9723C50.6865 39.0338 49.3635 41.0463 47.337 42.5373C46.931 42.8873 45.7935 43.4473 44.362 43.5313C43.69 43.5663 43.249 43.6783 42.01 43.5208C40.918 42.9293 39.882 43.3143 38.8705 44.5253C37.761 46.1213 36.3505 49.1523 35.7695 51.0633C34.562 55.9283 37.635 59.9393 40.582 63.0333C43.2035 65.5883 44.712 67.1913 45.79 69.5398C46.6055 71.0623 47.2075 73.1518 47.862 74.6148C48.0965 75.0803 48.0475 75.0768 48.6845 75.2168C50.0495 75.5108 51.9535 75.5108 53.644 75.6578C54.3755 75.6683 55.38 75.6403 56.332 75.5423C57.6445 75.2938 59.1845 75.0523 60.4795 74.6043C61.7395 74.2893 62.8665 73.8623 63.878 73.4668C63.7485 73.9078 62.7825 74.3383 62.422 74.9018C59.055 79.7178 58.082 84.0193 58.607 90.6868L58.579 90.6623L58.6175 90.8373L58.6385 91.1068C58.978 94.1658 59.6815 96.7068 60.7385 99.6118C61.3876 101.312 62.2296 102.933 63.248 104.442C63.5024 104.797 63.78 105.158 64.081 105.527H64.074L64.0915 105.541C67.3465 109.496 73.5625 114.116 81.9345 115.992C83.534 116.209 85.347 116.093 87.055 115.642C91.577 114.27 100.793 111.025 100.793 111.025C100.793 111.025 92.613 111.704 88.8645 111.333C87.9965 111.197 87.0445 111.151 86.439 110.56C86.334 110.43 85.9665 109.685 86.2045 109.681C86.53 109.671 87.4645 109.286 88.8995 109.156C85.83 108.827 85.872 108.831 85.648 108.271C85.2214 107.217 84.7437 106.184 84.2165 105.177C85.5675 105.292 88.5565 105.457 89.568 104.414C89.568 104.414 87.8005 104.617 86.2395 104.435C85.6624 104.323 85.0958 104.162 84.5455 103.955C83.8455 103.679 83.268 103.595 83.1315 103.416C82.8865 102.797 82.7255 102.59 82.4315 101.761C82.0325 100.658 82.001 99.4333 81.924 98.3098C82.946 99.5698 84.248 100.63 85.9735 101.173C85.9945 101.127 88.2065 102.135 89.8165 101.617L90.1245 101.516C89.967 101.547 89.05 101.586 88.693 101.411C85.424 100.018 84.9305 98.8033 84.402 98.1978L82.9915 96.0838C83.422 95.2263 83.6635 95.1948 84.234 95.1878C85.9525 95.3768 86.7015 95.5238 87.748 95.2718C88.4585 96.7278 88.6475 98.1943 90.261 99.2513C95.6265 100.847 96.792 98.7788 98.0905 96.9553C101.955 99.7903 108.241 100.662 112.605 97.0043C118.156 90.5818 119.913 80.4563 119.42 79.8788C118.727 78.7028 117.82 77.4883 117.04 77.6563C114.254 78.4158 113.225 79.8263 110.47 79.5078C110.799 79.4868 111.352 79.4798 111.356 79.4483C111.566 77.1138 111.338 75.9833 111.237 75.7873C110.397 73.9428 109.298 72.0003 108.535 70.5443C108.335 70.2433 107.754 67.9473 106.785 67.0443C106.365 66.6873 105.35 65.7493 105.35 65.7493L105.259 66.7468C105.259 66.7468 105.658 66.8063 105.812 67.4223C106.088 68.5493 106.907 70.4113 107.709 72.0773H106.414L107.898 72.4623C108.696 74.0898 109.427 75.4443 109.532 75.5703C110.208 76.6623 110.05 77.9258 110.075 79.0003L109.69 79.1928C109.63 77.9293 108.272 78.0203 107.128 78.0098L106.19 77.7788C106.477 78.0448 107.359 78.0238 107.002 78.5943C106.701 78.7553 106.564 79.4413 106.393 80.0188L105.885 80.0433C106.781 80.3933 107.614 80.7013 108.601 81.1143L109.098 81.1878L108.601 82.4373L107.926 82.1643L107.901 81.6918C106.711 81.2158 104.419 81.0163 104.335 81.1143C103.488 81.9438 102.872 82.9483 102.203 83.9143C103.12 83.2003 103.813 82.1223 105.049 81.8248C105.147 81.8143 106.372 82.0523 107.037 82.1678C106.61 82.2553 105.917 82.2868 105.812 82.4373C104.87 83.5993 104.181 85.0133 103.372 86.3048C104.489 85.1533 104.828 83.9738 106.722 82.8573C106.879 82.7523 108.034 82.7768 108.598 83.0603C108.419 83.7008 108.013 84.4638 107.688 85.1848C107.222 86.2803 106.337 87.2883 105.658 88.3418C107.786 85.7518 107.18 86.7003 108.601 85.0308C109.196 83.6168 109.791 82.0908 110.341 80.5823L110.446 80.5263C110.635 80.6418 112.091 80.4983 113.228 80.5683C115.185 80.1483 115.101 79.2838 116.791 79.1543C117.929 79.0668 118.044 81.2053 118.027 81.3733C117.747 83.9993 117.062 86.5661 115.997 88.9823C113.715 93.3853 111.156 97.3403 107.527 97.8898C103.099 98.6633 100.8 96.7278 98.3985 95.4958L97.4815 96.2798C94.363 99.3843 90.66 99.1078 89.1445 95.0513L89.134 95.0303C89.0335 94.8227 88.9261 94.6184 88.812 94.4178C88.3675 93.5568 87.937 92.6853 87.405 91.8838C82.722 88.1808 84.885 84.8068 86.131 82.6718C83.527 82.0138 80.076 80.6138 79.6 78.7763C78.8335 72.8263 79.222 70.9363 79.985 67.8808C76.499 68.6158 72.964 69.3473 69.2155 70.5968L69.212 70.5688C68.211 70.7928 64.851 72.0248 63.899 72.5393C61.7395 73.1658 59.944 73.8203 57.1895 74.5098C56.3142 74.6182 55.4288 74.6158 54.554 74.5028C52.573 74.2333 49.1955 74.4748 48.9785 74.2753C47.638 72.4028 47.2705 69.0498 46.0455 67.2543L46.0315 67.2368L46.014 67.2228C45.3035 66.2603 44.4705 65.4798 43.6515 64.6678C40.715 61.7453 38.2055 58.9243 37.502 55.9388C37.327 55.0568 36.872 54.1433 37.11 51.5358L37.117 51.5218L37.1205 51.5113C37.8275 49.0718 38.9755 47.0838 40.925 45.0923C42.955 45.1273 44.9605 45.1693 46.525 45.4703C47.2425 45.5893 48.7335 45.7853 50.2735 46.3593C54.176 47.8118 59.328 50.1988 59.328 50.1988C55.4605 48.0743 51.138 45.3163 48.4045 44.7598C47.995 44.7003 47.7465 44.5148 47.6275 44.1928C51.733 41.7778 52.4855 38.9358 55.1875 36.3878C56.423 35.8488 56.9025 35.5758 57.9525 35.4603C67.6615 36.9968 73.7725 40.8608 78.6025 43.4473C80.5625 44.5113 82.3475 45.3198 84.052 46.2893C85.543 46.7793 90.0475 50.1848 91.367 52.0188C92.7075 54.8433 93.684 57.8988 94.5765 60.8458C95.217 63.8453 95.777 65.0598 95.777 65.0598C95.777 65.0598 95.2345 62.5538 95.322 62.1023C95.889 62.3123 97.219 62.7323 97.772 62.6623C97.772 62.6623 95.3045 61.3883 94.9825 60.2613C93.9465 56.6458 92.9035 51.0178 92.6235 50.7238C91.8325 49.7298 88.5355 47.2063 86.5125 46.0373C85.7495 45.5963 85.3365 45.3233 85.305 45.1273C85.949 44.4763 86.747 43.6118 87.4645 43.0623C88.147 42.5373 88.7735 41.9423 89.729 41.5923C93.929 39.6988 96.33 42.3168 96.904 41.7883C96.904 41.7883 95.9975 40.7523 96.4 40.9238C96.8095 41.1443 98.15 41.4068 98.297 41.5433C99.8265 42.7403 103.831 47.1188 106.242 51.7388C106.823 52.8693 107.058 53.6148 106.788 54.9763C106.519 56.3413 106.312 57.0903 106.018 58.0003C105.752 58.6093 104.251 62.7778 104.258 63.3378C103.953 65.6233 105.238 68.4863 105.238 68.4863C105.248 67.7093 105.189 67.2963 105.259 66.7398L105.346 65.7458C105.346 65.7458 105.29 65.4833 105.301 65.3783C105.367 64.6923 105.535 64.1148 105.584 63.7193C106.067 60.7338 106.904 58.5848 107.859 55.9633C108.139 55.3018 108.507 54.9343 108.489 54.4303C108.507 53.5378 107.705 52.3373 107.128 51.1648C106.48 49.8221 105.747 48.5221 104.933 47.2728C102.847 44.2733 101.073 41.9283 97.8175 40.4583C96.9075 40.0593 93.3235 39.6673 92.0845 39.8983C90.583 40.2133 89.295 40.5213 88.2625 41.1828C86.6455 42.2188 85.3715 43.8253 83.8805 44.7703C80.5765 43.1183 78.9805 41.8828 78.6865 41.7113C76.723 40.6613 74.3675 39.4398 71.8335 38.2813C70.6155 37.1578 63.0695 34.4453 56.157 33.9063V33.9028ZM90.1245 101.516C90.1409 101.516 90.149 101.513 90.149 101.509L90.1245 101.516ZM96.974 44.5988C97.149 45.5088 97.2925 46.4083 97.9785 47.5528C99.4485 49.1733 99.977 50.3178 100.184 50.8253C100.901 52.6663 101.475 54.5073 102 56.3483C101.825 54.4303 101.171 52.3723 100.905 50.5383C100.754 49.6983 97.5655 44.6583 96.974 44.5988ZM72.201 53.3838C75.8795 54.3183 81.3325 54.3428 83.989 55.9843C84.0275 56.1278 83.919 56.2223 83.758 56.2993C83.1035 56.2083 82.456 56.0298 81.763 56.1943C80.748 56.5198 79.845 57.1358 78.886 57.6153C81.525 57.0763 82.2635 57.7098 84.269 57.8778C86.439 58.7038 87.7165 62.6903 89.148 63.8138C87.825 60.9193 86.9885 56.6038 84.4055 54.3148C81.196 53.2858 76.471 53.5273 72.201 53.3838ZM96.6555 70.5898C95.87 70.5791 95.0858 70.6566 94.3175 70.8208C93.7575 71.5733 93.7225 72.3363 93.4775 73.0433C95.1435 71.2058 95.805 71.0938 98.472 70.7123C97.8687 70.632 97.2642 70.5911 96.6555 70.5898ZM69.401 71.8673C71.137 78.3773 74.707 84.9328 78.256 90.9073C79.621 92.6433 79.9955 93.4203 82.0605 94.4703C81.8902 94.8343 81.7012 95.273 81.4935 95.7863C77.5315 93.8298 74.259 91.4743 70.9655 89.1013C65.6735 85.2373 64.3505 80.6383 63.423 74.6253C63.5359 74.4721 63.6788 74.3435 63.843 74.2473C65.5288 73.1101 67.4147 72.3026 69.401 71.8673ZM98.0485 75.8398C96.4175 75.8328 95.07 76.3998 93.32 77.5268C93.32 77.5268 95.259 77.2468 95.224 77.4218C95.0945 78.0343 95.392 79.4343 95.4795 79.5288L95.5005 79.5113C95.5005 79.5347 95.4935 79.5405 95.4795 79.5288L94.4085 80.4038C96.6975 79.2523 99.102 79.4833 101.545 79.3083C101.545 79.3083 99.487 78.7413 99.613 78.7238C100.072 78.6573 99.4905 76.5783 99.333 76.5328C99.7178 76.4063 100.108 76.2965 100.502 76.2038C99.7029 75.9791 98.8785 75.8568 98.0485 75.8398ZM96.484 77.8103C96.813 77.8138 97.1455 77.9083 97.254 78.1253C97.3583 78.4232 97.38 78.7436 97.317 79.0528C96.8188 79.0042 96.3216 79.1553 95.9345 79.4728C95.686 79.7178 95.504 78.2583 95.6965 78.0308C95.8155 77.8908 96.1515 77.8068 96.484 77.8103ZM107.044 78.8533C107.338 78.8498 107.94 78.8848 108.048 79.2733C108.118 79.4903 107.901 80.2183 107.796 80.2953C107.635 80.3758 106.55 80.3058 106.505 80.0818C106.414 79.8158 106.634 79.0108 106.883 78.8638L107.044 78.8533ZM117.183 80.1973L115.248 81.1423C112.098 82.1363 111.909 81.2473 110.733 80.9113C111.51 81.7968 112.437 82.4583 114.086 82.0663C116.343 81.3803 116.42 80.8063 117.183 80.1973ZM59.4365 82.6438C61.1865 87.4038 69.541 96.2728 80.7515 97.6168L80.7235 97.6798C80.3385 98.6108 80.0165 100.214 80.0375 101.544L80.0165 101.579C65.474 98.4813 63.6715 94.5998 59.188 91.1243C58.8625 88.4363 58.8205 85.5173 59.4365 82.6438ZM92.4835 89.3078C92.4089 89.3078 92.3704 89.3113 92.368 89.3183C91.332 90.0533 91.178 90.7603 91.199 91.3693C92.9175 89.6788 92.8545 89.6718 95.364 89.6893C94.4123 89.5053 93.4504 89.3779 92.4835 89.3078ZM93.5195 90.5783C93.152 92.5628 91.815 93.9733 90.779 95.3663C90.5725 95.6918 90.4255 96.1363 91.4405 97.5503C91.7135 97.9283 92.7005 97.9913 93.3655 97.9563C92.69 97.4453 91.6575 96.9028 91.4895 96.4303C92.683 97.2458 93.789 97.4803 94.79 97.3473C95.0175 97.3228 95.301 97.0778 95.5215 96.7068C95.966 95.7478 96.316 95.5168 96.6695 95.2613L97.4815 96.2798L98.3985 95.4958C96.365 93.9033 94.6535 92.2653 93.5195 90.5783ZM61.036 99.0483C66.146 102.121 74.385 105.485 81.378 105.317C82.078 106.531 82.9145 107.805 83.5935 108.82C74.6895 110.175 68.5155 107.452 64.739 105.6L64.3295 105.187C63.122 103.819 61.9635 101.222 61.036 99.0483ZM85.13 111.144C85.48 111.869 86.047 112.471 86.0855 112.551C89.0815 116.457 82.309 115.558 80.9125 115.32C78.4275 114.924 75.995 113.951 73.685 112.635C77.444 112.562 81.413 112.845 85.13 111.144Z" fill="black"/>
</svg>
