<svg width="168" height="150" viewBox="0 0 168 150" fill="none" xmlns="http://www.w3.org/2000/svg">
<rect x="0.5" y="0.5" width="167" height="149" rx="19.5" fill="white" stroke="#CFCFCF"/>
<path d="M119.937 89.9743C119.713 89.3204 119.308 88.7433 118.769 88.3098C118.231 87.8762 117.58 87.6037 116.894 87.5238C116.082 87.4263 115.26 87.4722 114.465 87.6595C113.234 87.9313 111.983 88.096 110.724 88.1517C114.09 82.4725 116.661 76.3582 118.365 69.9799C120.901 60.1649 119.546 55.6951 117.963 53.6704C115.861 51.0107 113.17 48.8749 110.103 47.4308C107.036 45.9868 103.676 45.2738 100.286 45.348C97.1769 45.3189 94.0806 45.7529 91.0991 46.6358C89.3234 46.3313 87.5263 46.1676 85.7247 46.1462C82.4501 46.0219 79.2066 46.8212 76.3647 48.4529C74.2095 47.7243 71.9995 47.1691 69.7558 46.7927C67.1402 46.1653 64.4266 46.0594 61.7702 46.4812C59.1137 46.9031 56.5663 47.8443 54.2738 49.2511C49.6603 52.5077 47.5212 58.1695 47.9176 66.0794C48.6274 71.9804 49.8796 77.8033 51.6584 83.4744C52.6828 87.0168 54.0312 90.4572 55.6866 93.7523C56.909 96.7582 59.233 99.184 62.1837 100.534C63.2653 100.891 64.4226 100.951 65.5355 100.71C66.6484 100.468 67.6765 99.9338 68.5133 99.1613C68.8931 99.611 69.3422 99.9972 69.8436 100.305C70.6208 100.788 71.4681 101.147 72.3552 101.37C75.2591 102.178 78.3502 101.991 81.1352 100.837C81.1512 101.292 81.1645 101.729 81.1724 102.107C81.1884 102.716 81.207 103.315 81.2283 103.876C81.1967 106.844 81.5919 109.801 82.4016 112.656C82.4442 112.77 82.5001 112.941 82.5586 113.124C83.026 114.872 83.9338 116.47 85.1953 117.767C86.7077 119.156 88.7035 119.898 90.7559 119.834C91.6301 119.829 92.5014 119.731 93.3553 119.544C94.9741 119.341 96.5358 118.816 97.9483 117.999C99.3608 117.182 100.595 116.091 101.579 114.79C103.737 111.717 104.788 107.09 104.977 99.7972C105.001 99.5897 105.025 99.3928 105.046 99.2065L105.091 98.8208L105.599 98.866H105.73C108.607 98.9878 111.477 98.4906 114.145 97.408C115.824 96.6284 121.206 93.7869 119.937 89.9583" fill="black"/>
<path d="M115.102 90.7191C106.687 92.4538 106.109 89.607 106.109 89.607C114.993 76.4237 118.707 59.6885 115.501 55.5939C106.758 44.4193 91.6222 49.706 91.3694 49.8417L91.287 49.8576C89.4382 49.4866 87.5586 49.2906 85.6731 49.2723C82.4934 49.1127 79.3556 50.0522 76.7867 51.9329C76.7867 51.9329 49.7869 40.8089 51.0427 65.9223C51.3088 71.2648 58.6999 106.347 67.5145 95.7503C70.7365 91.8765 73.8494 88.5986 73.8494 88.5986C75.4172 89.6567 77.3035 90.1382 79.1866 89.9608L79.3382 89.8331C79.2937 90.3365 79.3143 90.8436 79.3994 91.3417C77.1273 93.8799 77.803 94.3242 73.2561 95.2581C68.6639 96.2053 71.3617 97.8894 73.1231 98.3311C74.9944 98.9364 77.0092 98.9351 78.8798 98.3274C80.7503 97.7196 82.3811 96.5365 83.5393 94.9468L83.4063 95.4789C84.2949 96.192 84.9202 100.114 84.8164 103.671C84.5262 106.317 84.7063 108.993 85.3485 111.576C86.0509 113.483 86.748 117.772 92.7157 116.495C94.8378 116.285 96.8116 115.312 98.27 113.756C99.7283 112.201 100.572 110.168 100.644 108.037C100.91 104.754 101.477 105.238 101.512 102.303L101.975 100.915C102.507 96.4633 102.06 95.0266 105.13 95.6944L105.878 95.7609C108.253 95.8607 110.623 95.4619 112.835 94.5903C116.576 92.8556 118.792 89.9555 115.105 90.7191" fill="#336791"/>
<path d="M78.3659 68.3114C77.7556 68.183 77.1195 68.2773 76.5727 68.5774C76.5015 68.6287 76.4412 68.6937 76.3955 68.7687C76.3498 68.8436 76.3196 68.927 76.3066 69.0138C76.3067 69.3206 76.4172 69.6172 76.6179 69.8492C76.9749 70.3395 77.508 70.6723 78.1052 70.7778C78.1845 70.7887 78.2646 70.7941 78.3447 70.7937C78.7399 70.7989 79.1272 70.6824 79.4542 70.4602C79.7811 70.238 80.0319 69.9207 80.1725 69.5512C80.2656 68.8914 79.3051 68.4497 78.3739 68.3194M103.495 68.3406C103.423 67.8218 102.5 67.6755 101.633 67.8085C100.766 67.9416 99.9115 68.3247 99.9833 68.8435C100.119 69.169 100.348 69.4468 100.642 69.6416C100.935 69.8363 101.28 69.9392 101.633 69.937C101.707 69.9369 101.781 69.9315 101.854 69.921C102.315 69.84 102.737 69.609 103.054 69.2639C103.319 69.0313 103.48 68.703 103.503 68.3513" fill="white"/>
<path d="M117.898 90.5223C117.576 89.5512 116.544 89.2399 114.828 89.5938C109.733 90.658 107.91 89.9157 107.309 89.4767C111.344 83.2831 114.373 76.4899 116.283 69.3493C117.057 66.5248 117.503 63.6208 117.613 60.6944C117.819 58.6474 117.343 56.5899 116.259 54.841C114.342 52.4277 111.89 50.4927 109.097 49.1884C106.304 47.8841 103.247 47.2461 100.165 47.3249C97.0001 47.2753 93.85 47.7712 90.8532 48.7908C89.1391 48.3679 87.3824 48.1421 85.6171 48.1177C82.4411 47.9782 79.302 48.843 76.6456 50.5894C74.281 49.7249 71.8402 49.0853 69.3555 48.6791C64.6059 47.5297 59.5946 48.2993 55.4087 50.8209C51.4178 53.6518 49.5553 58.7122 49.9252 65.8612C50.624 71.5909 51.8468 77.2444 53.5782 82.7507C56.425 92.0761 59.5193 97.3574 62.7759 98.4483C63.1968 98.5901 63.638 98.6629 64.0822 98.6638C64.9089 98.6126 65.7131 98.3737 66.4336 97.9652C67.1542 97.5568 67.7722 96.9895 68.2407 96.3065C70.089 94.0893 72.0002 91.9271 73.9743 89.8199C75.2434 90.5068 76.6558 90.8868 78.0982 90.9294V91.0412C77.8499 91.3356 77.6078 91.6354 77.3719 91.9404C76.3742 93.2042 76.1693 93.4676 72.9606 94.1301C72.048 94.319 69.6242 94.8192 69.5897 96.5247C69.5524 98.3871 72.4551 99.1613 72.7824 99.2438C73.8682 99.523 74.9843 99.6678 76.1055 99.6748C78.5576 99.7201 80.9352 98.8318 82.757 97.1898C82.4849 102.253 82.8253 107.331 83.7706 112.313C84.2075 113.908 85.153 115.316 86.4635 116.325C87.774 117.333 89.3779 117.886 91.0314 117.9C91.8518 117.897 92.6696 117.808 93.4712 117.634C95.66 117.445 97.7091 116.48 99.2489 114.913C100.789 113.346 101.718 111.28 101.868 109.088C102.339 106.358 103.148 99.8424 103.528 96.3464C104.49 96.6107 105.485 96.7335 106.482 96.7109C108.778 96.7275 111.055 96.2936 113.184 95.4338C115.078 94.5532 118.505 92.3981 117.874 90.5223H117.898ZM105.42 66.8989C105.386 67.8866 105.283 68.8708 105.111 69.8442C104.914 70.988 104.789 72.1433 104.739 73.3029C104.73 74.6115 104.819 75.9188 105.005 77.214C105.58 79.8651 105.368 82.6262 104.396 85.1586C104.189 84.7923 104.005 84.4138 103.845 84.0252C103.691 83.65 103.353 83.0461 102.89 82.2133C101.081 78.9674 96.8395 71.3634 99.0106 68.2611C99.6571 67.3379 101.299 66.3987 105.417 66.8989H105.42ZM100.426 49.4214C103.149 49.3657 105.849 49.9428 108.311 51.1071C110.774 52.2714 112.932 53.9913 114.618 56.1314C117.212 59.4439 114.352 74.5215 106.09 87.5265L105.84 87.2099L105.737 87.0795C107.378 83.9782 107.855 80.392 107.083 76.9693C106.905 75.7785 106.816 74.5761 106.817 73.3721C106.865 72.2963 106.981 71.2246 107.165 70.1634C107.405 68.8533 107.514 67.5228 107.493 66.1912C107.536 66.0083 107.548 65.8193 107.527 65.6324C106.646 62.0697 104.898 58.7797 102.44 56.0543C100.231 53.4515 97.4688 51.3753 94.3545 49.9775C96.3489 49.5616 98.3837 49.3706 100.421 49.4081L100.426 49.4214ZM66.6497 94.9788C64.9815 96.9849 63.8268 96.6018 63.457 96.4741C60.9879 95.6493 58.1198 90.4292 55.5949 82.1494C53.9184 76.805 52.7252 71.3207 52.0297 65.7628C51.7104 59.3774 53.2589 54.9235 56.6325 52.529C62.1214 48.6365 71.1488 50.9672 74.7752 52.1485C74.722 52.1991 74.6687 52.247 74.6182 52.3002C68.6664 58.3105 68.8074 68.5804 68.8234 69.2083C68.8234 69.4504 68.842 69.7936 68.8713 70.2725C69.0895 73.1335 69.0173 76.0092 68.6558 78.8556C68.4084 80.4854 68.5355 82.1501 69.0274 83.7235C69.5193 85.2969 70.363 86.7375 71.4946 87.9362C71.7305 88.181 71.9771 88.4134 72.2343 88.6333C71.2153 89.7242 68.999 92.14 66.647 94.9788H66.6497ZM73.0085 86.4915C72.091 85.5215 71.4068 84.3549 71.008 83.0806C70.6092 81.8062 70.5063 80.4577 70.7071 79.1376C71.0885 76.1547 71.166 73.1408 70.9386 70.1422C70.9226 69.8894 70.9093 69.6686 70.9013 69.4956C73.1301 67.8159 75.8959 67.0088 78.6783 67.2261C79.3184 67.3712 79.8975 67.712 80.3352 68.2012C80.7729 68.6903 81.0474 69.3036 81.1207 69.9559C82.8394 77.9084 81.3468 81.2209 80.1496 83.8841C79.9021 84.4322 79.668 84.9484 79.4711 85.4805L79.3168 85.8956C78.9344 86.8596 78.6075 87.8448 78.3377 88.8462C77.3374 88.8319 76.3504 88.6155 75.4359 88.21C74.5215 87.8044 73.6985 87.2181 73.0165 86.4862L73.0085 86.4915ZM73.3092 97.2137C72.8155 97.0923 72.3453 96.89 71.9177 96.6151C72.3932 96.412 72.8904 96.2638 73.3996 96.1735C77.1724 95.3966 77.755 94.8432 79.0295 93.2335C79.3221 92.8637 79.652 92.4353 80.1097 91.9325C80.7908 91.1689 81.1047 91.2992 81.6688 91.5334C81.9363 91.6787 82.1709 91.8778 82.3577 92.1182C82.5445 92.3586 82.6796 92.635 82.7543 92.9302C82.8287 93.1445 82.8553 93.3724 82.8323 93.5981C82.8093 93.8237 82.7373 94.0416 82.6213 94.2365C81.5899 95.6608 80.1303 96.7181 78.4555 97.2541C76.7808 97.7902 74.9785 97.777 73.3118 97.2164L73.3092 97.2137ZM93.0615 115.588C92.3148 115.847 91.5217 115.947 90.7341 115.879C89.9465 115.811 89.182 115.578 88.4905 115.195C87.7991 114.812 87.1962 114.287 86.7212 113.655C86.2463 113.024 85.9099 112.299 85.7342 111.528C84.7972 105.498 84.5296 99.3832 84.936 93.2947C84.9387 93.183 84.9234 93.0716 84.8908 92.9648C84.8628 92.758 84.8202 92.5535 84.7631 92.3528C84.6054 91.7544 84.3183 91.1978 83.9221 90.7224C83.5258 90.2471 83.03 89.8645 82.4696 89.6018C81.8164 89.2779 81.0729 89.1841 80.3598 89.3357C80.6118 88.413 80.9156 87.5052 81.2697 86.6166L81.424 86.1989C81.5996 85.7279 81.8178 85.2411 82.0492 84.7249C83.3024 81.9393 85.0211 78.1213 83.1561 69.5009C83.038 68.7677 82.771 68.0664 82.3716 67.4402C81.9721 66.8141 81.4486 66.2764 80.8334 65.8604C80.2181 65.4443 79.5242 65.1587 78.7943 65.0211C78.0645 64.8835 77.3142 64.8969 76.5897 65.0604C74.8373 65.2877 73.1381 65.8199 71.5691 66.6328C71.3616 66.7392 71.1701 66.8403 70.9945 66.9388C71.1957 62.1044 72.9898 57.4722 76.0975 53.7635C77.3457 52.542 78.8354 51.5948 80.4711 50.9827C82.1068 50.3705 83.8523 50.107 85.5958 50.2089C88.5412 50.2345 91.4452 50.9061 94.1028 52.1763C96.7603 53.4464 99.1069 55.2843 100.977 57.5602C102.802 59.6911 104.227 62.1336 105.186 64.7704C101.293 64.374 98.6461 65.1429 97.3051 67.0612C94.3785 71.233 98.9015 79.3319 101.073 83.2243C101.472 83.9374 101.815 84.5546 101.921 84.8207C102.495 86.1591 103.267 87.4033 104.212 88.5109C104.417 88.777 104.616 89.0138 104.765 89.232C103.587 89.5725 101.469 90.3574 101.663 94.2871C101.509 96.2559 100.402 105.475 99.838 108.734C99.0957 113.036 97.5126 114.641 93.0588 115.596L93.0615 115.588ZM112.33 93.5368C110.692 94.1866 108.953 94.5467 107.192 94.601C106.02 94.7736 104.823 94.6199 103.733 94.1567C103.613 91.7116 104.531 91.4562 105.489 91.1848C105.641 91.1423 105.787 91.0997 105.931 91.0518C106.025 91.1276 106.122 91.1987 106.223 91.2646C107.924 92.3874 110.959 92.5071 115.243 91.6238H115.291C114.405 92.4111 113.404 93.0573 112.322 93.5395L112.33 93.5368Z" fill="white"/>
</svg>
