<svg width="168" height="150" viewBox="0 0 168 150" fill="none" xmlns="http://www.w3.org/2000/svg">
<rect x="0.5" y="0.5" width="167" height="149" rx="19.5" fill="white" stroke="#CFCFCF"/>
<path d="M78.9733 43.0001C78.9218 42.9989 78.8711 43.013 78.8275 43.0405C78.784 43.068 78.7495 43.1077 78.7283 43.1546C76.256 47.9537 73.3547 52.5194 70.06 56.7959C63.9641 64.7526 55.0537 75.6551 55.0537 87.0242C55.0537 90.1653 55.6724 93.2755 56.8745 96.1774C58.0766 99.0793 59.8386 101.716 62.0598 103.937C64.2809 106.158 66.9178 107.919 69.8199 109.121C72.7219 110.323 75.8323 110.941 78.9733 110.941V96.3488C78.9733 96.0396 79.227 95.7859 79.5391 95.7859H87.735V87.5813C87.735 87.2721 87.9887 87.0242 88.3008 87.0242H102.896C102.896 75.6492 93.9825 64.7526 87.8895 56.7959C84.5938 52.5195 81.6915 47.9539 79.2183 43.1546C79.1945 43.1098 79.1593 43.0719 79.1163 43.0448C79.0734 43.0177 79.0241 43.0023 78.9733 43.0001ZM74.2133 54.2788C74.3591 54.2788 74.4466 54.378 74.3212 54.6055L73.3645 56.3351C72.2095 58.3826 70.9758 60.3863 69.777 62.4017C69.2073 62.3103 68.6386 62.2248 68.0708 62.1451C69.5145 60.2463 70.9875 58.3651 72.3875 56.4313C72.8337 55.8217 73.2683 55.1976 73.7116 54.5821C73.7683 54.4983 73.8426 54.4278 73.9292 54.3754C74.0158 54.3231 74.1127 54.2901 74.2133 54.2788ZM66.7 63.9592C67.3455 64.0623 67.993 64.178 68.6425 64.3063L67.992 65.4234C66.2144 68.4913 64.6314 71.668 63.2525 74.9346C60.7033 81.1267 59.2187 87.8963 61.0066 94.4967C62.1413 98.6484 64.3752 102.417 67.4729 105.405C67.715 105.647 67.4145 106.035 67.1258 105.857C66.1722 105.26 65.2654 104.591 64.4133 103.856C60.4137 100.391 57.7722 95.6193 56.9583 90.3901C55.9987 84.1017 58.087 78.0059 61.0941 72.5546C62.772 69.5708 64.6426 66.6996 66.6941 63.9592H66.7ZM89.832 88.5613C89.6848 88.5628 89.544 88.622 89.4398 88.7262C89.3357 88.8303 89.2765 88.9711 89.275 89.1184V96.3751H97.0829V88.5584L89.832 88.5613ZM99.4541 88.5613V96.3751H103.386C104.33 93.8766 104.838 91.2346 104.888 88.5642L99.4541 88.5613ZM81.0704 97.323C80.9221 97.3245 80.7804 97.3845 80.6761 97.4899C80.5718 97.5953 80.5133 97.7376 80.5133 97.8859V105.134H88.3241V97.323H81.0704ZM90.6808 98.7346V106.551H96.8495C97.0651 106.553 97.2789 106.512 97.4787 106.431C97.6784 106.35 97.8601 106.23 98.0133 106.079V106.067C98.316 105.758 98.4839 105.342 98.48 104.909V98.7376L90.6808 98.7346ZM101.397 99.2655V105.04C102.855 103.299 104.05 101.353 104.946 99.2655H101.397ZM81.0704 107.502C80.9226 107.504 80.7813 107.563 80.6771 107.668C80.5729 107.773 80.5141 107.914 80.5133 108.062V112.939C83.1839 112.888 85.8258 112.379 88.3241 111.434V107.502H81.0704ZM91.2204 109.45V113C93.3079 112.104 95.2534 110.908 96.9954 109.45H91.2204Z" fill="#272727"/>
</svg>
