<svg width="167" height="150" viewBox="0 0 167 150" fill="none" xmlns="http://www.w3.org/2000/svg">
<path d="M20 0.5H147C157.77 0.5 166.5 9.23045 166.5 20V130C166.5 140.77 157.77 149.5 147 149.5H20C9.23045 149.5 0.5 140.77 0.5 130V20C0.5 9.23045 9.23045 0.5 20 0.5Z" fill="white" stroke="#CFCFCF"/>
<path d="M87.3841 69.2641C80.4594 69.4177 73.4115 71.5197 65.4391 75.8746C63.9916 77.5244 63.2445 79.3126 63.403 81.1284C63.9391 87.299 74.6524 91.4305 87.3311 90.3579C100.012 89.2846 109.856 83.4132 109.319 77.2443C109.218 76.0867 108.759 74.9999 107.996 74.0071C100.741 70.8009 94.1166 69.1139 87.3841 69.2641Z" fill="#BAE6FA"/>
<path opacity="0.35" d="M88.2807 69.2545C82.6477 69.2443 76.96 70.51 70.7784 73.2268C70.5189 74.2056 70.3792 75.2237 70.3792 76.2728C70.3792 83.5909 77.0792 89.5247 85.3442 89.5247C93.608 89.5247 100.309 83.5915 100.309 76.2728C100.309 74.3006 99.817 72.4309 98.9438 70.749C95.3394 69.7804 91.8206 69.2612 88.2807 69.2545Z" fill="white"/>
<path d="M85.3442 68.7366C82.6655 68.5751 78.05 69.9532 74.2021 71.328C73.6005 72.7237 73.2913 74.2249 73.293 75.7414C73.293 82.1539 79.1872 87.3525 85.4224 87.3525C91.616 87.3525 97.0967 82.1449 97.5518 75.7425C97.7001 73.6562 96.9718 71.6925 95.9623 69.9971C91.9718 69.3052 87.7384 68.8811 85.3437 68.7371" fill="white"/>
<path d="M78.472 74.8995C78.8005 74.1818 79.2978 73.8308 79.7797 73.2295C79.7266 73.0872 79.6086 72.6209 79.6086 72.4589C79.6089 72.2459 79.662 72.0362 79.7633 71.8482C79.8646 71.6601 80.0109 71.4993 80.1896 71.3798C80.3683 71.2603 80.574 71.1856 80.7886 71.1624C81.0032 71.1392 81.2203 71.1682 81.421 71.2467C82.5415 70.4008 83.8366 69.8078 85.2148 69.5094C86.593 69.211 88.0208 69.2146 89.3974 69.5198C89.6628 69.5798 89.9227 69.6494 90.177 69.7285C87.3112 69.3364 84.0815 70.3377 81.8847 72.0865C81.9514 72.2423 82.1374 72.6884 82.1374 72.8689C82.1374 73.59 81.6646 73.765 80.934 73.765C80.7669 73.765 80.6089 73.7335 80.4618 73.6789C79.9656 74.3359 79.3571 75.588 79.0594 76.371C80.2741 77.4432 81.3726 77.8307 82.8023 78.3589C82.7995 78.2914 82.8514 78.2295 82.8514 78.1609C82.8514 75.9863 84.7922 74.2195 86.9976 74.2195C87.9395 74.2195 88.8511 74.5485 89.5706 75.1482C90.2901 75.7478 90.771 76.5794 90.9281 77.4955C91.9148 76.8767 92.8672 76.4025 93.5938 75.4857C93.425 75.282 93.2413 74.7038 93.2413 74.4197C93.2413 73.7661 93.7797 73.2357 94.4441 73.2357C94.5377 73.2357 94.6278 73.2486 94.7162 73.2694C95.0862 72.5191 95.3629 71.7273 95.5403 70.9114C92.0927 68.3948 85.4229 68.7385 85.4229 68.7385C85.4229 68.7385 80.1145 68.4651 76.5215 70.192C76.761 71.9009 77.4522 73.5242 78.472 74.8995Z" fill="#353333"/>
<path d="M94.9494 73.9192C95.194 74.1352 95.3269 74.3259 95.4307 74.5109C95.7541 75.0824 95.1068 75.6061 94.4441 75.6061C94.3776 75.6053 94.3114 75.5987 94.2462 75.5864C93.4985 76.7379 92.1896 78.2156 91.0262 78.9592C92.8101 79.2477 94.492 79.9514 95.8305 81.0404C96.8046 79.3175 97.5528 76.8312 97.5528 74.7196C97.5528 73.1109 96.832 71.9324 95.7467 71.0679C95.6891 71.9291 95.222 73.1339 94.9494 73.9192ZM80.4726 84.8266C81.0662 83.2083 82.5285 81.9539 83.9115 80.8509C83.7085 80.5775 83.4057 79.9014 83.2796 79.5807C81.6132 79.0799 80.1148 78.1448 78.9424 76.874C78.9348 76.9107 78.9257 76.9471 78.915 76.9831C78.7029 77.9248 78.6528 78.8949 78.7667 79.853C79.1653 79.927 79.5252 80.136 79.7841 80.4439C80.043 80.7519 80.1846 81.1393 80.1845 81.5394C80.1845 82.0372 79.7414 82.7577 79.3987 83.0722C79.7722 83.867 80.026 84.2506 80.4726 84.8272" fill="#353333"/>
<path d="M80.3683 86.1864C79.6589 85.4906 79.169 84.1041 78.7087 83.2333C78.6214 83.2475 78.5332 83.2551 78.4447 83.2558C77.4831 83.2558 76.476 82.4593 76.7041 81.5385C76.8307 81.0289 77.1866 80.6959 77.7677 80.418C77.6348 79.3622 77.5989 77.8446 77.8476 76.7477C77.9189 76.4344 78.07 76.2864 78.1704 75.9883C77.1096 74.4566 76.4235 72.4468 76.4235 70.4539C76.4235 70.3807 76.4281 70.3093 76.4292 70.2373C74.6367 71.1238 73.2925 72.5211 73.2925 74.7187C73.2925 79.5832 76.1326 84.3555 80.3587 86.2252L80.3683 86.1864ZM90.7606 79.4617C90.4867 80.2308 89.9776 80.897 89.3035 81.3685C88.6294 81.8401 87.8235 82.0936 86.9971 82.0942C86.1032 82.0949 85.2354 81.7976 84.5345 81.2505C83.1349 82.3249 81.8654 84.2132 81.221 85.8512C81.5095 86.1577 81.7114 86.4114 82.0365 86.6837C83.0152 86.9357 84.3634 86.6837 85.4225 86.6837C89.6844 86.6837 93.4582 84.8134 95.6214 81.5351C94.1825 80.5524 92.4858 79.6176 90.7606 79.4617Z" fill="#353333"/>
<path d="M78.3623 75.468C78.6867 74.7607 79.0971 74.0951 79.5845 73.4857C79.5098 73.2882 79.4846 73.0757 79.5112 72.8665C79.5378 72.6573 79.6153 72.4576 79.7371 72.2843C79.8589 72.1111 80.0214 71.9695 80.2107 71.8716C80.4001 71.7737 80.6106 71.7225 80.8244 71.7223C80.996 71.7223 81.1609 71.756 81.312 71.8151C82.5412 70.8883 83.9784 70.2666 85.5022 70.0025C87.0261 69.7384 88.5921 69.8395 90.068 70.2975C87.2016 69.906 84.2411 70.7716 82.0437 72.5205C82.1441 72.7561 82.1722 73.0157 82.1245 73.267C82.0768 73.5182 81.9554 73.7502 81.7753 73.934C81.5952 74.1179 81.3643 74.2456 81.1114 74.3013C80.8584 74.3569 80.5944 74.3382 80.3522 74.2473C79.8515 74.9106 79.4478 75.64 79.1528 76.4141C80.1965 77.5228 81.4762 78.3997 82.9066 78.9273C82.9032 78.8598 82.8969 78.794 82.8969 78.7248C82.8967 78.2079 82.9998 77.696 83.2003 77.2183C83.4008 76.7407 83.6947 76.3067 84.0653 75.9411C84.4358 75.5755 84.8758 75.2855 85.36 75.0876C85.8442 74.8897 86.3632 74.7879 86.8874 74.7879C88.8641 74.7879 90.5003 76.2054 90.8197 78.0639C91.8105 77.4384 92.6856 76.6504 93.4072 75.734C93.2315 75.5243 93.1346 75.2613 93.1329 74.9893C93.1329 74.3345 93.6707 73.8041 94.3345 73.8041C94.428 73.8041 94.5181 73.8176 94.6065 73.8378C94.9765 73.0878 95.2532 72.2965 95.4306 71.481C91.9842 68.9626 85.3133 69.3063 85.3133 69.3063C85.3133 69.3063 80.0048 69.033 76.4119 70.761C76.652 72.4693 77.3426 74.0943 78.3623 75.468Z" fill="#1185B0"/>
<path d="M95.1354 74.1128C95.3801 74.3288 95.5363 74.6398 95.5363 74.9891C95.5359 75.3033 95.4091 75.6045 95.1839 75.8267C94.9586 76.0489 94.6532 76.1739 94.3347 76.1743C94.2674 76.1743 94.2018 76.1648 94.1368 76.1541C93.3897 77.3074 92.4004 78.2892 91.2356 79.033C92.9543 79.2975 94.5692 80.0133 95.911 81.1052C96.918 79.3273 97.4456 77.3243 97.4434 75.2878C97.4434 73.6791 96.7231 72.5012 95.6373 71.6372C95.5802 72.4978 95.4091 73.3281 95.1354 74.1128ZM80.6563 85.216C81.2562 83.5806 82.2969 82.1376 83.6664 81.0422C83.4626 80.7673 83.2958 80.4674 83.1702 80.1501C81.5043 79.6491 80.0062 78.714 78.8341 77.4433L78.8068 77.5513C78.5941 78.4929 78.5433 79.4631 78.6568 80.4212C78.9735 80.48 79.2675 80.6245 79.5058 80.8385C79.7442 81.0525 79.9175 81.3276 80.0066 81.6331C80.0957 81.9386 80.097 82.2625 80.0103 82.5687C79.9236 82.8748 79.7523 83.1512 79.5157 83.367C79.8289 84.0212 80.2113 84.6409 80.6563 85.216Z" fill="#1185B0"/>
<path d="M80.363 86.166C79.6558 85.4722 79.0614 84.675 78.6007 83.8024C78.5129 83.8165 78.424 83.8238 78.335 83.8243C77.8733 83.8242 77.4306 83.6432 77.1042 83.3211C76.7778 82.9991 76.5944 82.5624 76.5944 82.107C76.5944 81.4269 76.9965 80.8414 77.5776 80.5635C77.4419 79.48 77.4965 78.3815 77.739 77.3162C77.809 77.006 77.8947 76.6994 77.9956 76.3976C76.8981 74.814 76.3121 72.94 76.3144 71.0218C76.3144 70.9493 76.3184 70.8772 76.3201 70.8047C74.527 71.6912 73.1833 73.089 73.1833 75.2878C73.1833 80.1517 76.1284 84.3356 80.3545 86.2059L80.363 86.166ZM90.6509 80.0291C90.377 80.7982 89.8679 81.4644 89.1938 81.9359C88.5197 82.4074 87.7138 82.661 86.8874 82.6616C85.9938 82.6622 85.1261 82.3653 84.4248 81.819C83.0252 82.8939 81.9696 84.3587 81.3246 85.9961C81.6149 86.3039 81.9234 86.5944 82.2485 86.8663C83.2492 87.1222 84.2789 87.2517 85.3128 87.2516C89.5747 87.2516 93.3199 85.0815 95.4837 81.8032C94.0454 80.8206 92.3766 80.1855 90.6509 80.0291Z" fill="#1185B0"/>
<path d="M85.7607 75.3721L83.6716 71.6877L84.802 75.5987L81.4132 73.1687L84.068 76.4582L79.8608 74.9322L83.1806 77.3549L78.9238 77.4842L83.2764 78.5924L78.9192 79.5222L83.2199 79.8287L79.5927 82.1198L83.3283 80.7844L80.7362 84.0222L84.0104 81.4167L82.8321 85.7603L85.3597 82.2256L85.005 86.401L86.4405 82.6154L87.6627 86.5934L87.9592 82.6036L89.7728 86.0078L88.7018 82.1153L92.021 84.6511L89.8777 81.4167L93.5198 82.8173L90.7349 80.1173L94.4693 80.4064L90.7908 79.0148L94.479 78.1474L90.7777 77.9607L93.7889 75.6899L90.3716 76.8981L92.6945 73.7228L89.4859 75.8266L90.6077 72.1096L88.4041 75.1735L88.3544 71.3012L86.9036 74.7499L85.6956 71.2607L85.7607 75.3721Z" fill="white"/>
<path opacity="0.35" d="M51.5303 85.9751C62.9662 74.6936 72.1014 71.2118 80.3909 69.6216C81.4888 69.4112 81.6958 67.047 81.6958 67.047C81.6958 67.047 81.8487 68.7885 82.6169 69.0158C83.3839 69.2425 84.3826 66.2893 84.3826 66.2893C84.3826 66.2893 83.4615 68.9393 84.3826 69.0917C85.3036 69.2425 86.9917 66.5166 86.9917 66.5166C86.9917 66.5166 86.3017 68.8639 86.7625 69.0152C87.2233 69.1665 89.5251 65.6081 89.5251 65.6081C89.5251 65.6081 88.1443 67.9555 89.4486 68.1827C90.7547 68.4105 92.6584 66.5807 92.6584 66.5807C92.6584 66.5807 91.1613 68.2541 91.8286 68.4859C94.6687 69.4703 96.9671 65.8292 96.9671 65.8292C96.9671 65.8292 96.4344 67.4256 95.0531 69.1671C98.0461 69.9248 100.27 65.4771 100.27 65.4771L98.0455 69.9248C99.1976 70.53 103.803 65.3066 103.803 65.3066C103.803 65.3066 101.423 69.3943 100.042 70.2263C100.809 70.8338 103.572 68.4105 103.572 68.4105C103.572 68.4105 101.347 71.1347 102.192 71.2866C103.42 72.271 107.948 66.214 107.948 66.214C107.948 66.214 106.183 69.7723 103.572 72.5736C105.754 73.6496 111.172 66.7444 111.172 66.7444C111.172 66.7444 111.018 68.9393 107.104 72.4228C110.02 72.0443 113.783 66.5931 113.783 66.5931C113.783 66.5931 112.4 70.6813 109.099 73.5574C111.963 73.2649 116.545 66.2899 116.545 66.2899C116.545 66.2899 114.779 71.1347 111.172 73.9365C115.163 74.8084 120.921 68.9393 120.921 68.9393C120.921 68.9393 118.656 73.104 115.701 74.8078C119.002 76.0566 123.531 70.9086 123.531 70.9086C123.531 70.9086 119.002 77.7981 111.786 77.4955C109.419 77.3959 102.258 70.4108 86.9153 70.984C66.6521 71.7416 62.3525 80.2208 51.5303 85.9751Z" fill="#353333"/>
<path d="M104.272 64.4497C104.272 64.4497 99.667 69.6736 98.515 69.0678L100.739 64.6196C100.739 64.6196 98.5144 69.0673 95.5226 68.3107C96.9027 66.5692 97.436 64.9723 97.436 64.9723C97.436 64.9723 95.1376 68.6139 92.2975 67.629C91.6302 67.3983 93.1273 65.7249 93.1273 65.7249C93.1273 65.7249 91.2224 67.5536 89.9181 67.3263C88.6138 67.0991 89.9945 64.7523 89.9945 64.7523C89.9945 64.7523 87.6922 68.3113 87.2302 68.1594C86.7706 68.0086 87.4612 65.6608 87.4612 65.6608C87.4612 65.6608 85.7731 68.3866 84.852 68.2353C83.931 68.084 84.852 65.4341 84.852 65.4341C84.852 65.4341 83.854 68.3872 83.0864 68.1594C82.3181 67.9327 82.1653 66.1912 82.1653 66.1912C82.1653 66.1912 81.9577 68.5554 80.8604 68.7646C72.5704 70.3554 63.4357 73.8384 51.998 85.1182C62.8209 79.3638 67.1193 70.8847 87.3842 70.1281C102.727 69.5544 109.888 76.539 112.255 76.6385C119.471 76.9423 124 70.0516 124 70.0516C124 70.0516 119.471 75.1996 116.17 73.9503C119.126 72.2476 121.39 68.0835 121.39 68.0835C121.39 68.0835 115.632 73.9503 111.642 73.0796C115.249 70.2789 117.014 65.4352 117.014 65.4352C117.014 65.4352 112.432 72.4085 109.568 72.7027C112.869 69.8255 114.251 65.7361 114.251 65.7361C114.251 65.7361 110.489 71.1879 107.572 71.567C111.488 68.084 111.642 65.8886 111.642 65.8886C111.642 65.8886 106.224 72.7938 104.042 71.7178C106.651 68.9165 108.417 65.3581 108.417 65.3581C108.417 65.3581 103.889 71.4151 102.66 70.4308C101.815 70.2789 104.042 67.5536 104.042 67.5536C104.042 67.5536 101.279 69.9763 100.511 69.3705C101.892 68.538 104.272 64.4497 104.272 64.4497ZM111.638 77.1836C110.866 77.1318 110.185 77.4165 109.837 78.3508C106.267 85.0513 98.7836 88.7992 90.0322 90.048C81.2807 91.2967 74.8334 89.4821 69.5369 88.01C62.5716 86.0728 57.0453 89.5186 51 86.5278C52.3984 87.6191 53.9941 88.6856 58.5994 88.6991C60.1609 88.7047 65.162 88.4572 66.0831 89.252C67.0041 90.0468 62.9749 93.7948 62.9749 93.7948C62.9749 93.7948 69.7929 88.109 70.4585 90.0474C70.8725 91.254 68.5012 94.4771 68.5012 94.4771C68.5012 94.4771 70.8794 91.2945 72.6474 90.6155C73.8598 90.1486 74.883 90.2049 75.7556 91.4109C76.3316 92.2051 72.9924 96.0667 72.9924 96.0667C72.9924 96.0667 77.4819 91.7518 78.2883 91.979C79.0947 92.2051 78.2883 96.0667 78.2883 96.0667C78.2883 96.0667 79.9399 92.154 80.8205 91.8648C82.0296 91.4677 78.0573 100.949 78.0573 100.949C78.0573 100.949 82.909 92.177 83.8146 91.9796C85.3693 91.6387 86.4061 98.1108 86.4061 98.1108C86.4061 98.1108 85.6488 92.4566 86.4632 92.0921C91.6188 89.7915 88.652 101.859 88.652 101.859C88.652 101.859 92.0237 93.6699 89.9523 91.8536C95.4205 95.43 94.7544 101.859 94.7544 101.859C94.7544 101.859 96.1916 98.7976 92.1583 91.2708C94.3472 91.1583 97.631 96.8621 97.631 96.8621C97.631 96.8621 94.0626 90.6161 96.4807 90.503C101.285 90.278 101.777 98.7926 101.777 98.7926C101.777 98.7926 103.216 97.6001 99.3591 89.2526C101.815 87.7012 107.764 96.9757 107.764 96.9757C107.764 96.9757 102.276 87.9285 103.159 87.3226C104.041 86.7168 107.266 90.2004 107.266 90.2004C107.266 90.2004 104.81 86.8693 105.461 86.5284C106.114 86.187 112.639 93.153 112.639 93.153C112.639 93.153 106.882 86.3383 107.88 85.5052C108.47 85.0119 110.181 85.9243 111.487 86.7517C109.656 85.4602 107.026 83.4391 107.88 83.0021C109.645 82.0981 114.674 85.1643 114.674 85.1643C114.674 85.1643 111.641 82.704 112.14 82.0987C112.639 81.4923 118.587 85.9597 118.587 85.9597C118.587 85.9597 113.329 81.8703 113.061 80.8488C112.792 79.8273 117.207 81.1897 117.207 81.1897C117.207 81.1897 112.332 78.9566 112.256 78.3131C112.178 77.6685 115.479 79.032 115.479 79.032C115.479 79.032 113.338 77.2961 111.638 77.1836ZM111.487 86.7517C112.018 87.1267 112.556 87.4935 113.099 87.852C113.099 87.852 112.386 87.3221 111.487 86.7517Z" fill="#353333"/>
<path opacity="0.35" d="M51.2303 87.2086C57.2745 90.1994 62.8019 86.7547 69.7677 88.6902C75.0637 90.1623 81.5116 91.9786 90.2619 90.7282C99.0134 89.4806 106.497 85.7321 110.068 79.0316C111.18 76.0407 115.709 79.7122 115.709 79.7122C115.709 79.7122 112.408 78.3509 112.485 78.9939C112.562 79.6374 117.435 81.8699 117.435 81.8699C117.435 81.8699 113.023 80.5087 113.291 81.5296C113.56 82.5522 118.817 86.6405 118.817 86.6405C118.817 86.6405 112.87 82.1731 112.37 82.7784C111.87 83.3836 114.902 85.8462 114.902 85.8462C114.902 85.8462 109.876 82.7784 108.11 83.6834C106.84 84.3331 113.329 88.5339 113.329 88.5339C113.329 88.5339 109.107 85.3541 108.11 86.1871C107.112 87.0196 112.87 93.8332 112.87 93.8332C112.87 93.8332 106.343 86.8677 105.692 87.2086C105.038 87.5489 107.496 90.88 107.496 90.88C107.496 90.88 104.271 87.3982 103.389 88.004C102.507 88.6098 107.995 97.6559 107.995 97.6559C107.995 97.6559 102.046 88.382 99.5888 89.9339C103.447 98.2803 102.007 99.4739 102.007 99.4739C102.007 99.4739 101.515 90.9577 96.711 91.1827C94.2929 91.2963 97.8619 97.5429 97.8619 97.5429C97.8619 97.5429 94.5769 91.838 92.3892 91.9516C96.4213 99.4779 94.9841 102.538 94.9841 102.538C94.9841 102.538 95.6497 96.1124 90.1804 92.5349C92.2529 94.3518 88.8801 102.54 88.8801 102.54C88.8801 102.54 91.848 90.4728 86.6923 92.7734C85.8774 93.1368 86.6353 98.7922 86.6353 98.7922C86.6353 98.7922 85.5979 92.3178 84.0449 92.6604C83.1382 92.8584 78.2876 101.631 78.2876 101.631C78.2876 101.631 82.2599 92.1485 81.0508 92.5467C80.1702 92.8364 78.5186 96.7486 78.5186 96.7486C78.5186 96.7486 79.3233 92.8876 78.5186 92.6604C77.7116 92.4325 73.221 96.7486 73.221 96.7486C73.221 96.7486 76.5613 92.8876 75.9841 92.0922C75.1116 90.8874 74.089 90.8306 72.8759 91.2969C71.1097 91.9758 68.7309 95.1584 68.7309 95.1584C68.7309 95.1584 71.1023 91.9353 70.6882 90.7287C70.0232 88.7904 63.2046 94.4772 63.2046 94.4772C63.2046 94.4772 67.2338 90.7287 66.3128 89.9345C65.3917 89.1391 60.3901 89.3855 58.8292 89.3816C54.2239 89.3669 52.6281 88.301 51.2297 87.2092" fill="#353333"/>
</svg>
