<svg width="54" height="54" viewBox="0 0 54 54" fill="none" xmlns="http://www.w3.org/2000/svg">
<path d="M9.75019 28.0285C11.0042 28.1699 12.1901 27.7143 13.0249 26.8898L23.9164 30.8039C24.029 32.7188 25.5073 34.3376 27.4771 34.5595C29.6788 34.8075 31.6721 33.218 31.9202 31.0165C31.9377 30.8603 31.9448 30.7053 31.9446 30.5516L41.1358 23.846C41.593 24.1054 42.1086 24.2788 42.663 24.3413C44.8647 24.5894 46.8578 22.9999 47.1058 20.7982C47.3539 18.5964 45.7644 16.6032 43.5627 16.3551C41.3611 16.107 39.3681 17.6965 39.1199 19.8983C39.0405 20.6032 39.1498 21.2862 39.4073 21.8979L31.0258 28.0127C30.3855 27.2349 29.4548 26.6947 28.3769 26.5733C26.8505 26.4013 25.4251 27.1128 24.611 28.2989L14.1842 24.5516C14.1869 24.5295 14.1908 24.5076 14.1932 24.4853C14.4413 22.2836 12.8518 20.2904 10.6502 20.0423C8.44832 19.7942 6.45527 21.3837 6.20716 23.5854C5.95905 25.7872 7.54843 27.7804 9.75019 28.0285ZM41.6962 20.1885C41.7841 19.4072 42.4915 18.8433 43.2725 18.9314C44.0535 19.0194 44.6179 19.7265 44.5296 20.5079C44.4414 21.2891 43.7342 21.8531 42.9532 21.7651C42.1722 21.677 41.6082 20.9697 41.6962 20.1885ZM26.5101 30.4066C26.598 29.6254 27.3054 29.0614 28.0864 29.1494C28.8677 29.2374 29.4318 29.9447 29.3437 30.726C29.2553 31.507 28.5483 32.0711 27.7671 31.9831C26.9861 31.8951 26.422 31.188 26.5101 30.4066ZM8.78328 23.8756C8.87143 23.0944 9.57882 22.5304 10.3598 22.6184C11.1411 22.7066 11.705 23.4138 11.6171 24.195C11.529 24.9762 10.8216 25.5401 10.0406 25.4521C9.25928 25.364 8.69539 24.6568 8.78328 23.8756Z" fill="#34BDFE"/>
<path d="M9.55097 37.9974C11.7529 38.2455 13.7459 36.656 13.994 34.4542C14.0783 33.706 13.9499 32.9818 13.6578 32.3418L16.7476 29.605L13.9662 28.6055L11.8796 30.4535C11.4472 30.2239 10.9661 30.0692 10.451 30.0113C8.2491 29.7632 6.25605 31.3528 6.00794 33.5546C5.75983 35.7561 7.34921 37.7493 9.55097 37.9974Z" fill="#34BDFE"/>
<path d="M43.5494 37.1692C45.7511 37.4173 47.7442 35.8277 47.9923 33.6259C48.2403 31.4243 46.6508 29.4311 44.4493 29.183C43.4594 29.0715 42.5129 29.3319 41.7466 29.8516L38.2925 27.5251L36.0645 29.1504L40.1807 31.9228C40.097 32.1794 40.0376 32.4478 40.006 32.7261C39.7582 34.928 41.3478 36.9212 43.5494 37.1692Z" fill="#34BDFE"/>
<path d="M21.1736 25.6856L23.4241 23.6924C23.9766 24.1061 24.642 24.3836 25.376 24.4664C26.374 24.5788 27.3286 24.3128 28.0974 23.7845L31.4903 26.0693L33.7184 24.4439L29.6515 21.7049C29.7317 21.4552 29.7891 21.1938 29.8194 20.9232C30.0675 18.7214 28.4779 16.7282 26.2764 16.4801C24.0745 16.232 22.0814 17.8215 21.8333 20.0233C21.7744 20.5454 21.8199 21.0555 21.9516 21.5337L18.3926 24.6858L21.1736 25.6856Z" fill="#34BDFE"/>
<path d="M52.7037 44.6296H2.59259V8.07413C2.59259 7.35818 2.01211 6.77783 1.29629 6.77783C0.580481 6.77783 0 7.35818 0 8.07413V45.9259C0 46.6419 0.580481 47.2222 1.29629 47.2222H52.7037C53.4194 47.2222 54 46.6419 54 45.9259C54 45.21 53.4196 44.6296 52.7037 44.6296Z" fill="#34BDFE"/>
</svg>
