<svg width="46" height="51" viewBox="0 0 46 51" fill="none" xmlns="http://www.w3.org/2000/svg">
<path d="M4.10261 16.4609C3.18891 16.4609 2.41367 16.7663 1.77642 17.377C1.13916 17.9877 0.820435 18.7205 0.820435 19.5758V32.7079C0.820435 33.5846 1.13906 34.3269 1.77642 34.9376C2.41367 35.5483 3.18891 35.8538 4.10261 35.8538C5.01563 35.8538 5.78617 35.5484 6.41355 34.9376C7.03968 34.3269 7.35361 33.5846 7.35361 32.7079V19.5758C7.35361 18.7204 7.03499 17.9877 6.39763 17.377C5.76028 16.7663 4.99511 16.4609 4.10261 16.4609Z" fill="black"/>
<path d="M30.4927 4.67222L32.7554 0.672142C32.9039 0.40732 32.8511 0.204247 32.5964 0.0614528C32.32 -0.0616774 32.1076 0.0007147 31.9591 0.244218L29.6648 4.27627C27.6459 3.42089 25.5106 2.99241 23.2589 2.99241C21.0068 2.99241 18.8713 3.42098 16.8532 4.27627L14.5587 0.244218C14.4096 0.0007147 14.1972 -0.0611261 13.9215 0.0614528C13.6662 0.20489 13.6134 0.40732 13.7625 0.672142L16.0253 4.67222C13.7309 5.79353 11.9035 7.35517 10.5438 9.36054C9.18415 11.367 8.50403 13.5596 8.50403 15.9423H37.9818C37.9818 13.5602 37.3016 11.3675 35.942 9.36054C34.5823 7.35517 32.7654 5.79353 30.4927 4.67222ZM17.4107 10.4904C17.166 10.7254 16.8737 10.8424 16.534 10.8424C16.1936 10.8424 15.9073 10.7254 15.6737 10.4904C15.4401 10.2564 15.3233 9.97748 15.3233 9.65081C15.3233 9.32525 15.4401 9.04573 15.6737 8.81123C15.9073 8.57728 16.1943 8.46031 16.534 8.46031C16.8737 8.46031 17.166 8.57728 17.4107 8.81123C17.6548 9.04628 17.7774 9.32525 17.7774 9.65081C17.7768 9.97692 17.6542 10.2564 17.4107 10.4904ZM30.8429 10.4904C30.6089 10.7254 30.3219 10.8424 29.9827 10.8424C29.6422 10.8424 29.3501 10.7254 29.1059 10.4904C28.8613 10.2564 28.7392 9.97748 28.7392 9.65081C28.7392 9.32525 28.8613 9.04573 29.1059 8.81123C29.3501 8.57728 29.6422 8.46031 29.9827 8.46031C30.3225 8.46031 30.6088 8.57728 30.8429 8.81123C31.0767 9.04628 31.1933 9.32525 31.1933 9.65081C31.1933 9.97692 31.0766 10.2564 30.8429 10.4904Z" fill="black"/>
<path d="M8.62903 37.3805C8.62903 38.3179 8.96875 39.1115 9.64829 39.7627C10.3284 40.4139 11.1565 40.7394 12.134 40.7394H14.4924L14.5248 47.6728C14.5248 48.5483 14.8434 49.2917 15.4806 49.9025C16.1179 50.5133 16.8832 50.8187 17.7751 50.8187C18.6882 50.8187 19.4639 50.5133 20.1013 49.9025C20.7386 49.2917 21.0573 48.5484 21.0573 47.6728V40.7401H25.455V47.6728C25.455 48.5483 25.7735 49.2917 26.4109 49.9025C27.0482 50.5133 27.8233 50.8187 28.737 50.8187C29.6502 50.8187 30.4259 50.5133 31.0632 49.9025C31.7006 49.2917 32.0191 48.5484 32.0191 47.6728V40.7401H34.4094C35.3653 40.7401 36.1827 40.4144 36.8635 39.7632C37.5429 39.112 37.8828 38.3185 37.8828 37.3811V17.0406H8.62903V37.3805Z" fill="black"/>
<path d="M42.4107 16.4609C41.5181 16.4609 40.7535 16.7618 40.1162 17.3618C39.4789 17.9629 39.1603 18.7014 39.1603 19.5758V32.7079C39.1603 33.5846 39.4788 34.3269 40.1162 34.9376C40.7535 35.5484 41.5187 35.8538 42.4107 35.8538C43.3238 35.8538 44.0995 35.5484 44.7369 34.9376C45.3743 34.3269 45.6928 33.5846 45.6928 32.7079V19.5758C45.6928 18.7013 45.3743 17.9629 44.7369 17.3618C44.0995 16.7618 43.3238 16.4609 42.4107 16.4609Z" fill="black"/>
</svg>
