<svg width="516" height="134" viewBox="0 0 516 134" fill="none" xmlns="http://www.w3.org/2000/svg">
<mask id="path-1-inside-1_8_30711" fill="white">
<path d="M0 110C0 117.18 5.8203 123 13 123H491V13C491 5.8203 485.18 0 478 0H13C5.82029 0 0 5.8203 0 13V110Z"/>
</mask>
<path d="M13 3V-3C12.79 -3 12.5811 -2.99435 12.373 -2.98633L12.4893 0.00976562L12.6045 3.00781C12.7355 3.00275 12.8675 3 13 3ZM478.511 0.00976562L478.569 -1.48926H478.568L478.626 -2.98633C478.418 -2.99432 478.21 -3 478 -3H477.502V3H478C478.133 3 478.265 3.00275 478.396 3.00781L478.511 0.00976562ZM13.499 3V-3H13V3H13.499ZM15.4941 3V-3H14.4971V3H15.4941ZM17.4902 3V-3H16.4922V3H17.4902ZM19.4863 3V-3H18.4883V3H19.4863ZM21.4814 3V-3H20.4844V3H21.4814ZM23.4775 3V-3H22.4795V3H23.4775ZM25.4736 3V-3H24.4756V3H25.4736ZM27.4688 3V-3H26.4707V3H27.4688ZM29.4648 3V-3H28.4668V3H29.4648ZM31.46 3V-3H30.4629V3H31.46ZM33.4561 3V-3H32.458V3H33.4561ZM35.4521 3V-3H34.4541V3H35.4521ZM37.4473 3V-3H36.4492V3H37.4473ZM39.4434 3V-3H38.4453V3H39.4434ZM41.4385 3V-3H40.4414V3H41.4385ZM43.4346 3V-3H42.4365V3H43.4346ZM45.4307 3V-3H44.4326V3H45.4307ZM47.4258 3V-3H46.4277V3H47.4258ZM49.4219 3V-3H48.4238V3H49.4219ZM51.417 3V-3H50.4199V3H51.417ZM53.4131 3V-3H52.415V3H53.4131ZM55.4092 3V-3H54.4111V3H55.4092ZM57.4043 3V-3H56.4062V3H57.4043ZM59.4004 3V-3H58.4023V3H59.4004ZM61.3955 3V-3H60.3984V3H61.3955ZM63.3916 3V-3H62.3936V3H63.3916ZM65.3877 3V-3H64.3896V3H65.3877ZM67.3828 3V-3H66.3848V3H67.3828ZM69.3789 3V-3H68.3809V3H69.3789ZM71.374 3V-3H70.377V3H71.374ZM73.3701 3V-3H72.3721V3H73.3701ZM75.3662 3V-3H74.3682V3H75.3662ZM77.3613 3V-3H76.3633V3H77.3613ZM79.3574 3V-3H78.3594V3H79.3574ZM81.3525 3V-3H80.3555V3H81.3525ZM83.3486 3V-3H82.3506V3H83.3486ZM85.3447 3V-3H84.3467V3H85.3447ZM87.3398 3V-3H86.3418V3H87.3398ZM89.3359 3V-3H88.3379V3H89.3359ZM91.3311 3V-3H90.334V3H91.3311ZM93.3271 3V-3H92.3291V3H93.3271ZM95.3232 3V-3H94.3252V3H95.3232ZM97.3184 3V-3H96.3203V3H97.3184ZM99.3145 3V-3H98.3164V3H99.3145ZM101.311 3V-3H100.312V3H101.311ZM103.306 3V-3H102.308V3H103.306ZM105.302 3V-3H104.304V3H105.302ZM107.297 3V-3H106.3V3H107.297ZM109.293 3V-3H108.295V3H109.293ZM111.289 3V-3H110.291V3H111.289ZM113.284 3V-3H112.286V3H113.284ZM115.28 3V-3H114.282V3H115.28ZM117.275 3V-3H116.278V3H117.275ZM119.271 3V-3H118.273V3H119.271ZM121.268 3V-3H120.27V3H121.268ZM123.263 3V-3H122.265V3H123.263ZM125.259 3V-3H124.261V3H125.259ZM127.254 3V-3H126.257V3H127.254ZM129.25 3V-3H128.252V3H129.25ZM131.246 3V-3H130.248V3H131.246ZM133.241 3V-3H132.243V3H133.241ZM135.237 3V-3H134.239V3H135.237ZM137.232 3V-3H136.235V3H137.232ZM139.229 3V-3H138.23V3H139.229ZM141.225 3V-3H140.227V3H141.225ZM143.22 3V-3H142.223V3H143.22ZM145.216 3V-3H144.218V3H145.216ZM147.211 3V-3H146.214V3H147.211ZM149.207 3V-3H148.209V3H149.207ZM151.203 3V-3H150.205V3H151.203ZM153.198 3V-3H152.2V3H153.198ZM155.194 3V-3H154.196V3H155.194ZM157.189 3V-3H156.192V3H157.189ZM159.186 3V-3H158.188V3H159.186ZM161.182 3V-3H160.184V3H161.182ZM163.177 3V-3H162.179V3H163.177ZM165.173 3V-3H164.175V3H165.173ZM167.168 3V-3H166.171V3H167.168ZM169.164 3V-3H168.166V3H169.164ZM171.16 3V-3H170.162V3H171.16ZM173.155 3V-3H172.157V3H173.155ZM175.151 3V-3H174.153V3H175.151ZM177.146 3V-3H176.149V3H177.146ZM179.143 3V-3H178.145V3H179.143ZM181.139 3V-3H180.141V3H181.139ZM183.134 3V-3H182.136V3H183.134ZM185.13 3V-3H184.132V3H185.13ZM187.125 3V-3H186.128V3H187.125ZM189.121 3V-3H188.123V3H189.121ZM191.117 3V-3H190.119V3H191.117ZM193.112 3V-3H192.114V3H193.112ZM195.108 3V-3H194.11V3H195.108ZM197.104 3V-3H196.106V3H197.104ZM199.1 3V-3H198.102V3H199.1ZM201.096 3V-3H200.098V3H201.096ZM203.091 3V-3H202.093V3H203.091ZM205.087 3V-3H204.089V3H205.087ZM207.082 3V-3H206.084V3H207.082ZM209.078 3V-3H208.08V3H209.078ZM211.073 3V-3H210.076V3H211.073ZM213.069 3V-3H212.071V3H213.069ZM215.065 3V-3H214.067V3H215.065ZM217.061 3V-3H216.062V3H217.061ZM219.057 3V-3H218.059V3H219.057ZM221.052 3V-3H220.055V3H221.052ZM223.048 3V-3H222.05V3H223.048ZM225.044 3V-3H224.046V3H225.044ZM227.039 3V-3H226.041V3H227.039ZM229.035 3V-3H228.037V3H229.035ZM231.03 3V-3H230.033V3H231.03ZM233.026 3V-3H232.028V3H233.026ZM235.022 3V-3H234.024V3H235.022ZM237.018 3V-3H236.02V3H237.018ZM239.014 3V-3H238.016V3H239.014ZM241.009 3V-3H240.012V3H241.009ZM243.005 3V-3H242.007V3H243.005ZM245.001 3V-3H244.003V3H245.001ZM246.996 3V-3H245.998V3H246.996ZM248.992 3V-3H247.994V3H248.992ZM250.987 3V-3H249.99V3H250.987ZM252.983 3V-3H251.985V3H252.983ZM254.979 3V-3H253.981V3H254.979ZM256.975 3V-3H255.977V3H256.975ZM258.971 3V-3H257.973V3H258.971ZM260.966 3V-3H259.969V3H260.966ZM262.962 3V-3H261.964V3H262.962ZM264.958 3V-3H263.96V3H264.958ZM266.953 3V-3H265.955V3H266.953ZM268.949 3V-3H267.951V3H268.949ZM270.944 3V-3H269.947V3H270.944ZM272.94 3V-3H271.942V3H272.94ZM274.937 3V-3H273.938V3H274.937ZM276.932 3V-3H275.934V3H276.932ZM278.928 3V-3H277.93V3H278.928ZM280.923 3V-3H279.926V3H280.923ZM282.919 3V-3H281.921V3H282.919ZM284.915 3V-3H283.917V3H284.915ZM286.91 3V-3H285.912V3H286.91ZM288.906 3V-3H287.908V3H288.906ZM290.902 3V-3H289.904V3H290.902ZM292.897 3V-3H291.899V3H292.897ZM294.894 3V-3H293.896V3H294.894ZM296.889 3V-3H295.892V3H296.889ZM298.885 3V-3H297.887V3H298.885ZM300.881 3V-3H299.883V3H300.881ZM302.876 3V-3H301.878V3H302.876ZM304.872 3V-3H303.874V3H304.872ZM306.868 3V-3H305.87V3H306.868ZM308.863 3V-3H307.865V3H308.863ZM310.859 3V-3H309.861V3H310.859ZM312.854 3V-3H311.857V3H312.854ZM314.851 3V-3H313.853V3H314.851ZM316.847 3V-3H315.849V3H316.847ZM318.842 3V-3H317.845V3H318.842ZM320.838 3V-3H319.84V3H320.838ZM322.834 3V-3H321.836V3H322.834ZM324.829 3V-3H323.831V3H324.829ZM326.825 3V-3H325.827V3H326.825ZM328.82 3V-3H327.823V3H328.82ZM330.816 3V-3H329.818V3H330.816ZM332.812 3V-3H331.814V3H332.812ZM334.808 3V-3H333.81V3H334.808ZM336.804 3V-3H335.806V3H336.804ZM338.8 3V-3H337.802V3H338.8ZM340.795 3V-3H339.797V3H340.795ZM342.791 3V-3H341.793V3H342.791ZM344.786 3V-3H343.789V3H344.786ZM346.782 3V-3H345.784V3H346.782ZM348.778 3V-3H347.78V3H348.778ZM350.773 3V-3H349.775V3H350.773ZM352.77 3V-3H351.771V3H352.77ZM354.766 3V-3H353.768V3H354.766ZM356.761 3V-3H355.763V3H356.761ZM358.757 3V-3H357.759V3H358.757ZM360.752 3V-3H359.755V3H360.752ZM362.748 3V-3H361.75V3H362.748ZM364.744 3V-3H363.746V3H364.744ZM366.739 3V-3H365.742V3H366.739ZM368.735 3V-3H367.737V3H368.735ZM370.731 3V-3H369.733V3H370.731ZM372.727 3V-3H371.729V3H372.727ZM374.723 3V-3H373.725V3H374.723ZM376.718 3V-3H375.721V3H376.718ZM378.714 3V-3H377.716V3H378.714ZM380.71 3V-3H379.712V3H380.71ZM382.705 3V-3H381.707V3H382.705ZM384.701 3V-3H383.703V3H384.701ZM386.697 3V-3H385.699V3H386.697ZM388.692 3V-3H387.694V3H388.692ZM390.688 3V-3H389.69V3H390.688ZM392.684 3V-3H391.687V3H392.684ZM394.68 3V-3H393.682V3H394.68ZM396.676 3V-3H395.678V3H396.676ZM398.671 3V-3H397.673V3H398.671ZM400.667 3V-3H399.669V3H400.667ZM402.663 3V-3H401.665V3H402.663ZM404.658 3V-3H403.66V3H404.658ZM406.654 3V-3H405.656V3H406.654ZM408.649 3V-3H407.652V3H408.649ZM410.646 3V-3H409.647V3H410.646ZM412.642 3V-3H411.644V3H412.642ZM414.637 3V-3H413.64V3H414.637ZM416.633 3V-3H415.635V3H416.633ZM418.629 3V-3H417.631V3H418.629ZM420.624 3V-3H419.626V3H420.624ZM422.62 3V-3H421.622V3H422.62ZM424.615 3V-3H423.618V3H424.615ZM426.611 3V-3H425.613V3H426.611ZM428.607 3V-3H427.609V3H428.607ZM430.603 3V-3H429.604V3H430.603ZM432.599 3V-3H431.601V3H432.599ZM434.595 3V-3H433.597V3H434.595ZM436.59 3V-3H435.592V3H436.59ZM438.586 3V-3H437.588V3H438.586ZM440.581 3V-3H439.584V3H440.581ZM442.577 3V-3H441.579V3H442.577ZM444.573 3V-3H443.575V3H444.573ZM446.568 3V-3H445.57V3H446.568ZM448.564 3V-3H447.566V3H448.564ZM450.561 3V-3H449.562V3H450.561ZM452.556 3V-3H451.558V3H452.556ZM454.552 3V-3H453.554V3H454.552ZM456.547 3V-3H455.55V3H456.547ZM458.543 3V-3H457.545V3H458.543ZM460.539 3V-3H459.541V3H460.539ZM462.534 3V-3H461.537V3H462.534ZM464.53 3V-3H463.532V3H464.53ZM466.526 3V-3H465.528V3H466.526ZM468.521 3V-3H467.523V3H468.521ZM470.518 3V-3H469.52V3H470.518ZM472.513 3V-3H471.516V3H472.513ZM474.509 3V-3H473.511V3H474.509ZM476.505 3V-3H475.507V3H476.505ZM11.0449 3.19043C11.1856 3.1626 11.3278 3.13906 11.4707 3.11719C11.4808 3.11564 11.4909 3.11382 11.501 3.1123C11.6068 3.09643 11.7133 3.08089 11.8203 3.06836L11.4707 0.0888672L11.3359 -1.06934L11.1221 -2.88867C11.1042 -2.88658 11.0862 -2.88496 11.0684 -2.88281C10.675 -2.83538 10.2859 -2.77379 9.90137 -2.69824C9.89454 -2.6969 9.88769 -2.69569 9.88086 -2.69434L10.4629 0.24707L11.0449 3.19043ZM480.537 0.24707L481.118 -2.69434C481.111 -2.69569 481.104 -2.6969 481.098 -2.69824C480.713 -2.77377 480.324 -2.8354 479.931 -2.88281C479.913 -2.88496 479.895 -2.88658 479.877 -2.88867L479.529 0.0888672L479.373 1.41797L479.18 3.06836C479.286 3.08086 479.392 3.09649 479.498 3.1123C479.508 3.11382 479.518 3.11564 479.528 3.11719C479.672 3.1391 479.814 3.16254 479.955 3.19043L480.537 0.24707ZM9.53809 3.61426C9.68792 3.55897 9.84006 3.50913 9.99316 3.46094C10.0272 3.45021 10.0615 3.44006 10.0957 3.42969C10.158 3.41081 10.2204 3.39072 10.2832 3.37305L9.46973 0.485352L9.34961 0.0566406L8.65723 -2.40234C8.25185 -2.28823 7.85257 -2.15916 7.46094 -2.01465L7.97949 -0.607422L9.53809 3.61426ZM483.021 -0.607422H483.02L483.539 -2.01465C483.147 -2.15916 482.748 -2.28822 482.343 -2.40234L481.53 0.485352L481.401 0.943359L480.717 3.37305C480.779 3.39064 480.841 3.41091 480.903 3.42969C480.938 3.44006 480.972 3.45021 481.006 3.46094C481.159 3.50922 481.312 3.55886 481.462 3.61426L483.021 -0.607422ZM8.19824 4.22754C8.22965 4.21031 8.26136 4.19366 8.29297 4.17676C8.4006 4.11918 8.50925 4.06345 8.61914 4.00977C8.64452 3.99738 8.66982 3.98483 8.69531 3.97266C8.73483 3.95377 8.77368 3.93342 8.81348 3.91504L8.18359 2.55371L8.18457 2.55273L7.55566 1.19141L7.03223 0.0566406L6.29785 -1.53125C6.29164 -1.52838 6.28551 -1.52534 6.2793 -1.52246C5.91517 -1.35372 5.55844 -1.1721 5.20996 -0.977539C5.19953 -0.97171 5.18913 -0.965813 5.17871 -0.959961L6.64648 1.65527L7.15039 2.55273L8.11523 4.27148C8.14253 4.25616 8.17079 4.24261 8.19824 4.22754ZM482.885 4.27148L483.85 2.55273L484.354 1.65527L485.82 -0.959961C485.81 -0.965813 485.799 -0.97171 485.789 -0.977539C485.441 -1.17208 485.084 -1.35374 484.72 -1.52246C484.714 -1.52534 484.707 -1.52838 484.701 -1.53125L483.444 1.19141L482.815 2.55273V2.55371L482.187 3.91504C482.226 3.9333 482.264 3.9539 482.304 3.97266C482.329 3.98483 482.354 3.99738 482.38 4.00977C482.49 4.06344 482.598 4.11919 482.706 4.17676C482.738 4.19366 482.769 4.21031 482.801 4.22754C482.828 4.24274 482.857 4.25603 482.885 4.27148ZM6.92676 5.05762C6.96935 5.025 7.01156 4.99191 7.05469 4.95996C7.16178 4.8806 7.2706 4.80361 7.38086 4.72852C7.3928 4.72038 7.40403 4.7112 7.41602 4.70312C7.42605 4.69635 7.43623 4.68935 7.44629 4.68262L5.77734 2.18945L4.1084 -0.302734C4.10232 -0.298668 4.09591 -0.29509 4.08984 -0.291016C3.74783 -0.0613708 3.41522 0.181007 3.09277 0.435547L4.95117 2.79004L6.81055 5.14551C6.84864 5.11543 6.88822 5.08714 6.92676 5.05762ZM486.049 2.79004L487.907 0.435547C487.585 0.18084 487.251 -0.0612335 486.909 -0.291016C486.903 -0.29509 486.897 -0.298668 486.891 -0.302734L485.223 2.18945L483.554 4.68262C483.564 4.6892 483.573 4.6965 483.583 4.70312C483.595 4.7112 483.606 4.72038 483.618 4.72852C483.728 4.8036 483.837 4.88061 483.944 4.95996C483.987 4.99191 484.03 5.025 484.072 5.05762C484.111 5.0873 484.151 5.11527 484.189 5.14551L486.049 2.79004ZM5.65625 6.21289C5.83437 6.02029 6.02029 5.83437 6.21289 5.65625L5.19336 4.55566L4.17578 3.4541L2.13867 1.25195C2.12193 1.26743 2.10554 1.28328 2.08887 1.29883C1.8161 1.55327 1.55227 1.81705 1.29785 2.08984C1.2823 2.10651 1.26646 2.12291 1.25098 2.13965L3.4541 4.17578L3.6709 4.37598L5.65625 6.21289ZM486.444 5.19434L487.546 4.17578L489.748 2.13965C489.733 2.12291 489.717 2.10651 489.701 2.08984C489.447 1.81705 489.183 1.55327 488.91 1.29883C488.893 1.28328 488.877 1.26743 488.86 1.25195L486.824 3.4541L486.676 3.61426L485.806 4.55469V4.55566L484.787 5.65625C484.98 5.83437 485.166 6.02029 485.344 6.21289L486.444 5.19434ZM4.68262 7.44629C4.77137 7.31372 4.86412 7.18372 4.95898 7.05566C4.99092 7.01254 5.02403 6.97033 5.05664 6.92773C5.08644 6.88883 5.11515 6.849 5.14551 6.81055L2.79004 4.95117L0.435547 3.09277C0.180843 3.41543 -0.0612334 3.74857 -0.291016 4.09082C-0.295093 4.09689 -0.298665 4.1033 -0.302734 4.10938L2.18945 5.77734L4.68262 7.44629ZM488.811 5.77734L491.303 4.10938C491.299 4.1033 491.295 4.09689 491.291 4.09082C491.061 3.74857 490.819 3.41543 490.564 3.09277L488.21 4.95117L485.854 6.81055C485.885 6.84885 485.913 6.88899 485.942 6.92773C485.975 6.97033 486.008 7.01254 486.04 7.05566C486.135 7.18387 486.229 7.31356 486.317 7.44629L488.811 5.77734ZM3.97168 8.69629C3.98386 8.67079 3.9964 8.64549 4.00879 8.62012C4.06245 8.51022 4.11822 8.40158 4.17578 8.29395C4.19267 8.26234 4.20934 8.23063 4.22656 8.19922C4.24184 8.17138 4.25595 8.14291 4.27148 8.11523L2.96289 7.38184L1.65527 6.64648L-0.959961 5.17969C-0.965812 5.19011 -0.971711 5.2005 -0.977539 5.21094C-1.17532 5.56525 -1.36114 5.92738 -1.53223 6.29785L1.19141 7.55566L2.55273 8.18457L3.91504 8.81348C3.93324 8.77407 3.95298 8.73542 3.97168 8.69629ZM487.085 8.81348L489.809 7.55566L490.976 7.0166L492.532 6.29785C492.361 5.92738 492.175 5.56525 491.978 5.21094C491.972 5.2005 491.966 5.19011 491.96 5.17969L489.345 6.64648L488.686 7.0166L488.036 7.38086V7.38184L486.729 8.11523C486.744 8.14278 486.757 8.17152 486.772 8.19922C486.79 8.23063 486.806 8.26233 486.823 8.29395C486.881 8.40159 486.937 8.51022 486.99 8.62012C487.003 8.64549 487.015 8.67079 487.027 8.69629C487.046 8.73555 487.067 8.77394 487.085 8.81348ZM3.42871 10.0967C3.43908 10.0625 3.44924 10.0282 3.45996 9.99414C3.50826 9.84064 3.55883 9.6883 3.61426 9.53809L-0.607422 7.97949V7.98047L-2.01465 7.46094C-2.15917 7.85258 -2.28823 8.25185 -2.40234 8.65723L0.485352 9.46973L3.37305 10.2832C3.39062 10.2208 3.40996 10.1586 3.42871 10.0967ZM490.515 9.46973L493.402 8.65723C493.288 8.25185 493.159 7.85258 493.015 7.46094L491.607 7.98047V7.97949L487.386 9.53809C487.441 9.68821 487.491 9.84074 487.539 9.99414C487.55 10.0282 487.56 10.0625 487.57 10.0967C487.589 10.1587 487.609 10.2207 487.627 10.2832L490.515 9.46973ZM3.06836 11.8203C3.09904 11.5585 3.14003 11.2997 3.19043 11.0449L0.24707 10.4629L-1.22363 10.1719V10.1729L-2.69531 9.88086C-2.77274 10.2723 -2.83453 10.6687 -2.88281 11.0693C-2.88496 11.0872 -2.88658 11.1051 -2.88867 11.123L-1.39941 11.2969H-1.40039L0.0888672 11.4707L1.5791 11.6455L3.06836 11.8203ZM487.932 11.8203L490.911 11.4707L492.4 11.2969H492.399L493.889 11.123C493.887 11.1051 493.885 11.0872 493.883 11.0693C493.835 10.6687 493.773 10.2723 493.695 9.88086L492.224 10.1729V10.1719L490.753 10.4629L487.81 11.0449C487.86 11.2997 487.901 11.5585 487.932 11.8203ZM3.00781 12.6045L0.00976562 12.4893L-1.48926 12.4307V12.4316L-2.98633 12.374C-2.98719 12.3965 -2.98849 12.4189 -2.98926 12.4414C-2.99565 12.627 -3 12.8131 -3 13V13.4951H3V13C3 12.8675 3.00275 12.7355 3.00781 12.6045ZM493.989 12.4414C493.988 12.4189 493.987 12.3965 493.986 12.374L492.489 12.4316V12.4307L490.99 12.4893L487.992 12.6045C487.997 12.7355 488 12.8675 488 13V13.5H494V13C494 12.8131 493.996 12.627 493.989 12.4414ZM3 15.4746V14.4844H-3V15.4746H3ZM494 15.5V14.5H488V15.5H494ZM3 17.4541V16.4639H-3V17.4541H3ZM494 17.5V16.5H488V17.5H494ZM3 19.4336V18.4434H-3V19.4336H3ZM494 19.5V18.5H488V19.5H494ZM3 21.4131V20.4238H-3V21.4131H3ZM494 21.5V20.5H488V21.5H494ZM3 23.3926V22.4033H-3V23.3926H3ZM494 23.5V22.5H488V23.5H494ZM3 25.3721V24.3828H-3V25.3721H3ZM494 25.5V24.5H488V25.5H494ZM3 27.3516V26.3623H-3V27.3516H3ZM494 27.5V26.5H488V27.5H494ZM3 29.332V28.3418H-3V29.332H3ZM494 29.5V28.5H488V29.5H494ZM3 31.3115V30.3213H-3V31.3115H3ZM494 31.5V30.5H488V31.5H494ZM3 33.291V32.3008H-3V33.291H3ZM494 33.5V32.5H488V33.5H494ZM3 35.2705V34.2803H-3V35.2705H3ZM494 35.5V34.5H488V35.5H494ZM3 37.25V36.2598H-3V37.25H3ZM494 37.5V36.5H488V37.5H494ZM3 39.2295V38.2402H-3V39.2295H3ZM494 39.5V38.5H488V39.5H494ZM3 41.209V40.2197H-3V41.209H3ZM494 41.5V40.5H488V41.5H494ZM3 43.1885V42.1992H-3V43.1885H3ZM494 43.5V42.5H488V43.5H494ZM3 45.168V44.1787H-3V45.168H3ZM494 45.5V44.5H488V45.5H494ZM3 47.1484V46.1582H-3V47.1484H3ZM494 47.5V46.5H488V47.5H494ZM3 49.1279V48.1377H-3V49.1279H3ZM494 49.5V48.5H488V49.5H494ZM3 51.1074V50.1172H-3V51.1074H3ZM494 51.5V50.5H488V51.5H494ZM3 53.0869V52.0967H-3V53.0869H3ZM494 53.5V52.5H488V53.5H494ZM3 55.0664V54.0762H-3V55.0664H3ZM494 55.5V54.5H488V55.5H494ZM3 57.0459V56.0557H-3V57.0459H3ZM494 57.5V56.5H488V57.5H494ZM3 59.0254V58.0361H-3V59.0254H3ZM494 59.5V58.5H488V59.5H494ZM3 61.0049V60.0156H-3V61.0049H3ZM494 61.5V60.5H488V61.5H494ZM3 62.9844V61.9951H-3V62.9844H3ZM494 63.5V62.5H488V63.5H494ZM3 64.9639V63.9746H-3V64.9639H3ZM494 65.5V64.5H488V65.5H494ZM3 66.9443V65.9541H-3V66.9443H3ZM494 67.5V66.5H488V67.5H494ZM3 68.9238V67.9336H-3V68.9238H3ZM494 69.5V68.5H488V69.5H494ZM3 70.9033V69.9131H-3V70.9033H3ZM494 71.5V70.5H488V71.5H494ZM3 72.8828V71.8926H-3V72.8828H3ZM494 73.5V72.5H488V73.5H494ZM3 74.8623V73.8721H-3V74.8623H3ZM494 75.5V74.5H488V75.5H494ZM3 76.8418V75.8516H-3V76.8418H3ZM494 77.5V76.5H488V77.5H494ZM3 78.8213V77.832H-3V78.8213H3ZM494 79.5V78.5H488V79.5H494ZM3 80.8008V79.8115H-3V80.8008H3ZM494 81.5V80.5H488V81.5H494ZM3 82.7803V81.791H-3V82.7803H3ZM494 83.5V82.5H488V83.5H494ZM3 84.7598V83.7705H-3V84.7598H3ZM494 85.5V84.5H488V85.5H494ZM3 86.7402V85.75H-3V86.7402H3ZM494 87.5V86.5H488V87.5H494ZM3 88.7197V87.7295H-3V88.7197H3ZM494 89.5V88.5H488V89.5H494ZM3 90.6992V89.709H-3V90.6992H3ZM494 91.5V90.5H488V91.5H494ZM3 92.6787V91.6885H-3V92.6787H3ZM494 93.5V92.5H488V93.5H494ZM3 94.6582V93.668H-3V94.6582H3ZM494 95.5V94.5H488V95.5H494ZM3 96.6377V95.6484H-3V96.6377H3ZM494 97.5V96.5H488V97.5H494ZM3 98.6172V97.6279H-3V98.6172H3ZM494 99.5V98.5H488V99.5H494ZM3 100.597V99.6074H-3V100.597H3ZM494 101.5V100.5H488V101.5H494ZM3 102.576V101.587H-3V102.576H3ZM494 103.5V102.5H488V103.5H494ZM3 104.556V103.566H-3V104.556H3ZM494 105.5V104.5H488V105.5H494ZM3 106.536V105.546H-3V106.536H3ZM494 107.5V106.5H488V107.5H494ZM3 108.516V107.525H-2.99121C-2.98047 107.858 -2.9585 108.188 -2.92773 108.516H3ZM494 109.5V108.5H488V109.5H494ZM3 109.505H-2.80371C-2.74497 109.878 -2.67397 110.248 -2.58984 110.612L0.00976562 110.511L3.00684 110.396C3.0038 110.265 3 110.133 3 110V109.505ZM494 111.5V110.5H488V111.5H494ZM0.24707 112.537L3.11426 111.971C3.08386 111.711 3.06135 111.448 3.04297 111.184L0.0888672 111.529L-1.40039 111.703L-1.39941 111.704L-2.26465 111.806C-2.14225 112.195 -2.0052 112.577 -1.85449 112.953L0.24707 112.537ZM494 113.5V112.5H488V113.5H494ZM-0.803711 115.093L0.696289 114.539L0.799805 114.501L3.37891 113.549C3.32217 113.288 3.27091 113.025 3.22656 112.758L0.485352 113.53L-0.708984 113.866L-0.958984 113.937L-0.958008 113.938L-1.36523 114.052C-1.19077 114.406 -1.00308 114.753 -0.803711 115.093ZM0.507812 116.998L1.65527 116.354L2.96387 115.619H2.96289L3.81348 115.142C3.72683 114.88 3.64683 114.615 3.57324 114.345L2.55273 114.816V114.815L1.19141 115.444L-0.170898 116.073L-0.169922 116.074L-0.175781 116.076C0.041814 116.391 0.268729 116.7 0.507812 116.998ZM494 115.5V114.5H488V115.5H494ZM2.79004 118.049L4.44629 116.741C4.32452 116.481 4.21322 116.213 4.10547 115.94L2.18945 117.223L1.24512 117.854C1.49793 118.128 1.76009 118.393 2.03125 118.648L2.79004 118.049ZM494 117.5V116.5H488V117.5H494ZM4.17578 119.546L4.93164 118.729L5.31348 118.316C5.15132 118.063 4.9988 117.801 4.85156 117.532L3.4541 118.824L2.85742 119.376C3.13765 119.606 3.42602 119.826 3.72168 120.037L4.17578 119.546ZM494 119.5V118.5H488V119.5H494ZM5.77734 120.811L6.44434 119.813C6.23681 119.579 6.0367 119.334 5.84473 119.078L4.95117 120.21L4.61816 120.632C4.91995 120.818 5.22834 120.994 5.54297 121.16L5.77734 120.811ZM494 121.5V120.5H488V121.5H494ZM7.55566 121.809L7.7627 121.359L7.8584 121.152C7.6025 120.953 7.35557 120.737 7.11523 120.509L6.64648 121.345L6.49121 121.621C6.80882 121.763 7.13183 121.895 7.45996 122.016L7.55566 121.809ZM9.46973 122.515L9.55566 122.209C9.25479 122.065 8.96133 121.903 8.6748 121.724L8.49902 122.2L8.44629 122.342C8.77477 122.439 9.10741 122.527 9.44434 122.604L9.46973 122.515ZM494 123V122.5H488V123H494ZM11.4707 122.911L11.4775 122.852C11.1443 122.785 10.8167 122.697 10.4951 122.589L10.4629 122.753L10.4541 122.798C10.789 122.851 11.1273 122.894 11.4688 122.927L11.4707 122.911ZM13 123C12.8287 123 12.6584 122.995 12.4893 122.984V122.99L12.4883 122.992C12.6582 122.998 12.8288 123 13 123Z" fill="white" mask="url(#path-1-inside-1_8_30711)"/>
<path d="M515.061 123.061C515.646 122.475 515.646 121.525 515.061 120.939L505.515 111.393C504.929 110.808 503.979 110.808 503.393 111.393C502.808 111.979 502.808 112.929 503.393 113.515L511.879 122L503.393 130.485C502.808 131.071 502.808 132.021 503.393 132.607C503.979 133.192 504.929 133.192 505.515 132.607L515.061 123.061ZM491 122L491 123.5L491.479 123.5L491.479 122L491.479 120.5L491 120.5L491 122ZM492.438 122L492.438 123.5L493.396 123.5L493.396 122L493.396 120.5L492.437 120.5L492.438 122ZM494.354 122L494.354 123.5L495.313 123.5L495.312 122L495.312 120.5L494.354 120.5L494.354 122ZM496.271 122L496.271 123.5L497.229 123.5L497.229 122L497.229 120.5L496.271 120.5L496.271 122ZM498.188 122L498.188 123.5L499.146 123.5L499.146 122L499.146 120.5L498.188 120.5L498.188 122ZM500.104 122L500.104 123.5L501.063 123.5L501.062 122L501.062 120.5L500.104 120.5L500.104 122ZM502.021 122L502.021 123.5L502.979 123.5L502.979 122L502.979 120.5L502.021 120.5L502.021 122ZM503.937 122L503.937 123.5L504.896 123.5L504.896 122L504.896 120.5L503.937 120.5L503.937 122ZM505.854 122L505.854 123.5L506.812 123.5L506.812 122L506.812 120.5L505.854 120.5L505.854 122ZM507.771 122L507.771 123.5L508.729 123.5L508.729 122L508.729 120.5L507.771 120.5L507.771 122ZM509.688 122L509.688 123.5L510.646 123.5L510.646 122L510.646 120.5L509.687 120.5L509.688 122ZM511.604 122L511.604 123.5L512.563 123.5L512.563 122L512.563 120.5L511.604 120.5L511.604 122ZM513.521 122L513.521 123.5L514 123.5L514 122L514 120.5L513.521 120.5L513.521 122ZM515.061 123.061C515.646 122.475 515.646 121.525 515.061 120.939L505.515 111.393C504.929 110.808 503.979 110.808 503.393 111.393C502.808 111.979 502.808 112.929 503.393 113.515L511.879 122L503.393 130.485C502.808 131.071 502.808 132.021 503.393 132.607C503.979 133.192 504.929 133.192 505.515 132.607L515.061 123.061ZM491 122L491 123.5L491.479 123.5L491.479 122L491.479 120.5L491 120.5L491 122ZM492.438 122L492.438 123.5L493.396 123.5L493.396 122L493.396 120.5L492.437 120.5L492.438 122ZM494.354 122L494.354 123.5L495.313 123.5L495.312 122L495.312 120.5L494.354 120.5L494.354 122ZM496.271 122L496.271 123.5L497.229 123.5L497.229 122L497.229 120.5L496.271 120.5L496.271 122ZM498.188 122L498.188 123.5L499.146 123.5L499.146 122L499.146 120.5L498.188 120.5L498.188 122ZM500.104 122L500.104 123.5L501.063 123.5L501.062 122L501.062 120.5L500.104 120.5L500.104 122ZM502.021 122L502.021 123.5L502.979 123.5L502.979 122L502.979 120.5L502.021 120.5L502.021 122ZM503.937 122L503.937 123.5L504.896 123.5L504.896 122L504.896 120.5L503.937 120.5L503.937 122ZM505.854 122L505.854 123.5L506.812 123.5L506.812 122L506.812 120.5L505.854 120.5L505.854 122ZM507.771 122L507.771 123.5L508.729 123.5L508.729 122L508.729 120.5L507.771 120.5L507.771 122ZM509.688 122L509.688 123.5L510.646 123.5L510.646 122L510.646 120.5L509.687 120.5L509.688 122ZM511.604 122L511.604 123.5L512.563 123.5L512.563 122L512.563 120.5L511.604 120.5L511.604 122ZM513.521 122L513.521 123.5L514 123.5L514 122L514 120.5L513.521 120.5L513.521 122Z" fill="white"/>
</svg>
