<svg width="516" height="134" viewBox="0 0 516 134" fill="none" xmlns="http://www.w3.org/2000/svg">
<mask id="path-1-inside-1_8_30705" fill="white">
<path d="M0 24C0 16.8203 5.8203 11 13 11H491V121C491 128.18 485.18 134 478 134H13C5.82029 134 0 128.18 0 121V24Z"/>
</mask>
<path d="M13 131V137C12.79 137 12.5811 136.994 12.373 136.986L12.4893 133.99L12.6045 130.992C12.7355 130.997 12.8675 131 13 131ZM478.511 133.99L478.569 135.489H478.568L478.626 136.986C478.418 136.994 478.21 137 478 137H477.502V131H478C478.133 131 478.265 130.997 478.396 130.992L478.511 133.99ZM13.499 131V137H13V131H13.499ZM15.4941 131V137H14.4971V131H15.4941ZM17.4902 131V137H16.4922V131H17.4902ZM19.4863 131V137H18.4883V131H19.4863ZM21.4814 131V137H20.4844V131H21.4814ZM23.4775 131V137H22.4795V131H23.4775ZM25.4736 131V137H24.4756V131H25.4736ZM27.4688 131V137H26.4707V131H27.4688ZM29.4648 131V137H28.4668V131H29.4648ZM31.46 131V137H30.4629V131H31.46ZM33.4561 131V137H32.458V131H33.4561ZM35.4521 131V137H34.4541V131H35.4521ZM37.4473 131V137H36.4492V131H37.4473ZM39.4434 131V137H38.4453V131H39.4434ZM41.4385 131V137H40.4414V131H41.4385ZM43.4346 131V137H42.4365V131H43.4346ZM45.4307 131V137H44.4326V131H45.4307ZM47.4258 131V137H46.4277V131H47.4258ZM49.4219 131V137H48.4238V131H49.4219ZM51.417 131V137H50.4199V131H51.417ZM53.4131 131V137H52.415V131H53.4131ZM55.4092 131V137H54.4111V131H55.4092ZM57.4043 131V137H56.4062V131H57.4043ZM59.4004 131V137H58.4023V131H59.4004ZM61.3955 131V137H60.3984V131H61.3955ZM63.3916 131V137H62.3936V131H63.3916ZM65.3877 131V137H64.3896V131H65.3877ZM67.3828 131V137H66.3848V131H67.3828ZM69.3789 131V137H68.3809V131H69.3789ZM71.374 131V137H70.377V131H71.374ZM73.3701 131V137H72.3721V131H73.3701ZM75.3662 131V137H74.3682V131H75.3662ZM77.3613 131V137H76.3633V131H77.3613ZM79.3574 131V137H78.3594V131H79.3574ZM81.3525 131V137H80.3555V131H81.3525ZM83.3486 131V137H82.3506V131H83.3486ZM85.3447 131V137H84.3467V131H85.3447ZM87.3398 131V137H86.3418V131H87.3398ZM89.3359 131V137H88.3379V131H89.3359ZM91.3311 131V137H90.334V131H91.3311ZM93.3271 131V137H92.3291V131H93.3271ZM95.3232 131V137H94.3252V131H95.3232ZM97.3184 131V137H96.3203V131H97.3184ZM99.3145 131V137H98.3164V131H99.3145ZM101.311 131V137H100.312V131H101.311ZM103.306 131V137H102.308V131H103.306ZM105.302 131V137H104.304V131H105.302ZM107.297 131V137H106.3V131H107.297ZM109.293 131V137H108.295V131H109.293ZM111.289 131V137H110.291V131H111.289ZM113.284 131V137H112.286V131H113.284ZM115.28 131V137H114.282V131H115.28ZM117.275 131V137H116.278V131H117.275ZM119.271 131V137H118.273V131H119.271ZM121.268 131V137H120.27V131H121.268ZM123.263 131V137H122.265V131H123.263ZM125.259 131V137H124.261V131H125.259ZM127.254 131V137H126.257V131H127.254ZM129.25 131V137H128.252V131H129.25ZM131.246 131V137H130.248V131H131.246ZM133.241 131V137H132.243V131H133.241ZM135.237 131V137H134.239V131H135.237ZM137.232 131V137H136.235V131H137.232ZM139.229 131V137H138.23V131H139.229ZM141.225 131V137H140.227V131H141.225ZM143.22 131V137H142.223V131H143.22ZM145.216 131V137H144.218V131H145.216ZM147.211 131V137H146.214V131H147.211ZM149.207 131V137H148.209V131H149.207ZM151.203 131V137H150.205V131H151.203ZM153.198 131V137H152.2V131H153.198ZM155.194 131V137H154.196V131H155.194ZM157.189 131V137H156.192V131H157.189ZM159.186 131V137H158.188V131H159.186ZM161.182 131V137H160.184V131H161.182ZM163.177 131V137H162.179V131H163.177ZM165.173 131V137H164.175V131H165.173ZM167.168 131V137H166.171V131H167.168ZM169.164 131V137H168.166V131H169.164ZM171.16 131V137H170.162V131H171.16ZM173.155 131V137H172.157V131H173.155ZM175.151 131V137H174.153V131H175.151ZM177.146 131V137H176.149V131H177.146ZM179.143 131V137H178.145V131H179.143ZM181.139 131V137H180.141V131H181.139ZM183.134 131V137H182.136V131H183.134ZM185.13 131V137H184.132V131H185.13ZM187.125 131V137H186.128V131H187.125ZM189.121 131V137H188.123V131H189.121ZM191.117 131V137H190.119V131H191.117ZM193.112 131V137H192.114V131H193.112ZM195.108 131V137H194.11V131H195.108ZM197.104 131V137H196.106V131H197.104ZM199.1 131V137H198.102V131H199.1ZM201.096 131V137H200.098V131H201.096ZM203.091 131V137H202.093V131H203.091ZM205.087 131V137H204.089V131H205.087ZM207.082 131V137H206.084V131H207.082ZM209.078 131V137H208.08V131H209.078ZM211.073 131V137H210.076V131H211.073ZM213.069 131V137H212.071V131H213.069ZM215.065 131V137H214.067V131H215.065ZM217.061 131V137H216.062V131H217.061ZM219.057 131V137H218.059V131H219.057ZM221.052 131V137H220.055V131H221.052ZM223.048 131V137H222.05V131H223.048ZM225.044 131V137H224.046V131H225.044ZM227.039 131V137H226.041V131H227.039ZM229.035 131V137H228.037V131H229.035ZM231.03 131V137H230.033V131H231.03ZM233.026 131V137H232.028V131H233.026ZM235.022 131V137H234.024V131H235.022ZM237.018 131V137H236.02V131H237.018ZM239.014 131V137H238.016V131H239.014ZM241.009 131V137H240.012V131H241.009ZM243.005 131V137H242.007V131H243.005ZM245.001 131V137H244.003V131H245.001ZM246.996 131V137H245.998V131H246.996ZM248.992 131V137H247.994V131H248.992ZM250.987 131V137H249.99V131H250.987ZM252.983 131V137H251.985V131H252.983ZM254.979 131V137H253.981V131H254.979ZM256.975 131V137H255.977V131H256.975ZM258.971 131V137H257.973V131H258.971ZM260.966 131V137H259.969V131H260.966ZM262.962 131V137H261.964V131H262.962ZM264.958 131V137H263.96V131H264.958ZM266.953 131V137H265.955V131H266.953ZM268.949 131V137H267.951V131H268.949ZM270.944 131V137H269.947V131H270.944ZM272.94 131V137H271.942V131H272.94ZM274.937 131V137H273.938V131H274.937ZM276.932 131V137H275.934V131H276.932ZM278.928 131V137H277.93V131H278.928ZM280.923 131V137H279.926V131H280.923ZM282.919 131V137H281.921V131H282.919ZM284.915 131V137H283.917V131H284.915ZM286.91 131V137H285.912V131H286.91ZM288.906 131V137H287.908V131H288.906ZM290.902 131V137H289.904V131H290.902ZM292.897 131V137H291.899V131H292.897ZM294.894 131V137H293.896V131H294.894ZM296.889 131V137H295.892V131H296.889ZM298.885 131V137H297.887V131H298.885ZM300.881 131V137H299.883V131H300.881ZM302.876 131V137H301.878V131H302.876ZM304.872 131V137H303.874V131H304.872ZM306.868 131V137H305.87V131H306.868ZM308.863 131V137H307.865V131H308.863ZM310.859 131V137H309.861V131H310.859ZM312.854 131V137H311.857V131H312.854ZM314.851 131V137H313.853V131H314.851ZM316.847 131V137H315.849V131H316.847ZM318.842 131V137H317.845V131H318.842ZM320.838 131V137H319.84V131H320.838ZM322.834 131V137H321.836V131H322.834ZM324.829 131V137H323.831V131H324.829ZM326.825 131V137H325.827V131H326.825ZM328.82 131V137H327.823V131H328.82ZM330.816 131V137H329.818V131H330.816ZM332.812 131V137H331.814V131H332.812ZM334.808 131V137H333.81V131H334.808ZM336.804 131V137H335.806V131H336.804ZM338.8 131V137H337.802V131H338.8ZM340.795 131V137H339.797V131H340.795ZM342.791 131V137H341.793V131H342.791ZM344.786 131V137H343.789V131H344.786ZM346.782 131V137H345.784V131H346.782ZM348.778 131V137H347.78V131H348.778ZM350.773 131V137H349.775V131H350.773ZM352.77 131V137H351.771V131H352.77ZM354.766 131V137H353.768V131H354.766ZM356.761 131V137H355.763V131H356.761ZM358.757 131V137H357.759V131H358.757ZM360.752 131V137H359.755V131H360.752ZM362.748 131V137H361.75V131H362.748ZM364.744 131V137H363.746V131H364.744ZM366.739 131V137H365.742V131H366.739ZM368.735 131V137H367.737V131H368.735ZM370.731 131V137H369.733V131H370.731ZM372.727 131V137H371.729V131H372.727ZM374.723 131V137H373.725V131H374.723ZM376.718 131V137H375.721V131H376.718ZM378.714 131V137H377.716V131H378.714ZM380.71 131V137H379.712V131H380.71ZM382.705 131V137H381.707V131H382.705ZM384.701 131V137H383.703V131H384.701ZM386.697 131V137H385.699V131H386.697ZM388.692 131V137H387.694V131H388.692ZM390.688 131V137H389.69V131H390.688ZM392.684 131V137H391.687V131H392.684ZM394.68 131V137H393.682V131H394.68ZM396.676 131V137H395.678V131H396.676ZM398.671 131V137H397.673V131H398.671ZM400.667 131V137H399.669V131H400.667ZM402.663 131V137H401.665V131H402.663ZM404.658 131V137H403.66V131H404.658ZM406.654 131V137H405.656V131H406.654ZM408.649 131V137H407.652V131H408.649ZM410.646 131V137H409.647V131H410.646ZM412.642 131V137H411.644V131H412.642ZM414.637 131V137H413.64V131H414.637ZM416.633 131V137H415.635V131H416.633ZM418.629 131V137H417.631V131H418.629ZM420.624 131V137H419.626V131H420.624ZM422.62 131V137H421.622V131H422.62ZM424.615 131V137H423.618V131H424.615ZM426.611 131V137H425.613V131H426.611ZM428.607 131V137H427.609V131H428.607ZM430.603 131V137H429.604V131H430.603ZM432.599 131V137H431.601V131H432.599ZM434.595 131V137H433.597V131H434.595ZM436.59 131V137H435.592V131H436.59ZM438.586 131V137H437.588V131H438.586ZM440.581 131V137H439.584V131H440.581ZM442.577 131V137H441.579V131H442.577ZM444.573 131V137H443.575V131H444.573ZM446.568 131V137H445.57V131H446.568ZM448.564 131V137H447.566V131H448.564ZM450.561 131V137H449.562V131H450.561ZM452.556 131V137H451.558V131H452.556ZM454.552 131V137H453.554V131H454.552ZM456.547 131V137H455.55V131H456.547ZM458.543 131V137H457.545V131H458.543ZM460.539 131V137H459.541V131H460.539ZM462.534 131V137H461.537V131H462.534ZM464.53 131V137H463.532V131H464.53ZM466.526 131V137H465.528V131H466.526ZM468.521 131V137H467.523V131H468.521ZM470.518 131V137H469.52V131H470.518ZM472.513 131V137H471.516V131H472.513ZM474.509 131V137H473.511V131H474.509ZM476.505 131V137H475.507V131H476.505ZM11.0449 130.81C11.1856 130.837 11.3278 130.861 11.4707 130.883C11.4808 130.884 11.4909 130.886 11.501 130.888C11.6068 130.904 11.7133 130.919 11.8203 130.932L11.4707 133.911L11.3359 135.069L11.1221 136.889C11.1042 136.887 11.0862 136.885 11.0684 136.883C10.675 136.835 10.2859 136.774 9.90137 136.698C9.89454 136.697 9.88769 136.696 9.88086 136.694L10.4629 133.753L11.0449 130.81ZM480.537 133.753L481.118 136.694C481.111 136.696 481.104 136.697 481.098 136.698C480.713 136.774 480.324 136.835 479.931 136.883C479.913 136.885 479.895 136.887 479.877 136.889L479.529 133.911L479.373 132.582L479.18 130.932C479.286 130.919 479.392 130.904 479.498 130.888C479.508 130.886 479.518 130.884 479.528 130.883C479.672 130.861 479.814 130.837 479.955 130.81L480.537 133.753ZM9.53809 130.386C9.68792 130.441 9.84006 130.491 9.99316 130.539C10.0272 130.55 10.0615 130.56 10.0957 130.57C10.158 130.589 10.2204 130.609 10.2832 130.627L9.46973 133.515L9.34961 133.943L8.65723 136.402C8.25185 136.288 7.85257 136.159 7.46094 136.015L7.97949 134.607L9.53809 130.386ZM483.021 134.607H483.02L483.539 136.015C483.147 136.159 482.748 136.288 482.343 136.402L481.53 133.515L481.401 133.057L480.717 130.627C480.779 130.609 480.841 130.589 480.903 130.57C480.938 130.56 480.972 130.55 481.006 130.539C481.159 130.491 481.312 130.441 481.462 130.386L483.021 134.607ZM8.19824 129.772C8.22965 129.79 8.26136 129.806 8.29297 129.823C8.4006 129.881 8.50925 129.937 8.61914 129.99C8.64452 130.003 8.66982 130.015 8.69531 130.027C8.73483 130.046 8.77368 130.067 8.81348 130.085L8.18359 131.446L8.18457 131.447L7.55566 132.809L7.03223 133.943L6.29785 135.531C6.29164 135.528 6.28551 135.525 6.2793 135.522C5.91517 135.354 5.55844 135.172 5.20996 134.978C5.19953 134.972 5.18913 134.966 5.17871 134.96L6.64648 132.345L7.15039 131.447L8.11523 129.729C8.14253 129.744 8.17079 129.757 8.19824 129.772ZM482.885 129.729L483.85 131.447L484.354 132.345L485.82 134.96C485.81 134.966 485.799 134.972 485.789 134.978C485.441 135.172 485.084 135.354 484.72 135.522C484.714 135.525 484.707 135.528 484.701 135.531L483.444 132.809L482.815 131.447V131.446L482.187 130.085C482.226 130.067 482.264 130.046 482.304 130.027C482.329 130.015 482.354 130.003 482.38 129.99C482.49 129.937 482.598 129.881 482.706 129.823C482.738 129.806 482.769 129.79 482.801 129.772C482.828 129.757 482.857 129.744 482.885 129.729ZM6.92676 128.942C6.96935 128.975 7.01156 129.008 7.05469 129.04C7.16178 129.119 7.2706 129.196 7.38086 129.271C7.3928 129.28 7.40403 129.289 7.41602 129.297C7.42605 129.304 7.43623 129.311 7.44629 129.317L5.77734 131.811L4.1084 134.303C4.10232 134.299 4.09591 134.295 4.08984 134.291C3.74783 134.061 3.41522 133.819 3.09277 133.564L4.95117 131.21L6.81055 128.854C6.84864 128.885 6.88822 128.913 6.92676 128.942ZM486.049 131.21L487.907 133.564C487.585 133.819 487.251 134.061 486.909 134.291C486.903 134.295 486.897 134.299 486.891 134.303L485.223 131.811L483.554 129.317C483.564 129.311 483.573 129.303 483.583 129.297C483.595 129.289 483.606 129.28 483.618 129.271C483.728 129.196 483.837 129.119 483.944 129.04C483.987 129.008 484.03 128.975 484.072 128.942C484.111 128.913 484.151 128.885 484.189 128.854L486.049 131.21ZM5.65625 127.787C5.83437 127.98 6.02029 128.166 6.21289 128.344L5.19336 129.444L4.17578 130.546L2.13867 132.748C2.12193 132.733 2.10554 132.717 2.08887 132.701C1.8161 132.447 1.55227 132.183 1.29785 131.91C1.2823 131.893 1.26646 131.877 1.25098 131.86L3.4541 129.824L3.6709 129.624L5.65625 127.787ZM486.444 128.806L487.546 129.824L489.748 131.86C489.733 131.877 489.717 131.893 489.701 131.91C489.447 132.183 489.183 132.447 488.91 132.701C488.893 132.717 488.877 132.733 488.86 132.748L486.824 130.546L486.676 130.386L485.806 129.445V129.444L484.787 128.344C484.98 128.166 485.166 127.98 485.344 127.787L486.444 128.806ZM4.68262 126.554C4.77137 126.686 4.86412 126.816 4.95898 126.944C4.99092 126.987 5.02403 127.03 5.05664 127.072C5.08644 127.111 5.11515 127.151 5.14551 127.189L2.79004 129.049L0.435547 130.907C0.180843 130.585 -0.0612334 130.251 -0.291016 129.909C-0.295093 129.903 -0.298665 129.897 -0.302734 129.891L2.18945 128.223L4.68262 126.554ZM488.811 128.223L491.303 129.891C491.299 129.897 491.295 129.903 491.291 129.909C491.061 130.251 490.819 130.585 490.564 130.907L488.21 129.049L485.854 127.189C485.885 127.151 485.913 127.111 485.942 127.072C485.975 127.03 486.008 126.987 486.04 126.944C486.135 126.816 486.229 126.686 486.317 126.554L488.811 128.223ZM3.97168 125.304C3.98386 125.329 3.9964 125.355 4.00879 125.38C4.06245 125.49 4.11822 125.598 4.17578 125.706C4.19267 125.738 4.20934 125.769 4.22656 125.801C4.24184 125.829 4.25595 125.857 4.27148 125.885L2.96289 126.618L1.65527 127.354L-0.959961 128.82C-0.965812 128.81 -0.971711 128.799 -0.977539 128.789C-1.17532 128.435 -1.36114 128.073 -1.53223 127.702L1.19141 126.444L2.55273 125.815L3.91504 125.187C3.93324 125.226 3.95298 125.265 3.97168 125.304ZM487.085 125.187L489.809 126.444L490.976 126.983L492.532 127.702C492.361 128.073 492.175 128.435 491.978 128.789C491.972 128.799 491.966 128.81 491.96 128.82L489.345 127.354L488.686 126.983L488.036 126.619V126.618L486.729 125.885C486.744 125.857 486.757 125.828 486.772 125.801C486.79 125.769 486.806 125.738 486.823 125.706C486.881 125.598 486.937 125.49 486.99 125.38C487.003 125.355 487.015 125.329 487.027 125.304C487.046 125.264 487.067 125.226 487.085 125.187ZM3.42871 123.903C3.43908 123.938 3.44924 123.972 3.45996 124.006C3.50826 124.159 3.55883 124.312 3.61426 124.462L-0.607422 126.021V126.02L-2.01465 126.539C-2.15917 126.147 -2.28823 125.748 -2.40234 125.343L0.485352 124.53L3.37305 123.717C3.39062 123.779 3.40996 123.841 3.42871 123.903ZM490.515 124.53L493.402 125.343C493.288 125.748 493.159 126.147 493.015 126.539L491.607 126.02V126.021L487.386 124.462C487.441 124.312 487.491 124.159 487.539 124.006C487.55 123.972 487.56 123.938 487.57 123.903C487.589 123.841 487.609 123.779 487.627 123.717L490.515 124.53ZM3.06836 122.18C3.09904 122.442 3.14003 122.7 3.19043 122.955L0.24707 123.537L-1.22363 123.828V123.827L-2.69531 124.119C-2.77274 123.728 -2.83453 123.331 -2.88281 122.931C-2.88496 122.913 -2.88658 122.895 -2.88867 122.877L-1.39941 122.703H-1.40039L0.0888672 122.529L1.5791 122.354L3.06836 122.18ZM487.932 122.18L490.911 122.529L492.4 122.703H492.399L493.889 122.877C493.887 122.895 493.885 122.913 493.883 122.931C493.835 123.331 493.773 123.728 493.695 124.119L492.224 123.827V123.828L490.753 123.537L487.81 122.955C487.86 122.7 487.901 122.442 487.932 122.18ZM3.00781 121.396L0.00976562 121.511L-1.48926 121.569V121.568L-2.98633 121.626C-2.98719 121.604 -2.98849 121.581 -2.98926 121.559C-2.99565 121.373 -3 121.187 -3 121V120.505H3V121C3 121.133 3.00275 121.265 3.00781 121.396ZM493.989 121.559C493.988 121.581 493.987 121.604 493.986 121.626L492.489 121.568V121.569L490.99 121.511L487.992 121.396C487.997 121.265 488 121.133 488 121V120.5H494V121C494 121.187 493.996 121.373 493.989 121.559ZM3 118.525V119.516H-3V118.525H3ZM494 118.5V119.5H488V118.5H494ZM3 116.546V117.536H-3V116.546H3ZM494 116.5V117.5H488V116.5H494ZM3 114.566V115.557H-3V114.566H3ZM494 114.5V115.5H488V114.5H494ZM3 112.587V113.576H-3V112.587H3ZM494 112.5V113.5H488V112.5H494ZM3 110.607V111.597H-3V110.607H3ZM494 110.5V111.5H488V110.5H494ZM3 108.628V109.617H-3V108.628H3ZM494 108.5V109.5H488V108.5H494ZM3 106.648V107.638H-3V106.648H3ZM494 106.5V107.5H488V106.5H494ZM3 104.668V105.658H-3V104.668H3ZM494 104.5V105.5H488V104.5H494ZM3 102.688V103.679H-3V102.688H3ZM494 102.5V103.5H488V102.5H494ZM3 100.709V101.699H-3V100.709H3ZM494 100.5V101.5H488V100.5H494ZM3 98.7295V99.7197H-3V98.7295H3ZM494 98.5V99.5H488V98.5H494ZM3 96.75V97.7402H-3V96.75H3ZM494 96.5V97.5H488V96.5H494ZM3 94.7705V95.7598H-3V94.7705H3ZM494 94.5V95.5H488V94.5H494ZM3 92.791V93.7803H-3V92.791H3ZM494 92.5V93.5H488V92.5H494ZM3 90.8115V91.8008H-3V90.8115H3ZM494 90.5V91.5H488V90.5H494ZM3 88.832V89.8213H-3V88.832H3ZM494 88.5V89.5H488V88.5H494ZM3 86.8516V87.8418H-3V86.8516H3ZM494 86.5V87.5H488V86.5H494ZM3 84.8721V85.8623H-3V84.8721H3ZM494 84.5V85.5H488V84.5H494ZM3 82.8926V83.8828H-3V82.8926H3ZM494 82.5V83.5H488V82.5H494ZM3 80.9131V81.9033H-3V80.9131H3ZM494 80.5V81.5H488V80.5H494ZM3 78.9336V79.9238H-3V78.9336H3ZM494 78.5V79.5H488V78.5H494ZM3 76.9541V77.9443H-3V76.9541H3ZM494 76.5V77.5H488V76.5H494ZM3 74.9746V75.9639H-3V74.9746H3ZM494 74.5V75.5H488V74.5H494ZM3 72.9951V73.9844H-3V72.9951H3ZM494 72.5V73.5H488V72.5H494ZM3 71.0156V72.0049H-3V71.0156H3ZM494 70.5V71.5H488V70.5H494ZM3 69.0361V70.0254H-3V69.0361H3ZM494 68.5V69.5H488V68.5H494ZM3 67.0557V68.0459H-3V67.0557H3ZM494 66.5V67.5H488V66.5H494ZM3 65.0762V66.0664H-3V65.0762H3ZM494 64.5V65.5H488V64.5H494ZM3 63.0967V64.0869H-3V63.0967H3ZM494 62.5V63.5H488V62.5H494ZM3 61.1172V62.1074H-3V61.1172H3ZM494 60.5V61.5H488V60.5H494ZM3 59.1377V60.1279H-3V59.1377H3ZM494 58.5V59.5H488V58.5H494ZM3 57.1582V58.1484H-3V57.1582H3ZM494 56.5V57.5H488V56.5H494ZM3 55.1787V56.168H-3V55.1787H3ZM494 54.5V55.5H488V54.5H494ZM3 53.1992V54.1885H-3V53.1992H3ZM494 52.5V53.5H488V52.5H494ZM3 51.2197V52.209H-3V51.2197H3ZM494 50.5V51.5H488V50.5H494ZM3 49.2402V50.2295H-3V49.2402H3ZM494 48.5V49.5H488V48.5H494ZM3 47.2598V48.25H-3V47.2598H3ZM494 46.5V47.5H488V46.5H494ZM3 45.2803V46.2705H-3V45.2803H3ZM494 44.5V45.5H488V44.5H494ZM3 43.3008V44.291H-3V43.3008H3ZM494 42.5V43.5H488V42.5H494ZM3 41.3213V42.3115H-3V41.3213H3ZM494 40.5V41.5H488V40.5H494ZM3 39.3418V40.332H-3V39.3418H3ZM494 38.5V39.5H488V38.5H494ZM3 37.3623V38.3516H-3V37.3623H3ZM494 36.5V37.5H488V36.5H494ZM3 35.3828V36.3721H-3V35.3828H3ZM494 34.5V35.5H488V34.5H494ZM3 33.4033V34.3926H-3V33.4033H3ZM494 32.5V33.5H488V32.5H494ZM3 31.4238V32.4131H-3V31.4238H3ZM494 30.5V31.5H488V30.5H494ZM3 29.4443V30.4336H-3V29.4443H3ZM494 28.5V29.5H488V28.5H494ZM3 27.4639V28.4541H-3V27.4639H3ZM494 26.5V27.5H488V26.5H494ZM3 25.4844V26.4746H-2.99121C-2.98047 26.1418 -2.9585 25.8117 -2.92773 25.4844H3ZM494 24.5V25.5H488V24.5H494ZM3 24.4951H-2.80371C-2.74497 24.1215 -2.67397 23.7522 -2.58984 23.3877L0.00976562 23.4893L3.00684 23.6035C3.0038 23.7352 3 23.8673 3 24V24.4951ZM494 22.5V23.5H488V22.5H494ZM0.24707 21.4629L3.11426 22.0293C3.08386 22.2892 3.06135 22.5517 3.04297 22.8164L0.0888672 22.4707L-1.40039 22.2969L-1.39941 22.2959L-2.26465 22.1943C-2.14225 21.8052 -2.0052 21.4226 -1.85449 21.0469L0.24707 21.4629ZM494 20.5V21.5H488V20.5H494ZM-0.803711 18.9072L0.696289 19.4609L0.799805 19.499L3.37891 20.4512C3.32217 20.7117 3.27091 20.9753 3.22656 21.2422L0.485352 20.4697L-0.708984 20.1338L-0.958984 20.0635L-0.958008 20.0625L-1.36523 19.9482C-1.19077 19.5935 -1.00308 19.2465 -0.803711 18.9072ZM0.507812 17.002L1.65527 17.6465L2.96387 18.3809H2.96289L3.81348 18.8584C3.72683 19.1197 3.64683 19.3854 3.57324 19.6553L2.55273 19.1836V19.1846L1.19141 18.5557L-0.170898 17.9268L-0.169922 17.9258L-0.175781 17.9238C0.041814 17.6085 0.268729 17.3003 0.507812 17.002ZM494 18.5V19.5H488V18.5H494ZM2.79004 15.9512L4.44629 17.2588C4.32452 17.5193 4.21322 17.7874 4.10547 18.0596L2.18945 16.7773L1.24512 16.1455C1.49793 15.8719 1.76009 15.607 2.03125 15.3516L2.79004 15.9512ZM494 16.5V17.5H488V16.5H494ZM4.17578 14.4541L4.93164 15.2715L5.31348 15.6836C5.15132 15.9366 4.9988 16.199 4.85156 16.4678L3.4541 15.1758L2.85742 14.624C3.13765 14.3941 3.42602 14.1737 3.72168 13.9629L4.17578 14.4541ZM494 14.5V15.5H488V14.5H494ZM5.77734 13.1895L6.44434 14.1865C6.23681 14.421 6.0367 14.6662 5.84473 14.9219L4.95117 13.79L4.61816 13.3682C4.91995 13.1822 5.22834 13.0059 5.54297 12.8398L5.77734 13.1895ZM494 12.5V13.5H488V12.5H494ZM7.55566 12.1914L7.7627 12.6406L7.8584 12.8477C7.6025 13.0475 7.35557 13.2633 7.11523 13.4912L6.64648 12.6553L6.49121 12.3789C6.80882 12.2373 7.13183 12.1055 7.45996 11.9844L7.55566 12.1914ZM9.46973 11.4854L9.55566 11.791C9.25479 11.9345 8.96133 12.0974 8.6748 12.2764L8.49902 11.7998L8.44629 11.6582C8.77477 11.5609 9.10741 11.4729 9.44434 11.3965L9.46973 11.4854ZM494 11V11.5H488V11H494ZM11.4707 11.0889L11.4775 11.1484C11.1443 11.2146 10.8167 11.3033 10.4951 11.4111L10.4629 11.2471L10.4541 11.2021C10.789 11.1486 11.1273 11.1057 11.4688 11.0732L11.4707 11.0889ZM13 11C12.8287 11 12.6584 11.0046 12.4893 11.0156V11.0098L12.4883 11.0078C12.6582 11.0025 12.8288 11 13 11Z" fill="white" mask="url(#path-1-inside-1_8_30705)"/>
<path d="M515.061 13.0607C515.646 12.4749 515.646 11.5251 515.061 10.9393L505.515 1.3934C504.929 0.807613 503.979 0.807613 503.393 1.3934C502.808 1.97919 502.808 2.92893 503.393 3.51472L511.879 12L503.393 20.4853C502.808 21.0711 502.808 22.0208 503.393 22.6066C503.979 23.1924 504.929 23.1924 505.515 22.6066L515.061 13.0607ZM491 12L491 13.5L491.479 13.5L491.479 12L491.479 10.5L491 10.5L491 12ZM492.438 12L492.437 13.5L493.396 13.5L493.396 12L493.396 10.5L492.438 10.5L492.438 12ZM494.354 12L494.354 13.5L495.312 13.5L495.312 12L495.313 10.5L494.354 10.5L494.354 12ZM496.271 12L496.271 13.5L497.229 13.5L497.229 12L497.229 10.5L496.271 10.5L496.271 12ZM498.188 12L498.188 13.5L499.146 13.5L499.146 12L499.146 10.5L498.188 10.5L498.188 12ZM500.104 12L500.104 13.5L501.062 13.5L501.062 12L501.063 10.5L500.104 10.5L500.104 12ZM502.021 12L502.021 13.5L502.979 13.5L502.979 12L502.979 10.5L502.021 10.5L502.021 12ZM503.937 12L503.937 13.5L504.896 13.5L504.896 12L504.896 10.5L503.937 10.5L503.937 12ZM505.854 12L505.854 13.5L506.812 13.5L506.812 12L506.812 10.5L505.854 10.5L505.854 12ZM507.771 12L507.771 13.5L508.729 13.5L508.729 12L508.729 10.5L507.771 10.5L507.771 12ZM509.688 12L509.687 13.5L510.646 13.5L510.646 12L510.646 10.5L509.688 10.5L509.688 12ZM511.604 12L511.604 13.5L512.563 13.5L512.563 12L512.563 10.5L511.604 10.5L511.604 12ZM513.521 12L513.521 13.5L514 13.5L514 12L514 10.5L513.521 10.5L513.521 12ZM515.061 13.0607C515.646 12.4749 515.646 11.5251 515.061 10.9393L505.515 1.3934C504.929 0.807613 503.979 0.807613 503.393 1.3934C502.808 1.97919 502.808 2.92893 503.393 3.51472L511.879 12L503.393 20.4853C502.808 21.0711 502.808 22.0208 503.393 22.6066C503.979 23.1924 504.929 23.1924 505.515 22.6066L515.061 13.0607ZM491 12L491 13.5L491.479 13.5L491.479 12L491.479 10.5L491 10.5L491 12ZM492.438 12L492.437 13.5L493.396 13.5L493.396 12L493.396 10.5L492.438 10.5L492.438 12ZM494.354 12L494.354 13.5L495.312 13.5L495.312 12L495.313 10.5L494.354 10.5L494.354 12ZM496.271 12L496.271 13.5L497.229 13.5L497.229 12L497.229 10.5L496.271 10.5L496.271 12ZM498.188 12L498.188 13.5L499.146 13.5L499.146 12L499.146 10.5L498.188 10.5L498.188 12ZM500.104 12L500.104 13.5L501.062 13.5L501.062 12L501.063 10.5L500.104 10.5L500.104 12ZM502.021 12L502.021 13.5L502.979 13.5L502.979 12L502.979 10.5L502.021 10.5L502.021 12ZM503.937 12L503.937 13.5L504.896 13.5L504.896 12L504.896 10.5L503.937 10.5L503.937 12ZM505.854 12L505.854 13.5L506.812 13.5L506.812 12L506.812 10.5L505.854 10.5L505.854 12ZM507.771 12L507.771 13.5L508.729 13.5L508.729 12L508.729 10.5L507.771 10.5L507.771 12ZM509.688 12L509.687 13.5L510.646 13.5L510.646 12L510.646 10.5L509.688 10.5L509.688 12ZM511.604 12L511.604 13.5L512.563 13.5L512.563 12L512.563 10.5L511.604 10.5L511.604 12ZM513.521 12L513.521 13.5L514 13.5L514 12L514 10.5L513.521 10.5L513.521 12Z" fill="white"/>
</svg>
