<svg width="235" height="95" viewBox="0 0 235 95" fill="none" xmlns="http://www.w3.org/2000/svg">
<rect x="0.5" y="0.5" width="234" height="94" fill="#061611" stroke="white"/>
<g clip-path="url(#clip0_8_66496)">
<path d="M57.0916 20.0947C58.2837 20.8013 59.3163 21.6757 60.23 22.6758C61.0742 23.5761 61.988 24.411 62.8993 25.2517C63.0949 25.4328 63.2904 25.6139 63.4859 25.795C63.9045 26.1828 64.3234 26.5703 64.7425 26.9576C65.4066 27.5715 66.0698 28.1862 66.7328 28.8011C68.6176 30.5488 70.5031 32.2957 72.3905 34.041C73.4347 35.0066 74.478 35.9731 75.5202 36.9405C76.1775 37.5506 76.836 38.1596 77.4953 38.7678C77.9071 39.1481 78.3177 39.5295 78.728 39.9112C78.9167 40.0864 79.1059 40.2611 79.2957 40.4354C80.7319 41.7556 82.1925 43.1469 82.9234 44.9298C82.9903 45.0882 83.0572 45.2466 83.1261 45.4099C83.8079 47.2416 83.7641 49.6913 82.977 51.4786C82.8688 51.685 82.8688 51.685 82.7584 51.8955C82.6899 52.0296 82.6214 52.1638 82.5508 52.302C82.0642 53.143 81.4328 53.8354 80.7343 54.5296C80.6414 54.6225 80.5484 54.7155 80.4526 54.8112C79.5157 55.7432 78.5508 56.6482 77.5783 57.5479C77.3875 57.725 77.1968 57.9022 77.0061 58.0794C76.6006 58.4561 76.1948 58.8325 75.7887 59.2088C75.1454 59.8049 74.5029 60.4016 73.8604 60.9985C72.4978 62.264 71.1345 63.5289 69.771 64.7937C68.2954 66.1627 66.8198 67.5318 65.3451 68.9017C64.7076 69.4939 64.0696 70.0857 63.4312 70.6772C63.0337 71.0457 62.6366 71.4146 62.2395 71.7835C62.0566 71.9534 61.8736 72.123 61.6904 72.2925C60.7867 73.1288 59.9007 73.9675 59.0776 74.8735C57.8007 76.2166 55.6328 77.3093 53.6929 77.455C49.9733 77.5444 49.9733 77.5444 48.2721 76.7714C48.1258 76.7058 47.9795 76.6402 47.8288 76.5726C46.1551 75.7268 44.8081 74.4234 43.5481 73.1158C41.9567 71.4925 40.2601 69.9612 38.5849 68.4134C37.9592 67.8353 37.3344 67.2563 36.7098 66.6771C34.9353 65.032 33.16 63.3876 31.3828 61.7448C30.3974 60.8339 29.4129 59.9221 28.4294 59.0093C27.8102 58.4346 27.1898 57.861 26.5685 57.2882C26.1814 56.9308 25.7954 56.5723 25.4097 56.2135C25.2322 56.0488 25.0543 55.8845 24.8758 55.7207C23.5158 54.4715 22.2514 53.1861 21.5496 51.5068C21.4811 51.3469 21.4126 51.1869 21.342 51.0222C20.6455 49.1965 20.7002 46.7326 21.4843 44.9483C21.5566 44.8106 21.629 44.6728 21.7035 44.5309C21.8093 44.3268 21.8093 44.3268 21.9173 44.1185C23.0441 42.1895 24.9976 40.6243 26.6554 39.0907C26.8427 38.9168 27.0299 38.7429 27.2171 38.5689C27.6157 38.1988 28.0145 37.8288 28.4135 37.4591C29.0457 36.8733 29.6772 36.2869 30.3085 35.7004C31.6478 34.4565 32.9879 33.2133 34.328 31.9701C35.7779 30.6252 37.2276 29.2801 38.6765 27.9342C39.303 27.3523 39.93 26.7707 40.5573 26.1895C40.9481 25.8272 41.3385 25.4646 41.7288 25.1019C41.9086 24.935 42.0885 24.7682 42.2686 24.6016C43.165 23.7722 44.0429 22.9383 44.8642 22.0437C47.9241 18.7244 53.0404 18.0103 57.0916 20.0947ZM51.4572 40.4C51.3619 40.4889 51.2666 40.5779 51.1684 40.6696C51.07 40.7609 50.9717 40.8522 50.8703 40.9464C50.6609 41.141 50.4518 41.3358 50.2428 41.5308C49.9272 41.8253 49.6107 42.1188 49.2941 42.4123C48.3747 43.267 47.4704 44.1217 46.627 45.0426C46.0382 45.6642 45.3971 46.2398 44.7641 46.8221C44.5584 47.0123 44.5584 47.0123 44.3486 47.2063C44.0146 47.515 43.6802 47.8234 43.3455 48.1313C44.2597 49.1536 45.2532 50.0799 46.2724 51.011C46.8657 51.5569 47.4442 52.1044 47.9875 52.6939C48.7649 53.5345 49.6141 54.3069 50.4605 55.0868C50.6228 55.237 50.785 55.3872 50.9522 55.542C51.3488 55.9089 51.7457 56.2754 52.143 56.6415C53.0354 55.9463 53.8739 55.2204 54.6943 54.4526C54.8043 54.3509 54.9143 54.2492 55.0276 54.1445C55.5679 53.6409 56.0891 53.1303 56.5864 52.5897C57.4262 51.6854 58.3463 50.8541 59.258 50.0134C59.4389 49.8459 59.6198 49.6784 59.8006 49.5109C60.2388 49.1052 60.6775 48.6999 61.1165 48.295C60.1165 47.1642 58.998 46.1497 57.8786 45.123C56.9708 44.2894 56.0808 43.4521 55.2511 42.55C54.7185 41.9857 54.1449 41.4595 53.5726 40.9304C53.4537 40.8192 53.3349 40.708 53.2124 40.5935C53.0995 40.4886 52.9865 40.3838 52.8702 40.2758C52.7174 40.134 52.7175 40.134 52.5617 39.9894C52.0569 39.5639 51.8617 40.0261 51.4572 40.4Z" fill="#D0E2F3" fill-opacity="0.52"/>
<path d="M59.7092 22.4365C60.8371 23.3023 61.8661 24.2536 62.8996 25.214C63.0951 25.3951 63.2906 25.5761 63.4862 25.7571C64.0145 26.2464 64.5422 26.7362 65.0697 27.2261C65.4002 27.533 65.7307 27.8398 66.0612 28.1465C67.0979 29.1085 68.1342 30.0708 69.1699 31.0335C70.3611 32.1408 71.5535 33.247 72.7469 34.3522C73.6723 35.2095 74.5968 36.0677 75.5205 36.9267C76.0708 37.4383 76.6215 37.9496 77.1733 38.4599C77.6928 38.9404 78.211 39.4221 78.7283 39.9047C78.9171 40.0804 79.1063 40.2556 79.296 40.4305C80.7304 41.753 82.1927 43.1459 82.9237 44.9292C83.024 45.1669 83.024 45.1669 83.1264 45.4093C83.8082 47.2411 83.7644 49.6907 82.9773 51.4781C82.9052 51.6156 82.833 51.7532 82.7587 51.8949C82.6902 52.0291 82.6217 52.1632 82.5511 52.3015C82.0646 53.1423 81.4334 53.8345 80.735 54.5285C80.642 54.6215 80.5491 54.7144 80.4533 54.8102C79.5141 55.7445 78.5472 56.6524 77.573 57.5552C77.3817 57.7331 77.1904 57.911 76.9991 58.089C76.4874 58.5651 75.9751 59.0406 75.4627 59.516C74.9234 60.0166 74.3846 60.5177 73.8458 61.0187C72.8278 61.9651 71.8093 62.911 70.7907 63.8568C69.6333 64.9316 68.4763 66.0068 67.3194 67.082C65.3422 68.9197 63.3646 70.7571 61.3865 72.594C61.224 72.7449 61.0615 72.8958 60.8941 73.0513C60.7537 73.1817 60.6132 73.3122 60.4685 73.4466C60.0392 73.8453 59.6103 74.2443 59.1813 74.6433C59.3889 74.2534 59.6018 73.8667 59.8185 73.4811C61.0972 71.1739 61.7987 69.1227 61.0178 66.5116C60.2978 64.6593 59.2162 63.2623 57.6913 61.9138C57.5364 61.7728 57.3815 61.6319 57.2219 61.4866C56.7335 61.0422 56.2423 60.6006 55.7503 60.1596C55.0971 59.5738 54.4469 58.9854 53.7983 58.3952C53.6474 58.2615 53.4964 58.1279 53.3408 57.9902C53.2038 57.8655 53.0669 57.7408 52.9258 57.6124C52.8041 57.5035 52.6824 57.3945 52.557 57.2823C52.3193 56.9683 52.3193 56.9683 52.3501 56.6219C52.5517 56.1937 52.8402 55.9407 53.2004 55.6156C53.3451 55.4833 53.4898 55.351 53.6389 55.2147C53.7913 55.0778 53.9437 54.9409 54.1008 54.7998C55.3059 53.7164 55.3059 53.7164 56.4369 52.5674C57.2648 51.668 58.179 50.8459 59.0824 50.0128C59.2633 49.8454 59.4442 49.6779 59.625 49.5104C60.0631 49.1046 60.5018 48.6994 60.9408 48.2944C59.9409 47.1636 58.8224 46.1491 57.703 45.1225C56.7928 44.2867 55.9026 43.4465 55.0715 42.5414C54.4653 41.9072 53.7877 41.3329 53.1193 40.756C53.0131 40.6606 52.907 40.5652 52.7976 40.467C52.7013 40.3828 52.6051 40.2985 52.5059 40.2118C52.3193 39.9479 52.3193 39.9479 52.3562 39.6434C52.5305 39.2043 52.7641 38.9895 53.1256 38.6642C53.259 38.5428 53.3923 38.4214 53.5298 38.2963C53.6751 38.1663 53.8204 38.0362 53.9702 37.9022C54.2768 37.6224 54.5833 37.3426 54.8898 37.0628C55.3731 36.6243 55.8572 36.1866 56.3422 35.7498C56.8108 35.3269 57.2766 34.9014 57.7421 34.4756C57.8853 34.3482 58.0285 34.2207 58.176 34.0895C60.109 32.3148 61.2882 30.1308 61.3477 27.5917C61.3326 25.9144 60.8189 24.4657 59.8769 23.0432C59.7092 22.7638 59.7092 22.7638 59.7092 22.4365Z" fill="#FEFEFE" fill-opacity="0.59"/>
</g>
<path d="M102.69 55.8426H94.6265V55.0574H97.0425V38.508H94.6265V37.7229H104.019C105.609 37.7229 106.958 38.0953 108.065 38.8402C109.374 39.7462 110.028 40.9441 110.028 42.434C110.028 42.9776 109.938 43.5111 109.757 44.0346C109.153 45.6452 107.824 46.7123 105.77 47.2357L110.572 55.0574H111.417C111.538 55.0574 111.649 55.0675 111.75 55.0876C112.032 55.1279 112.172 55.3795 112.172 55.8426H107.31L102.599 47.5377H100.274V55.0574H102.69V55.8426ZM102.75 38.508H100.274V46.6619H102.901C103.707 46.6619 104.411 46.4304 105.015 45.9673C106.002 45.1821 106.495 44.0346 106.495 42.5246C106.495 41.9005 106.384 41.3065 106.163 40.7428C105.579 39.253 104.441 38.508 102.75 38.508ZM116.461 49.3497C116.461 50.0141 116.491 50.6181 116.551 51.1617C116.833 53.9803 117.981 55.3896 119.994 55.3896C122.269 55.3493 123.427 53.2958 123.467 49.2289C123.467 48.4437 123.427 47.729 123.346 47.0847C123.004 44.5882 121.877 43.34 119.964 43.34C117.83 43.501 116.662 45.5043 116.461 49.3497ZM120.055 42.585C121.544 42.585 122.863 42.9776 124.011 43.7628C125.782 45.011 126.668 46.8532 126.668 49.2893C126.668 51.1013 126.115 52.6414 125.007 53.9098C123.699 55.3997 121.997 56.1446 119.904 56.1446C118.373 56.1446 117.025 55.7017 115.857 54.8158C114.125 53.5273 113.26 51.665 113.26 49.2289C113.26 47.4773 113.793 45.9975 114.86 44.7896C116.169 43.3198 117.9 42.585 120.055 42.585ZM131.198 60.6443C131.46 60.6443 131.712 60.594 131.953 60.4933C132.92 60.1108 133.926 58.6511 134.973 56.1144L129.356 43.7326H127.967V42.9474H134.339V43.7326H132.376L136.332 52.8528L139.956 43.7326H137.721V42.9474H142.372C142.372 43.1084 142.362 43.2393 142.342 43.34C142.281 43.6017 142.04 43.7326 141.617 43.7326C141.476 43.7326 141.345 43.7426 141.224 43.7628C140.963 43.8232 140.731 44.1252 140.53 44.6688L136.03 55.9936C135.607 57.0606 135.164 57.9767 134.701 58.7417C133.554 60.6745 132.165 61.6409 130.534 61.6409C129.97 61.6409 129.457 61.5402 128.994 61.3389C128.148 60.9362 127.725 60.3826 127.725 59.6779C127.725 59.5773 127.735 59.4766 127.755 59.3759C127.917 58.7719 128.329 58.47 128.994 58.47C129.275 58.47 129.517 58.5404 129.718 58.6813C129.94 58.8223 130.171 59.2249 130.413 59.8893C130.594 60.3927 130.856 60.6443 131.198 60.6443ZM154.21 56.1446C152.7 56.1245 151.794 55.2185 151.492 53.4266C151.331 53.8293 151.1 54.2118 150.798 54.5742C149.872 55.6211 148.643 56.1446 147.113 56.1446C146.489 56.1446 145.915 56.0439 145.392 55.8426C144.003 55.299 143.308 54.2219 143.308 52.6112C143.308 52.3092 143.338 52.0173 143.399 51.7355C143.902 49.6013 146.57 48.5041 151.402 48.4437V46.5109C151.382 44.4372 150.556 43.3802 148.925 43.34C148.523 43.34 148.18 43.4104 147.899 43.5514C147.516 43.7728 147.194 44.2862 146.932 45.0916C146.872 45.2929 146.821 45.4439 146.781 45.5445C146.54 46.2089 146.107 46.5411 145.483 46.5411C145.322 46.5411 145.16 46.521 144.999 46.4807C144.395 46.2995 144.093 45.8868 144.093 45.2425C144.093 44.9003 144.204 44.558 144.426 44.2158C145.171 43.1286 146.761 42.585 149.197 42.585C152.559 42.6051 154.261 44.1654 154.301 47.2659V53.6078C154.321 54.5943 154.573 55.1077 155.056 55.148C155.68 55.1279 156.062 54.4031 156.203 52.9736L156.989 53.0038C156.968 53.4669 156.908 53.8796 156.807 54.242C156.485 55.5104 155.62 56.1446 154.21 56.1446ZM148.352 54.9064C148.654 54.9064 148.966 54.8359 149.288 54.695C150.355 54.2319 151.059 53.2958 151.402 51.8864V49.2591C150.214 49.2792 149.247 49.3799 148.503 49.5611C147.053 49.9235 146.328 50.7892 146.328 52.1582C146.328 52.4401 146.348 52.7018 146.389 52.9434C146.59 54.2521 147.244 54.9064 148.352 54.9064ZM164.72 55.0876C164.84 55.0876 164.951 55.0977 165.052 55.1178C165.314 55.1782 165.444 55.4198 165.444 55.8426H157.925V55.0876C158.569 55.0876 159.052 55.0373 159.374 54.9366C159.938 54.7554 160.22 54.2219 160.22 53.336V36.9679H157.925V36.2129H163.119V55.0876H164.72ZM166.683 43.7628V43.0078H168.797V40.1388L171.696 39.5046V43.0078H176.075V43.7628H171.696V52.9434C171.716 54.4534 172.239 55.2285 173.266 55.2688C174.273 55.2487 174.998 54.3427 175.441 52.5508L176.256 52.7018C176.196 53.024 176.115 53.336 176.014 53.638C175.451 55.3292 174.313 56.1748 172.602 56.1748C172.441 56.1748 172.27 56.1647 172.088 56.1446C169.894 55.9433 168.797 54.5239 168.797 51.8864V43.7628H166.683ZM188.185 56.1446C186.675 56.1245 185.769 55.2185 185.467 53.4266C185.306 53.8293 185.074 54.2118 184.772 54.5742C183.846 55.6211 182.618 56.1446 181.088 56.1446C180.464 56.1446 179.89 56.0439 179.366 55.8426C177.977 55.299 177.283 54.2219 177.283 52.6112C177.283 52.3092 177.313 52.0173 177.373 51.7355C177.877 49.6013 180.544 48.5041 185.376 48.4437V46.5109C185.356 44.4372 184.531 43.3802 182.9 43.34C182.497 43.34 182.155 43.4104 181.873 43.5514C181.491 43.7728 181.168 44.2862 180.907 45.0916C180.846 45.2929 180.796 45.4439 180.756 45.5445C180.514 46.2089 180.081 46.5411 179.457 46.5411C179.296 46.5411 179.135 46.521 178.974 46.4807C178.37 46.2995 178.068 45.8868 178.068 45.2425C178.068 44.9003 178.179 44.558 178.4 44.2158C179.145 43.1286 180.736 42.585 183.172 42.585C186.534 42.6051 188.235 44.1654 188.275 47.2659V53.6078C188.295 54.5943 188.547 55.1077 189.03 55.148C189.654 55.1279 190.037 54.4031 190.178 52.9736L190.963 53.0038C190.943 53.4669 190.883 53.8796 190.782 54.242C190.46 55.5104 189.594 56.1446 188.185 56.1446ZM182.326 54.9064C182.628 54.9064 182.94 54.8359 183.262 54.695C184.329 54.2319 185.034 53.2958 185.376 51.8864V49.2591C184.188 49.2792 183.222 49.3799 182.477 49.5611C181.027 49.9235 180.303 50.7892 180.303 52.1582C180.303 52.4401 180.323 52.7018 180.363 52.9434C180.564 54.2521 181.219 54.9064 182.326 54.9064ZM191.205 55.8426C191.205 55.7017 191.215 55.5708 191.235 55.45C191.275 55.2487 191.446 55.1279 191.748 55.0876C192.332 55.0071 192.835 54.7051 193.258 54.1816L196.731 49.7121L192.654 43.7024H191.235V42.9474H197.667V43.7024H195.795L198.724 48.0511L201.926 43.7024H199.872V42.9474H204.372C204.372 43.0883 204.362 43.2192 204.342 43.34C204.281 43.5413 204.1 43.652 203.798 43.6722C203.174 43.7527 202.66 44.0648 202.258 44.6084L199.208 48.7759L203.466 55.0876H204.07C204.17 55.0876 204.271 55.0977 204.372 55.1178C204.674 55.1581 204.825 55.3997 204.825 55.8426H198.634V55.0876H200.416L197.245 50.4067L193.621 55.0876H195.825V55.8426H191.205ZM212.073 55.0876C212.214 55.0876 212.334 55.0977 212.435 55.1178C212.697 55.1581 212.828 55.3997 212.828 55.8426H205.67V55.0876C206.174 55.0876 206.566 55.0574 206.848 54.997C207.492 54.8158 207.814 54.2722 207.814 53.3662V43.7024H205.67V42.9474H210.714V55.0876H212.073ZM211.046 38.7194C211.046 39.0214 210.985 39.3033 210.865 39.565C210.522 40.2496 209.949 40.5918 209.143 40.5918C208.861 40.5918 208.59 40.5314 208.328 40.4106C207.623 40.0885 207.271 39.5248 207.271 38.7194C207.271 38.4174 207.341 38.1255 207.482 37.8437C207.825 37.1591 208.378 36.8169 209.143 36.8169C209.445 36.8169 209.737 36.8873 210.019 37.0283C210.704 37.3907 211.046 37.9544 211.046 38.7194Z" fill="white" fill-opacity="0.56"/>
<defs>
<clipPath id="clip0_8_66496">
<rect width="62.4625" height="58.4258" fill="white" transform="translate(21 19)"/>
</clipPath>
</defs>
</svg>
