<svg width="120" height="35" viewBox="0 0 120 35" fill="none" xmlns="http://www.w3.org/2000/svg">
<path d="M31.2031 0H36.7231V34.0801H31.2031V0Z" fill="white"/>
<path d="M55.9169 23.2801C55.9169 28.5601 51.5969 29.0401 50.1569 29.0401C46.7969 29.0401 46.3169 25.9201 46.3169 24.2401V11.04H40.7969V24.0001C40.7969 27.1201 41.7569 30.0001 43.6769 31.6801C45.3569 33.3601 47.5169 34.0801 50.1569 34.0801C52.0769 34.0801 54.4769 33.6001 55.9169 32.1601V34.0801H61.4369V11.04H55.9169V23.2801Z" fill="white"/>
<path d="M72.2407 2.64014H66.7206V11.0402H62.6406V16.3202H66.7206V34.0802H72.2407V16.3202H76.3207V11.0402H72.2407V2.64014Z" fill="white"/>
<path d="M93.6013 27.1201C92.4013 28.0801 90.7213 28.8001 89.0413 28.8001C85.2013 28.8001 82.5613 25.9201 82.5613 22.0801C82.5613 18.2401 85.2013 15.6001 89.0413 15.6001C90.7213 15.6001 92.4013 16.0801 93.6013 17.2801L94.3213 18.0001L98.1613 14.4001L97.2013 13.6801C95.0413 11.7601 92.1613 10.5601 89.0413 10.5601C82.3213 10.5601 77.2812 15.6001 77.2812 22.3201C77.2812 29.0401 82.3213 34.0801 89.0413 34.0801C92.1613 34.0801 95.0413 32.8801 97.2013 30.9601L98.1613 30.2401L94.3213 26.4001L93.6013 27.1201Z" fill="white"/>
<path d="M117.597 12.96C115.917 11.28 114.237 10.56 111.597 10.56C109.677 10.56 107.757 11.04 106.317 12.48V0H100.797V34.0801H106.317V21.3601C106.317 16.08 109.917 15.6 111.357 15.6C114.717 15.6 114.477 18.7201 114.477 20.4001V33.8401H119.997V20.6401C119.997 17.5201 119.277 14.64 117.597 12.96Z" fill="white"/>
<path d="M88.801 26.16C90.9217 26.16 92.641 24.4408 92.641 22.32C92.641 20.1992 90.9217 18.48 88.801 18.48C86.6802 18.48 84.9609 20.1992 84.9609 22.32C84.9609 24.4408 86.6802 26.16 88.801 26.16Z" fill="#EF4335"/>
<path d="M23.5201 25.68C21.6001 27.6 18.7201 28.8 15.6 28.8C9.60003 28.8 5.28001 24 5.28001 17.52C5.28001 11.0399 9.60003 6.23994 15.84 6.23994C18.7201 6.23994 21.6001 7.43994 23.7601 9.59994L24.4801 10.3199L28.0801 6.71994L27.3601 5.99993C24.2401 2.87993 20.1601 1.19992 15.84 1.19992C6.72002 0.95992 0 8.15994 0 17.52C0 26.88 6.72002 34.08 15.6 34.08C19.9201 34.08 24.2401 32.4 27.1201 29.28L27.8401 28.56L24.2401 24.96L23.5201 25.68Z" fill="white"/>
</svg>
