<svg width="106" height="246" viewBox="0 0 106 246" fill="none" xmlns="http://www.w3.org/2000/svg">
<path d="M17.5826 209.815H17.5891C17.7713 209.781 17.9145 209.013 17.908 208.078C17.6346 151.466 17.4524 91.0133 17.3027 12.1574L17.3417 1.70337C17.3482 0.768185 17.1986 0 17.0228 0C16.8406 0 16.6909 0.734786 16.6909 1.63657L16.6518 12.1574C16.8015 91.1134 16.9903 151.533 17.2571 208.178C17.2571 209.08 17.4068 209.815 17.5826 209.815Z" fill="white" fill-opacity="0.16"/>
<path d="M20.2363 208.72C20.1944 207.007 20.144 205.302 20.102 203.589C20.0853 203.035 20.0685 202.455 19.7831 201.976C19.2963 201.137 18.1968 200.918 17.24 200.969C16.7532 200.994 16.2412 201.078 15.8384 201.363C15.4859 201.607 15.2425 201.985 15.0746 202.388C14.7641 203.144 14.7305 203.975 14.6969 204.781C14.6549 205.999 14.613 207.217 14.5878 208.443C14.5878 208.628 14.5962 208.838 14.7389 208.947C14.8396 209.022 14.9655 209.014 15.0914 209.014C16.7868 208.955 18.4738 208.896 20.2363 208.72Z" fill="white" fill-opacity="0.1"/>
<path d="M15.0424 209.434C15.0759 209.434 15.1011 209.434 15.1263 209.434C16.7881 209.384 18.5003 209.325 20.288 209.148C20.5062 209.123 20.6741 208.938 20.6657 208.72L20.5314 203.589C20.5146 203.043 20.4978 202.354 20.1621 201.775C19.6669 200.927 18.601 200.482 17.233 200.557C16.7881 200.582 16.1418 200.658 15.6131 201.028C15.227 201.296 14.9249 201.699 14.7066 202.237C14.3625 203.077 14.329 204.026 14.2954 204.781C14.2534 205.991 14.2115 207.225 14.1863 208.443C14.1863 208.628 14.1779 209.048 14.5136 209.3C14.6899 209.417 14.8997 209.434 15.0424 209.434ZM19.8096 208.334C18.1897 208.477 16.6203 208.527 15.1011 208.577C15.0843 208.577 15.0591 208.577 15.034 208.577C15.034 208.552 15.0256 208.502 15.034 208.435C15.0591 207.217 15.0927 205.991 15.1347 204.781C15.1599 204.059 15.1934 203.236 15.4788 202.531C15.6299 202.153 15.8397 201.867 16.0915 201.699C16.3601 201.506 16.7294 201.414 17.2749 201.38C17.7701 201.355 18.9619 201.38 19.4319 202.178C19.6669 202.573 19.6753 203.11 19.6921 203.589L19.8096 208.334Z" fill="white" fill-opacity="0.16"/>
<path d="M25.3109 236.56C25.6298 237.794 25.3445 239.113 24.9164 240.322C24.4045 241.775 23.6491 243.219 22.3985 244.101C20.3758 245.52 17.4131 245 15.7177 243.228C14.0223 241.456 13.5355 238.71 14.1146 236.283C17.7572 236.241 21.3998 236.19 25.3109 236.56Z" fill="white" fill-opacity="0.16"/>
<path d="M19.6871 245.344C20.7446 245.344 21.777 245.05 22.6414 244.445C23.7829 243.648 24.6641 242.338 25.3188 240.465C25.8811 238.852 26.007 237.584 25.7217 236.459C25.6797 236.283 25.5286 236.157 25.3524 236.14C21.416 235.77 17.7063 235.821 14.1141 235.863C13.9211 235.863 13.7532 235.997 13.7112 236.19C13.0566 238.928 13.7112 241.741 15.415 243.522C16.5565 244.714 18.1427 245.344 19.6871 245.344ZM24.9663 236.954C25.1174 237.845 24.9747 238.886 24.5215 240.188C23.9256 241.892 23.1534 243.06 22.163 243.757C20.3921 244.991 17.6392 244.63 16.0277 242.934C14.5841 241.422 13.9966 239.062 14.4582 236.702C17.8322 236.66 21.3153 236.627 24.9663 236.954Z" fill="white" fill-opacity="0.16"/>
<path d="M0.515221 239.18C13.2223 239.054 25.9378 238.92 38.2168 238.29C37.4446 232.033 35.3464 226.062 29.9664 222.913C28.0864 221.813 29.1859 222.577 25.3418 219.948C22.1021 217.731 25.4929 211.273 22.7904 208.401C21.1873 206.696 18.6946 206.595 16.3865 206.814C13.6 207.083 10.7212 208.72 10.4694 211.063C10.0665 214.784 11.8207 217.337 9.65526 220.368C8.90828 221.418 6.18052 223.904 5.18175 224.702C1.24541 227.826 0.120747 234.511 0.515221 239.18Z" fill="white" fill-opacity="0.1"/>
<path d="M0.513203 239.608C13.0188 239.482 25.9358 239.348 38.24 238.718C38.3575 238.71 38.4666 238.659 38.5421 238.567C38.6176 238.474 38.6512 238.357 38.6344 238.239C37.6776 230.454 34.9163 225.323 30.1826 222.552C29.7378 222.291 29.4524 222.132 29.2342 222.006C28.5544 221.628 28.4956 221.594 25.5749 219.596C24.0809 218.579 24.1816 216.429 24.2907 214.154C24.3998 211.92 24.5089 209.61 23.0905 208.107C21.286 206.184 18.5331 206.184 16.3425 206.394C13.5057 206.663 10.3331 208.376 10.0477 211.021C9.89664 212.432 10.0393 213.7 10.1736 214.817C10.3918 216.707 10.5849 218.336 9.30913 220.125C8.6209 221.09 5.96868 223.534 4.91115 224.374C0.974812 227.49 -0.351273 234.074 0.0767746 239.213C0.110348 239.44 0.294983 239.608 0.513203 239.608ZM37.7364 237.895C25.7175 238.5 13.1112 238.634 0.899277 238.752C0.597126 234.04 1.86448 227.868 5.43992 225.037C6.37155 224.298 9.2 221.737 9.99734 220.62C11.4661 218.571 11.2479 216.698 11.0129 214.716C10.8786 213.591 10.7443 212.432 10.887 211.114C11.1136 208.997 13.8833 207.477 16.4264 207.242C18.4324 207.049 20.9335 207.04 22.4778 208.695C23.6445 209.938 23.5437 212.071 23.443 214.128C23.3255 216.53 23.208 219.024 25.0964 220.309C28.0424 222.325 28.1012 222.359 28.8146 222.753C29.0328 222.871 29.3013 223.03 29.7462 223.291C34.1525 225.861 36.7712 230.647 37.7364 237.895Z" fill="white" fill-opacity="0.16"/>
<path d="M1.68966 237.391L36.1599 236.131C36.2355 236.131 36.3026 236.064 36.2942 235.989C36.2942 235.913 36.2187 235.854 36.1515 235.854L1.68966 237.114C1.61412 237.114 1.54698 237.181 1.55537 237.257C1.55537 237.332 1.61412 237.391 1.68966 237.391Z" fill="white" fill-opacity="0.16"/>
<path d="M1.88863 235.695H1.89701C13.0765 234.914 24.4323 234.393 35.6287 234.149C35.7042 234.149 35.7714 234.082 35.763 234.007C35.763 233.931 35.6958 233.881 35.6203 233.872C24.4155 234.116 13.0598 234.637 1.87183 235.418C1.79629 235.426 1.73754 235.493 1.73754 235.569C1.75432 235.644 1.8131 235.695 1.88863 235.695Z" fill="white" fill-opacity="0.16"/>
<g opacity="0.1294">
<path d="M14.4776 239.214C14.9896 238.962 15.5939 239.13 16.1394 239.037C17.5746 239.037 19.0014 238.962 20.4367 238.936C22.0817 238.92 22.2663 238.894 23.6932 238.668C24.1967 238.6 24.7339 238.357 25.2039 238.659C26.0432 239.121 25.867 240.507 24.9353 240.734C22.5014 241.162 20.017 241.128 17.5578 241.002C16.7605 241.002 15.9632 241.061 15.1658 240.969C14.8553 241.027 14.5196 240.952 14.293 240.708C13.8565 240.288 13.9656 239.516 14.4776 239.214Z" fill="white" fill-opacity="0.16"/>
</g>
<path d="M90.7068 152.389H90.7116C90.8439 152.365 90.9479 151.807 90.9432 151.127C90.7447 110.01 90.6123 66.1031 90.5036 8.82991L90.5319 1.23716C90.5367 0.557934 90.4279 0 90.3003 0C90.1679 0 90.0592 0.533676 90.0592 1.18864L90.0309 8.82991C90.1396 66.1758 90.2767 110.059 90.4705 151.2C90.4705 151.855 90.5792 152.389 90.7068 152.389Z" fill="white" fill-opacity="0.16"/>
<path d="M92.6348 151.594C92.6043 150.349 92.5677 149.111 92.5372 147.867C92.525 147.464 92.5128 147.044 92.3056 146.696C91.952 146.086 91.1535 145.927 90.4585 145.964C90.105 145.982 89.7331 146.043 89.4405 146.251C89.1845 146.427 89.0077 146.702 88.8858 146.995C88.6603 147.544 88.6359 148.148 88.6115 148.733C88.581 149.618 88.5505 150.502 88.5322 151.393C88.5322 151.527 88.5383 151.679 88.642 151.758C88.7151 151.813 88.8065 151.807 88.898 151.807C90.1294 151.765 91.3546 151.722 92.6348 151.594Z" fill="white" fill-opacity="0.1"/>
<path d="M88.8628 152.112C88.8872 152.112 88.9055 152.112 88.9238 152.112C90.1307 152.076 91.3743 152.033 92.6727 151.905C92.8312 151.887 92.9531 151.752 92.947 151.594L92.8495 147.867C92.8373 147.471 92.8251 146.97 92.5813 146.549C92.2216 145.933 91.4475 145.61 90.4538 145.665C90.1308 145.683 89.6614 145.738 89.2773 146.007C88.9969 146.202 88.7775 146.495 88.619 146.885C88.369 147.495 88.3447 148.184 88.3203 148.733C88.2898 149.611 88.2593 150.508 88.241 151.393C88.241 151.527 88.2349 151.832 88.4788 152.015C88.6068 152.1 88.7592 152.112 88.8628 152.112ZM92.3253 151.313C91.1487 151.417 90.0088 151.454 88.9055 151.49C88.8933 151.49 88.875 151.49 88.8567 151.49C88.8567 151.472 88.8506 151.435 88.8567 151.386C88.875 150.502 88.8994 149.611 88.9299 148.733C88.9481 148.209 88.9725 147.611 89.1798 147.098C89.2895 146.824 89.4419 146.617 89.6248 146.495C89.8199 146.354 90.0881 146.287 90.4843 146.263C90.844 146.245 91.7096 146.263 92.051 146.842C92.2216 147.129 92.2277 147.519 92.2399 147.867L92.3253 151.313Z" fill="white" fill-opacity="0.16"/>
<path d="M96.317 171.814C96.5486 172.71 96.3414 173.668 96.0305 174.546C95.6586 175.601 95.11 176.651 94.2017 177.291C92.7326 178.322 90.5808 177.944 89.3494 176.657C88.118 175.37 87.7645 173.375 88.1851 171.612C90.8307 171.582 93.4763 171.545 96.317 171.814Z" fill="white" fill-opacity="0.16"/>
<path d="M92.2346 178.194C93.0026 178.194 93.7524 177.98 94.3803 177.541C95.2094 176.962 95.8494 176.01 96.3249 174.65C96.7333 173.479 96.8248 172.558 96.6175 171.74C96.587 171.612 96.4773 171.521 96.3493 171.509C93.4903 171.24 90.7959 171.277 88.1869 171.307C88.0467 171.307 87.9248 171.405 87.8943 171.545C87.4188 173.534 87.8943 175.577 89.1318 176.87C89.9608 177.736 91.1129 178.194 92.2346 178.194ZM96.0689 172.1C96.1786 172.747 96.075 173.503 95.7458 174.449C95.313 175.687 94.7522 176.535 94.0329 177.041C92.7466 177.938 90.7472 177.675 89.5768 176.443C88.5283 175.345 88.1016 173.631 88.4368 171.917C90.8874 171.887 93.4172 171.862 96.0689 172.1Z" fill="white" fill-opacity="0.16"/>
<path d="M78.3106 173.717C87.5398 173.625 96.7751 173.528 105.693 173.07C105.133 168.526 103.609 164.189 99.7011 161.902C98.3356 161.103 99.1342 161.658 96.3423 159.749C93.9892 158.139 96.452 153.448 94.4891 151.362C93.3248 150.124 91.5143 150.051 89.838 150.209C87.8141 150.404 85.7232 151.594 85.5404 153.296C85.2478 155.998 86.5218 157.852 84.9491 160.054C84.4065 160.816 82.4254 162.622 81.7 163.201C78.841 165.47 78.0241 170.325 78.3106 173.717Z" fill="white" fill-opacity="0.1"/>
<path d="M78.3114 174.028C87.3942 173.936 96.7758 173.839 105.712 173.381C105.798 173.375 105.877 173.339 105.932 173.271C105.987 173.204 106.011 173.119 105.999 173.034C105.304 167.379 103.298 163.653 99.8603 161.64C99.5372 161.451 99.33 161.335 99.1715 161.243C98.6777 160.969 98.6351 160.944 96.5137 159.493C95.4286 158.755 95.5017 157.193 95.581 155.54C95.6602 153.918 95.7395 152.24 94.7093 151.149C93.3987 149.752 91.3992 149.752 89.8082 149.904C87.7478 150.099 85.4436 151.344 85.2363 153.265C85.1266 154.29 85.2302 155.211 85.3277 156.022C85.4862 157.394 85.6264 158.578 84.6999 159.877C84.2 160.578 82.2737 162.353 81.5056 162.963C78.6466 165.226 77.6835 170.008 77.9944 173.741C78.0188 173.906 78.1529 174.028 78.3114 174.028ZM105.347 172.784C96.6173 173.223 87.4613 173.32 78.5918 173.406C78.3723 169.984 79.2928 165.501 81.8896 163.445C82.5663 162.908 84.6206 161.048 85.1997 160.237C86.2665 158.749 86.108 157.388 85.9373 155.949C85.8398 155.132 85.7423 154.29 85.8459 153.332C86.0105 151.795 88.0221 150.691 89.8692 150.52C91.3261 150.38 93.1427 150.374 94.2643 151.575C95.1116 152.478 95.0385 154.027 94.9653 155.522C94.88 157.266 94.7946 159.078 96.1662 160.011C98.3059 161.475 98.3485 161.499 98.8667 161.786C99.0252 161.871 99.2202 161.987 99.5433 162.176C102.744 164.043 104.646 167.52 105.347 172.784Z" fill="white" fill-opacity="0.16"/>
<path d="M79.165 172.417L104.201 171.503C104.256 171.503 104.304 171.454 104.298 171.399C104.298 171.344 104.243 171.301 104.195 171.301L79.165 172.216C79.1101 172.216 79.0613 172.265 79.0674 172.32C79.0674 172.375 79.1101 172.417 79.165 172.417Z" fill="white" fill-opacity="0.16"/>
<path d="M79.3086 171.185H79.3147C87.4344 170.618 95.6821 170.24 103.814 170.063C103.869 170.063 103.918 170.014 103.912 169.959C103.912 169.905 103.863 169.868 103.808 169.862C95.67 170.039 87.4222 170.417 79.2964 170.984C79.2416 170.99 79.1989 171.039 79.1989 171.094C79.2111 171.149 79.2538 171.185 79.3086 171.185Z" fill="white" fill-opacity="0.16"/>
<g opacity="0.1294">
<path d="M88.4519 173.741C88.8237 173.558 89.2626 173.68 89.6588 173.613C90.7012 173.613 91.7375 173.558 92.7799 173.54C93.9747 173.528 94.1088 173.509 95.1451 173.345C95.5109 173.296 95.901 173.119 96.2424 173.339C96.852 173.674 96.724 174.68 96.0473 174.845C94.2795 175.156 92.4751 175.132 90.689 175.04C90.1099 175.04 89.5308 175.083 88.9517 175.016C88.7262 175.059 88.4823 175.004 88.3178 174.827C88.0008 174.522 88.08 173.961 88.4519 173.741Z" fill="white" fill-opacity="0.16"/>
</g>
</svg>
