<svg width="51" height="51" viewBox="0 0 51 51" fill="none" xmlns="http://www.w3.org/2000/svg">
<g clip-path="url(#clip0_8_39002)">
<path d="M7.79145 12.1951H33.6236C34.2507 12.1951 34.7588 11.687 34.7588 11.0599C34.7588 10.4328 34.2507 9.92468 33.6236 9.92468H7.79145C7.16452 9.92468 6.65625 10.4328 6.65625 11.0599C6.65625 11.687 7.16452 12.1951 7.79145 12.1951Z" fill="black"/>
<path d="M7.79145 17.0907H36.449C37.0761 17.0907 37.5842 16.5825 37.5842 15.9555C37.5842 15.3284 37.0761 14.8203 36.449 14.8203H7.79145C7.16452 14.8203 6.65625 15.3284 6.65625 15.9555C6.65625 16.5825 7.16452 17.0907 7.79145 17.0907Z" fill="black"/>
<path d="M49.1347 18.3226C47.6304 16.8184 45.2145 16.7684 43.6491 18.1721V1.1352C43.6491 0.508116 43.141 0 42.5139 0H1.83247C1.20553 0 0.697266 0.508116 0.697266 1.1352V49.8648C0.697266 50.4919 1.20553 51 1.83247 51H42.5138C43.1409 51 43.649 50.4919 43.649 49.8648V29.4531L49.116 23.9862C49.119 23.9831 49.1213 23.98 49.1241 23.9771C49.1276 23.9738 49.1314 23.9709 49.1347 23.9676C50.691 22.4111 50.691 19.8789 49.1347 18.3226ZM2.96767 48.7296V2.2704H41.3786V20.4336L37.0361 24.7763C36.8646 24.6721 36.6642 24.6113 36.449 24.6113H7.79136C7.16442 24.6113 6.65616 25.1194 6.65616 25.7465C6.65616 26.3736 7.16442 26.8817 7.79136 26.8817H34.9305L32.3053 29.5069H7.79136C7.16442 29.5069 6.65616 30.015 6.65616 30.6421C6.65616 31.2692 7.16442 31.7773 7.79136 31.7773H30.0349L27.4097 34.4025H7.79136C7.16442 34.4025 6.65616 34.9106 6.65616 35.5377C6.65616 36.1647 7.16442 36.6729 7.79136 36.6729H25.1395L23.0512 38.7612C23.0204 38.7919 22.9924 38.8241 22.966 38.8573C22.9591 38.8661 22.9529 38.8753 22.9463 38.8842C22.9268 38.9103 22.9081 38.9368 22.8912 38.964C22.8848 38.9741 22.8788 38.9847 22.8727 38.9952C22.8562 39.0235 22.8412 39.0524 22.8273 39.0816C22.8244 39.0878 22.8208 39.0933 22.8179 39.0995L22.6324 39.5134C22.4456 39.3783 22.2167 39.2979 21.9688 39.2979H7.79136C7.16442 39.2979 6.65616 39.806 6.65616 40.4331C6.65616 41.0602 7.16442 41.5683 7.79136 41.5683H21.7112L20.2495 44.8284C20.2233 44.887 20.2033 44.947 20.1876 45.0077C19.8911 45.6385 20.0011 46.4148 20.5215 46.9351C20.8428 47.2566 21.27 47.4335 21.7247 47.4335C21.9827 47.4335 22.2311 47.3746 22.4572 47.2664C22.5151 47.2508 22.5724 47.2322 22.6281 47.2072L28.3576 44.6389C28.3635 44.6362 28.3688 44.6327 28.3745 44.6299C28.4045 44.6159 28.434 44.6006 28.4627 44.5837C28.4727 44.5779 28.4827 44.5722 28.4924 44.5661C28.5207 44.5486 28.5481 44.5295 28.5751 44.5092C28.5829 44.5032 28.5912 44.4977 28.5991 44.4915C28.6326 44.4649 28.6651 44.4367 28.696 44.4058L41.3786 31.7232V48.7296H2.96767ZM25.9256 43.2413L22.9637 44.569C22.9513 44.5558 22.9404 44.5419 22.9277 44.5291C22.9149 44.5163 22.9012 44.5054 22.8882 44.4932L24.216 41.5315L25.9256 43.2413ZM27.8933 41.998L25.4593 39.564L44.274 20.7493L46.708 23.1834L27.8933 41.998ZM48.0257 21.2901L46.1673 19.4317C46.6552 19.3907 47.1569 19.5556 47.5294 19.9281C47.9019 20.3004 48.0666 20.8025 48.0257 21.2901Z" fill="black"/>
<path d="M7.79145 21.9863H32.0091C32.6361 21.9863 33.1443 21.4781 33.1443 20.8511C33.1443 20.224 32.6361 19.7159 32.0091 19.7159H7.79145C7.16452 19.7159 6.65625 20.224 6.65625 20.8511C6.65625 21.4781 7.16452 21.9863 7.79145 21.9863Z" fill="black"/>
</g>
<defs>
<clipPath id="clip0_8_39002">
<rect width="51" height="51" fill="white"/>
</clipPath>
</defs>
</svg>
