<svg width="106" height="246" viewBox="0 0 106 246" fill="none" xmlns="http://www.w3.org/2000/svg">
<path d="M88.4194 209.815H88.4129C88.2306 209.781 88.0875 209.013 88.094 208.078C88.3673 151.466 88.5496 91.0133 88.6993 12.1574L88.6602 1.70337C88.6537 0.768185 88.8034 0 88.9791 0C89.1614 0 89.3111 0.734786 89.3111 1.63657L89.3501 12.1574C89.2004 91.1134 89.0117 151.533 88.7448 208.178C88.7448 209.08 88.5951 209.815 88.4194 209.815Z" fill="white" fill-opacity="0.16"/>
<path d="M85.7656 208.72C85.8076 207.007 85.858 205.302 85.8999 203.589C85.9167 203.035 85.9335 202.455 86.2189 201.976C86.7057 201.137 87.8051 200.918 88.7619 200.969C89.2487 200.994 89.7607 201.078 90.1636 201.363C90.5161 201.607 90.7595 201.985 90.9273 202.388C91.2379 203.144 91.2715 203.975 91.305 204.781C91.347 205.999 91.389 207.217 91.4142 208.443C91.4142 208.628 91.4057 208.838 91.2631 208.947C91.1623 209.022 91.0365 209.014 90.9106 209.014C89.2152 208.955 87.5282 208.896 85.7656 208.72Z" fill="white" fill-opacity="0.1"/>
<path d="M90.9596 209.434C90.926 209.434 90.9008 209.434 90.8757 209.434C89.2138 209.384 87.5017 209.325 85.7139 209.148C85.4957 209.123 85.3278 208.938 85.3362 208.72L85.4705 203.589C85.4873 203.043 85.5041 202.354 85.8398 201.775C86.335 200.927 87.4009 200.482 88.769 200.557C89.2138 200.582 89.8601 200.658 90.3889 201.028C90.7749 201.296 91.0771 201.699 91.2953 202.237C91.6394 203.077 91.673 204.026 91.7066 204.781C91.7485 205.991 91.7905 207.225 91.8157 208.443C91.8157 208.628 91.8241 209.048 91.4884 209.3C91.3121 209.417 91.1023 209.434 90.9596 209.434ZM86.1923 208.334C87.8122 208.477 89.3817 208.527 90.9008 208.577C90.9176 208.577 90.9428 208.577 90.968 208.577C90.968 208.552 90.9764 208.502 90.968 208.435C90.9428 207.217 90.9092 205.991 90.8673 204.781C90.8421 204.059 90.8085 203.236 90.5232 202.531C90.3721 202.153 90.1623 201.867 89.9105 201.699C89.6419 201.506 89.2726 201.414 88.727 201.38C88.2318 201.355 87.04 201.38 86.57 202.178C86.335 202.573 86.3266 203.11 86.3098 203.589L86.1923 208.334Z" fill="white" fill-opacity="0.16"/>
<path d="M80.691 236.56C80.3721 237.794 80.6575 239.113 81.0855 240.322C81.5975 241.775 82.3529 243.219 83.6034 244.101C85.6262 245.52 88.5889 245 90.2843 243.228C91.9797 241.456 92.4665 238.71 91.8874 236.283C88.2448 236.241 84.6022 236.19 80.691 236.56Z" fill="white" fill-opacity="0.16"/>
<path d="M86.3149 245.344C85.2574 245.344 84.225 245.05 83.3605 244.445C82.2191 243.648 81.3378 242.338 80.6832 240.465C80.1208 238.852 79.9949 237.584 80.2803 236.459C80.3222 236.283 80.4733 236.157 80.6496 236.14C84.5859 235.77 88.2956 235.821 91.8879 235.863C92.0809 235.863 92.2488 235.997 92.2907 236.19C92.9454 238.928 92.2907 241.741 90.5869 243.522C89.4455 244.714 87.8592 245.344 86.3149 245.344ZM81.0356 236.954C80.8846 237.845 81.0273 238.886 81.4805 240.188C82.0764 241.892 82.8485 243.06 83.8389 243.757C85.6099 244.991 88.3628 244.63 89.9742 242.934C91.4178 241.422 92.0054 239.062 91.5437 236.702C88.1697 236.66 84.6866 236.627 81.0356 236.954Z" fill="white" fill-opacity="0.16"/>
<path d="M105.487 239.18C92.7797 239.054 80.0642 238.92 67.7852 238.29C68.5573 232.033 70.6556 226.062 76.0355 222.913C77.9156 221.813 76.8161 222.577 80.6601 219.948C83.8998 217.731 80.509 211.273 83.2116 208.401C84.8147 206.696 87.3074 206.595 89.6155 206.814C92.402 207.083 95.2808 208.72 95.5326 211.063C95.9354 214.784 94.1813 217.337 96.3467 220.368C97.0937 221.418 99.8214 223.904 100.82 224.702C104.757 227.826 105.881 234.511 105.487 239.18Z" fill="white" fill-opacity="0.1"/>
<path d="M105.489 239.608C92.9831 239.482 80.0662 239.348 67.762 238.718C67.6445 238.71 67.5354 238.659 67.4599 238.567C67.3843 238.474 67.3507 238.357 67.3675 238.239C68.3243 230.454 71.0856 225.323 75.8193 222.552C76.2642 222.291 76.5495 222.132 76.7677 222.006C77.4476 221.628 77.5063 221.594 80.4271 219.596C81.9211 218.579 81.8204 216.429 81.7113 214.154C81.6021 211.92 81.493 209.61 82.9115 208.107C84.716 206.184 87.4689 206.184 89.6594 206.394C92.4963 206.663 95.6689 208.376 95.9542 211.021C96.1053 212.432 95.9626 213.7 95.8283 214.817C95.6101 216.707 95.4171 218.336 96.6928 220.125C97.3811 221.09 100.033 223.534 101.091 224.374C105.027 227.49 106.353 234.074 105.925 239.213C105.892 239.44 105.707 239.608 105.489 239.608ZM68.2656 237.895C80.2844 238.5 92.8908 238.634 105.103 238.752C105.405 234.04 104.137 227.868 100.562 225.037C99.6304 224.298 96.802 221.737 96.0046 220.62C94.5358 218.571 94.754 216.698 94.989 214.716C95.1233 213.591 95.2576 212.432 95.1149 211.114C94.8883 208.997 92.1186 207.477 89.5755 207.242C87.5696 207.049 85.0685 207.04 83.5241 208.695C82.3575 209.938 82.4582 212.071 82.5589 214.128C82.6764 216.53 82.7939 219.024 80.9055 220.309C77.9595 222.325 77.9008 222.359 77.1874 222.753C76.9692 222.871 76.7006 223.03 76.2558 223.291C71.8494 225.861 69.2308 230.647 68.2656 237.895Z" fill="white" fill-opacity="0.16"/>
<path d="M104.312 237.391L69.842 236.131C69.7665 236.131 69.6993 236.064 69.7077 235.989C69.7077 235.913 69.7833 235.854 69.8504 235.854L104.312 237.114C104.388 237.114 104.455 237.181 104.447 237.257C104.447 237.332 104.388 237.391 104.312 237.391Z" fill="white" fill-opacity="0.16"/>
<path d="M104.113 235.695H104.105C92.9254 234.914 81.5696 234.393 70.3733 234.149C70.2977 234.149 70.2306 234.082 70.239 234.007C70.239 233.931 70.3061 233.881 70.3817 233.872C81.5864 234.116 92.9422 234.637 104.13 235.418C104.206 235.426 104.264 235.493 104.264 235.569C104.248 235.644 104.189 235.695 104.113 235.695Z" fill="white" fill-opacity="0.16"/>
<g opacity="0.1294">
<path d="M91.5243 239.214C91.0124 238.962 90.4081 239.13 89.8625 239.037C88.4273 239.037 87.0005 238.962 85.5653 238.936C83.9203 238.92 83.7356 238.894 82.3088 238.668C81.8052 238.6 81.268 238.357 80.798 238.659C79.9587 239.121 80.135 240.507 81.0666 240.734C83.5006 241.162 85.9849 241.128 88.4441 241.002C89.2415 241.002 90.0388 241.061 90.8361 240.969C91.1467 241.027 91.4824 240.952 91.709 240.708C92.1454 240.288 92.0363 239.516 91.5243 239.214Z" fill="white" fill-opacity="0.16"/>
</g>
<path d="M15.2951 152.389H15.2904C15.158 152.365 15.054 151.807 15.0587 151.127C15.2573 110.01 15.3897 66.1031 15.4984 8.82991L15.47 1.23716C15.4653 0.557934 15.574 0 15.7016 0C15.834 0 15.9427 0.533676 15.9427 1.18864L15.9711 8.82991C15.8624 66.1758 15.7253 110.059 15.5315 151.2C15.5315 151.855 15.4227 152.389 15.2951 152.389Z" fill="white" fill-opacity="0.16"/>
<path d="M13.3672 151.594C13.3977 150.349 13.4342 149.111 13.4647 147.867C13.4769 147.464 13.4891 147.044 13.6964 146.696C14.0499 146.086 14.8485 145.927 15.5434 145.964C15.897 145.982 16.2688 146.043 16.5614 146.251C16.8175 146.427 16.9942 146.702 17.1162 146.995C17.3417 147.544 17.3661 148.148 17.3905 148.733C17.421 149.618 17.4514 150.502 17.4697 151.393C17.4697 151.527 17.4636 151.679 17.36 151.758C17.2868 151.813 17.1954 151.807 17.104 151.807C15.8726 151.765 14.6473 151.722 13.3672 151.594Z" fill="white" fill-opacity="0.1"/>
<path d="M17.1392 152.112C17.1148 152.112 17.0965 152.112 17.0782 152.112C15.8712 152.076 14.6277 152.033 13.3292 151.905C13.1707 151.887 13.0488 151.752 13.0549 151.594L13.1524 147.867C13.1646 147.471 13.1768 146.97 13.4207 146.549C13.7803 145.933 14.5545 145.61 15.5481 145.665C15.8712 145.683 16.3406 145.738 16.7246 146.007C17.0051 146.202 17.2245 146.495 17.383 146.885C17.6329 147.495 17.6573 148.184 17.6817 148.733C17.7122 149.611 17.7426 150.508 17.7609 151.393C17.7609 151.527 17.767 151.832 17.5232 152.015C17.3952 152.1 17.2428 152.112 17.1392 152.112ZM13.6767 151.313C14.8532 151.417 15.9931 151.454 17.0965 151.49C17.1087 151.49 17.127 151.49 17.1453 151.49C17.1453 151.472 17.1514 151.435 17.1453 151.386C17.127 150.502 17.1026 149.611 17.0721 148.733C17.0538 148.209 17.0294 147.611 16.8222 147.098C16.7125 146.824 16.56 146.617 16.3772 146.495C16.1821 146.354 15.9139 146.287 15.5176 146.263C15.158 146.245 14.2924 146.263 13.951 146.842C13.7803 147.129 13.7742 147.519 13.762 147.867L13.6767 151.313Z" fill="white" fill-opacity="0.16"/>
<path d="M9.68497 171.814C9.45333 172.71 9.66059 173.668 9.97148 174.546C10.3433 175.601 10.892 176.651 11.8002 177.291C13.2694 178.322 15.4212 177.944 16.6526 176.657C17.8839 175.37 18.2375 173.375 17.8169 171.612C15.1713 171.582 12.5257 171.545 9.68497 171.814Z" fill="white" fill-opacity="0.16"/>
<path d="M13.7674 178.194C12.9993 178.194 12.2495 177.98 11.6216 177.541C10.7926 176.962 10.1525 176.01 9.67706 174.65C9.26863 173.479 9.17719 172.558 9.38445 171.74C9.41493 171.612 9.52466 171.521 9.65267 171.509C12.5116 171.24 15.206 171.277 17.815 171.307C17.9553 171.307 18.0772 171.405 18.1077 171.545C18.5831 173.534 18.1077 175.577 16.8702 176.87C16.0412 177.736 14.889 178.194 13.7674 178.194ZM9.93308 172.1C9.82335 172.747 9.92698 173.503 10.2562 174.449C10.689 175.687 11.2498 176.535 11.9691 177.041C13.2553 177.938 15.2548 177.675 16.4252 176.443C17.4737 175.345 17.9004 173.631 17.5651 171.917C15.1146 171.887 12.5848 171.862 9.93308 172.1Z" fill="white" fill-opacity="0.16"/>
<path d="M27.6913 173.717C18.4621 173.625 9.22687 173.528 0.308594 173.07C0.869415 168.526 2.3934 164.189 6.30086 161.902C7.66633 161.103 6.86778 161.658 9.65969 159.749C12.0127 158.139 9.54995 153.448 11.5128 151.362C12.6771 150.124 14.4876 150.051 16.164 150.209C18.1878 150.404 20.2787 151.594 20.4616 153.296C20.7542 155.998 19.4801 157.852 21.0529 160.054C21.5954 160.816 23.5766 162.622 24.302 163.201C27.161 165.47 27.9778 170.325 27.6913 173.717Z" fill="white" fill-opacity="0.1"/>
<path d="M27.6906 174.028C18.6077 173.936 9.22615 173.839 0.289583 173.381C0.204241 173.375 0.125003 173.339 0.0701404 173.271C0.0152775 173.204 -0.00911573 173.119 0.00307603 173.034C0.698007 167.379 2.70356 163.653 6.14163 161.64C6.46472 161.451 6.67198 161.335 6.83047 161.243C7.32424 160.969 7.3669 160.944 9.48827 159.493C10.5733 158.755 10.5002 157.193 10.421 155.54C10.3417 153.918 10.2625 152.24 11.2927 151.149C12.6033 149.752 14.6027 149.752 16.1937 149.904C18.2542 150.099 20.5584 151.344 20.7657 153.265C20.8754 154.29 20.7718 155.211 20.6742 156.022C20.5157 157.394 20.3755 158.578 21.3021 159.877C21.802 160.578 23.7283 162.353 24.4963 162.963C27.3553 165.226 28.3185 170.008 28.0076 173.741C27.9832 173.906 27.8491 174.028 27.6906 174.028ZM0.65534 172.784C9.38464 173.223 18.5407 173.32 27.4102 173.406C27.6296 169.984 26.7092 165.501 24.1123 163.445C23.4357 162.908 21.3814 161.048 20.8022 160.237C19.7355 158.749 19.8939 157.388 20.0646 155.949C20.1622 155.132 20.2597 154.29 20.1561 153.332C19.9915 151.795 17.9798 150.691 16.1328 150.52C14.6759 150.38 12.8593 150.374 11.7377 151.575C10.8903 152.478 10.9635 154.027 11.0366 155.522C11.122 157.266 11.2073 159.078 9.83574 160.011C7.69608 161.475 7.65342 161.499 7.13527 161.786C6.97677 161.871 6.78171 161.987 6.45863 162.176C3.25829 164.043 1.35637 167.52 0.65534 172.784Z" fill="white" fill-opacity="0.16"/>
<path d="M26.837 172.417L1.80118 171.503C1.74632 171.503 1.69755 171.454 1.70364 171.399C1.70364 171.344 1.75851 171.301 1.80728 171.301L26.837 172.216C26.8918 172.216 26.9406 172.265 26.9345 172.32C26.9345 172.375 26.8918 172.417 26.837 172.417Z" fill="white" fill-opacity="0.16"/>
<path d="M26.6933 171.185H26.6873C18.5675 170.618 10.3198 170.24 2.1879 170.063C2.13303 170.063 2.08426 170.014 2.09036 169.959C2.09036 169.905 2.13914 169.868 2.194 169.862C10.332 170.039 18.5797 170.417 26.7055 170.984C26.7604 170.99 26.8031 171.039 26.8031 171.094C26.7909 171.149 26.7482 171.185 26.6933 171.185Z" fill="white" fill-opacity="0.16"/>
<g opacity="0.1294">
<path d="M17.5501 173.741C17.1782 173.558 16.7393 173.68 16.3431 173.613C15.3007 173.613 14.2644 173.558 13.222 173.54C12.0272 173.528 11.8931 173.509 10.8568 173.345C10.4911 173.296 10.1009 173.119 9.75955 173.339C9.14996 173.674 9.27798 174.68 9.95462 174.845C11.7224 175.156 13.5268 175.132 15.3129 175.04C15.892 175.04 16.4711 175.083 17.0502 175.016C17.2758 175.059 17.5196 175.004 17.6842 174.827C18.0012 174.522 17.9219 173.961 17.5501 173.741Z" fill="white" fill-opacity="0.16"/>
</g>
</svg>
