<svg width="262" height="201" viewBox="0 0 262 201" fill="none" xmlns="http://www.w3.org/2000/svg">
<path d="M175.783 129.516C175.773 132.458 175.192 149.977 166.576 153.959C157.412 158.191 118.91 161.085 113.771 153.354C113.037 152.247 112.366 151.023 112.187 149.718C112.082 148.989 112.106 148.252 112.291 147.552C112.371 147.23 112.489 146.914 112.641 146.611C113.165 145.571 114.05 144.758 114.934 143.996C119.143 140.364 123.744 137.636 128.487 134.803C131.877 132.784 135.513 130.017 136.1 125.828C137.253 117.619 130.827 107.854 134.643 99.7302C135.338 98.2454 136.615 97.1198 137.934 96.1506C145.623 90.533 165.247 93.6158 166.694 94.2022C177.731 98.6665 175.816 117.789 175.783 129.516Z" fill="#FFD386"/>
<path d="M149.514 150.445H145.73V187.287H149.514V150.445Z" fill="#56AECE"/>
<path d="M153.465 186.575L147.623 183.985L141.704 186.563C139.981 187.314 138.189 187.905 136.347 188.281C132.32 189.103 129.742 190.362 129.742 191.774C129.742 194.252 137.677 196.261 147.465 196.261C157.254 196.261 165.189 194.252 165.189 191.774C165.189 190.393 162.724 189.159 158.848 188.335C156.997 187.943 155.194 187.342 153.465 186.575Z" fill="#56AECE"/>
<path d="M175.783 129.516C175.773 132.458 175.192 149.977 166.576 153.959C157.412 158.191 118.91 161.085 113.771 153.354C113.037 152.247 112.366 151.022 112.187 149.717C112.082 148.989 112.106 148.252 112.291 147.552C113.203 147.675 114.144 147.926 115.104 148.318C129.077 153.992 160.235 149.5 165.399 143.826C170.562 138.151 172.53 116.399 166.695 106.469C160.859 96.5386 166.695 94.2025 166.695 94.2025C177.731 98.6664 175.816 117.789 175.783 129.516Z" fill="#EDBE72"/>
<path d="M53.4201 187.288H57.2031L57.2031 150.446H53.4201L53.4201 187.288Z" fill="#56AECE"/>
<path d="M27.1509 129.516C27.1606 132.458 27.7421 149.977 36.3578 153.959C45.522 158.191 84.0231 161.085 89.163 153.354C89.8962 152.247 90.5673 151.023 90.7471 149.718C90.8513 148.989 90.8275 148.252 90.6429 147.552C90.5624 147.23 90.4442 146.914 90.293 146.611C89.7682 145.571 88.8839 144.758 87.9995 143.996C83.791 140.364 79.19 137.636 74.447 134.803C71.0565 132.784 67.4203 130.017 66.8339 125.828C65.6802 117.619 72.1066 107.854 68.2906 99.7302C67.5952 98.2454 66.3188 97.1198 64.9993 96.1506C57.3106 90.533 37.6865 93.6158 36.2395 94.2022C25.2024 98.6665 27.1175 117.789 27.1509 129.516Z" fill="#FFD386"/>
<path d="M27.1509 129.516C27.1606 132.458 27.7421 149.977 36.3578 153.959C45.522 158.191 84.0232 161.085 89.163 153.354C89.8962 152.247 90.5673 151.022 90.7471 149.717C90.8513 148.989 90.8275 148.252 90.6429 147.552C89.7304 147.675 88.7894 147.926 87.8295 148.318C73.8563 153.992 42.6989 149.5 37.5348 143.826C32.3712 138.151 30.4038 116.399 36.239 106.469C42.0743 96.5386 36.239 94.2025 36.239 94.2025C25.2024 98.6664 27.1175 117.789 27.1509 129.516Z" fill="#EDBE72"/>
<path d="M49.4718 186.576L55.3138 183.985L61.2328 186.564C62.956 187.314 64.7479 187.905 66.5898 188.281C70.617 189.104 73.1945 190.363 73.1945 191.774C73.1945 194.252 65.2596 196.261 55.4713 196.261C45.6829 196.261 37.748 194.252 37.748 191.774C37.748 190.394 40.2131 189.159 44.0887 188.336C45.9392 187.943 47.7423 187.343 49.4718 186.576Z" fill="#56AECE"/>
<path d="M75.7115 194.659C81.0311 195.404 97.2536 195.1 98.1728 193.949C100.14 191.487 96.0451 189.34 85.8783 186.91C85.6001 186.844 84.1789 184.758 84.0146 183.616C82.2193 183.528 78.9077 186.112 77.1119 186.024C77.0377 187.226 75.0728 194.628 75.7115 194.659Z" fill="#BDBEC0"/>
<path d="M54.42 196.794C54.3832 201.043 64.9992 200.808 68.7028 198.442C69.9442 197.649 70.0363 196.408 68.854 194.849C67.1308 192.578 65.6737 191.04 63.795 188.933C62.666 187.666 61.3533 186.156 61.7419 184.504C61.6789 184.771 57.1879 184.378 56.6718 184.496C54.3061 185.037 55.4924 184.278 55.1033 186.18C54.4762 189.243 54.422 196.605 54.42 196.794Z" fill="#BDBEC0"/>
<path d="M95.4489 145.717C97.252 155.426 87.4898 169.123 85.2153 186.149C82.631 187.608 79.2395 187.359 77.1113 186.024C76.6592 170.571 79.2763 157.426 81.8475 151.858C82.0747 151.366 73.9664 148.026 70.6965 146.556C68.1113 145.393 65.4569 144.183 63.4968 142.135C60.0689 138.555 59.4302 133.131 59.8063 128.189C59.8416 127.721 59.9027 127.214 60.2327 126.88C60.5695 126.539 61.0889 126.478 61.5657 126.435C67.0588 125.948 72.1706 126.193 77.9147 130.606C80.5488 132.63 94.9808 143.195 95.4489 145.717Z" fill="#684048"/>
<path d="M54.6242 149.675C57.0315 151.147 59.7277 152.353 59.7146 153.992C59.6826 157.842 57.7041 165.109 56.8203 168.856C55.4862 174.513 54.8359 180.331 54.8883 186.142C55.4761 188.478 61.2919 189.1 62.5925 186.227C66.5524 177.479 70.6063 168.025 74.887 159.429C76.5419 156.106 77.6942 153.755 77.133 151.154C76.4532 148.001 64.7057 137.778 64.2381 135.71C63.771 133.642 63.9493 131.489 64.13 129.377C57.4803 128.8 50.8305 128.222 44.1812 127.645C42.6514 127.512 40.685 128.796 40.3342 130.105C39.8021 132.087 40.2164 138.15 42.2589 141.46C46.4068 148.183 50.6866 147.267 54.6242 149.675Z" fill="#684048"/>
<path d="M93.7184 66.8393C94.1022 66.5878 94.5426 66.4071 94.8542 66.0703C95.2288 65.6657 95.4086 65.0483 95.915 64.8303C96.6394 64.5182 98.2927 64.2643 97.4191 65.861C96.9975 66.6314 94.8353 68.0503 95.2986 67.8458C96.5241 67.398 97.6599 67.5376 98.8432 66.9881C99.4814 66.6915 99.5725 64.5676 99.634 63.7104C99.6961 62.8532 99.9165 61.8565 100.739 62.106C101.26 62.264 101.729 69.002 101.446 69.2951C100.332 70.4469 98.3504 71.546 97.5843 72.3C96.9907 72.8834 97.9056 74.0992 96.8749 74.8057C95.929 75.4492 92.9663 77.7005 92.0137 74.8057C91.3968 72.9314 92.0088 67.9601 93.7184 66.8393Z" fill="#FFAF66"/>
<path d="M86.744 96.0237C91.5252 90.8679 89.9378 80.7282 91.1201 73.0938C92.381 72.1619 96.0831 72.5704 97.8978 73.0938C97.8978 81.2588 99.5483 94.8074 96.3511 100.864C95.4745 102.524 94.5068 104.22 92.9736 105.303C90.6981 106.91 87.5891 106.839 84.9506 105.944C82.3126 105.05 79.989 103.44 77.5575 102.08C75.0953 100.703 72.4753 99.5577 70.2806 97.7851C66.3372 94.6005 64.113 84.7894 71.7067 84.5655C77.162 84.4046 83.8501 92.0924 86.744 96.0237Z" fill="#553568"/>
<path d="M37.9191 90.4701C36.8061 93.3228 37.6575 95.6643 37.53 98.7238C37.328 103.578 37.1332 108.51 38.2981 113.227C38.8844 115.601 39.8085 117.889 40.2558 120.292C40.7127 122.746 40.6613 125.277 40.3066 127.749C40.1937 128.535 40.0542 129.36 40.3289 130.106C40.8324 131.471 42.4562 131.992 43.875 132.317C49.0701 133.504 54.3781 134.434 59.7011 134.185C65.8334 133.898 71.7733 132.06 77.8169 130.983C78.9008 130.231 72.1697 125.666 74.2199 115.298C75.2908 109.882 76.4169 104.43 76.5201 98.9104C76.5977 94.7683 75.8291 90.662 75.064 86.5902C74.9026 85.7305 74.7204 84.8278 74.1482 84.1663C73.3578 83.2534 72.0475 83.0402 70.8497 82.8851C64.4994 82.0638 58.4485 79.7485 51.4901 80.957C47.77 81.603 43.5678 82.6918 42.0957 83.6139C39.9141 84.9799 39.1025 87.4362 37.9191 90.4701Z" fill="#553568"/>
<path d="M50.4256 83.8563C51.0633 85.6986 51.8904 87.3355 53.0393 88.9142C54.0114 90.2492 55.0794 91.6574 56.7589 92.0703C57.0424 92.14 57.1364 91.7461 56.8767 91.6429C53.8292 90.43 51.9079 86.6644 50.7812 83.7579C50.6974 83.5403 50.3466 83.628 50.4256 83.8563Z" fill="#442B56"/>
<path d="M50.8363 101.681C52.055 103.474 53.7762 105.34 55.8758 106.063C55.9955 106.104 56.042 105.939 55.9558 105.874C54.1561 104.525 52.4431 103.382 51.1042 101.525C50.9894 101.365 50.7224 101.515 50.8363 101.681Z" fill="#442B56"/>
<path d="M50.8971 105.942C52.0891 106.911 53.4348 107.995 54.8914 108.523C55.0503 108.58 55.1216 108.351 54.9995 108.266C53.7289 107.372 52.3474 106.691 51.1161 105.723C50.962 105.601 50.7411 105.815 50.8971 105.942Z" fill="#442B56"/>
<path d="M49.6975 124.901C52.7169 125.939 55.7876 126.757 58.9378 127.291C61.3432 127.699 63.957 128.215 66.3697 127.707C66.578 127.664 66.5354 127.302 66.3188 127.33C60.9623 128.013 54.848 126.243 49.7687 124.644C49.6035 124.592 49.5366 124.845 49.6975 124.901Z" fill="#442B56"/>
<path d="M51.4902 80.9564C51.7078 81.7249 53.2454 84.9881 53.6737 85.6626C56.6834 90.3998 60.1757 91.1 62.9872 91.1353C67.5519 91.1925 70.6594 82.824 70.6148 82.3869C70.5484 81.7366 68.3674 82.0903 68.0248 81.534C67.0246 79.9088 68.1542 74.2068 67.7748 74.2577C64.2132 74.7355 56.0849 67.636 55.4947 71.9473C55.1221 74.6686 55.1221 77.529 53.6742 79.573C52.7395 80.892 51.4902 80.9564 51.4902 80.9564Z" fill="#E89B5B"/>
<path d="M57.5 75.5556C58.8505 77.1121 62.8104 80.6078 66.0314 79.2762C67.2331 78.7795 68.2454 77.9063 69.106 76.9313C72.1515 73.4807 72.0963 68.4116 72.1704 61.3761C72.2053 58.0393 69.6395 57.6584 66.5247 56.4611C62.9907 55.1023 57.2626 55.127 55.6141 58.5903C53.5847 62.855 54.4477 72.0376 57.5 75.5556Z" fill="#FFAF66"/>
<path d="M63.2734 73.0944C63.2734 73.0944 63.3219 77.6227 64.466 77.5287C65.5306 77.4415 66.5758 74.8529 66.5995 73.827C66.5995 73.827 64.4665 73.9617 63.2734 73.0944Z" fill="white"/>
<path d="M56.1248 66.2105C56.6869 62.1396 56.8589 57.7993 58.4076 58.5514C62.4635 60.5202 68.1519 61.9792 72.1661 61.3764C73.4647 59.4158 74.2657 56.9591 72.7534 54.4533C70.8713 51.3346 58.269 49.2825 56.2537 54.2479C51.9977 53.8932 51.4119 57.8473 51.2902 59.3494C50.969 63.3195 51.9841 65.2239 52.4435 68.6038C53.5478 68.7952 54.7239 69.1877 55.6848 69.6093C55.6824 69.0704 56.2663 67.7321 56.1248 66.2105Z" fill="#0C2D41"/>
<path d="M56.7626 67.6774C56.326 66.0202 54.8554 64.1032 53.3629 64.9454C51.4711 66.0119 52.3661 69.0788 53.3265 70.6023C53.8101 71.3694 54.5864 72.0022 55.4916 71.947C57.4943 71.8253 56.7626 67.6774 56.7626 67.6774Z" fill="#FFAF66"/>
<path d="M62.5157 67.5477C62.9008 67.5477 63.213 67.2355 63.213 66.8504C63.213 66.4653 62.9008 66.1531 62.5157 66.1531C62.1305 66.1531 61.8184 66.4653 61.8184 66.8504C61.8184 67.2355 62.1305 67.5477 62.5157 67.5477Z" fill="#0C2D41"/>
<path d="M65.9512 66.0763C65.6847 67.1995 65.7303 68.3412 66.0714 69.4475C66.2241 69.9427 66.6321 70.5271 66.4988 70.9652C66.2294 71.8509 65.1415 71.6857 64.4675 71.645C64.3376 71.6373 64.2557 71.7734 64.2824 71.8883C64.6201 73.3555 66.6703 72.1039 67.1709 71.4003C67.5527 70.8634 67.3371 70.609 67.0725 70.0571C66.4789 68.818 66.3801 67.5039 66.5172 66.1529C66.5502 65.8282 66.0254 65.7642 65.9512 66.0763Z" fill="#E89B5B"/>
<path d="M61.1602 64.3119C61.9695 63.8506 63.2007 63.6888 63.9562 64.3328C64.6642 64.9365 65.6919 63.8884 64.9748 63.3142C63.6625 62.2627 61.8493 62.5626 60.5826 63.5638C60.1494 63.9064 60.7033 64.5722 61.1602 64.3119Z" fill="#0C2D41"/>
<path d="M69.4864 67.5477C69.8715 67.5477 70.1837 67.2355 70.1837 66.8504C70.1837 66.4653 69.8715 66.1531 69.4864 66.1531C69.1013 66.1531 68.7891 66.4653 68.7891 66.8504C68.7891 67.2355 69.1013 67.5477 69.4864 67.5477Z" fill="#0C2D41"/>
<path d="M71.5582 64.1777C70.9282 62.6469 69.3224 62.6285 67.9782 63.2086C67.1399 63.5705 67.8619 64.8542 68.7055 64.4525C69.3558 64.1428 70.2091 63.8031 70.6869 64.545C70.9626 64.9729 71.7738 64.7015 71.5582 64.1777Z" fill="#0C2D41"/>
<path d="M55.2479 66.6385C54.8122 66.3856 54.2245 66.1946 53.7728 66.5275C53.3905 66.8096 53.4259 67.3227 53.4186 67.7458C53.4026 68.6732 53.6808 70.0945 54.8563 70.1342C55.0497 70.1405 55.1442 69.842 54.9591 69.7558C54.3063 69.4519 53.9928 69.0163 53.9356 68.2933C53.9197 68.0913 53.9071 67.8373 53.9352 67.6362C53.8959 67.268 54.1159 67.0412 54.5937 66.9559C54.7454 67.0078 54.898 67.0572 55.0511 67.1047C55.3293 67.1929 55.4955 66.7824 55.2479 66.6385Z" fill="#E89B5B"/>
<path d="M60.3371 56.3881C63.0579 58.2358 66.7707 59.7152 70.1172 59.1856C70.3018 59.1565 70.2291 58.9079 70.077 58.888C66.5246 58.4262 63.6259 58.0604 60.4863 56.1328C60.3225 56.0325 60.181 56.2825 60.3371 56.3881Z" fill="#113F56"/>
<path d="M60.7791 54.7174C62.7024 54.9083 64.6188 55.263 66.4505 55.892C68.0695 56.4483 69.5237 57.3346 71.117 57.9292C71.2269 57.9703 71.3185 57.8075 71.2318 57.7314C68.5342 55.374 64.2511 54.5609 60.7791 54.4291C60.5911 54.4218 60.5979 54.6995 60.7791 54.7174Z" fill="#113F56"/>
<path d="M53.2412 62.0229C53.2082 61.0062 53.1607 59.9247 53.4932 58.9483C53.8682 57.8468 54.583 57.4761 55.4799 56.8733C55.5884 56.8002 55.5443 56.6417 55.4145 56.6325C54.486 56.5666 53.7039 57.4882 53.3202 58.2481C52.7285 59.4188 52.8022 60.7572 52.9088 62.0229C52.9262 62.2332 53.2484 62.2395 53.2412 62.0229Z" fill="#113F56"/>
<path d="M54.7744 61.8596C54.7904 61.0838 54.9546 60.3332 55.3055 59.6378C55.6379 58.9793 56.1433 58.5475 56.6327 58.0213C56.7965 57.8449 56.5906 57.5784 56.3774 57.6903C54.9639 58.4341 54.3271 60.3656 54.5229 61.8591C54.5437 62.0151 54.771 62.0267 54.7744 61.8596Z" fill="#113F56"/>
<path d="M60.7773 52.8115C64.5216 52.5343 67.2608 53.8044 70.5617 55.3172C70.7304 55.3947 70.9407 55.1811 70.7769 55.0386C68.1398 52.7533 64.1135 52.3071 60.7773 52.6559C60.6799 52.6661 60.677 52.8188 60.7773 52.8115Z" fill="#113F56"/>
<path d="M67.0571 113.01C67.4976 112.994 72.2638 116.86 72.1756 117.66C72.0409 118.885 68.1542 116.756 67.6686 116.714C67.1812 116.672 64.8131 117.467 64.3629 117.66C62.6935 118.374 61.4739 117.502 59.7158 117.047C57.1844 116.393 55.8698 114.623 56.9029 112.221C60.3627 113.308 62.6083 113.168 67.0571 113.01Z" fill="#FFAF66"/>
<path d="M35.9792 93.1447C33.5684 99.3031 32.3739 106.358 32.3284 112.97C32.3051 116.36 33.8083 117.612 34.5744 117.66C43.8476 118.239 52.6789 118.468 61.9348 117.66C62.3025 115.099 61.5897 114.782 61.958 112.222C55.6334 112.112 46.8297 108.36 42.1797 109.143C43.0898 106.827 48.4845 98.272 49.8243 93.1491C50.4994 90.5677 50.683 87.1554 48.721 85.3465C46.3577 83.1678 44.2576 82.9338 42.1007 83.6127C37.3427 85.1105 36.988 90.5673 35.9792 93.1447Z" fill="#5E3C77"/>
<path d="M36.668 112.311C37.3949 111.57 38.2269 110.984 39.1892 110.59C39.983 110.264 40.8601 110.253 41.6276 109.913C41.7657 109.852 41.7182 109.637 41.5869 109.602C39.7984 109.125 37.5044 110.789 36.3753 112.018C36.196 112.213 36.4805 112.502 36.668 112.311Z" fill="#553568"/>
<path d="M36.3675 110.055C37.0095 109.81 37.655 109.631 38.3397 109.557C38.9464 109.49 39.5623 109.602 40.1578 109.475C40.2804 109.449 40.3032 109.262 40.1932 109.205C39.0438 108.604 37.3017 109.195 36.257 109.792C36.1189 109.87 36.211 110.114 36.3675 110.055Z" fill="#553568"/>
<path d="M59.1981 113.687C59.547 113.698 59.8837 113.75 60.2186 113.851C60.5137 113.939 60.7778 114.106 61.0889 114.122C61.2594 114.131 61.4126 113.902 61.2997 113.755C60.865 113.19 59.8614 113.106 59.1985 113.111C58.8264 113.114 58.8279 113.676 59.1981 113.687Z" fill="#553568"/>
<path d="M59.2035 115.097C59.6794 115.049 60.1344 115.09 60.5928 115.227C60.6868 115.255 60.8225 115.229 60.8869 115.15C60.9426 115.08 60.9824 115.028 60.9756 114.936C60.9659 114.805 60.8884 114.678 60.7537 114.644C60.2134 114.511 59.6823 114.492 59.1328 114.574C58.8396 114.618 58.905 115.126 59.2035 115.097Z" fill="#553568"/>
<path d="M59.1981 116.688C59.5213 116.694 59.8445 116.7 60.1682 116.706C60.4537 116.712 60.6901 116.734 60.9179 116.543C60.9969 116.477 60.9969 116.322 60.9179 116.256C60.6901 116.065 60.4537 116.087 60.1682 116.093C59.845 116.099 59.5213 116.105 59.1981 116.111C58.8274 116.118 58.8269 116.68 59.1981 116.688Z" fill="#553568"/>
<path d="M204.013 182.421C203.044 183.973 198.683 186.128 197.349 186.502C190.374 188.459 190.449 190.097 192.069 191.293C192.975 191.962 196.758 191.822 203.969 191.704C204.837 191.69 211.706 191.08 211.677 190.738C211.376 187.192 209.49 181.828 209.015 177.499C208.985 177.225 208.8 176.964 208.558 176.83C208.368 176.724 208.137 176.73 207.92 176.738C206.301 176.799 204.681 176.86 203.062 176.922C204.14 176.881 204.319 181.932 204.013 182.421Z" fill="#0C2D41"/>
<path d="M181.825 182.514C180.677 183.154 175.438 185.119 174.18 185.499C171.907 186.186 168.326 187.643 168.979 189.694C170.728 191.254 174.319 190.604 176.663 190.598C179.62 190.59 191.44 190.328 191.44 190.126C191.452 185.146 189.943 181.655 188.951 177.426C186.976 177.327 185.206 177.134 183.244 177.241C182.803 179.463 184.609 180.959 181.825 182.514Z" fill="#0C2D41"/>
<path d="M182.617 180.976C182.705 182.298 190.012 182.668 190.101 180.51C190.801 163.529 192.075 119.631 194.124 111.986C194.72 111.602 194.973 111.723 195.405 112.285C195.838 112.848 199.057 159.1 203.108 182.077C203.283 183.069 208.549 182.136 210.32 181.607C210.157 148.167 212.462 118.751 211.404 92.9452C208.625 89.7615 196.632 89.3496 190.269 89.919C186.139 90.2887 179.78 90.392 177.381 94.4197C177.381 98.4586 177.859 105.397 177.851 106.764C177.824 111.569 178.303 116.013 178.519 120.813C179.075 133.121 181.992 171.577 182.617 180.976Z" fill="#5E3C77"/>
<path d="M185.62 106.619C187.273 108.587 189.887 110.674 192.556 110.886C192.73 110.899 192.81 110.621 192.647 110.548C191.471 110.02 190.248 109.704 189.121 109.043C187.895 108.325 186.826 107.415 185.886 106.352C185.724 106.169 185.465 106.435 185.62 106.619Z" fill="#4C3363"/>
<path d="M192.019 105.267C192.323 106.356 192.522 107.601 193.006 108.623C193.094 108.809 193.431 108.725 193.405 108.515C193.264 107.391 192.768 106.235 192.439 105.152C192.358 104.884 191.943 104.996 192.019 105.267Z" fill="#4C3363"/>
<path d="M202.043 103.396C202.445 104.446 203.163 105.304 204.153 105.85C204.944 106.286 206.293 106.754 207.128 106.254C207.251 106.18 207.231 105.98 207.087 105.943C206.217 105.723 205.394 105.89 204.531 105.46C203.605 104.997 202.897 104.227 202.52 103.265C202.405 102.972 201.929 103.097 202.043 103.396Z" fill="#4C3363"/>
<path d="M204.458 108.13C204.94 108.233 205.422 108.335 205.904 108.438C206.293 108.52 206.691 108.669 207.082 108.555C207.19 108.523 207.259 108.357 207.155 108.277C206.829 108.025 206.44 108.012 206.04 107.944C205.553 107.861 205.065 107.779 204.578 107.696C204.297 107.647 204.171 108.069 204.458 108.13Z" fill="#4C3363"/>
<path d="M175.557 43.8126C175.621 59.049 176.835 80.2456 176.115 95.5954C175.927 99.612 179.601 101.455 180.42 101.74C186.411 103.822 192.182 105.2 197.498 101.74C202.539 98.4582 203.195 97.3515 207.252 93.6648C209.727 91.4155 212.545 93.7487 212.533 93.5059C211.696 77.547 209.695 57.8322 208.858 41.8738C208.813 41.0147 201.097 40.1647 200.23 40.0882C197.12 39.8129 193.975 39.9142 190.89 40.3944C184.911 41.3253 179.722 41.9218 175.557 43.8126Z" fill="#E6335A"/>
<path d="M225.52 70.2943C226.275 75.0227 219.72 89.9626 214.295 95.6718C213.105 96.9244 212.372 98.8603 211.63 100.421C211.224 101.273 210.893 102.3 210.022 102.663C209.116 103.04 208.076 102.471 207.434 101.73C206.068 100.155 205.789 97.8538 206.236 95.8176C207.044 92.1257 209.805 92.9223 210.838 91.111C213.423 86.5759 216.483 72.9197 215.815 72.186C213.535 69.6866 209.486 60.7182 206.126 55.916C205.248 54.661 213.884 49.7576 215.083 51.1435C218.18 54.7187 224.596 64.4993 225.52 70.2943Z" fill="#FFAF66"/>
<path d="M221.823 60.306C219.501 61.2059 211.478 65.3184 210.279 64.044C208.026 61.6488 207.87 58.7045 206.128 55.9158C204.385 53.1271 203.133 49.9517 203.062 46.6639C203.002 43.88 204.408 40.9353 207.661 41.2934C210.072 41.5584 212.056 44.1393 213.548 45.8609C214.585 47.0559 222.448 60.0642 221.823 60.306Z" fill="#E6335A"/>
<path d="M197.427 41.2629C198.373 45.783 188.868 46.9891 184.84 45.861C184.432 45.7467 183.989 45.5761 183.803 45.1952C183.548 44.6729 183.902 44.0773 184.17 43.5617C185.584 40.837 184.664 37.5375 183.72 34.6161C183.435 33.7351 192.004 29.437 192.777 31.5182C194.225 35.4195 195.848 38.5794 197.427 41.2629Z" fill="#E89B5B"/>
<path d="M178.302 34.8313C179.473 36.9334 180.918 38.9788 182.979 40.2188C185.041 41.4588 187.839 41.72 189.795 40.3196C191.742 38.925 192.385 36.3509 192.72 33.9794C193.08 31.4359 193.244 28.8284 192.734 26.3106C192.225 23.7928 190.982 21.3534 188.942 19.7921C186.796 18.1504 183.843 17.6237 181.263 18.4227C172.477 21.1412 174.877 28.6821 178.302 34.8313Z" fill="#F9A86B"/>
<path d="M171.851 22.9553C172.092 23.5808 171.523 24.1953 171.295 24.8252C170.811 26.1621 172.354 27.7263 173.697 27.2592C174.925 26.8328 175.682 25.1901 176.973 25.334C177.813 25.4275 178.4 26.2843 179.233 26.4272C181.288 26.779 182.15 22.8549 184.204 23.2145C184.877 23.3322 185.407 23.9244 186.087 23.9864C187.356 24.1022 188.038 23.6777 188.962 24.5548C189.638 25.1964 189.926 28.8171 190.326 29.6588C191.016 31.4401 192.369 29.3574 192.758 29.6588C195.058 31.4401 196.044 27.7133 195.619 26.8008C195.195 25.8884 194.206 24.7957 194.767 23.4863C194.977 22.9974 195.299 22.3747 195.031 21.9158C193.057 18.5398 197.063 17.0159 193.057 15.8931C191.435 14.3682 191.352 13.4528 189.424 14.5659C189.126 14.7379 188.83 14.9448 188.487 14.9748C187.867 15.0296 187.369 14.5053 186.932 14.0624C185.813 12.9295 184.02 12.0403 182.681 12.9014C182.098 13.2759 182.056 14.5789 179.78 14.1738C176.37 13.5667 177.748 15.6998 175.579 15.8122C174.238 15.8815 173.471 15.4318 172.325 16.226C171.438 16.8414 170.245 18.3431 170.017 19.3936C169.497 21.7952 171.209 21.2874 171.851 22.9553Z" fill="#5E3C77"/>
<path d="M193.048 25.4379C190.289 25.4723 191.137 29.2632 191.137 29.2632C192.14 34.2605 194.526 31.0323 194.496 29.613C194.474 28.5702 194.496 25.42 193.048 25.4379Z" fill="#FFAF66"/>
<path d="M180.857 31.4406C180.857 31.8326 180.539 32.15 180.147 32.15C179.755 32.15 179.438 31.8321 179.438 31.4406C179.438 31.0491 179.755 30.7307 180.147 30.7307C180.539 30.7307 180.857 31.0486 180.857 31.4406Z" fill="#5E3C77"/>
<path d="M187.103 29.659C187.103 30.051 186.785 30.3684 186.393 30.3684C186.001 30.3684 185.684 30.0505 185.684 29.659C185.684 29.2675 186.001 28.9496 186.393 28.9496C186.785 28.9496 187.103 29.267 187.103 29.659Z" fill="#5E3C77"/>
<path d="M182.545 30.8768C182.984 31.5838 183.123 32.3373 183.115 33.1587C183.108 33.7595 182.921 34.3938 182.96 34.9845C183.022 35.9236 184.148 35.9769 184.883 35.7865C185.289 35.6814 185.149 35.1595 184.791 35.1115C184.524 35.0761 184.118 35.1265 183.878 34.9826C183.585 34.8062 183.697 34.6487 183.714 34.3241C183.74 33.84 183.755 33.3535 183.716 32.8699C183.651 32.0534 183.435 31.3066 182.966 30.6307C182.79 30.3763 182.377 30.6064 182.545 30.8768Z" fill="#E99C5B"/>
<path d="M187.833 35.9446C185.787 37.2277 183.611 37.3145 183.611 37.3145C184.184 39.0405 186.609 40.0756 187.98 39.0943C188.796 38.5109 187.833 35.9446 187.833 35.9446Z" fill="white"/>
<path d="M177.655 29.4579C177.924 29.1715 178.237 28.9355 178.603 28.7882C178.942 28.652 179.394 28.6424 179.578 28.2789C179.651 28.135 179.647 27.9378 179.519 27.8225C179.109 27.4532 178.542 27.7318 178.138 27.9838C177.712 28.2513 177.364 28.6002 177.08 29.0145C176.845 29.3581 177.373 29.7583 177.655 29.4579Z" fill="#5E3C77"/>
<path d="M184.416 26.7881C185.005 26.6422 185.596 26.5623 186.204 26.5637C186.672 26.5647 187.139 26.6756 187.495 26.3088C187.586 26.2153 187.621 26.0467 187.543 25.9328C187.21 25.4405 186.634 25.5044 186.097 25.5626C185.444 25.6333 184.816 25.7773 184.198 25.9972C183.705 26.1722 183.897 26.9165 184.416 26.7881Z" fill="#5E3C77"/>
<path d="M192.175 28.5984C192.179 28.4027 192.203 28.2093 192.249 28.0184C192.9 27.5212 193.255 27.5086 193.316 27.9806C193.399 28.2568 193.381 28.5941 193.395 28.8805C193.425 29.477 193.564 30.37 192.937 30.715C192.669 30.8624 192.905 31.2607 193.175 31.1235C193.738 30.8372 193.896 30.2625 193.938 29.6679C193.984 29.0127 194.039 28.0484 193.724 27.4422C193.494 27.0018 193.035 26.7735 192.554 26.9514C191.865 27.2063 191.74 27.954 191.732 28.5989C191.729 28.8853 192.159 28.8814 192.175 28.5984Z" fill="#E99C5B"/>
<path d="M173.393 19.3687C172.326 19.4831 172.198 20.8854 173.161 21.2828C173.571 21.4519 173.975 21.4533 174.218 21.8919C174.391 22.2054 174.434 22.5494 174.716 22.798C174.992 23.0418 175.551 23.2118 175.677 22.7457C175.69 22.6963 175.66 22.627 175.605 22.6182C175.463 22.596 175.258 22.5955 175.136 22.5281C174.869 22.3813 174.831 22.0964 174.737 21.8478C174.64 21.5914 174.549 21.3472 174.337 21.1602C174.106 20.9557 173.837 20.9067 173.551 20.8181C173.293 20.7376 173.033 20.6509 173.048 20.3189C173.059 20.0771 173.228 19.8993 173.457 19.8479C173.721 19.7883 173.669 19.3391 173.393 19.3687Z" fill="#744E96"/>
<path d="M176.959 19.0254C176.47 20.1404 177.174 21.4895 178.446 21.5501C178.567 21.5559 178.693 21.5268 178.814 21.5166C179.478 21.4599 179.63 21.5287 180.078 21.9508C180.274 22.1349 180.4 22.2842 180.664 22.3782C181.324 22.6132 182.043 22.242 182.521 21.8098C182.729 21.6228 182.465 21.3509 182.244 21.4502C182.079 21.5244 181.901 21.6601 181.733 21.7129C179.476 22.4189 180.828 21.6092 180.294 21.222C180.052 21.0466 179.999 20.956 179.692 20.894C179.454 20.846 179.203 20.9056 178.967 20.9303C178.041 21.0272 176.925 20.4385 177.413 19.2905C177.542 18.9843 177.095 18.7153 176.959 19.0254Z" fill="#744E96"/>
<path d="M182.212 17.796C182.221 17.7912 182.23 17.7868 182.239 17.782C182.351 17.7219 182.356 17.5368 182.239 17.4781C182.122 17.42 182.065 17.4093 181.941 17.4481C181.833 17.4815 181.778 17.5673 181.769 17.6744C181.723 18.1527 181.998 18.4856 182.42 18.6867C182.718 18.8286 183.023 18.8461 183.346 18.8534C183.577 18.8587 184.009 18.8005 184.21 18.9096C184.63 19.1363 184.765 19.6708 184.818 20.0851C184.891 20.6409 184.967 21.2607 185.52 21.5437C185.947 21.7622 186.42 21.6896 186.624 21.2404C186.701 21.0712 186.536 20.8541 186.352 20.9675C185.352 21.5829 185.389 19.7522 185.289 19.3995C185.207 19.1068 185.082 18.8349 184.847 18.6314C184.624 18.4371 184.347 18.362 184.061 18.3203C183.823 18.2859 183.583 18.3155 183.345 18.3053C183.266 18.3053 183.187 18.3053 183.108 18.3053C182.734 18.2942 182.43 18.126 182.196 17.7999C182.13 17.7136 182.064 17.6274 181.997 17.5416C181.993 17.5508 181.989 17.5595 181.984 17.5688C181.915 17.717 182.059 17.8779 182.212 17.796Z" fill="#744E96"/>
<path d="M187.905 17.7903C187.739 18.5365 187.977 19.3414 188.601 19.8114C189.001 20.1123 190.257 20.5305 190.516 19.8797C190.539 19.8221 190.501 19.7513 190.452 19.7213C190.238 19.5904 190.096 19.6956 189.856 19.7111C189.537 19.7315 189.22 19.651 188.943 19.4935C188.348 19.1558 188.094 18.4842 188.18 17.8281C188.201 17.6706 187.938 17.6371 187.905 17.7903Z" fill="#744E96"/>
<path d="M189.449 22.2389C189.671 22.6353 189.982 22.9697 190.369 23.2119C190.666 23.3975 191.175 23.6926 191.488 23.4426C191.548 23.3946 191.556 23.2851 191.516 23.2231C191.346 22.9566 190.924 22.9692 190.655 22.8257C190.302 22.6382 190.018 22.3678 189.806 22.0306C189.665 21.8047 189.318 22.0054 189.449 22.2389Z" fill="#744E96"/>
<path d="M190.936 17.3584C191.525 17.274 192.15 17.5546 192.386 18.1201C192.63 18.7064 192.328 19.0854 192.197 19.63C192.148 19.835 192.367 20.0143 192.555 19.9053C193.252 19.5026 193.173 18.3469 192.78 17.7591C192.355 17.1248 191.571 16.8583 190.841 17.0167C190.614 17.0657 190.716 17.3899 190.936 17.3584Z" fill="#744E96"/>
<path d="M170.013 74.1743C170.547 76.4721 172.605 78.0993 174.576 79.5056C176.496 80.8764 182.102 79.5056 184.504 72.8582C187.382 64.8889 188.205 58.7625 187.816 49.0148C187.776 48.0127 189.123 47.0063 189.077 45.7047C188.96 42.3684 188.244 42.5943 188.44 42.4736C189.885 41.5864 190.328 42.0796 190.259 40.5033C189.077 39.0065 184.423 39.0627 182.247 42.4998C181.743 43.2979 181.545 44.2093 181.59 45.1533C181.632 46.0362 182.313 47.675 182.424 48.5516C183.04 53.4167 181.965 56.1952 180.419 60.1275C178.784 64.2866 178.103 65.4922 177.204 69.2636C177.378 67.1417 177.235 63.6048 176.94 61.3099C175.117 61.4892 168.367 59.4792 168.27 61.5463C168.135 64.4538 169.615 72.4662 170.013 74.1743Z" fill="#FFAF66"/>
<path d="M169.29 50.8136C167.626 55.7979 167.388 61.197 167.749 66.4386C171.395 66.3257 173.851 66.2496 177.497 66.1367C177.625 64.1417 178.497 54.9286 178.04 51.3006C177.736 48.8816 178.155 42.5444 175.554 43.813C172.517 45.2933 170.363 47.5965 169.29 50.8136Z" fill="#E6335A"/>
<path d="M189.565 47.8824C191.839 48.2633 194.657 47.7908 196.611 46.5188C197.685 45.8191 199.72 44.2593 199.632 42.7891C199.616 42.5211 199.255 42.4702 199.168 42.7261C197.916 46.4098 193.121 47.8456 189.624 47.454C189.381 47.4269 189.323 47.8417 189.565 47.8824Z" fill="#D32F5A"/>
<path d="M208.923 59.5639C207.725 55.7474 205.985 51.3901 206.826 47.3623C206.879 47.1079 206.532 47.0178 206.441 47.2562C205 51.0446 207.351 56.0696 208.581 59.6579C208.654 59.8721 208.991 59.7834 208.923 59.5639Z" fill="#D32F5A"/>
<path d="M203.884 50.1328C204.751 53.5248 206.279 57.6752 208.512 60.4024C208.63 60.5458 208.892 60.3917 208.827 60.2192C208.253 58.6947 207.349 57.3021 206.659 55.8236C205.773 53.9246 205.084 51.9582 204.304 50.017C204.202 49.7631 203.812 49.8537 203.884 50.1328Z" fill="#D32F5A"/>
<path d="M178.259 62.3398C178.639 58.9226 179.011 55.1293 178.283 51.7383C178.245 51.5624 177.984 51.6094 177.978 51.7795C177.868 55.3101 178.229 58.7951 177.927 62.3398C177.908 62.5549 178.236 62.5491 178.259 62.3398Z" fill="#D32F5A"/>
<path d="M179.063 60.3428C179.222 59.3296 179.387 58.3173 179.534 57.3021C179.661 56.4207 179.906 55.4995 179.803 54.6132C179.782 54.4242 179.549 54.3908 179.477 54.5691C179.147 55.3914 179.138 56.3567 179.03 57.2343C178.905 58.2524 178.797 59.2724 178.685 60.2919C178.662 60.5051 179.029 60.557 179.063 60.3428Z" fill="#D32F5A"/>
<path d="M183.319 97.1508C186.942 98.2585 191.033 99.1603 194.684 97.6514C196.608 96.8562 197.973 95.3482 199.59 94.098C201.963 92.2625 204.477 91.7963 207.277 91.0156C207.581 90.9313 207.495 90.5199 207.206 90.4933C203.584 90.158 200.182 92.4398 197.588 94.7047C193.376 98.3826 188.57 98.0327 183.456 96.6517C183.133 96.565 183.001 97.0539 183.319 97.1508Z" fill="#D32F5A"/>
<path d="M186.95 87.8378C191.396 90.895 198.268 89.0991 200.157 83.812C200.248 83.5566 199.89 83.4553 199.752 83.6414C198.214 85.7125 196.866 87.5756 194.289 88.4319C191.838 89.2464 189.321 88.8253 187.196 87.4172C186.932 87.2423 186.693 87.6614 186.95 87.8378Z" fill="#D32F5A"/>
<path d="M190.541 78.589C194.157 77.4716 196.006 72.5711 196.598 69.1873C196.659 68.838 196.2 68.7149 196.071 69.042C194.823 72.2014 194.079 76.8872 190.433 78.1975C190.19 78.2847 190.287 78.6675 190.541 78.589Z" fill="#D32F5A"/>
<path d="M185.618 106.619C187.271 108.587 189.885 110.674 192.554 110.886C192.728 110.899 192.808 110.622 192.645 110.548C191.469 110.02 190.246 109.704 189.119 109.043C187.893 108.325 186.824 107.415 185.884 106.353C185.722 106.169 185.463 106.435 185.618 106.619Z" fill="#4C3363"/>
<path d="M192.017 105.268C192.321 106.356 192.52 107.601 193.004 108.623C193.092 108.809 193.429 108.725 193.403 108.515C193.262 107.391 192.766 106.235 192.437 105.152C192.356 104.884 191.941 104.996 192.017 105.268Z" fill="#4C3363"/>
<path d="M202.041 103.396C202.443 104.446 203.161 105.304 204.151 105.85C204.942 106.286 206.291 106.754 207.126 106.254C207.249 106.18 207.229 105.98 207.085 105.943C206.215 105.723 205.392 105.891 204.529 105.46C203.603 104.997 202.895 104.228 202.518 103.265C202.403 102.972 201.927 103.097 202.041 103.396Z" fill="#4C3363"/>
<path d="M204.456 108.13C204.938 108.233 205.42 108.335 205.902 108.438C206.291 108.521 206.689 108.669 207.08 108.555C207.188 108.523 207.257 108.357 207.154 108.277C206.827 108.025 206.438 108.012 206.038 107.944C205.551 107.861 205.063 107.779 204.576 107.696C204.295 107.647 204.169 108.069 204.456 108.13Z" fill="#4C3363"/>
<path d="M148.017 74.6679C147.619 76.0058 147.111 77.5051 149.569 79.0082C150.613 79.6464 151.74 80.2158 152.246 81.3753C152.987 83.0747 151.337 84.7504 150.29 86.2332C148.812 88.3285 148.407 91.3168 149.264 93.8109C149.494 94.4801 149.809 95.1217 149.918 95.8282C150.027 96.5357 149.922 97.264 149.75 97.9555C148.95 101.167 146.614 103.84 143.771 104.799C140.928 105.758 137.668 104.972 135.425 102.788C132.557 102.714 129.751 101.09 128.034 98.5088C126.317 95.928 129.159 87.5958 126.474 89.3359C122.658 91.8087 127.058 85.6095 127.042 83.0849C127.026 80.5336 124.199 78.9985 124.341 76.441C124.409 75.2256 125.647 73.8102 125.642 72.5925C125.633 70.7802 124.443 68.7808 124.414 66.9836C124.336 62.1824 127.426 59.1442 129.024 58.1174C132.634 55.7982 139.735 54.0276 142.737 59.3487C142.737 59.3487 144.336 58.915 146.525 60.9943C148.856 63.2083 150.224 67.2598 148.017 74.6679Z" fill="#E6335A"/>
<path d="M110.775 187.553C110.031 189.5 108.287 190.886 106.478 191.922C105.805 192.308 105.096 192.672 104.583 193.255C104.071 193.837 103.799 194.712 104.152 195.403C108.672 194.355 113.217 193.413 117.782 192.58C118.046 192.532 118.346 192.458 118.469 192.22C118.584 191.996 118.49 191.725 118.395 191.491C116.879 187.771 117.185 183.39 115.669 179.67C115.591 179.478 113.684 179.937 113.517 179.813C113.357 179.695 111.006 179.621 110.807 179.623C110.807 179.623 111.617 185.347 110.775 187.553Z" fill="#E89B5B"/>
<path d="M117.676 189.195C112.972 191.947 111.256 188.571 110.774 187.553C109.606 186.852 104.485 191.014 100.47 192.314C99.0254 192.782 98.1721 195.9 99.8371 196.269C104.35 196.418 112.358 196.603 119.215 195.9C120.042 195.403 118.946 188.453 117.676 189.195Z" fill="#E6335A"/>
<path d="M121.888 188.557C121.144 190.504 119.4 191.891 117.592 192.927C116.918 193.312 116.209 193.676 115.697 194.259C115.184 194.842 114.912 195.716 115.265 196.408C119.785 195.359 124.33 194.418 128.895 193.585C129.159 193.537 129.459 193.463 129.582 193.225C129.697 193 129.603 192.729 129.508 192.496C127.992 188.776 128.298 184.395 126.782 180.675C126.704 180.483 124.797 180.941 124.631 180.818C124.471 180.7 122.12 180.626 121.92 180.627C121.92 180.627 122.731 186.351 121.888 188.557Z" fill="#E89B5B"/>
<path d="M128.789 190.2C124.085 192.952 122.369 189.575 121.887 188.557C120.718 187.857 115.598 192.019 111.584 193.319C110.139 193.787 109.285 196.905 110.95 197.274C115.463 197.422 123.471 197.607 130.328 196.905C131.155 196.408 130.059 189.457 128.789 190.2Z" fill="#EF4572"/>
<path d="M106.091 147.135C105.602 155.327 108.692 172.954 110.198 183.077C112.056 183.307 115.554 183.719 117.389 183.351C116.56 176.72 116.837 168.534 116.849 162.148C116.853 159.373 116.021 154.081 117.389 151.666C118.516 149.677 121.15 148.553 125.404 146.775C129.658 144.997 134.146 144.312 138.599 143.115C147.787 140.646 147.183 131.859 145.278 129.332C140.049 130.323 128.519 130.879 123.232 131.057C111.777 139.288 106.283 143.914 106.091 147.135Z" fill="#335A6D"/>
<path d="M118.152 148.79C117.739 150.512 120.623 173.74 121.415 183.474C122.88 183.969 126.319 183.595 127.845 183.352C128.416 173.623 129.746 169.365 129.746 162.74C129.746 158.192 128.286 152.451 130.189 151.616C136.359 148.909 150.489 146.639 155.153 141.934C157.869 139.194 158.64 135.908 156.926 131.176C156.408 129.745 153.015 129.321 151.604 128.75C150.403 128.264 149.045 128.57 147.787 128.881C143.622 129.91 141.128 129.045 137.405 131.176C131.392 134.616 120.276 139.927 118.152 148.79Z" fill="#335A6D"/>
<path d="M123.745 109.143C120.931 110.291 112.73 112.281 109.706 111.981C106.564 111.67 105.323 111.716 103.963 112.537C103.322 112.924 102.623 116.46 103.528 116.121C103.877 115.99 104.828 114.013 104.956 114.334C105.113 116.996 106.277 118.56 106.039 114.98C105.99 114.254 107.538 114.475 108.154 114.484C108.676 114.492 107.381 116.46 107.903 116.46C109.558 116.46 109.416 115.083 110.163 115.038C113.586 114.829 116.149 115.079 118.149 115.047C122.815 114.973 127.246 114.428 127.843 113.246C130.586 107.813 127.405 100.016 127.181 93.934C126.997 88.941 121.916 87.8134 122.253 93.667C122.719 101.775 123.883 103.61 123.745 109.143Z" fill="#E89B5B"/>
<path d="M155.551 91.1755C155.401 94.2404 154.878 96.1292 153.852 99.0207C152.433 103.017 150.703 105.999 150.542 109.674C149.946 123.268 155.389 124.674 156.926 131.176C145.67 135.151 134.826 133.906 123.234 131.058C123.769 128.41 124.836 125.574 125.835 123.065C126.317 121.853 128.759 119.092 128.79 117.788C128.889 113.688 128.793 110.842 128.081 108.242C127.181 104.958 120.673 104.542 125.362 96.8241C125.745 96.1937 125.727 95.7721 125.865 94.2021C125.865 94.2021 124.092 93.9836 122.254 93.6667C122.254 93.6667 121.697 88.8931 124.338 87.4743C126.279 86.432 128.756 85.4459 132.127 85.019C136.915 84.4123 136.865 84.4927 141.676 84.9526C142.513 85.0325 147.926 85.5646 150.293 86.2328C154.296 87.3638 155.652 89.0894 155.551 91.1755Z" fill="#7C71CD"/>
<path d="M147.258 94.9971C146.306 98.3363 143.408 109.585 142.738 109.594C133.86 109.719 129.126 111.943 123.588 111.749C122.086 111.696 119.14 110.93 117.677 111.276C116.215 111.621 115.438 114.277 115.628 115.768C116.416 117.069 117.008 113.548 117.362 113.325C117.569 113.194 117.161 115.832 117.362 116.084C118.15 117.069 118.15 115.048 118.437 113.168C118.501 112.747 119.189 116.857 119.49 116.461C119.794 116.06 119.668 113.907 119.962 113.878C121.321 113.742 120.593 115.368 124.338 115.131C131.89 114.654 139.038 118.512 145.734 116.488C147.862 115.844 149.23 112.86 149.517 112.223C150.525 109.981 154.555 100.488 155.499 98.2191C156.443 95.9493 156.719 91.5068 155.034 89.7172C151.381 85.8363 148.465 90.7673 147.258 94.9971Z" fill="#FFAF66"/>
<path d="M155.359 98.5263C156.677 95.9043 157.582 92.396 156.532 90.5488C155.481 88.7016 154.772 87.0046 150.293 86.2337C146.386 85.5611 146.596 94.2882 146.527 96.021C152.625 93.5836 154.218 98.1231 155.359 98.5263Z" fill="#7C71CD"/>
<path d="M126.549 93.5966C126.934 92.233 127.228 90.2705 126.68 88.9273C126.617 88.7741 126.404 88.7935 126.389 88.9665C126.33 89.6672 126.491 90.3936 126.485 91.1025C126.478 91.9142 126.366 92.7113 126.243 93.5123C126.212 93.709 126.492 93.7987 126.549 93.5966Z" fill="#6962BC"/>
<path d="M126.108 92.7501C126.017 92.0514 126.015 91.2746 125.7 90.635C125.653 90.5385 125.473 90.5536 125.457 90.6669C125.355 91.3754 125.586 92.1076 125.716 92.8034C125.756 93.021 126.136 92.974 126.108 92.7501Z" fill="#6962BC"/>
<path d="M146.321 94.7813C146.849 94.2162 146.698 93.4361 146.738 92.7087C146.806 91.4682 147.214 90.3222 147.361 89.106C147.379 88.963 147.163 88.9213 147.099 89.0352C146.686 89.7703 146.552 90.6304 146.441 91.46C146.313 92.4136 146.587 93.7763 146.13 94.6339C146.067 94.7517 146.223 94.8859 146.321 94.7813Z" fill="#6962BC"/>
<path d="M145.052 91.3369C145.039 92.007 145.07 92.6714 145.161 93.3357C145.233 93.8591 145.271 94.4599 145.577 94.9009C145.688 95.0598 145.932 95.0027 145.942 94.802C145.968 94.2899 145.743 93.7743 145.65 93.2698C145.532 92.6302 145.475 91.9867 145.458 91.3369C145.451 91.0757 145.057 91.0747 145.052 91.3369Z" fill="#6962BC"/>
<path d="M128.799 89.1063C128.867 91.7448 130.503 93.7873 133.084 94.4337C135.802 95.114 140.155 94.4148 141.552 91.7031C141.644 91.5248 141.418 91.3339 141.267 91.4836C137.856 94.8877 129.62 95.5201 129.139 89.1063C129.123 88.8911 128.793 88.8853 128.799 89.1063Z" fill="#6962BC"/>
<path d="M131.76 100.716C130.904 105.418 138.518 108.111 141.365 104.633C141.502 104.466 141.328 104.181 141.119 104.313C139.725 105.197 138.446 105.829 136.723 105.56C134.562 105.223 131.797 103.425 132.223 100.844C132.273 100.543 131.815 100.41 131.76 100.716Z" fill="#6962BC"/>
<path d="M128.008 106.131C128.966 106.716 130.825 106.813 131.449 105.666C131.542 105.495 131.359 105.325 131.191 105.408C130.739 105.633 130.389 105.94 129.872 106.036C129.298 106.142 128.737 106.032 128.236 105.742C127.984 105.596 127.761 105.98 128.008 106.131Z" fill="#6962BC"/>
<path d="M129.281 126.697C134.459 128.616 140.717 129.26 145.987 127.279C146.244 127.182 146.147 126.811 145.873 126.865C140.153 128.014 134.984 128.32 129.362 126.405C129.175 126.341 129.1 126.63 129.281 126.697Z" fill="#6962BC"/>
<path d="M132.931 125.356C134.906 126.067 137.363 126.752 139.473 126.337C139.627 126.307 139.637 126.038 139.473 126.016C137.269 125.72 135.169 125.758 133.006 125.085C132.831 125.031 132.762 125.296 132.931 125.356Z" fill="#6962BC"/>
<path d="M137.31 92.2275C135.501 92.7717 133.428 92.8391 131.832 91.8292C130.235 90.8194 129.417 88.4963 130.483 86.937C130.96 86.2397 131.734 85.7677 132.126 85.0195C132.415 84.4691 132.464 83.8284 132.492 83.2077C132.619 80.325 130.905 75.3707 133.177 74.0648C135.409 72.7821 140.053 73.5381 140.492 75.7303C140.885 77.6923 140.019 83.0856 141.675 84.9531C144.185 87.7864 141.915 90.8426 137.31 92.2275Z" fill="#E89B5B"/>
<path d="M134.544 81.601C137.854 81.6689 141.265 77.9968 142.158 75.3825C142.543 74.2559 142.912 73.1201 143.144 71.9523C143.766 68.819 143.317 65.3882 141.469 62.7827C137.55 57.2586 127.751 58.4865 127.072 65.8345C126.639 70.5281 128.645 81.4804 134.544 81.601Z" fill="#FFAF66"/>
<path d="M127.371 70.4343C129.443 70.3732 131.277 69.1066 132.825 67.7294C134.373 66.3518 135.816 64.7866 137.685 63.8921C137.943 63.7685 138.223 63.6566 138.507 63.6919C138.81 63.7293 139.069 63.9304 139.276 64.1557C140.579 65.576 141.306 67.2812 141.909 69.1124C142.249 70.1435 141.846 71.5934 142.714 72.2451C142.858 72.3527 143.021 72.4574 143.199 72.4491C143.407 72.4399 143.575 72.2824 143.714 72.1288C145.125 70.5729 145.697 68.4495 146.149 66.3988C146.435 65.0987 146.691 63.7428 146.385 62.4471C146.079 61.1513 145.058 59.9307 143.732 59.8168C142.793 59.7364 141.768 60.1919 140.946 59.7301C140.514 59.4873 140.246 59.0396 139.913 58.6723C137.688 56.2208 131.136 57.8277 128.668 60.031C125.89 62.511 126.865 70.4488 127.371 70.4343Z" fill="#E6335A"/>
<path d="M145.276 72.6029C145.269 71.5794 145.099 70.3336 143.998 69.9222C143.02 69.5568 141.844 70.1587 141.379 70.9771C140.913 71.7956 141.177 75.1401 141.959 75.4076C144.51 76.2817 145.279 73.0065 145.276 72.6029Z" fill="#FFAF66"/>
<path d="M136.164 71.8546C136.549 71.8546 136.861 71.5424 136.861 71.1573C136.861 70.7722 136.549 70.46 136.164 70.46C135.779 70.46 135.467 70.7722 135.467 71.1573C135.467 71.5424 135.779 71.8546 136.164 71.8546Z" fill="#0C2D41"/>
<path d="M130.699 71.1275C130.699 71.5127 130.387 71.8248 130.002 71.8248C129.617 71.8248 129.305 71.5127 129.305 71.1275C129.305 70.7422 129.617 70.4302 130.002 70.4302C130.387 70.4302 130.699 70.7422 130.699 71.1275Z" fill="#0C2D41"/>
<path d="M132.24 70.9932C131.958 71.4928 132.005 71.9565 132.003 72.5109C132.002 73.0618 131.921 73.2847 131.609 73.7426C131.521 73.8706 131.398 73.9738 131.363 74.1356C131.23 74.7442 132.138 75.5607 132.539 75.914C132.943 76.2697 133.444 75.6097 132.987 75.334C132.89 75.2753 132.797 75.2676 132.686 75.2545C132.482 75.2308 132.381 75.4566 132.409 75.6194C132.423 75.7037 132.439 75.7667 132.482 75.8394C132.675 75.6901 132.868 75.5409 133.062 75.3916C132.902 75.2463 132.755 75.0815 132.614 74.9182C132.444 74.7224 132.132 74.4671 132.191 74.1783C132.208 74.0935 132.399 73.9471 132.451 73.8633C132.926 73.1035 132.608 72.0408 132.725 71.1981C132.765 70.9215 132.401 70.7068 132.24 70.9932Z" fill="#E89B5B"/>
<path d="M135.002 67.9218C135.753 67.7823 136.501 67.9107 137.255 67.9184C137.255 67.7527 137.255 67.587 137.255 67.4218C137.247 67.4222 137.238 67.4222 137.23 67.4222C136.958 67.4252 136.891 67.8361 137.165 67.9039C137.173 67.9063 137.181 67.9083 137.19 67.9097C137.5 67.978 137.632 67.5148 137.322 67.4305C136.577 67.2284 135.625 67.3161 134.885 67.4944C134.603 67.5618 134.725 67.9732 135.002 67.9218Z" fill="#E6335A"/>
<path d="M131.453 77.4444C132.114 77.8597 132.855 78.0259 133.627 77.897C134.28 77.788 135.178 77.4744 135.374 76.7728C135.441 76.5319 135.213 76.3192 134.978 76.3774C134.471 76.5024 134.108 76.908 133.583 77.0344C132.987 77.1779 132.345 77.1304 131.789 76.8707C131.406 76.6918 131.086 77.2132 131.453 77.4444Z" fill="#E89B5B"/>
<path d="M142.857 75.1614C143.492 75.1614 143.493 74.1748 142.857 74.1748C142.223 74.1748 142.222 75.1614 142.857 75.1614Z" fill="white"/>
<path d="M142.709 71.2981C143.345 70.5528 143.974 71.7148 144.097 72.2474C144.226 72.8032 144.226 73.4123 143.777 73.8203C143.612 73.97 143.832 74.2656 144.018 74.1338C144.831 73.5586 144.674 72.2992 144.335 71.489C143.999 70.6861 142.95 70.2015 142.349 71.0209C142.196 71.2288 142.54 71.4953 142.709 71.2981Z" fill="#E89B5B"/>
<path d="M126.034 68.6818C127.762 68.3576 129.349 67.6555 130.641 66.4378C131.386 65.7356 131.93 64.8649 132.739 64.2296C133.903 63.3147 135.228 63.1722 136.626 62.883C136.878 62.8306 136.827 62.3964 136.563 62.426C134.991 62.6014 133.391 62.9673 132.193 64.0619C131.352 64.83 130.752 65.7884 129.865 66.5192C128.706 67.4743 127.407 68.0276 125.936 68.3257C125.702 68.3731 125.802 68.7254 126.034 68.6818Z" fill="#F7527E"/>
<path d="M126.359 64.1408C127.803 63.5448 128.906 62.5713 130.17 61.6836C132.415 60.1058 134.677 60.0525 137.308 60.4067C137.688 60.4581 137.764 59.9343 137.379 59.8844C135.47 59.6367 133.437 59.5655 131.639 60.3694C129.658 61.2542 128.248 63.0176 126.263 63.9112C126.134 63.9693 126.227 64.1956 126.359 64.1408Z" fill="#F7527E"/>
<path d="M131.269 58.653C133.737 58.166 136.05 57.866 138.474 58.6961C138.712 58.7775 138.882 58.3894 138.647 58.2842C136.266 57.2133 133.632 57.8423 131.211 58.4466C131.077 58.48 131.134 58.6792 131.269 58.653Z" fill="#F7527E"/>
<path d="M140.357 63.6819C141.145 64.0109 141.799 64.5575 142.273 65.2684C142.668 65.8615 142.737 66.5181 143.022 67.1422C143.072 67.2517 143.264 67.2261 143.285 67.1078C143.421 66.3577 142.929 65.4525 142.491 64.8744C141.964 64.1805 141.251 63.6882 140.437 63.3902C140.251 63.3214 140.182 63.6087 140.357 63.6819Z" fill="#F7527E"/>
<path d="M141.7 62.1845C142.743 62.6613 143.636 63.3702 144.296 64.3151C144.873 65.1418 145.046 66.0901 145.489 66.9682C145.555 67.099 145.722 67.0181 145.736 66.9008C145.999 64.7197 143.623 62.6196 141.834 61.8666C141.654 61.7915 141.521 62.1026 141.7 62.1845Z" fill="#F7527E"/>
<path d="M142.676 60.9792C144.263 61.2443 145.563 62.2309 146.471 63.5368C147.255 64.6639 147.564 66.0125 148.283 67.1546C148.381 67.3111 148.593 67.2035 148.566 67.0349C148.113 64.1536 145.717 61.0403 142.716 60.6817C142.549 60.6613 142.508 60.9511 142.676 60.9792Z" fill="#F7527E"/>
<path d="M145.227 75.9985C144.99 77.0815 144.759 78.3225 145.548 79.2427C145.936 79.6962 146.517 79.8857 146.995 80.2171C148.173 81.0351 148.428 82.1137 148.566 83.4376C148.575 83.5326 148.711 83.5631 148.74 83.4613C149.013 82.5116 148.704 81.4557 148.131 80.6649C147.775 80.173 147.362 79.9303 146.875 79.5945C146.074 79.043 145.551 78.7639 145.434 77.6707C145.379 77.1479 145.493 76.6085 145.582 76.0968C145.623 75.8662 145.278 75.7634 145.227 75.9985Z" fill="#F7527E"/>
<path d="M142.891 78.3023C142.467 79.0466 142.505 79.8548 142.863 80.6243C143.231 81.4137 144.054 82.5166 144.85 82.8819C144.943 82.9241 145.049 82.8548 145.024 82.7487C144.882 82.1604 144.356 81.7645 143.978 81.3129C143.333 80.5449 142.798 79.5331 143.306 78.545C143.446 78.2712 143.045 78.0319 142.891 78.3023Z" fill="#F7527E"/>
<path d="M126.604 76.3221C126.298 77.2898 126.484 78.1238 126.975 79.011C127.797 80.4987 129.852 82.4534 128.026 84.0714C127.862 84.2163 128.083 84.5119 128.264 84.3791C129.048 83.8025 129.324 82.9133 129.12 81.9466C128.689 79.8973 126.35 78.7532 126.918 76.4089C126.967 76.2044 126.667 76.1225 126.604 76.3221Z" fill="#F7527E"/>
<path d="M130.478 84.0428C130.64 83.753 130.76 83.4429 130.815 83.1139C130.854 82.8726 130.915 82.5314 130.669 82.3885C130.63 82.3657 130.566 82.3589 130.527 82.3885C130.34 82.5319 130.37 82.7301 130.349 82.952C130.32 83.2578 130.237 83.5476 130.101 83.8228C129.978 84.0719 130.34 84.2899 130.478 84.0428Z" fill="#F7527E"/>
<path d="M199.01 117.66H10.0117V123.065H199.01V117.66Z" fill="#24283F"/>
<path d="M199.011 117.66H179.723V123.065H199.011V117.66Z" fill="#373E5B"/>
<path d="M16.4789 123.065H12.3809V198.048H16.4789V123.065Z" fill="#56AECE"/>
<path d="M25.9398 123.065H21.8418V192.531H25.9398V123.065Z" fill="#4198AF"/>
<path d="M186.715 123.065H182.617V198.048H186.715V123.065Z" fill="#56AECE"/>
<path d="M196.176 123.065H192.078V192.531H196.176V123.065Z" fill="#4198AF"/>
<path d="M115.454 75.6517H60.0059C58.952 75.6517 58.0977 76.506 58.0977 77.56V107.677C58.0977 108.731 58.952 109.585 60.0059 109.585H115.454C116.508 109.585 117.363 108.731 117.363 107.677V77.56C117.363 76.506 116.508 75.6517 115.454 75.6517Z" fill="#AEAEAF"/>
<path d="M115.451 75.6517H70.4532C69.3992 75.6517 68.5449 76.506 68.5449 77.56V93.356C68.5449 98.7726 72.9356 103.163 78.3522 103.163H115.451C116.505 103.163 117.359 102.309 117.359 101.255V77.5595C117.36 76.506 116.505 75.6517 115.451 75.6517Z" fill="#BDBEC0"/>
<path d="M87.7271 97.4843C86.0732 97.4843 84.7324 98.8251 84.7324 100.479V117.66H90.7222V100.479C90.7217 98.8251 89.3809 97.4843 87.7271 97.4843Z" fill="#80878E"/>
<path d="M121.145 115.768H86.7832V117.66H121.145V115.768Z" fill="#BDBEC0"/>
<path d="M98.9195 115.768H76.5371V117.66H98.9195V115.768Z" fill="#64676C"/>
<path d="M130.473 27.9831C130.473 14.8837 119.853 4.26428 106.754 4.26428C93.6545 4.26428 83.0352 14.8837 83.0352 27.9831C83.0352 41.0825 93.6545 51.7019 106.754 51.7019C108.763 51.7019 110.714 51.4495 112.578 50.9789C114.56 54.6757 118.392 56.9576 123.229 55.3125C123.229 55.3125 119.281 52.5974 118.886 48.3642C125.824 44.2255 130.473 36.6487 130.473 27.9831Z" fill="#92D8FE"/>
<path d="M112.586 29.3311C112.586 30.7238 112.02 31.9875 111.107 32.8981C110.193 33.8115 108.933 34.377 107.54 34.377C104.754 34.377 102.494 32.1169 102.494 29.3311C102.494 26.5424 104.754 24.2853 107.54 24.2853L108.057 24.311H108.066C109.148 24.4229 110.131 24.8798 110.9 25.566C111.934 26.4881 112.586 27.8319 112.586 29.3311Z" fill="#E6335A"/>
<path d="M110.903 25.566L107.543 29.3311V24.2853L108.06 24.311H108.069C109.151 24.4229 110.133 24.8798 110.903 25.566Z" fill="#FFF252"/>
<path d="M112.589 29.331C112.589 30.7237 112.023 31.9875 111.11 32.898L107.543 29.331L110.903 25.5659C111.937 26.4881 112.589 27.8318 112.589 29.331Z" fill="#7C71CD"/>
<path d="M99.7694 29.331C99.7694 30.7237 99.2034 31.9874 98.2905 32.8979C97.6184 33.57 96.7568 34.0551 95.7921 34.262C95.4475 34.3366 95.0885 34.3769 94.7236 34.3769C91.9378 34.3769 89.6777 32.1168 89.6777 29.331C89.6777 26.5423 91.9378 24.2852 94.7236 24.2852L95.2406 24.3108H95.2493C96.3319 24.4228 97.3141 24.8797 98.0841 25.5659C99.1177 26.488 99.7694 27.8317 99.7694 29.331Z" fill="#E6335A"/>
<path d="M99.7685 29.3308C99.7685 30.7235 99.2025 31.9872 98.2896 32.8977L94.7227 29.3308L98.0827 25.5657C99.1163 26.4878 99.7685 27.8315 99.7685 29.3308Z" fill="#7C71CD"/>
<path d="M98.0836 25.5659L94.7236 29.331H89.6777C89.6777 26.5423 91.9378 24.2852 94.7236 24.2852L95.2406 24.3108H95.2493C96.3319 24.4228 97.3141 24.8797 98.0836 25.5659Z" fill="#FFF252"/>
<path d="M98.2896 32.8982C97.6175 33.5703 96.7559 34.0554 95.7911 34.2623C95.3778 32.3667 94.7227 29.3313 94.7227 29.3313L98.2896 32.8982Z" fill="#5E3C77"/>
<path d="M120.282 24.2852C121.675 24.2852 122.939 24.8511 123.849 25.7641C124.521 26.4362 125.007 27.2977 125.213 28.2625C125.288 28.6071 125.328 28.9661 125.328 29.331C125.328 32.1168 123.068 34.3769 120.282 34.3769C117.493 34.3769 115.236 32.1168 115.236 29.331L115.262 28.814V28.8052C115.374 27.7227 115.83 26.7405 116.517 25.9705C117.439 24.9369 118.783 24.2852 120.282 24.2852Z" fill="#7C71CD"/>
<path d="M120.289 24.2852C121.681 24.2852 122.945 24.8507 123.855 25.7641L120.289 29.331L116.523 25.971C117.446 24.9369 118.79 24.2852 120.289 24.2852Z" fill="#E6335A"/>
<path d="M116.517 25.9711L120.282 29.3311V34.3769C117.493 34.3769 115.236 32.1169 115.236 29.3311L115.262 28.8141V28.8053C115.374 27.7228 115.831 26.7406 116.517 25.9711Z" fill="#5E3C77"/>
<path d="M123.854 25.7643C124.526 26.4364 125.012 27.298 125.218 28.2627C123.322 28.6761 120.287 29.3312 120.287 29.3312L123.854 25.7643Z" fill="#FFF252"/>
<path d="M118.927 43.4617C112.341 43.3973 105.725 43.4472 99.1285 43.5746C99.1305 41.0161 98.9696 38.4537 98.6444 35.9203C98.6163 35.7013 98.2829 35.6853 98.2897 35.9203C98.3619 38.474 98.4831 41.0311 98.627 43.5853C97.2348 43.6129 95.8417 43.6396 94.4519 43.6744C94.2431 43.6798 94.2421 43.9991 94.4519 43.9996C95.8519 44.0035 97.2518 44.0088 98.6512 44.0136C98.6987 44.8301 98.737 45.6481 98.7917 46.4631C98.8034 46.6332 99.049 46.6352 99.0578 46.4631C99.098 45.6486 99.1198 44.8321 99.1266 44.0156C105.727 44.0384 112.326 44.0645 118.927 44.0679C119.317 44.0679 119.317 43.4656 118.927 43.4617Z" fill="white"/>
<path d="M99.8899 41.6257C100.606 40.9405 101.456 39.8565 102.442 39.5774C104.542 38.9833 104.324 40.862 105.536 41.5113C106.917 42.2518 107.585 40.4409 108.355 39.5687C109.191 38.6214 110.242 38.1998 111.314 39.2392C111.544 39.4616 111.572 39.8236 111.867 40.0097C112.175 40.204 112.459 40.1836 112.814 40.1599C114.415 40.0542 116.231 38.79 117.709 37.7598C117.655 37.8412 117.598 37.9202 117.544 38.0016C117.289 38.3922 116.91 38.8578 116.841 39.3293C116.809 39.5522 117.081 39.7926 117.267 39.5774C117.587 39.2087 117.77 38.6989 118.019 38.2788C118.296 37.8107 118.593 37.3576 118.924 36.9263C119.045 36.7684 118.882 36.5067 118.693 36.5227C117.619 36.6133 116.551 36.7485 115.481 36.8774C115.163 36.9157 115.151 37.4177 115.481 37.3872C116.193 37.3217 116.904 37.2539 117.614 37.1793C116.439 37.926 115.245 38.6732 113.979 39.2309C112.449 39.905 112.335 39.4001 111.388 38.366C110.323 37.203 109.098 37.8223 108.235 38.8695C106.911 40.4739 106.469 41.8084 104.693 39.7562C104.321 39.3264 104.142 38.9276 103.519 38.82C102.069 38.569 100.345 40.3731 99.6025 41.4047C99.478 41.5772 99.7445 41.7643 99.8899 41.6257Z" fill="white"/>
<path d="M100.537 16.7052C99.221 16.7052 97.84 16.5889 96.5336 16.7091C96.2957 16.7309 96.2642 17.0153 96.4377 17.1089C96.3776 17.4752 96.3378 17.8435 96.3131 18.2137C96.3029 18.2336 96.3025 18.2534 96.3092 18.2762C96.2438 19.3253 96.2836 20.3846 96.2559 21.4322C96.2525 21.5553 96.3577 21.6391 96.4716 21.6479C97.8584 21.7525 99.2574 21.7094 100.649 21.7205C100.762 21.7215 100.856 21.6241 100.857 21.5117C100.869 19.9804 100.929 18.4487 100.755 16.9233C100.742 16.806 100.666 16.7052 100.537 16.7052ZM96.5995 17.1409C96.6635 17.1462 96.7294 17.1462 96.7938 17.151C97.5614 17.9326 98.2776 18.7579 98.9947 19.585C98.6754 19.5831 98.3556 19.5841 98.0372 19.5942C97.8734 19.3471 97.6336 19.1402 97.4184 18.9473C97.1553 18.7118 96.8796 18.4899 96.6024 18.2704C96.5947 17.8939 96.5937 17.5174 96.5995 17.1409ZM97.2101 19.1557C97.3569 19.3025 97.5042 19.4658 97.6636 19.6112C97.3205 19.6291 96.9799 19.6601 96.6441 19.7071C96.631 19.334 96.6208 18.9609 96.6111 18.5878C96.8122 18.7748 97.0153 18.9609 97.2101 19.1557ZM96.6538 20.0095C97.9035 20.1059 99.1876 20.0115 100.443 20.0134C100.442 20.4427 100.44 20.8716 100.44 21.3009C99.1842 21.3009 97.9379 21.2733 96.6829 21.2239C96.6775 20.8188 96.6673 20.4141 96.6538 20.0095ZM99.5864 17.1568C99.7492 17.4137 99.9135 17.6695 100.094 17.9137C100.195 18.0494 100.297 18.2118 100.418 18.347C100.434 18.7656 100.442 19.1843 100.443 19.6034C100.426 19.6034 100.41 19.603 100.393 19.603C100.086 19.2754 99.8432 18.8005 99.5849 18.4473C99.2656 18.0102 98.923 17.5915 98.5688 17.183C98.9085 17.1762 99.2482 17.1656 99.5864 17.1568ZM100.251 17.6879C100.118 17.5145 99.9993 17.3318 99.8762 17.152C100.03 17.1486 100.184 17.1457 100.337 17.1442C100.36 17.3807 100.379 17.6177 100.393 17.8541C100.342 17.7979 100.292 17.7417 100.251 17.6879ZM98.4443 17.1849C99.0718 17.9452 99.63 18.7443 100.118 19.6005C99.883 19.5971 99.6465 19.5933 99.4095 19.5899C98.6366 18.7414 97.8226 17.936 96.977 17.1607C97.4611 17.1869 97.951 17.1942 98.4443 17.1849Z" fill="white"/>
<path d="M106.548 11.1882C105.213 11.2119 103.878 11.1257 102.544 11.1751C102.3 11.1843 102.273 11.5046 102.462 11.5846C102.16 14.9625 102.19 18.4146 102.283 21.8013C102.286 21.9185 102.372 21.9869 102.481 22C103.878 22.1696 105.254 22.1841 106.658 22.1928C106.772 22.1938 106.867 22.0964 106.867 21.984C106.882 18.4563 106.985 14.9112 106.748 11.3888C106.741 11.2822 106.662 11.1863 106.548 11.1882ZM102.67 17.4605C102.804 17.6839 102.942 17.9048 103.074 18.1239C103.184 18.3061 103.316 18.5072 103.471 18.6768C103.207 18.6947 102.945 18.7218 102.685 18.7577C102.686 18.6947 102.686 18.6341 102.686 18.5765C102.68 18.2043 102.676 17.8322 102.67 17.4605ZM103.806 18.6588C103.692 18.3623 103.501 18.0749 103.342 17.8137C103.146 17.4905 102.943 17.1407 102.662 16.8824C102.655 16.3964 102.648 15.9103 102.642 15.4243C102.927 15.9651 103.218 16.5025 103.536 17.0249C103.859 17.5526 104.171 18.1505 104.574 18.6385C104.318 18.6404 104.062 18.6477 103.806 18.6588ZM105.027 18.6395C104.737 17.9955 104.259 17.4154 103.879 16.8252C103.467 16.1856 103.049 15.5503 102.635 14.9116C102.629 14.4082 102.628 13.9047 102.624 13.4012C103.706 15.1408 104.792 16.8722 105.81 18.6487C105.551 18.6453 105.29 18.6409 105.027 18.6395ZM106.214 18.655C105.214 16.6915 103.867 14.902 102.623 13.0897C102.62 12.5949 102.614 12.0997 102.613 11.6044C102.75 11.6088 102.887 11.6103 103.024 11.6122C103.794 12.733 104.46 13.9304 105.149 15.1011C105.462 15.6346 105.918 16.9488 106.473 17.3175C106.494 17.7483 106.527 18.2029 106.549 18.6588C106.438 18.6579 106.326 18.6569 106.214 18.655ZM106.389 12.6971C106.375 13.141 106.38 13.5873 106.39 14.0341C106.198 13.6968 105.962 13.3736 105.767 13.0664C105.448 12.5644 105.102 12.0798 104.753 11.5986C105.014 11.5938 105.276 11.5894 105.537 11.588C106.617 11.5817 106.42 11.6219 106.389 12.6971ZM104.433 11.6044C104.777 12.1506 105.114 12.701 105.447 13.2534C105.752 13.7593 106.003 14.3694 106.408 14.8026C106.427 15.3933 106.447 15.984 106.451 16.5718C106.449 16.5689 106.447 16.566 106.445 16.5631C106.093 15.9767 105.739 15.3909 105.381 14.8084C104.711 13.7191 104.02 12.6351 103.245 11.617C103.641 11.618 104.037 11.6117 104.433 11.6044ZM106.448 20.7561C106.247 21.6409 106.063 21.6646 105.267 21.7785C104.924 21.8275 103.565 21.8531 103.264 21.6986C102.477 21.2939 102.617 20.021 102.671 19.0635C103.955 19.1618 105.276 19.0572 106.564 19.0659C106.58 19.6658 106.564 20.2507 106.448 20.7561Z" fill="white"/>
<path d="M112.561 12.5993C111.227 12.6255 109.89 12.5392 108.558 12.5935C108.314 12.6037 108.286 12.9216 108.474 13.0025C108.202 15.907 108.203 18.8886 108.282 21.8009C108.286 21.9249 108.378 22.0024 108.496 22.0141C109.895 22.1556 111.267 22.1822 112.673 22.1929C112.786 22.1938 112.881 22.0964 112.882 21.984C112.895 18.9273 112.98 15.8595 112.77 12.8077C112.761 12.6972 112.68 12.5969 112.561 12.5993ZM112.252 15.3454C112.049 14.9592 111.675 14.5928 111.418 14.2842C111.057 13.851 110.682 13.4304 110.292 13.0224C110.586 13.0161 110.879 13.0102 111.172 13.0078C111.173 13.0272 111.178 13.0471 111.193 13.0674C111.599 13.629 111.977 14.2168 112.433 14.7402C112.44 14.9427 112.445 15.1453 112.45 15.3478C112.384 15.3468 112.318 15.3464 112.252 15.3454ZM112.324 13.0117C112.544 13.1755 112.357 13.2084 112.381 13.5956C112.396 13.8263 112.403 14.0579 112.413 14.289C112.061 13.8825 111.76 13.4299 111.442 12.9972C111.724 12.972 112.182 12.9065 112.324 13.0117ZM110.005 13.0282C110.42 13.4628 110.816 13.9154 111.198 14.3791C111.439 14.6728 111.659 15.0401 111.923 15.3405C111.578 15.3352 111.23 15.3299 110.881 15.3289C110.649 14.8938 110.296 14.4736 110.025 14.0758C109.774 13.7061 109.499 13.3611 109.196 13.0349C109.465 13.0364 109.735 13.0335 110.005 13.0282ZM108.636 14.2013C108.838 14.4804 109.031 14.7663 109.231 15.0469C109.304 15.1506 109.381 15.262 109.465 15.3672C109.19 15.3861 108.918 15.4147 108.647 15.453C108.643 15.0362 108.64 14.619 108.636 14.2013ZM109.881 15.3459C109.71 15.1293 109.514 14.9282 109.352 14.7053C109.12 14.3859 108.893 14.0651 108.642 13.7613C108.639 13.7579 108.635 13.757 108.632 13.7541C108.63 13.5108 108.627 13.2671 108.626 13.0233C108.705 13.0262 108.784 13.0267 108.864 13.0282C109.299 13.4793 109.649 13.9852 109.988 14.511C110.16 14.778 110.324 15.0745 110.528 15.3294C110.311 15.3313 110.096 15.3371 109.881 15.3459ZM111.757 21.7771C111.381 21.8813 110.759 21.8217 110.357 21.7684C109.748 21.8202 109.205 21.6259 108.73 21.1854C108.727 20.9761 108.725 20.7668 108.722 20.5574C108.488 19.3315 108.676 17.8947 108.658 16.6436C108.654 16.3465 108.654 16.049 108.65 15.7519C109.905 15.8518 111.195 15.7558 112.457 15.7573C112.473 16.8296 112.466 17.9025 112.463 18.9724C112.46 19.9479 112.855 21.4728 111.757 21.7771Z" fill="white"/>
<path d="M118.786 13.7537C118.779 13.6398 118.693 13.5366 118.571 13.539C117.238 13.5671 115.899 13.4794 114.568 13.5395C114.324 13.5506 114.296 13.8666 114.484 13.9485C114.231 16.5526 114.278 19.1877 114.281 21.8014C114.281 21.9308 114.384 22.0151 114.505 22.0258C115.902 22.1513 117.281 22.1813 118.682 22.193C118.795 22.1939 118.89 22.0965 118.891 21.9841C118.904 19.238 118.949 16.4968 118.786 13.7537ZM114.676 17.7756C114.675 17.7078 114.675 17.6404 114.674 17.5726C114.85 17.7611 115.026 17.9501 115.202 18.1386C115.362 18.3096 115.519 18.4976 115.69 18.6653C115.355 18.6832 115.023 18.7133 114.695 18.7583C114.688 18.4312 114.681 18.1037 114.676 17.7756ZM116.126 18.6474C115.934 18.3736 115.664 18.1453 115.43 17.9113C115.176 17.6579 114.923 17.4044 114.669 17.151C114.663 16.7047 114.66 16.2584 114.655 15.8121C115.098 16.381 115.536 16.9547 115.957 17.5396C116.203 17.8812 116.426 18.2907 116.696 18.6391C116.506 18.6396 116.316 18.642 116.126 18.6474ZM117.131 18.6401C116.875 18.139 116.444 17.6676 116.117 17.2368C115.659 16.6344 115.16 16.0699 114.652 15.5102C114.648 15.0039 114.642 14.497 114.637 13.9906C115.766 15.502 116.719 17.2227 117.949 18.6517C117.678 18.6469 117.405 18.6425 117.131 18.6401ZM117.088 13.9519C117.107 13.9519 117.134 13.9485 117.156 13.9475C117.366 14.3376 117.582 14.7204 117.832 15.0887C118.009 15.3503 118.207 15.7007 118.48 15.8901C118.47 16.1227 118.46 16.3427 118.463 16.5249C118.467 16.7212 118.464 16.9179 118.466 17.1147C118.144 16.5996 117.712 16.1126 117.369 15.6445C116.958 15.0828 116.542 14.5256 116.124 13.9693C116.446 13.962 116.767 13.9543 117.088 13.9519ZM118.14 13.9591C118.261 14.009 118.328 14.0284 118.372 14.0376C118.346 14.0556 118.331 14.1035 118.378 14.2285C118.474 14.4854 118.499 14.8338 118.499 15.1972C118.374 15.0513 118.242 14.9113 118.138 14.7737C117.923 14.4892 117.705 14.2067 117.487 13.9247C117.724 13.9049 117.978 13.8923 118.14 13.9591ZM115.937 13.9737C116.388 14.5978 116.834 15.2243 117.275 15.8548C117.659 16.4028 118.012 17.0507 118.468 17.5527C118.47 17.921 118.475 18.2897 118.474 18.658C118.446 18.6575 118.417 18.6575 118.389 18.657C117.333 17.0386 116.095 15.4661 114.859 13.9746C115.218 13.9829 115.578 13.9814 115.937 13.9737ZM118.302 21.5766C117.829 22.0723 115.7 21.8387 115.191 21.4429C114.531 20.9292 114.726 20.4214 114.71 19.5923C114.707 19.4164 114.704 19.2405 114.7 19.0646C115.948 19.1595 117.23 19.0651 118.484 19.0675C118.527 19.8336 118.675 21.1865 118.302 21.5766Z" fill="white"/>
<path d="M99.6617 12.5024C99.5207 12.1569 99.1592 11.9141 98.8292 11.7756C98.7676 11.7499 98.7046 11.7315 98.6412 11.7145C98.553 11.1379 98.4614 10.5617 98.3713 9.98651C98.6542 10.0199 98.9334 10.1004 99.1485 10.2753C99.275 10.378 99.4528 10.2114 99.3312 10.0926C99.0656 9.83242 98.6969 9.68123 98.3151 9.6163C98.2651 9.29358 98.2143 8.97085 98.1687 8.6491C98.1542 8.54685 97.9797 8.57011 97.9875 8.67381C98.0098 8.97618 98.0316 9.28001 98.0534 9.58481C97.8736 9.57269 97.6958 9.57754 97.5286 9.6008C97.5184 9.60225 97.5073 9.60516 97.4971 9.60709C97.4351 9.20538 97.3701 8.80561 97.2989 8.40923C97.2761 8.28373 97.0605 8.31087 97.0741 8.43976C97.1167 8.85213 97.1516 9.26499 97.1865 9.67784C96.6496 9.83194 96.0458 10.1813 96.007 10.7357C95.9499 11.5619 96.6869 11.8889 97.3633 11.9951C97.3968 12.4792 97.4302 12.9632 97.4646 13.4473C97.1613 13.3494 96.8701 13.2016 96.5909 13.0262C96.4272 12.923 96.2038 13.1328 96.3181 13.299C96.6001 13.7095 97.0333 13.8975 97.5034 13.96C97.5276 14.2852 97.5504 14.6098 97.577 14.935C97.5935 15.1317 97.8814 15.1375 97.8872 14.935C97.8964 14.619 97.8964 14.3016 97.892 13.9833C98.1004 13.9833 98.3087 13.9653 98.5098 13.9353C98.5641 14.2648 98.6227 14.5924 98.6916 14.9175C98.7308 15.1026 99.04 15.0643 99.0254 14.8725C98.9998 14.5342 98.959 14.196 98.9217 13.8578C99.494 13.7163 99.9064 13.1033 99.6617 12.5024ZM97.8581 9.97101C97.9298 9.96616 98.0054 9.96762 98.0805 9.96762C98.1217 10.5283 98.1663 11.0909 98.2196 11.6525C98.065 11.6428 97.9099 11.6404 97.7558 11.6345C97.7021 11.0909 97.6352 10.5486 97.5577 10.0098C97.657 9.99233 97.7573 9.97779 97.8581 9.97101ZM97.0358 11.5056C96.3196 11.196 96.384 10.5181 96.9834 10.1997C97.0605 10.159 97.1409 10.1256 97.2223 10.097C97.2621 10.5951 97.2984 11.0928 97.3333 11.5909C97.232 11.572 97.1317 11.5473 97.0358 11.5056ZM97.8804 13.5462C97.8649 13.0437 97.8339 12.5402 97.7907 12.0372C97.9511 12.0464 98.1086 12.0542 98.2622 12.0736C98.3136 12.5673 98.3742 13.0592 98.4473 13.5476C98.254 13.5738 98.065 13.5719 97.8804 13.5462ZM98.8781 13.4333C98.8277 13.0209 98.7696 12.609 98.709 12.1966C98.7526 12.2151 98.7967 12.2267 98.8394 12.2509C99.386 12.5567 99.4048 13.1997 98.8781 13.4333Z" fill="white"/>
<path d="M123.092 20.3556C122.891 20.5204 122.786 20.7762 122.633 20.9846C122.619 21.003 122.603 21.019 122.589 21.0369C122.636 19.0284 122.553 17.0164 122.474 15.0084C122.598 15.1954 122.715 15.3868 122.839 15.5739C122.976 15.7808 123.374 15.6524 123.267 15.3931C123.154 15.1184 122.956 14.8596 122.756 14.6411C122.681 14.5587 122.559 14.4186 122.432 14.3237C122.348 14.0853 121.943 14.1066 121.948 14.3954C121.888 14.4695 121.836 14.5514 121.793 14.6091C121.583 14.8892 121.394 15.1857 121.202 15.4789C121.132 15.586 121.3 15.7197 121.382 15.6175C121.541 15.4217 121.701 15.2274 121.863 15.034C121.875 15.02 121.915 14.9788 121.964 14.9279C122.04 17.0092 122.089 19.0899 122.133 21.1721C121.947 20.9657 121.752 20.7612 121.556 20.5766C121.37 20.4007 121.095 20.674 121.274 20.8586C121.486 21.0762 121.665 21.3214 121.864 21.5506C121.982 21.6877 122.116 21.8651 122.315 21.8534C122.54 21.8403 122.736 21.5995 122.867 21.4435C123.098 21.1682 123.368 20.8523 123.414 20.4884C123.437 20.3081 123.202 20.2655 123.092 20.3556Z" fill="white"/>
<path d="M113.987 8.97763C113.749 8.59191 113.261 8.24786 112.887 8.00219C112.622 7.82823 112.385 8.24641 112.641 8.42328C112.814 8.54346 113.035 8.70821 113.226 8.88362C109.788 8.7586 106.334 8.90252 102.894 8.88895C102.949 8.8405 103.004 8.79107 103.06 8.74407C103.216 8.61275 103.377 8.48531 103.538 8.35883C103.721 8.2154 103.478 7.89704 103.287 8.03369C103.015 8.22848 102.739 8.4228 102.486 8.64134C102.315 8.78962 102.175 8.95825 102.339 9.16904C102.5 9.37595 102.756 9.54313 102.962 9.70013C103.182 9.86682 103.424 10.096 103.718 10.0272C103.812 10.0054 103.859 9.88572 103.809 9.80479C103.667 9.57608 103.407 9.45881 103.197 9.29793C103.13 9.2456 103.016 9.1671 102.913 9.08666C106.356 9.2078 109.813 9.30762 113.258 9.31199C113.219 9.35947 113.179 9.40551 113.14 9.45348C112.953 9.68704 112.687 9.91334 112.751 10.2307C112.764 10.2986 112.85 10.3698 112.922 10.3611C113.227 10.3233 113.349 10.0568 113.526 9.8266C113.665 9.64683 113.804 9.4685 113.948 9.2926C114.019 9.20441 114.052 9.08278 113.987 8.97763Z" fill="white"/>
<path d="M90.2083 17.4156C90.2213 17.8023 90.2713 18.1813 90.405 18.5229C90.4564 18.6537 90.6662 18.6857 90.704 18.5229C90.7864 18.1696 90.7999 17.796 90.7902 17.4185C91.1348 17.4248 91.5127 17.4602 91.8127 17.3076C91.9188 17.2538 91.9188 17.0808 91.8127 17.027C91.503 16.8686 91.1197 16.9228 90.7694 16.9441C90.7491 16.6035 90.7234 16.2653 90.7229 15.9406C90.7229 15.6397 90.2708 15.6421 90.2572 15.9406C90.2427 16.2624 90.2155 16.6079 90.2058 16.9563C89.8725 16.9616 89.5386 16.9679 89.2052 16.9669C88.9363 16.966 88.9426 17.3614 89.2052 17.3807C89.541 17.405 89.8744 17.4137 90.2083 17.4156Z" fill="white"/>
<path d="M91.8492 20.5475C91.0211 20.5858 90.1944 20.6391 89.3672 20.6919C89.0993 20.7088 89.0934 21.111 89.3672 21.113C90.1949 21.1188 91.022 21.1246 91.8492 21.1164C92.216 21.1125 92.2146 20.5305 91.8492 20.5475Z" fill="white"/>
<path d="M92.6703 38.8429C92.9315 38.5473 93.2876 38.1824 93.3065 37.7918C93.3114 37.691 93.1975 37.6431 93.1175 37.6833C92.7745 37.8563 92.5506 38.3122 92.318 38.6408C91.942 38.4213 91.5655 38.2027 91.1856 37.989C90.9404 37.8509 90.7267 38.2182 90.9656 38.3656C91.314 38.5802 91.659 38.8002 92.004 39.0202C91.7569 39.3076 91.4996 39.5852 91.2248 39.8469C91.0785 39.9864 91.2946 40.1953 91.4443 40.0664C91.753 39.8009 92.0428 39.5159 92.3209 39.2199C92.3408 39.2324 92.3611 39.2451 92.381 39.2576C92.7565 39.4999 93.1321 39.8343 93.5905 39.8614C93.7015 39.8682 93.7591 39.7388 93.7116 39.6502C93.5042 39.2625 93.0424 39.058 92.6703 38.8429Z" fill="white"/>
<path d="M96.5401 37.6581C96.2881 38.0656 96.055 38.4828 95.8345 38.9063C95.7221 38.7295 95.5811 38.5599 95.474 38.4C95.2913 38.1272 95.0946 37.8708 94.8571 37.6431C94.6512 37.4449 94.3478 37.7487 94.5436 37.9566C94.7772 38.2042 94.954 38.4819 95.1265 38.7736C95.2564 38.9931 95.3819 39.2601 95.5874 39.42C95.5011 39.6003 95.4071 39.7762 95.3281 39.9603C95.0316 40.6474 94.6405 41.4377 94.674 42.1966C94.6817 42.3759 94.9143 42.4428 95.0112 42.2877C95.3848 41.6907 95.4968 40.9338 95.7381 40.2724C96.0448 39.4311 96.4262 38.6272 96.8589 37.8442C96.9742 37.6363 96.6651 37.456 96.5401 37.6581Z" fill="white"/>
<path d="M47.4376 38.2442C47.4376 25.1448 36.8182 14.5254 23.7188 14.5254C10.6194 14.5254 0 25.1448 0 38.2442C0 51.3436 10.6194 61.963 23.7188 61.963C25.7283 61.963 27.6787 61.7111 29.5424 61.2405C31.5248 64.9373 35.3568 67.2192 40.1943 65.5741C40.1943 65.5741 36.2465 62.859 35.851 58.6258C42.7887 54.4866 47.4376 46.9093 47.4376 38.2442Z" fill="#92D8FE"/>
<path d="M31.668 29.8147L35.6424 26.5981C35.7447 26.5153 35.9918 26.7624 35.9089 26.8646L32.6914 30.8381L31.668 29.8147Z" fill="#7C71CD"/>
<path d="M29.0706 39.2433L21.7662 45.5791L16.9238 40.7368L23.2596 33.4324C24.3998 32.2922 24.6872 32.329 26.089 31.5566C27.3819 30.8399 28.7716 30.2928 30.2195 29.9299L31.6844 29.5645C32.4447 29.3707 33.1323 30.0583 32.9409 30.821L32.5755 32.2859C32.215 33.7362 31.665 35.1235 30.9488 36.4163C30.1759 37.8182 30.2108 38.1031 29.0706 39.2433Z" fill="white"/>
<path d="M30.9467 36.4161C30.9467 36.4161 29.366 34.3509 28.7584 33.7432C28.1512 33.136 26.0879 31.5568 26.0879 31.5568C27.3807 30.8401 28.7705 30.2931 30.2184 29.9301L31.6832 29.5647C32.4435 29.3709 33.1311 30.0585 32.9397 30.8212L32.5744 32.2861C32.2129 33.7359 31.6634 35.1233 30.9467 36.4161Z" fill="#E6335A"/>
<path d="M16.9248 40.7372L20.3512 36.787C20.3512 36.787 14.8285 34.0831 11.5039 38.0721C10.2954 39.5219 10.5638 40.4097 11.1555 40.3743C12.145 40.3152 14.625 38.7461 16.9248 40.7372Z" fill="#E6335A"/>
<path d="M21.7676 45.5791L25.7178 42.1527C25.7178 42.1527 28.4217 47.6754 24.4327 50.9995C22.9829 52.2081 22.0951 51.9396 22.1305 51.3479C22.1896 50.3589 23.7582 47.8794 21.7676 45.5791Z" fill="#E6335A"/>
<path d="M27.0048 39.5343C25.8908 40.6483 24.0843 40.6483 22.9703 39.5343C21.8563 38.4202 21.8563 36.6142 22.9703 35.4997C24.0843 34.3857 25.8908 34.3857 27.0048 35.4997C28.1189 36.6142 28.1189 38.4202 27.0048 39.5343Z" fill="#E6335A"/>
<path d="M26.4163 38.9434C25.6283 39.7313 24.3515 39.7313 23.5636 38.9434C22.7757 38.1555 22.7757 36.8786 23.5636 36.0907C24.3515 35.3028 25.6283 35.3028 26.4163 36.0907C27.2037 36.8781 27.2037 38.1555 26.4163 38.9434Z" fill="#73CDE5"/>
<path d="M19.2018 47.1763L15.3281 43.3026L16.9248 40.7373L21.7671 45.5791L19.2018 47.1763Z" fill="#7C71CD"/>
<path d="M16.329 47.4561L15.0473 46.1744C14.7551 45.8822 14.7551 45.4078 15.0473 45.1156L16.0944 44.0685L18.4344 46.4085L17.3873 47.4556C17.0951 47.7488 16.6212 47.7488 16.329 47.4561Z" fill="#E6335A"/>
<path d="M25.5102 36.5198C25.6464 36.718 25.7249 36.9375 25.7157 37.1802C25.7065 37.4225 25.5344 37.6033 25.5272 37.8368C25.5233 37.9575 25.6502 38.0544 25.7656 38.0205C26.0898 37.9265 26.1833 37.4768 26.1886 37.1802C26.1944 36.8449 26.0679 36.5115 25.8184 36.2852C25.6638 36.1457 25.3789 36.3293 25.5102 36.5198Z" fill="white"/>
<path d="M25.0003 38.4625C24.9228 38.4121 24.8433 38.4096 24.7537 38.4062C24.3335 38.3912 24.4891 39.1094 24.8826 38.8952C24.964 38.8506 25.0255 38.8099 25.0735 38.729C25.1292 38.634 25.088 38.5191 25.0003 38.4625Z" fill="white"/>
<path d="M14.7642 45.8108C14.7642 45.8108 12.3603 46.5284 12.1781 48.3969C11.9959 50.2655 10.3702 51.332 9.99412 51.4401C9.6181 51.5481 11.3344 51.6213 12.5779 50.8067C12.5779 50.8067 12.3002 51.2554 11.4832 52.0724C12.809 52.1878 16.4748 50.5877 16.6914 47.7374L14.7642 45.8108Z" fill="#FF9750"/>
<path d="M15.282 46.3312C15.282 46.3312 13.5971 46.9262 13.6882 47.9249C13.7788 48.9236 12.8906 49.6088 12.8906 49.6088C12.8906 49.6088 15.4986 49.856 16.2526 47.3013L15.282 46.3312Z" fill="#FFF252"/>
<path d="M30.031 47.7989C34.2875 43.5448 38.6002 39.3407 42.7307 34.9635C42.8581 34.8283 42.6619 34.6321 42.5272 34.7595C38.15 38.89 33.9459 43.2027 29.6918 47.4592C29.4728 47.6782 29.8125 48.0179 30.031 47.7989Z" fill="white"/>
<path d="M5.4304 38.7934C10.1782 34.0979 15.0768 29.5052 19.6216 24.6124C19.719 24.5078 19.5697 24.3585 19.465 24.4559C14.5723 29.0012 9.97956 33.8997 5.28405 38.6471C5.19053 38.7421 5.3359 38.8874 5.4304 38.7934Z" fill="white"/>
<path d="M18.6679 32.7565C22.1491 29.3262 25.7892 25.9734 29.0474 22.3299C29.2001 22.1594 28.9675 21.9268 28.7964 22.0794C25.1529 25.3377 21.8002 28.9778 18.3699 32.4589C18.1799 32.6518 18.4746 32.9469 18.6679 32.7565Z" fill="white"/>
<path d="M20.755 58.5807C22.4912 57.3456 23.9144 55.5478 25.3696 54.0039C25.5101 53.8552 25.294 53.6386 25.1448 53.7791C23.6009 55.2338 21.8036 56.657 20.568 58.3937C20.49 58.5032 20.6455 58.6587 20.755 58.5807Z" fill="white"/>
<path d="M8.46382 29.2136C10.986 27.1924 13.1564 24.6421 15.3922 22.3167C15.5342 22.1689 15.3152 21.9499 15.1674 22.0918C12.8419 24.3276 10.2911 26.498 8.27047 29.0202C8.15999 29.1583 8.32571 29.3241 8.46382 29.2136Z" fill="white"/>
<path d="M30.8557 54.4946C34.1101 50.571 37.8806 47.1092 41.4165 43.443C41.5255 43.3301 41.3574 43.1614 41.244 43.2705C37.5777 46.8064 34.1159 50.5768 30.1923 53.8312C29.7252 54.2184 30.4681 54.9617 30.8557 54.4946Z" fill="white"/>
<path d="M29.6563 26.8199C31.2505 25.2291 32.8321 23.629 34.3978 22.01C34.5102 21.8937 34.3367 21.7198 34.22 21.8322C32.601 23.3979 31.0014 24.98 29.4101 26.5737C29.2526 26.7332 29.4978 26.9784 29.6563 26.8199Z" fill="white"/>
<path d="M20.9672 22.2187C22.0691 21.1148 23.1953 20.0303 24.2512 18.8824C24.4154 18.7036 24.1634 18.4516 23.9846 18.6159C22.8367 19.6718 21.7522 20.7979 20.6484 21.8998C20.4429 22.1053 20.7617 22.4241 20.9672 22.2187Z" fill="white"/>
<path d="M6.3734 47.2617C7.58725 46.0585 8.80062 44.8553 10.0145 43.6521C10.2311 43.4374 9.89479 43.1011 9.68012 43.3177C8.47693 44.5316 7.27373 45.745 6.07054 46.9588C5.87623 47.1551 6.17763 47.4565 6.3734 47.2617Z" fill="white"/>
<path d="M15.4678 56.5565C16.7252 55.0814 18.0326 53.6626 19.3308 52.2229C19.449 52.0921 19.2682 51.9114 19.1374 52.0296C17.6978 53.3282 16.2789 54.6356 14.8039 55.8926C14.3426 56.2861 15.0743 57.0178 15.4678 56.5565Z" fill="white"/>
<path d="M35.6917 35.6419C37.3412 33.5258 39.3672 31.7397 41.149 29.7408C41.2822 29.5916 41.0792 29.388 40.9295 29.5213C38.9301 31.3031 37.144 33.3291 35.0279 34.9785C34.5482 35.3521 35.3172 36.1221 35.6917 35.6419Z" fill="white"/>
<path d="M213.855 23.7185C213.855 10.619 224.475 -0.000366211 237.574 -0.000366211C250.674 -0.000366211 261.293 10.619 261.293 23.7185C261.293 36.8179 250.674 47.4373 237.574 47.4373C235.565 47.4373 233.614 47.1853 231.751 46.7143C229.768 50.4111 225.936 52.6929 221.099 51.0478C221.099 51.0478 225.047 48.3328 225.443 44.0995C218.504 39.9608 213.855 32.3841 213.855 23.7185Z" fill="#92D8FE"/>
<path d="M230.997 15.8363C230.997 14.6753 230.622 13.5482 229.94 12.6178L229.954 12.6086L229.689 12.297C228.655 11.0812 227.145 10.3839 225.548 10.3839C225.547 10.3839 225.547 10.3839 225.547 10.3839C225.546 10.3839 225.545 10.3839 225.545 10.3839C225.347 10.3839 225.149 10.3946 224.954 10.4159C223.581 10.5661 222.312 11.2329 221.404 12.296C221.404 12.2965 221.403 12.297 221.403 12.2975L221.138 12.6081L221.153 12.6178C220.47 13.5487 220.096 14.6753 220.096 15.8358C220.096 16.9799 220.461 18.093 221.125 19.0137L221.111 19.0224L221.369 19.3306C222.405 20.5716 223.927 21.2839 225.545 21.2848C225.545 21.2848 225.546 21.2848 225.547 21.2848H225.547C225.547 21.2848 225.548 21.2848 225.548 21.2848C225.784 21.2848 226.017 21.2655 226.247 21.2354C227.4 21.0866 228.473 20.5778 229.313 19.771C229.457 19.6329 229.595 19.4856 229.724 19.3306L229.981 19.0224L229.968 19.0137C230.633 18.093 230.997 16.9804 230.997 15.8363ZM228.854 19.2254C228.808 19.2705 228.759 19.3121 228.711 19.3553C228.636 19.4226 228.561 19.49 228.482 19.552C228.429 19.5942 228.374 19.6339 228.318 19.6736C228.24 19.7303 228.162 19.7851 228.081 19.8365C228.022 19.8738 227.963 19.9087 227.903 19.9431C227.821 19.9905 227.737 20.0351 227.653 20.0773C227.591 20.1083 227.529 20.1379 227.465 20.166C227.384 20.2018 227.302 20.2338 227.219 20.2653C227.505 19.8728 227.75 19.3814 227.941 18.813C228.282 18.9167 228.602 19.0408 228.889 19.1881C228.877 19.2002 228.866 19.2138 228.854 19.2254ZM223.444 20.0792C223.357 20.0361 223.271 19.9901 223.187 19.9416C223.129 19.9082 223.071 19.8742 223.015 19.8384C222.931 19.7856 222.85 19.7289 222.77 19.6702C222.717 19.632 222.664 19.5942 222.613 19.5535C222.532 19.4895 222.454 19.4202 222.377 19.3509C222.331 19.3092 222.284 19.2695 222.239 19.2264C222.227 19.2143 222.216 19.2007 222.204 19.1886C222.49 19.0418 222.811 18.9177 223.151 18.8135C223.342 19.3819 223.587 19.8723 223.873 20.2648C223.79 20.2333 223.707 20.2013 223.626 20.1655C223.565 20.1383 223.504 20.1093 223.444 20.0792ZM222.273 12.4109C222.318 12.3677 222.366 12.3285 222.412 12.2873C222.488 12.2204 222.564 12.1541 222.644 12.092C222.696 12.0513 222.751 12.0135 222.805 11.9748C222.883 11.919 222.962 11.8648 223.043 11.8139C223.101 11.778 223.159 11.7441 223.218 11.7107C223.301 11.6642 223.384 11.6201 223.468 11.5784C223.529 11.5488 223.59 11.5197 223.652 11.4926C223.725 11.4611 223.798 11.433 223.872 11.4054C223.596 11.7853 223.356 12.2558 223.169 12.8005C222.837 12.7002 222.525 12.5814 222.244 12.4409C222.254 12.4317 222.263 12.4206 222.273 12.4109ZM227.626 11.5779C227.712 11.6201 227.797 11.6651 227.88 11.7126C227.938 11.7451 227.995 11.778 228.05 11.8129C228.134 11.8652 228.215 11.921 228.295 11.9786C228.346 12.0155 228.399 12.0513 228.449 12.0906C228.532 12.155 228.611 12.2243 228.69 12.2946C228.733 12.3329 228.777 12.3692 228.819 12.4094C228.83 12.4196 228.839 12.4312 228.849 12.4414C228.568 12.5824 228.256 12.7016 227.924 12.8014C227.736 12.2558 227.497 11.7848 227.219 11.4044C227.295 11.433 227.371 11.4616 227.444 11.4941C227.506 11.5202 227.566 11.5488 227.626 11.5779ZM228.384 15.4802C228.361 14.764 228.269 14.0904 228.12 13.4803C228.56 13.348 228.966 13.1823 229.328 12.9856C229.875 13.71 230.203 14.5759 230.272 15.4802H228.384ZM225.901 11.1694C226.408 11.3768 226.899 12.0164 227.237 12.973C226.811 13.0578 226.362 13.1101 225.901 13.128V11.1694ZM225.192 13.1276C224.73 13.1096 224.281 13.0568 223.855 12.972C224.194 12.0155 224.685 11.3758 225.192 11.1689V13.1276ZM225.192 13.835V15.4797H223.417C223.44 14.8076 223.525 14.1941 223.655 13.6519C224.146 13.7536 224.662 13.8156 225.192 13.835ZM225.192 16.1891V17.7746C224.656 17.794 224.136 17.857 223.642 17.9602C223.519 17.432 223.439 16.8379 223.417 16.1891H225.192ZM225.192 18.4821V20.4998C224.674 20.2886 224.174 19.6291 223.835 18.641C224.266 18.5543 224.722 18.5005 225.192 18.4821ZM225.901 18.4821C226.37 18.5 226.826 18.5543 227.258 18.641C226.919 19.6291 226.418 20.2886 225.901 20.4998V18.4821ZM225.901 17.7746V16.1891H227.675C227.654 16.8379 227.574 17.4315 227.451 17.9597C226.957 17.8565 226.436 17.794 225.901 17.7746ZM225.901 15.4802V13.8355C226.431 13.8161 226.947 13.7541 227.437 13.6528C227.568 14.1951 227.653 14.8081 227.675 15.4802H225.901ZM222.973 13.4803C222.824 14.0899 222.732 14.7635 222.709 15.4802H220.821C220.889 14.5759 221.218 13.7105 221.765 12.9856C222.127 13.1823 222.533 13.348 222.973 13.4803ZM222.709 16.1891C222.731 16.884 222.818 17.5386 222.96 18.1337C222.512 18.2689 222.099 18.4394 221.733 18.642C221.204 17.9277 220.887 17.0763 220.821 16.1891H222.709ZM228.134 18.1337C228.275 17.5386 228.362 16.884 228.384 16.1891H230.272C230.206 17.0763 229.888 17.9268 229.36 18.6415C228.994 18.439 228.581 18.2689 228.134 18.1337Z" fill="#7C71CD"/>
<path d="M231.146 31.2289H230.565C230.503 31.0429 230.426 30.8636 230.34 30.6901L230.752 30.2782C230.88 30.1503 230.88 29.9424 230.752 29.814L229.373 28.4359C229.246 28.3079 229.038 28.3079 228.909 28.4359L228.497 28.8478C228.324 28.761 228.145 28.6849 227.959 28.6229V28.0414C227.959 27.8602 227.812 27.7134 227.63 27.7134H225.682C225.5 27.7134 225.353 27.8602 225.353 28.0414V28.6229C225.167 28.6849 224.988 28.761 224.815 28.8478L224.403 28.4359C224.275 28.3079 224.067 28.3079 223.939 28.4359L222.56 29.814C222.432 29.9424 222.432 30.1498 222.56 30.2782L222.972 30.6901C222.886 30.8636 222.809 31.0429 222.747 31.2289H222.166C221.985 31.2289 221.838 31.3758 221.838 31.557V33.5059C221.838 33.6872 221.985 33.834 222.166 33.834H222.747C222.809 34.0201 222.886 34.1999 222.972 34.3728L222.56 34.7847C222.432 34.9127 222.432 35.1205 222.56 35.249L223.939 36.6271C224.067 36.7555 224.274 36.7555 224.403 36.6271L224.815 36.2152C224.988 36.3019 225.167 36.378 225.353 36.44V37.0215C225.353 37.2027 225.5 37.3496 225.682 37.3496H227.63C227.812 37.3496 227.959 37.2027 227.959 37.0215V36.44C228.145 36.378 228.324 36.3019 228.497 36.2152L228.909 36.6271C229.037 36.7555 229.245 36.7555 229.373 36.6271L230.752 35.249C230.88 35.1205 230.88 34.9131 230.752 34.7847L230.34 34.3728C230.426 34.1994 230.503 34.0201 230.565 33.834H231.146C231.327 33.834 231.474 33.6872 231.474 33.5059V31.557C231.474 31.3758 231.327 31.2289 231.146 31.2289ZM228.189 32.5315C228.189 33.378 227.503 34.0647 226.656 34.0647C225.809 34.0647 225.123 33.378 225.123 32.5315C225.123 31.6849 225.809 30.9983 226.656 30.9983C227.503 30.9983 228.189 31.6844 228.189 32.5315Z" fill="#FFF252"/>
<path d="M237.313 36.4662C237.102 36.4662 236.997 36.2108 237.146 36.0611C237.315 35.8915 237.315 35.6163 237.146 35.4462L236.651 34.9519C236.482 34.7823 236.207 34.7823 236.037 34.9519C235.887 35.1012 235.632 34.9955 235.632 34.7843C235.632 34.5444 235.437 34.3496 235.197 34.3496H234.498C234.258 34.3496 234.063 34.5444 234.063 34.7843C234.063 34.9955 233.808 35.1012 233.659 34.9519C233.489 34.7823 233.214 34.7823 233.044 34.9519L232.55 35.4462C232.38 35.6158 232.38 35.891 232.55 36.0611C232.699 36.2104 232.593 36.4662 232.382 36.4662C232.142 36.4662 231.947 36.661 231.947 36.9009V37.6001C231.947 37.84 232.142 38.0348 232.382 38.0348C232.593 38.0348 232.699 38.2901 232.55 38.4399C232.38 38.6095 232.38 38.8847 232.55 39.0548L233.044 39.5491C233.213 39.7187 233.489 39.7187 233.659 39.5491C233.808 39.3998 234.063 39.5055 234.063 39.7167C234.063 39.9566 234.258 40.1514 234.498 40.1514H235.197C235.437 40.1514 235.632 39.9566 235.632 39.7167C235.632 39.5055 235.887 39.3998 236.037 39.5491C236.206 39.7187 236.481 39.7187 236.651 39.5491L237.146 39.0548C237.315 38.8852 237.315 38.61 237.146 38.4399C236.997 38.2906 237.102 38.0348 237.313 38.0348C237.553 38.0348 237.748 37.84 237.748 37.6001V36.9009C237.748 36.6605 237.554 36.4662 237.313 36.4662ZM234.847 38.8993C233.937 38.8993 233.199 38.1613 233.199 37.2507C233.199 36.3402 233.937 35.6022 234.847 35.6022C235.758 35.6022 236.496 36.3402 236.496 37.2507C236.496 38.1613 235.758 38.8993 234.847 38.8993Z" fill="#E6335A"/>
<path d="M243.743 35.8656V33.779C242.942 33.5929 242.355 33.3119 241.981 32.9349C241.607 32.5579 241.42 32.1009 241.42 31.563C241.42 31.0189 241.631 30.5614 242.055 30.1912C242.477 29.821 243.04 29.6078 243.743 29.5516V28.9362C243.743 28.691 243.941 28.4918 244.187 28.4918C244.432 28.4918 244.632 28.6905 244.632 28.9362V29.5516C245.281 29.6146 245.798 29.7948 246.182 30.0919C246.31 30.1907 246.422 30.3012 246.519 30.4228C246.828 30.8076 246.549 31.3237 245.988 31.3828L245.963 31.3857C245.637 31.4201 245.35 31.2679 245.181 31.0392C245.052 30.8648 244.869 30.7359 244.631 30.652V32.5991C245.611 32.8147 246.28 33.0943 246.635 33.4378C246.99 33.7814 247.168 34.2219 247.168 34.7598C247.168 35.3606 246.944 35.867 246.497 36.2784C246.05 36.6903 245.428 36.9423 244.631 37.0353V37.5223C244.631 37.7675 244.432 37.9667 244.187 37.9667C243.941 37.9667 243.742 37.768 243.742 37.5223V37.0605C243.036 36.9907 242.462 36.7765 242.02 36.418C241.786 36.227 241.596 35.9949 241.451 35.7207C241.239 35.318 241.592 34.863 242.128 34.8165C242.483 34.7854 242.802 34.9541 242.963 35.2133C243.014 35.2967 243.074 35.3742 243.142 35.4469C243.322 35.6397 243.522 35.7793 243.743 35.8656ZM243.743 30.637C243.502 30.7034 243.31 30.8163 243.167 30.9757C243.024 31.1352 242.952 31.3111 242.952 31.5034C242.952 31.6793 243.017 31.8426 243.148 31.9938C243.279 32.145 243.477 32.2666 243.743 32.3597V30.637ZM244.632 35.9353C244.938 35.8888 245.187 35.7735 245.379 35.5893C245.571 35.4052 245.667 35.1886 245.667 34.9395C245.667 34.7171 245.586 34.5252 245.425 34.3643C245.263 34.2035 244.999 34.0799 244.632 33.9932V35.9353Z" fill="#FFF252"/>
<path d="M237.902 7.42481C235.675 8.20158 234.193 9.78807 232.743 11.5194C232.453 10.7131 232.085 9.96639 231.61 9.22694C231.412 8.91972 230.944 9.19059 231.118 9.51429C231.609 10.4209 231.977 11.3654 232.246 12.3602C232.314 12.6136 232.677 12.7367 232.862 12.523C233.427 11.8688 233.931 11.1667 234.535 10.5459C235.589 9.46195 236.847 8.74285 238.136 7.97916C238.422 7.80908 238.235 7.309 237.902 7.42481Z" fill="white"/>
<path d="M255.786 26.1463C253.438 26.3222 251.347 28.104 250.053 30.0243C249.786 29.4259 249.445 28.8841 249.011 28.3676C248.781 28.0923 248.398 28.4858 248.619 28.7596C249.117 29.3735 249.456 30.0011 249.704 30.7517C249.785 30.9954 250.111 31.0468 250.25 30.8229C251.654 28.559 253.569 27.5874 255.87 26.4559C256.016 26.3847 255.948 26.1342 255.786 26.1463Z" fill="white"/>
<path d="M253.526 9.24774C251.178 9.42364 249.087 11.2054 247.793 13.1258C247.526 12.5278 247.186 11.9856 246.752 11.469C246.52 11.1943 246.138 11.5873 246.36 11.861C246.857 12.475 247.196 13.1025 247.445 13.8536C247.525 14.0973 247.851 14.1487 247.99 13.9248C249.394 11.6609 251.309 10.6893 253.61 9.55786C253.756 9.48615 253.689 9.23562 253.526 9.24774Z" fill="white"/>
<path d="M239.774 24.347C237.564 24.4158 235.32 26.2155 233.788 27.8209C233.622 27.3286 233.464 26.8343 233.32 26.3343C233.204 25.933 232.582 26.1022 232.693 26.5073C232.881 27.1992 233.09 27.882 233.321 28.5604C233.4 28.7915 233.707 28.9088 233.89 28.7106C234.759 27.7739 235.717 26.9487 236.805 26.2751C237.786 25.669 238.92 25.337 239.869 24.6984C240.016 24.5995 239.972 24.3407 239.774 24.347Z" fill="white"/>
<path d="M243.672 15.5062L242.613 16.5649L245.368 19.3201L246.427 18.2614L243.672 15.5062Z" fill="#5E3C77"/>
<path d="M245.119 19.4189L247.676 21.976C248.066 22.3656 248.697 22.3656 249.087 21.976C249.476 21.5864 249.476 20.955 249.087 20.5654L246.53 18.0083L245.119 19.4189Z" fill="#E6335A"/>
<path d="M244.676 11.6629C246.305 13.2915 246.305 15.932 244.676 17.5606C243.047 19.1893 240.407 19.1893 238.778 17.5606C237.149 15.932 237.149 13.2915 238.778 11.6629C240.407 10.0342 243.047 10.0342 244.676 11.6629Z" fill="#5E3C77"/>
<path d="M243.915 12.424C245.123 13.6325 245.123 15.5911 243.915 16.7997C242.706 18.0077 240.747 18.0077 239.539 16.7997C238.331 15.5911 238.331 13.6325 239.539 12.424C240.747 11.2154 242.706 11.2154 243.915 12.424Z" fill="#73CDE5"/>
<path d="M240.314 13.6534C240.727 13.3268 241.206 13.1242 241.738 13.1213C241.976 13.1199 242.206 13.1654 242.428 13.2497C242.624 13.3243 242.769 13.4644 242.983 13.4571C243.065 13.4542 243.114 13.3835 243.1 13.3059C243.003 12.7748 242.052 12.6532 241.62 12.6774C241.021 12.7109 240.447 12.9948 240.137 13.5182C240.067 13.6359 240.22 13.727 240.314 13.6534Z" fill="white"/>
<path d="M243.548 14.4519C243.653 14.5755 243.638 14.7199 243.688 14.8633C243.737 15.0058 243.854 15.0969 243.997 15.0019C244.339 14.7741 244.072 14.2702 243.805 14.1151C243.587 13.9891 243.398 14.2745 243.548 14.4519Z" fill="white"/>
<path d="M218.915 23.5138C218.889 23.5147 218.862 23.52 218.834 23.5326C218.082 23.8612 217.591 24.6326 218.013 25.4273C218.393 26.143 219.414 26.6189 220.169 26.2085C220.875 25.8247 220.975 24.7349 220.646 24.0759C220.364 23.5133 219.444 23.0054 218.915 23.5138ZM219.868 25.7103C219.381 25.9526 218.719 25.6095 218.485 25.1506C218.222 24.6346 218.596 24.1277 219.027 23.8641C219.058 23.8457 219.078 23.8234 219.094 23.8001C219.575 23.6921 220.005 23.7589 220.229 24.2837C220.418 24.7271 220.344 25.4738 219.868 25.7103Z" fill="white"/>
<path d="M224.152 26.1537C223.991 25.8663 223.668 25.6497 223.426 25.4292C223.153 25.1807 222.88 24.9316 222.607 24.683C222.594 24.6714 222.58 24.6646 222.567 24.6588C222.639 24.6021 222.712 24.5454 222.784 24.4887C223.078 24.258 223.428 24.0429 223.661 23.7483C223.733 23.6567 223.646 23.5326 223.535 23.5859C223.206 23.7444 222.93 24.0279 222.649 24.259C222.421 24.4465 222.193 24.6336 221.965 24.8211C221.963 24.7886 221.958 24.7552 221.956 24.7232C221.914 24.181 221.885 23.6368 221.805 23.0989C221.771 22.8712 221.416 22.9342 221.413 23.1518C221.405 23.7158 221.456 24.2808 221.488 24.8439C221.517 25.3391 221.478 25.8751 221.653 26.3417C221.711 26.4934 221.953 26.5263 221.995 26.3417C222.087 25.9439 222.04 25.5208 221.994 25.1075C222.124 25.0062 222.254 24.9045 222.384 24.8032C222.388 24.8269 222.397 24.8502 222.419 24.872C222.68 25.1327 222.941 25.3929 223.203 25.6536C223.433 25.8838 223.667 26.2002 223.96 26.3465C224.083 26.4071 224.224 26.2811 224.152 26.1537Z" fill="white"/>
<path d="M251.799 16.4105C251.624 16.7507 251.471 17.0972 251.327 17.448C251.213 17.354 251.083 17.2745 250.982 17.2081C250.678 17.008 250.348 16.8563 250.003 16.7405C249.786 16.6674 249.712 16.9915 249.911 17.0754C250.223 17.2062 250.52 17.3777 250.785 17.589C250.901 17.6816 251.015 17.8119 251.143 17.9069C251.131 17.9408 251.115 17.9738 251.102 18.0082C250.908 18.5373 250.644 19.1178 250.653 19.6872C250.656 19.8951 250.93 19.9654 251.038 19.7914C251.32 19.3393 251.413 18.7689 251.577 18.2635C251.763 17.6937 251.965 17.1292 252.156 16.5612C252.228 16.3524 251.901 16.2128 251.799 16.4105Z" fill="white"/>
<path d="M254.774 19.598C254.485 19.4735 254.223 19.4967 253.91 19.4977C253.756 19.4982 253.014 19.5748 252.951 19.5142C252.887 19.4522 252.955 18.8464 252.97 18.6424C253.158 18.656 253.345 18.6657 253.532 18.6899C253.765 18.72 253.974 18.8048 254.189 18.6962C254.258 18.6613 254.269 18.5562 254.214 18.5048C254.033 18.3357 253.793 18.3638 253.555 18.3507C253.367 18.3401 253.18 18.3444 252.992 18.3444C253.013 18.0537 253.044 17.7634 253.085 17.4751C253.486 17.5105 253.887 17.5454 254.288 17.5807C254.433 17.5933 254.437 17.3569 254.288 17.3515C253.891 17.3375 253.493 17.3234 253.096 17.3089C253.068 17.1034 252.756 17.0274 252.707 17.2643C252.626 17.6471 252.566 18.0333 252.52 18.4215C252.509 18.4481 252.505 18.4733 252.51 18.5019C252.503 18.5664 252.492 18.6303 252.486 18.6948C252.457 19.0049 252.327 19.552 252.528 19.8316C252.704 20.0773 253.072 20.0128 253.33 20.0128C253.802 20.0128 254.334 20.102 254.773 19.9101C254.892 19.8592 254.892 19.6494 254.774 19.598Z" fill="white"/>
<path d="M257.857 19.1226C257.686 18.6782 257.129 18.3172 256.712 18.1389C256.526 18.0594 256.259 18.0323 256.099 17.9049C255.914 17.7575 255.887 17.7566 256.053 17.5201C256.233 17.2609 256.64 17.0724 256.947 17.1286C257.233 17.1814 257.359 16.7574 257.069 16.6866C256.397 16.5233 254.729 17.3898 255.547 18.1777C255.844 18.4641 256.287 18.4781 256.643 18.639C257.1 18.8454 257.669 19.2684 257.18 19.7307C256.878 20.0171 256.402 19.9895 256.043 20.1392C255.895 20.2012 255.818 20.4275 255.994 20.5172C256.692 20.8733 258.184 19.974 257.857 19.1226Z" fill="white"/>
</svg>
