<svg width="112" height="112" viewBox="0 0 112 112" fill="none" xmlns="http://www.w3.org/2000/svg">
<circle cx="56" cy="56" r="56" fill="#EDB749"/>
<path d="M57.9978 76.036H54.2447C54.0057 76.036 53.7766 76.131 53.6076 76.2999C53.4387 76.4689 53.3438 76.698 53.3438 76.9369C53.3438 77.1759 53.4387 77.405 53.6076 77.574C53.7766 77.7429 54.0057 77.8378 54.2447 77.8378H57.9978C58.2367 77.8378 58.4659 77.7429 58.6348 77.574C58.8038 77.405 58.8987 77.1759 58.8987 76.9369C58.8987 76.698 58.8038 76.4689 58.6348 76.2999C58.4659 76.131 58.2367 76.036 57.9978 76.036Z" fill="black"/>
<path d="M74.991 40.3694C74.9914 40.2649 74.9731 40.1611 74.9369 40.0631C74.9231 40.04 74.9111 40.0159 74.9009 39.991C74.8829 39.955 74.8739 39.9279 74.8559 39.8919L69.0811 30.8198C68.923 30.5685 68.7037 30.3614 68.4437 30.218C68.1837 30.0746 67.8915 29.9996 67.5946 30H44.4054C44.1085 29.9996 43.8163 30.0746 43.5563 30.218C43.2963 30.3614 43.077 30.5685 42.9189 30.8198L37.1441 39.8919C37.1261 39.9279 37.1171 39.955 37.0991 39.991C37.0889 40.0159 37.0769 40.04 37.0631 40.0631C37.0269 40.1611 37.0086 40.2649 37.009 40.3694L37 40.3784V44.5315C37.0046 45.4907 37.3156 46.4233 37.8878 47.1931C38.4599 47.963 39.2631 48.5298 40.1802 48.8108V76.1441C40.1828 77.5259 40.7335 78.8502 41.7114 79.8265C42.6893 80.8027 44.0146 81.3511 45.3964 81.3513H66.6036C67.9854 81.3511 69.3107 80.8027 70.2886 79.8265C71.2665 78.8502 71.8172 77.5259 71.8198 76.1441V48.8108C72.7369 48.5298 73.5401 47.963 74.1122 47.1931C74.6844 46.4233 74.9954 45.4907 75 44.5315V40.3784L74.991 40.3694ZM67.5586 31.7838L72.4505 39.4775H67.4595L64.2432 31.7838H67.5586ZM62.2883 31.7838L65.5045 39.4775H60.4234L59.5856 31.7928L62.2883 31.7838ZM65.955 41.2793V44.5315C65.955 45.2483 65.6702 45.9358 65.1634 46.4426C64.6565 46.9495 63.9691 47.2342 63.2523 47.2342H63.2252C62.5084 47.2342 61.821 46.9495 61.3141 46.4426C60.8073 45.9358 60.5225 45.2483 60.5225 44.5315V41.2793H65.955ZM54.2252 31.7928H57.7748L58.6126 39.4775H53.3874L54.2252 31.7928ZM53.2793 41.2793H58.7207V44.5315C58.7207 45.2483 58.436 45.9358 57.9291 46.4426C57.4223 46.9495 56.7348 47.2342 56.018 47.2342H55.982C55.2652 47.2342 54.5777 46.9495 54.0709 46.4426C53.564 45.9358 53.2793 45.2483 53.2793 44.5315V41.2793ZM52.4144 31.7928L51.5766 39.4775H46.4955L49.7117 31.8018L52.4144 31.7928ZM51.4775 41.2793V44.5315C51.4775 45.2483 51.1927 45.9358 50.6859 46.4426C50.179 46.9495 49.4916 47.2342 48.7748 47.2342H48.7477C48.0309 47.2342 47.3435 46.9495 46.8366 46.4426C46.3298 45.9358 46.045 45.2483 46.045 44.5315V41.2793H51.4775ZM44.4054 31.8018H47.7568L44.5405 39.4775H39.5405L44.4054 31.8018ZM41.5405 47.2342H41.5045C40.7877 47.2342 40.1003 46.9495 39.5934 46.4426C39.0866 45.9358 38.8018 45.2483 38.8018 44.5315V41.2793H44.2432V44.5315C44.2432 45.2483 43.9585 45.9358 43.4516 46.4426C42.9448 46.9495 42.2573 47.2342 41.5405 47.2342ZM70.018 76.1441C70.0152 77.048 69.6542 77.9139 69.0143 78.5522C68.3743 79.1904 67.5075 79.5491 66.6036 79.5495H45.3964C44.4925 79.5491 43.6257 79.1904 42.9857 78.5522C42.3458 77.9139 41.9848 77.048 41.982 76.1441V74.3333H70.018V76.1441ZM70.018 72.5315H41.982V48.991C42.6046 48.9316 43.2077 48.7421 43.7524 48.4348C44.2971 48.1275 44.7713 47.7093 45.1441 47.2072C45.5592 47.7734 46.1017 48.234 46.7277 48.5517C47.3537 48.8694 48.0457 49.0353 48.7477 49.036H48.7748C49.4768 49.0353 50.1688 48.8694 50.7948 48.5517C51.4209 48.234 51.9633 47.7734 52.3784 47.2072C52.7934 47.7734 53.3359 48.234 53.9619 48.5517C54.5879 48.8694 55.28 49.0353 55.982 49.036H56.018C56.72 49.0353 57.412 48.8694 58.0381 48.5517C58.6641 48.234 59.2066 47.7734 59.6216 47.2072C60.0367 47.7734 60.5791 48.234 61.2052 48.5517C61.8312 48.8694 62.5232 49.0353 63.2252 49.036H63.2523C63.9543 49.0353 64.6463 48.8694 65.2723 48.5517C65.8983 48.234 66.4408 47.7734 66.8559 47.2072C67.2287 47.7093 67.7029 48.1275 68.2476 48.4348C68.7923 48.7421 69.3954 48.9316 70.018 48.991V72.5315ZM73.1982 44.5315C73.1982 45.2483 72.9134 45.9358 72.4066 46.4426C71.8997 46.9495 71.2123 47.2342 70.4955 47.2342H70.4595C69.7427 47.2342 69.0552 46.9495 68.5484 46.4426C68.0415 45.9358 67.7568 45.2483 67.7568 44.5315V41.2793H73.1982V44.5315Z" fill="black"/>
<path d="M65.2333 66.5405L60.4135 61.7207C61.2245 60.1109 61.4355 58.2649 61.0087 56.5136C60.582 54.7623 59.5453 53.2204 58.0846 52.1642C56.6239 51.108 54.8347 50.6067 53.0379 50.7502C51.2411 50.8937 49.5542 51.6726 48.2796 52.9471C47.005 54.2217 46.2261 55.9087 46.0827 57.7055C45.9392 59.5023 46.4405 61.2914 47.4966 62.7521C48.5528 64.2128 50.0948 65.2495 51.8461 65.6763C53.5973 66.1031 55.4434 65.8921 57.0532 65.0811L61.873 69.9009C62.3215 70.3324 62.9213 70.5708 63.5437 70.5647C64.166 70.5587 64.7611 70.3089 65.2012 69.8688C65.6413 69.4287 65.8912 68.8336 65.8972 68.2112C65.9032 67.5889 65.6648 66.989 65.2333 66.5405ZM53.6478 64.0901C52.3105 64.0916 51.0141 63.6293 49.9795 62.782C48.9449 61.9346 48.2361 60.7548 47.9741 59.4434C47.712 58.132 47.9128 56.7704 48.5423 55.5905C49.1717 54.4106 50.1909 53.4856 51.426 52.973C52.6612 52.4604 54.0358 52.392 55.3158 52.7794C56.5957 53.1669 57.7016 53.9862 58.4451 55.0978C59.1886 56.2094 59.5235 57.5444 59.3929 58.8753C59.2623 60.2062 58.6742 61.4506 57.7288 62.3964C57.1941 62.9341 56.5581 63.3607 55.8577 63.6514C55.1572 63.9421 54.4061 64.0912 53.6478 64.0901ZM63.9631 68.6216C63.856 68.7289 63.7111 68.79 63.5595 68.7916C63.4079 68.7933 63.2617 68.7355 63.1523 68.6306L58.5757 64.0541C58.7282 63.9345 58.8726 63.8051 59.0081 63.6667C59.1414 63.5321 59.2677 63.3908 59.3865 63.2433L63.9631 67.8108C64.0166 67.8639 64.059 67.9271 64.088 67.9966C64.117 68.0662 64.1319 68.1409 64.1319 68.2162C64.1319 68.2916 64.117 68.3662 64.088 68.4358C64.059 68.5054 64.0166 68.5685 63.9631 68.6216Z" fill="black"/>
</svg>
