<svg width="112" height="112" viewBox="0 0 112 112" fill="none" xmlns="http://www.w3.org/2000/svg">
<circle cx="56" cy="56" r="56" fill="#EDB749"/>
<path d="M43.528 34.9921C43.5227 35.3448 43.4132 35.6881 43.2134 35.9789C43.0136 36.2696 42.7323 36.4948 42.4049 36.6261C42.0775 36.7574 41.7186 36.7891 41.3732 36.717C41.0279 36.645 40.7115 36.4724 40.464 36.2211C40.2164 35.9699 40.0486 35.651 39.9817 35.3046C39.9148 34.9582 39.9518 34.5998 40.088 34.2744C40.2242 33.949 40.4535 33.6711 40.7472 33.4756C41.0408 33.2801 41.3857 33.1758 41.7385 33.1758C42.2162 33.1807 42.6725 33.3745 43.0078 33.7149C43.3431 34.0552 43.5301 34.5144 43.528 34.9921Z" fill="black"/>
<path d="M38.1608 34.9921C38.1555 35.3448 38.0461 35.6881 37.8462 35.9789C37.6464 36.2696 37.3651 36.4948 37.0377 36.6261C36.7103 36.7574 36.3514 36.7891 36.006 36.717C35.6607 36.645 35.3444 36.4724 35.0968 36.2211C34.8492 35.9699 34.6814 35.651 34.6145 35.3046C34.5476 34.9582 34.5846 34.5998 34.7208 34.2744C34.857 33.949 35.0863 33.6711 35.38 33.4756C35.6736 33.2801 36.0185 33.1758 36.3713 33.1758C36.849 33.1807 37.3054 33.3745 37.6407 33.7149C37.9759 34.0552 38.1629 34.5144 38.1608 34.9921Z" fill="black"/>
<path d="M48.8952 34.9921C48.8899 35.3448 48.7804 35.6881 48.5806 35.9789C48.3808 36.2696 48.0995 36.4948 47.7721 36.6261C47.4447 36.7574 47.0857 36.7891 46.7404 36.717C46.3951 36.645 46.0787 36.4724 45.8311 36.2211C45.5836 35.9699 45.4158 35.651 45.3489 35.3046C45.282 34.9582 45.3189 34.5998 45.4551 34.2744C45.5913 33.949 45.8207 33.6711 46.1143 33.4756C46.408 33.2801 46.7529 33.1758 47.1057 33.1758C47.5834 33.1807 48.0397 33.3745 48.375 33.7149C48.7103 34.0552 48.8973 34.5144 48.8952 34.9921Z" fill="black"/>
<path d="M80.2105 30H32.7895C32.3153 30.0014 31.861 30.1904 31.5257 30.5257C31.1904 30.861 31.0014 31.3153 31 31.7895V79.2105C31.0014 79.6847 31.1904 80.139 31.5257 80.4743C31.861 80.8096 32.3153 80.9986 32.7895 81H80.2105C80.6847 80.9986 81.139 80.8096 81.4743 80.4743C81.8096 80.139 81.9986 79.6847 82 79.2105V31.7895C81.9986 31.3153 81.8096 30.861 81.4743 30.5257C81.139 30.1904 80.6847 30.0014 80.2105 30ZM80.2105 79.2105H32.7895V39.9942H80.2105V79.2105ZM80.2105 38.2047H32.7895V31.7895H80.2105V38.2047Z" fill="black"/>
<path d="M78.1612 35.735C78.3267 35.9038 78.4186 36.1313 78.4169 36.3676C78.4153 36.604 78.3201 36.8301 78.1523 36.9966C78.0709 37.0801 77.9735 37.1461 77.8658 37.1907C77.7581 37.2353 77.6425 37.2576 77.5259 37.2561C77.4074 37.2568 77.2899 37.2334 77.1807 37.1872C77.0715 37.1411 76.9728 37.0732 76.8907 36.9876L76.1838 36.2718L75.477 36.9876C75.3949 37.0732 75.2962 37.1411 75.187 37.1872C75.0778 37.2334 74.9603 37.2568 74.8417 37.2561C74.7252 37.2576 74.6096 37.2353 74.5019 37.1907C74.3942 37.1461 74.2968 37.0801 74.2154 36.9966C74.0476 36.8301 73.9524 36.604 73.9508 36.3676C73.9491 36.1313 74.041 35.9038 74.2065 35.735L74.9312 34.9924L74.2065 34.2587C74.04 34.0886 73.9476 33.8596 73.9492 33.6216C73.9509 33.3836 74.0466 33.1559 74.2154 32.9882C74.3842 32.8227 74.6117 32.7308 74.8481 32.7324C75.0844 32.7341 75.3105 32.8293 75.477 32.9971L76.1838 33.7218L76.8907 32.9971C77.0571 32.8293 77.2832 32.7341 77.5196 32.7324C77.756 32.7308 77.9834 32.8227 78.1523 32.9882C78.3211 33.1559 78.4168 33.3836 78.4184 33.6216C78.4201 33.8596 78.3277 34.0886 78.1612 34.2587L77.4365 34.9924L78.1612 35.735Z" fill="black"/>
<path d="M72.1575 34.9924C72.1575 35.2297 72.0632 35.4573 71.8954 35.6251C71.7276 35.7929 71.5 35.8871 71.2627 35.8871H67.6838C67.4465 35.8871 67.2189 35.7929 67.0511 35.6251C66.8833 35.4573 66.7891 35.2297 66.7891 34.9924C66.7891 34.7551 66.8833 34.5275 67.0511 34.3597C67.2189 34.1919 67.4465 34.0977 67.6838 34.0977H71.2627C71.5 34.0977 71.7276 34.1919 71.8954 34.3597C72.0632 34.5275 72.1575 34.7551 72.1575 34.9924Z" fill="black"/>
<path d="M45.8957 65.244L49.1436 63.374H64.9536C65.4251 63.3715 65.8868 63.2401 66.289 62.9941C66.6911 62.7481 67.0183 62.3968 67.2352 61.9782L72.3084 52.3956C72.5444 51.9439 72.6509 51.4357 72.6161 50.9273C72.5814 50.4188 72.4068 49.9299 72.1115 49.5145L71.4673 48.6019C71.2292 48.2676 70.9154 47.9944 70.5515 47.8047C70.1876 47.615 69.784 47.5141 69.3736 47.5103H69.3647L48.2757 47.564L48.1415 46.1861C48.0809 45.5058 47.7702 44.8722 47.2694 44.4078C46.7686 43.9433 46.1134 43.6811 45.4305 43.6719H40.3752C40.1379 43.6719 39.9103 43.7661 39.7425 43.9339C39.5747 44.1017 39.4805 44.3293 39.4805 44.5666C39.4805 44.8039 39.5747 45.0315 39.7425 45.1993C39.9103 45.3671 40.1379 45.4613 40.3752 45.4613H45.4305C45.6708 45.4719 45.8988 45.5709 46.0706 45.7394C46.2423 45.9079 46.3458 46.1339 46.361 46.374L47.9536 61.9961L44.9384 63.7408C44.5657 64.0032 44.2621 64.3517 44.0533 64.7568C43.8446 65.1619 43.7369 65.6114 43.7394 66.0671V66.3177C43.7327 67.0171 43.9894 67.6935 44.4586 68.2124C44.9277 68.7313 45.5749 69.0546 46.2715 69.1182C45.8145 69.8045 45.5716 70.611 45.5736 71.4356C45.5541 71.9654 45.6415 72.4937 45.8308 72.989C46.0201 73.4842 46.3072 73.9362 46.6751 74.3179C47.0431 74.6997 47.4842 75.0033 47.9721 75.2107C48.46 75.4181 48.9848 75.525 49.5149 75.525C50.0451 75.525 50.5699 75.4181 51.0578 75.2107C51.5457 75.0033 51.9868 74.6997 52.3547 74.3179C52.7227 73.9362 53.0098 73.4842 53.1991 72.989C53.3883 72.4937 53.4758 71.9654 53.4563 71.4356C53.4557 70.6183 53.2163 69.819 52.7673 69.1361H60.8826C60.4295 69.8171 60.1897 70.6176 60.1936 71.4356C60.1741 71.9654 60.2615 72.4937 60.4508 72.989C60.6401 73.4842 60.9272 73.9362 61.2951 74.3179C61.6631 74.6997 62.1042 75.0033 62.5921 75.2107C63.08 75.4181 63.6048 75.525 64.1349 75.525C64.6651 75.525 65.1899 75.4181 65.6778 75.2107C66.1657 75.0033 66.6068 74.6997 66.9747 74.3179C67.3427 73.9362 67.6298 73.4842 67.8191 72.989C68.0084 72.4937 68.0958 71.9654 68.0763 71.4356C68.0757 70.6183 67.8363 69.819 67.3873 69.1361H69.0068C69.2441 69.1361 69.4717 69.0418 69.6395 68.874C69.8073 68.7062 69.9015 68.4786 69.9015 68.2413C69.9015 68.004 69.8073 67.7765 69.6395 67.6087C69.4717 67.4409 69.2441 67.3466 69.0068 67.3466H46.4684C46.2078 67.3334 45.963 67.2179 45.7871 67.0253C45.6112 66.8326 45.5184 66.5783 45.5289 66.3177V66.0671C45.5274 65.9116 45.5594 65.7576 45.6227 65.6156C45.686 65.4736 45.7791 65.3468 45.8957 65.244ZM65.6605 61.1371C65.5938 61.2684 65.4929 61.3792 65.3685 61.4579C65.2441 61.5366 65.1008 61.5804 64.9536 61.5845H49.7073L48.7857 52.5119L70.2236 52.5029L65.6605 61.1371ZM69.3647 49.2998H69.3736C69.4991 49.3011 69.6224 49.3326 69.733 49.3918C69.8436 49.451 69.9382 49.5361 70.0089 49.6398L70.662 50.5524C70.6889 50.5971 70.7157 50.6508 70.7426 50.7045L48.5978 50.7224L48.4636 49.3535L69.3647 49.2998ZM64.1305 69.1361C64.5931 69.1036 65.0549 69.2111 65.4556 69.4447C65.8563 69.6784 66.1773 70.0272 66.3769 70.4459C66.5765 70.8646 66.6455 71.3336 66.5747 71.792C66.5039 72.2504 66.2968 72.6769 65.9802 73.0159C65.6636 73.3549 65.2523 73.5907 64.7999 73.6926C64.3474 73.7945 63.8747 73.7578 63.4433 73.5873C63.012 73.4167 62.642 73.1203 62.3816 72.7365C62.1211 72.3527 61.9823 71.8994 61.9831 71.4356C61.9647 70.8464 62.1802 70.2738 62.5826 69.843C62.9849 69.4121 63.5414 69.158 64.1305 69.1361ZM49.5105 69.1361C49.9731 69.1036 50.4349 69.2111 50.8356 69.4447C51.2363 69.6784 51.5573 70.0272 51.7569 70.4459C51.9565 70.8646 52.0255 71.3336 51.9547 71.792C51.8839 72.2504 51.6768 72.6769 51.3602 73.0159C51.0436 73.3549 50.6323 73.5907 50.1799 73.6926C49.7274 73.7945 49.2547 73.7578 48.8233 73.5873C48.392 73.4167 48.022 73.1203 47.7616 72.7365C47.5011 72.3527 47.3623 71.8994 47.3631 71.4356C47.3447 70.8464 47.5602 70.2738 47.9626 69.843C48.3649 69.4121 48.9214 69.158 49.5105 69.1361Z" fill="black"/>
</svg>
