<svg width="112" height="112" viewBox="0 0 112 112" fill="none" xmlns="http://www.w3.org/2000/svg">
<circle cx="56" cy="56" r="56" fill="#EDB749"/>
<g clip-path="url(#clip0_8_66145)">
<path d="M55.2863 43.3557V40.0852C54.5102 39.877 53.8022 39.4656 53.2335 38.8926C52.6649 38.3196 52.2559 37.6052 52.0476 36.8215C51.8394 36.0377 51.8393 35.2124 52.0474 34.4286C52.2555 33.6448 52.6644 32.9303 53.2329 32.3572C53.656 31.9282 54.1588 31.5877 54.7124 31.3555C55.2659 31.1232 55.8595 31.0036 56.4589 31.0036C57.0583 31.0036 57.6518 31.1232 58.2054 31.3555C58.759 31.5877 59.2618 31.9282 59.6849 32.3572C60.2635 32.9402 60.6769 33.6692 60.882 34.4684C61.0872 35.2677 61.0767 36.1079 60.8515 36.9016C60.6263 37.6953 60.1947 38.4135 59.6017 38.9814C59.0086 39.5494 58.2758 39.9463 57.4795 40.1309V43.2312L57.4096 43.198C57.2856 43.164 57.1594 43.139 57.0318 43.1233C56.8622 43.1135 56.6921 43.1135 56.5225 43.1233H56.465C56.3276 43.1228 56.1903 43.1325 56.0543 43.1524C55.9599 43.1524 55.8449 43.1939 55.7176 43.2271C55.5776 43.2591 55.4402 43.3021 55.3069 43.3557H55.274H55.2863ZM47.8938 50.6231L56.2186 45.9124L56.3213 45.8709C56.4075 45.8426 56.4976 45.8286 56.5882 45.8294C56.6658 45.8286 56.7432 45.8383 56.8182 45.8584C56.8839 45.8721 56.9456 45.9004 56.9989 45.9414L65.2375 50.76C65.4351 50.8366 65.5975 50.9845 65.6934 51.1751C65.7793 51.3414 65.8217 51.5271 65.8166 51.7146V61.4307C65.8066 61.5901 65.7564 61.7444 65.6709 61.8787C65.5854 62.0131 65.4673 62.1232 65.3279 62.1985L57.0523 67.0586C56.9927 67.0913 56.9292 67.1164 56.8634 67.1333C56.6986 67.183 56.523 67.183 56.3582 67.1333C56.2771 67.1099 56.1997 67.0749 56.1283 67.0296L47.6638 62.0491C47.5282 61.9742 47.4131 61.8663 47.3292 61.7351C47.2453 61.6039 47.1952 61.4536 47.1833 61.2979V51.5279C47.1842 51.3202 47.2532 51.1187 47.3795 50.955C47.5059 50.7913 47.6824 50.6745 47.8815 50.6231H47.8938ZM55.697 64.6555V57.052L49.0314 53.0469V60.7002L55.6888 64.6555H55.697ZM63.9808 53.1631L57.5369 57.0562V64.6638L63.9808 60.8247V53.1631ZM56.5882 47.7967L50.3005 51.5901L56.617 55.4334L62.7446 51.698L56.5882 47.7967ZM57.5411 72.919C58.3507 73.1217 59.0905 73.5436 59.6808 74.1392C60.1053 74.5668 60.4422 75.0749 60.6721 75.6343C60.9019 76.1938 61.0202 76.7936 61.0202 77.3993C61.0202 78.0051 60.9019 78.6049 60.6721 79.1643C60.4422 79.7238 60.1053 80.2318 59.6808 80.6595C59.2577 81.0885 58.7549 81.4289 58.2013 81.6612C57.6477 81.8935 57.0542 82.0131 56.4548 82.0131C55.8554 82.0131 55.2618 81.8935 54.7082 81.6612C54.1547 81.4289 53.6519 81.0885 53.2287 80.6595C52.8042 80.2318 52.4673 79.7238 52.2375 79.1643C52.0076 78.6049 51.8893 78.0051 51.8893 77.3993C51.8893 76.7936 52.0076 76.1938 52.2375 75.6343C52.4673 75.0749 52.8042 74.5668 53.2287 74.1392C53.8145 73.544 54.5502 73.1221 55.3562 72.919V69.6817C55.4448 69.7183 55.5353 69.7502 55.6272 69.7771L55.7833 69.8186C55.8881 69.8495 55.9952 69.8717 56.1036 69.885C56.2747 69.9133 56.4477 69.9285 56.6211 69.9307C56.7945 69.9287 56.9675 69.9134 57.1386 69.885C57.2777 69.8657 57.415 69.8351 57.5493 69.7937V72.919H57.5411ZM58.1325 75.6997C57.6851 75.2531 57.0816 75.0027 56.4527 75.0027C55.8239 75.0027 55.2203 75.2531 54.773 75.6997C54.3308 76.1526 54.0829 76.7631 54.0829 77.3993C54.0829 78.0355 54.3308 78.6461 54.773 79.0989C55.2203 79.5455 55.8239 79.7959 56.4527 79.7959C57.0816 79.7959 57.6851 79.5455 58.1325 79.0989C58.5766 78.6471 58.8259 78.0362 58.8259 77.3993C58.8259 76.7625 58.5766 76.1515 58.1325 75.6997ZM58.1325 33.9053C57.6851 33.4587 57.0816 33.2083 56.4527 33.2083C55.8239 33.2083 55.2203 33.4587 54.773 33.9053C54.3308 34.3581 54.0829 34.9687 54.0829 35.6049C54.0829 36.2411 54.3308 36.8517 54.773 37.3045C55.2209 37.7533 55.826 38.0054 56.4568 38.0059C56.9266 38.0052 57.3857 37.8639 57.7761 37.5998C58.1666 37.3357 58.4708 36.9606 58.6505 36.522C58.8302 36.0833 58.8773 35.6006 58.7858 35.1349C58.6944 34.6692 58.4684 34.2414 58.1366 33.9053H58.1325ZM74.4289 62.3106C75.6399 62.3112 76.801 62.7979 77.657 63.6636C78.0815 64.0912 78.4184 64.5993 78.6482 65.1587C78.8781 65.7182 78.9964 66.318 78.9964 66.9237C78.9964 67.5295 78.8781 68.1293 78.6482 68.6887C78.4184 69.2482 78.0815 69.7563 77.657 70.1839C76.9376 70.9107 75.9986 71.3741 74.989 71.5004C73.9794 71.6266 72.957 71.4087 72.0839 70.881C71.2108 70.3533 70.5371 69.5462 70.1695 68.5876C69.802 67.629 69.7617 66.5738 70.055 65.5894L67.3813 64.0288C67.6131 63.8089 67.8135 63.5575 67.9768 63.2818C68.0544 63.1476 68.1243 63.009 68.1863 62.8667C68.251 62.7331 68.3046 62.5943 68.3465 62.4517C68.3852 62.3278 68.4167 62.2016 68.4409 62.074L71.1721 63.6678L71.1967 63.6387C72.0539 62.7724 73.2166 62.2857 74.4289 62.2857V62.3106ZM76.1086 65.2159C75.7756 64.8811 75.3519 64.6534 74.8909 64.5618C74.43 64.4701 73.9525 64.5184 73.5187 64.7007C73.085 64.8829 72.7143 65.1909 72.4536 65.5858C72.1929 65.9807 72.0537 66.4448 72.0537 66.9196C72.0537 67.3943 72.1929 67.8584 72.4536 68.2533C72.7143 68.6482 73.085 68.9563 73.5187 69.1385C73.9525 69.3208 74.43 69.3691 74.8909 69.2774C75.3519 69.1857 75.7756 68.9581 76.1086 68.6233C76.5528 68.1716 76.8021 67.5606 76.8021 66.9237C76.8021 66.2869 76.5528 65.6759 76.1086 65.2242V65.2159ZM38.571 62.3106C39.7581 62.3102 40.8985 62.7777 41.7498 63.6138L44.5589 61.9536L44.5836 62.0533L44.6493 62.3064C44.6994 62.4737 44.764 62.6362 44.8423 62.792C44.8872 62.9048 44.9422 63.0131 45.0066 63.1157C45.1712 63.3881 45.37 63.6379 45.598 63.8587L45.6226 63.8836L42.9121 65.4649C43.2423 66.4529 43.2318 67.5248 42.882 68.506C42.5323 69.4872 41.8641 70.3197 40.9863 70.868C40.1084 71.4162 39.0727 71.6479 38.0479 71.5252C37.0231 71.4024 36.0697 70.9326 35.3429 70.1922C34.7037 69.5461 34.2683 68.723 34.092 67.827C33.9156 66.9309 34.0061 66.0021 34.3521 65.1581C34.698 64.314 35.2839 63.5925 36.0356 63.085C36.7873 62.5774 37.671 62.3064 38.5751 62.3064L38.571 62.3106ZM40.2507 65.2159C39.8037 64.767 39.1991 64.5151 38.5689 64.5151C37.9388 64.5151 37.3342 64.767 36.8871 65.2159C36.444 65.6681 36.1954 66.2789 36.1954 66.9154C36.1954 67.5519 36.444 68.1627 36.8871 68.615H36.8748C37.3229 69.0619 37.9271 69.3124 38.5566 69.3124C39.1861 69.3124 39.7903 69.0619 40.2384 68.615C40.6828 68.1625 40.9322 67.5509 40.9322 66.9134C40.9322 66.2758 40.6828 65.6642 40.2384 65.2117L40.2507 65.2159ZM74.4289 41.43C75.3338 41.428 76.2189 41.6977 76.9719 42.205C77.7249 42.7122 78.3118 43.4341 78.6581 44.279C79.0044 45.1239 79.0945 46.0537 78.917 46.9505C78.7395 47.8472 78.3023 48.6705 77.6611 49.3157C77.237 49.7445 76.7334 50.0847 76.1792 50.3168C75.6249 50.5488 75.0309 50.6683 74.4309 50.6683C73.831 50.6683 73.237 50.5488 72.6827 50.3168C72.1285 50.0847 71.6249 49.7445 71.2008 49.3157L71.1392 49.2617L68.4245 50.8389C68.349 50.4882 68.2217 50.151 68.0467 49.8387C67.8611 49.4956 67.6227 49.1845 67.3403 48.9173L70.0427 47.3401C69.8092 46.5447 69.7932 45.7003 69.9964 44.8965C70.1996 44.0927 70.6144 43.3595 71.1967 42.7747C71.62 42.3453 72.1231 42.0047 72.6771 41.7725C73.2311 41.5403 73.825 41.4211 74.4248 41.4217L74.4289 41.43ZM76.1086 44.3352C75.6618 43.8876 75.0581 43.6365 74.4289 43.6365C73.7997 43.6365 73.196 43.8876 72.7491 44.3352C72.3026 44.786 72.0514 45.3976 72.0511 46.0354C72.0507 46.6733 72.301 47.2852 72.7471 47.7365C73.1931 48.1878 73.7983 48.4415 74.4295 48.4419C75.0607 48.4423 75.6662 48.1893 76.1127 47.7386C76.3337 47.5154 76.5089 47.2504 76.6285 46.9588C76.748 46.6672 76.8096 46.3546 76.8096 46.039C76.8096 45.7233 76.748 45.4107 76.6285 45.1191C76.5089 44.8275 76.3337 44.5625 76.1127 44.3394L76.1086 44.3352ZM38.571 41.43C39.1717 41.427 39.767 41.5451 40.3219 41.7775C40.8769 42.0098 41.3805 42.3516 41.8032 42.783C42.229 43.2092 42.5667 43.7167 42.7966 44.276C43.0265 44.8354 43.1439 45.4354 43.142 46.041C43.1417 46.4073 43.099 46.7722 43.0147 47.1284L45.7171 48.7886C45.5944 48.8953 45.4804 49.0119 45.3762 49.1372C45.154 49.3939 44.97 49.6819 44.83 49.9922L44.7191 50.2412C44.6698 50.3865 44.6247 50.5276 44.5877 50.6563L42.0044 49.0708C41.9417 49.1481 41.8745 49.2215 41.8032 49.2908C41.3893 49.7568 40.8859 50.1328 40.3237 50.3959C39.7614 50.6591 39.1521 50.8038 38.5327 50.8214C37.9133 50.839 37.2969 50.729 36.7209 50.4982C36.1449 50.2674 35.6215 49.9205 35.1824 49.4787C34.7432 49.037 34.3977 48.5095 34.1667 47.9285C33.9357 47.3474 33.8242 46.725 33.8388 46.099C33.8534 45.473 33.994 44.8566 34.2518 44.2872C34.5097 43.7178 34.8795 43.2075 35.3388 42.7871C35.7621 42.3578 36.2652 42.0172 36.8192 41.785C37.3732 41.5528 37.9671 41.4335 38.5669 41.4341L38.571 41.43ZM40.2507 44.3352C39.8027 43.8884 39.1985 43.6378 38.5689 43.6378C37.9394 43.6378 37.3352 43.8884 36.8871 44.3352H36.8748C36.4326 44.7881 36.1847 45.3986 36.1847 46.0348C36.1847 46.671 36.4326 47.2816 36.8748 47.7344C37.2074 48.0715 37.6315 48.3011 38.0934 48.3942C38.5553 48.4874 39.0342 48.4398 39.4693 48.2575C39.9044 48.0752 40.2762 47.7664 40.5374 47.3704C40.7986 46.9743 40.9376 46.5087 40.9366 46.0327C40.9377 45.7178 40.8773 45.4058 40.7589 45.1145C40.6405 44.8233 40.4664 44.5584 40.2466 44.3352H40.2507Z" fill="black"/>
</g>
<defs>
<clipPath id="clip0_8_66145">
<rect width="45" height="51" fill="white" transform="translate(34 31)"/>
</clipPath>
</defs>
</svg>
