<svg width="112" height="112" viewBox="0 0 112 112" fill="none" xmlns="http://www.w3.org/2000/svg">
<circle cx="56" cy="56" r="56" fill="#EDB749"/>
<path d="M67.3968 30H45.3684C43.9446 30 42.5791 30.5656 41.5724 31.5724C40.5656 32.5791 40 33.9446 40 35.3684V75.6316C40 77.0554 40.5656 78.4209 41.5724 79.4276C42.5791 80.4344 43.9446 81 45.3684 81H67.3968C68.8206 81 70.1861 80.4344 71.1929 79.4276C72.1997 78.4209 72.7653 77.0554 72.7653 75.6316V35.3684C72.7653 33.9446 72.1997 32.5791 71.1929 31.5724C70.1861 30.5656 68.8206 30 67.3968 30ZM62.5116 31.7895L61.7689 34.5542H50.9963L50.2537 31.7895H62.5116ZM70.9758 75.6316C70.9758 76.5808 70.5987 77.4911 69.9275 78.1623C69.2564 78.8335 68.346 79.2105 67.3968 79.2105H45.3684C44.4192 79.2105 43.5089 78.8335 42.8377 78.1623C42.1665 77.4911 41.7895 76.5808 41.7895 75.6316V73.7079H70.9758V75.6316ZM70.9758 71.9184H41.7895V35.3684C41.7895 34.4192 42.1665 33.5089 42.8377 32.8377C43.5089 32.1665 44.4192 31.7895 45.3684 31.7895H48.4016L49.2695 35.0195C49.3708 35.3998 49.5951 35.736 49.9075 35.9755C50.2198 36.2151 50.6027 36.3445 50.9963 36.3437H61.7689C62.1626 36.3445 62.5454 36.2151 62.8578 35.9755C63.1701 35.736 63.3945 35.3998 63.4958 35.0195L64.3637 31.7895H67.3968C68.346 31.7895 69.2564 32.1665 69.9275 32.8377C70.5987 33.5089 70.9758 34.4192 70.9758 35.3684V71.9184Z" fill="black"/>
<path d="M58.4563 75.5654H54.5588C54.3215 75.5654 54.0939 75.6596 53.9261 75.8274C53.7583 75.9952 53.6641 76.2228 53.6641 76.4601C53.6641 76.6974 53.7583 76.925 53.9261 77.0928C54.0939 77.2606 54.3215 77.3548 54.5588 77.3548H58.4563C58.6936 77.3548 58.9212 77.2606 59.0889 77.0928C59.2567 76.925 59.351 76.6974 59.351 76.4601C59.351 76.2228 59.2567 75.9952 59.0889 75.8274C58.9212 75.6596 58.6936 75.5654 58.4563 75.5654Z" fill="black"/>
<path d="M62.4955 50.0242C62.4808 49.7863 62.4189 49.5536 62.3134 49.3398C62.208 49.1259 62.0611 48.9352 61.8812 48.7787C61.7014 48.6222 61.4922 48.503 61.2659 48.428C61.0396 48.3531 60.8006 48.3239 60.5629 48.3421H59.0687V46.5526C59.0687 45.8407 58.7859 45.158 58.2825 44.6546C57.7791 44.1512 57.0964 43.8684 56.3845 43.8684C55.6726 43.8684 54.9898 44.1512 54.4864 44.6546C53.983 45.158 53.7002 45.8407 53.7002 46.5526V48.3421H52.206C51.7396 48.302 51.276 48.4463 50.9147 48.744C50.5534 49.0418 50.3232 49.4692 50.2734 49.9347L49.2266 60.9758C49.2416 61.2144 49.304 61.4477 49.4101 61.662C49.5163 61.8763 49.664 62.0673 49.8447 62.2238C50.0255 62.3804 50.2356 62.4994 50.4628 62.574C50.69 62.6485 50.9298 62.677 51.1681 62.6579H61.6008C61.8453 62.6755 62.0909 62.6433 62.3226 62.5633C62.5543 62.4833 62.7674 62.357 62.9489 62.1922C63.1304 62.0275 63.2766 61.8275 63.3786 61.6046C63.4806 61.3817 63.5363 61.1404 63.5424 60.8953L62.4955 50.0242ZM55.4897 46.5526C55.4897 46.3153 55.584 46.0878 55.7518 45.92C55.9196 45.7522 56.1472 45.6579 56.3845 45.6579C56.6218 45.6579 56.8493 45.7522 57.0171 45.92C57.1849 46.0878 57.2792 46.3153 57.2792 46.5526V48.3421H55.4897V46.5526ZM61.6008 60.8684H51.1681C51.1228 60.8681 51.0777 60.8621 51.0339 60.8505L52.045 50.1584C52.0972 50.1421 52.1514 50.1331 52.206 50.1316H53.7002V52.8158C53.7002 53.0531 53.7945 53.2807 53.9623 53.4485C54.1301 53.6163 54.3577 53.7105 54.595 53.7105C54.8323 53.7105 55.0599 53.6163 55.2277 53.4485C55.3955 53.2807 55.4897 53.0531 55.4897 52.8158V50.1316H57.2792V52.8158C57.2792 53.0531 57.3735 53.2807 57.5413 53.4485C57.7091 53.6163 57.9366 53.7105 58.1739 53.7105C58.4112 53.7105 58.6388 53.6163 58.8066 53.4485C58.9744 53.2807 59.0687 53.0531 59.0687 52.8158V50.1316H60.5629C60.6147 50.1319 60.6661 50.141 60.715 50.1584L61.7439 60.8505C61.6972 60.8626 61.6491 60.8686 61.6008 60.8684Z" fill="black"/>
<path d="M60.5873 42.7142C60.4206 42.8795 60.1957 42.9727 59.9609 42.9737C59.8424 42.9744 59.7249 42.951 59.6157 42.9048C59.5065 42.8587 59.4078 42.7908 59.3257 42.7053L56.4267 39.7616L53.4294 42.7142C53.3485 42.8073 53.2492 42.8826 53.1379 42.9355C53.0265 42.9883 52.9054 43.0176 52.7822 43.0215C52.6589 43.0254 52.5362 43.0037 52.4218 42.9579C52.3073 42.9121 52.2035 42.8432 52.117 42.7554C52.0304 42.6676 51.9629 42.5628 51.9188 42.4477C51.8746 42.3326 51.8547 42.2096 51.8603 42.0865C51.8659 41.9633 51.8969 41.8426 51.9514 41.732C52.0058 41.6214 52.0826 41.5232 52.1767 41.4437L55.8004 37.8647C55.8842 37.7815 55.9836 37.7156 56.093 37.6709C56.2023 37.6263 56.3194 37.6037 56.4375 37.6045C56.5557 37.6054 56.6724 37.6296 56.7812 37.6758C56.8899 37.722 56.9884 37.7892 57.0709 37.8737L60.5962 41.4526C60.6795 41.5355 60.7455 41.6341 60.7903 41.7427C60.835 41.8513 60.8576 41.9678 60.8568 42.0853C60.856 42.2028 60.8317 42.3189 60.7854 42.4269C60.7391 42.5349 60.6718 42.6326 60.5873 42.7142Z" fill="black"/>
<path d="M60.5962 66.8632L57.0709 70.4421C56.9884 70.5266 56.8899 70.5938 56.7812 70.64C56.6724 70.6862 56.5557 70.7104 56.4375 70.7113C56.3194 70.7121 56.2023 70.6895 56.093 70.6449C55.9836 70.6002 55.8842 70.5343 55.8004 70.4511L52.1767 66.8721C52.0826 66.7925 52.0058 66.6944 51.9514 66.5838C51.8969 66.4732 51.8659 66.3525 51.8603 66.2293C51.8547 66.1062 51.8746 65.9832 51.9188 65.8681C51.9629 65.753 52.0304 65.6482 52.117 65.5604C52.2035 65.4726 52.3073 65.4037 52.4218 65.3579C52.5362 65.3121 52.6589 65.2904 52.7822 65.2943C52.9054 65.2982 53.0265 65.3275 53.1379 65.3803C53.2492 65.4332 53.3485 65.5085 53.4294 65.6016L56.4267 68.5542L59.3257 65.6105C59.4052 65.5163 59.5034 65.4396 59.614 65.3852C59.7246 65.3307 59.8453 65.2997 59.9685 65.2941C60.0916 65.2885 60.2146 65.3084 60.3297 65.3526C60.4448 65.3967 60.5496 65.4642 60.6374 65.5508C60.7252 65.6373 60.7941 65.7411 60.8399 65.8556C60.8857 65.97 60.9074 66.0927 60.9035 66.216C60.8996 66.3392 60.8703 66.4603 60.8175 66.5717C60.7646 66.683 60.6893 66.7823 60.5962 66.8632Z" fill="black"/>
</svg>
