<svg width="653" height="876" viewBox="0 0 653 876" fill="none" xmlns="http://www.w3.org/2000/svg">
<path d="M59.5729 326.618C59.4457 333.082 59.3185 339.543 59.1913 346.006C59.1532 348.012 55.9306 348.079 55.9686 346.067C56.0633 341.318 56.1547 336.571 56.2495 331.821C37.1515 357.439 28.6179 388.278 28.6978 419.762C28.7346 434.398 30.2527 449.786 34.6793 463.863C35.2847 465.789 32.1924 466.67 31.5896 464.751C26.7864 449.473 25.3893 432.769 25.481 416.904C25.6591 385.877 34.8032 355.498 53.4607 330.261C48.9681 332.184 44.4743 334.106 39.9815 336.025C38.0824 336.839 37.1952 333.838 39.0658 333.039C45.211 330.41 51.3573 327.781 57.5036 325.154C58.4572 324.748 59.5912 325.695 59.5729 326.618Z" fill="#A7EAE5"/>
</svg>
