<svg width="653" height="876" viewBox="0 0 653 876" fill="none" xmlns="http://www.w3.org/2000/svg">
<g clip-path="url(#clip0_2006_843)">
<path d="M189.264 110.562C188.099 107.348 186.984 105.099 185.526 102.876L148.078 116.443L153.334 130.949L175.315 122.985C176.178 126.751 175.752 133.046 171.755 138.621L171.857 139.134L186.954 143.833L187.803 143.616C192.867 134.068 193.575 122.462 189.264 110.562Z" fill="#4285F4"/>
<path d="M164.818 162.655C175.587 158.753 183.369 152.003 187.801 143.617L171.753 138.622C169.219 142.144 165.281 145.389 159.342 147.54C148.795 151.362 137.372 147.786 130.767 139.518L130.313 139.726L121.384 153.525L121.382 154.022C132.567 164.414 149.219 168.307 164.818 162.655Z" fill="#34A853"/>
<path d="M130.768 139.519C129.044 137.392 127.613 134.962 126.637 132.27C125.662 129.577 125.205 126.794 125.122 124.073L124.911 123.563L109.008 118.592L108.669 118.93C107.885 125.208 108.49 131.72 110.772 138.018C113.053 144.315 116.76 149.703 121.383 154.022L130.768 139.519Z" fill="#FBBC05"/>
<path d="M141.971 99.593C149.46 96.8795 155.661 98.2196 159.502 99.8254L166.856 84.9761C157.661 81.1833 147.264 80.5774 136.495 84.4791C120.895 90.131 110.601 103.785 108.668 118.93L125.12 124.073C124.941 113.477 131.423 103.414 141.971 99.593Z" fill="#EB4335"/>
</g>
<defs>
<clipPath id="clip0_2006_843">
<rect width="95.0272" height="95.0272" fill="white" transform="translate(89 95.3695) rotate(-19.9155)"/>
</clipPath>
</defs>
</svg>
