<svg width="653" height="876" viewBox="0 0 653 876" fill="none" xmlns="http://www.w3.org/2000/svg">
<path d="M511.329 85.1274C514.412 89.2029 513.522 94.8941 509.343 97.8384C505.162 100.784 499.274 99.8664 496.192 95.7909C493.108 91.7141 493.998 86.0229 498.179 83.0777C502.359 80.1347 508.247 81.0519 511.329 85.1274Z" fill="#11C4DA"/>
<path d="M450.579 101.006L461.564 115.532L466.179 121.633L477.163 136.157L531.177 124.319L507.258 92.6934L502.644 86.5922L478.724 54.9649L450.579 101.006Z" fill="#FFD45E"/>
<path d="M450.417 101.172L435.426 111.734L461.987 146.86L476.978 136.298L450.417 101.172Z" fill="#11C4DA"/>
<path d="M443.896 123.11L435.395 129.099L444.858 141.612L453.36 135.623L443.896 123.11Z" fill="#FFD45E"/>
<path d="M492.679 156.007L485.797 160.855L465.754 143.855L472.635 139.008L492.679 156.007Z" fill="#FFD45E"/>
</svg>
