<svg width="653" height="876" viewBox="0 0 653 876" fill="none" xmlns="http://www.w3.org/2000/svg">
<path d="M616.711 337.166C612.336 343.317 607.963 349.465 603.587 355.616C602.228 357.523 605.207 359.68 606.571 357.766C609.784 353.246 613 348.73 616.213 344.21C616.328 380.669 602.894 415.166 580.926 444.671C570.714 458.387 558.588 471.847 544.643 482.187C542.735 483.601 545.026 486.438 546.927 485.027C562.06 473.805 574.987 459.032 585.934 444.078C607.342 414.834 619.883 380.373 619.916 344.558C622.797 349.282 625.679 354.006 628.562 358.727C629.779 360.725 632.699 358.485 631.499 356.518C627.557 350.058 623.616 343.596 619.672 337.136C619.06 336.135 617.336 336.287 616.711 337.166Z" fill="#A7EAE5"/>
</svg>
