<svg width="24" height="24" viewBox="0 0 24 24" fill="none" xmlns="http://www.w3.org/2000/svg">
<path d="M23.0607 13.0607C23.6464 12.4749 23.6464 11.5251 23.0607 10.9393L13.5147 1.3934C12.9289 0.807611 11.9792 0.807611 11.3934 1.3934C10.8076 1.97919 10.8076 2.92893 11.3934 3.51472L19.8787 12L11.3934 20.4853C10.8076 21.0711 10.8076 22.0208 11.3934 22.6066C11.9792 23.1924 12.9289 23.1924 13.5147 22.6066L23.0607 13.0607ZM0 12V13.5H0.5V12V10.5H0V12ZM1.5 12V13.5H2.5V12V10.5H1.5V12ZM3.5 12V13.5H4.5V12V10.5H3.5V12ZM5.5 12V13.5H6.5V12V10.5H5.5V12ZM7.5 12V13.5H8.5V12V10.5H7.5V12ZM9.5 12V13.5H10.5V12V10.5H9.5V12ZM11.5 12V13.5H12.5V12V10.5H11.5V12ZM13.5 12V13.5H14.5V12V10.5H13.5V12ZM15.5 12V13.5H16.5V12V10.5H15.5V12ZM17.5 12V13.5H18.5V12V10.5H17.5V12ZM19.5 12V13.5H20.5V12V10.5H19.5V12ZM21.5 12V13.5H22V12V10.5H21.5V12ZM23.0607 13.0607C23.6464 12.4749 23.6464 11.5251 23.0607 10.9393L13.5147 1.3934C12.9289 0.807611 11.9792 0.807611 11.3934 1.3934C10.8076 1.97919 10.8076 2.92893 11.3934 3.51472L19.8787 12L11.3934 20.4853C10.8076 21.0711 10.8076 22.0208 11.3934 22.6066C11.9792 23.1924 12.9289 23.1924 13.5147 22.6066L23.0607 13.0607ZM0 12V13.5H0.5V12V10.5H0V12ZM1.5 12V13.5H2.5V12V10.5H1.5V12ZM3.5 12V13.5H4.5V12V10.5H3.5V12ZM5.5 12V13.5H6.5V12V10.5H5.5V12ZM7.5 12V13.5H8.5V12V10.5H7.5V12ZM9.5 12V13.5H10.5V12V10.5H9.5V12ZM11.5 12V13.5H12.5V12V10.5H11.5V12ZM13.5 12V13.5H14.5V12V10.5H13.5V12ZM15.5 12V13.5H16.5V12V10.5H15.5V12ZM17.5 12V13.5H18.5V12V10.5H17.5V12ZM19.5 12V13.5H20.5V12V10.5H19.5V12ZM21.5 12V13.5H22V12V10.5H21.5V12Z" fill="white"/>
</svg>
