<svg width="65" height="66" viewBox="0 0 65 66" fill="none" xmlns="http://www.w3.org/2000/svg">
<path fill-rule="evenodd" clip-rule="evenodd" d="M32.5 49.031C41.4746 49.031 48.75 41.7556 48.75 32.781C48.75 23.8064 41.4746 16.531 32.5 16.531C23.5254 16.531 16.25 23.8064 16.25 32.781C16.25 41.7556 23.5254 49.031 32.5 49.031ZM32.5 43.6143C38.483 43.6143 43.3333 38.764 43.3333 32.781C43.3333 26.7979 38.483 21.9477 32.5 21.9477C26.5169 21.9477 21.6667 26.7979 21.6667 32.781C21.6667 38.764 26.5169 43.6143 32.5 43.6143Z" fill="black"/>
<path d="M48.7493 13.8228C47.2535 13.8228 46.041 15.0353 46.041 16.5311C46.041 18.0268 47.2535 19.2394 48.7493 19.2394C50.2452 19.2394 51.4577 18.0268 51.4577 16.5311C51.4577 15.0353 50.2452 13.8228 48.7493 13.8228Z" fill="black"/>
<path fill-rule="evenodd" clip-rule="evenodd" d="M4.48013 11.8619C2.70898 15.338 2.70898 19.8884 2.70898 28.9893V36.5726C2.70898 45.6734 2.70898 50.2239 4.48013 53.6998C6.03807 56.7575 8.52399 59.2435 11.5816 60.8013C15.0577 62.5726 19.6081 62.5726 28.709 62.5726H36.2923C45.3931 62.5726 49.9437 62.5726 53.4195 60.8013C56.4773 59.2435 58.9632 56.7575 60.5211 53.6998C62.2923 50.2239 62.2923 45.6734 62.2923 36.5726V28.9893C62.2923 19.8884 62.2923 15.338 60.5211 11.8619C58.9632 8.80427 56.4773 6.31834 53.4195 4.7604C49.9437 2.98926 45.3931 2.98926 36.2923 2.98926H28.709C19.6081 2.98926 15.0577 2.98926 11.5816 4.7604C8.52399 6.31834 6.03807 8.80427 4.48013 11.8619ZM36.2923 8.40592H28.709C24.0692 8.40592 20.9151 8.41015 18.4771 8.60932C16.1023 8.80335 14.8879 9.15502 14.0408 9.58668C12.0023 10.6253 10.345 12.2826 9.3064 14.321C8.87475 15.1682 8.52307 16.3826 8.32905 18.7574C8.12988 21.1954 8.12565 24.3495 8.12565 28.9893V36.5726C8.12565 41.2125 8.12988 44.3664 8.32905 46.8044C8.52307 49.1793 8.87475 50.3938 9.3064 51.2409C10.345 53.2792 12.0023 54.9364 14.0408 55.9751C14.8879 56.4068 16.1023 56.7586 18.4771 56.9525C20.9151 57.1516 24.0692 57.1559 28.709 57.1559H36.2923C40.9322 57.1559 44.0861 57.1516 46.5241 56.9525C48.8991 56.7586 50.1135 56.4068 50.9607 55.9751C52.9989 54.9364 54.6562 53.2792 55.6948 51.2409C56.1265 50.3938 56.4783 49.1793 56.6723 46.8044C56.8713 44.3664 56.8757 41.2125 56.8757 36.5726V28.9893C56.8757 24.3495 56.8713 21.1954 56.6723 18.7574C56.4783 16.3826 56.1265 15.1682 55.6948 14.321C54.6562 12.2826 52.9989 10.6253 50.9607 9.58668C50.1135 9.15502 48.8991 8.80335 46.5241 8.60932C44.0861 8.41015 40.9322 8.40592 36.2923 8.40592Z" fill="black"/>
</svg>
