<svg width="44" height="56" viewBox="0 0 44 56" fill="none" xmlns="http://www.w3.org/2000/svg">
<path d="M37.9949 9.85287C32.341 0.439853 19.9316 -2.74866 10.1938 2.56485C0.454553 8.03154 -2.84397 20.0271 2.65427 29.4394C8.30888 38.8538 20.7176 42.0416 30.4547 36.5749C40.1946 31.4133 43.6502 19.2672 37.9949 9.85287ZM5.63865 27.9218C0.926472 20.0278 3.75378 10.0054 11.9216 5.45172C20.0893 0.895354 30.4575 3.62972 35.1683 11.5251C39.8805 19.4191 37.0532 29.4408 28.8847 33.9944C20.7169 38.5501 10.3508 35.8171 5.63865 27.9218ZM42.4497 46.8718L33.7455 51.7332L26.9872 40.4264L35.6914 35.565L42.4497 46.8718ZM41.4498 55.1C39.0944 56.4651 35.953 55.5548 34.5393 53.2773L43.3354 48.4186C44.7497 50.848 43.8073 53.7321 41.4498 55.1ZM26.0574 15.6226H29.9856L26.0574 27.9211H22.2876L21.0311 23.6704C20.7169 22.4557 20.5598 21.3922 20.2457 19.8725C20.0886 21.3916 19.7745 22.4557 19.4603 23.6704L18.2038 27.9211H14.434L10.8227 15.6226H14.9052L15.8491 20.6331C16.1618 22.0016 16.4774 23.3661 16.6344 24.7326C16.7915 23.3661 17.2627 21.8477 17.4184 20.6331L18.8334 15.6226H21.9742L23.2308 20.6331C23.5456 22.0016 23.8591 23.3661 24.176 24.7326C24.4874 23.2163 24.6472 21.8484 24.9586 20.4819L26.0574 15.6226Z" fill="black"/>
</svg>
