<svg width="50" height="318" viewBox="0 0 50 318" fill="none" xmlns="http://www.w3.org/2000/svg">
<path d="M27.2495 271.472H27.241C27.0052 271.428 26.82 270.434 26.8284 269.224C27.1821 195.976 27.4179 117.759 27.6116 15.73L27.561 2.20392C27.5526 0.993927 27.7463 0 27.9737 0C28.2095 0 28.4032 0.950712 28.4032 2.1175L28.4537 15.73C28.26 117.888 28.0158 196.063 27.6705 269.354C27.6705 270.521 27.4768 271.472 27.2495 271.472Z" fill="white" fill-opacity="0.16"/>
<path d="M23.8047 270.055C23.859 267.839 23.9241 265.633 23.9784 263.416C24.0002 262.699 24.0219 261.949 24.3911 261.33C25.021 260.243 26.4435 259.961 27.6815 260.026C28.3114 260.059 28.9738 260.167 29.495 260.537C29.9511 260.852 30.2661 261.341 30.4832 261.862C30.885 262.84 30.9285 263.916 30.9719 264.959C31.0262 266.535 31.0805 268.11 31.1131 269.697C31.1131 269.936 31.1022 270.207 30.9176 270.349C30.7873 270.446 30.6244 270.436 30.4615 270.436C28.2679 270.36 26.0852 270.283 23.8047 270.055Z" fill="white" fill-opacity="0.1"/>
<path d="M30.5262 270.979C30.4828 270.979 30.4502 270.979 30.4176 270.979C28.2675 270.914 26.0521 270.838 23.7391 270.609C23.4567 270.577 23.2395 270.338 23.2504 270.055L23.4241 263.416C23.4459 262.71 23.4676 261.819 23.902 261.069C24.5427 259.972 25.9218 259.396 27.6919 259.494C28.2675 259.526 29.1037 259.624 29.7878 260.102C30.2873 260.45 30.6783 260.971 30.9606 261.667C31.4058 262.753 31.4493 263.981 31.4927 264.959C31.547 266.524 31.6013 268.121 31.6339 269.697C31.6339 269.936 31.6448 270.479 31.2104 270.805C30.9823 270.957 30.7108 270.979 30.5262 270.979ZM24.3581 269.555C26.454 269.74 28.4847 269.805 30.4502 269.871C30.4719 269.871 30.5045 269.871 30.5371 269.871C30.5371 269.838 30.548 269.773 30.5371 269.686C30.5045 268.11 30.4611 266.524 30.4068 264.959C30.3742 264.025 30.3308 262.96 29.9616 262.047C29.7661 261.558 29.4946 261.189 29.1688 260.971C28.8213 260.721 28.3435 260.602 27.6376 260.558C26.9969 260.526 25.4549 260.558 24.8467 261.591C24.5427 262.101 24.5318 262.797 24.5101 263.416L24.3581 269.555Z" fill="white" fill-opacity="0.16"/>
<path d="M17.2467 306.076C16.8341 307.673 17.2033 309.379 17.7571 310.944C18.4196 312.824 19.3969 314.693 21.015 315.834C23.6321 317.67 27.4655 316.996 29.6591 314.703C31.8527 312.411 32.4825 308.858 31.7332 305.717C27.0202 305.663 22.3072 305.598 17.2467 306.076Z" fill="white" fill-opacity="0.16"/>
<path d="M24.5222 317.442C23.1539 317.442 21.8182 317.061 20.6996 316.279C19.2228 315.247 18.0825 313.552 17.2355 311.129C16.5079 309.042 16.345 307.402 16.7142 305.946C16.7685 305.717 16.964 305.554 17.1921 305.533C22.2851 305.055 27.085 305.12 31.7329 305.174C31.9826 305.174 32.1998 305.348 32.2541 305.598C33.1012 309.14 32.2541 312.78 30.0497 315.084C28.5728 316.627 26.5203 317.442 24.5222 317.442ZM17.6916 306.587C17.4961 307.738 17.6807 309.086 18.2671 310.77C19.0382 312.976 20.0372 314.486 21.3186 315.388C23.61 316.985 27.1719 316.518 29.2569 314.323C31.1247 312.367 31.8849 309.314 31.2876 306.261C26.9221 306.206 22.4154 306.163 17.6916 306.587Z" fill="white" fill-opacity="0.16"/>
<path d="M49.3276 309.466C32.8863 309.303 16.4343 309.129 0.546875 308.314C1.54594 300.219 4.26083 292.493 11.2217 288.419C13.6543 286.995 12.2317 287.984 17.2053 284.583C21.3971 281.714 17.0098 273.358 20.5066 269.642C22.5807 267.437 25.806 267.306 28.7923 267.589C32.3977 267.936 36.1225 270.055 36.4482 273.087C36.9695 277.9 34.6999 281.204 37.5016 285.126C38.4681 286.485 41.9974 289.701 43.2897 290.733C48.3828 294.775 49.838 303.425 49.3276 309.466Z" fill="white" fill-opacity="0.1"/>
<path d="M49.3291 310.02C33.1486 309.857 16.4358 309.683 0.515876 308.868C0.363843 308.858 0.222686 308.792 0.124951 308.673C0.0272159 308.553 -0.0162391 308.401 0.00547977 308.249C1.24346 298.176 4.81623 291.537 10.941 287.951C11.5165 287.615 11.8857 287.408 12.1681 287.245C13.0477 286.756 13.1237 286.713 16.9028 284.127C18.8358 282.812 18.7055 280.03 18.5643 277.086C18.4231 274.195 18.282 271.207 20.1172 269.262C22.452 266.774 26.0139 266.774 28.8482 267.045C32.5187 267.393 36.6236 269.61 36.9928 273.033C37.1883 274.858 37.0037 276.499 36.8299 277.944C36.5476 280.389 36.2978 282.497 37.9484 284.811C38.8389 286.061 42.2705 289.223 43.6388 290.309C48.7319 294.341 50.4477 302.86 49.8938 309.509C49.8504 309.803 49.6115 310.02 49.3291 310.02ZM1.16745 307.804C16.7182 308.586 33.0291 308.76 48.8296 308.912C49.2206 302.816 47.5808 294.83 42.9547 291.168C41.7492 290.212 38.0896 286.897 37.058 285.452C35.1576 282.801 35.4399 280.378 35.744 277.814C35.9177 276.358 36.0914 274.858 35.9068 273.152C35.6136 270.414 32.03 268.447 28.7396 268.143C26.1442 267.893 22.9081 267.882 20.9099 270.023C19.4005 271.631 19.5308 274.391 19.6611 277.053C19.8131 280.161 19.9652 283.388 17.5218 285.05C13.7101 287.658 13.6341 287.702 12.7111 288.212C12.4287 288.364 12.0812 288.571 11.5057 288.908C5.80446 292.233 2.41629 298.426 1.16745 307.804Z" fill="white" fill-opacity="0.16"/>
<path d="M47.8057 307.152L3.20593 305.522C3.10819 305.522 3.02131 305.435 3.03217 305.337C3.03217 305.239 3.12992 305.163 3.2168 305.163L47.8057 306.793C47.9035 306.793 47.9903 306.88 47.9795 306.978C47.9795 307.076 47.9035 307.152 47.8057 307.152Z" fill="white" fill-opacity="0.16"/>
<path d="M47.5484 304.957H47.5376C33.0728 303.946 18.3799 303.273 3.89343 302.957C3.79569 302.957 3.70881 302.871 3.71967 302.773C3.71967 302.675 3.80656 302.61 3.9043 302.599C18.4017 302.914 33.0945 303.588 47.5702 304.598C47.6679 304.609 47.7439 304.696 47.7439 304.794C47.7222 304.892 47.6462 304.957 47.5484 304.957Z" fill="white" fill-opacity="0.16"/>
<g opacity="0.1294">
<path d="M31.2649 309.51C30.6024 309.184 29.8206 309.401 29.1147 309.281C27.2577 309.281 25.4116 309.184 23.5547 309.151C21.4262 309.129 21.1873 309.097 19.3412 308.803C18.6896 308.716 17.9946 308.401 17.3865 308.792C16.3005 309.39 16.5286 311.183 17.734 311.476C20.8832 312.03 24.0976 311.987 27.2795 311.824C28.3111 311.824 29.3428 311.9 30.3744 311.781C30.7762 311.857 31.2106 311.759 31.5038 311.444C32.0685 310.9 31.9273 309.901 31.2649 309.51Z" fill="white" fill-opacity="0.16"/>
</g>
</svg>
