<svg width="38" height="231" viewBox="0 0 38 231" fill="none" xmlns="http://www.w3.org/2000/svg">
<g opacity="0.9" clip-path="url(#clip0_1325_12677)">
<path d="M20.6341 197.17H20.628C20.4568 197.139 20.3222 196.417 20.3283 195.538C20.5852 142.338 20.7565 85.5283 20.8971 11.4247L20.8604 1.60071C20.8543 0.721891 20.995 0 21.1601 0C21.3314 0 21.4721 0.690504 21.4721 1.53794L21.5088 11.4247C21.3681 85.6225 21.1907 142.401 20.94 195.632C20.94 196.48 20.7993 197.17 20.6341 197.17Z" fill="white"/>
<path d="M18.1328 196.142C18.1722 194.532 18.2196 192.93 18.259 191.32C18.2748 190.799 18.2906 190.254 18.5587 189.804C19.0162 189.015 20.0494 188.81 20.9486 188.857C21.406 188.881 21.8871 188.96 22.2657 189.228C22.597 189.457 22.8257 189.812 22.9835 190.191C23.2753 190.901 23.3068 191.683 23.3384 192.44C23.3778 193.585 23.4173 194.729 23.4409 195.881C23.4409 196.055 23.433 196.252 23.2989 196.355C23.2043 196.426 23.086 196.418 22.9677 196.418C21.3745 196.363 19.7891 196.307 18.1328 196.142Z" fill="white" fill-opacity="0.2"/>
<path d="M23.0191 196.812C22.9876 196.812 22.9639 196.812 22.9402 196.812C21.3786 196.765 19.7696 196.71 18.0896 196.544C17.8845 196.52 17.7268 196.347 17.7347 196.142L17.8609 191.32C17.8766 190.807 17.8924 190.16 18.2079 189.615C18.6732 188.818 19.6749 188.4 20.9605 188.471C21.3786 188.494 21.9859 188.565 22.4828 188.913C22.8456 189.165 23.1295 189.544 23.3346 190.049C23.658 190.838 23.6895 191.73 23.7211 192.44C23.7605 193.577 23.7999 194.737 23.8236 195.881C23.8236 196.055 23.8315 196.449 23.516 196.686C23.3504 196.797 23.1532 196.812 23.0191 196.812ZM18.5392 195.779C20.0614 195.913 21.5363 195.96 22.9639 196.007C22.9797 196.007 23.0034 196.007 23.027 196.007C23.027 195.984 23.0349 195.936 23.027 195.873C23.0034 194.729 22.9718 193.577 22.9323 192.44C22.9087 191.762 22.8772 190.988 22.609 190.325C22.467 189.97 22.2698 189.702 22.0332 189.544C21.7808 189.362 21.4338 189.276 20.9211 189.244C20.4558 189.22 19.3358 189.244 18.8941 189.994C18.6732 190.365 18.6654 190.87 18.6496 191.32L18.5392 195.779Z" fill="white"/>
<path d="M13.3703 222.303C13.0706 223.464 13.3388 224.703 13.741 225.839C14.2221 227.204 14.932 228.562 16.1072 229.39C18.008 230.724 20.7922 230.235 22.3854 228.57C23.9787 226.904 24.4361 224.324 23.8919 222.043C20.4688 222.004 17.0458 221.956 13.3703 222.303Z" fill="white"/>
<path d="M18.6533 230.558C17.6595 230.558 16.6893 230.282 15.8769 229.714C14.8043 228.964 13.9761 227.733 13.3609 225.973C12.8325 224.458 12.7142 223.266 12.9823 222.209C13.0218 222.043 13.1637 221.925 13.3294 221.909C17.0285 221.562 20.5146 221.609 23.8904 221.648C24.0718 221.648 24.2295 221.775 24.269 221.956C24.8842 224.529 24.269 227.173 22.6679 228.846C21.5952 229.967 20.1045 230.558 18.6533 230.558ZM13.6922 222.674C13.5502 223.511 13.6843 224.489 14.1102 225.713C14.6702 227.315 15.3958 228.412 16.3265 229.067C17.9907 230.227 20.5777 229.888 22.0921 228.293C23.4487 226.873 24.0008 224.655 23.567 222.438C20.3963 222.398 17.1231 222.367 13.6922 222.674Z" fill="white"/>
<path d="M36.6717 224.766C24.7304 224.647 12.7812 224.521 1.24219 223.929C1.96781 218.05 3.93964 212.439 8.99536 209.479C10.7621 208.445 9.72888 209.163 13.3412 206.693C16.3857 204.61 13.1992 198.541 15.7389 195.842C17.2454 194.24 19.5879 194.145 21.7569 194.35C24.3755 194.603 27.0808 196.142 27.3174 198.344C27.696 201.84 26.0476 204.239 28.0825 207.088C28.7844 208.074 31.3478 210.41 32.2864 211.16C35.9855 214.096 37.0424 220.378 36.6717 224.766Z" fill="white" fill-opacity="0.2"/>
<path d="M36.6716 225.168C24.9196 225.05 12.7811 224.924 1.21843 224.332C1.10801 224.324 1.00549 224.276 0.934502 224.19C0.863517 224.103 0.831955 223.992 0.84773 223.882C1.74688 216.566 4.34178 211.744 8.79019 209.14C9.20821 208.895 9.47638 208.745 9.68145 208.627C10.3203 208.272 10.3755 208.24 13.1203 206.362C14.5242 205.407 14.4296 203.386 14.327 201.248C14.2245 199.148 14.122 196.978 15.4549 195.566C17.1507 193.758 19.7377 193.758 21.7962 193.956C24.4621 194.208 27.4435 195.818 27.7117 198.304C27.8536 199.63 27.7196 200.822 27.5934 201.871C27.3883 203.647 27.2069 205.178 28.4057 206.859C29.0525 207.766 31.5449 210.063 32.5387 210.852C36.2378 213.78 37.484 219.967 37.0817 224.797C37.0502 225.01 36.8767 225.168 36.6716 225.168ZM1.69167 223.558C12.9862 224.126 24.8328 224.253 36.3088 224.363C36.5927 219.936 35.4017 214.135 32.0418 211.476C31.1663 210.781 28.5083 208.374 27.759 207.325C26.3787 205.399 26.5838 203.639 26.8046 201.776C26.9308 200.719 27.057 199.63 26.9229 198.391C26.71 196.402 24.1072 194.974 21.7174 194.753C19.8323 194.571 17.4819 194.563 16.0307 196.118C14.9343 197.286 15.029 199.291 15.1236 201.224C15.2341 203.481 15.3445 205.825 13.5699 207.033C10.8014 208.927 10.7462 208.958 10.0758 209.329C9.87074 209.44 9.61836 209.59 9.20034 209.834C5.05954 212.249 2.5987 216.748 1.69167 223.558Z" fill="white"/>
<path d="M35.5666 223.085L3.17374 221.901C3.10276 221.901 3.03966 221.838 3.04754 221.767C3.04754 221.696 3.11854 221.641 3.18164 221.641L35.5666 222.824C35.6376 222.824 35.7007 222.887 35.6928 222.958C35.6928 223.029 35.6376 223.085 35.5666 223.085Z" fill="white"/>
<path d="M35.3804 221.491H35.3726C24.8668 220.757 14.1953 220.267 3.67374 220.038C3.60276 220.038 3.53966 219.975 3.54754 219.904C3.54754 219.833 3.61065 219.786 3.68164 219.778C14.2111 220.007 24.8825 220.496 35.3962 221.23C35.4672 221.238 35.5224 221.301 35.5224 221.372C35.5066 221.443 35.4514 221.491 35.3804 221.491Z" fill="white"/>
<g opacity="0.1294">
<path d="M23.5485 224.797C23.0674 224.561 22.4995 224.718 21.9868 224.632C20.6381 224.632 19.2973 224.561 17.9486 224.537C16.4027 224.521 16.2291 224.497 14.8883 224.284C14.4151 224.221 13.9103 223.992 13.4686 224.276C12.6799 224.71 12.8455 226.013 13.721 226.226C16.0083 226.628 18.3429 226.597 20.6539 226.478C21.4032 226.478 22.1525 226.534 22.9018 226.447C23.1936 226.502 23.5091 226.431 23.722 226.202C24.1321 225.807 24.0296 225.081 23.5485 224.797Z" fill="white"/>
</g>
</g>
<defs>
<clipPath id="clip0_1325_12677">
<rect width="38" height="231" fill="white"/>
</clipPath>
</defs>
</svg>
