<svg width="196" height="42" viewBox="0 0 196 42" fill="none" xmlns="http://www.w3.org/2000/svg">
<path d="M60.8474 32V11H65.7074V28.04H76.2374V32H60.8474ZM78.6229 32V15.86H83.3029V32H78.6229ZM80.9629 13.61C80.1029 13.61 79.4029 13.36 78.8629 12.86C78.3229 12.36 78.0529 11.74 78.0529 11C78.0529 10.26 78.3229 9.64 78.8629 9.14C79.4029 8.64 80.1029 8.39 80.9629 8.39C81.8229 8.39 82.5229 8.63 83.0629 9.11C83.6029 9.57 83.8729 10.17 83.8729 10.91C83.8729 11.69 83.6029 12.34 83.0629 12.86C82.5429 13.36 81.8429 13.61 80.9629 13.61ZM97.4563 15.62C98.7363 15.62 99.8763 15.88 100.876 16.4C101.896 16.9 102.696 17.68 103.276 18.74C103.856 19.78 104.146 21.12 104.146 22.76V32H99.4663V23.48C99.4663 22.18 99.1763 21.22 98.5963 20.6C98.0363 19.98 97.2363 19.67 96.1963 19.67C95.4563 19.67 94.7863 19.83 94.1863 20.15C93.6063 20.45 93.1463 20.92 92.8063 21.56C92.4863 22.2 92.3263 23.02 92.3263 24.02V32H87.6463V15.86H92.1163V20.33L91.2763 18.98C91.8563 17.9 92.6863 17.07 93.7663 16.49C94.8463 15.91 96.0763 15.62 97.4563 15.62ZM112.259 28.7L112.379 23L119.909 15.86H125.489L118.259 23.21L115.829 25.19L112.259 28.7ZM108.389 32V9.74H113.069V32H108.389ZM120.419 32L114.959 25.22L117.899 21.59L126.089 32H120.419ZM135.529 32.24C133.689 32.24 132.069 31.88 130.669 31.16C129.289 30.44 128.219 29.46 127.459 28.22C126.699 26.96 126.319 25.53 126.319 23.93C126.319 22.31 126.689 20.88 127.429 19.64C128.189 18.38 129.219 17.4 130.519 16.7C131.819 15.98 133.289 15.62 134.929 15.62C136.509 15.62 137.929 15.96 139.189 16.64C140.469 17.3 141.479 18.26 142.219 19.52C142.959 20.76 143.329 22.25 143.329 23.99C143.329 24.17 143.319 24.38 143.299 24.62C143.279 24.84 143.259 25.05 143.239 25.25H130.129V22.52H140.779L138.979 23.33C138.979 22.49 138.809 21.76 138.469 21.14C138.129 20.52 137.659 20.04 137.059 19.7C136.459 19.34 135.759 19.16 134.959 19.16C134.159 19.16 133.449 19.34 132.829 19.7C132.229 20.04 131.759 20.53 131.419 21.17C131.079 21.79 130.909 22.53 130.909 23.39V24.11C130.909 24.99 131.099 25.77 131.479 26.45C131.879 27.11 132.429 27.62 133.129 27.98C133.849 28.32 134.689 28.49 135.649 28.49C136.509 28.49 137.259 28.36 137.899 28.1C138.559 27.84 139.159 27.45 139.699 26.93L142.189 29.63C141.449 30.47 140.519 31.12 139.399 31.58C138.279 32.02 136.989 32.24 135.529 32.24ZM153.375 32.24C151.855 32.24 150.485 31.9 149.265 31.22C148.045 30.52 147.075 29.55 146.355 28.31C145.655 27.07 145.305 25.61 145.305 23.93C145.305 22.23 145.655 20.76 146.355 19.52C147.075 18.28 148.045 17.32 149.265 16.64C150.485 15.96 151.855 15.62 153.375 15.62C154.735 15.62 155.925 15.92 156.945 16.52C157.965 17.12 158.755 18.03 159.315 19.25C159.875 20.47 160.155 22.03 160.155 23.93C160.155 25.81 159.885 27.37 159.345 28.61C158.805 29.83 158.025 30.74 157.005 31.34C156.005 31.94 154.795 32.24 153.375 32.24ZM154.185 28.4C154.945 28.4 155.635 28.22 156.255 27.86C156.875 27.5 157.365 26.99 157.725 26.33C158.105 25.65 158.295 24.85 158.295 23.93C158.295 22.99 158.105 22.19 157.725 21.53C157.365 20.87 156.875 20.36 156.255 20C155.635 19.64 154.945 19.46 154.185 19.46C153.405 19.46 152.705 19.64 152.085 20C151.465 20.36 150.965 20.87 150.585 21.53C150.225 22.19 150.045 22.99 150.045 23.93C150.045 24.85 150.225 25.65 150.585 26.33C150.965 26.99 151.465 27.5 152.085 27.86C152.705 28.22 153.405 28.4 154.185 28.4ZM158.415 32V28.7L158.505 23.9L158.205 19.13V9.74H162.885V32H158.415ZM167.547 32V11H172.407V32H167.547ZM186.87 15.62C188.15 15.62 189.29 15.88 190.29 16.4C191.31 16.9 192.11 17.68 192.69 18.74C193.27 19.78 193.56 21.12 193.56 22.76V32H188.88V23.48C188.88 22.18 188.59 21.22 188.01 20.6C187.45 19.98 186.65 19.67 185.61 19.67C184.87 19.67 184.2 19.83 183.6 20.15C183.02 20.45 182.56 20.92 182.22 21.56C181.9 22.2 181.74 23.02 181.74 24.02V32H177.06V15.86H181.53V20.33L180.69 18.98C181.27 17.9 182.1 17.07 183.18 16.49C184.26 15.91 185.49 15.62 186.87 15.62Z" fill="white"/>
<path d="M42 36.1667C42 39.389 39.389 42 36.1667 42H5.83333C2.61217 42 0 39.389 0 36.1667V5.83333C0 2.611 2.61217 0 5.83333 0H36.1667C39.389 0 42 2.611 42 5.83333V36.1667Z" fill="white"/>
<path d="M7 15.1667H12.8333V35H7V15.1667ZM9.89917 12.8333H9.8665C8.12583 12.8333 7 11.536 7 9.9155C7 8.26 8.16083 7 9.933 7C11.7075 7 12.8007 8.26 12.8333 9.9155C12.8333 11.5348 11.7075 12.8333 9.89917 12.8333ZM35 35H29.1667V24.3845C29.1667 21.8202 27.7375 20.0702 25.4427 20.0702C23.6915 20.0702 22.7442 21.2508 22.2845 22.3918C22.1165 22.8002 22.1667 23.9295 22.1667 24.5V35H16.3333V15.1667H22.1667V18.2187C23.0078 16.9167 24.325 15.1667 27.6943 15.1667C31.8687 15.1667 34.9988 17.7917 34.9988 23.653L35 35Z" fill="#0077B5"/>
</svg>
