<svg width="51" height="51" viewBox="0 0 51 51" fill="none" xmlns="http://www.w3.org/2000/svg">
<g clip-path="url(#clip0_8_38989)">
<path d="M38.248 11.0342C38.248 11.7798 38.9943 12.5255 40.0375 12.5255C41.528 12.5255 41.9754 11.929 41.9754 11.0342C41.9754 10.8851 41.9754 10.8851 41.9754 10.7367C41.8269 10.2893 41.3789 9.99106 40.9329 9.69282C40.7831 9.69282 40.4855 9.5437 40.1879 9.5437C39.1428 9.54437 38.248 10.1402 38.248 11.0342Z" fill="black"/>
<path d="M41.3798 6.11323C41.2294 5.2185 40.6335 4.4729 39.8886 4.4729C39.1423 4.4729 38.695 5.2185 38.8454 6.11323C38.9959 7.00795 39.5904 7.75356 40.336 7.75356C40.9325 7.75356 41.5283 7.00795 41.3798 6.11323Z" fill="black"/>
<path d="M34.6702 17.2974L37.2053 14.7623C38.6958 15.9553 40.4872 16.7009 42.4251 16.7009C47.0472 16.7009 50.7759 12.9722 50.7759 8.3501C50.7746 3.72736 47.0472 0 42.4245 0C37.8031 0 34.0737 3.72802 34.0737 8.35077C34.0737 10.4385 34.8187 12.2272 36.0123 13.57L33.4766 16.1057C33.9239 16.5524 34.3713 17.0004 34.6702 17.2974ZM43.7666 5.66593H45.4062V4.02626H46.0027V5.66659H47.6437V6.26308H46.0027V7.90407H45.4062V6.26241H43.7666V5.66593ZM40.0385 8.49922C40.0385 8.3501 40.0385 8.20098 40.189 8.05186C40.0385 8.05186 40.0385 8.05186 39.8914 8.05186C38.6978 8.05186 37.8031 7.15714 37.8031 6.11329C37.8031 5.06944 38.9954 4.17472 40.189 4.17472H42.8718L42.2754 4.62208H41.3806C41.9771 4.77187 42.2754 5.51747 42.2754 6.26241C42.2754 6.85889 41.9771 7.30626 41.5291 7.75362C41.0817 8.05186 40.9326 8.20098 40.9326 8.49922C40.9326 8.79747 41.3806 9.24483 41.6782 9.39395C42.4231 9.84131 42.5729 10.4378 42.5729 11.1834C42.5729 12.2266 41.6782 13.122 39.8894 13.122C38.3989 13.122 37.0561 12.5255 37.0561 11.4816C37.0561 10.4378 38.2484 9.54307 39.7396 9.54307C39.8894 9.54307 40.0372 9.54307 40.187 9.54307C40.187 9.09637 40.0385 8.79813 40.0385 8.49922Z" fill="black"/>
<path d="M42.4251 34.2978C40.4872 34.2978 38.5486 35.0428 37.2052 36.2364L34.6708 33.7007C34.3719 34.148 33.9245 34.445 33.627 34.7432L36.1627 37.2789C34.9697 38.7688 34.2241 40.5602 34.2241 42.4988C34.2241 47.1209 37.9535 50.8496 42.5755 50.8496C47.1969 50.8496 50.927 47.1209 50.927 42.4988C50.7752 37.8761 47.0478 34.2978 42.4251 34.2978ZM40.0392 46.3766H38.3988V41.1567H40.0392V46.3766ZM39.2935 40.4125C38.6971 40.4125 38.2504 39.9644 38.2504 39.5164C38.2504 39.069 38.6977 38.6217 39.2935 38.6217C39.8894 38.6217 40.3367 39.069 40.3367 39.5164C40.1876 40.1135 39.89 40.4125 39.2935 40.4125ZM46.7496 46.3766H44.811V43.6931C44.811 42.9482 44.5134 42.5001 43.9156 42.5001C43.4683 42.5001 43.1707 42.7984 43.0209 43.0966C43.0209 43.2477 43.0209 43.3955 43.0209 43.5447V46.3786H41.2315C41.2315 46.3786 41.2315 41.6068 41.2315 41.1587H43.0209V41.9043C43.1707 41.6068 43.7672 41.0096 44.6619 41.0096C45.8542 41.0096 46.7496 41.7545 46.7496 43.3955V46.3766Z" fill="black"/>
<path d="M16.1793 33.702L13.6442 36.2377C12.153 35.0441 10.3636 34.2991 8.42499 34.2991C3.80224 34.2991 0.0742188 38.0285 0.0742188 42.6492C0.0742188 47.272 3.80224 51.0007 8.42499 51.0007C13.0471 51.0007 16.7758 47.272 16.7758 42.6492C16.7758 40.7106 16.0302 38.7727 14.8372 37.43L17.3722 34.8943C16.9249 34.4462 16.4775 33.9982 16.1793 33.702ZM12.0046 41.3065C12.0046 43.8415 10.066 46.6741 6.6362 46.6741C5.59302 46.6741 4.54851 46.3759 3.80291 45.7781C3.95203 45.7781 4.10115 45.7781 4.25027 45.7781C5.14499 45.7781 5.8906 45.4805 6.6362 45.0332C5.8906 45.0332 5.14499 44.4367 4.84675 43.6904C4.99587 43.6904 5.14433 43.6904 5.14433 43.6904C5.29411 43.6904 5.44257 43.6904 5.59236 43.6904C4.69697 43.5399 4.10115 42.7957 4.10115 41.901C4.39939 42.0507 4.69763 42.1985 4.99587 42.1985C4.54851 41.9009 4.10115 41.3038 4.10115 40.7073C4.10115 40.4104 4.25027 40.1108 4.39939 39.8126C5.29411 41.0062 6.63554 41.7512 8.27587 41.7512C8.27587 41.6007 8.27587 41.4536 8.27587 41.3038C8.27587 40.26 9.17126 39.3652 10.2144 39.3652C10.8109 39.3652 11.2583 39.6628 11.5572 39.9617C12.0046 39.8119 12.4519 39.6635 12.7502 39.5143C12.6004 39.9617 12.3021 40.2593 11.8548 40.5569C12.3021 40.5569 12.6004 40.4071 12.8986 40.2593C12.6004 40.7066 12.3021 41.0042 12.0039 41.154C12.0046 41.1567 12.0046 41.1567 12.0046 41.3065Z" fill="black"/>
<path d="M8.42499 16.7015C10.3636 16.7015 12.3015 15.9559 13.6442 14.763L16.1793 17.298C16.4775 16.8507 16.9249 16.5531 17.2231 16.2548L14.6874 13.7198C15.8804 12.2286 16.626 10.4391 16.626 8.50055C16.626 3.8778 12.8979 0.14978 8.2752 0.14978C3.65312 0.14978 0.0742188 3.8778 0.0742188 8.50055C0.0742187 12.9728 3.80224 16.7015 8.42499 16.7015ZM6.48642 7.00801H7.38114V6.11328C7.38114 4.92032 7.8285 4.17471 9.31971 4.17471H10.5127V5.66592H9.76707C9.17059 5.66592 9.17059 5.81504 9.17059 6.2624V7.00801H10.5127L10.3636 8.49922H9.02014V12.6746H7.23069V8.49922H6.33663V7.00801H6.48642Z" fill="black"/>
<path d="M33.0308 29.6744C32.8803 29.3775 32.5828 29.2264 32.4343 29.2264C31.0922 28.779 29.8999 28.4821 28.5578 28.0341C28.4087 28.0341 28.1105 27.7365 28.1105 27.1393C28.1105 26.8404 28.1105 26.6913 27.8129 26.6913C27.6624 26.6913 27.8129 26.6913 27.6624 26.5422C27.514 25.9457 27.514 25.6468 27.514 25.4983C27.514 25.3499 27.6624 25.3486 27.6624 25.2001C28.1105 24.6036 28.2589 23.7096 28.2589 23.4106C28.2589 23.4106 28.4087 23.4106 28.4087 23.2609C28.5578 22.9626 28.5578 22.9626 28.5578 22.5146C28.7083 22.2177 28.7083 21.7703 28.4087 21.7703C28.2589 21.9194 28.2589 21.7703 28.2589 21.4721V19.6826C28.2589 19.0861 27.8109 18.6394 27.514 18.4903C27.0653 18.1914 26.9175 18.0423 26.7677 18.0423C26.6179 17.8932 26.6179 17.7441 26.7677 17.5949C26.9168 17.4465 27.0653 17.4465 27.0653 17.2967C27.0653 17.2967 27.0653 17.2967 26.9155 17.2967C26.7657 17.2967 25.8723 17.4471 25.425 17.5949C24.6794 17.7441 23.9338 18.0423 23.3366 18.4903C22.8892 18.7879 22.591 19.2353 22.591 19.8331C22.591 20.13 22.591 21.0254 22.591 21.6225C22.591 21.773 22.591 21.9208 22.4419 21.773C21.9945 21.773 22.2928 22.3695 22.2928 22.5173C22.2928 22.8155 22.4419 22.9653 22.5903 23.2635C22.5903 23.4133 22.7401 23.4133 22.7401 23.4133C22.8892 23.8607 23.0384 24.7554 23.3366 25.2028C23.3366 25.2028 23.4864 25.3525 23.4864 25.501C23.4864 25.7992 23.4864 26.2466 23.3366 26.5448C23.3366 26.5448 23.3366 26.6946 23.1875 26.6946C22.8892 26.6946 22.8892 26.8438 22.8892 27.142C22.8892 27.5894 22.591 28.0374 22.4419 28.0374C21.6963 28.3343 19.4601 29.0806 18.7139 29.2297C18.2665 29.3801 18.1174 29.5279 17.9683 29.677L17.2227 31.4665C20.2044 31.4665 21.6963 33.256 24.8278 33.8524H26.319C29.4506 33.4051 31.6867 31.4665 33.7751 31.4665L33.0308 29.6744Z" fill="black"/>
</g>
<defs>
<clipPath id="clip0_8_38989">
<rect width="51" height="51" fill="white"/>
</clipPath>
</defs>
</svg>
