<svg width="23" height="23" viewBox="0 0 23 23" fill="none" xmlns="http://www.w3.org/2000/svg">
<path d="M11.5 0C6.73648 0 2.875 3.86148 2.875 8.625C2.875 10.6655 3.77416 12.4599 4.76927 14.0156L10.9135 22.6967C11.0483 22.8872 11.2671 23 11.5 23C11.7329 23 11.9517 22.8872 12.0865 22.6967L18.2307 14.0156C19.1816 12.7355 20.125 10.6655 20.125 8.625C20.125 3.86148 16.2635 0 11.5 0ZM11.5 13.6562C8.72131 13.6562 6.46875 11.4037 6.46875 8.625C6.46875 5.84631 8.72131 3.59375 11.5 3.59375C14.2787 3.59375 16.5312 5.84631 16.5312 8.625C16.5312 11.4037 14.2787 13.6562 11.5 13.6562Z" fill="#137365"/>
<path d="M11.5 4.3125C9.11842 4.3125 7.1875 6.24342 7.1875 8.625C7.1875 11.0066 9.11842 12.9375 11.5 12.9375C13.8816 12.9375 15.8125 11.0066 15.8125 8.625C15.8125 6.24342 13.8816 4.3125 11.5 4.3125ZM11.5 12.2188C9.51517 12.2188 7.90625 10.6095 7.90625 8.625C7.90625 6.64053 9.51517 5.03125 11.5 5.03125C13.4848 5.03125 15.0938 6.64053 15.0938 8.625C15.0938 10.6095 13.4848 12.2188 11.5 12.2188Z" fill="#137365"/>
</svg>
