<svg width="66" height="66" viewBox="0 0 66 66" fill="none" xmlns="http://www.w3.org/2000/svg">
<path d="M64.0691 9.86241C64.0986 8.10079 63.4607 6.47645 62.273 5.28878C61.6285 4.64445 60.5838 4.64445 59.9395 5.28886C59.2952 5.93327 59.2951 6.97796 59.9395 7.62229C60.4892 8.1719 60.784 8.94781 60.7697 9.80722C60.756 10.6271 60.4456 11.4188 59.9395 11.9249C58.8897 12.9747 48.425 22.162 40.2521 29.3105L38.249 27.3075C44.2154 20.4809 51.6196 12.0397 54.5157 8.83462L55.1746 9.49355C55.819 10.138 56.8637 10.138 57.508 9.49372C58.1525 8.84939 58.1526 7.8047 57.5082 7.16029L55.637 5.28894C55.3277 4.97948 54.9079 4.80557 54.4703 4.80557H54.4702C54.0326 4.80557 53.613 4.9794 53.3035 5.28878C52.2994 6.2928 46.1576 13.2686 40.6157 19.5927C39.1253 17.3369 37.1347 15.3963 34.7669 13.9067C31.3061 11.7295 27.2713 10.6255 22.7745 10.6255C21.7852 10.6255 20.8065 10.6879 19.8658 10.8111C18.9622 10.9294 18.3256 11.7577 18.4438 12.6613C18.5621 13.5648 19.3903 14.2014 20.294 14.0832C21.0933 13.9786 21.9279 13.9255 22.7744 13.9255C29.6214 13.9255 35.3649 16.9952 38.3433 22.1876C35.5641 25.3634 33.1762 28.0988 32.0246 29.4186C29.9689 29.6987 28.435 30.54 27.3534 31.9826C26.3478 33.3238 25.907 34.9256 25.4404 36.6214C24.8777 38.6663 24.296 40.7808 22.6368 42.4398C22.1648 42.9117 22.0237 43.6214 22.2791 44.238C22.5345 44.8546 23.1362 45.2566 23.8035 45.2566C28.2441 45.2566 31.7636 44.3101 34.2644 42.4435C36.5181 40.7612 37.8614 38.3728 38.1791 35.5048C42.4305 31.7917 60.7482 15.7831 62.2729 14.2583C63.3864 13.145 64.0411 11.5427 64.0691 9.86241ZM37.7621 31.4875C37.2663 31.9207 36.7856 32.3406 36.3235 32.7441L34.8169 31.2377C35.2201 30.7756 35.64 30.2945 36.0731 29.7985L37.7621 31.4875ZM32.2905 39.7989C30.9926 40.7678 29.2653 41.4135 27.1335 41.7297C27.8589 40.271 28.2659 38.792 28.6222 37.4969C29.3869 34.7176 29.8527 33.3227 31.7372 32.8249L34.7839 35.8714C34.4484 37.4932 33.6138 38.8112 32.2905 39.7989Z" fill="white"/>
<path d="M14.7102 15.6716C14.9505 15.6716 15.1946 15.6188 15.4256 15.5075C15.5736 15.4361 15.7258 15.3659 15.8776 15.2989C16.7112 14.9309 17.0888 13.9568 16.7207 13.1231C16.3527 12.2895 15.3786 11.912 14.5449 12.2799C14.3595 12.3618 14.1736 12.4476 13.9924 12.535C13.1716 12.9307 12.827 13.917 13.2226 14.7378C13.5071 15.3277 14.0964 15.6716 14.7102 15.6716Z" fill="white"/>
<path d="M26.6347 47.0901C25.7243 47.0812 24.9765 47.8103 24.9662 48.7214C24.895 55.0646 23.9374 57.8944 18.4517 57.8944C15.3764 57.8944 12.149 55.6447 9.5971 51.7223C6.78327 47.3971 5.23359 41.7816 5.23359 35.9101C5.23359 28.2877 7.53534 21.9455 11.7149 18.0518C12.3816 17.4306 12.4186 16.3865 11.7975 15.7198C11.1763 15.053 10.1322 15.016 9.46543 15.6372C7.00355 17.9308 5.09871 20.9108 3.8037 24.4946C2.56274 27.9288 1.93359 31.7696 1.93359 35.9101C1.93359 42.4129 3.67294 48.6676 6.83104 53.5219C10.0032 58.398 14.2389 61.1945 18.4517 61.1945C22.481 61.1945 25.2894 59.7766 26.7986 56.9802C28.0943 54.5792 28.2354 51.4774 28.2659 48.7585C28.2762 47.8473 27.5459 47.1003 26.6347 47.0901Z" fill="white"/>
<path d="M34.756 22.6543C34.756 19.6232 32.29 17.1572 29.2589 17.1572C26.2278 17.1572 23.7617 19.6232 23.7617 22.6543C23.7617 25.6854 26.2278 28.1515 29.2589 28.1515C32.29 28.1514 34.756 25.6854 34.756 22.6543ZM27.0617 22.6543C27.0617 21.4428 28.0473 20.4572 29.2589 20.4572C30.4705 20.4572 31.456 21.4428 31.456 22.6543C31.456 23.8659 30.4705 24.8515 29.2589 24.8515C28.0473 24.8514 27.0617 23.8658 27.0617 22.6543Z" fill="white"/>
<path d="M16.1534 30.1271C19.1845 30.1271 21.6505 27.6611 21.6505 24.6301C21.6505 21.5989 19.1845 19.1329 16.1534 19.1329C13.1223 19.1329 10.6562 21.5989 10.6562 24.6301C10.6563 27.6611 13.1223 30.1271 16.1534 30.1271ZM16.1534 22.4329C17.3649 22.4329 18.3505 23.4186 18.3505 24.6301C18.3505 25.8416 17.3649 26.8271 16.1534 26.8271C14.9419 26.8271 13.9563 25.8416 13.9563 24.6301C13.9563 23.4186 14.942 22.4329 16.1534 22.4329Z" fill="white"/>
<path d="M17.4396 37.2602C17.4396 34.229 14.9736 31.7629 11.9425 31.7629C8.91132 31.7629 6.44531 34.229 6.44531 37.2602C6.44531 40.2912 8.91132 42.7572 11.9425 42.7572C14.9736 42.7572 17.4396 40.2912 17.4396 37.2602ZM11.9425 39.4572C10.7309 39.4572 9.74531 38.4717 9.74531 37.2602C9.74531 36.0486 10.7309 35.0629 11.9425 35.0629C13.154 35.0629 14.1396 36.0486 14.1396 37.2602C14.1396 38.4716 13.154 39.4572 11.9425 39.4572Z" fill="white"/>
<path d="M17.7236 55.6195C20.7548 55.6195 23.2208 53.1535 23.2208 50.1224C23.2208 47.0914 20.7548 44.6254 17.7236 44.6254C14.6926 44.6254 12.2266 47.0914 12.2266 50.1224C12.2266 53.1535 14.6926 55.6195 17.7236 55.6195ZM17.7236 47.9254C18.9352 47.9254 19.9208 48.9109 19.9208 50.1224C19.9208 51.3339 18.9352 52.3195 17.7236 52.3195C16.5122 52.3195 15.5266 51.3339 15.5266 50.1224C15.5266 48.9109 16.5122 47.9254 17.7236 47.9254Z" fill="white"/>
</svg>
