<svg width="53" height="53" viewBox="0 0 53 53" fill="none" xmlns="http://www.w3.org/2000/svg">
<path d="M6.18464 34.45H4.41797V52.1166C4.41797 52.6466 4.7713 53 5.3013 53H20.318V51.2333H6.18464V34.45Z" fill="white"/>
<path d="M6.18464 1.76667H37.9846V9.71667C37.9846 10.2467 38.338 10.6 38.868 10.6H46.818V35.3333H48.5846V9.71667C48.5846 9.62833 48.5846 9.54 48.4963 9.45167V9.36333C48.408 9.275 48.408 9.18667 48.3196 9.09833L39.4863 0.265C39.398 0.176667 39.3096 0.176667 39.2213 0.0883333H39.133C39.0446 0.0883333 38.9563 0 38.868 0H5.3013C4.7713 0 4.41797 0.353333 4.41797 0.883333V15.0167H6.18464V1.76667ZM39.7513 3.00333L45.5813 8.83333H39.7513V3.00333Z" fill="white"/>
<path d="M10.5987 4.41663H8.83203V6.18329H10.5987V4.41663Z" fill="white"/>
<path d="M21.1987 7.94995H8.83203V9.71662H21.1987V7.94995Z" fill="white"/>
<path d="M21.1987 11.4833H8.83203V13.2499H21.1987V11.4833Z" fill="white"/>
<path d="M14.1339 4.41663H12.3672V6.18329H14.1339V4.41663Z" fill="white"/>
<path d="M17.6651 4.41663H15.8984V6.18329H17.6651V4.41663Z" fill="white"/>
<path d="M30.0333 30.9166V24.2033L35.0683 19.1683C35.3333 18.9033 35.4217 18.55 35.245 18.1966C35.1567 17.8433 34.8033 17.6666 34.45 17.6666H0.883333C0.353333 17.6666 0 18.02 0 18.55V30.9166C0 31.4466 0.353333 31.8 0.883333 31.8H29.15C29.68 31.8 30.0333 31.4466 30.0333 30.9166ZM28.2667 23.85V30.0333H1.76667V19.4333H32.33L28.5317 23.2316C28.355 23.4083 28.2667 23.585 28.2667 23.85Z" fill="white"/>
<path d="M52.1178 38.8667H19.4345C19.0812 38.8667 18.8162 39.0434 18.6395 39.3967C18.4628 39.75 18.5512 40.1034 18.7278 40.3684L22.9678 45.4034V52.1167C22.9678 52.6467 23.3212 53 23.8512 53H52.1178C52.6478 53 53.0012 52.6467 53.0012 52.1167V39.75C53.0012 39.22 52.6478 38.8667 52.1178 38.8667ZM51.2345 51.2334H24.7345H24.6462V45.05C24.6462 44.8734 24.5578 44.6967 24.4695 44.52L21.2895 40.6334H51.2345V51.2334Z" fill="white"/>
<path d="M5.30182 22.0834H3.53516V23.85H5.30182V22.0834Z" fill="white"/>
<path d="M8.83307 22.0834H7.06641V23.85H8.83307V22.0834Z" fill="white"/>
<path d="M26.5016 22.0834H10.6016V23.85H26.5016V22.0834Z" fill="white"/>
<path d="M5.30182 25.6167H3.53516V27.3834H5.30182V25.6167Z" fill="white"/>
<path d="M26.4997 25.6167H7.06641V27.3834H26.4997V25.6167Z" fill="white"/>
<path d="M28.2667 43.2833H26.5V45.05H28.2667V43.2833Z" fill="white"/>
<path d="M49.4685 43.2833H30.0352V45.05H49.4685V43.2833Z" fill="white"/>
<path d="M28.2667 46.8167H26.5V48.5833H28.2667V46.8167Z" fill="white"/>
<path d="M31.8018 46.8167H30.0352V48.5833H31.8018V46.8167Z" fill="white"/>
<path d="M49.4664 46.8167H33.5664V48.5833H49.4664V46.8167Z" fill="white"/>
<path d="M44.1682 19.4333H37.1016V21.2H44.1682V19.4333Z" fill="white"/>
<path d="M44.1654 22.9667H35.332V24.7333H44.1654V22.9667Z" fill="white"/>
<path d="M44.1674 26.5H31.8008V28.2667H44.1674V26.5Z" fill="white"/>
<path d="M44.1674 30.0333H31.8008V31.8H44.1674V30.0333Z" fill="white"/>
<path d="M9.71589 47.7H7.94922V49.4666H9.71589V47.7Z" fill="white"/>
<path d="M13.251 47.7H11.4844V49.4666H13.251V47.7Z" fill="white"/>
<path d="M16.7823 47.7H15.0156V49.4666H16.7823V47.7Z" fill="white"/>
<path d="M9.71589 44.1666H7.94922V45.9333H9.71589V44.1666Z" fill="white"/>
<path d="M13.251 44.1666H11.4844V45.9333H13.251V44.1666Z" fill="white"/>
<path d="M9.71589 40.6333H7.94922V42.4H9.71589V40.6333Z" fill="white"/>
<path d="M9.71589 37.1H7.94922V38.8666H9.71589V37.1Z" fill="white"/>
<path d="M13.251 40.6333H11.4844V42.4H13.251V40.6333Z" fill="white"/>
<path d="M16.7823 44.1666H15.0156V45.9333H16.7823V44.1666Z" fill="white"/>
<path d="M20.3174 47.7H18.5508V49.4666H20.3174V47.7Z" fill="white"/>
</svg>
