<svg width="51" height="51" viewBox="0 0 51 51" fill="none" xmlns="http://www.w3.org/2000/svg">
<path d="M51.0001 23.3396V0H0V23.3396H16.0056V27.4137C16.0056 28.6151 15.0281 29.5924 13.8268 29.5924H10.7198C7.84774 29.5924 5.5112 31.9291 5.5112 34.801V39.696C5.5112 42.5681 7.84784 44.9046 10.7198 44.9046H17.5204V41.8748H10.7198C9.5184 41.8748 8.54103 40.8973 8.54103 39.696V34.801C8.54103 33.5996 9.5185 32.6223 10.7198 32.6223H13.8268C16.6989 32.6223 19.0354 30.2856 19.0354 27.4137V23.3396H31.9647V27.4137C31.9647 30.2857 34.3014 32.6223 37.1733 32.6223H40.2803C41.4817 32.6223 42.4591 33.5997 42.4591 34.801V39.696C42.4591 40.8974 41.4816 41.8748 40.2803 41.8748H33.4797V44.9046H40.2803C43.1524 44.9046 45.4889 42.568 45.4889 39.696V34.801C45.4889 31.929 43.1523 29.5924 40.2803 29.5924H37.1733C35.9719 29.5924 34.9946 28.615 34.9946 27.4137V23.3396H51.0001ZM3.02983 20.3098V3.02993H47.9703V20.3099L3.02983 20.3098Z" fill="white"/>
<path d="M8.87082 15.0793H5.21484V18.1092H8.87082V15.0793Z" fill="white"/>
<path d="M15.0271 15.0793H11.3711V18.1092H15.0271V15.0793Z" fill="white"/>
<path d="M33.4826 15.0793H17.5234V18.1092H33.4826V15.0793Z" fill="white"/>
<path d="M39.6364 15.0793H35.9805V18.1092H39.6364V15.0793Z" fill="white"/>
<path d="M45.7849 15.0793H42.1289V18.1092H45.7849V15.0793Z" fill="white"/>
<path d="M8.87082 10.1549H5.21484V13.1847H8.87082V10.1549Z" fill="white"/>
<path d="M15.0271 10.1547H11.3711V13.1845H15.0271V10.1547Z" fill="white"/>
<path d="M21.1794 10.1549H17.5234V13.1847H21.1794V10.1549Z" fill="white"/>
<path d="M27.3278 10.1549H23.6719V13.1847H27.3278V10.1549Z" fill="white"/>
<path d="M33.4802 10.1549H29.8242V13.1847H33.4802V10.1549Z" fill="white"/>
<path d="M39.6364 10.1549H35.9805V13.1847H39.6364V10.1549Z" fill="white"/>
<path d="M45.7849 10.1549H42.1289V13.1847H45.7849V10.1549Z" fill="white"/>
<path d="M8.87082 5.23022H5.21484V8.26005H8.87082V5.23022Z" fill="white"/>
<path d="M15.0271 5.23035H11.3711V8.26017H15.0271V5.23035Z" fill="white"/>
<path d="M21.1794 5.23022H17.5234V8.26005H21.1794V5.23022Z" fill="white"/>
<path d="M27.3278 5.23022H23.6719V8.26005H27.3278V5.23022Z" fill="white"/>
<path d="M33.4802 5.23022H29.8242V8.26005H33.4802V5.23022Z" fill="white"/>
<path d="M39.6364 5.23022H35.9805V8.26005H39.6364V5.23022Z" fill="white"/>
<path d="M45.7849 5.23022H42.1289V8.26005H45.7849V5.23022Z" fill="white"/>
<path d="M25.4972 29.6547C21.3526 29.6547 17.9805 33.0266 17.9805 37.1714C17.9805 39.156 18.747 41.0282 20.1386 42.4427L20.2314 42.5371C20.6898 43.0221 21.0113 43.612 21.1686 44.2562V46.4591V46.6715C21.1686 49.0582 23.1104 50.9999 25.4971 50.9999C27.8839 50.9999 29.8257 49.0581 29.8257 46.6715V46.4591V44.2562C29.9828 43.6127 30.3037 43.0235 30.7613 42.5389L30.8557 42.4428C32.2475 41.0282 33.0139 39.1562 33.0139 37.1715C33.014 33.0267 29.6419 29.6547 25.4972 29.6547ZM26.7961 46.6714H26.796C26.796 47.3875 26.2134 47.97 25.4973 47.97C24.7812 47.97 24.1986 47.3874 24.1986 46.6714V46.459H26.7961V46.6714ZM28.7259 40.2871L28.7062 40.3067C27.8347 41.1752 27.2183 42.2485 26.9098 43.4292H24.0847C23.7763 42.2486 23.1599 41.1752 22.2883 40.3067L22.2691 40.2875C21.4571 39.4469 21.0105 38.3418 21.0105 37.1714C21.0105 34.6973 23.0233 32.6845 25.4974 32.6845C27.9715 32.6845 29.9843 34.6973 29.9843 37.1714C29.9841 38.3418 29.5376 39.4465 28.7259 40.2871Z" fill="white"/>
</svg>
