<svg width="98" height="98" viewBox="0 0 98 98" fill="none" xmlns="http://www.w3.org/2000/svg">
<circle cx="49" cy="49" r="49" fill="#C5CBFD"/>
<path d="M69.3033 65.6711H63.613C63.3614 65.6711 63.1202 65.5711 62.9424 65.3933C62.7645 65.2154 62.6646 64.9742 62.6646 64.7227C62.6646 64.4711 62.7645 64.2299 62.9424 64.052C63.1202 63.8742 63.3614 63.7743 63.613 63.7743H68.355V56.1871C68.355 54.1748 67.5556 52.245 66.1327 50.8222C64.7098 49.3993 62.78 48.5999 60.7678 48.5999C58.7555 48.5999 56.8257 49.3993 55.4028 50.8222C53.98 52.245 53.1806 54.1748 53.1806 56.1871V63.7743H57.9226C58.1741 63.7743 58.4153 63.8742 58.5932 64.052C58.7711 64.2299 58.871 64.4711 58.871 64.7227C58.871 64.9742 58.7711 65.2154 58.5932 65.3933C58.4153 65.5711 58.1741 65.6711 57.9226 65.6711H52.2322C51.9807 65.6711 51.7395 65.5711 51.5616 65.3933C51.3837 65.2154 51.2838 64.9742 51.2838 64.7227V56.1871C51.2838 53.6718 52.283 51.2595 54.0616 49.4809C55.8402 47.7023 58.2525 46.7031 60.7678 46.7031C63.2831 46.7031 65.6954 47.7023 67.474 49.4809C69.2525 51.2595 70.2517 53.6718 70.2517 56.1871V64.7227C70.2517 64.9742 70.1518 65.2154 69.974 65.3933C69.7961 65.5711 69.5549 65.6711 69.3033 65.6711Z" fill="black"/>
<path d="M60.7683 66.6193C59.2591 66.6193 57.8117 66.0198 56.7446 64.9527C55.6774 63.8855 55.0779 62.4381 55.0779 60.9289V56.187C55.0779 54.6778 55.6774 53.2304 56.7446 52.1633C57.8117 51.0961 59.2591 50.4966 60.7683 50.4966C62.2774 50.4966 63.7248 51.0961 64.792 52.1633C65.8591 53.2304 66.4586 54.6778 66.4586 56.187V60.9289C66.4586 62.4381 65.8591 63.8855 64.792 64.9527C63.7248 66.0198 62.2774 66.6193 60.7683 66.6193ZM60.7683 52.3934C59.7621 52.3934 58.7972 52.7931 58.0858 53.5045C57.3744 54.2159 56.9747 55.1808 56.9747 56.187V60.9289C56.9747 61.9351 57.3744 62.9 58.0858 63.6114C58.7972 64.3228 59.7621 64.7225 60.7683 64.7225C61.7744 64.7225 62.7393 64.3228 63.4507 63.6114C64.1622 62.9 64.5618 61.9351 64.5618 60.9289V56.187C64.5618 55.1808 64.1622 54.2159 63.4507 53.5045C62.7393 52.7931 61.7744 52.3934 60.7683 52.3934Z" fill="black"/>
<path d="M65.9848 57.1356H55.5524C55.3009 57.1356 55.0596 57.0356 54.8818 56.8578C54.7039 56.6799 54.604 56.4387 54.604 56.1872C54.604 55.9356 54.7039 55.6944 54.8818 55.5165C55.0596 55.3387 55.3009 55.2388 55.5524 55.2388H65.9848C66.2363 55.2388 66.4775 55.3387 66.6554 55.5165C66.8332 55.6944 66.9332 55.9356 66.9332 56.1872C66.9332 56.4387 66.8332 56.6799 66.6554 56.8578C66.4775 57.0356 66.2363 57.1356 65.9848 57.1356Z" fill="black"/>
<path d="M60.9955 69.8249C60.2249 69.8224 59.4868 69.5145 58.9428 68.9688C58.3988 68.423 58.0934 67.6839 58.0934 66.9133V65.3485C58.0934 65.0969 58.1933 64.8557 58.3712 64.6778C58.549 64.5 58.7902 64.4001 59.0418 64.4001C59.2933 64.4001 59.5345 64.5 59.7124 64.6778C59.8903 64.8557 59.9902 65.0969 59.9902 65.3485V66.9133C59.9902 67.0453 60.0162 67.176 60.0667 67.298C60.1172 67.42 60.1913 67.5308 60.2846 67.6242C60.378 67.7175 60.4888 67.7916 60.6108 67.8421C60.7327 67.8926 60.8635 67.9186 60.9955 67.9186C61.1275 67.9186 61.2582 67.8926 61.3802 67.8421C61.5022 67.7916 61.613 67.7175 61.7063 67.6242C61.7997 67.5308 61.8737 67.42 61.9243 67.298C61.9748 67.176 62.0008 67.0453 62.0008 66.9133V65.1398C62.0008 64.8883 62.1007 64.647 62.2786 64.4692C62.4564 64.2913 62.6976 64.1914 62.9492 64.1914C63.2007 64.1914 63.4419 64.2913 63.6198 64.4692C63.7977 64.647 63.8976 64.8883 63.8976 65.1398V66.9133C63.8976 67.6839 63.5921 68.423 63.0481 68.9688C62.5042 69.5145 61.766 69.8224 60.9955 69.8249Z" fill="black"/>
<path d="M72.6229 75.1547H49.8614C49.6098 75.1547 49.3686 75.0548 49.1907 74.8769C49.0129 74.699 48.913 74.4578 48.913 74.2063C48.9117 73.2253 49.1039 72.2537 49.4784 71.3471C49.8529 70.4404 50.4025 69.6165 51.0957 68.9224C51.7889 68.2283 52.6122 67.6777 53.5184 67.302C54.4245 66.9263 55.3959 66.7329 56.3769 66.7329H59.0418C59.2934 66.7329 59.5346 66.8328 59.7125 67.0107C59.8903 67.1885 59.9902 67.4298 59.9902 67.6813C59.9902 67.9328 59.8903 68.1741 59.7125 68.3519C59.5346 68.5298 59.2934 68.6297 59.0418 68.6297H56.3769C55.6447 68.628 54.9196 68.7722 54.2438 69.0539C53.568 69.3356 52.9551 69.7492 52.441 70.2704C51.6265 71.0818 51.0832 72.1254 50.8856 73.2579H71.5986C71.3734 71.964 70.6995 70.7908 69.6953 69.9444C68.6911 69.098 67.4207 68.6325 66.1074 68.6297H62.9492C62.6977 68.6297 62.4565 68.5298 62.2786 68.3519C62.1008 68.1741 62.0008 67.9328 62.0008 67.6813C62.0008 67.4298 62.1008 67.1885 62.2786 67.0107C62.4565 66.8328 62.6977 66.7329 62.9492 66.7329H66.1074C68.0878 66.7354 69.9863 67.5239 71.3857 68.9252C72.7852 70.3264 73.5713 72.2259 73.5713 74.2063C73.5713 74.4578 73.4714 74.699 73.2935 74.8769C73.1156 75.0548 72.8744 75.1547 72.6229 75.1547Z" fill="black"/>
<path d="M74.0457 59.0319H72.1489C71.8974 59.0319 71.6562 58.932 71.4783 58.7541C71.3005 58.5763 71.2005 58.3351 71.2005 58.0835C71.2005 57.832 71.3005 57.5908 71.4783 57.4129C71.6562 57.235 71.8974 57.1351 72.1489 57.1351H73.0973V55.7884C73.0973 49.7282 67.8527 44.806 61.4131 44.806H60.1233C53.6837 44.806 48.439 49.7282 48.439 55.7884V57.1351H49.3874C49.639 57.1351 49.8802 57.235 50.058 57.4129C50.2359 57.5908 50.3358 57.832 50.3358 58.0835C50.3358 58.3351 50.2359 58.5763 50.058 58.7541C49.8802 58.932 49.639 59.0319 49.3874 59.0319H47.4906C47.2391 59.0319 46.9979 58.932 46.82 58.7541C46.6422 58.5763 46.5422 58.3351 46.5422 58.0835V55.7884C46.5422 48.6849 52.6309 42.9092 60.1233 42.9092H61.4131C68.9054 42.9092 74.9941 48.6849 74.9941 55.7884V58.0835C74.9941 58.3351 74.8942 58.5763 74.7164 58.7541C74.5385 58.932 74.2973 59.0319 74.0457 59.0319Z" fill="black"/>
<path d="M49.3876 59.9806C49.1361 59.9806 48.8948 59.8807 48.717 59.7028C48.5391 59.525 48.4392 59.2837 48.4392 59.0322V57.1354C48.4392 56.8839 48.5391 56.6426 48.717 56.4648C48.8948 56.2869 49.1361 56.187 49.3876 56.187C49.6391 56.187 49.8804 56.2869 50.0582 56.4648C50.2361 56.6426 50.336 56.8839 50.336 57.1354V59.0322C50.336 59.2837 50.2361 59.525 50.0582 59.7028C49.8804 59.8807 49.6391 59.9806 49.3876 59.9806Z" fill="black"/>
<path d="M72.1498 59.9806C71.8983 59.9806 71.6571 59.8807 71.4792 59.7028C71.3013 59.525 71.2014 59.2837 71.2014 59.0322V57.1354C71.2014 56.8839 71.3013 56.6426 71.4792 56.4648C71.6571 56.2869 71.8983 56.187 72.1498 56.187C72.4013 56.187 72.6426 56.2869 72.8204 56.4648C72.9983 56.6426 73.0982 56.8839 73.0982 57.1354V59.0322C73.0982 59.2837 72.9983 59.525 72.8204 59.7028C72.6426 59.8807 72.4013 59.9806 72.1498 59.9806Z" fill="black"/>
<path d="M38.7466 70.508C37.826 70.5056 36.9259 70.2354 36.1562 69.7301C35.3866 69.2249 34.7807 68.5066 34.4124 67.6628L22.4152 40.8611C22.1602 40.2926 22.0198 39.6794 22.002 39.0566C21.9841 38.4338 22.0891 37.8136 22.3111 37.2314C22.533 36.6492 22.8676 36.1164 23.2955 35.6636C23.7235 35.2107 24.2364 34.8467 24.8052 34.5922L44.6456 25.7436C44.7602 25.6833 44.8859 25.647 45.0149 25.6371C45.144 25.6271 45.2738 25.6437 45.3962 25.6858C45.5186 25.7279 45.6312 25.7947 45.7268 25.8819C45.8225 25.9691 45.8993 26.075 45.9525 26.1931C46.0056 26.3111 46.0341 26.4388 46.0361 26.5683C46.038 26.6977 46.0135 26.8262 45.9639 26.9458C45.9143 27.0654 45.8408 27.1736 45.7478 27.2637C45.6548 27.3538 45.5444 27.4239 45.4233 27.4697L25.5829 36.3183C25.237 36.4701 24.9247 36.6893 24.6645 36.9631C24.4042 37.2369 24.201 37.5597 24.0668 37.9129C23.9326 38.266 23.8701 38.6423 23.8829 39.0198C23.8957 39.3974 23.9835 39.7686 24.1413 40.1119L36.1101 66.923C36.2619 67.2689 36.4811 67.5811 36.7549 67.8414C37.0287 68.1017 37.3515 68.3049 37.7046 68.4391C38.0578 68.5733 38.4341 68.6358 38.8116 68.623C39.1892 68.6102 39.5604 68.5224 39.9036 68.3646L48.0504 64.7227C48.1649 64.6624 48.2906 64.6261 48.4197 64.6162C48.5488 64.6062 48.6785 64.6228 48.801 64.6649C48.9234 64.707 49.0359 64.7738 49.1316 64.861C49.2272 64.9482 49.304 65.0541 49.3572 65.1722C49.4104 65.2902 49.4388 65.4179 49.4408 65.5474C49.4428 65.6768 49.4182 65.8053 49.3686 65.9249C49.3191 66.0445 49.2455 66.1527 49.1526 66.2428C49.0596 66.3329 48.9492 66.403 48.8281 66.4488L40.6718 70.0907C40.0674 70.366 39.4108 70.5083 38.7466 70.508Z" fill="black"/>
<path d="M32.1549 45.0052C31.9709 45.0067 31.7904 44.9546 31.6355 44.8552C31.4805 44.7559 31.3579 44.6136 31.2824 44.4457C31.0974 44.0133 31.0332 43.5388 31.0967 43.0728C31.1602 42.6069 31.3489 42.1668 31.6428 41.7997C31.7583 41.6458 31.8243 41.4604 31.8319 41.2681C31.8396 41.0758 31.7885 40.8858 31.6856 40.7232C31.5827 40.5606 31.4328 40.4332 31.2558 40.3578C31.0787 40.2824 30.8829 40.2627 30.6944 40.3012C30.5579 40.3328 30.4302 40.3943 30.3203 40.4813C30.2104 40.5682 30.1212 40.6783 30.059 40.8038C29.9998 40.93 29.9691 41.0676 29.9691 41.2069C29.9691 41.3462 29.9998 41.4839 30.059 41.61C30.11 41.7239 30.1382 41.8468 30.1417 41.9717C30.1453 42.0965 30.1242 42.2208 30.0798 42.3375C30.0353 42.4542 29.9683 42.561 29.8825 42.6517C29.7968 42.7425 29.694 42.8155 29.58 42.8666C29.4661 42.9177 29.3432 42.9458 29.2184 42.9494C29.0935 42.9529 28.9692 42.9319 28.8525 42.8874C28.7358 42.8429 28.6291 42.7759 28.5383 42.6902C28.4475 42.6044 28.3745 42.5016 28.3234 42.3877C28.1177 41.9296 28.0369 41.4253 28.0892 40.9259C28.1415 40.4266 28.325 39.9499 28.621 39.5444C28.9171 39.1389 29.3152 38.8189 29.7749 38.6171C30.2347 38.4152 30.7396 38.3386 31.2386 38.395C31.7375 38.4514 32.2126 38.6388 32.6156 38.9382C33.0187 39.2377 33.3353 39.6384 33.5334 40.0998C33.7315 40.5612 33.8039 41.0668 33.7434 41.5652C33.6828 42.0636 33.4914 42.5372 33.1887 42.9377C33.1042 43.037 33.0474 43.1568 33.0241 43.285C33.0008 43.4133 33.0117 43.5454 33.0559 43.668C33.1585 43.897 33.1663 44.1573 33.0774 44.3919C32.9885 44.6265 32.8103 44.8164 32.5817 44.9199C32.448 44.981 32.3019 45.0103 32.1549 45.0052Z" fill="black"/>
<path d="M33.2642 47.4901H33.0745L32.8943 47.4332L32.7331 47.3479C32.6814 47.312 32.6337 47.2706 32.5908 47.2246C32.4156 47.0479 32.3168 46.8095 32.3158 46.5607C32.313 46.4342 32.3356 46.3084 32.3822 46.1908C32.4312 46.077 32.5021 45.9739 32.5908 45.8873C32.6337 45.8413 32.6814 45.7999 32.7331 45.764L32.8943 45.6787L33.0745 45.6218C33.2901 45.5789 33.5138 45.6121 33.7076 45.7159C33.9013 45.8197 34.053 45.9876 34.1367 46.1908C34.1865 46.3078 34.2123 46.4336 34.2126 46.5607C34.2126 46.8122 34.1127 47.0535 33.9348 47.2313C33.7569 47.4092 33.5157 47.5091 33.2642 47.5091V47.4901Z" fill="black"/>
<path d="M34.5166 54.9444C34.3342 54.944 34.1557 54.891 34.0026 54.7917C33.8496 54.6925 33.7284 54.5512 33.6536 54.3848C33.4977 54.0457 33.4115 53.6787 33.4001 53.3056C33.3887 52.9326 33.4523 52.561 33.5872 52.213C33.7281 51.8547 33.9403 51.5287 34.211 51.2549C34.4816 50.981 34.8049 50.7649 35.1615 50.6197C35.2769 50.553 35.4051 50.5115 35.5377 50.4977C35.6702 50.484 35.8042 50.4983 35.9309 50.5398C36.0575 50.5813 36.174 50.649 36.2727 50.7386C36.3714 50.8281 36.4502 50.9374 36.5038 51.0594C36.5574 51.1814 36.5847 51.3134 36.584 51.4467C36.5832 51.5799 36.5543 51.7115 36.4992 51.8329C36.4442 51.9543 36.3642 52.0627 36.2644 52.151C36.1646 52.2394 36.0474 52.3057 35.9202 52.3457C35.6848 52.456 35.5013 52.6531 35.4081 52.8958C35.3158 53.1239 35.3158 53.379 35.4081 53.6071C35.5107 53.8361 35.5184 54.0964 35.4296 54.331C35.3407 54.5656 35.1625 54.7555 34.9339 54.859C34.8031 54.9187 34.6604 54.9479 34.5166 54.9444Z" fill="black"/>
<path d="M38.6225 59.4873C38.3714 59.4838 38.1309 59.3855 37.9491 59.2122C37.8612 59.1236 37.7917 59.0185 37.7445 58.903C37.6973 58.7874 37.6734 58.6637 37.6741 58.5389C37.6756 58.4149 37.7014 58.2925 37.75 58.1785C37.7951 58.062 37.8628 57.9557 37.9491 57.8655C38.0373 57.7766 38.1422 57.706 38.2578 57.6579C38.3733 57.6098 38.4973 57.585 38.6225 57.585C38.7477 57.585 38.8716 57.6098 38.9872 57.6579C39.1028 57.706 39.2077 57.7766 39.2958 57.8655C39.3822 57.9557 39.4499 58.062 39.495 58.1785C39.5481 58.291 39.5741 58.4144 39.5709 58.5389C39.5716 58.6637 39.5477 58.7874 39.5005 58.903C39.4533 59.0185 39.3837 59.1236 39.2958 59.2122C39.1141 59.3855 38.8736 59.4838 38.6225 59.4873Z" fill="black"/>
<path d="M36.5557 38.5943C36.3395 38.5933 36.1302 38.5185 35.9623 38.3822C35.7944 38.2459 35.6782 38.0564 35.6328 37.845C35.5874 37.6336 35.6157 37.413 35.7128 37.2198C35.8099 37.0267 35.9701 36.8725 36.1669 36.7829L41.2598 34.5067C41.4937 34.4036 41.759 34.3976 41.9974 34.4901C42.2357 34.5826 42.4275 34.766 42.5306 34.9999C42.6338 35.2338 42.6397 35.4991 42.5473 35.7374C42.4548 35.9758 42.2714 36.1676 42.0375 36.2707L36.9446 38.5469C36.8197 38.5896 36.6872 38.6057 36.5557 38.5943Z" fill="black"/>
<path d="M38.1108 42.056C37.8946 42.055 37.6852 41.9801 37.5174 41.8438C37.3495 41.7076 37.2333 41.518 37.1879 41.3066C37.1425 41.0952 37.1707 40.8747 37.2678 40.6815C37.365 40.4883 37.5252 40.3342 37.722 40.2445L39.3437 39.5237C39.5695 39.4383 39.8194 39.4422 40.0424 39.5347C40.2654 39.6271 40.4448 39.8011 40.5439 40.0212C40.6431 40.2413 40.6546 40.491 40.5761 40.7192C40.4976 40.9475 40.335 41.1373 40.1214 41.2498L38.4996 41.9611C38.3782 42.02 38.2457 42.0524 38.1108 42.056Z" fill="black"/>
<path d="M43.6962 61.2514C43.5791 61.2524 43.4629 61.2298 43.3547 61.185L36.7918 58.6717C35.621 58.2198 34.6771 57.3222 34.1669 56.1756C33.6567 55.029 33.6218 53.7268 34.0699 52.5546L44.5592 25.0511C45.0074 23.8768 45.9035 22.9285 47.0505 22.4145C48.1975 21.9006 49.5017 21.8631 50.6764 22.3102L71.9489 30.4854C73.1232 30.9336 74.0715 31.8296 74.5854 32.9767C75.0994 34.1237 75.1369 35.4278 74.6898 36.6025L72.0532 43.4974C71.9627 43.7363 71.7809 43.9295 71.5479 44.0345C71.3149 44.1394 71.0498 44.1475 70.8108 44.0569C70.5719 43.9664 70.3787 43.7846 70.2737 43.5516C70.1688 43.3186 70.1607 43.0535 70.2513 42.8145L72.8783 35.9292C73.0125 35.5793 73.0762 35.2063 73.0658 34.8317C73.0554 34.4572 72.9711 34.0883 72.8178 33.7464C72.6645 33.4045 72.4451 33.0962 72.1723 32.8393C71.8995 32.5824 71.5786 32.3819 71.2281 32.2494L50.003 24.1216C49.6531 23.9875 49.2802 23.9238 48.9056 23.9342C48.531 23.9446 48.1622 24.0288 47.8202 24.1822C47.4783 24.3355 47.1701 24.5549 46.9132 24.8277C46.6563 25.1005 46.4558 25.4213 46.3232 25.7718L35.834 53.2753C35.7009 53.6254 35.6383 53.9983 35.6497 54.3726C35.6611 54.7469 35.7463 55.1153 35.9003 55.4567C36.0487 55.7956 36.2637 56.1012 36.5325 56.3553C36.8013 56.6095 37.1185 56.807 37.4652 56.9362L44.0376 59.4589C44.2221 59.5514 44.3713 59.7016 44.4627 59.8866C44.5542 60.0716 44.5827 60.2814 44.5441 60.4841C44.5055 60.6868 44.4018 60.8714 44.2488 61.0099C44.0957 61.1484 43.9017 61.2331 43.6962 61.2514Z" fill="black"/>
<path d="M49.1887 35.199C49.0716 35.2 48.9554 35.1774 48.8472 35.1326C48.7308 35.0884 48.6242 35.0217 48.5335 34.9363C48.4428 34.8509 48.3699 34.7484 48.3188 34.6348C48.2677 34.5212 48.2395 34.3987 48.2358 34.2741C48.2321 34.1496 48.2529 34.0256 48.2972 33.9092C48.4721 33.4724 48.7619 33.091 49.1359 32.8055C49.5099 32.52 49.9541 32.341 50.4216 32.2874C50.6211 32.2602 50.8068 32.1701 50.9517 32.0303C51.0967 31.8905 51.1933 31.7081 51.2277 31.5097C51.2558 31.3263 51.2294 31.1387 51.1518 30.9701C51.0743 30.8015 50.949 30.6594 50.7915 30.5613C50.6729 30.4878 50.5396 30.4414 50.4011 30.4253C50.2625 30.4092 50.1221 30.4238 49.9899 30.4682C49.8577 30.5126 49.7369 30.5856 49.6361 30.682C49.5353 30.7784 49.457 30.8959 49.4068 31.026C49.3175 31.2612 49.1384 31.4513 48.909 31.5545C48.6796 31.6576 48.4185 31.6654 48.1834 31.5761C47.9482 31.4868 47.7581 31.3078 47.655 31.0783C47.5518 30.8489 47.544 30.5879 47.6333 30.3527C47.8059 29.8789 48.1014 29.4595 48.4894 29.1374C48.8774 28.8153 49.344 28.6021 49.8415 28.5197C50.339 28.4373 50.8494 28.4886 51.3206 28.6683C51.7918 28.848 52.2067 29.1497 52.5229 29.5425C52.8391 29.9353 53.0452 30.4051 53.1202 30.9038C53.1951 31.4024 53.1362 31.9121 52.9494 32.3805C52.7626 32.8489 52.4547 33.2592 52.0572 33.5695C51.6597 33.8798 51.1869 34.0788 50.6871 34.1463C50.5551 34.154 50.4278 34.1979 50.319 34.2732C50.2103 34.3485 50.1244 34.4522 50.0707 34.573C50.005 34.7548 49.8853 34.9122 49.7276 35.0241C49.57 35.1359 49.382 35.197 49.1887 35.199Z" fill="black"/>
<path d="M48.2113 37.731C47.9625 37.73 47.724 37.6312 47.5474 37.456C47.4585 37.3678 47.3879 37.2629 47.3398 37.1474C47.2916 37.0318 47.2668 36.9078 47.2668 36.7826C47.2668 36.6574 47.2916 36.5335 47.3398 36.4179C47.3879 36.3023 47.4585 36.1974 47.5474 36.1093C47.7251 35.9326 47.9654 35.8335 48.216 35.8335C48.4666 35.8335 48.7069 35.9326 48.8846 36.1093C48.9712 36.2012 49.0417 36.307 49.0933 36.4223C49.1526 36.5667 49.1754 36.7235 49.1595 36.8788C49.1437 37.0342 49.0897 37.1832 49.0025 37.3127C48.9152 37.4421 48.7974 37.5481 48.6593 37.6211C48.5213 37.694 48.3674 37.7318 48.2113 37.731Z" fill="black"/>
<path d="M44.4935 47.4802C44.3764 47.4812 44.2603 47.4587 44.1521 47.4138C44.0356 47.3696 43.929 47.3029 43.8383 47.2175C43.7476 47.1321 43.6747 47.0297 43.6236 46.9161C43.5725 46.8025 43.5443 46.6799 43.5406 46.5554C43.5369 46.4309 43.5578 46.3069 43.602 46.1904C43.7742 45.7519 44.0633 45.3689 44.4378 45.083C44.8123 44.7971 45.2579 44.6192 45.7264 44.5687C45.9259 44.5414 46.1116 44.4514 46.2565 44.3115C46.4015 44.1717 46.4981 43.9894 46.5325 43.791C46.5606 43.6075 46.5342 43.4199 46.4566 43.2513C46.3791 43.0828 46.2538 42.9406 46.0963 42.8426C45.9773 42.7681 45.8433 42.721 45.7039 42.7046C45.5645 42.6882 45.4231 42.7029 45.2901 42.7477C45.1586 42.7929 45.0385 42.8664 44.9386 42.9631C44.8386 43.0598 44.7611 43.1773 44.7116 43.3073C44.6223 43.5425 44.4433 43.7325 44.2138 43.8357C43.9844 43.9389 43.7234 43.9467 43.4882 43.8574C43.253 43.7681 43.0629 43.589 42.9598 43.3596C42.8566 43.1301 42.8488 42.8691 42.9381 42.6339C43.1107 42.1601 43.4062 41.7407 43.7942 41.4186C44.1822 41.0966 44.6488 40.8834 45.1463 40.801C45.6438 40.7185 46.1543 40.7698 46.6254 40.9495C47.0966 41.1292 47.5115 41.431 47.8277 41.8238C48.1439 42.2166 48.35 42.6864 48.425 43.185C48.4999 43.6837 48.441 44.1933 48.2542 44.6617C48.0675 45.1301 47.7595 45.5405 47.362 45.8507C46.9645 46.161 46.4917 46.3601 45.9919 46.4275C45.8612 46.4354 45.735 46.4783 45.6266 46.5517C45.5181 46.6251 45.4314 46.7264 45.3755 46.8448C45.3113 47.0284 45.1923 47.1878 45.0346 47.3014C44.8768 47.4151 44.6879 47.4775 44.4935 47.4802Z" fill="black"/>
<path d="M43.5171 50.0128H43.3369C43.2741 50.004 43.2132 49.9848 43.1567 49.9559C43.0985 49.937 43.0439 49.9081 42.9955 49.8705L42.8533 49.7567C42.7088 49.6131 42.6144 49.4268 42.5841 49.2254C42.5537 49.024 42.589 48.8181 42.6848 48.6383C42.7805 48.4586 42.9316 48.3144 43.1157 48.2271C43.2998 48.1399 43.507 48.1142 43.7068 48.1539C43.8283 48.1803 43.944 48.2285 44.0482 48.2962C44.0979 48.3312 44.1454 48.3692 44.1905 48.41C44.2794 48.4982 44.3499 48.6031 44.3981 48.7186C44.4462 48.8342 44.471 48.9582 44.471 49.0834C44.471 49.2086 44.4462 49.3325 44.3981 49.4481C44.3499 49.5637 44.2794 49.6686 44.1905 49.7567L44.0482 49.8705C43.944 49.9383 43.8283 49.9865 43.7068 50.0128H43.5171Z" fill="black"/>
<path d="M64.808 36.8302C64.6909 36.8313 64.5748 36.8087 64.4666 36.7639L56.4906 33.7195C56.3727 33.6745 56.265 33.6064 56.1738 33.5192C56.0825 33.4321 56.0096 33.3276 55.9592 33.2119C55.9089 33.0962 55.8822 32.9716 55.8806 32.8454C55.879 32.7193 55.9026 32.594 55.95 32.4771C55.9942 32.3606 56.0609 32.254 56.1463 32.1634C56.2317 32.0727 56.3342 31.9997 56.4478 31.9486C56.5614 31.8976 56.6839 31.8694 56.8085 31.8657C56.933 31.8619 57.057 31.8828 57.1734 31.927L65.1494 34.9714C65.3607 35.0479 65.5379 35.197 65.6495 35.3919C65.7611 35.5869 65.7998 35.8152 65.7588 36.0361C65.7179 36.257 65.5998 36.4562 65.4256 36.5981C65.2515 36.7401 65.0326 36.8156 64.808 36.8113V36.8302Z" fill="black"/>
<path d="M66.1072 41.3915C65.9906 41.3878 65.8753 41.3654 65.7658 41.3251L55.1343 37.2186C54.9181 37.1159 54.7487 36.9352 54.6602 36.7128C54.5716 36.4905 54.5704 36.2428 54.6568 36.0196C54.7433 35.7964 54.9109 35.6141 55.1261 35.5093C55.3413 35.4045 55.5881 35.385 55.8171 35.4546L66.4581 39.5516C66.6694 39.6282 66.8466 39.7772 66.9582 39.9722C67.0698 40.1672 67.1085 40.3955 67.0675 40.6164C67.0265 40.8372 66.9085 41.0364 66.7343 41.1784C66.5602 41.3203 66.3413 41.3959 66.1167 41.3915H66.1072Z" fill="black"/>
</svg>
