<svg width="98" height="98" viewBox="0 0 98 98" fill="none" xmlns="http://www.w3.org/2000/svg">
<circle cx="49" cy="49" r="49" fill="#FFCFD0"/>
<path d="M34.5863 50.3231C33.7473 50.3231 32.9592 50.7698 32.5298 51.4871L31.2918 53.551L31.226 53.4194V50.88L33.9003 49.8098C34.7739 49.461 35.339 48.6277 35.339 47.6867C35.339 46.9513 34.982 46.2578 34.3864 45.8284C33.7892 45.3999 33.0176 45.2847 32.3217 45.5191L32.0305 45.617L32.3628 44.9524C32.6952 44.2869 32.8712 43.5424 32.8712 42.7996C32.8712 41.5048 31.8183 40.4519 30.5235 40.4519C29.6285 40.4519 28.8248 40.9488 28.4234 41.75L26.3776 45.8424L24.6617 54.2749L24.6452 65.1299L25.2909 68.4203H23V74.1786H35.339V68.4203H32.8712V62.9114L34.3782 60.6509L36.619 54.738C36.8617 54.0906 36.9842 53.412 36.9842 52.721C36.9842 51.3991 35.9083 50.3231 34.5863 50.3231ZM32.8474 47.078C33.0448 47.0122 33.2562 47.0434 33.4265 47.1652C33.5968 47.2869 33.6938 47.4769 33.6938 47.6867C33.6938 47.9507 33.5359 48.1835 33.2907 48.2822L31.226 49.1081V47.6233L32.8474 47.078ZM33.6938 70.0656V72.5334H24.6452V70.0656H33.6938ZM35.0783 54.1597L32.9576 59.8168L31.226 62.4129V68.4203H26.9649L26.2904 65.0485V54.5176L27.8978 46.4799L29.895 42.487C30.0143 42.246 30.2553 42.0971 30.5235 42.0971C30.9101 42.0971 31.226 42.413 31.226 42.7996C31.226 43.2882 31.11 43.7785 30.8912 44.2178L29.5808 46.8386V53.8085L31.1602 56.9673L33.9406 52.3336C34.0755 52.1082 34.3231 51.9683 34.5863 51.9683C35.0018 51.9683 35.339 52.3056 35.339 52.721C35.339 53.2146 35.2518 53.6991 35.0783 54.1597Z" fill="black"/>
<path d="M71.713 68.4206L72.339 65.2914L72.3546 54.4364L70.693 46.0491L68.5764 41.7502C68.1758 40.949 67.3713 40.4521 66.4763 40.4521C65.1816 40.4521 64.1286 41.5051 64.1286 42.7999C64.1286 43.5418 64.3047 44.2871 64.637 44.9534L64.9685 45.6164L64.6781 45.5186C63.983 45.2833 63.2106 45.3993 62.6134 45.8278C62.0178 46.2581 61.6608 46.9515 61.6608 47.6869C61.6608 48.6288 62.226 49.4613 63.0987 49.8101L65.7738 50.8803V53.4196L65.708 53.5513L64.47 51.4882C64.0406 50.77 63.2526 50.3234 62.4135 50.3234C61.0916 50.3234 60.0156 51.3993 60.0156 52.7212C60.0156 53.4122 60.1382 54.0909 60.3809 54.7383L62.5353 60.4833L64.1286 62.9116V68.4206H61.6608V74.1788H73.9998V68.4206H71.713ZM63.7083 48.2825C63.464 48.1838 63.306 47.951 63.306 47.6869C63.306 47.4772 63.4031 47.288 63.5734 47.1654C63.7437 47.0428 63.9534 47.0116 64.1525 47.0782L65.7738 47.6236V49.1084L63.7083 48.2825ZM64.0431 59.817L61.9224 54.16C61.748 53.6993 61.6608 53.2148 61.6608 52.7212C61.6608 52.3058 61.9981 51.9686 62.4135 51.9686C62.6767 51.9686 62.9243 52.1084 63.0593 52.3338L65.8396 56.9667L67.419 53.8079V46.838L66.1086 44.218C65.8898 43.7796 65.7738 43.2885 65.7738 42.7999C65.7738 42.4132 66.0897 42.0974 66.4763 42.0974C66.7437 42.0974 66.9847 42.2462 67.1048 42.4864L69.1021 46.4793L70.7094 54.5178V65.0496L70.0349 68.4206H65.7738V62.4131L64.0431 59.817ZM72.3546 72.5336H63.306V70.0658H72.3546V72.5336Z" fill="black"/>
<path d="M58.8999 38.8068H60.8421V33.8712H58.8999C58.6375 32.7558 58.2024 31.7037 57.6011 30.7322L58.9732 29.3592L55.4837 25.8698L54.1099 27.241C53.1376 26.6397 52.0863 26.2046 50.9709 25.9422V24H46.0353V25.9422C44.9198 26.2046 43.8677 26.6397 42.8962 27.241L41.5233 25.869L38.0338 29.3584L39.4059 30.7313C38.8046 31.7037 38.3695 32.7549 38.107 33.8704H36.1641V38.806H38.1062C38.3686 39.9214 38.8038 40.9736 39.4051 41.945L38.033 43.318L41.5225 46.8074L42.7827 45.5472C42.7728 45.6303 42.7572 45.7117 42.7572 45.7973C42.7572 46.5294 43.1438 47.1677 43.7205 47.533C43.6333 47.7617 43.5798 48.0068 43.5798 48.2651C43.5798 49.3995 44.502 50.3216 45.6363 50.3216H51.3945C52.5289 50.3216 53.451 49.3995 53.451 48.2651C53.451 48.006 53.3976 47.7608 53.3104 47.533C53.887 47.1686 54.2736 46.5294 54.2736 45.7973C54.2736 45.7216 54.2596 45.6492 54.2514 45.576L55.4829 46.8074L58.9723 43.318L57.6002 41.945C58.2024 40.9744 58.6367 39.9223 58.8999 38.8068ZM51.3953 48.678H45.6371C45.4109 48.678 45.2258 48.493 45.2258 48.2667C45.2258 48.0405 45.4109 47.8554 45.6371 47.8554H51.3953C51.6216 47.8554 51.8067 48.0405 51.8067 48.2667C51.8067 48.493 51.6216 48.678 51.3953 48.678ZM52.218 46.2102H51.3953H45.6371H44.8145C44.5883 46.2102 44.4032 46.0252 44.4032 45.7989C44.4032 45.5727 44.5883 45.3876 44.8145 45.3876H52.218C52.4442 45.3876 52.6293 45.5727 52.6293 45.7989C52.6293 46.0252 52.4442 46.2102 52.218 46.2102ZM49.3388 38.6555C50.2939 38.3149 50.984 37.41 50.984 36.339C50.984 34.9784 49.8768 33.8712 48.5162 33.8712C47.1557 33.8712 46.0484 34.9784 46.0484 36.339C46.0484 37.41 46.7386 38.3149 47.6936 38.6555V43.7424H46.0484V41.5584L45.638 41.3207C43.862 40.2916 42.758 38.3832 42.758 36.339C42.758 33.1646 45.3418 30.5808 48.5162 30.5808C51.6907 30.5808 54.2745 33.1646 54.2745 36.339C54.2745 38.3824 53.1705 40.2916 51.3945 41.3207L50.984 41.5584V43.7424H49.3388V38.6555ZM48.5162 37.1616C48.0622 37.1616 47.6936 36.7931 47.6936 36.339C47.6936 35.8849 48.0622 35.5164 48.5162 35.5164C48.9703 35.5164 49.3388 35.8849 49.3388 36.339C49.3388 36.7931 48.9703 37.1616 48.5162 37.1616ZM57.4151 37.8477C57.1873 39.205 56.6682 40.4594 55.8736 41.5749L55.4705 42.1408L56.6468 43.3188L55.4837 44.482L54.3057 43.304L53.7389 43.7079C53.5884 43.8148 53.4239 43.9218 53.2479 44.0279C53.0578 43.9168 52.8522 43.828 52.6293 43.7827V42.4871C54.6701 41.1192 55.9197 38.8052 55.9197 36.3374C55.9197 32.2548 52.5988 28.934 48.5162 28.934C44.4337 28.934 41.1128 32.2548 41.1128 36.3374C41.1128 38.8044 42.3624 41.1183 44.4032 42.4863V43.7827C44.1754 43.8288 43.9656 43.9201 43.7715 44.0353C43.5922 43.9267 43.4227 43.8181 43.268 43.7079L42.7013 43.304L41.5233 44.482L40.3602 43.3188L41.5365 42.1408L41.1334 41.5749C40.3388 40.4594 39.8197 39.205 39.5918 37.8477L39.475 37.1616H37.8093V35.5164H39.475L39.591 34.8304C39.8189 33.4731 40.3379 32.2186 41.1326 31.1032L41.5357 30.5372L40.3593 29.3592L41.5225 28.1961L42.7005 29.3724L43.2664 28.9693C44.3819 28.1747 45.6363 27.6556 46.9936 27.4278L47.6805 27.311V25.6452H49.3257V27.311L50.0117 27.427C51.369 27.6548 52.6235 28.1739 53.7389 28.9685L54.3049 29.3716L55.4829 28.1953L56.646 29.3584L55.4697 30.5364L55.8728 31.1023C56.6674 32.2178 57.1865 33.4723 57.4143 34.8295L57.5311 35.5164H59.1969V37.1616H57.5311L57.4151 37.8477Z" fill="black"/>
<path d="M49.321 51.9685H47.6758V53.6137H49.321V51.9685Z" fill="black"/>
<path d="M49.321 55.2588H47.6758V56.904H49.321V55.2588Z" fill="black"/>
<path d="M49.321 58.5493H47.6758V60.1945H49.321V58.5493Z" fill="black"/>
<path d="M49.321 61.8396H47.6758V63.4848H49.321V61.8396Z" fill="black"/>
</svg>
