<svg width="98" height="98" viewBox="0 0 98 98" fill="none" xmlns="http://www.w3.org/2000/svg">
<circle cx="49" cy="49" r="49" fill="#DFCFFF"/>
<path d="M72.5797 34.9675C72.5797 32.6107 70.6624 30.6934 68.3056 30.6934C65.9489 30.6934 64.0315 32.6107 64.0315 34.9675C64.0315 37.3242 65.9489 39.2416 68.3056 39.2416C70.6624 39.2416 72.5797 37.3242 72.5797 34.9675ZM68.3056 37.532C66.8917 37.532 65.7411 36.3814 65.7411 34.9675C65.7411 33.5536 66.8917 32.403 68.3056 32.403C69.7195 32.403 70.8701 33.5536 70.8701 34.9675C70.8701 36.3814 69.7195 37.532 68.3056 37.532Z" fill="black"/>
<path d="M75.9989 43.5158C75.9989 41.1591 74.0815 39.2417 71.7248 39.2417H68.3055H64.8862C62.5294 39.2417 60.6121 41.1591 60.6121 43.5158V54.6285H62.4756L61.2788 60.6123H64.0314V69.1606H72.5796V60.6123H75.3321L74.1354 54.6285H75.9989V43.5158ZM67.4507 67.4509H65.741V65.7413H67.4507V67.4509ZM67.4507 64.0316H65.741V60.6123H67.4507V64.0316ZM70.87 67.4509H69.1603V65.7413H70.87V67.4509ZM70.87 64.0316H69.1603V60.6123H70.87V64.0316ZM74.2893 52.9189H73.7935L72.5796 46.8505V43.5158H70.87V46.9351L73.2464 58.9027H71.7248H70.87H65.741H64.8862H63.3646L65.7248 47.1027L65.741 43.5158H64.0314V46.8505L62.8175 52.9189H62.3217V43.5158C62.3217 42.1019 63.4723 40.9513 64.8862 40.9513H71.7248C73.1387 40.9513 74.2893 42.1019 74.2893 43.5158V52.9189Z" fill="black"/>
<path d="M34.9674 34.9675C34.9674 32.6107 33.0501 30.6934 30.6933 30.6934C28.3366 30.6934 26.4192 32.6107 26.4192 34.9675C26.4192 37.3242 28.3366 39.2416 30.6933 39.2416C33.0501 39.2416 34.9674 37.3242 34.9674 34.9675ZM30.6933 37.532C29.2794 37.532 28.1288 36.3814 28.1288 34.9675C28.1288 33.5536 29.2794 32.403 30.6933 32.403C32.1072 32.403 33.2578 33.5536 33.2578 34.9675C33.2578 36.3814 32.1072 37.532 30.6933 37.532Z" fill="black"/>
<path d="M38.3866 43.5158C38.3866 41.1591 36.4692 39.2417 34.1125 39.2417H30.6932H27.2739C24.9171 39.2417 22.9998 41.1591 22.9998 43.5158V54.6285H26.4191V69.1606H34.9673V54.6285H38.3866V43.5158ZM29.8384 67.4509H28.1287V65.7413H29.8384V67.4509ZM33.2577 67.4509H31.548V65.7413H33.2577V67.4509ZM33.2577 52.9189V53.7737V64.0316H31.548V55.4834H29.8384V64.0316H28.1287V53.7737V52.9189V51.2092H33.2577V52.9189ZM36.677 52.9189H34.9673V43.5158H33.2577V49.4996H28.1287V43.5158H26.4191V52.9189H24.7094V43.5158C24.7094 42.1019 25.86 40.9513 27.2739 40.9513H34.1125C35.5264 40.9513 36.677 42.1019 36.677 43.5158V52.9189Z" fill="black"/>
<path d="M58.9026 47.7898C58.9026 42.6053 54.684 38.3867 49.4995 38.3867C44.315 38.3867 40.0964 42.6053 40.0964 47.7898C40.0964 50.621 41.3368 53.2359 43.5157 55.0319V55.4832H41.8061V57.1929H43.5157V61.467H55.4833V57.1929H57.1929V55.4832H55.4833V55.0319C57.6622 53.2359 58.9026 50.621 58.9026 47.7898ZM53.7736 59.7573H45.2254V57.1929H53.7736V59.7573ZM48.6447 47.7898C48.6447 47.3179 49.0276 46.935 49.4995 46.935C49.9714 46.935 50.3543 47.3179 50.3543 47.7898C50.3543 48.2617 49.9714 48.6446 49.4995 48.6446C49.0276 48.6446 48.6447 48.2617 48.6447 47.7898ZM54.1139 53.9343L53.7736 54.1899V55.4832H50.3543V50.197C51.3468 49.8431 52.064 48.9028 52.064 47.7898C52.064 46.3759 50.9134 45.2253 49.4995 45.2253C48.0856 45.2253 46.935 46.3759 46.935 47.7898C46.935 48.9028 47.6522 49.8431 48.6447 50.197V55.4832H45.2254V54.1899L44.8852 53.9334C42.9285 52.4623 41.8061 50.2226 41.8061 47.7898C41.8061 43.5473 45.257 40.0964 49.4995 40.0964C53.742 40.0964 57.1929 43.5473 57.1929 47.7898C57.1929 50.2226 56.0705 52.4623 54.1139 53.9343Z" fill="black"/>
<path d="M42.6609 32.1082V32.4031H44.0978C44.6885 33.652 45.6861 34.6496 46.935 35.2402V36.6772H52.064V35.2402C53.3129 34.6496 54.3104 33.652 54.9011 32.4031H56.3381V32.109C58.3247 32.9467 60.1745 34.1341 61.738 35.5933L62.9048 34.3427C61.0217 32.5852 58.7607 31.1892 56.3381 30.2686V27.2741H54.9011C54.3104 26.0252 53.3129 25.0276 52.064 24.437V23H46.935V24.437C45.6861 25.0276 44.6885 26.0252 44.0978 27.2741H42.6609V30.2686C40.2383 31.1892 37.9773 32.5852 36.0933 34.3418L37.261 35.5924C38.8244 34.1332 40.6751 32.9459 42.6609 32.1082ZM44.3705 28.9838H45.2732L45.4741 28.4145C45.9067 27.1929 46.8538 26.2458 48.0753 25.8132L48.6447 25.6123V24.7096H50.3543V25.6123L50.9236 25.8132C52.1452 26.2458 53.0923 27.1929 53.5249 28.4145L53.7257 28.9838H54.6284V30.6934H53.7257L53.5249 31.2627C53.0923 32.4843 52.1452 33.4314 50.9236 33.864L50.3543 34.0649V34.9675H48.6447V34.0649L48.0753 33.864C46.8538 33.4314 45.9067 32.4843 45.4741 31.2627L45.2732 30.6934H44.3705V28.9838Z" fill="black"/>
<path d="M61.7389 63.4067C59.9206 65.1027 57.7639 66.4191 55.4636 67.2517C54.5267 64.8693 52.2101 63.1768 49.4995 63.1768C46.7888 63.1768 44.4723 64.8693 43.5354 67.2517C41.2342 66.4191 39.0783 65.1027 37.2601 63.4067L36.095 64.6573C38.1252 66.5516 40.5443 68.0099 43.1242 68.9178C43.1011 69.1383 43.0883 69.3623 43.0883 69.5888C43.0883 73.1244 45.9639 76 49.4995 76C53.035 76 55.9107 73.1244 55.9107 69.5888C55.9107 69.3623 55.8978 69.1383 55.8748 68.9178C58.4546 68.0099 60.8746 66.5516 62.904 64.6573L61.7389 63.4067ZM49.4995 74.2895C46.9076 74.2895 44.7979 72.1798 44.7979 69.5879C44.7979 66.9961 46.9076 64.8864 49.4995 64.8864C52.0913 64.8864 54.201 66.9961 54.201 69.5879C54.201 72.1798 52.0913 74.2895 49.4995 74.2895Z" fill="black"/>
<path d="M49.4995 32.4029C50.9134 32.4029 52.064 31.2523 52.064 29.8384C52.064 28.4245 50.9134 27.2739 49.4995 27.2739C48.0857 27.2739 46.9351 28.4245 46.9351 29.8384C46.9351 31.2523 48.0857 32.4029 49.4995 32.4029ZM49.4995 28.9836C49.9714 28.9836 50.3544 29.3665 50.3544 29.8384C50.3544 30.3103 49.9714 30.6932 49.4995 30.6932C49.0277 30.6932 48.6447 30.3103 48.6447 29.8384C48.6447 29.3665 49.0277 28.9836 49.4995 28.9836Z" fill="black"/>
<path d="M50.3542 66.5962H48.6445V70.3694L50.6046 72.3295L51.8134 71.1208L50.3542 69.6616V66.5962Z" fill="black"/>
<path d="M59.7573 23H58.0476V24.7096H59.7573V23Z" fill="black"/>
<path d="M63.1767 23H61.467V24.7096H63.1767V23Z" fill="black"/>
<path d="M66.5959 23H64.8862V24.7096H66.5959V23Z" fill="black"/>
<path d="M34.9675 74.2896H33.2578V75.9992H34.9675V74.2896Z" fill="black"/>
<path d="M38.3867 74.2896H36.677V75.9992H38.3867V74.2896Z" fill="black"/>
<path d="M41.8061 74.2896H40.0964V75.9992H41.8061V74.2896Z" fill="black"/>
</svg>
