<svg width="98" height="98" viewBox="0 0 98 98" fill="none" xmlns="http://www.w3.org/2000/svg">
<circle cx="49" cy="49" r="49" fill="#C5FDC9"/>
<path d="M71.9592 24H26.0408C24.9155 24 24 24.9155 24 26.0408V71.9592C24 73.0845 24.9155 74 26.0408 74H71.9592C73.0845 74 74 73.0845 74 71.9592V26.0408C74 24.9155 73.0845 24 71.9592 24ZM71.9592 71.9592H26.0408V33.1837H71.9592V71.9592ZM71.9592 31.1429H26.0408V26.0408H71.9592V31.1429Z" fill="black"/>
<path d="M31.6535 27.5713H28.082V29.6121H31.6535V27.5713Z" fill="black"/>
<path d="M36.755 27.5713H33.1836V29.6121H36.755V27.5713Z" fill="black"/>
<path d="M69.9191 27.5713H66.3477V29.6121H69.9191V27.5713Z" fill="black"/>
<path d="M36.2441 54.6123H37.9983C38.1007 54.8912 38.2115 55.1615 38.3304 55.4225L37.094 56.6662C36.7088 57.0514 36.4966 57.5631 36.4966 58.1072C36.4966 58.6513 36.7089 59.163 37.094 59.5481L39.9816 62.4357C40.3668 62.8209 40.8786 63.0331 41.4226 63.0331C41.9667 63.0331 42.4785 62.8209 42.8615 62.4379L44.1073 61.1993C44.3682 61.3181 44.6387 61.4289 44.9175 61.5313V63.2856C44.9175 64.4109 45.833 65.3265 46.9583 65.3265H51.04C52.1653 65.3265 53.0808 64.4109 53.0809 63.2856V61.5313C53.3598 61.4289 53.6301 61.3181 53.8911 61.1992L55.1348 62.4356C55.52 62.8208 56.0317 63.033 56.5758 63.033C57.1199 63.033 57.6316 62.8207 58.0167 62.4356L60.9044 59.548C61.2896 59.1628 61.5017 58.651 61.5017 58.107C61.5017 57.5629 61.2896 57.0512 60.9065 56.6681L59.6679 55.4223C59.7867 55.1614 59.8975 54.8909 59.9999 54.6121H61.7543C62.8796 54.6121 63.7951 53.6966 63.7951 52.5713V48.4896C63.7951 47.3643 62.8796 46.4488 61.7543 46.4488H59.9999C59.8975 46.1699 59.7867 45.8996 59.6678 45.6386L60.9043 44.3949C61.2895 44.0097 61.5016 43.498 61.5016 42.9539C61.5016 42.4098 61.2894 41.8981 60.9043 41.513L58.0166 38.6253C57.6314 38.2401 57.1197 38.028 56.5756 38.028C56.0315 38.028 55.5198 38.2401 55.1367 38.6232L53.8909 39.8618C53.63 39.743 53.3596 39.6322 53.0807 39.5298V37.7754C53.0807 36.6501 52.1652 35.7346 51.0399 35.7346H46.9582C45.8329 35.7346 44.9174 36.6501 44.9174 37.7754V39.5298C44.6386 39.6322 44.3682 39.743 44.1072 39.8619L42.8636 38.6254C42.4783 38.2402 41.9666 38.0281 41.4225 38.0281C40.8785 38.0281 40.3667 38.2403 39.9816 38.6254L37.094 41.5131C36.7088 41.8983 36.4966 42.41 36.4966 42.9541C36.4966 43.4982 36.7088 44.0099 37.0918 44.393L38.3304 45.6388C38.2116 45.8997 38.1008 46.1701 37.9985 46.449H36.2441C35.1188 46.449 34.2032 47.3645 34.2032 48.4898V52.5715C34.2032 53.6968 35.1188 54.6123 36.2441 54.6123ZM36.2441 48.4896H38.7341C39.1847 48.4896 39.5819 48.194 39.7114 47.7624C39.9127 47.0915 40.1664 46.4746 40.4655 45.9291C40.683 45.5325 40.6133 45.04 40.2944 44.7191L38.5372 42.9561L41.4226 40.0705L43.1879 41.8255C43.5088 42.1445 44.0012 42.214 44.3979 41.9967C44.9435 41.6976 45.5603 41.4439 46.2312 41.2426C46.6629 41.1132 46.9585 40.7158 46.9585 40.2652V37.7754H51.0401V40.2654C51.0401 40.716 51.3357 41.1133 51.7673 41.2428C52.4382 41.4441 53.0551 41.6978 53.6006 41.9969C53.9972 42.2144 54.4896 42.1448 54.8106 41.8257L56.5736 40.0686L59.4592 42.954L57.7042 44.7193C57.3852 45.0401 57.3155 45.5326 57.533 45.9293C57.8321 46.4748 58.0858 47.0917 58.2871 47.7626C58.4165 48.1943 58.8139 48.4898 59.2645 48.4898H61.7543V52.5715H59.2645C58.8139 52.5715 58.4166 52.8671 58.2871 53.2987C58.0858 53.9696 57.8321 54.5865 57.533 55.132C57.3155 55.5286 57.3852 56.021 57.7042 56.342L59.4613 58.1049L56.5759 60.9905L54.8106 59.2355C54.4896 58.9166 53.9972 58.8469 53.6006 59.0644C53.0551 59.3635 52.4382 59.6172 51.7673 59.8185C51.3356 59.9479 51.0401 60.3452 51.0401 60.7958V63.2856H46.9585V60.7957C46.9585 60.3451 46.6628 59.9479 46.2312 59.8184C45.5603 59.6171 44.9435 59.3634 44.3979 59.0643C44.2438 58.9798 44.0751 58.9387 43.9076 58.9387C43.6443 58.9387 43.3841 59.0404 43.1877 59.2353L41.4248 60.9925L38.5392 58.1071L40.2942 56.3418C40.6131 56.0209 40.6828 55.5285 40.4653 55.1318C40.1662 54.5863 39.9125 53.9694 39.7112 53.2985C39.5818 52.8668 39.1845 52.5713 38.7339 52.5713H36.2441V48.4896Z" fill="black"/>
<path d="M49.0005 55.6328C51.8137 55.6328 54.1025 53.344 54.1025 50.5308C54.1025 47.7175 51.8137 45.4287 49.0005 45.4287C46.1872 45.4287 43.8984 47.7175 43.8984 50.5308C43.8984 53.344 46.1872 55.6328 49.0005 55.6328ZM49.0005 47.4695C50.6884 47.4695 52.0617 48.8428 52.0617 50.5308C52.0617 52.2187 50.6884 53.592 49.0005 53.592C47.3125 53.592 45.9393 52.2187 45.9393 50.5308C45.9393 48.8428 47.3125 47.4695 49.0005 47.4695Z" fill="black"/>
<path d="M64.8182 39.3062H62.7773V41.347H64.8182V39.3062Z" fill="black"/>
<path d="M67.8768 39.3062H65.8359V41.347H67.8768V39.3062Z" fill="black"/>
<path d="M70.9393 39.3062H68.8984V41.347H70.9393V39.3062Z" fill="black"/>
<path d="M29.0994 59.7139H27.0586V61.7547H29.0994V59.7139Z" fill="black"/>
<path d="M32.1619 59.7139H30.1211V61.7547H32.1619V59.7139Z" fill="black"/>
<path d="M35.2244 59.7139H33.1836V61.7547H35.2244V59.7139Z" fill="black"/>
<path d="M67.3675 67.8774H30.6328V69.9183H67.3675V67.8774Z" fill="black"/>
</svg>
