<svg width="112" height="112" viewBox="0 0 112 112" fill="none" xmlns="http://www.w3.org/2000/svg">
<circle cx="56" cy="56" r="56" fill="#43B97F"/>
<path d="M87.066 32.8624C87.0954 31.1008 86.4575 29.4764 85.2698 28.2888C84.6254 27.6445 83.5807 27.6445 82.9363 28.2889C82.292 28.9333 82.2919 29.978 82.9363 30.6223C83.486 31.1719 83.7808 31.9478 83.7665 32.8072C83.7528 33.6271 83.4425 34.4188 82.9363 34.9249C81.8865 35.9747 71.4218 45.162 63.2489 52.3105L61.2458 50.3075C67.2122 43.4809 74.6165 35.0397 77.5125 31.8346L78.1714 32.4936C78.8158 33.138 79.8606 33.138 80.5048 32.4937C81.1493 31.8494 81.1494 30.8047 80.5051 30.1603L78.6339 28.2889C78.3245 27.9795 77.9047 27.8056 77.4672 27.8056H77.4671C77.0294 27.8056 76.6098 27.9794 76.3004 28.2888C75.2963 29.2928 69.1544 36.2686 63.6125 42.5927C62.1222 40.3369 60.1315 38.3963 57.7637 36.9067C54.3029 34.7295 50.2681 33.6255 45.7713 33.6255C44.7821 33.6255 43.8034 33.6879 42.8626 33.8111C41.959 33.9294 41.3224 34.7577 41.4406 35.6613C41.559 36.5648 42.3872 37.2014 43.2908 37.0832C44.0901 36.9786 44.9247 36.9255 45.7712 36.9255C52.6182 36.9255 58.3617 39.9952 61.3401 45.1876C58.5609 48.3634 56.173 51.0988 55.0215 52.4186C52.9657 52.6987 51.4318 53.54 50.3502 54.9826C49.3446 56.3238 48.9038 57.9256 48.4372 59.6214C47.8746 61.6663 47.2928 63.7808 45.6336 65.4398C45.1616 65.9117 45.0205 66.6214 45.2759 67.238C45.5313 67.8546 46.133 68.2566 46.8003 68.2566C51.2409 68.2566 54.7604 67.3101 57.2613 65.4435C59.5149 63.7612 60.8583 61.3728 61.1759 58.5048C65.4274 54.7917 83.745 38.7831 85.2698 37.2583C86.3832 36.145 87.0379 34.5427 87.066 32.8624ZM60.7589 54.4875C60.2631 54.9207 59.7825 55.3406 59.3203 55.7441L57.8138 54.2377C58.2169 53.7756 58.6368 53.2945 59.0699 52.7985L60.7589 54.4875ZM55.2873 62.7989C53.9894 63.7678 52.2622 64.4135 50.1303 64.7297C50.8557 63.271 51.2627 61.792 51.619 60.4969C52.3838 57.7176 52.8496 56.3227 54.734 55.8249L57.7807 58.8714C57.4452 60.4932 56.6106 61.8112 55.2873 62.7989Z" fill="white"/>
<path d="M37.7107 38.6716C37.951 38.6716 38.1951 38.6188 38.426 38.5075C38.5741 38.4361 38.7263 38.3659 38.8781 38.2989C39.7117 37.9309 40.0892 36.9568 39.7212 36.1231C39.3532 35.2895 38.3791 34.912 37.5454 35.2799C37.36 35.3618 37.1741 35.4476 36.9929 35.535C36.1721 35.9307 35.8275 36.917 36.2231 37.7378C36.5076 38.3277 37.0969 38.6716 37.7107 38.6716Z" fill="white"/>
<path d="M49.6342 70.0901C48.7238 70.0812 47.976 70.8103 47.9657 71.7214C47.8945 78.0646 46.9369 80.8944 41.4512 80.8944C38.3759 80.8944 35.1485 78.6447 32.5966 74.7223C29.7828 70.3971 28.2331 64.7816 28.2331 58.9101C28.2331 51.2877 30.5349 44.9455 34.7144 41.0518C35.3812 40.4306 35.4181 39.3865 34.797 38.7198C34.1758 38.053 33.1317 38.016 32.4649 38.6372C30.0031 40.9308 28.0982 43.9108 26.8032 47.4946C25.5623 50.9288 24.9331 54.7696 24.9331 58.9101C24.9331 65.4129 26.6725 71.6676 29.8306 76.5219C33.0028 81.398 37.2384 84.1945 41.4512 84.1945C45.4806 84.1945 48.2889 82.7766 49.7981 79.9802C51.0939 77.5792 51.2349 74.4774 51.2655 71.7585C51.2757 70.8473 50.5454 70.1003 49.6342 70.0901Z" fill="white"/>
<path d="M57.7536 45.6543C57.7536 42.6232 55.2875 40.1572 52.2565 40.1572C49.2254 40.1572 46.7593 42.6232 46.7593 45.6543C46.7593 48.6854 49.2254 51.1515 52.2565 51.1515C55.2875 51.1514 57.7536 48.6854 57.7536 45.6543ZM50.0593 45.6543C50.0593 44.4428 51.0449 43.4572 52.2565 43.4572C53.468 43.4572 54.4536 44.4428 54.4536 45.6543C54.4536 46.8659 53.468 47.8515 52.2565 47.8515C51.0449 47.8514 50.0593 46.8658 50.0593 45.6543Z" fill="white"/>
<path d="M39.1556 53.1271C42.1867 53.1271 44.6527 50.6611 44.6527 47.6301C44.6527 44.5989 42.1867 42.1329 39.1556 42.1329C36.1245 42.1329 33.6584 44.5989 33.6584 47.6301C33.6584 50.6611 36.1245 53.1271 39.1556 53.1271ZM39.1556 45.4329C40.3671 45.4329 41.3527 46.4186 41.3527 47.6301C41.3527 48.8416 40.3671 49.8271 39.1556 49.8271C37.9441 49.8271 36.9584 48.8416 36.9584 47.6301C36.9584 46.4186 37.9442 45.4329 39.1556 45.4329Z" fill="white"/>
<path d="M40.4418 60.2602C40.4418 57.229 37.9758 54.7629 34.9447 54.7629C31.9135 54.7629 29.4475 57.229 29.4475 60.2602C29.4475 63.2912 31.9135 65.7572 34.9447 65.7572C37.9758 65.7572 40.4418 63.2912 40.4418 60.2602ZM34.9447 62.4572C33.7331 62.4572 32.7475 61.4717 32.7475 60.2602C32.7475 59.0486 33.7331 58.0629 34.9447 58.0629C36.1562 58.0629 37.1418 59.0486 37.1418 60.2602C37.1418 61.4716 36.1562 62.4572 34.9447 62.4572Z" fill="white"/>
<path d="M40.7202 78.6195C43.7513 78.6195 46.2174 76.1535 46.2174 73.1224C46.2174 70.0914 43.7513 67.6254 40.7202 67.6254C37.6892 67.6254 35.2231 70.0914 35.2231 73.1224C35.2231 76.1535 37.6892 78.6195 40.7202 78.6195ZM40.7202 70.9254C41.9318 70.9254 42.9174 71.9109 42.9174 73.1224C42.9174 74.3339 41.9318 75.3195 40.7202 75.3195C39.5088 75.3195 38.5231 74.3339 38.5231 73.1224C38.5231 71.9109 39.5088 70.9254 40.7202 70.9254Z" fill="white"/>
</svg>
