<svg width="112" height="112" viewBox="0 0 112 112" fill="none" xmlns="http://www.w3.org/2000/svg">
<circle cx="56" cy="56" r="56" fill="#11BEEA"/>
<path d="M66.5194 47.2206C70.8386 44.6627 72.9984 43.3837 74.5846 44.2912C76.1708 45.1986 76.1326 47.6915 76.0568 52.6775L76.0373 53.9673C76.0159 55.3841 76.005 56.0925 76.2691 56.7151C76.5332 57.3374 77.0421 57.8038 78.06 58.7361L78.9866 59.5849C82.5687 62.8662 84.3597 64.5067 83.9398 66.3492C83.52 68.1914 81.1672 69.0154 76.4622 70.6632L75.2448 71.0897C73.9076 71.5579 73.2391 71.7919 72.7262 72.2613C72.2134 72.731 71.9142 73.3826 71.3158 74.6855L70.7712 75.8719C68.6655 80.4577 67.6128 82.7506 65.7672 82.9819C63.9217 83.2131 62.5054 81.2294 59.6732 77.262L58.9406 76.2354C58.1358 75.108 57.7332 74.5445 57.1521 74.2119C56.5713 73.8796 55.8774 73.816 54.4895 73.689L53.2263 73.5734C48.343 73.1266 45.9013 72.9029 45.1806 71.2036C44.4598 69.504 45.9372 67.454 48.8921 63.3543L49.6565 62.2935C50.4962 61.1285 50.9161 60.546 51.0699 59.871C51.2237 59.1963 51.094 58.5055 50.8347 57.1238L50.5986 55.866C49.6861 51.0039 49.2299 48.5729 50.63 47.2914C52.0301 46.0099 54.3594 46.7267 59.0177 48.1602L60.2231 48.531C61.5469 48.9384 62.2088 49.1421 62.8849 49.0574C63.5609 48.9727 64.1746 48.6093 65.402 47.8824L66.5194 47.2206Z" fill="white"/>
<path opacity="0.5" fill-rule="evenodd" clip-rule="evenodd" d="M50.3776 29.6191C51.1887 28.7936 52.5037 28.7936 53.3147 29.6191L58.8532 35.2554C59.6643 36.0809 59.6643 37.4192 58.8532 38.2446C58.0421 39.07 56.7272 39.07 55.9161 38.2446L50.3776 32.6082C49.5665 31.7828 49.5665 30.4445 50.3776 29.6191ZM35.1468 33.8463C35.9579 33.0209 37.2729 33.0209 38.084 33.8463L45.0071 40.8918C45.8182 41.7172 45.8182 43.0555 45.0071 43.881C44.196 44.7064 42.881 44.7064 42.0699 43.881L35.1468 36.8355C34.3357 36.0101 34.3357 34.6718 35.1468 33.8463ZM60.07 39.4827C60.8811 38.6573 62.1959 38.6573 63.007 39.4827L64.3917 40.8918C65.2028 41.7172 65.2028 43.0555 64.3917 43.881C63.5806 44.7064 62.2657 44.7064 61.4546 43.881L60.07 42.4719C59.2589 41.6464 59.2589 40.3081 60.07 39.4827ZM29.6083 45.1191C30.4194 44.2937 31.7344 44.2937 32.5455 45.1191L33.9301 46.5282C34.7412 47.3536 34.7412 48.6919 33.9301 49.5173C33.1191 50.3428 31.804 50.3428 30.9929 49.5173L29.6083 48.1082C28.7972 47.2828 28.7972 45.9445 29.6083 45.1191ZM36.5314 52.1646C37.3425 51.3392 38.6575 51.3392 39.4686 52.1646L43.6225 56.3919C44.4336 57.2174 44.4336 58.5555 43.6225 59.3809C42.8114 60.2064 41.4963 60.2064 40.6853 59.3809L36.5314 55.1536C35.7203 54.3282 35.7203 52.9901 36.5314 52.1646Z" fill="white"/>
</svg>
