<svg width="70" height="56" viewBox="0 0 70 56" fill="none" xmlns="http://www.w3.org/2000/svg">
<path d="M30.0233 0L19.2541 39.5294L15.6643 24.7059C20.3419 24.7059 24.1492 26.0784 27.0862 28.8235C30.0233 31.5686 31.4918 35.3569 31.4918 40.1882C31.4918 44.9098 29.9689 48.7529 26.9231 51.7176C23.986 54.5725 20.2875 56 15.8275 56C11.2587 56 7.45144 54.5725 4.40559 51.7176C1.46853 48.7529 0 44.9098 0 40.1882C0 38.7608 0.10878 37.3882 0.326341 36.0706C0.543901 34.6431 0.979021 32.9961 1.6317 31.1294C2.28438 29.2627 3.20901 26.7922 4.40559 23.7176L13.8695 0H30.0233ZM68.5315 0L57.7622 39.5294L54.1725 24.7059C58.85 24.7059 62.6573 26.0784 65.5944 28.8235C68.5315 31.5686 70 35.3569 70 40.1882C70 44.9098 68.4771 48.7529 65.4312 51.7176C62.4942 54.5725 58.7957 56 54.3357 56C49.7669 56 45.9596 54.5725 42.9138 51.7176C39.9767 48.7529 38.5082 44.9098 38.5082 40.1882C38.5082 38.7608 38.6169 37.3882 38.8345 36.0706C39.0521 34.6431 39.4872 32.9961 40.1399 31.1294C40.7925 29.2627 41.7172 26.7922 42.9138 23.7176L52.3776 0H68.5315Z" fill="white" fill-opacity="0.21"/>
</svg>
