<svg width="53" height="53" viewBox="0 0 53 53" fill="none" xmlns="http://www.w3.org/2000/svg">
<circle cx="26.5" cy="26.5" r="26.5" fill="#EA9C99"/>
<path d="M33.5509 24.7716C33.9208 25.1438 34.4174 25.3459 34.9421 25.3459C35.4669 25.3459 35.9635 25.1403 36.3333 24.7716L40.4224 20.6808C40.7922 20.3086 40.9965 19.8159 40.9965 19.2877C40.9965 18.7595 40.7922 18.2668 40.4224 17.8946L36.0833 13.5557C35.3401 12.8148 34.044 12.8148 33.3009 13.5557L29.2153 17.6464C28.8455 18.0186 28.6413 18.5114 28.6413 19.0396C28.6413 19.5677 28.8455 20.0605 29.2153 20.4327L33.5509 24.7716ZM30.4058 18.8375L34.4948 14.7467C34.5653 14.6758 34.6498 14.6652 34.6921 14.6652C34.7343 14.6652 34.8189 14.6758 34.8893 14.7467L39.2284 19.0892C39.2989 19.1601 39.3094 19.2452 39.3094 19.2877C39.3094 19.3302 39.2989 19.4153 39.2284 19.4862L35.1429 23.577C35.0725 23.6479 34.9879 23.6585 34.9457 23.6585C34.9034 23.6585 34.8189 23.6479 34.7484 23.577L30.4058 19.2381C30.3353 19.1672 30.3248 19.0821 30.3248 19.0396C30.3248 18.997 30.3353 18.9084 30.4058 18.8375ZM20.4138 29.2417C19.6707 28.5008 18.3711 28.5008 17.6314 29.2417L17.0926 29.7805C16.5537 30.3229 15.9831 31.2835 15.7718 32.0173L13.9721 38.2102C13.8206 38.7277 13.8875 39.2098 14.1587 39.5714C14.4053 39.9011 14.7997 40.089 15.24 40.089C15.4161 40.089 15.6028 40.0606 15.7894 40.0004L22.2136 38.0117C22.9391 37.7884 23.8936 37.2105 24.4289 36.6753L24.7459 36.3598C25.1157 35.9876 25.32 35.4948 25.32 34.9666C25.32 34.4385 25.1157 33.9457 24.7459 33.5735L20.4138 29.2417ZM23.5555 35.1687L23.2385 35.4842C22.9004 35.8245 22.1748 36.2605 21.717 36.4023L17.8745 37.5898L16.4199 35.8351L17.392 32.4923C17.5258 32.035 17.952 31.3119 18.2865 30.9787L18.8254 30.4398C18.8958 30.369 18.9804 30.3583 19.0226 30.3583C19.0649 30.3583 19.1494 30.369 19.2199 30.4398L23.552 34.7752C23.6224 34.8461 23.633 34.9312 23.633 34.9737C23.6365 35.0163 23.6259 35.1013 23.5555 35.1687ZM20.6921 13.5557C19.9489 12.8148 18.6528 12.8148 17.9097 13.5557L13.5741 17.8946C13.2043 18.2668 13 18.7595 13 19.2877C13 19.8159 13.2043 20.3086 13.5741 20.6808L33.3044 40.4257C33.6742 40.7979 34.1708 41 34.6956 41C35.2204 41 35.717 40.7944 36.0868 40.4257L40.4259 36.0833C40.7957 35.7111 41 35.2183 41 34.6901C41 34.162 40.7957 33.6692 40.4259 33.297L20.6921 13.5557ZM39.2284 34.8887L34.8928 39.2311C34.8224 39.302 34.7379 39.3126 34.6956 39.3126C34.6533 39.3126 34.5688 39.302 34.4984 39.2311L14.7681 19.4862C14.6976 19.4153 14.687 19.3302 14.687 19.2877C14.687 19.2452 14.6976 19.1601 14.7681 19.0892L19.1036 14.7467C19.1741 14.6758 19.2586 14.6652 19.3009 14.6652C19.3431 14.6652 19.4277 14.6758 19.4981 14.7467L20.0863 15.3352L18.0752 17.3522C17.7442 17.6819 17.7442 18.2172 18.0752 18.5468C18.2408 18.7099 18.4556 18.795 18.6704 18.795C18.8853 18.795 19.1036 18.7134 19.2657 18.5468L21.2803 16.5298L22.2594 17.5117L21.3894 18.3838C21.0619 18.7134 21.0619 19.2487 21.3894 19.5784C21.555 19.7414 21.7698 19.8265 21.9847 19.8265C22.1995 19.8265 22.4179 19.745 22.5799 19.5784L23.4498 18.7063L24.4289 19.6883L22.4143 21.7053C22.0833 22.035 22.0833 22.5702 22.4143 22.8999C22.5799 23.063 22.7947 23.1481 23.0096 23.1481C23.2244 23.1481 23.4392 23.0665 23.6048 22.8999L25.6194 20.8829L26.602 21.8648L25.7321 22.7369C25.4045 23.0665 25.4045 23.6018 25.7321 23.9315C25.8976 24.0981 26.1125 24.1796 26.3273 24.1796C26.5421 24.1796 26.7605 24.0981 26.9225 23.9315L27.7925 23.0594L28.7751 24.0414L26.7605 26.0584C26.433 26.3881 26.433 26.9233 26.7605 27.253C26.926 27.4161 27.1409 27.5012 27.3557 27.5012C27.5706 27.5012 27.7889 27.4196 27.9509 27.253L29.9655 25.236L30.9482 26.2179L30.0782 27.09C29.7507 27.4196 29.7507 27.9549 30.0782 28.2846C30.2438 28.4512 30.4586 28.5327 30.6735 28.5327C30.8883 28.5327 31.1067 28.4512 31.2687 28.2846L32.1386 27.4125L33.1177 28.3945L31.1031 30.4115C30.7721 30.7412 30.7721 31.2764 31.1031 31.6061C31.2687 31.7727 31.4835 31.8542 31.6984 31.8542C31.9132 31.8542 32.1281 31.7727 32.2936 31.6061L34.3082 29.5891L35.2873 30.571L34.4174 31.443C34.0898 31.7727 34.0898 32.308 34.4174 32.6377C34.5829 32.8007 34.7977 32.8858 35.0126 32.8858C35.2274 32.8858 35.4458 32.8043 35.6078 32.6377L36.4777 31.7656L37.4604 32.7476L35.4458 34.7646C35.1147 35.0943 35.1147 35.6295 35.4458 35.9592C35.6113 36.1223 35.8262 36.2073 36.041 36.2073C36.2558 36.2073 36.4742 36.1258 36.6362 35.9592L38.6508 33.9422L39.2108 34.5058C39.2813 34.5767 39.2918 34.6618 39.2918 34.7043C39.2918 34.7469 39.2989 34.8178 39.2284 34.8887Z" fill="black"/>
</svg>
