<svg width="53" height="53" viewBox="0 0 53 53" fill="none" xmlns="http://www.w3.org/2000/svg">
<circle cx="26.5" cy="26.5" r="26.5" fill="#67C792"/>
<path d="M35.9035 13.9873C36.6239 14.3475 36.9158 15.2235 36.5556 15.9438L34.8428 19.3696C38.6163 22.0055 41.0846 26.3812 41.0846 31.3334V32.7917C41.0846 34.4024 39.7788 35.7084 38.168 35.7084H14.8346C13.2238 35.7084 11.918 34.4024 11.918 32.7917V31.3334C11.918 26.3812 14.3863 22.0055 18.1598 19.3696L16.4469 15.9438C16.0867 15.2235 16.3787 14.3475 17.0991 13.9873C17.8195 13.6271 18.6955 13.9191 19.0557 14.6395L20.7088 17.9457C22.4844 17.1764 24.443 16.75 26.5013 16.75C28.5596 16.75 30.5183 17.1764 32.2938 17.9457L33.947 14.6395C34.3072 13.9191 35.1831 13.6271 35.9035 13.9873ZM26.5013 19.6667C20.058 19.6667 14.8346 24.89 14.8346 31.3334V32.7917H38.168V31.3334C38.168 24.89 32.9447 19.6667 26.5013 19.6667ZM21.3971 25.5C22.6053 25.5 23.5846 26.4793 23.5846 27.6875C23.5846 28.8956 22.6053 29.875 21.3971 29.875C20.189 29.875 19.2096 28.8956 19.2096 27.6875C19.2096 26.4793 20.189 25.5 21.3971 25.5ZM31.6055 25.5C32.8136 25.5 33.793 26.4793 33.793 27.6875C33.793 28.8956 32.8136 29.875 31.6055 29.875C30.3974 29.875 29.418 28.8956 29.418 27.6875C29.418 26.4793 30.3974 25.5 31.6055 25.5Z" fill="black"/>
</svg>
