<svg width="53" height="53" viewBox="0 0 53 53" fill="none" xmlns="http://www.w3.org/2000/svg">
<circle cx="26.5" cy="26.5" r="26.5" fill="#FFE74E"/>
<path d="M37.9223 39.9926C37.9223 39.9382 35.8211 34.7123 35.8211 31.6857C35.8588 30.5875 36.1337 29.5104 36.6267 28.5284C37.562 26.4409 38.0302 24.1744 37.9985 21.8872C37.9985 15.5835 32.9577 11 26.0226 11C19.6862 11 15.4402 13.994 14.0467 19.4485C13.544 21.2755 13.5066 23.1993 13.9378 25.0445L12.1632 28.5719C11.9509 29.0889 11.9455 29.6677 12.1482 30.1886C12.3509 30.7094 12.746 31.1324 13.2519 31.3699C13.5562 31.4917 13.8743 31.5758 14.1991 31.6203L15.1354 36.193C15.1966 36.6444 15.4074 37.0622 15.7342 37.3797C16.1363 37.7023 16.5981 37.9424 17.0932 38.0862C17.5883 38.2301 18.1069 38.2749 18.6193 38.218C19.3108 38.1272 20.0104 38.3109 20.5681 38.7297C20.7105 38.8313 20.8262 38.9658 20.9056 39.1216L21.7875 40.8853C21.845 41.0236 21.9305 41.1484 22.0384 41.2521C22.1464 41.3558 22.2746 41.4361 22.4151 41.488C22.5555 41.5399 22.7051 41.5623 22.8546 41.5538C23.0041 41.5452 23.1502 41.506 23.2838 41.4384C23.4174 41.3708 23.5356 41.2765 23.6311 41.1611C23.7266 41.0458 23.7973 40.9121 23.8387 40.7682C23.8801 40.6243 23.8915 40.4735 23.872 40.325C23.8525 40.1766 23.8026 40.0338 23.7254 39.9055L22.8544 38.1527C22.6202 37.6921 22.2853 37.2902 21.8746 36.9768C20.9324 36.2851 19.774 35.953 18.6084 36.0405C18.1655 36.1064 17.7131 36.0342 17.3128 35.8337L16.2241 30.3901C16.1755 30.1385 16.0396 29.9121 15.8405 29.7508C15.6413 29.5895 15.3916 29.5036 15.1354 29.5082C14.8144 29.5211 14.4937 29.4769 14.1882 29.3776L16.1044 25.6542C16.169 25.5123 16.2025 25.3582 16.2025 25.2023C16.2025 25.0464 16.169 24.8924 16.1044 24.7505C15.6552 23.189 15.6552 21.5325 16.1044 19.971C17.3128 15.5291 20.6987 13.1774 26.0226 13.1774C31.6948 13.1774 35.8211 16.8355 35.8211 21.8872C35.8543 23.8908 35.4415 25.8766 34.6126 27.701C34.0061 28.9438 33.6756 30.3031 33.6436 31.6857C33.6436 35.126 35.8211 40.5696 35.8973 40.7982C35.9779 41.0008 36.1176 41.1745 36.2981 41.2968C36.4786 41.4191 36.6917 41.4844 36.9098 41.4841C37.0477 41.4845 37.1844 41.4586 37.3126 41.4079C37.4456 41.3551 37.567 41.2766 37.6696 41.1769C37.7723 41.0772 37.8543 40.9582 37.9109 40.8267C37.9676 40.6952 37.9977 40.5539 37.9997 40.4108C38.0016 40.2676 37.9753 40.1255 37.9223 39.9926Z" fill="black"/>
<path d="M26.0212 25.1533C27.2238 25.1533 28.1986 24.1785 28.1986 22.9759C28.1986 21.7733 27.2238 20.7985 26.0212 20.7985C24.8186 20.7985 23.8438 21.7733 23.8438 22.9759C23.8438 24.1785 24.8186 25.1533 26.0212 25.1533Z" fill="black"/>
<path d="M34.1865 22.6711C34.1869 22.2133 34.043 21.767 33.7752 21.3956C33.5075 21.0243 33.1295 20.7467 32.695 20.6025L32.1724 20.4283L32.4119 19.9384C32.6198 19.5287 32.6928 19.0638 32.6204 18.6101C32.5481 18.1564 32.3341 17.7373 32.0091 17.4126L31.5845 16.988C31.2606 16.6653 30.8434 16.4528 30.392 16.3805C29.9406 16.3082 29.4779 16.3798 29.0695 16.5852L28.5687 16.8247L28.3945 16.3021C28.2503 15.8676 27.9728 15.4896 27.6014 15.2218C27.2301 14.954 26.7838 14.8101 26.326 14.8105H25.7163C25.2584 14.8101 24.8121 14.954 24.4408 15.2218C24.0694 15.4896 23.7919 15.8676 23.6477 16.3021L23.4735 16.8247L22.9836 16.5852C22.5739 16.3773 22.109 16.3043 21.6553 16.3766C21.2016 16.449 20.7824 16.663 20.4578 16.988L20.0332 17.4126C19.7105 17.7364 19.498 18.1536 19.4257 18.605C19.3534 19.0564 19.425 19.5191 19.6303 19.9275L19.8698 20.4283L19.3473 20.6025C18.9127 20.7467 18.5347 21.0243 18.267 21.3956C17.9992 21.767 17.8553 22.2133 17.8557 22.6711V23.2808C17.8553 23.7386 17.9992 24.1849 18.267 24.5563C18.5347 24.9276 18.9127 25.2051 19.3473 25.3494L19.8698 25.5235L19.6303 26.0135C19.4224 26.4231 19.3494 26.8881 19.4218 27.3418C19.4941 27.7954 19.7081 28.2146 20.0332 28.5393L20.4578 28.9639C20.7803 29.2883 21.1969 29.5029 21.6484 29.5772C22.0998 29.6514 22.5632 29.5816 22.9727 29.3776L23.4735 29.1272L23.6477 29.6498C23.7919 30.0843 24.0694 30.4623 24.4408 30.7301C24.8121 30.9979 25.2584 31.1418 25.7163 31.1413H26.326C26.7838 31.1418 27.2301 30.9979 27.6014 30.7301C27.9728 30.4623 28.2503 30.0843 28.3945 29.6498L28.5687 29.1272L29.0586 29.3667C29.4683 29.5746 29.9333 29.6476 30.3869 29.5753C30.8406 29.5029 31.2598 29.2889 31.5845 28.9639L32.0091 28.5393C32.3335 28.2167 32.5481 27.8001 32.6223 27.3487C32.6966 26.8972 32.6268 26.4339 32.4228 26.0244L32.1724 25.5235L32.695 25.3494C33.1295 25.2051 33.5075 24.9276 33.7752 24.5563C34.043 24.1849 34.1869 23.7386 34.1865 23.2808V22.6711ZM32.0091 23.2808L30.5611 23.7598C30.4038 23.8111 30.2603 23.8976 30.1414 24.0127C30.0226 24.1278 29.9315 24.2684 29.8752 24.4239C29.8436 24.5165 29.8073 24.6073 29.7663 24.6961C29.6967 24.8424 29.6605 25.0023 29.6605 25.1643C29.6605 25.3262 29.6967 25.4862 29.7663 25.6324L30.4522 26.9933L30.0167 27.4288L28.6558 26.7429C28.5096 26.6733 28.3496 26.6371 28.1877 26.6371C28.0257 26.6371 27.8657 26.6733 27.7195 26.7429L27.4473 26.8518C27.2918 26.9081 27.1512 26.9992 27.0361 27.118C26.921 27.2369 26.8345 27.3804 26.7832 27.5377L26.3042 28.9857H25.6945L25.2155 27.5377C25.1641 27.3804 25.0777 27.2369 24.9626 27.118C24.8475 26.9992 24.7069 26.9081 24.5513 26.8518L24.2792 26.7429C24.1382 26.6828 23.986 26.6531 23.8328 26.6558C23.6632 26.6535 23.4955 26.6907 23.3429 26.7647L21.982 27.4506L21.5465 27.0151L22.2324 25.6542C22.302 25.508 22.3382 25.348 22.3382 25.186C22.3382 25.0241 22.302 24.8641 22.2324 24.7179C22.1914 24.6291 22.1551 24.5383 22.1235 24.4457C22.0671 24.2902 21.9761 24.1495 21.8572 24.0345C21.7384 23.9194 21.5949 23.8329 21.4376 23.7816L19.9896 23.3026V22.6929L21.4376 22.2138C21.5949 22.1625 21.7384 22.076 21.8572 21.961C21.9761 21.8459 22.0671 21.7053 22.1235 21.5497C22.1551 21.4572 22.1914 21.3663 22.2324 21.2775C22.302 21.1313 22.3382 20.9714 22.3382 20.8094C22.3382 20.6474 22.302 20.4875 22.2324 20.3412L21.5465 18.9803L21.982 18.5449L23.3429 19.2307C23.4891 19.3004 23.649 19.3365 23.811 19.3365C23.973 19.3365 24.1329 19.3004 24.2792 19.2307L24.5513 19.1219C24.7069 19.0655 24.8475 18.9745 24.9626 18.8556C25.0777 18.7368 25.1641 18.5933 25.2155 18.436L25.6945 16.988H26.3042L26.7832 18.436C26.8345 18.5933 26.921 18.7368 27.0361 18.8556C27.1512 18.9745 27.2918 19.0655 27.4473 19.1219L27.7195 19.2307C27.8657 19.3004 28.0257 19.3365 28.1877 19.3365C28.3496 19.3365 28.5096 19.3004 28.6558 19.2307L30.0167 18.5449L30.4522 18.9803L29.7663 20.3412C29.6967 20.4875 29.6605 20.6474 29.6605 20.8094C29.6605 20.9714 29.6967 21.1313 29.7663 21.2775C29.8073 21.3663 29.8436 21.4572 29.8752 21.5497C29.9315 21.7053 30.0226 21.8459 30.1414 21.961C30.2603 22.076 30.4038 22.1625 30.5611 22.2138L32.0091 22.6929V23.2808Z" fill="black"/>
</svg>
