<svg width="53" height="53" viewBox="0 0 53 53" fill="none" xmlns="http://www.w3.org/2000/svg">
<circle cx="26.5" cy="26.5" r="26.5" fill="#C897EB"/>
<path d="M12 27H15C14.9965 25.423 15.3043 23.8609 15.9058 22.4032C16.5074 20.9455 17.3909 19.621 18.5055 18.5055C19.5972 17.4102 20.8925 16.5388 22.3185 15.9405C25.2577 14.7194 28.5582 14.6973 31.5135 15.879C31.5424 16.8502 31.9489 17.7718 32.6467 18.448C33.3444 19.1242 34.2784 19.5016 35.25 19.5C37.329 19.5 39 17.829 39 15.75C39 13.671 37.329 12 35.25 12C34.2165 12 33.282 12.414 32.6055 13.0875C28.959 11.628 24.771 11.6505 21.153 13.176C19.3697 13.9255 17.7495 15.0153 16.383 16.3845C15.0133 17.7502 13.9229 19.37 13.173 21.153C12.3948 23.0039 11.996 24.9921 12 27ZM38.0595 31.683C37.458 33.111 36.594 34.395 35.4945 35.4944C34.395 36.5939 33.111 37.4579 31.6815 38.0594C28.7423 39.2805 25.4418 39.3026 22.4865 38.1209C22.4576 37.1497 22.0511 36.2281 21.3533 35.5519C20.6556 34.8757 19.7216 34.4984 18.75 34.5C16.671 34.5 15 36.1709 15 38.2499C15 40.3289 16.671 41.9999 18.75 41.9999C19.7835 41.9999 20.718 41.5859 21.3945 40.9124C23.1758 41.6318 25.079 42.001 27 41.9999C29.9498 42.0056 32.8356 41.14 35.2952 39.5116C37.7548 37.8833 39.6787 35.5647 40.8255 32.847C41.6047 30.9963 42.0041 29.008 42 27H39C39.0037 28.6082 38.6839 30.2008 38.0595 31.683Z" fill="black"/>
<path d="M26.9984 20.193C23.2454 20.193 20.1914 23.247 20.1914 27C20.1914 30.753 23.2454 33.807 26.9984 33.807C30.7514 33.807 33.8054 30.753 33.8054 27C33.8054 23.247 30.7514 20.193 26.9984 20.193ZM26.9984 30.807C24.8999 30.807 23.1914 29.0985 23.1914 27C23.1914 24.9015 24.8999 23.193 26.9984 23.193C29.0969 23.193 30.8054 24.9015 30.8054 27C30.8054 29.0985 29.0969 30.807 26.9984 30.807Z" fill="black"/>
</svg>
