<svg width="53" height="53" viewBox="0 0 53 53" fill="none" xmlns="http://www.w3.org/2000/svg">
<circle cx="26.5" cy="26.5" r="26.5" fill="white"/>
<path d="M33.8271 18.7306C34.253 18.2574 34.9818 18.219 35.455 18.6449L38.1252 21.0481C39.257 22.0665 40.1957 22.9113 40.8402 23.6776C41.518 24.4832 41.9998 25.3489 41.9998 26.4175C41.9998 27.486 41.518 28.3517 40.8402 29.1574C40.1957 29.9236 39.257 30.7684 38.1252 31.7867L35.455 34.1901C34.9818 34.6159 34.253 34.5775 33.8271 34.1043C33.4013 33.6311 33.4397 32.9023 33.9129 32.4765L36.52 30.13C37.7309 29.0402 38.5472 28.3019 39.0761 27.6734C39.5837 27.07 39.6945 26.7178 39.6945 26.4175C39.6945 26.1172 39.5837 25.7649 39.0761 25.1616C38.5472 24.533 37.7309 23.7947 36.52 22.7049L33.9129 20.3584C33.4397 19.9325 33.4013 19.2037 33.8271 18.7306Z" fill="black"/>
<path d="M20.0869 20.3584C20.5601 19.9325 20.5985 19.2037 20.1726 18.7306C19.7468 18.2574 19.018 18.219 18.5448 18.6449L15.8745 21.0481C14.7429 22.0665 13.8042 22.9113 13.1596 23.6776C12.4818 24.4832 12 25.3489 12 26.4175C12 27.486 12.4818 28.3517 13.1596 29.1574C13.8042 29.9236 14.7429 30.7684 15.8745 31.7867L18.5448 34.1901C19.018 34.6159 19.7468 34.5775 20.1726 34.1043C20.5985 33.6311 20.5601 32.9023 20.0869 32.4765L17.4797 30.13C16.2689 29.0402 15.4525 28.3019 14.9237 27.6734C14.4161 27.07 14.3053 26.7178 14.3053 26.4175C14.3053 26.1172 14.4161 25.7649 14.9237 25.1616C15.4525 24.533 16.2689 23.7947 17.4797 22.7049L20.0869 20.3584Z" fill="black"/>
<path d="M30.3511 14.0396C30.966 14.2043 31.3308 14.8364 31.1661 15.4512L25.0593 38.2423C24.8945 38.8572 24.2624 39.222 23.6476 39.0573C23.0327 38.8925 22.6678 38.2604 22.8325 37.6455L28.9393 14.8546C29.1041 14.2397 29.7362 13.8748 30.3511 14.0396Z" fill="black"/>
</svg>
