<svg width="53" height="53" viewBox="0 0 53 53" fill="none" xmlns="http://www.w3.org/2000/svg">
<circle cx="26.5" cy="26.5" r="26.5" fill="#DAD07A"/>
<path d="M40.5091 17.9273H39.7384C39.6364 17.9251 39.5374 17.8923 39.4543 17.8333C39.3711 17.7742 39.3076 17.6915 39.272 17.5959V17.5898C39.2304 17.497 39.2175 17.3939 39.235 17.2937C39.2525 17.1935 39.2996 17.1009 39.3702 17.0277L39.9151 16.4828C39.9617 16.4371 39.9987 16.3825 40.0239 16.3224C40.0492 16.2622 40.0622 16.1976 40.0622 16.1324C40.0622 16.0671 40.0492 16.0025 40.0239 15.9424C39.9987 15.8822 39.9617 15.8277 39.9151 15.782L39.2266 15.0935C39.1809 15.0469 39.1264 15.0099 39.0662 14.9847C39.006 14.9594 38.9415 14.9464 38.8762 14.9464C38.811 14.9464 38.7464 14.9594 38.6862 14.9847C38.626 15.0099 38.5715 15.0469 38.5258 15.0935L37.9809 15.6384C37.9078 15.7091 37.815 15.7562 37.7148 15.7735C37.6146 15.7907 37.5114 15.7775 37.4188 15.7354H37.4115C37.3162 15.6994 37.2339 15.6358 37.175 15.5527C37.1162 15.4696 37.0836 15.3708 37.0813 15.269V14.4909C37.0813 14.3607 37.0296 14.2358 36.9375 14.1438C36.8455 14.0517 36.7206 14 36.5904 14H35.6C35.4698 14 35.3449 14.0517 35.2529 14.1438C35.1608 14.2358 35.1091 14.3607 35.1091 14.4909V15.2616C35.1068 15.3634 35.0742 15.4622 35.0154 15.5453C34.9565 15.6284 34.8742 15.692 34.779 15.728H34.7716C34.679 15.7701 34.5759 15.7834 34.4756 15.7661C34.3754 15.7488 34.2826 15.7017 34.2095 15.631L33.6646 15.0861C33.6189 15.0396 33.5644 15.0026 33.5042 14.9773C33.444 14.9521 33.3795 14.9391 33.3142 14.9391C33.249 14.9391 33.1844 14.9521 33.1242 14.9773C33.064 15.0026 33.0095 15.0396 32.9638 15.0861L32.2753 15.7746C32.2287 15.8203 32.1918 15.8749 32.1665 15.935C32.1412 15.9952 32.1282 16.0598 32.1282 16.125C32.1282 16.1903 32.1412 16.2549 32.1665 16.315C32.1918 16.3752 32.2287 16.4297 32.2753 16.4754L32.8202 17.0203C32.8908 17.0935 32.9379 17.1861 32.9554 17.2863C32.9729 17.3865 32.96 17.4896 32.9184 17.5824V17.5885C32.8828 17.6841 32.8193 17.7668 32.7361 17.8259C32.653 17.885 32.554 17.9177 32.452 17.9199H31.6727C31.5425 17.9199 31.4177 17.9716 31.3256 18.0637C31.2335 18.1558 31.1818 18.2806 31.1818 18.4108V19.4C31.1818 19.5302 31.2335 19.6551 31.3256 19.7471C31.4177 19.8392 31.5425 19.8909 31.6727 19.8909H32.4435C32.5452 19.8932 32.644 19.9258 32.7271 19.9846C32.8102 20.0435 32.8739 20.1258 32.9098 20.221V20.2284C32.9514 20.3212 32.9643 20.4243 32.9468 20.5245C32.9293 20.6247 32.8822 20.7173 32.8116 20.7905L32.2667 21.3354C32.2202 21.3811 32.1832 21.4356 32.1579 21.4958C32.1327 21.556 32.1197 21.6205 32.1197 21.6858C32.1197 21.751 32.1327 21.8156 32.1579 21.8758C32.1832 21.936 32.2202 21.9905 32.2667 22.0362L32.9552 22.7247C33.0009 22.7713 33.0555 22.8082 33.1156 22.8335C33.1758 22.8588 33.2404 22.8718 33.3056 22.8718C33.3709 22.8718 33.4355 22.8588 33.4956 22.8335C33.5558 22.8082 33.6103 22.7713 33.656 22.7247L34.2009 22.1798C34.2741 22.1092 34.3667 22.0621 34.4669 22.0446C34.5671 22.0271 34.6702 22.04 34.763 22.0816H34.7704C34.8658 22.1173 34.9483 22.1808 35.0072 22.264C35.0661 22.3471 35.0986 22.4461 35.1005 22.548V23.3273C35.1005 23.4575 35.1522 23.5823 35.2443 23.6744C35.3363 23.7665 35.4612 23.8182 35.5914 23.8182H36.5818C36.712 23.8182 36.8369 23.7665 36.9289 23.6744C37.021 23.5823 37.0727 23.4575 37.0727 23.3273V22.5516C37.0746 22.4498 37.1072 22.3508 37.166 22.2677C37.2249 22.1845 37.3074 22.1209 37.4029 22.0853H37.4102C37.503 22.0437 37.6061 22.0308 37.7063 22.0483C37.8065 22.0658 37.8991 22.1128 37.9723 22.1835L38.5172 22.7284C38.5629 22.7749 38.6174 22.8119 38.6776 22.8372C38.7378 22.8624 38.8024 22.8754 38.8676 22.8754C38.9329 22.8754 38.9975 22.8624 39.0576 22.8372C39.1178 22.8119 39.1723 22.7749 39.218 22.7284L39.9065 22.0399C39.9531 21.9942 39.9901 21.9396 40.0153 21.8795C40.0406 21.8193 40.0536 21.7547 40.0536 21.6895C40.0536 21.6242 40.0406 21.5596 40.0153 21.4995C39.9901 21.4393 39.9531 21.3848 39.9065 21.3391L39.3616 20.7942C39.291 20.721 39.2439 20.6284 39.2264 20.5282C39.2089 20.428 39.2218 20.3249 39.2634 20.2321V20.2247C39.2994 20.1295 39.363 20.0471 39.4461 19.9883C39.5292 19.9295 39.628 19.8968 39.7298 19.8946H40.5091C40.5736 19.8946 40.6374 19.8819 40.697 19.8572C40.7565 19.8326 40.8106 19.7964 40.8562 19.7508C40.9018 19.7052 40.938 19.6511 40.9626 19.5915C40.9873 19.532 41 19.4681 41 19.4037V18.4182C41 18.288 40.9483 18.1631 40.8562 18.0711C40.7642 17.979 40.6393 17.9273 40.5091 17.9273ZM36.0909 20.3818C35.7996 20.3818 35.5149 20.2954 35.2727 20.1336C35.0305 19.9718 34.8418 19.7418 34.7303 19.4727C34.6188 19.2036 34.5897 18.9075 34.6465 18.6218C34.7033 18.3361 34.8436 18.0737 35.0495 17.8677C35.2555 17.6618 35.5179 17.5215 35.8036 17.4647C36.0893 17.4078 36.3854 17.437 36.6545 17.5485C36.9236 17.6599 37.1536 17.8487 37.3154 18.0909C37.4773 18.3331 37.5636 18.6178 37.5636 18.9091C37.5636 19.2997 37.4085 19.6743 37.1323 19.9505C36.8561 20.2267 36.4815 20.3818 36.0909 20.3818ZM34.8636 26.2727C34.577 26.2728 34.2993 26.3733 34.079 26.5566C33.8586 26.74 33.7094 26.9947 33.6572 27.2766C33.0669 27.8007 30.0454 28.7273 25.0455 28.7273C22.9885 28.7273 17.7125 28.3591 16.4545 27.2901V20.1855C19.2416 21.0129 22.1386 21.4102 25.0455 21.3636C25.9144 21.3636 26.7636 21.3366 27.5798 21.2839C27.9053 21.2627 28.209 21.1131 28.4242 20.868C28.6394 20.6229 28.7484 20.3023 28.7273 19.9768C28.7061 19.6513 28.5565 19.3476 28.3114 19.1324C28.0663 18.9172 27.7457 18.8082 27.4202 18.8293C26.6605 18.8833 25.8653 18.9091 25.0455 18.9091C22.2393 19.0448 19.4338 18.6278 16.7884 17.6818C19.4338 16.7358 22.2393 16.3189 25.0455 16.4545C25.8653 16.4545 26.6605 16.4803 27.4202 16.5306C27.7457 16.5518 28.0663 16.4428 28.3114 16.2276C28.5565 16.0124 28.7061 15.7086 28.7273 15.3831C28.7484 15.0576 28.6394 14.7371 28.4242 14.492C28.209 14.2468 27.9053 14.0972 27.5798 14.0761C26.7636 14.027 25.9144 14 25.0455 14C23.2045 14 14 14.178 14 17.6818V37.3182C14 40.822 23.2045 41 25.0455 41C26.8864 41 36.0909 40.822 36.0909 37.3182V27.5C36.0909 27.1745 35.9616 26.8623 35.7315 26.6322C35.5013 26.402 35.1891 26.2727 34.8636 26.2727ZM33.6364 37.112C33.0006 37.6397 29.9901 38.5455 25.0455 38.5455C20.1008 38.5455 17.0903 37.6397 16.4545 37.112V30.0122C19.2374 30.8582 22.1377 31.253 25.0455 31.1818C27.9528 31.2457 30.8519 30.851 33.6364 30.0122V37.112Z" fill="black"/>
</svg>
