<svg width="52" height="49" viewBox="0 0 52 49" fill="none" xmlns="http://www.w3.org/2000/svg">
<path d="M9.96215 3.0625H41.9195C45.4348 3.0625 48.311 5.81875 48.311 9.1875V39.8125C48.311 43.1813 45.4348 45.9375 41.9195 45.9375H9.96215C6.44684 45.9375 3.57068 43.1813 3.57068 39.8125V9.1875C3.57068 5.81875 6.44684 3.0625 9.96215 3.0625Z" fill="black"/>
<path d="M44.3164 24.5C44.3164 22.05 41.2804 20.0594 36.8064 18.6812C37.9249 14.2406 37.4456 10.7188 35.3683 9.64688C34.7292 9.34063 34.2498 9.1875 33.6107 9.1875C31.5335 9.1875 28.9769 10.5656 26.4203 13.0156C23.7039 10.5656 21.1473 9.1875 19.0701 9.1875C18.4309 9.1875 17.7918 9.34063 17.3124 9.64688C15.2352 10.7188 14.7558 14.2406 15.8744 18.6812C11.4003 20.0594 8.36438 22.05 8.36438 24.5C8.36438 26.95 11.4003 28.9406 15.8744 30.3187C14.7558 34.7594 15.0754 38.2812 17.3124 39.5062C17.7918 39.8125 18.4309 39.9656 19.0701 39.9656C21.1473 39.9656 23.7039 38.5875 26.2605 36.1375C28.8171 38.5875 31.5335 39.9656 33.4509 39.9656C34.09 39.9656 34.7292 39.8125 35.2086 39.5062C37.2858 38.2812 37.7651 34.7594 36.6466 30.3187C41.2805 28.9406 44.3164 26.7969 44.3164 24.5ZM33.6107 10.8719C33.9303 10.8719 34.2498 10.8719 34.4096 11.025C35.3683 11.6375 35.8477 13.6281 35.5281 16.2312C35.3683 16.8438 35.3683 17.6094 35.2086 18.2219C33.7705 17.9156 32.1726 17.6094 30.5747 17.4562C29.616 16.2312 28.6573 15.0062 27.6986 14.0875C29.9356 11.9437 32.1726 10.8719 33.6107 10.8719ZM31.2139 27.2562C30.7345 28.175 30.0954 28.9406 29.616 29.8594C28.4975 29.8594 27.5388 30.0125 26.4203 30.0125C25.3018 30.0125 24.1833 30.0125 23.2245 29.8594C22.5854 29.0937 22.106 28.175 21.6267 27.2562C21.1473 26.3375 20.668 25.4187 20.1886 24.5C20.668 23.5812 21.1473 22.6625 21.6267 21.7437C22.106 20.825 22.7452 19.9062 23.3843 19.1406C24.3431 19.1406 25.4616 18.9875 26.5801 18.9875C27.6986 18.9875 28.6573 18.9875 29.7758 19.1406C30.415 19.9062 30.8943 20.825 31.5335 21.7437C32.0128 22.6625 32.4922 23.5812 32.9715 24.5C32.3324 25.4187 31.6932 26.3375 31.2139 27.2562ZM33.6107 26.4906C33.9303 27.4094 34.2498 28.175 34.5694 29.0937C33.6107 29.2469 32.652 29.4 31.6932 29.5531C32.0128 29.0937 32.3324 28.6344 32.652 28.0219C32.9715 27.5625 33.2911 26.95 33.6107 26.4906ZM26.2605 33.6875C25.6213 33.075 24.9822 32.3094 24.3431 31.5437C24.9822 31.5437 25.6213 31.5437 26.2605 31.5437C26.8996 31.5437 27.5388 31.5437 28.1779 31.5437C27.5388 32.3094 26.8996 33.075 26.2605 33.6875ZM20.8277 29.5531C19.869 29.4 18.9103 29.2469 17.9516 29.0937C18.2712 28.175 18.5907 27.4094 18.9103 26.4906C19.2299 26.95 19.5495 27.5625 19.869 28.0219C20.1886 28.6344 20.5082 29.0937 20.8277 29.5531ZM19.0701 22.5094C18.7505 21.5906 18.4309 20.6719 18.1114 19.9062C19.0701 19.7531 20.0288 19.6 20.9875 19.4469C20.668 19.9062 20.3484 20.5187 20.0288 20.9781C19.5495 21.4375 19.2299 22.05 19.0701 22.5094ZM26.2605 15.3125C26.8996 15.925 27.5388 16.6906 28.1779 17.4562C27.5388 17.4562 26.8996 17.4562 26.2605 17.4562C25.6213 17.4562 24.9822 17.4562 24.3431 17.4562C24.9822 16.6906 25.6213 15.925 26.2605 15.3125ZM32.652 20.9781C32.3324 20.3656 32.0128 19.9062 31.6932 19.4469C32.652 19.6 33.6107 19.7531 34.5694 19.9062C34.2498 20.825 33.9303 21.7437 33.6107 22.5094C33.2911 22.05 32.9715 21.4375 32.652 20.9781ZM17.1527 16.2312C16.8331 13.6281 17.1527 11.6375 18.2712 11.025C18.4309 10.8719 18.7505 10.8719 19.0701 10.8719C20.5082 10.8719 22.7452 11.9438 25.142 14.2406C24.1833 15.3125 23.2245 16.3844 22.2658 17.6094C20.668 17.7625 19.0701 18.0687 17.632 18.375C17.3124 17.6094 17.1527 16.8438 17.1527 16.2312ZM14.2765 27.8687C11.7199 26.7969 10.122 25.5719 10.122 24.3469C10.122 23.275 11.7199 21.8969 14.2765 20.825C14.9156 20.5187 15.5548 20.3656 16.3537 20.2125C16.8331 21.5906 17.3124 22.9687 17.9516 24.3469C17.3124 25.725 16.6733 27.1031 16.3537 28.4812C15.5548 28.4812 14.9156 28.175 14.2765 27.8687ZM18.2712 37.975C17.3124 37.3625 16.8331 35.3719 17.1527 32.7687C17.3124 32.1562 17.3124 31.3906 17.632 30.625C19.0701 30.9312 20.5082 31.2375 22.106 31.3906C23.0648 32.6156 24.0235 33.8406 25.142 34.9125C22.7452 37.0562 20.5082 38.2812 19.0701 38.2812C18.7505 38.1281 18.4309 38.1281 18.2712 37.975ZM35.5281 32.7687C35.8477 35.3719 35.5281 37.3625 34.4096 37.975C34.2498 38.1281 33.9303 38.1281 33.6107 38.1281C32.1726 38.1281 29.9356 37.0562 27.5388 34.7594C28.4975 33.6875 29.616 32.6156 30.5747 31.2375C32.1726 31.0844 33.7705 30.9312 35.0488 30.4719C35.2086 31.3906 35.3683 32.1562 35.5281 32.7687ZM38.4043 27.8687C37.7651 28.175 37.126 28.3281 36.3271 28.6344C35.8477 27.2563 35.3683 25.8781 34.7292 24.5C35.3683 23.1219 36.0075 21.5906 36.3271 20.3656C37.126 20.5187 37.7651 20.825 38.4043 20.9781C40.9609 22.05 42.5587 23.275 42.5587 24.5C42.5587 25.5719 40.9609 26.95 38.4043 27.8687Z" fill="white"/>
<path d="M26.4203 27.7156C28.3378 27.7156 29.7759 26.3375 29.7759 24.5C29.7759 22.6625 28.3378 21.2844 26.4203 21.2844C24.5029 21.2844 23.0648 22.6625 23.0648 24.5C23.0648 26.3375 24.5029 27.7156 26.4203 27.7156Z" fill="white"/>
</svg>
