<svg width="624" height="624" viewBox="0 0 624 624" fill="none" xmlns="http://www.w3.org/2000/svg">
<path opacity="0.3" d="M323.621 476.986H355.624L478.436 405.981L370.623 342.376L293.57 384.695L323.621 476.986Z" fill="#CFC4B8"/>
<path d="M206.234 378.769L211.959 375.444L219.72 379.925L213.996 383.251L206.234 378.769Z" fill="#E4E3EE"/>
<path d="M220.903 376.278L226.627 372.951L220.77 382.519L215.047 385.846L220.903 376.278Z" fill="#B7B6E3"/>
<path d="M234.442 382.108L240.166 378.782L240.16 380.766L234.438 384.091L234.442 382.108Z" fill="#919DD6"/>
<path d="M219.852 373.686L225.574 370.361L240.161 378.782L234.437 382.109L219.852 373.686Z" fill="#E4E3EE"/>
<path d="M234.439 382.109L234.435 384.091L220.9 376.278L215.044 385.846L206.23 380.757L206.236 378.769L213.997 383.251L219.854 373.686L234.439 382.109Z" fill="#919DD6"/>
<path d="M227.5 366.663L233.223 363.337L240.983 367.818L235.26 371.144L227.5 366.663Z" fill="#E4E3EE"/>
<path d="M242.162 364.17L247.885 360.844L242.029 370.412L236.305 373.737L242.162 364.17Z" fill="#B7B6E3"/>
<path d="M255.702 370L261.424 366.675L261.418 368.658L255.695 371.984L255.702 370Z" fill="#919DD6"/>
<path d="M241.117 361.579L246.841 358.252L261.426 366.675L255.705 370L241.117 361.579Z" fill="#E4E3EE"/>
<path d="M255.703 370L255.696 371.984L242.163 364.171L236.306 373.737L227.492 368.649L227.499 366.662L235.259 371.144L241.115 361.579L255.703 370Z" fill="#919DD6"/>
<path d="M247.859 354.536L253.582 351.209L261.343 355.691L255.621 359.016L247.859 354.536Z" fill="#E4E3EE"/>
<path d="M262.52 352.044L268.243 348.718L262.387 358.286L256.664 361.611L262.52 352.044Z" fill="#B7B6E3"/>
<path d="M276.06 357.874L281.783 354.548L281.777 356.531L276.055 359.858L276.06 357.874Z" fill="#919DD6"/>
<path d="M261.477 349.452L267.199 346.126L281.786 354.548L276.063 357.874L261.477 349.452Z" fill="#E4E3EE"/>
<path d="M276.061 357.874L276.055 359.858L262.521 352.044L256.665 361.611L247.852 356.522L247.857 354.536L255.618 359.016L261.474 349.453L276.061 357.874Z" fill="#919DD6"/>
<path d="M185.227 391.939L190.949 388.613L198.711 393.094L192.988 396.419L185.227 391.939Z" fill="#E4E3EE"/>
<path d="M199.887 389.447L205.61 386.121L199.754 395.688L194.031 399.013L199.887 389.447Z" fill="#B7B6E3"/>
<path d="M213.427 395.276L219.152 391.951L219.145 393.934L213.422 397.261L213.427 395.276Z" fill="#919DD6"/>
<path d="M198.844 386.855L204.568 383.528L219.154 391.951L213.43 395.276L198.844 386.855Z" fill="#E4E3EE"/>
<path d="M213.428 395.276L213.422 397.261L199.888 389.447L194.032 399.013L185.219 393.926L185.224 391.939L192.985 396.419L198.841 386.855L213.428 395.276Z" fill="#919DD6"/>
<path d="M270.484 341.748L276.207 338.422L283.968 342.902L278.246 346.228L270.484 341.748Z" fill="#E4E3EE"/>
<path d="M285.153 339.256L290.876 335.93L285.02 345.496L279.297 348.823L285.153 339.256Z" fill="#B7B6E3"/>
<path d="M298.689 345.084L304.412 341.759L304.406 343.743L298.684 347.069L298.689 345.084Z" fill="#919DD6"/>
<path d="M284.102 336.665L289.824 333.338L304.411 341.759L298.688 345.084L284.102 336.665Z" fill="#E4E3EE"/>
<path d="M298.689 345.085L298.684 347.069L285.15 339.256L279.294 348.823L270.48 343.734L270.486 341.748L278.247 346.229L284.103 336.665L298.689 345.085Z" fill="#919DD6"/>
<path d="M292.234 329.399L297.957 326.072L305.718 330.554L299.996 333.879L292.234 329.399Z" fill="#E4E3EE"/>
<path d="M306.903 326.907L312.626 323.58L306.77 333.148L301.047 336.473L306.903 326.907Z" fill="#B7B6E3"/>
<path d="M320.441 332.736L326.163 329.41L326.158 331.394L320.434 334.72L320.441 332.736Z" fill="#919DD6"/>
<path d="M305.852 324.315L311.576 320.988L326.162 329.41L320.439 332.736L305.852 324.315Z" fill="#E4E3EE"/>
<path d="M320.441 332.736L320.434 334.721L306.9 326.907L301.044 336.473L292.231 331.386L292.236 329.399L299.997 333.879L305.853 324.315L320.441 332.736Z" fill="#919DD6"/>
<path d="M439.207 379.066L433.484 375.741L425.723 380.221L431.447 383.548L439.207 379.066Z" fill="#E4E3EE"/>
<path d="M424.544 376.575L418.82 373.249L424.676 382.816L430.4 386.141L424.544 376.575Z" fill="#B7B6E3"/>
<path d="M411.004 382.404L405.281 379.079L405.288 381.062L411.01 384.388L411.004 382.404Z" fill="#919DD6"/>
<path d="M425.59 373.983L419.868 370.658L405.281 379.079L411.004 382.404L425.59 373.983Z" fill="#E4E3EE"/>
<path d="M411.004 382.404L411.01 384.388L424.545 376.574L430.401 386.141L439.213 381.053L439.207 379.066L431.448 383.548L425.59 373.983L411.004 382.404Z" fill="#919DD6"/>
<path d="M417.951 366.959L412.229 363.634L404.469 368.115L410.192 371.44L417.951 366.959Z" fill="#E4E3EE"/>
<path d="M403.285 364.468L397.562 361.141L403.418 370.709L409.141 374.034L403.285 364.468Z" fill="#B7B6E3"/>
<path d="M389.746 370.297L384.023 366.972L384.029 368.955L389.752 372.281L389.746 370.297Z" fill="#919DD6"/>
<path d="M404.334 361.876L398.61 358.551L384.023 366.972L389.746 370.297L404.334 361.876Z" fill="#E4E3EE"/>
<path d="M389.746 370.297L389.752 372.281L403.286 364.468L409.142 374.034L417.957 368.946L417.95 366.959L410.19 371.44L404.334 361.876L389.746 370.297Z" fill="#919DD6"/>
<path d="M397.59 354.833L391.867 351.508L384.106 355.988L389.828 359.313L397.59 354.833Z" fill="#E4E3EE"/>
<path d="M382.926 352.341L377.203 349.014L383.059 358.582L388.782 361.908L382.926 352.341Z" fill="#B7B6E3"/>
<path d="M369.387 358.171L363.664 354.845L363.67 356.828L369.393 360.154L369.387 358.171Z" fill="#919DD6"/>
<path d="M383.973 349.749L378.251 346.423L363.664 354.845L369.387 358.171L383.973 349.749Z" fill="#E4E3EE"/>
<path d="M369.387 358.171L369.393 360.154L382.926 352.341L388.782 361.908L397.596 356.82L397.59 354.833L389.829 359.313L383.973 349.749L369.387 358.171Z" fill="#919DD6"/>
<path d="M460.218 392.235L454.496 388.909L446.734 393.391L452.457 396.717L460.218 392.235Z" fill="#E4E3EE"/>
<path d="M445.555 389.744L439.832 386.418L445.688 395.985L451.411 399.312L445.555 389.744Z" fill="#B7B6E3"/>
<path d="M432.017 395.573L426.293 392.248L426.3 394.232L432.023 397.558L432.017 395.573Z" fill="#919DD6"/>
<path d="M446.604 387.152L440.881 383.827L426.293 392.248L432.017 395.573L446.604 387.152Z" fill="#E4E3EE"/>
<path d="M432.016 395.573L432.021 397.558L445.555 389.744L451.411 399.312L460.225 394.223L460.219 392.235L452.458 396.717L446.602 387.152L432.016 395.573Z" fill="#919DD6"/>
<path d="M374.957 342.045L369.234 338.718L361.473 343.199L367.197 346.525L374.957 342.045Z" fill="#E4E3EE"/>
<path d="M360.293 339.552L354.57 336.226L360.426 345.793L366.149 349.12L360.293 339.552Z" fill="#B7B6E3"/>
<path d="M346.754 345.381L341.031 342.056L341.035 344.04L346.76 347.366L346.754 345.381Z" fill="#919DD6"/>
<path d="M361.34 336.962L355.616 333.635L341.031 342.056L346.754 345.381L361.34 336.962Z" fill="#E4E3EE"/>
<path d="M346.754 345.381L346.76 347.366L360.293 339.552L366.149 349.12L374.963 344.031L374.957 342.045L367.198 346.525L361.34 336.962L346.754 345.381Z" fill="#919DD6"/>
<path d="M353.211 329.695L347.488 326.369L339.727 330.85L345.449 334.176L353.211 329.695Z" fill="#E4E3EE"/>
<path d="M338.544 327.202L332.82 323.877L338.678 333.445L344.4 336.77L338.544 327.202Z" fill="#B7B6E3"/>
<path d="M325.005 333.033L319.281 329.707L319.287 331.691L325.01 335.017L325.005 333.033Z" fill="#919DD6"/>
<path d="M339.59 324.612L333.868 321.285L319.281 329.707L325.005 333.033L339.59 324.612Z" fill="#E4E3EE"/>
<path d="M325.008 333.033L325.012 335.017L338.547 327.202L344.403 336.77L353.217 331.681L353.211 329.695L345.45 334.176L339.593 324.612L325.008 333.033Z" fill="#919DD6"/>
<path d="M446.317 392L446.278 405.706L323.625 476.985L323.664 463.279L446.317 392Z" fill="#67C792"/>
<path d="M323.666 463.279L323.627 476.984L200.172 405.707L200.211 392.001L323.666 463.279Z" fill="#67C792"/>
<path d="M446.319 392L323.666 463.279L200.211 392.001L322.863 320.724L446.319 392Z" fill="#157B6C"/>
<path d="M416.92 388.525L416.899 395.377L323.539 449.632L323.558 442.779L416.92 388.525Z" fill="#D4D5F0"/>
<path d="M323.561 442.779L323.542 449.632L229.57 395.379L229.59 388.525L323.561 442.779Z" fill="#C4C3EC"/>
<path d="M416.923 388.525L323.561 442.779L229.59 388.525L322.951 334.27L416.923 388.525Z" fill="white"/>
<path d="M190.145 427.351L184.422 424.025L190.204 407.741L195.928 411.066L190.145 427.351Z" fill="#C4C3EC"/>
<path d="M195.927 411.066L190.203 407.741L204.789 399.32L210.514 402.645L195.927 411.066Z" fill="#E4E3EE"/>
<path d="M182.379 431.833L176.656 428.508L184.42 424.025L190.143 427.351L182.379 431.833Z" fill="#E4E3EE"/>
<path d="M182.385 433.82L176.662 430.495L176.656 428.508L182.379 431.833L182.385 433.82Z" fill="#B7B6E3"/>
<path d="M210.513 402.645L210.519 404.629L196.982 412.445L191.201 428.731L182.385 433.82L182.379 431.833L190.143 427.351L195.927 411.066L210.513 402.645Z" fill="#919DD6"/>
<path d="M211.66 439.668L205.938 436.341L211.721 420.057L217.443 423.383L211.66 439.668Z" fill="#C4C3EC"/>
<path d="M217.44 423.383L211.719 420.058L226.304 411.635L232.028 414.962L217.44 423.383Z" fill="#E4E3EE"/>
<path d="M203.895 444.149L198.172 440.823L205.936 436.341L211.659 439.668L203.895 444.149Z" fill="#E4E3EE"/>
<path d="M203.902 446.137L198.179 442.81L198.172 440.823L203.895 444.149L203.902 446.137Z" fill="#B7B6E3"/>
<path d="M232.029 414.962L232.033 416.946L218.496 424.76L212.717 441.046L203.902 446.137L203.895 444.149L211.659 439.668L217.441 423.383L232.029 414.962Z" fill="#919DD6"/>
<path d="M233.012 452.11L227.289 448.785L233.073 432.5L238.796 435.825L233.012 452.11Z" fill="#C4C3EC"/>
<path d="M238.793 435.825L233.07 432.5L247.655 424.079L253.379 427.405L238.793 435.825Z" fill="#E4E3EE"/>
<path d="M225.246 456.593L219.523 453.268L227.287 448.785L233.01 452.11L225.246 456.593Z" fill="#E4E3EE"/>
<path d="M225.253 458.579L219.529 455.254L219.523 453.268L225.246 456.593L225.253 458.579Z" fill="#B7B6E3"/>
<path d="M253.38 427.405L253.386 429.388L239.849 437.204L234.068 453.49L225.253 458.579L225.246 456.593L233.01 452.11L238.794 435.825L253.38 427.405Z" fill="#919DD6"/>
<path d="M254.348 464.464L248.625 461.139L254.409 444.854L260.132 448.179L254.348 464.464Z" fill="#C4C3EC"/>
<path d="M260.129 448.179L254.406 444.854L268.993 436.433L274.717 439.758L260.129 448.179Z" fill="#E4E3EE"/>
<path d="M246.584 468.947L240.859 465.621L248.623 461.139L254.346 464.464L246.584 468.947Z" fill="#E4E3EE"/>
<path d="M246.589 470.934L240.865 467.608L240.859 465.621L246.584 468.947L246.589 470.934Z" fill="#B7B6E3"/>
<path d="M274.72 439.758L274.726 441.742L261.188 449.558L255.408 465.844L246.591 470.934L246.586 468.947L254.349 464.464L260.132 448.179L274.72 439.758Z" fill="#919DD6"/>
<path d="M275.957 476.733L270.234 473.407L276.018 457.122L281.741 460.448L275.957 476.733Z" fill="#C4C3EC"/>
<path d="M281.738 460.448L276.016 457.122L290.602 448.701L296.326 452.027L281.738 460.448Z" fill="#E4E3EE"/>
<path d="M268.192 481.216L262.469 477.89L270.233 473.407L275.955 476.733L268.192 481.216Z" fill="#E4E3EE"/>
<path d="M268.197 483.202L262.474 479.877L262.469 477.89L268.192 481.217L268.197 483.202Z" fill="#B7B6E3"/>
<path d="M296.327 452.027L296.331 454.01L282.795 461.825L277.014 478.113L268.197 483.202L268.192 481.216L275.955 476.733L281.739 460.448L296.327 452.027Z" fill="#919DD6"/>
<path d="M297.152 489.108L291.43 485.781L297.212 469.496L302.935 472.823L297.152 489.108Z" fill="#C4C3EC"/>
<path d="M302.934 472.823L297.211 469.496L311.797 461.075L317.521 464.402L302.934 472.823Z" fill="#E4E3EE"/>
<path d="M289.387 493.59L283.664 490.264L291.428 485.781L297.151 489.108L289.387 493.59Z" fill="#E4E3EE"/>
<path d="M289.392 495.577L283.668 492.252L283.664 490.264L289.387 493.59L289.392 495.577Z" fill="#B7B6E3"/>
<path d="M317.521 464.402L317.526 466.385L303.99 474.2L298.209 490.486L289.392 495.577L289.387 493.59L297.151 489.108L302.933 472.823L317.521 464.402Z" fill="#919DD6"/>
<path d="M456.818 427.576L462.54 424.251L456.758 407.967L451.035 411.292L456.818 427.576Z" fill="#C4C3EC"/>
<path d="M451.032 411.292L456.755 407.967L442.168 399.545L436.445 402.871L451.032 411.292Z" fill="#E4E3EE"/>
<path d="M464.579 432.059L470.303 428.734L462.539 424.251L456.817 427.576L464.579 432.059Z" fill="#E4E3EE"/>
<path d="M464.57 434.045L470.295 430.72L470.3 428.734L464.576 432.059L464.57 434.045Z" fill="#B7B6E3"/>
<path d="M436.447 402.871L436.442 404.854L449.977 412.669L455.756 428.956L464.573 434.045L464.578 432.059L456.816 427.576L451.033 411.292L436.447 402.871Z" fill="#919DD6"/>
<path d="M435.299 439.892L441.022 436.566L435.24 420.282L429.516 423.609L435.299 439.892Z" fill="#C4C3EC"/>
<path d="M429.515 423.609L435.239 420.282L420.651 411.861L414.93 415.186L429.515 423.609Z" fill="#E4E3EE"/>
<path d="M443.059 444.374L448.784 441.049L441.02 436.566L435.297 439.892L443.059 444.374Z" fill="#E4E3EE"/>
<path d="M443.055 446.361L448.777 443.035L448.783 441.049L443.059 444.374L443.055 446.361Z" fill="#B7B6E3"/>
<path d="M414.929 415.186L414.922 417.169L428.459 424.986L434.24 441.271L443.056 446.361L443.06 444.374L435.298 439.892L429.514 423.609L414.929 415.186Z" fill="#919DD6"/>
<path d="M413.954 452.336L419.678 449.01L413.895 432.726L408.172 436.051L413.954 452.336Z" fill="#C4C3EC"/>
<path d="M408.172 436.051L413.895 432.726L399.309 424.304L393.586 427.63L408.172 436.051Z" fill="#E4E3EE"/>
<path d="M421.717 456.818L427.441 453.492L419.677 449.01L413.953 452.337L421.717 456.818Z" fill="#E4E3EE"/>
<path d="M421.711 458.805L427.435 455.479L427.441 453.491L421.716 456.818L421.711 458.805Z" fill="#B7B6E3"/>
<path d="M393.584 427.63L393.578 429.614L407.115 437.43L412.896 453.715L421.711 458.805L421.716 456.818L413.952 452.336L408.17 436.051L393.584 427.63Z" fill="#919DD6"/>
<path d="M392.611 464.69L398.333 461.363L392.551 445.078L386.828 448.404L392.611 464.69Z" fill="#C4C3EC"/>
<path d="M386.83 448.404L392.553 445.079L377.965 436.657L372.242 439.983L386.83 448.404Z" fill="#E4E3EE"/>
<path d="M400.373 469.172L406.096 465.847L398.332 461.364L392.609 464.69L400.373 469.172Z" fill="#E4E3EE"/>
<path d="M400.367 471.159L406.091 467.834L406.095 465.847L400.373 469.172L400.367 471.159Z" fill="#B7B6E3"/>
<path d="M372.24 439.983L372.234 441.967L385.771 449.782L391.552 466.068L400.368 471.159L400.374 469.172L392.61 464.69L386.828 448.404L372.24 439.983Z" fill="#919DD6"/>
<path d="M371.001 476.958L376.725 473.633L370.943 457.348L365.219 460.673L371.001 476.958Z" fill="#C4C3EC"/>
<path d="M365.221 460.673L370.945 457.348L356.357 448.925L350.633 452.252L365.221 460.673Z" fill="#E4E3EE"/>
<path d="M378.765 481.441L384.488 478.115L376.724 473.633L371 476.958L378.765 481.441Z" fill="#E4E3EE"/>
<path d="M378.758 483.428L384.482 480.102L384.488 478.115L378.765 481.441L378.758 483.428Z" fill="#B7B6E3"/>
<path d="M350.631 452.252L350.625 454.236L364.163 462.051L369.943 478.338L378.759 483.428L378.766 481.441L371.001 476.958L365.218 460.673L350.631 452.252Z" fill="#919DD6"/>
<path d="M349.806 489.333L355.53 486.007L349.748 469.722L344.023 473.048L349.806 489.333Z" fill="#C4C3EC"/>
<path d="M344.021 473.048L349.746 469.722L335.158 461.3L329.434 464.626L344.021 473.048Z" fill="#E4E3EE"/>
<path d="M357.57 493.816L363.294 490.489L355.529 486.007L349.805 489.333L357.57 493.816Z" fill="#E4E3EE"/>
<path d="M357.562 495.803L363.285 492.476L363.292 490.489L357.568 493.816L357.562 495.803Z" fill="#B7B6E3"/>
<path d="M329.434 464.626L329.43 466.611L342.966 474.426L348.746 490.712L357.564 495.803L357.569 493.816L349.804 489.333L344.022 473.048L329.434 464.626Z" fill="#919DD6"/>
<path d="M262 388.523L266.587 391.172L323.051 423.775V353.043L262 388.523Z" fill="#D4D5F0"/>
<path d="M323.051 353.043V423.775L323.452 424.005L379.919 391.188L384.506 388.523L323.051 353.043Z" fill="#C4C3EC"/>
<path d="M379.918 391.188L323.45 424.005L266.586 391.172L323.05 358.355L379.918 391.188Z" fill="#157B6C"/>
<path d="M379.922 391.188L323.454 424.005L266.59 391.172L323.053 358.355L379.922 391.188Z" fill="#157B6C"/>
<path d="M353.784 386.296L353.775 389.723L347.074 393.616L347.084 390.19L353.784 386.296Z" fill="#D4D5F0"/>
<path d="M347.083 390.19L347.073 393.617L317.117 376.321L317.127 372.896L347.083 390.19Z" fill="#C4C3EC"/>
<path d="M353.782 386.296L347.081 390.19L317.125 372.896L323.825 369.002L353.782 386.296Z" fill="#EEEFF2"/>
<path d="M320.442 391.947L320.432 395.373C318.677 394.888 316.995 394.429 315.385 393.994C313.775 393.558 312.287 393.17 310.921 392.825C309.554 392.481 308.351 392.179 307.316 391.914C306.277 391.65 305.458 391.449 304.852 391.306L304.861 387.88C305.466 388.023 306.285 388.224 307.325 388.487C308.361 388.752 309.565 389.054 310.931 389.398C312.297 389.742 313.783 390.132 315.394 390.566C317.004 391.004 318.686 391.463 320.442 391.947Z" fill="#1393F2"/>
<mask id="mask0_9_67787" style="mask-type:luminance" maskUnits="userSpaceOnUse" x="304" y="387" width="17" height="9">
<path d="M320.442 391.947L320.432 395.373C318.677 394.888 316.995 394.429 315.385 393.994C313.775 393.558 312.287 393.17 310.921 392.825C309.554 392.481 308.351 392.179 307.316 391.914C306.277 391.65 305.458 391.449 304.852 391.306L304.861 387.88C305.466 388.023 306.285 388.224 307.325 388.487C308.361 388.752 309.565 389.054 310.931 389.398C312.297 389.742 313.783 390.132 315.394 390.566C317.004 391.004 318.686 391.463 320.442 391.947Z" fill="white"/>
</mask>
<g mask="url(#mask0_9_67787)">
<path d="M320.442 391.947L320.432 395.373C318.677 394.888 316.995 394.429 315.385 393.994C313.775 393.558 312.287 393.17 310.921 392.825C309.554 392.481 308.351 392.179 307.316 391.914C306.277 391.65 305.458 391.449 304.852 391.306L304.861 387.88C305.466 388.023 306.285 388.224 307.325 388.487C308.361 388.752 309.565 389.054 310.931 389.398C312.297 389.742 313.783 390.132 315.394 390.566C317.004 391.004 318.686 391.463 320.442 391.947Z" fill="#C4C3EC"/>
</g>
<path d="M331.812 395.351L331.802 398.778C330.322 398.366 328.85 397.957 327.387 397.548L327.396 394.121C328.859 394.529 330.332 394.938 331.812 395.351Z" fill="#1393F2"/>
<mask id="mask1_9_67787" style="mask-type:luminance" maskUnits="userSpaceOnUse" x="327" y="394" width="5" height="5">
<path d="M331.812 395.351L331.802 398.778C330.322 398.366 328.85 397.957 327.387 397.548L327.396 394.121C328.859 394.529 330.332 394.938 331.812 395.351Z" fill="white"/>
</mask>
<g mask="url(#mask1_9_67787)">
<path d="M331.812 395.351L331.802 398.778C330.322 398.366 328.85 397.957 327.387 397.548L327.396 394.121C328.859 394.529 330.332 394.938 331.812 395.351Z" fill="#C4C3EC"/>
</g>
<path d="M336.08 396.581L336.071 400.008C334.699 399.599 333.276 399.188 331.797 398.776L331.807 395.35C333.286 395.762 334.709 396.172 336.08 396.581Z" fill="#1393F2"/>
<mask id="mask2_9_67787" style="mask-type:luminance" maskUnits="userSpaceOnUse" x="331" y="395" width="6" height="6">
<path d="M336.08 396.581L336.071 400.008C334.699 399.599 333.276 399.188 331.797 398.776L331.807 395.35C333.286 395.762 334.709 396.172 336.08 396.581Z" fill="white"/>
</mask>
<g mask="url(#mask2_9_67787)">
<path d="M336.08 396.581L336.071 400.008C334.699 399.599 333.276 399.188 331.797 398.776L331.807 395.35C333.286 395.762 334.709 396.172 336.08 396.581Z" fill="#C4C3EC"/>
</g>
<path d="M343.26 392.412L343.25 395.839L336.074 400.009L336.084 396.581L343.26 392.412Z" fill="#D4D5F0"/>
<path d="M327.392 394.12L327.384 397.546L315.758 404.302L315.768 400.876L327.392 394.12Z" fill="#D4D5F0"/>
<path d="M313.109 409.933L313.1 413.36C310.99 410.846 309.073 408.505 307.341 406.341C305.609 404.176 304.007 402.115 302.553 400.16C301.091 398.201 299.743 396.323 298.499 394.525C297.26 392.726 296.102 390.937 295.031 389.156L295.041 385.729C296.11 387.511 297.268 389.301 298.509 391.098C299.753 392.897 301.101 394.776 302.561 396.734C304.017 398.689 305.617 400.749 307.349 402.914C309.084 405.077 311.001 407.418 313.109 409.933Z" fill="#1393F2"/>
<mask id="mask3_9_67787" style="mask-type:luminance" maskUnits="userSpaceOnUse" x="295" y="385" width="19" height="29">
<path d="M313.109 409.933L313.1 413.36C310.99 410.846 309.073 408.505 307.341 406.341C305.609 404.176 304.007 402.115 302.553 400.16C301.091 398.201 299.743 396.323 298.499 394.525C297.26 392.726 296.102 390.937 295.031 389.156L295.041 385.729C296.11 387.511 297.268 389.301 298.509 391.098C299.753 392.897 301.101 394.776 302.561 396.734C304.017 398.689 305.617 400.749 307.349 402.914C309.084 405.077 311.001 407.418 313.109 409.933Z" fill="white"/>
</mask>
<g mask="url(#mask3_9_67787)">
<path d="M313.109 409.933L313.1 413.36C310.99 410.846 309.073 408.505 307.341 406.341C305.609 404.176 304.007 402.115 302.553 400.16C301.091 398.201 299.743 396.323 298.499 394.525C297.26 392.726 296.102 390.937 295.031 389.156L295.041 385.729C296.11 387.511 297.268 389.301 298.509 391.098C299.753 392.897 301.101 394.776 302.561 396.734C304.017 398.689 305.617 400.749 307.349 402.914C309.084 405.077 311.001 407.418 313.109 409.933Z" fill="#C4C3EC"/>
</g>
<path d="M320.067 405.89L320.057 409.316L313.102 413.358L313.11 409.933L320.067 405.89Z" fill="#D4D5F0"/>
<path d="M331.81 395.351C330.331 394.938 328.858 394.529 327.395 394.12L315.771 400.876C316.486 401.726 317.206 402.576 317.924 403.43C318.643 404.283 319.362 405.102 320.067 405.891L313.11 409.933C311.002 407.418 309.083 405.079 307.351 402.914C305.619 400.75 304.019 398.689 302.563 396.734C301.103 394.774 299.753 392.897 298.511 391.098C297.27 389.301 296.112 387.511 295.043 385.729L301.394 382.038C304.447 382.667 307.535 383.334 310.658 384.039C313.784 384.745 317.038 385.514 320.427 386.352C323.808 387.188 327.373 388.107 331.118 389.103C334.864 390.097 338.909 391.201 343.257 392.413L336.081 396.583C334.711 396.172 333.289 395.762 331.81 395.351ZM311.933 396.893L320.444 391.947C318.688 391.462 317.006 391.004 315.396 390.567C313.787 390.132 312.3 389.744 310.933 389.4C309.567 389.056 308.363 388.753 307.327 388.489C306.289 388.225 305.469 388.023 304.863 387.881C305.149 388.22 305.523 388.688 305.984 389.289C306.446 389.889 306.986 390.577 307.598 391.358C308.212 392.138 308.881 393.004 309.606 393.947C310.332 394.891 311.106 395.875 311.933 396.893Z" fill="#EEEFF2"/>
<path d="M323.917 531.121L120.977 413.952L322.612 296.775L525.553 413.942L323.917 531.121ZM126.364 413.945L323.914 528L520.166 413.951L322.616 299.896L126.364 413.945Z" fill="#157B6C"/>
<path d="M152.452 430.564L137.448 439.225C137.225 439.353 136.955 439.353 136.737 439.225L121.349 430.341L71.4012 459.178L66.7462 461.866C66.6325 461.932 66.5146 461.96 66.3898 461.96C66.143 461.96 65.9059 461.832 65.7741 461.603C65.58 461.267 65.6937 460.831 66.0348 460.631L69.9605 458.366L120.994 428.903C121.212 428.78 121.482 428.78 121.705 428.903L137.093 437.787L151.031 429.742L152.452 430.564Z" fill="#157B6C"/>
<path d="M273.446 499.057L271.076 500.422L257.423 508.305C257.205 508.433 256.935 508.433 256.712 508.305L241.329 499.422L221.906 510.633L220.485 511.453L190.98 528.491L186.727 530.947C186.613 531.013 186.494 531.041 186.37 531.041C186.124 531.041 185.888 530.913 185.755 530.686C185.561 530.345 185.674 529.914 186.015 529.714L189.804 527.528L219.062 510.633L220.484 509.812L240.973 497.984C241.191 497.857 241.461 497.857 241.684 497.984L257.067 506.868L269.654 499.601L272.025 498.231L273.446 499.057Z" fill="#157B6C"/>
<path d="M226.752 472.092L224.381 473.462L211.108 481.128C210.89 481.251 210.62 481.251 210.397 481.128L195.014 472.243L175.217 483.674L173.794 484.493L145.431 500.872L140.41 503.769C140.296 503.83 140.173 503.863 140.054 503.863C139.808 503.863 139.57 503.736 139.438 503.507C139.244 503.166 139.358 502.729 139.699 502.535L144.289 499.885L172.373 483.672L173.794 482.851L194.658 470.805C194.876 470.676 195.146 470.676 195.369 470.805L210.752 479.69L222.96 472.64L225.331 471.27L226.752 472.092Z" fill="#157B6C"/>
<path d="M189.507 450.589L187.132 451.959L136.947 480.934L133.17 483.115C133.056 483.181 132.933 483.211 132.815 483.211C132.568 483.211 132.331 483.082 132.198 482.854C132 482.517 132.117 482.082 132.459 481.882L135.597 480.071L185.709 451.134L188.085 449.764L189.507 450.589Z" fill="#157B6C"/>
<path d="M290.617 508.971L288.246 510.335L238.755 538.912L234.929 541.121C234.815 541.182 234.692 541.215 234.572 541.215C234.326 541.215 234.088 541.086 233.957 540.858C233.757 540.517 233.875 540.082 234.217 539.886L237.318 538.099L286.825 509.513L289.195 508.143L290.617 508.971Z" fill="#157B6C"/>
<path d="M242.726 481.318L240.355 482.688L206.929 501.987L205.508 502.808L190.352 511.565C190.352 511.561 190.352 511.561 190.346 511.565L186.379 513.854C186.265 513.921 186.147 513.949 186.023 513.949C185.777 513.949 185.54 513.825 185.407 513.592C185.213 513.257 185.327 512.82 185.668 512.626L188.953 510.73L204.09 501.989L205.507 501.169L238.932 481.87L241.302 480.501L242.726 481.318Z" fill="#157B6C"/>
<path d="M242.001 522.234L223.252 533.057L218.013 536.081L217.302 534.849L222.014 532.128L239.156 522.234L220.487 511.454L219.066 510.635L205.512 502.807L204.095 501.986L173.797 484.495L172.375 483.674L160.055 476.559L194.656 456.301L197.012 454.923L198.429 455.738L196.073 457.118L162.885 476.553L173.797 482.854L175.219 483.674L205.512 501.167L206.934 501.986L220.487 509.814L221.91 510.635L242.001 522.234Z" fill="#157B6C"/>
<path d="M70.8008 458.765C72.9182 459.987 72.9182 461.968 70.8008 463.19C68.6834 464.413 65.2527 464.413 63.1339 463.19C61.0179 461.968 61.0179 459.987 63.1339 458.765C65.2527 457.542 68.6847 457.542 70.8008 458.765Z" fill="#157B6C"/>
<path d="M163.94 456.638C163.94 456.893 163.807 457.126 163.584 457.254L120.576 482.085L116.642 484.355C116.528 484.421 116.409 484.449 116.286 484.449C116.039 484.449 115.802 484.325 115.669 484.094C115.475 483.757 115.588 483.322 115.929 483.127L119.195 481.24L161.805 456.637L145.985 447.501C145.764 447.378 145.63 447.142 145.63 446.89C145.63 446.633 145.764 446.397 145.985 446.274L161.634 437.238L164.004 435.868L165.431 436.689L163.055 438.058L147.763 446.89L163.582 456.019C163.808 456.15 163.94 456.387 163.94 456.638Z" fill="#157B6C"/>
<path d="M119.849 481.559C121.966 482.781 121.966 484.762 119.849 485.985C117.731 487.208 114.299 487.208 112.182 485.985C110.064 484.762 110.064 482.781 112.182 481.559C114.298 480.337 117.731 480.337 119.849 481.559Z" fill="#157B6C"/>
<path d="M299.886 534.161C299.886 534.412 299.752 534.65 299.529 534.778L257.646 558.96L252.588 561.88C252.478 561.941 252.355 561.976 252.233 561.976C251.99 561.976 251.749 561.847 251.617 561.619C251.423 561.277 251.541 560.842 251.878 560.647L256.282 558.107L297.753 534.162L281.932 525.027C281.715 524.899 281.577 524.666 281.577 524.411C281.577 524.156 281.715 523.923 281.932 523.794L296.748 515.242L299.119 513.878L300.536 514.697L298.165 516.062L283.711 524.411L299.531 533.546C299.752 533.673 299.886 533.906 299.886 534.161Z" fill="#157B6C"/>
<path d="M256.884 558.4C259 559.623 259 561.604 256.884 562.826C254.766 564.048 251.334 564.048 249.217 562.826C247.1 561.603 247.1 559.621 249.217 558.4C251.334 557.178 254.766 557.178 256.884 558.4Z" fill="#157B6C"/>
<path d="M136.13 480.339C138.246 481.562 138.246 483.542 136.13 484.765C134.013 485.988 130.581 485.988 128.463 484.765C126.346 483.542 126.346 481.562 128.463 480.339C130.582 479.117 134.013 479.117 136.13 480.339Z" fill="#157B6C"/>
<path d="M144.273 499.877C146.391 501.099 146.391 503.08 144.273 504.303C142.157 505.525 138.724 505.525 136.608 504.303C134.49 503.08 134.49 501.099 136.608 499.877C138.724 498.654 142.157 498.654 144.273 499.877Z" fill="#157B6C"/>
<path d="M189.661 511.07C191.779 512.293 191.779 514.275 189.661 515.498C187.544 516.719 184.112 516.719 181.994 515.498C179.877 514.275 179.877 512.294 181.994 511.07C184.112 509.848 187.545 509.848 189.661 511.07Z" fill="#157B6C"/>
<path d="M189.864 527.556C191.982 528.778 191.982 530.759 189.864 531.981C187.747 533.204 184.315 533.204 182.197 531.981C180.08 530.759 180.08 528.778 182.197 527.556C184.315 526.334 187.747 526.334 189.864 527.556Z" fill="#157B6C"/>
<path d="M222.223 532.238C224.34 533.461 224.34 535.442 222.223 536.664C220.105 537.885 216.675 537.885 214.556 536.664C212.44 535.441 212.44 533.459 214.556 532.238C216.673 531.015 220.105 531.015 222.223 532.238Z" fill="#157B6C"/>
<path d="M238.161 538.498C240.277 539.721 240.277 541.701 238.161 542.926C236.044 544.148 232.612 544.148 230.494 542.926C228.377 541.703 228.377 539.721 230.494 538.498C232.612 537.277 236.045 537.277 238.161 538.498Z" fill="#157B6C"/>
<path d="M536.726 479.564C536.593 479.791 536.355 479.919 536.109 479.919C535.985 479.919 535.867 479.885 535.752 479.824L531.429 477.331L488.811 452.723C488.588 452.594 488.456 452.359 488.456 452.106C488.456 451.85 488.588 451.618 488.811 451.489L504.63 442.354L490.436 434.157L488.07 432.793L489.483 431.968L491.853 433.332L506.406 441.738C506.629 441.866 506.763 442.099 506.763 442.354C506.763 442.61 506.629 442.843 506.406 442.971L490.587 452.106L533.021 476.606L536.462 478.593C536.806 478.786 536.921 479.222 536.726 479.564Z" fill="#157B6C"/>
<path d="M389.517 564.771C389.384 564.999 389.147 565.128 388.901 565.128C388.778 565.128 388.66 565.095 388.546 565.034L384.356 562.615L341.605 537.931C341.387 537.802 341.249 537.565 341.249 537.314C341.249 537.058 341.386 536.826 341.605 536.698L357.424 527.563L343.524 519.537L341.164 518.171L342.581 517.346L344.941 518.711L359.202 526.946C359.424 527.074 359.557 527.307 359.557 527.562C359.557 527.813 359.424 528.05 359.202 528.179L343.383 537.314L386.01 561.927L389.258 563.801C389.598 563.995 389.713 564.43 389.517 564.771Z" fill="#157B6C"/>
<path d="M462.099 519.016C461.966 519.243 461.725 519.372 461.482 519.372C461.359 519.372 461.235 519.343 461.127 519.278L457.196 517.008L424.85 498.333C424.627 498.206 424.494 497.973 424.494 497.718C424.494 497.461 424.627 497.228 424.85 497.101L436.844 490.174L426.04 483.822L424.631 482.993L415.576 477.665L413.234 476.285L414.647 475.466L416.989 476.844L426.05 482.173L427.457 483.002L438.617 489.568C438.836 489.697 438.968 489.934 438.968 490.185C438.963 490.442 438.831 490.674 438.612 490.802L426.628 497.719L459.121 516.478C459.121 516.478 459.121 516.478 459.125 516.478L461.836 518.046C462.175 518.242 462.293 518.673 462.099 519.016Z" fill="#157B6C"/>
<path d="M520.848 517.134C520.715 517.361 520.478 517.489 520.233 517.489C520.109 517.489 519.99 517.455 519.876 517.393L515.69 514.976L456.716 480.924C456.493 480.796 456.36 480.563 456.36 480.308C456.36 480.057 456.493 479.82 456.716 479.692L478.372 467.192L455.916 454.221L453.551 452.856L454.964 452.037L457.329 453.401L480.151 466.576C480.369 466.703 480.507 466.936 480.507 467.193C480.507 467.448 480.37 467.681 480.151 467.809L458.495 480.309L517.337 514.286L520.589 516.163C520.929 516.356 521.042 516.791 520.848 517.134Z" fill="#157B6C"/>
<path d="M457.566 534.915C457.438 535.143 457.195 535.271 456.95 535.271C456.831 535.271 456.709 535.242 456.595 535.177L452.997 533.101L411.255 509L388.225 522.298C388.008 522.425 387.733 522.425 387.515 522.298L363.069 508.18L360.707 506.814L362.12 505.995L364.482 507.359L387.872 520.861L410.902 507.563C411.125 507.434 411.394 507.434 411.613 507.563L454.426 532.28L457.309 533.944C457.646 534.143 457.765 534.574 457.566 534.915Z" fill="#157B6C"/>
<path d="M520.208 478.321C520.075 478.548 519.837 478.677 519.592 478.677C519.473 478.677 519.349 478.644 519.236 478.583L515.177 476.241L466.444 448.106L464.078 446.736L465.495 445.915L467.861 447.281L516.704 475.477L519.947 477.35C520.288 477.543 520.407 477.98 520.208 478.321Z" fill="#157B6C"/>
<path d="M557.865 456.259C557.733 456.487 557.495 456.616 557.249 456.616C557.126 456.616 557.008 456.582 556.893 456.52L552.427 453.941L504.258 426.127L501.887 424.762L503.305 423.937L505.676 425.303L553.792 453.088L557.604 455.287C557.945 455.481 558.061 455.917 557.865 456.259Z" fill="#157B6C"/>
<path d="M476.435 503.23C476.302 503.457 476.06 503.586 475.818 503.586C475.694 503.586 475.572 503.557 475.463 503.49L471.059 500.95L433.717 479.39L432.294 478.571L423.131 473.275L420.766 471.909L422.184 471.089L424.55 472.455L433.718 477.746L435.14 478.571L472.35 500.05L476.174 502.259C476.511 502.456 476.63 502.887 476.435 503.23Z" fill="#157B6C"/>
<path d="M405.751 544.435C405.624 544.662 405.381 544.79 405.136 544.79C405.016 544.79 404.894 544.76 404.779 544.695L400.689 542.335C400.683 542.33 400.683 542.335 400.683 542.335L352.334 514.417L349.973 513.052L351.39 512.226L353.751 513.591L402.21 541.566L405.491 543.461C405.832 543.662 405.951 544.098 405.751 544.435Z" fill="#157B6C"/>
<path d="M457.895 465.426L435.135 478.568L433.714 479.389L427.456 483.001L426.039 483.82L397.504 500.294L393.243 502.754L392.531 501.521L396.328 499.333L424.63 482.991L426.047 482.172L432.291 478.568L433.714 477.743L455.05 465.426L445.811 460.095L443.446 458.725L444.863 457.904L447.228 459.27L457.895 465.426Z" fill="#157B6C"/>
<path d="M392.126 562.547C394.243 563.769 394.243 565.75 392.126 566.974C390.009 568.195 386.577 568.195 384.459 566.974C382.342 565.75 382.342 563.769 384.459 562.547C386.577 561.324 390.009 561.324 392.126 562.547Z" fill="#157B6C"/>
<path d="M408.774 542.055C410.892 543.278 410.892 545.258 408.774 546.481C406.657 547.703 403.225 547.703 401.108 546.481C398.99 545.258 398.99 543.277 401.108 542.055C403.225 540.833 406.657 540.833 408.774 542.055Z" fill="#157B6C"/>
<path d="M396.396 499.366C398.513 500.589 398.513 502.571 396.396 503.793C394.278 505.016 390.846 505.016 388.729 503.793C386.611 502.571 386.611 500.589 388.729 499.366C390.848 498.143 394.28 498.143 396.396 499.366Z" fill="#157B6C"/>
<path d="M461.282 532.664C463.4 533.886 463.4 535.869 461.282 537.091C459.165 538.314 455.733 538.314 453.615 537.091C451.498 535.869 451.498 533.886 453.615 532.664C455.733 531.441 459.165 531.441 461.282 532.664Z" fill="#157B6C"/>
<path d="M464.27 517.295C466.387 518.518 466.387 520.499 464.27 521.721C462.154 522.944 458.721 522.944 456.603 521.721C454.487 520.499 454.487 518.518 456.603 517.295C458.721 516.073 462.154 516.073 464.27 517.295Z" fill="#157B6C"/>
<path d="M479.648 500.236C481.766 501.459 481.766 503.439 479.648 504.662C477.532 505.885 474.1 505.885 471.983 504.662C469.865 503.439 469.865 501.459 471.983 500.236C474.1 499.014 477.532 499.014 479.648 500.236Z" fill="#157B6C"/>
<path d="M523.497 514.893C525.615 516.115 525.615 518.096 523.497 519.319C521.38 520.542 517.948 520.542 515.83 519.319C513.713 518.096 513.713 516.115 515.83 514.893C517.948 513.67 521.38 513.67 523.497 514.893Z" fill="#157B6C"/>
<path d="M523.259 475.969C525.376 477.192 525.376 479.173 523.259 480.396C521.141 481.619 517.709 481.619 515.592 480.396C513.475 479.173 513.475 477.192 515.592 475.969C517.709 474.746 521.141 474.746 523.259 475.969Z" fill="#157B6C"/>
<path d="M539.357 477.17C541.474 478.392 541.474 480.373 539.357 481.596C537.239 482.82 533.807 482.82 531.69 481.596C529.572 480.373 529.572 478.392 531.69 477.17C533.807 475.949 537.24 475.949 539.357 477.17Z" fill="#157B6C"/>
<path d="M560.863 453.383C562.981 454.605 562.981 456.587 560.863 457.81C558.747 459.033 555.314 459.033 553.196 457.81C551.08 456.587 551.08 454.605 553.196 453.383C555.314 452.162 558.747 452.162 560.863 453.383Z" fill="#157B6C"/>
<path d="M271.383 282.439C271.383 282.69 271.254 282.923 271.037 283.056L259.778 289.802L258.379 290.643L244.248 299.108L242.854 299.943L229.604 307.883L266.838 329.382L269.203 330.746L267.786 331.571L265.415 330.207L227.845 308.514C227.627 308.386 227.494 308.153 227.488 307.902C227.488 307.651 227.617 307.414 227.835 307.285L241.441 299.132L242.839 298.293L256.97 289.826L258.364 288.986L269.267 282.454L248.376 270.393L244.84 268.351C244.503 268.155 244.385 267.72 244.579 267.383C244.779 267.042 245.21 266.922 245.551 267.122L249.737 269.54L271.028 281.829C271.246 281.955 271.379 282.188 271.383 282.439Z" fill="#157B6C"/>
<path d="M144.093 402.082L107.528 380.973L123.349 371.838C123.566 371.71 123.704 371.477 123.704 371.222C123.704 370.971 123.566 370.734 123.349 370.605L101.864 358.204L97.8716 355.901C97.5304 355.701 97.0992 355.819 96.8995 356.161C96.7054 356.497 96.8177 356.934 97.1602 357.133L100.204 358.892L121.57 371.222L105.751 380.357C105.529 380.485 105.394 380.718 105.394 380.973C105.394 381.229 105.527 381.462 105.751 381.589L142.676 402.907L144.093 402.082Z" fill="#157B6C"/>
<path d="M218.49 360.219L217.077 361.038L214.708 359.672L189.273 344.986C189.054 344.863 188.917 344.627 188.917 344.375C188.917 344.118 189.054 343.882 189.273 343.759L201.267 336.833L171.918 319.563L169.135 317.923C168.794 317.723 168.68 317.287 168.88 316.95C169.078 316.614 169.515 316.5 169.856 316.7L173.402 318.791L203.04 336.227C203.258 336.354 203.395 336.586 203.391 336.842C203.391 337.093 203.258 337.326 203.035 337.454L191.05 344.376L216.123 358.849L218.49 360.219Z" fill="#157B6C"/>
<path d="M250.27 341.75L248.852 342.569L246.487 341.203L206.925 318.364C206.707 318.236 206.569 318.003 206.569 317.748C206.569 317.491 206.706 317.26 206.925 317.131L224.39 307.048L202.199 294.234L197.505 291.522C197.164 291.328 197.047 290.892 197.245 290.555C197.439 290.214 197.876 290.095 198.217 290.295L203.574 293.385L226.168 306.431C226.391 306.56 226.524 306.792 226.524 307.048C226.524 307.305 226.391 307.536 226.168 307.664L208.703 317.748L247.904 340.38L250.27 341.75Z" fill="#157B6C"/>
<path d="M200.585 370.619L199.166 371.444L196.801 370.079L170.974 355.17L152.505 365.832C152.287 365.959 152.017 365.959 151.795 365.832L126.807 351.406L123.73 349.629C123.389 349.435 123.275 348.998 123.47 348.657C123.668 348.315 124.1 348.202 124.442 348.396L128.12 350.52L152.15 364.395L170.62 353.735C170.842 353.606 171.113 353.606 171.332 353.735L198.221 369.256L200.585 370.619Z" fill="#157B6C"/>
<path d="M284.077 322.103L282.66 322.928L280.288 321.558L242.853 299.94L241.44 299.129L229.844 292.426C229.844 292.426 229.844 292.426 229.84 292.426L226.83 290.691C226.489 290.491 226.371 290.06 226.569 289.719C226.765 289.378 227.2 289.264 227.541 289.458L231.424 291.701L242.839 298.29L244.248 299.105L281.713 320.732L284.077 322.103Z" fill="#157B6C"/>
<path d="M299.866 312.927L298.449 313.752L296.079 312.386L258.376 290.641L256.968 289.826L213.359 264.672L211.097 263.368C210.756 263.174 210.643 262.738 210.837 262.401C211.031 262.059 211.466 261.94 211.809 262.136L215.123 264.047L258.362 288.987L259.775 289.802L297.496 311.562L299.866 312.927Z" fill="#157B6C"/>
<path d="M242.582 346.215L241.165 347.04L238.8 345.675L188.824 316.824C188.824 316.824 188.824 316.824 188.82 316.824L185.478 314.89C185.137 314.692 185.019 314.255 185.217 313.918C185.412 313.577 185.847 313.457 186.19 313.657L190.38 316.075L240.218 344.852L242.582 346.215Z" fill="#157B6C"/>
<path d="M172.341 387.035L170.924 387.861L168.558 386.496L146.244 373.611L140.897 370.526C140.56 370.33 140.44 369.895 140.64 369.554C140.834 369.217 141.27 369.098 141.607 369.293L147.736 372.829L169.974 385.671L172.341 387.035Z" fill="#157B6C"/>
<path d="M101.763 353.841C103.88 355.064 103.88 357.045 101.763 358.268C99.6453 359.491 96.2133 359.491 94.0959 358.268C91.9785 357.045 91.9785 355.064 94.0959 353.841C96.2133 352.618 99.6467 352.618 101.763 353.841Z" fill="#157B6C"/>
<path d="M147.234 368.737C149.351 369.959 149.351 371.94 147.234 373.163C145.118 374.385 141.685 374.385 139.569 373.163C137.451 371.94 137.451 369.959 139.569 368.737C141.685 367.514 145.118 367.514 147.234 368.737Z" fill="#157B6C"/>
<path d="M127.243 346.757C129.361 347.979 129.361 349.96 127.243 351.183C125.126 352.406 121.694 352.406 119.576 351.183C117.459 349.96 117.459 347.979 119.576 346.757C121.694 345.535 125.127 345.535 127.243 346.757Z" fill="#157B6C"/>
<path d="M172.919 314.685C175.036 315.906 175.036 317.888 172.919 319.11C170.802 320.333 167.37 320.333 165.252 319.11C163.135 317.888 163.135 315.906 165.252 314.685C167.37 313.462 170.802 313.462 172.919 314.685Z" fill="#157B6C"/>
<path d="M135.646 336.242C137.762 337.465 137.762 339.446 135.646 340.668C133.528 341.891 130.096 341.891 127.979 340.668C125.861 339.446 125.861 337.465 127.979 336.242C130.095 335.02 133.528 335.02 135.646 336.242Z" fill="#157B6C"/>
<path d="M209.945 365.182L208.527 366.007L206.162 364.642L146.993 330.482L136.265 336.673L132.222 339.006C131.885 339.205 131.45 339.086 131.25 338.745C131.056 338.408 131.174 337.972 131.511 337.773L134.834 335.854L146.639 329.041C146.857 328.918 147.127 328.918 147.349 329.041L207.579 363.819L209.945 365.182Z" fill="#157B6C"/>
<path d="M308.816 307.725L307.399 308.55L305.029 307.186L279.316 292.337C279.094 292.21 278.96 291.978 278.96 291.722C278.96 291.465 279.093 291.233 279.316 291.106L291.309 284.179L261.961 266.91L259.173 265.274C258.838 265.075 258.723 264.639 258.922 264.302C259.121 263.96 259.558 263.847 259.895 264.045L263.444 266.131L293.083 283.572C293.302 283.7 293.434 283.937 293.434 284.189C293.43 284.444 293.297 284.677 293.079 284.805L281.094 291.722L306.45 306.361L308.816 307.725Z" fill="#157B6C"/>
<path d="M262.95 262.033C265.068 263.255 265.068 265.236 262.95 266.459C260.833 267.681 257.401 267.681 255.283 266.459C253.166 265.236 253.166 263.255 255.283 262.033C257.401 260.81 260.833 260.81 262.95 262.033Z" fill="#157B6C"/>
<path d="M190.031 311.873C192.148 313.094 192.148 315.076 190.031 316.299C187.915 317.52 184.483 317.52 182.366 316.299C180.248 315.076 180.248 313.094 182.366 311.873C184.483 310.65 187.915 310.65 190.031 311.873Z" fill="#157B6C"/>
<path d="M202.829 289.502C204.945 290.723 204.945 292.705 202.829 293.928C200.712 295.149 197.28 295.149 195.162 293.928C193.045 292.705 193.045 290.723 195.162 289.502C197.28 288.28 200.712 288.28 202.829 289.502Z" fill="#157B6C"/>
<path d="M215.3 259.529C217.418 260.752 217.418 262.733 215.3 263.955C213.184 265.177 209.751 265.177 207.635 263.955C205.518 262.732 205.518 260.75 207.635 259.529C209.751 258.307 213.184 258.307 215.3 259.529Z" fill="#157B6C"/>
<path d="M248.962 265.677C251.079 266.899 251.079 268.88 248.962 270.102C246.845 271.325 243.413 271.325 241.295 270.102C239.178 268.88 239.178 266.899 241.295 265.677C243.413 264.454 246.845 264.454 248.962 265.677Z" fill="#157B6C"/>
<path d="M231.156 287.442C233.273 288.665 233.273 290.647 231.156 291.868C229.04 293.092 225.606 293.092 223.49 291.868C221.373 290.647 221.373 288.665 223.49 287.442C225.606 286.221 229.04 286.221 231.156 287.442Z" fill="#157B6C"/>
<path d="M510.753 363.977C510.749 364.228 510.616 364.461 510.398 364.588L475.066 384.988L472.7 386.352L471.277 385.532L473.643 384.162L508.638 363.957L476.52 344.716L475.127 343.876L467.206 339.13C466.987 339.001 466.855 338.766 466.859 338.513C466.859 338.262 466.997 338.029 467.216 337.902L488.501 325.613L492.692 323.195C493.029 322.997 493.464 323.114 493.658 323.456C493.858 323.797 493.739 324.228 493.403 324.428L489.871 326.466L468.974 338.531L476.536 343.063L477.935 343.898L510.408 363.358C510.62 363.494 510.753 363.727 510.753 363.977Z" fill="#157B6C"/>
<path d="M476.899 319.16L474.116 320.796L444.768 338.065L456.761 344.992C456.98 345.121 457.117 345.352 457.117 345.609C457.117 345.864 456.98 346.097 456.761 346.225L432.342 360.323L429.976 361.689L428.555 360.868L430.92 359.503L454.983 345.609L442.998 338.692C442.78 338.563 442.642 338.332 442.642 338.075C442.642 337.824 442.775 337.587 442.993 337.459L472.631 320.018L476.178 317.932C476.519 317.733 476.955 317.846 477.155 318.189C477.354 318.525 477.241 318.961 476.899 319.16Z" fill="#157B6C"/>
<path d="M446.578 288.345L442.017 290.981L419.105 304.207L436.958 314.513C437.182 314.64 437.315 314.877 437.315 315.128C437.315 315.385 437.182 315.618 436.958 315.746L396.046 339.363L393.681 340.733L392.258 339.914L394.623 338.549L435.179 315.13L417.326 304.824C417.108 304.697 416.97 304.465 416.97 304.208C416.97 303.953 417.108 303.72 417.326 303.593L440.769 290.058L445.865 287.114C446.206 286.918 446.643 287.032 446.837 287.374C447.037 287.715 446.919 288.147 446.578 288.345Z" fill="#157B6C"/>
<path d="M548.946 378.019L545.898 379.778L525.277 391.682C525.059 391.811 524.789 391.811 524.566 391.682L509.05 382.723L490.097 393.665L487.726 395.035L486.305 394.21L488.676 392.846L508.695 381.288C508.913 381.16 509.187 381.16 509.407 381.288L524.922 390.247L544.339 379.04L548.236 376.788C548.579 376.594 549.008 376.708 549.208 377.049C549.401 377.388 549.287 377.821 548.946 378.019Z" fill="#157B6C"/>
<path d="M417.77 292.167L414.759 293.901C414.755 293.901 414.755 293.901 414.755 293.901L366.036 322.037L363.665 323.401L362.242 322.58L364.608 321.216L413.176 293.175L417.058 290.933C417.4 290.734 417.836 290.852 418.03 291.193C418.23 291.536 418.111 291.968 417.77 292.167Z" fill="#157B6C"/>
<path d="M434.936 264.604L432.678 265.909L350.703 313.187L348.331 314.552L346.91 313.732L349.276 312.366L430.909 265.284L434.223 263.373C434.564 263.179 435 263.292 435.195 263.633C435.395 263.975 435.275 264.41 434.936 264.604Z" fill="#157B6C"/>
<path d="M460.56 316.121L457.208 318.056L408.175 346.367L405.804 347.733L404.383 346.914L406.749 345.548L455.654 317.313L459.85 314.89C460.191 314.696 460.628 314.81 460.822 315.151C461.019 315.49 460.901 315.926 460.56 316.121Z" fill="#157B6C"/>
<path d="M407.423 315.481L402.076 318.566L381.046 330.708L378.681 332.072L377.258 331.253L379.623 329.888L400.591 317.785L406.711 314.249C407.052 314.055 407.489 314.169 407.683 314.51C407.88 314.851 407.766 315.282 407.423 315.481Z" fill="#157B6C"/>
<path d="M401.088 313.692C398.971 314.915 398.971 316.895 401.088 318.118C403.206 319.341 406.638 319.341 408.755 318.118C410.872 316.895 410.872 314.915 408.755 313.692C406.638 312.469 403.206 312.469 401.088 313.692Z" fill="#157B6C"/>
<path d="M544.658 374.816C542.541 376.038 542.541 378.02 544.658 379.241C546.776 380.464 550.208 380.464 552.325 379.241C554.441 378.02 554.441 376.038 552.325 374.816C550.208 373.593 546.776 373.593 544.658 374.816Z" fill="#157B6C"/>
<path d="M473.119 315.919C471.002 317.142 471.002 319.123 473.119 320.345C475.237 321.568 478.669 321.568 480.786 320.345C482.902 319.123 482.902 317.142 480.786 315.919C478.669 314.696 475.237 314.696 473.119 315.919Z" fill="#157B6C"/>
<path d="M510.397 337.477C508.279 338.701 508.279 340.682 510.397 341.904C512.514 343.127 515.946 343.127 518.064 341.904C520.181 340.682 520.181 338.701 518.064 337.477C515.946 336.254 512.514 336.254 510.397 337.477Z" fill="#157B6C"/>
<path d="M514.789 339.98C514.589 340.321 514.158 340.435 513.817 340.241L509.778 337.909L499.045 331.712L477.935 343.9L476.522 344.716L440.92 365.27L438.55 366.636L437.133 365.817L439.498 364.452L475.129 343.877L476.536 343.067L498.69 330.276C498.912 330.149 499.183 330.149 499.401 330.276L511.204 337.093L514.528 339.008C514.865 339.204 514.984 339.639 514.789 339.98Z" fill="#157B6C"/>
<path d="M386.865 266.511L384.088 268.147L354.729 285.416L366.722 292.343C366.946 292.472 367.079 292.703 367.079 292.96C367.079 293.211 366.946 293.448 366.722 293.576L341.725 308.007L339.359 309.371L330.447 314.514C330.338 314.581 330.214 314.614 330.096 314.614C329.85 314.614 329.608 314.487 329.479 314.259C329.281 313.918 329.399 313.481 329.736 313.287L337.937 308.552L340.308 307.187L364.945 292.96L352.96 286.039C352.741 285.911 352.609 285.679 352.603 285.428C352.603 285.172 352.736 284.939 352.954 284.812L382.593 267.37L386.144 265.285C386.48 265.085 386.916 265.199 387.116 265.536C387.316 265.876 387.208 266.311 386.865 266.511Z" fill="#157B6C"/>
<path d="M383.084 263.267C380.967 264.49 380.967 266.47 383.084 267.693C385.2 268.916 388.632 268.916 390.75 267.693C392.867 266.47 392.867 264.49 390.75 263.267C388.632 262.046 385.2 262.046 383.084 263.267Z" fill="#157B6C"/>
<path d="M456.006 313.107C453.889 314.328 453.889 316.31 456.006 317.533C458.123 318.756 461.555 318.756 463.673 317.533C465.789 316.31 465.789 314.328 463.673 313.107C461.555 311.885 458.123 311.885 456.006 313.107Z" fill="#157B6C"/>
<path d="M441.768 286.426C439.65 287.649 439.65 289.629 441.768 290.852C443.884 292.075 447.317 292.075 449.435 290.852C451.551 289.629 451.551 287.649 449.435 286.426C447.317 285.203 443.885 285.203 441.768 286.426Z" fill="#157B6C"/>
<path d="M430.737 260.764C428.619 261.987 428.619 263.967 430.737 265.191C432.854 266.414 436.286 266.414 438.403 265.191C440.521 263.967 440.521 261.987 438.403 260.764C436.286 259.543 432.854 259.543 430.737 260.764Z" fill="#157B6C"/>
<path d="M489.276 321.756C487.158 322.979 487.158 324.96 489.276 326.182C491.393 327.405 494.825 327.405 496.942 326.182C499.06 324.96 499.06 322.979 496.942 321.756C494.825 320.532 491.393 320.532 489.276 321.756Z" fill="#157B6C"/>
<path d="M413.443 288.916C411.326 290.139 411.326 292.12 413.443 293.343C415.561 294.566 418.993 294.566 421.11 293.343C423.228 292.12 423.228 290.139 421.11 288.916C418.993 287.695 415.559 287.695 413.443 288.916Z" fill="#157B6C"/>
<path d="M250.516 312.972L238.743 306.13C237.448 305.377 236.494 303.899 236.125 301.556L247.899 308.397C248.267 310.741 249.219 312.219 250.516 312.972Z" fill="#DAD9E8"/>
<mask id="mask4_9_67787" style="mask-type:luminance" maskUnits="userSpaceOnUse" x="236" y="301" width="15" height="12">
<path d="M250.516 312.972L238.743 306.13C237.448 305.377 236.494 303.899 236.125 301.556L247.899 308.397C248.267 310.741 249.219 312.219 250.516 312.972Z" fill="white"/>
</mask>
<g mask="url(#mask4_9_67787)">
<path d="M250.517 312.972L238.744 306.13C237.457 305.383 236.506 303.917 236.133 301.597L247.906 308.439C248.279 310.757 249.228 312.223 250.517 312.972Z" fill="#DAD9E8"/>
<path d="M247.905 308.439L236.132 301.597C236.129 301.583 236.128 301.57 236.125 301.556L247.899 308.397C247.901 308.41 247.903 308.425 247.905 308.439Z" fill="#DAD9E8"/>
</g>
<path d="M260.642 190.145L272.416 196.987C268.98 194.992 264.218 195.24 258.886 198.318L247.113 191.477C252.444 188.398 257.207 188.149 260.642 190.145Z" fill="#DAD9E8"/>
<mask id="mask5_9_67787" style="mask-type:luminance" maskUnits="userSpaceOnUse" x="247" y="188" width="26" height="11">
<path d="M260.642 190.145L272.416 196.987C268.98 194.992 264.218 195.24 258.886 198.318L247.113 191.477C252.444 188.398 257.207 188.149 260.642 190.145Z" fill="white"/>
</mask>
<g mask="url(#mask5_9_67787)">
<path d="M258.882 198.318L247.109 191.477C252.441 188.398 257.204 188.149 260.639 190.145L272.413 196.987C268.977 194.99 264.215 195.24 258.882 198.318Z" fill="#DAD9E8"/>
</g>
<path d="M247.897 308.396L236.122 301.554L224.809 229.782L236.583 236.624L247.897 308.396Z" fill="#DAD9E8"/>
<path d="M255.296 200.39L243.523 193.548L247.112 191.477L258.885 198.318L255.296 200.39Z" fill="#EBEBF1"/>
<path d="M236.582 236.624L224.81 229.782C222.884 217.568 231.793 200.321 243.524 193.548L255.297 200.39C243.564 207.164 234.656 224.411 236.582 236.624Z" fill="#EBEBF1"/>
<mask id="mask6_9_67787" style="mask-type:luminance" maskUnits="userSpaceOnUse" x="224" y="193" width="32" height="44">
<path d="M236.582 236.624L224.81 229.782C222.884 217.568 231.793 200.321 243.524 193.548L255.297 200.39C243.564 207.164 234.656 224.411 236.582 236.624Z" fill="white"/>
</mask>
<g mask="url(#mask6_9_67787)">
<path d="M236.582 236.624L224.81 229.782C224.224 226.068 224.64 221.89 225.833 217.68L237.606 224.522C236.412 228.731 235.996 232.91 236.582 236.624Z" fill="#EBEBF1"/>
<path d="M237.605 224.524L225.832 217.682C227.175 212.946 229.499 208.173 232.487 203.984L244.26 210.826C241.273 215.015 238.947 219.788 237.605 224.524Z" fill="#EBEBF1"/>
<path d="M244.257 210.826L232.485 203.984C234.768 200.782 237.439 197.922 240.353 195.68L252.127 202.521C249.212 204.764 246.541 207.624 244.257 210.826Z" fill="#EBEBF1"/>
<path d="M252.126 202.52L240.352 195.678C241.379 194.886 242.439 194.172 243.522 193.548L255.295 200.39C254.212 201.015 253.154 201.73 252.126 202.52Z" fill="#EBEBF1"/>
</g>
<path d="M258.884 198.318C270.615 191.545 279.587 198.468 277.737 212.862L266.871 297.439C266.011 304.125 261.714 309.701 257.408 312.187C253.101 314.674 248.787 314.069 247.893 308.396L236.579 236.624C234.653 224.41 243.562 207.163 255.294 200.39L258.884 198.318Z" fill="#C4C3EC"/>
<path d="M271.908 198.927L280.107 203.693C276.627 201.67 271.807 201.954 266.485 205.027L258.285 200.262C263.606 197.19 268.426 196.905 271.908 198.927Z" fill="#157B6C"/>
<mask id="mask7_9_67787" style="mask-type:luminance" maskUnits="userSpaceOnUse" x="258" y="197" width="23" height="9">
<path d="M271.908 198.927L280.107 203.693C276.627 201.67 271.807 201.954 266.485 205.027L258.285 200.262C263.606 197.19 268.426 196.905 271.908 198.927Z" fill="white"/>
</mask>
<g mask="url(#mask7_9_67787)">
<path d="M266.488 205.027L258.289 200.262C263.61 197.19 268.43 196.905 271.912 198.928L280.111 203.694C276.629 201.67 271.809 201.954 266.488 205.027Z" fill="#157B6C"/>
</g>
<path d="M268.387 213.036C275.63 208.85 281.537 212.22 281.556 220.548C281.584 228.871 275.717 239.032 268.472 243.212C261.226 247.399 255.316 244.035 255.297 235.71C255.269 227.388 261.143 217.214 268.387 213.036Z" fill="#157B6C"/>
<path d="M252.98 250.371L244.78 245.606C241.343 243.61 239.212 239.362 239.195 233.328C239.161 221.175 247.71 206.368 258.286 200.262L266.485 205.027C255.909 211.134 247.36 225.939 247.395 238.092C247.413 244.128 249.544 248.374 252.98 250.371Z" fill="#157B6C"/>
<mask id="mask8_9_67787" style="mask-type:luminance" maskUnits="userSpaceOnUse" x="239" y="200" width="28" height="51">
<path d="M252.98 250.371L244.78 245.606C241.343 243.61 239.212 239.362 239.195 233.328C239.161 221.175 247.71 206.368 258.286 200.262L266.485 205.027C255.909 211.134 247.36 225.939 247.395 238.092C247.413 244.128 249.544 248.374 252.98 250.371Z" fill="white"/>
</mask>
<g mask="url(#mask8_9_67787)">
<path d="M252.983 250.371L244.782 245.606C241.73 243.833 239.708 240.286 239.281 235.285L247.482 240.051C247.909 245.05 249.931 248.597 252.983 250.371Z" fill="#157B6C"/>
<path d="M247.481 240.051L239.28 235.286C239.226 234.656 239.198 234.003 239.195 233.326C239.166 222.849 245.517 210.396 254.047 203.251L262.247 208.017C253.717 215.162 247.366 227.614 247.396 238.092C247.398 238.767 247.427 239.421 247.481 240.051Z" fill="#157B6C"/>
<path d="M262.248 208.017L254.047 203.251C255.41 202.108 256.829 201.103 258.286 200.261L266.485 205.026C265.029 205.867 263.611 206.874 262.248 208.017Z" fill="#157B6C"/>
</g>
<path d="M268.386 213.036L266.485 205.026C277.061 198.92 285.66 203.826 285.694 215.979C285.729 228.132 277.186 242.929 266.61 249.036C256.034 255.141 247.429 250.245 247.395 238.092C247.36 225.939 255.909 211.133 266.485 205.027L268.386 213.036C261.142 217.214 255.268 227.387 255.296 235.708C255.315 244.034 261.225 247.398 268.471 243.21C275.716 239.031 281.583 228.869 281.555 220.547C281.537 212.22 275.63 208.85 268.386 213.036Z" fill="#157B6C"/>
<mask id="mask9_9_67787" style="mask-type:luminance" maskUnits="userSpaceOnUse" x="247" y="202" width="39" height="50">
<path d="M268.386 213.036L266.485 205.026C277.061 198.92 285.66 203.826 285.694 215.979C285.729 228.132 277.186 242.929 266.61 249.036C256.034 255.141 247.429 250.245 247.395 238.092C247.36 225.939 255.909 211.133 266.485 205.027L268.386 213.036C261.142 217.214 255.268 227.387 255.296 235.708C255.315 244.034 261.225 247.398 268.471 243.21C275.716 239.031 281.583 228.869 281.555 220.547C281.537 212.22 275.63 208.85 268.386 213.036Z" fill="white"/>
</mask>
<g mask="url(#mask9_9_67787)">
<path d="M268.386 213.036L266.485 205.026C277.061 198.92 285.66 203.826 285.694 215.979C285.729 228.132 277.186 242.929 266.61 249.036C256.034 255.141 247.429 250.245 247.395 238.092C247.36 225.939 255.909 211.133 266.485 205.027L268.386 213.036C261.142 217.214 255.268 227.387 255.296 235.708C255.315 244.034 261.225 247.398 268.471 243.21C275.716 239.031 281.583 228.869 281.555 220.547C281.537 212.22 275.63 208.85 268.386 213.036Z" fill="#12B0F3"/>
</g>
<path d="M246.041 66.7742L242.047 67.9971L263.296 137.39L267.289 136.167L246.041 66.7742Z" fill="#171C29"/>
<path d="M290.602 354.658C271.103 342.612 266.717 326.439 264.844 319.534C266.361 326.159 271.544 332.749 280.391 338.074C302.495 351.376 339.09 351.747 362.128 338.9C372.022 333.384 377.806 326.326 379.437 319.017C377.938 324.748 375.674 333.41 367.034 343.421C363.762 347.212 356.552 354.263 345.028 358.886C327.506 365.916 306.143 364.257 290.602 354.658Z" fill="#5ECFBF"/>
<path d="M362.504 196.653C384.052 209.621 383.313 230.287 360.854 242.81C338.394 255.333 302.721 254.972 281.174 242.004C259.626 229.036 260.365 208.37 282.824 195.847C305.282 183.324 340.957 183.685 362.504 196.653Z" fill="#E4E3EE"/>
<path d="M264.802 319.345L247.426 243.421C249.451 252.274 256.188 260.836 267.683 267.756C296.405 285.042 343.957 285.523 373.894 268.83C386.751 261.661 394.268 252.491 396.385 242.991L379.439 319.015C377.81 326.326 372.024 333.382 362.131 338.9C339.091 351.746 302.497 351.376 280.394 338.074C271.547 332.747 266.362 326.158 264.802 319.345Z" fill="#B7B6E3"/>
<path d="M273.585 194.637C302.928 178.71 344.476 179.182 372.377 195.76C369.888 194.262 366.408 194.379 362.504 196.557C340.956 183.589 305.281 183.227 282.822 195.752C260.362 208.275 259.623 228.94 281.171 241.908C302.719 254.878 338.394 255.238 360.852 242.714C383.311 230.191 384.05 209.525 362.502 196.557C366.407 194.379 369.886 194.262 372.375 195.76C378.217 199.537 387.046 205.246 393.189 217.257C398.92 228.464 397.179 238.516 396.435 242.808C394.253 252.558 386.738 261.718 373.892 268.88C343.956 285.573 296.404 285.092 267.682 267.806C256.198 260.893 249.463 252.342 247.428 243.497C246.71 239.637 246.032 235.99 246.72 230.28C247.581 223.118 250.436 217.719 250.558 217.493C252.698 213.5 258.376 202.893 273.585 194.637Z" fill="#DAD9E8"/>
<path d="M353.106 102.939C369.634 112.887 369.067 128.738 351.84 138.344C334.612 147.95 307.249 147.673 290.722 137.725C274.194 127.777 274.761 111.926 291.988 102.321C309.214 92.7154 336.579 92.9927 353.106 102.939Z" fill="#EBEBF1"/>
<path d="M268.889 221.548C242.286 205.084 236.445 183.298 236.23 167.92C236.265 180.269 244.197 192.615 260.123 202.199C292.935 221.948 347.261 222.498 381.463 203.427C399.065 193.612 407.905 180.513 407.868 167.418C407.571 175.458 407.129 179.627 403.896 188.631C401.362 195.692 396.834 201.696 394.402 204.923C393.265 206.43 382.714 219.875 362.338 227.811C327.01 241.571 289.949 234.58 268.889 221.548Z" fill="#B7B6E3"/>
<path d="M271.345 99.84C286.925 91.3592 304.417 87.1811 323.338 87.4238C342.769 87.672 360.209 92.2966 375.175 101.167C369.573 97.7947 361.751 98.1206 353.109 102.941C336.582 92.9941 309.217 92.7167 291.991 102.322C274.764 111.929 274.196 127.779 290.725 137.727C307.252 147.673 334.617 147.95 351.843 138.345C369.07 128.74 369.637 112.889 353.109 102.941C361.751 98.1219 369.572 97.7961 375.175 101.167C383.064 106.26 407.069 121.756 407.834 154.795C407.872 167.891 399.03 180.989 381.428 190.804C347.227 209.875 292.9 209.324 260.088 189.577C244.162 179.991 236.23 167.645 236.195 155.296C236.373 150.495 236.574 145.054 238.673 138.403C241.16 130.527 243.303 127.146 246.852 121.547C249.656 117.123 258.382 106.895 271.345 99.84Z" fill="#E4E3EE"/>
<path d="M338.893 203.757C311.103 207.022 281.158 202.258 260.086 189.575C244.249 180.043 236.319 167.784 236.195 155.504C236.173 147.527 239.451 140.164 244.983 134.274C245.094 145.287 252.207 156.284 266.411 164.833C285.311 176.208 312.169 180.482 337.095 177.553C338.2 186.562 338.87 195.781 338.893 203.757Z" fill="#157B6C"/>
<path d="M236.231 167.92L236.195 155.294C236.23 167.644 244.162 179.989 260.088 189.575C292.9 209.323 347.226 209.873 381.428 190.803C399.03 180.988 407.87 167.889 407.834 154.794L407.87 167.419C407.908 180.513 399.066 193.612 381.465 203.428C347.265 222.499 292.938 221.948 260.125 202.201C244.198 192.615 236.267 180.269 236.231 167.92Z" fill="#DAD9E8"/>
<path d="M250.141 168.286C248.454 173.053 245.564 173.372 243.563 169.012C240.221 161.732 243.625 152.937 247.96 154.192C248.749 154.421 249.162 154.874 249.602 155.355C252.381 159.303 250.885 166.186 250.141 168.286Z" fill="white"/>
<path d="M298.785 189.868C297.517 197.027 288.523 198.231 283.98 191.851C279.236 185.189 284.435 177.515 291.074 178.341C291.318 178.371 291.641 178.442 291.884 178.486C297.734 180.181 299.443 186.161 298.785 189.868Z" fill="white"/>
<path d="M378.934 159.087C378.934 154.849 375.959 153.131 372.289 155.25C368.619 157.369 365.645 162.522 365.645 166.761C365.645 170.998 368.62 172.716 372.291 170.598C375.959 168.479 378.934 163.326 378.934 159.087Z" fill="#1393F2"/>
<path d="M373.156 165.105C372.52 165.105 371.894 164.817 371.485 164.27C370.793 163.348 370.978 162.039 371.901 161.346L420.342 124.989C421.265 124.297 422.574 124.483 423.266 125.406C423.957 126.328 423.772 127.637 422.848 128.329L374.405 164.685C374.032 164.969 373.592 165.105 373.156 165.105Z" fill="#171C29"/>
<path d="M433.892 124.051C433.892 117.832 428.85 112.79 422.63 112.79C416.409 112.79 411.367 117.832 411.367 124.051C411.367 130.272 416.409 135.314 422.63 135.314C428.85 135.314 433.892 130.272 433.892 124.051Z" fill="#157B6C"/>
<path d="M254.273 67.3741C254.273 61.1535 249.232 56.1116 243.011 56.1116C236.792 56.1116 231.75 61.1535 231.75 67.3741C231.75 73.5947 236.792 78.6366 243.011 78.6366C249.232 78.6352 254.273 73.5933 254.273 67.3741Z" fill="#157B6C"/>
<path d="M388.9 239.36L397.101 244.126C393.62 242.102 388.799 242.387 383.478 245.46L375.277 240.694C380.598 237.621 385.418 237.336 388.9 239.36Z" fill="#157B6C"/>
<mask id="mask10_9_67787" style="mask-type:luminance" maskUnits="userSpaceOnUse" x="375" y="238" width="23" height="8">
<path d="M388.9 239.36L397.101 244.126C393.62 242.102 388.799 242.387 383.478 245.46L375.277 240.694C380.598 237.621 385.418 237.336 388.9 239.36Z" fill="white"/>
</mask>
<g mask="url(#mask10_9_67787)">
<path d="M383.478 245.458L375.277 240.692C380.598 237.621 385.418 237.335 388.899 239.358L397.099 244.124C393.619 242.102 388.799 242.387 383.478 245.458Z" fill="#157B6C"/>
</g>
<path d="M385.378 253.469C392.622 249.282 398.529 252.652 398.548 260.98C398.576 269.303 392.709 279.465 385.464 283.643C378.219 287.83 372.307 284.466 372.289 276.141C372.26 267.819 378.134 257.647 385.378 253.469Z" fill="#157B6C"/>
<path d="M369.974 290.802L361.773 286.036C358.336 284.039 356.206 279.793 356.188 273.757C356.153 261.605 364.702 246.798 375.278 240.691L383.479 245.457C372.902 251.562 364.354 266.37 364.388 278.523C364.405 284.559 366.536 288.805 369.974 290.802Z" fill="#157B6C"/>
<mask id="mask11_9_67787" style="mask-type:luminance" maskUnits="userSpaceOnUse" x="356" y="240" width="28" height="51">
<path d="M369.974 290.802L361.773 286.036C358.336 284.039 356.206 279.793 356.188 273.757C356.153 261.605 364.702 246.798 375.278 240.691L383.479 245.457C372.902 251.562 364.354 266.37 364.388 278.523C364.405 284.559 366.536 288.805 369.974 290.802Z" fill="white"/>
</mask>
<g mask="url(#mask11_9_67787)">
<path d="M369.975 290.802L361.774 286.036C358.722 284.263 356.699 280.716 356.273 275.717L364.473 280.483C364.9 285.482 366.923 289.029 369.975 290.802Z" fill="#157B6C"/>
<path d="M364.472 280.482L356.272 275.716C356.218 275.087 356.189 274.434 356.188 273.757C356.158 263.278 362.509 250.827 371.04 243.68L379.24 248.446C370.71 255.593 364.358 268.044 364.388 278.523C364.39 279.2 364.419 279.853 364.472 280.482Z" fill="#157B6C"/>
<path d="M379.238 248.448L371.039 243.682C372.401 242.541 373.819 241.534 375.277 240.692L383.477 245.458C382.02 246.3 380.602 247.305 379.238 248.448Z" fill="#157B6C"/>
</g>
<path d="M385.378 253.469L383.479 245.458C394.055 239.353 402.653 244.259 402.688 256.411C402.723 268.564 394.178 283.361 383.602 289.468C373.026 295.574 364.422 290.676 364.387 278.525C364.352 266.372 372.901 251.565 383.477 245.458L385.378 253.469C378.134 257.647 372.26 267.82 372.29 276.141C372.309 284.466 378.219 287.831 385.464 283.643C392.71 279.463 398.577 269.302 398.549 260.98C398.529 252.652 392.622 249.283 385.378 253.469Z" fill="#157B6C"/>
<mask id="mask12_9_67787" style="mask-type:luminance" maskUnits="userSpaceOnUse" x="364" y="242" width="39" height="51">
<path d="M385.378 253.469L383.479 245.458C394.055 239.353 402.653 244.259 402.688 256.411C402.723 268.564 394.178 283.361 383.602 289.468C373.026 295.574 364.422 290.676 364.387 278.525C364.352 266.372 372.901 251.565 383.477 245.458L385.378 253.469C378.134 257.647 372.26 267.82 372.29 276.141C372.309 284.466 378.219 287.831 385.464 283.643C392.71 279.463 398.577 269.302 398.549 260.98C398.529 252.652 392.622 249.283 385.378 253.469Z" fill="white"/>
</mask>
<g mask="url(#mask12_9_67787)">
<path d="M385.378 253.469L383.479 245.458C394.055 239.353 402.653 244.259 402.688 256.411C402.723 268.564 394.178 283.361 383.602 289.468C373.026 295.574 364.422 290.676 364.387 278.525C364.352 266.372 372.902 251.565 383.479 245.458L385.378 253.469C378.134 257.647 372.26 267.82 372.29 276.141C372.309 284.466 378.219 287.831 385.464 283.643C392.71 279.463 398.577 269.302 398.549 260.98C398.529 252.652 392.622 249.283 385.378 253.469Z" fill="#12B0F3"/>
</g>
<path d="M388.994 365.874L377.221 359.032C375.926 358.279 374.972 356.801 374.602 354.456L386.374 361.298C386.746 363.642 387.699 365.121 388.994 365.874Z" fill="#DAD9E8"/>
<mask id="mask13_9_67787" style="mask-type:luminance" maskUnits="userSpaceOnUse" x="374" y="354" width="15" height="12">
<path d="M388.994 365.874L377.221 359.032C375.926 358.279 374.972 356.801 374.602 354.456L386.374 361.298C386.746 363.642 387.699 365.121 388.994 365.874Z" fill="white"/>
</mask>
<g mask="url(#mask13_9_67787)">
<path d="M388.993 365.874L377.22 359.032C375.934 358.283 374.982 356.819 374.609 354.499L386.382 361.341C386.757 363.66 387.706 365.125 388.993 365.874Z" fill="#DAD9E8"/>
<path d="M386.381 361.341L374.609 354.499C374.606 354.485 374.604 354.471 374.602 354.456L386.374 361.298C386.377 361.313 386.379 361.327 386.381 361.341Z" fill="#DAD9E8"/>
</g>
<path d="M399.123 243.047L410.896 249.889C407.461 247.893 402.7 248.141 397.367 251.22L385.594 244.378C390.927 241.3 395.689 241.05 399.123 243.047Z" fill="#DAD9E8"/>
<mask id="mask14_9_67787" style="mask-type:luminance" maskUnits="userSpaceOnUse" x="385" y="241" width="26" height="11">
<path d="M399.123 243.047L410.896 249.889C407.461 247.893 402.7 248.141 397.367 251.22L385.594 244.378C390.927 241.3 395.689 241.05 399.123 243.047Z" fill="white"/>
</mask>
<g mask="url(#mask14_9_67787)">
<path d="M397.367 251.22L385.594 244.378C390.927 241.3 395.689 241.05 399.123 243.047L410.896 249.889C407.461 247.893 402.698 248.141 397.367 251.22Z" fill="#DAD9E8"/>
</g>
<path d="M386.376 361.299L374.601 354.456L363.289 282.685L375.062 289.525L386.376 361.299Z" fill="#DAD9E8"/>
<path d="M393.778 253.291L382.004 246.451L385.593 244.378L397.367 251.22L393.778 253.291Z" fill="#EBEBF1"/>
<path d="M375.063 289.525L363.29 282.683C361.365 270.469 370.273 253.222 382.006 246.45L393.778 253.291C382.046 260.065 373.138 277.313 375.063 289.525Z" fill="#EBEBF1"/>
<mask id="mask15_9_67787" style="mask-type:luminance" maskUnits="userSpaceOnUse" x="363" y="246" width="31" height="44">
<path d="M375.063 289.525L363.29 282.683C361.365 270.469 370.273 253.222 382.006 246.45L393.778 253.291C382.046 260.065 373.138 277.313 375.063 289.525Z" fill="white"/>
</mask>
<g mask="url(#mask15_9_67787)">
<path d="M375.063 289.525L363.29 282.683C362.705 278.97 363.121 274.79 364.313 270.583L376.087 277.425C374.893 281.633 374.477 285.812 375.063 289.525Z" fill="#EBEBF1"/>
<path d="M376.087 277.425L364.312 270.583C365.653 265.848 367.979 261.075 370.967 256.886L382.74 263.727C379.754 267.917 377.429 272.689 376.087 277.425Z" fill="#EBEBF1"/>
<path d="M382.742 263.727L370.969 256.886C373.253 253.684 375.923 250.823 378.837 248.581L390.609 255.423C387.696 257.665 385.025 260.526 382.742 263.727Z" fill="#EBEBF1"/>
<path d="M390.609 255.423L378.836 248.581C379.865 247.789 380.923 247.075 382.006 246.451L393.779 253.293C392.696 253.917 391.638 254.631 390.609 255.423Z" fill="#EBEBF1"/>
</g>
<path d="M397.368 251.22C409.1 244.446 418.072 251.37 416.222 265.763L405.356 350.34C404.497 357.027 400.199 362.602 395.894 365.089C391.587 367.575 387.273 366.97 386.377 361.298L375.063 289.525C373.138 277.313 382.046 260.065 393.779 253.291L397.368 251.22Z" fill="#C4C3EC"/>
</svg>
