<svg width="81" height="81" viewBox="0 0 81 81" fill="none" xmlns="http://www.w3.org/2000/svg">
<circle cx="40.5" cy="40.5" r="40" stroke="#44ACAB" stroke-dasharray="6 6"/>
<path d="M54.0492 32.0201L44.8492 22.7951C44.3622 22.2931 43.7793 21.894 43.1351 21.6215C42.491 21.3489 41.7987 21.2085 41.0992 21.2085C40.3998 21.2085 39.7075 21.3489 39.0633 21.6215C38.4192 21.894 37.8363 22.2931 37.3492 22.7951L28.1209 32.0201L41.0459 38.4701L54.0492 32.0201ZM57.5776 35.7451L59.4026 37.5701C59.9077 38.0553 60.3096 38.6376 60.5841 39.282C60.8586 39.9264 61.0001 40.6196 61.0001 41.3201C61.0001 42.0205 60.8586 42.7137 60.5841 43.3581C60.3096 44.0025 59.9077 44.5848 59.4026 45.0701L44.7009 59.9167C44.3521 60.2729 43.9466 60.5685 43.5009 60.7917V42.7951L57.5776 35.7451ZM24.4226 35.7451L22.5976 37.5701C22.0924 38.0553 21.6906 38.6376 21.416 39.282C21.1415 39.9264 21 40.6196 21 41.3201C21 42.0205 21.1415 42.7137 21.416 43.3581C21.6906 44.0025 22.0924 44.5848 22.5976 45.0701L37.3009 59.9167C37.6509 60.2734 38.0559 60.5701 38.5009 60.7917V42.7951L24.4226 35.7451Z" fill="#44ACAB"/>
</svg>
