<svg width="127" height="127" viewBox="0 0 127 127" fill="none" xmlns="http://www.w3.org/2000/svg">
<circle cx="63.5" cy="63.5" r="63.5" fill="#157B6C"/>
<g clip-path="url(#clip0_8_57272)">
<path d="M70.1485 30.1759C74.7104 31.0783 78.9401 32.8955 82.6435 35.4271C85.2064 33.8417 88.6152 34.1613 90.8398 36.3858C93.0768 38.6229 93.3901 42.0631 91.7672 44.6385C94.2612 48.3669 96.0345 52.6155 96.893 57.1836C99.8256 57.8792 102.006 60.511 102.006 63.6567C102.006 66.8211 99.7943 69.4718 96.8303 70.1423C95.928 74.7041 94.1108 78.9338 91.5792 82.6372C93.1646 85.2001 92.845 88.609 90.6204 90.8335C88.3834 93.0706 84.9432 93.3839 82.3678 91.7609C78.6393 94.2549 74.3908 96.0282 69.8227 96.8867C69.1271 99.8193 66.4953 102 63.3496 102C60.1851 102 57.5345 99.788 56.864 96.8241C52.3022 95.9217 48.0724 94.1045 44.3691 91.5729C41.8062 93.1583 38.3973 92.8324 36.1728 90.6142C33.9357 88.3771 33.6224 84.9369 35.2454 82.3615C32.7514 78.6331 30.978 74.3845 30.1195 69.8164C27.1807 69.1146 25 66.4827 25 63.3433C25 60.1789 27.212 57.5282 30.1759 56.8577C31.0783 52.2959 32.8955 48.0662 35.4271 44.3628C33.8417 41.7999 34.1676 38.391 36.3858 36.1665C38.6229 33.9294 42.0631 33.6161 44.6385 35.2391C48.3669 32.7451 52.6155 30.9718 57.1836 30.1133C57.8792 27.1807 60.5173 25 63.6567 25C66.8274 25 69.478 27.212 70.1485 30.1759ZM88.4398 47.333C86.0774 48.204 83.3202 47.6965 81.4278 45.7978C79.5166 43.8866 79.009 41.0981 79.9176 38.7231C76.866 36.6991 73.4132 35.2203 69.7099 34.4307C68.6571 36.7179 66.3449 38.3096 63.6629 38.3096C60.9559 38.3096 58.6248 36.6929 57.5909 34.3743C53.875 35.1263 50.4098 36.5675 47.3393 38.5602C48.2103 40.9226 47.7027 43.6798 45.804 45.5722C43.8928 47.4834 41.1043 47.991 38.7294 47.0824C36.7054 50.134 35.2266 53.5868 34.437 57.2901C36.7242 58.3429 38.3158 60.6551 38.3158 63.3371C38.3158 66.0441 36.6991 68.3752 34.3806 69.4091C35.1326 73.125 36.5738 76.5903 38.5728 79.6607C40.9351 78.7897 43.6923 79.2973 45.5847 81.196C47.4959 83.1072 48.0035 85.8957 47.0949 88.2706C50.1466 90.2946 53.5993 91.7734 57.3027 92.563C58.3554 90.2758 60.6676 88.6842 63.3496 88.6842C66.0566 88.6842 68.3877 90.3009 69.4216 92.6194C73.1375 91.8674 76.6028 90.4262 79.6733 88.4272C78.8022 86.0649 79.3098 83.3077 81.2085 81.4153C83.1197 79.5041 85.9082 78.9965 88.2831 79.9051C90.3071 76.8534 91.786 73.4007 92.5755 69.6973C90.2883 68.6446 88.6967 66.3324 88.6967 63.6504C88.6967 60.9434 90.3134 58.6123 92.6319 57.5784C91.88 53.8687 90.4387 50.4035 88.4398 47.333ZM78.1506 55.9053L78.2258 72.2603C78.232 73.0498 77.737 73.7266 77.0289 74.0085V74.0148L63.9324 79.3098C63.6943 79.4038 63.4436 79.4539 63.1867 79.4539C63.1616 79.4539 63.1303 79.4477 63.1052 79.4539C62.9924 79.4665 62.8796 79.4853 62.7668 79.4853C62.5162 79.4853 62.2593 79.4351 62.0274 79.3349L49.9586 74.2592V74.2529C49.263 73.9584 48.7743 73.2629 48.7743 72.4545L48.8432 56.2875C48.8369 56.1309 48.8432 55.9679 48.8745 55.8113C48.8808 55.5857 48.9246 55.3601 49.0124 55.1533C49.2129 54.6646 49.6077 54.3011 50.0714 54.1131L62.6729 49.0437C63.1867 48.8369 63.7381 48.862 64.2081 49.0625L76.7845 53.6118C77.5365 53.8813 78.0127 54.558 78.044 55.2912C78.113 55.4854 78.1506 55.6985 78.1506 55.9053ZM61.1188 76.1767L61.2128 61.7642L51.1241 57.4029L50.9111 71.8717L61.1188 76.1767ZM75.995 57.4029L64.7282 61.7642L64.8159 76.1641L76.0639 71.9595L75.995 57.4029Z" fill="#FAFAFA"/>
</g>
<defs>
<clipPath id="clip0_8_57272">
<rect width="77" height="77" fill="white" transform="translate(25 25)"/>
</clipPath>
</defs>
</svg>
