<svg width="104" height="104" viewBox="0 0 104 104" fill="none" xmlns="http://www.w3.org/2000/svg">
<circle cx="51.9801" cy="51.9801" r="51.9801" fill="#157B6C"/>
<g clip-path="url(#clip0_9_69579)">
<path fill-rule="evenodd" clip-rule="evenodd" d="M50.6313 34.4822C51.3263 34.4822 52.0113 34.5222 52.6864 34.6023V28.6927C52.3638 28.5725 52.0808 28.3822 51.8425 28.1418C51.4057 27.7011 51.1376 27.1001 51.1376 26.429C51.1376 25.7629 51.4057 25.1569 51.8425 24.7162C52.2794 24.2755 52.8751 24.005 53.5403 24.005C54.2005 24.005 54.8012 24.2755 55.238 24.7162C55.6749 25.1569 55.943 25.7579 55.943 26.429C55.943 27.0951 55.6749 27.7011 55.238 28.1418C55.0047 28.3772 54.7118 28.5725 54.3941 28.6927V34.8878C55.9926 35.2384 57.5067 35.8093 58.9066 36.5656V34.2818C58.9066 33.806 59.2888 33.4204 59.7604 33.4204H65.7373C65.8564 33.1149 66.0401 32.8395 66.2685 32.6091C66.7053 32.1684 67.301 31.8979 67.9662 31.8979C68.6265 31.8979 69.2271 32.1684 69.664 32.6091C70.1008 33.0498 70.3689 33.6508 70.3689 34.3219C70.3689 34.988 70.1008 35.594 69.664 36.0347C69.2271 36.4754 68.6314 36.7459 67.9662 36.7459C67.301 36.7459 66.7004 36.4754 66.2734 36.0347C66.0252 35.7843 65.8316 35.4788 65.7125 35.1382H60.6242V37.6223C64.1786 40.1064 66.7798 43.8775 67.7627 48.2697H78.6045V39.4403C78.3414 39.3201 78.0981 39.1498 77.8996 38.9445C77.4627 38.5037 77.1947 37.9027 77.1947 37.2317C77.1947 36.5656 77.4627 35.9596 77.8996 35.5188C78.3364 35.0781 78.9321 34.8077 79.5973 34.8077C80.2576 34.8077 80.8582 35.0781 81.2951 35.5188C81.7319 35.9596 82 36.5606 82 37.2317C82 37.8977 81.7319 38.5037 81.2951 38.9445C81.0221 39.2199 80.6845 39.4252 80.3122 39.5454V49.1361C80.3122 49.6119 79.9299 49.9975 79.4583 49.9975H68.0655C68.1549 50.7187 68.1995 51.4549 68.1995 52.2062C68.1995 53.2078 68.1152 54.1894 67.9563 55.146H77.3436C77.4627 54.8204 77.6514 54.535 77.8896 54.2946C78.3265 53.8539 78.9222 53.5834 79.5874 53.5834C80.2476 53.5834 80.8483 53.8539 81.2852 54.2946C81.722 54.7353 81.9901 55.3363 81.9901 56.0074C81.9901 56.6735 81.722 57.2795 81.2852 57.7202C80.8483 58.1609 80.2526 58.4313 79.5874 58.4313C78.9272 58.4313 78.3265 58.1609 77.8896 57.7202C77.6563 57.4848 77.4627 57.1943 77.3436 56.8688H67.584C66.4819 60.9455 63.98 64.4362 60.6242 66.78V67.8568H65.7125C65.8316 67.5162 66.0252 67.2107 66.2734 66.9603C66.7004 66.5196 67.306 66.2491 67.9662 66.2491C68.6314 66.2491 69.2271 66.5196 69.664 66.9603C70.1008 67.401 70.3689 68.007 70.3689 68.6731C70.3689 69.3442 70.1008 69.9452 69.664 70.3859C69.2271 70.8266 68.6265 71.0971 67.9662 71.0971C67.301 71.0971 66.7053 70.8266 66.2685 70.3859C66.0451 70.1605 65.8614 69.8851 65.7373 69.5746H59.7654C59.2938 69.5746 58.9115 69.1889 58.9115 68.7132V67.8367C57.5116 68.593 55.9926 69.1639 54.3991 69.5145V74.3023C54.7218 74.4225 55.0097 74.6178 55.243 74.8532C55.6799 75.2939 55.9479 75.8999 55.9479 76.566C55.9479 77.2371 55.6799 77.8381 55.243 78.2788C54.8062 78.7195 54.2055 78.99 53.5452 78.99C52.88 78.99 52.2843 78.7195 51.8475 78.2788C51.4106 77.8381 51.1426 77.2321 51.1426 76.566C51.1426 75.8949 51.4106 75.2939 51.8475 74.8532C52.0858 74.6128 52.3687 74.4225 52.6914 74.3023V69.805C52.0163 69.8851 51.3312 69.9251 50.6362 69.9251C49.5987 69.9251 48.5811 69.835 47.5932 69.6597V76.4358C47.5932 76.9116 47.2109 77.2972 46.7393 77.2972H37.2279C37.1088 77.6778 36.9053 78.0184 36.6322 78.2888C36.1954 78.7296 35.5947 79 34.9345 79C34.2693 79 33.6736 78.7296 33.2367 78.2888C32.7999 77.8481 32.5318 77.2421 32.5318 76.576C32.5318 75.9049 32.7999 75.3039 33.2367 74.8632C33.6736 74.4225 34.2743 74.1521 34.9345 74.1521C35.5997 74.1521 36.1954 74.4225 36.6322 74.8632C36.8358 75.0686 36.9996 75.309 37.1237 75.5744H45.8805V69.2691C44.2473 68.8083 42.7084 68.1122 41.3035 67.2207C41.1497 67.361 40.9511 67.4461 40.7277 67.4461H35.5352C35.416 67.7616 35.2274 68.0421 34.9941 68.2724C34.5572 68.7132 33.9565 68.9836 33.2963 68.9836C32.6361 68.9836 32.0354 68.7132 31.5986 68.2724C31.1617 67.8367 30.8936 67.2307 30.8936 66.5596C30.8936 65.8885 31.1617 65.2876 31.5986 64.8468C32.0354 64.4061 32.6361 64.1357 33.2963 64.1357C33.9565 64.1357 34.5572 64.4061 34.9941 64.8468C35.2373 65.0922 35.4309 65.3927 35.55 65.7233H39.2782C36.0415 62.9537 33.8126 59.0273 33.2218 54.57H24.3955V63.4045C24.6586 63.5247 24.9019 63.695 25.1004 63.9003C25.5373 64.341 25.8053 64.942 25.8053 65.6131C25.8053 66.2792 25.5373 66.8852 25.1004 67.3259C24.6636 67.7666 24.0679 68.0371 23.4027 68.0371C22.7424 68.0371 22.1418 67.7666 21.7049 67.3259C21.2681 66.8902 21 66.2842 21 65.6131C21 64.947 21.2681 64.341 21.7049 63.9003C21.9779 63.6248 22.3155 63.4195 22.6878 63.2993V53.7136C22.6878 53.2378 23.0701 52.8522 23.5417 52.8522H33.0729C33.063 52.6369 33.063 52.4215 33.063 52.2062C33.063 50.6486 33.2616 49.1411 33.6339 47.7038H25.6514C25.5323 48.0293 25.3437 48.3148 25.1054 48.5552C24.6685 48.9959 24.0728 49.2663 23.4076 49.2663C22.7474 49.2663 22.1467 48.9959 21.7099 48.5552C21.273 48.1145 21.005 47.5135 21.005 46.8424C21.005 46.1763 21.273 45.5703 21.7099 45.1296C22.1467 44.6889 22.7424 44.4184 23.4076 44.4184C24.0679 44.4184 24.6685 44.6889 25.1054 45.1296C25.3387 45.365 25.5323 45.6554 25.6514 45.981H34.175C35.3267 42.8809 37.3173 40.1965 39.8639 38.2032V37.2817H35.5451C35.4259 37.6123 35.2323 37.9128 34.9891 38.1582C34.5522 38.5989 33.9516 38.8693 33.2913 38.8693C32.6311 38.8693 32.0304 38.5989 31.5936 38.1582C31.1567 37.7174 30.8887 37.1165 30.8887 36.4454C30.8887 35.7743 31.1567 35.1683 31.5936 34.7326C32.0304 34.2918 32.6311 34.0214 33.2913 34.0214C33.9516 34.0214 34.5522 34.2918 34.9891 34.7326C35.2224 34.9679 35.4061 35.2484 35.5302 35.5589H40.7227C41.1943 35.5589 41.5766 35.9445 41.5766 36.4203V37.0213C42.907 36.215 44.3516 35.5789 45.8756 35.1432V27.4256H37.1237C37.0046 27.691 36.8358 27.9364 36.6322 28.1368C36.1954 28.5775 35.5997 28.8479 34.9345 28.8479C34.2743 28.8479 33.6736 28.5775 33.2367 28.1368C32.7999 27.696 32.5318 27.0951 32.5318 26.424C32.5318 25.7579 32.7999 25.1519 33.2367 24.7112C33.6736 24.2704 34.2693 24 34.9345 24C35.5947 24 36.1954 24.2704 36.6322 24.7112C36.9053 24.9866 37.1088 25.3272 37.2279 25.7028H46.7344C47.206 25.7028 47.5882 26.0884 47.5882 26.5642V34.7476C48.5761 34.5723 49.5938 34.4822 50.6313 34.4822ZM43.5623 50.4333H44.9671V50.263V47.4434C44.9671 45.8307 45.6224 44.3683 46.6748 43.3066C47.7272 42.2449 49.1817 41.5838 50.7802 41.5838C52.3787 41.5838 53.8282 42.2449 54.8806 43.3066C55.933 44.3683 56.5883 45.8357 56.5883 47.4434V50.263V50.4333H57.7052C57.9535 50.4333 58.157 50.6386 58.157 50.889V60.5348C58.157 60.7852 57.9535 60.9905 57.7052 60.9905H43.5623C43.314 60.9905 43.1105 60.7852 43.1105 60.5348V50.889C43.1105 50.6386 43.314 50.4333 43.5623 50.4333ZM47.2209 50.4333H54.3246V50.263V47.4133C54.3246 46.4267 53.9225 45.5302 53.2821 44.8792C52.6368 44.2281 51.7482 43.8274 50.7752 43.8274C49.7973 43.8274 48.9087 44.2331 48.2633 44.8792C47.618 45.5302 47.2209 46.4267 47.2209 47.4133V50.263V50.4333ZM50.805 55.7119L51.5199 59.0524L49.554 59.0574L50.1299 55.6718C49.5938 55.4965 49.2016 54.9907 49.2016 54.3897C49.2016 53.6485 49.7973 53.0475 50.532 53.0475C51.2667 53.0475 51.8624 53.6485 51.8624 54.3897C51.8723 55.0458 51.4106 55.5867 50.805 55.7119Z" fill="white"/>
</g>
<defs>
<clipPath id="clip0_9_69579">
<rect width="61" height="55" fill="white" transform="translate(21 24)"/>
</clipPath>
</defs>
</svg>
