<svg width="104" height="104" viewBox="0 0 104 104" fill="none" xmlns="http://www.w3.org/2000/svg">
<circle cx="51.9801" cy="51.9801" r="51.9801" fill="#157B6C"/>
<path d="M82.7876 65.7859V24.7343C79.9768 26.5127 76.6494 27.7817 73.0617 28.6184V59.748L73.0681 59.7505C76.7065 60.9538 80.0162 63.0343 82.7876 65.7859ZM79.0983 77.5102L79.0044 74.052L73.2978 75.6939C72.267 75.9164 71.2374 75.9151 70.2053 75.6939L64.7526 74.0343V77.5405C64.9075 79.3619 70.1558 79.9193 71.7668 79.9964C73.0592 80.0583 78.1589 79.3897 78.8279 78.3406C78.9739 78.1118 79.0628 77.835 79.0983 77.5102ZM81.4114 71.5633V75.7887C81.5346 75.7887 81.7123 75.7761 81.7123 75.9555V77.0918C81.7123 77.2713 81.5333 77.2574 81.4101 77.2574V77.6555C81.579 77.6859 81.7098 77.8376 81.7098 78.017C81.7098 78.2167 81.5434 78.3836 81.3403 78.3836H80.6802C80.4796 78.3836 80.312 78.2193 80.312 78.017C80.312 77.8376 80.4428 77.6897 80.6129 77.6555V77.2574C80.4897 77.2574 80.312 77.2713 80.312 77.0918V75.9555C80.312 75.7735 80.4923 75.7887 80.6167 75.7887V71.8098L73.6698 73.9598C72.4117 74.2593 71.1536 74.2783 69.8955 73.9598L62.2313 71.6809L61.5369 71.4736C60.6724 71.1222 60.8894 70.2981 61.6918 70.1073L70.364 66.9196C71.259 66.6668 72.1502 66.6264 73.0465 66.9196L81.5612 70.0769C82.4867 70.3019 82.6695 71.1526 81.5917 71.5052L81.4114 71.5633ZM52.9917 68.8952C54.425 68.9482 55.8735 68.8749 57.1646 68.7296C58.8925 68.5349 60.4489 68.1406 61.6131 67.5415C62.5056 67.0814 63.1873 66.4911 63.572 65.7682C63.9808 64.9972 64.048 64.1149 63.6799 63.1265C63.4323 62.4592 62.9766 61.74 62.2859 60.974C62.0879 58.7533 61.4696 56.4542 60.8564 54.3118L62.3837 53.7569C63.1886 53.489 63.784 52.8532 63.9249 52.0127C63.9871 51.6436 63.9592 51.2417 63.8271 50.8372C63.6481 50.2811 63.2711 49.7098 62.6693 49.1928L60.7828 47.1591C61.0976 46.5967 61.2233 45.9622 60.9974 45.2076L58.9128 38.2787C58.6525 37.4078 57.9022 36.7695 57.0047 36.6343L58.226 35.6055C58.556 35.3274 58.5979 34.8345 58.3186 34.5058L58.1917 34.387C47.6241 26.4368 38.2943 26.1625 31.5392 29.7104C27.5922 31.7846 24.5364 35.1669 22.6372 39.0864C20.79 42.8959 20.0283 47.2211 20.5907 51.3542C20.0816 51.6626 19.6754 52.0999 19.4012 52.6067C18.1596 54.9122 19.9686 57.6031 22.5153 57.4514C24.831 61.874 29.1309 65.5343 35.7997 67.2925C35.7692 67.7235 35.7273 68.1494 35.6753 68.5703C35.4341 70.5358 34.9707 72.3799 34.3143 74.1127C34.162 74.5159 34.3677 74.9659 34.7726 75.1175C35.1776 75.2705 35.6296 75.0657 35.7819 74.6625C36.484 72.8096 36.9791 70.8454 37.2355 68.7599C37.4907 66.682 37.5098 64.4714 37.2673 62.1166C37.2228 61.6894 36.8382 61.376 36.4078 61.4202C35.9774 61.4632 35.6639 61.8474 35.707 62.2759C35.8289 63.4514 35.8797 64.5914 35.8657 65.6961C30.0538 64.0821 26.2338 60.9045 24.0984 57.0685L36.4497 53.3879C36.9854 54.7428 37.9846 55.8146 39.2046 56.4681C40.563 57.1961 42.2032 57.4135 43.7914 56.9395C45.9255 56.3038 48.0608 55.668 50.1949 55.031L55.6882 53.3942C56.8447 53.0504 57.1811 52.1151 57.5366 51.1241C57.7207 50.6097 57.9149 50.0725 58.2336 49.7464C58.457 49.5177 58.7439 49.2712 59.0359 49.0209C59.2835 48.8099 59.5349 48.5937 59.7735 48.3713L61.6156 50.3506C62.0054 50.6767 62.2377 51.0104 62.3342 51.3125C62.4776 51.7574 62.3405 52.1239 61.8924 52.2756C60.567 52.7079 59.1515 53.269 57.8273 53.7493L58.3618 55.2168L59.3774 54.8477C59.6377 55.7919 59.9132 56.712 60.1188 57.6714C59.7189 58.0253 59.3101 58.2932 58.8899 58.4651C58.3961 58.6673 57.8705 58.7394 57.3208 58.6711C56.8904 58.6193 56.4981 58.9252 56.4461 59.3524C56.394 59.7809 56.7 60.1714 57.1304 60.2245C57.9492 60.3256 58.7351 60.2144 59.4853 59.9073C59.8294 59.767 60.1633 59.5837 60.4883 59.3625L60.553 59.7392C60.6393 60.265 60.7016 60.8072 60.7422 61.3608C60.7566 61.5518 60.8411 61.7309 60.9796 61.8639C61.6131 62.5363 62.0117 63.1366 62.2072 63.6637C62.4078 64.2047 62.3837 64.6635 62.1844 65.0414C61.9584 65.4648 61.5077 65.8389 60.8933 66.1549C59.9068 66.663 58.5383 67.003 56.992 67.1775C55.5143 67.343 53.8143 67.4113 52.1957 67.2836C50.8792 67.18 49.6224 66.9474 48.6017 66.5379C47.2153 65.9818 45.9153 63.7484 44.8997 62.5224C44.2357 61.721 43.4486 60.9159 42.7237 60.6404C42.3187 60.4874 41.8642 60.6896 41.7106 61.0928C41.557 61.496 41.7601 61.9485 42.1651 62.1015C42.5523 62.2822 43.0106 62.7246 43.4423 63.215C44.8527 64.8215 45.9851 67.1711 48.0189 67.9864C49.0333 68.3946 50.2165 68.6474 51.4517 68.7839C51.4137 68.9268 51.4124 69.1366 51.4048 69.2857C51.3603 70.0782 51.3337 71.308 51.368 72.4544C51.3984 73.4555 51.4771 74.4009 51.6282 74.9659C51.7399 75.383 52.1716 75.6307 52.5892 75.5195C53.0069 75.4083 53.2558 74.9798 53.1453 74.5627C53.0247 74.114 52.96 73.2949 52.9333 72.4114C52.9016 71.3409 52.9257 70.1768 52.9688 69.4134C52.9777 69.2529 53.0069 69.0506 52.9917 68.8952ZM47.3562 50.8802C46.8345 51.0369 46.5374 51.5867 46.6935 52.1075C46.7689 52.3576 46.941 52.5678 47.1719 52.6917C47.4028 52.8157 47.6736 52.8433 47.925 52.7685C48.1762 52.6933 48.3871 52.522 48.5116 52.2922C48.636 52.0623 48.6639 51.7927 48.589 51.5425C48.4328 51.0205 47.8806 50.726 47.3562 50.8802ZM51.8517 49.5417C51.3286 49.6971 51.0315 50.2457 51.1877 50.7677C51.2632 51.0178 51.4353 51.2278 51.6661 51.3517C51.897 51.4756 52.1678 51.5033 52.4191 51.4287C52.9422 51.272 53.2405 50.7247 53.0831 50.2027C53.0461 50.0787 52.9848 49.9631 52.9028 49.8627C52.8208 49.7623 52.7197 49.679 52.6053 49.6176C52.4909 49.5562 52.3654 49.5178 52.2361 49.5048C52.1067 49.4918 51.9761 49.5043 51.8517 49.5417ZM58.5713 47.35C58.3923 47.5131 58.2018 47.6761 58.0165 47.8354C57.6978 48.1071 57.3855 48.3751 57.1088 48.6582C56.5489 49.2333 56.2976 49.931 56.0576 50.5983C55.8392 51.2063 55.6323 51.7814 55.24 51.8977L49.9905 53.4624C49.0498 53.743 47.8856 54.1854 46.8776 54.1589C46.1718 54.1399 45.4837 53.9516 44.8718 53.6242C43.8688 53.0858 43.0678 52.1694 42.7161 51.0053L40.5363 43.7579C40.4754 43.5531 40.5046 43.3395 40.5998 43.1626C40.8143 42.7682 41.359 42.6962 41.7487 42.5799L54.3145 38.8348L55.9434 38.3495C56.4829 38.189 57.1837 37.9652 57.4097 38.7261L59.3432 45.1533C59.6847 46.2921 59.4219 46.5689 58.5713 47.35ZM34.5327 47.0858L22.1027 50.7905C21.6711 47.0656 22.3871 43.1916 24.0489 39.7651C25.8098 36.1325 28.6319 33.0043 32.2704 31.0919C38.3642 27.8904 46.7938 28.104 56.4562 35.0518L53.8143 37.2852C53.789 37.3143 53.7648 37.3446 53.7445 37.375L41.232 41.1036C40.4665 41.3336 39.6997 41.5612 38.9329 41.7899L35.688 42.7568C34.4489 43.1259 33.7354 44.4379 34.1074 45.6715L34.5327 47.0858ZM37.4196 51.2366C36.8166 49.2333 36.2123 47.2299 35.6105 45.2253C35.4874 44.8171 35.7248 44.3759 36.1361 44.2533L38.938 43.4179C38.9253 43.677 38.9545 43.9424 39.0332 44.2041L41.2269 51.4983C41.7106 53.0529 42.7847 54.2789 44.1291 54.9994C44.2154 55.0461 44.3005 55.0891 44.3893 55.1321L43.3433 55.443C42.1689 55.7931 40.954 55.6326 39.9473 55.0929C38.1877 54.1488 37.9033 52.8444 37.4196 51.2366ZM34.9821 48.5811L35.98 51.8977L23.3964 55.649C20.4676 56.4491 19.7973 53.4713 21.7041 52.5827C21.9072 52.4879 22.1243 52.407 22.3528 52.3464L34.9821 48.5811ZM71.8493 28.8825C70.8362 29.0898 69.8041 29.2617 68.7605 29.4046C64.4416 29.9936 59.903 30.0517 55.5447 29.6978C54.6218 29.148 53.7077 28.6525 52.8051 28.2076C57.9149 28.8459 63.4184 28.9192 68.5993 28.2114C74.0507 27.4682 79.1377 25.8605 83.0072 23.1379C83.096 23.0651 83.2038 23.0188 83.318 23.0047C83.4322 22.9905 83.5481 23.0089 83.6521 23.0578C83.7562 23.1067 83.8441 23.184 83.9057 23.2808C83.9673 23.3775 84 23.4898 84 23.6043V67.2963C83.9962 67.4606 83.9289 67.6262 83.7956 67.7437C83.548 67.9649 83.1659 67.9434 82.9437 67.6969C80.1127 64.5472 76.5999 62.1836 72.6885 60.8906C70.1354 60.0463 67.4098 59.6545 64.5889 59.796L64.4873 59.1186C64.4581 58.9404 64.4289 58.7685 64.3972 58.6029C66.9718 58.4588 69.474 58.7369 71.8493 59.3827V28.8825ZM66.4157 37.1234H61.0659C61.1294 37.2751 61.1852 37.4306 61.2335 37.5911L63.3181 44.5188C63.5199 45.195 63.5694 45.8434 63.5009 46.4678L63.4945 46.531C64.095 47.1794 64.877 47.891 65.3696 48.5899C65.4935 48.766 65.6075 48.9487 65.7111 49.1372H66.4157C66.648 49.1372 66.8461 48.9249 66.8461 48.6658V37.5949C66.8461 37.3358 66.6531 37.1234 66.4157 37.1234ZM79.9934 30.7823L76.4425 33.4504C76.1898 33.64 75.875 33.7348 75.875 34.0698V51.8964C75.875 52.2326 76.1962 52.3186 76.4425 52.5157L79.9934 55.3735C80.2384 55.5707 80.5608 55.0942 80.5608 54.7529V31.4041C80.5608 31.0628 80.2447 30.5939 79.9934 30.7823ZM66.323 52.3413H68.7707C69.0601 52.3413 69.3293 52.22 69.5286 52.0228C69.7381 51.8168 69.8701 51.5223 69.8701 51.1987V35.2035C69.8701 34.88 69.7406 34.588 69.5311 34.3807C69.3331 34.1848 69.064 34.0622 68.7707 34.0622H60.7803C60.8869 34.4022 60.9351 34.7561 60.925 35.1049H68.7707C68.8189 35.1049 68.8621 35.1226 68.8913 35.1504C68.9065 35.1669 68.9167 35.1871 68.9167 35.2035V51.1987C68.9167 51.2619 68.8227 51.2986 68.7707 51.2986H66.3675C66.3916 51.6449 66.3764 51.9963 66.323 52.3413Z" fill="white"/>
</svg>
