<svg width="104" height="104" viewBox="0 0 104 104" fill="none" xmlns="http://www.w3.org/2000/svg">
<circle cx="51.9801" cy="51.9801" r="51.9801" fill="#157B6C"/>
<g clip-path="url(#clip0_9_69574)">
<path fill-rule="evenodd" clip-rule="evenodd" d="M51.5106 34.7087C57.4086 38.42 62.7406 40.1785 67.311 39.7585C68.1097 55.7953 62.1429 65.2651 51.5688 69.2441C41.3596 65.5696 35.3188 56.4829 35.7684 39.5433C41.1375 39.8215 46.406 38.6719 51.5106 34.7349V34.7087ZM58.9902 31.9265V34.2257C59.6038 34.4882 60.2122 34.7244 60.8152 34.9449V32.8452H62.9311C63.1457 33.4325 63.5621 33.9259 64.107 34.2388C64.6519 34.5516 65.2905 34.6639 65.9106 34.5557C66.5306 34.4476 67.0924 34.1261 67.4972 33.6476C67.902 33.1691 68.1239 32.5644 68.1239 31.9396C68.1239 31.3149 67.902 30.7102 67.4972 30.2317C67.0924 29.7532 66.5306 29.4317 65.9106 29.3236C65.2905 29.2154 64.6519 29.3277 64.107 29.6405C63.5621 29.9534 63.1457 30.4468 62.9311 31.0341H59.9001C59.7804 31.0334 59.6618 31.0563 59.5511 31.1014C59.4404 31.1466 59.3398 31.213 59.2552 31.297C59.1705 31.381 59.1035 31.4808 59.0581 31.5907C59.0126 31.7005 58.9895 31.8183 58.9902 31.937V31.9265ZM19 41.1496C18.9995 40.6708 19.1295 40.2007 19.3762 39.7892C19.6229 39.3776 19.977 39.0399 20.4013 38.8117C20.8255 38.5836 21.304 38.4735 21.7861 38.4931C22.2683 38.5127 22.7361 38.6612 23.1401 38.9231C23.5441 39.1849 23.8693 39.5502 24.0812 39.9804C24.2931 40.4106 24.3839 40.8896 24.344 41.3668C24.3041 41.844 24.1349 42.3016 23.8544 42.6912C23.5738 43.0809 23.1924 43.388 22.7504 43.5801V48.8871H32.4517C32.5575 49.5013 32.6686 50.105 32.7903 50.6982H21.8406C21.6034 50.6996 21.3751 50.6085 21.2049 50.4446C21.0348 50.2806 20.9363 50.0569 20.9307 49.8215V43.7008C20.3735 43.5412 19.8836 43.206 19.5353 42.7457C19.187 42.2855 18.9991 41.7252 19 41.1496ZM26.358 39.3858C26.3656 38.731 26.6172 38.1022 27.0642 37.6206C27.5113 37.1389 28.1221 36.8385 28.7791 36.7772C29.4361 36.7159 30.0927 36.8981 30.6223 37.2886C31.152 37.6792 31.5173 38.2505 31.6477 38.8924C31.6477 39.2021 31.6477 39.5118 31.6477 39.8215C31.5668 40.2894 31.3621 40.7274 31.0544 41.0909C30.7467 41.4543 30.3472 41.73 29.8968 41.8898V43.9895H31.8381C31.8857 44.6037 31.9439 45.2074 32.0074 45.8005H29.0029C28.7615 45.8005 28.5301 45.7054 28.3595 45.5361C28.1889 45.3668 28.093 45.1371 28.093 44.8976V41.8688C27.5813 41.6827 27.1399 41.3444 26.8294 40.8999C26.5188 40.4555 26.3542 39.9267 26.358 39.3858ZM19.0423 55.853C19.044 55.2298 19.2665 54.627 19.6708 54.1502C20.0752 53.6733 20.6356 53.3527 21.2541 53.2445C21.8725 53.1362 22.5096 53.2473 23.054 53.5581C23.5983 53.869 24.0151 54.3599 24.2315 54.9449H33.8958C34.0916 55.5643 34.3031 56.168 34.52 56.7559H24.2315C24.0153 57.3405 23.5989 57.8312 23.0551 58.1421C22.5113 58.453 21.8748 58.5644 21.2566 58.4568C20.6385 58.3493 20.0781 58.0296 19.6734 57.5537C19.2686 57.0777 19.0453 56.4758 19.0423 55.853ZM24.8187 66.9029C24.8186 66.3643 24.9834 65.8385 25.2914 65.395C25.5994 64.9516 26.0359 64.6115 26.5431 64.42V60.9291C26.5431 60.8097 26.567 60.6914 26.6134 60.5812C26.6598 60.4709 26.7277 60.3709 26.8133 60.287C26.899 60.203 27.0005 60.1367 27.1121 60.0919C27.2237 60.0472 27.3432 60.0249 27.4635 60.0263H35.9535C36.2656 60.6509 36.5989 61.2546 36.948 61.8425H28.3681V64.3937C28.8329 64.5528 29.2445 64.8359 29.5579 65.2118C29.8712 65.5878 30.0741 66.0422 30.1444 66.5251C30.2147 67.008 30.1495 67.5007 29.9562 67.9493C29.7628 68.3979 29.4487 68.785 29.0483 69.0681C28.6478 69.3511 28.1765 69.5193 27.6861 69.5541C27.1957 69.5889 26.7052 69.489 26.2682 69.2653C25.8313 69.0416 25.4648 68.7028 25.2091 68.2861C24.9534 67.8694 24.8184 67.3908 24.8187 66.9029ZM63.6452 82C64.1276 82.001 64.6013 81.8726 65.0162 81.6284C65.4311 81.3842 65.7718 81.0332 66.0022 80.6126C66.2327 80.1921 66.3443 79.7175 66.3253 79.2391C66.3063 78.7608 66.1573 78.2964 65.8942 77.8952C65.6311 77.4939 65.2636 77.1707 64.8306 76.9597C64.3976 76.7486 63.9152 76.6577 63.4343 76.6964C62.9535 76.7351 62.4922 76.902 62.0991 77.1796C61.706 77.4571 61.3958 77.8349 61.2013 78.273H55.8534V71.7218C55.261 72.0473 54.6527 72.357 54.0285 72.6509V79.1811C54.0285 79.4206 54.1243 79.6502 54.295 79.8195C54.4656 79.9889 54.697 80.084 54.9383 80.084H61.0797C61.2402 80.6362 61.5772 81.1216 62.04 81.4672C62.5027 81.8128 63.0661 81.9998 63.6452 82ZM65.4278 74.6982C65.9191 74.6988 66.401 74.5652 66.8209 74.3121C67.2407 74.0591 67.5823 73.6962 67.8081 73.2633C68.034 72.8303 68.1355 72.3441 68.1014 71.8578C68.0673 71.3714 67.899 70.9038 67.615 70.5061C67.3309 70.1083 66.942 69.7959 66.4909 69.6029C66.0398 69.4099 65.5439 69.3438 65.0574 69.4119C64.571 69.48 64.1128 69.6796 63.7331 69.9889C63.3534 70.2982 63.0668 70.7052 62.9046 71.1654H60.7887V68.2887C60.1998 68.7962 59.5915 69.2791 58.9638 69.7375V72.0735C58.9631 72.1923 58.9861 72.31 59.0316 72.4198C59.0771 72.5297 59.1441 72.6295 59.2287 72.7135C59.3133 72.7975 59.4139 72.8639 59.5246 72.9091C59.6353 72.9542 59.7539 72.9771 59.8736 72.9764H62.9046C63.0921 73.4842 63.4331 73.9222 63.8809 74.2304C64.3288 74.5386 64.8617 74.702 65.4067 74.6982H65.4278ZM48.834 81.9528C49.4633 81.9547 50.0731 81.736 50.5559 81.3353C51.0387 80.9347 51.3634 80.3777 51.4728 79.7627C51.5822 79.1477 51.4693 78.5141 51.1539 77.9736C50.8386 77.4331 50.3411 77.0205 49.7491 76.8084V72.9554C49.1514 72.6877 48.5166 72.3937 47.9242 72.0945V76.8189C47.3326 77.0308 46.8354 77.443 46.52 77.9829C46.2047 78.5229 46.0913 79.1559 46.2001 79.7706C46.3088 80.3853 46.6325 80.9422 47.1143 81.3433C47.5961 81.7444 48.2051 81.9639 48.834 81.9633V81.9528ZM37.7256 76.2257C38.2663 76.2189 38.7922 76.0498 39.2341 75.7406C39.676 75.4313 40.0131 74.9965 40.2012 74.4934H43.7188C43.9602 74.4907 44.1908 74.394 44.361 74.2241C44.5312 74.0542 44.6273 73.8248 44.6287 73.5853V70.126C43.9992 69.6903 43.3909 69.2441 42.8037 68.7192V72.6877H40.2276C40.0673 72.2264 39.7821 71.8179 39.4032 71.507C39.0243 71.196 38.5665 70.9946 38.0799 70.9249C37.5933 70.8552 37.0967 70.9198 36.6447 71.1117C36.1926 71.3036 35.8026 71.6153 35.5173 72.0127C35.2321 72.4101 35.0626 72.8778 35.0275 73.3644C34.9925 73.8511 35.0932 74.3379 35.3186 74.7715C35.544 75.2051 35.8854 75.5688 36.3053 75.8225C36.7252 76.0762 37.2075 76.2103 37.6991 76.21L37.7256 76.2257ZM84.0265 41.1496C84.0269 40.6708 83.8969 40.2007 83.6503 39.7892C83.4036 39.3776 83.0494 39.0399 82.6252 38.8117C82.2009 38.5836 81.7224 38.4735 81.2403 38.4931C80.7582 38.5127 80.2904 38.6612 79.8864 38.9231C79.4824 39.1849 79.1572 39.5502 78.9452 39.9804C78.7333 40.4106 78.6425 40.8896 78.6824 41.3668C78.7224 41.844 78.8915 42.3016 79.1721 42.6912C79.4526 43.0809 79.834 43.388 80.276 43.5801V48.8871H70.8392C70.744 49.5013 70.6329 50.105 70.5112 50.6982H81.1859C81.4185 50.6928 81.64 50.5988 81.8046 50.4355C81.9691 50.2722 82.0639 50.0524 82.0693 49.8215V43.7008C82.6265 43.5412 83.1164 43.206 83.4647 42.7457C83.813 42.2855 84.0009 41.7252 84 41.1496H84.0265ZM76.6579 39.3858C76.6608 38.7596 76.4402 38.1525 76.0352 37.6723C75.6303 37.192 75.067 36.8695 74.4453 36.762C73.8236 36.6544 73.1837 36.7688 72.6388 37.0848C72.094 37.4007 71.6794 37.8979 71.4687 38.4882C71.273 39.087 71.273 39.7319 71.4687 40.3307C71.6038 40.6909 71.8155 41.0179 72.0893 41.2896C72.3631 41.5614 72.6927 41.7714 73.0556 41.9055V44.0053H71.3682C71.3258 44.6194 71.2782 45.2231 71.2201 45.8163H74.013C74.2543 45.8163 74.4857 45.7212 74.6564 45.5518C74.827 45.3825 74.9229 45.1529 74.9229 44.9134V41.8688C75.4346 41.6827 75.8759 41.3444 76.1865 40.8999C76.4971 40.4555 76.6617 39.9267 76.6579 39.3858ZM83.9577 55.853C83.9527 55.2323 83.7288 54.6329 83.3248 54.159C82.9209 53.685 82.3625 53.3664 81.7465 53.2585C81.1305 53.1506 80.4959 53.2602 79.9528 53.5683C79.4098 53.8763 78.9926 54.3634 78.7738 54.9449H69.3845C69.1835 55.5643 68.9719 56.168 68.7445 56.7559H78.7738C78.99 57.3405 79.4064 57.8312 79.9502 58.1421C80.494 58.453 81.1305 58.5644 81.7486 58.4568C82.3668 58.3493 82.9272 58.0296 83.3319 57.5537C83.7367 57.0777 83.96 56.4758 83.963 55.853H83.9577ZM78.1813 66.9029C78.1814 66.3643 78.0166 65.8385 77.7086 65.395C77.4006 64.9516 76.9641 64.6115 76.4569 64.42V60.9291C76.4569 60.8101 76.4332 60.6923 76.3871 60.5824C76.3411 60.4725 76.2736 60.3727 76.1885 60.2888C76.1035 60.2049 76.0025 60.1385 75.8915 60.0935C75.7806 60.0484 75.6617 60.0256 75.5417 60.0263H67.2845C66.9618 60.6509 66.618 61.2546 66.2636 61.8425H74.6319V64.3937C74.1671 64.5528 73.7555 64.8359 73.4422 65.2118C73.1288 65.5878 72.9259 66.0422 72.8556 66.5251C72.7853 67.008 72.8505 67.5007 73.0438 67.9493C73.2372 68.3979 73.5513 68.785 73.9518 69.0681C74.3522 69.3511 74.8235 69.5193 75.3139 69.5541C75.8043 69.5889 76.2949 69.489 76.7318 69.2653C77.1687 69.0416 77.5352 68.7028 77.7909 68.2861C78.0466 67.8694 78.1816 67.3908 78.1813 66.9029ZM63.6452 22C64.1279 21.9986 64.6021 22.1268 65.0174 22.371C65.4327 22.6152 65.7738 22.9663 66.0044 23.3871C66.2351 23.808 66.3467 24.2829 66.3276 24.7616C66.3084 25.2403 66.1591 25.7049 65.8956 26.1063C65.632 26.5077 65.264 26.8308 64.8305 27.0416C64.3969 27.2523 63.914 27.3427 63.4329 27.3033C62.9518 27.2639 62.4904 27.0961 62.0975 26.8177C61.7047 26.5393 61.395 26.1606 61.2013 25.7218H55.8534V32.7507C55.2504 32.4357 54.6421 32.1102 54.0285 31.7638V24.8189C54.0278 24.7001 54.0508 24.5824 54.0963 24.4726C54.1418 24.3627 54.2088 24.2629 54.2934 24.1789C54.378 24.0949 54.4786 24.0285 54.5893 23.9833C54.7 23.9382 54.8186 23.9153 54.9383 23.916H61.0797C61.2402 23.3638 61.5772 22.8784 62.04 22.5328C62.5027 22.1872 63.0661 22.0002 63.6452 22ZM48.834 22.042C49.462 22.0437 50.0694 22.2645 50.5499 22.6657C51.0305 23.067 51.3535 23.6231 51.4626 24.2369C51.5717 24.8506 51.4598 25.4829 51.1465 26.023C50.8333 26.5632 50.3386 26.9768 49.7491 27.1916V31.5066C49.139 31.916 48.5307 32.294 47.9242 32.6404V27.1916C47.335 26.977 46.8406 26.5638 46.5273 26.0242C46.214 25.4846 46.1018 24.8528 46.2102 24.2394C46.3185 23.626 46.6407 23.0699 47.1203 22.6682C47.5999 22.2666 48.2064 22.0449 48.834 22.042ZM37.6991 27.7743C38.2418 27.7742 38.7717 27.9378 39.2186 28.2434C39.6654 28.549 40.0081 28.9822 40.2012 29.4856H43.7188C43.9611 29.4883 44.1925 29.5858 44.3628 29.7568C44.5332 29.9278 44.6287 30.1585 44.6287 30.399V34.2572C44.0203 34.5092 43.412 34.7349 42.7984 34.9344V31.2966H40.2276C40.0673 31.7578 39.7821 32.1663 39.4032 32.4773C39.0243 32.7882 38.5665 32.9896 38.0799 33.0594C37.5933 33.1291 37.0967 33.0645 36.6447 32.8726C36.1926 32.6807 35.8026 32.369 35.5173 31.9716C35.2321 31.5742 35.0626 31.1065 35.0275 30.6199C34.9925 30.1332 35.0932 29.6464 35.3186 29.2127C35.544 28.7791 35.8854 28.4155 36.3053 28.1618C36.7252 27.908 37.2075 27.774 37.6991 27.7743ZM45.6337 48.315H46.2209V47.2389C46.2183 45.8018 46.7755 44.4194 47.776 43.3806C48.2596 42.8669 48.8443 42.4573 49.494 42.1772C50.1438 41.8972 50.8445 41.7527 51.5529 41.7527C52.2613 41.7527 52.962 41.8972 53.6118 42.1772C54.2615 42.4573 54.8462 42.8669 55.3298 43.3806C56.3303 44.4194 56.8875 45.8018 56.8849 47.2389V48.315H57.4721C57.7031 48.3163 57.9243 48.408 58.0877 48.5702C58.2511 48.7323 58.3435 48.9518 58.3449 49.1811V58.3045C58.3435 58.5333 58.2509 58.7522 58.0874 58.9135C57.9239 59.0748 57.7027 59.1654 57.4721 59.1654H45.6443C45.4137 59.1654 45.1925 59.0748 45.029 58.9135C44.8655 58.7522 44.7729 58.5333 44.7715 58.3045V49.1811C44.7729 48.9518 44.8653 48.7323 45.0287 48.5702C45.192 48.408 45.4132 48.3163 45.6443 48.315H45.6337ZM50.8388 54.1417L49.9025 56.5827H53.2033L52.3252 54.1102C52.6704 53.9348 52.9454 53.6485 53.1053 53.2979C53.2653 52.9473 53.3007 52.5533 53.2058 52.1802C53.1109 51.8071 52.8913 51.4769 52.5828 51.2437C52.2744 51.0104 51.8954 50.8878 51.5077 50.896C51.12 50.9042 50.7466 51.0425 50.4484 51.2886C50.1502 51.5346 49.9449 51.8737 49.866 52.2505C49.7871 52.6272 49.8393 53.0194 50.0141 53.3629C50.1889 53.7065 50.4759 53.981 50.8282 54.1417H50.8388ZM47.8818 48.315H55.2451V47.2389C55.2496 46.2237 54.8593 45.2459 54.1554 44.5092C53.8238 44.1563 53.4226 43.8749 52.9767 43.6825C52.5308 43.4901 52.0497 43.3908 51.5635 43.3908C51.0772 43.3908 50.5962 43.4901 50.1503 43.6825C49.7044 43.8749 49.3031 44.1563 48.9715 44.5092C48.2677 45.2459 47.8773 46.2237 47.8818 47.2389V48.315Z" fill="white"/>
</g>
<defs>
<clipPath id="clip0_9_69574">
<rect width="65" height="60" fill="white" transform="translate(19 22)"/>
</clipPath>
</defs>
</svg>
