<svg width="97" height="97" viewBox="0 0 97 97" fill="none" xmlns="http://www.w3.org/2000/svg">
<circle cx="48.3534" cy="48.4784" r="48.201" fill="white"/>
<path d="M64.2708 54.9166V40.5416L52.0312 33.8036M45.1771 33.8036L32.9375 40.5416V54.9166M35.875 59.4093L48.6042 66.4166L56.4375 62.1041L61.3333 59.4093" fill="#44ACAB"/>
<path d="M64.2708 54.9166V40.5416L52.0313 33.8036M45.1771 33.8036L32.9375 40.5416V54.9166M35.875 59.4093L48.6042 66.4166L56.4375 62.1041L61.3333 59.4093" stroke="#44ACAB" stroke-width="2" stroke-linecap="round" stroke-linejoin="round"/>
<path d="M45.668 44.1353L42.7305 45.8124V52.5208L45.668 54.1978L48.6055 55.8749L51.543 54.1978L54.4805 52.5208V45.8124L51.543 44.1353L48.6055 42.4583L45.668 44.1353Z" fill="#44ACAB" stroke="#44ACAB" stroke-width="2" stroke-linecap="round" stroke-linejoin="round"/>
<path d="M48.6042 42.4583V35.75V42.4583ZM54.4792 52.0417L61.3333 55.875L54.4792 52.0417ZM42.7292 52.0417L35.875 55.875L42.7292 52.0417Z" fill="#44ACAB"/>
<path d="M48.6042 42.4583V35.75M54.4792 52.0417L61.3333 55.875M42.7292 52.0417L35.875 55.875" stroke="#44ACAB" stroke-width="2" stroke-linecap="round" stroke-linejoin="round"/>
<path d="M48.6055 35.75C50.2278 35.75 51.543 34.4628 51.543 32.875C51.543 31.2872 50.2278 30 48.6055 30C46.9831 30 45.668 31.2872 45.668 32.875C45.668 34.4628 46.9831 35.75 48.6055 35.75Z" fill="#44ACAB" stroke="#44ACAB" stroke-width="2" stroke-linecap="round" stroke-linejoin="round"/>
<path d="M32.9375 60.6666C34.5598 60.6666 35.875 59.3794 35.875 57.7916C35.875 56.2038 34.5598 54.9166 32.9375 54.9166C31.3152 54.9166 30 56.2038 30 57.7916C30 59.3794 31.3152 60.6666 32.9375 60.6666Z" fill="#44ACAB" stroke="#44ACAB" stroke-width="2" stroke-linecap="round" stroke-linejoin="round"/>
<path d="M64.2695 60.6667C65.8919 60.6667 67.207 59.3796 67.207 57.7917C67.207 56.2039 65.8919 54.9167 64.2695 54.9167C62.6472 54.9167 61.332 56.2039 61.332 57.7917C61.332 59.3796 62.6472 60.6667 64.2695 60.6667Z" fill="#44ACAB" stroke="#44ACAB" stroke-width="2" stroke-linecap="round" stroke-linejoin="round"/>
<path d="M52.1602 8.125C54.2904 8.29357 56.373 8.63368 58.3965 9.12695L58.2783 9.60938C60.3178 10.1065 62.2957 10.7645 64.1982 11.5684L64.3916 11.1084C66.3428 11.9327 68.215 12.9097 69.9951 14.0234L69.7314 14.4453C71.4991 15.5513 73.1749 16.7953 74.7432 18.1611L75.0693 17.7842C76.6577 19.1674 78.1365 20.6754 79.4932 22.292L79.1133 22.6133C80.4475 24.2033 81.6616 25.8999 82.7402 27.6895L83.167 27.4316C84.2491 29.2268 85.1954 31.1144 85.9951 33.0791L85.5352 33.2676C86.313 35.1787 86.9491 37.1644 87.4297 39.2109L87.9131 39.0967C88.3889 41.1229 88.7164 43.2074 88.8789 45.3389H88.8799L88.3818 45.377C88.4604 46.4074 88.5 47.4489 88.5 48.5C88.5 49.5511 88.4604 50.5926 88.3818 51.623L88.8789 51.6602C88.7164 53.7916 88.3889 55.8761 87.9131 57.9023L87.4297 57.7891C86.9491 59.8356 86.313 61.8213 85.5352 63.7324L85.9951 63.9199C85.1954 65.8847 84.2491 67.7722 83.167 69.5674L82.7402 69.3105C81.6616 71.1001 80.4475 72.7967 79.1133 74.3867L79.4932 74.707C78.1365 76.3237 76.6577 77.8315 75.0693 79.2148L74.7432 78.8389C73.1749 80.2047 71.4991 81.4487 69.7314 82.5547L69.9951 82.9756C68.2149 84.0893 66.3428 85.0663 64.3916 85.8906L64.1982 85.4316C62.2957 86.2355 60.3178 86.8935 58.2783 87.3906L58.3965 87.8721C56.373 88.3654 54.2904 88.7054 52.1602 88.874L52.1211 88.377C51.0914 88.4584 50.0505 88.5 49 88.5C47.9495 88.5 46.9086 88.4584 45.8789 88.377L45.8389 88.874C43.7086 88.7054 41.626 88.3654 39.6025 87.8721L39.7217 87.3906C37.6822 86.8935 35.7043 86.2355 33.8018 85.4316L33.6074 85.8906C31.6563 85.0662 29.7841 84.0894 28.0039 82.9756L28.2686 82.5547C26.5009 81.4487 24.8251 80.2047 23.2568 78.8389L22.9297 79.2148C21.3414 77.8315 19.8625 76.3237 18.5059 74.707L18.8867 74.3867C17.5525 72.7967 16.3384 71.1001 15.2598 69.3105L14.832 69.5674C13.75 67.7722 12.8036 65.8847 12.0039 63.9199L12.4648 63.7324C11.687 61.8213 11.0509 59.8356 10.5703 57.7891L10.0859 57.9023C9.61017 55.8762 9.28258 53.7915 9.12012 51.6602L9.61816 51.623C9.53959 50.5926 9.5 49.5511 9.5 48.5C9.5 47.4489 9.53959 46.4074 9.61816 45.377L9.12012 45.3389C9.28263 43.2075 9.61012 41.1228 10.0859 39.0967L10.5703 39.2109C11.0509 37.1644 11.687 35.1787 12.4648 33.2676L12.0039 33.0791C12.8036 31.1144 13.75 29.2268 14.832 27.4316L15.2598 27.6895C16.3384 25.8999 17.5525 24.2033 18.8867 22.6133L18.5059 22.292C19.8625 20.6754 21.3414 19.1674 22.9297 17.7842L23.2568 18.1611C24.8251 16.7953 26.5009 15.5513 28.2686 14.4453L28.0039 14.0234C29.784 12.9097 31.6563 11.9328 33.6074 11.1084L33.8018 11.5684C35.7043 10.7645 37.6822 10.1065 39.7217 9.60938L39.6025 9.12695C41.626 8.63363 43.7087 8.29362 45.8389 8.125L45.8789 8.62305C46.9086 8.54155 47.9495 8.5 49 8.5C50.0505 8.5 51.0914 8.54155 52.1211 8.62305L52.1602 8.125Z" stroke="#44ACAB" stroke-dasharray="6 6"/>
</svg>
