<svg width="97" height="98" viewBox="0 0 97 98" fill="none" xmlns="http://www.w3.org/2000/svg">
<circle cx="48.6659" cy="49.0479" r="48.201" fill="white"/>
<path d="M52.1602 9.125C54.2904 9.29357 56.373 9.63368 58.3965 10.127L58.2783 10.6094C60.3178 11.1065 62.2957 11.7645 64.1982 12.5684L64.3916 12.1084C66.3428 12.9327 68.215 13.9097 69.9951 15.0234L69.7314 15.4453C71.4991 16.5513 73.1749 17.7953 74.7432 19.1611L75.0693 18.7842C76.6577 20.1674 78.1365 21.6754 79.4932 23.292L79.1133 23.6133C80.4475 25.2033 81.6616 26.8999 82.7402 28.6895L83.167 28.4316C84.2491 30.2268 85.1954 32.1144 85.9951 34.0791L85.5352 34.2676C86.313 36.1787 86.9491 38.1644 87.4297 40.2109L87.9131 40.0967C88.3889 42.1229 88.7164 44.2074 88.8789 46.3389H88.8799L88.3818 46.377C88.4604 47.4074 88.5 48.4489 88.5 49.5C88.5 50.5511 88.4604 51.5926 88.3818 52.623L88.8789 52.6602C88.7164 54.7916 88.3889 56.8761 87.9131 58.9023L87.4297 58.7891C86.9491 60.8356 86.313 62.8213 85.5352 64.7324L85.9951 64.9199C85.1954 66.8847 84.2491 68.7722 83.167 70.5674L82.7402 70.3105C81.6616 72.1001 80.4475 73.7967 79.1133 75.3867L79.4932 75.707C78.1365 77.3237 76.6577 78.8315 75.0693 80.2148L74.7432 79.8389C73.1749 81.2047 71.4991 82.4487 69.7314 83.5547L69.9951 83.9756C68.2149 85.0893 66.3428 86.0663 64.3916 86.8906L64.1982 86.4316C62.2957 87.2355 60.3178 87.8935 58.2783 88.3906L58.3965 88.8721C56.373 89.3654 54.2904 89.7054 52.1602 89.874L52.1211 89.377C51.0914 89.4584 50.0505 89.5 49 89.5C47.9495 89.5 46.9086 89.4584 45.8789 89.377L45.8389 89.874C43.7086 89.7054 41.626 89.3654 39.6025 88.8721L39.7217 88.3906C37.6822 87.8935 35.7043 87.2355 33.8018 86.4316L33.6074 86.8906C31.6563 86.0662 29.7841 85.0894 28.0039 83.9756L28.2686 83.5547C26.5009 82.4487 24.8251 81.2047 23.2568 79.8389L22.9297 80.2148C21.3414 78.8315 19.8625 77.3237 18.5059 75.707L18.8867 75.3867C17.5525 73.7967 16.3384 72.1001 15.2598 70.3105L14.832 70.5674C13.75 68.7722 12.8036 66.8847 12.0039 64.9199L12.4648 64.7324C11.687 62.8213 11.0509 60.8356 10.5703 58.7891L10.0859 58.9023C9.61017 56.8762 9.28258 54.7915 9.12012 52.6602L9.61816 52.623C9.53959 51.5926 9.5 50.5511 9.5 49.5C9.5 48.4489 9.53959 47.4074 9.61816 46.377L9.12012 46.3389C9.28263 44.2075 9.61012 42.1228 10.0859 40.0967L10.5703 40.2109C11.0509 38.1644 11.687 36.1787 12.4648 34.2676L12.0039 34.0791C12.8036 32.1144 13.75 30.2268 14.832 28.4316L15.2598 28.6895C16.3384 26.8999 17.5525 25.2033 18.8867 23.6133L18.5059 23.292C19.8625 21.6754 21.3414 20.1674 22.9297 18.7842L23.2568 19.1611C24.8251 17.7953 26.5009 16.5513 28.2686 15.4453L28.0039 15.0234C29.784 13.9097 31.6563 12.9328 33.6074 12.1084L33.8018 12.5684C35.7043 11.7645 37.6822 11.1065 39.7217 10.6094L39.6025 10.127C41.626 9.63363 43.7087 9.29362 45.8389 9.125L45.8789 9.62305C46.9086 9.54155 47.9495 9.5 49 9.5C50.0505 9.5 51.0914 9.54155 52.1211 9.62305L52.1602 9.125Z" stroke="#44ACAB" stroke-dasharray="6 6"/>
<path d="M68.0733 39.9531L50.4052 30.1614C50.1151 30.0009 49.789 29.9167 49.4574 29.9167C49.1258 29.9167 48.7997 30.0009 48.5096 30.1614L30.9276 39.8747C30.6222 40.0439 30.3675 40.2916 30.19 40.5922C30.0125 40.8928 29.9186 41.2355 29.918 41.5846C29.9174 41.9337 30.0101 42.2767 30.1866 42.5779C30.3631 42.8792 30.6169 43.1277 30.9218 43.2979L48.5898 53.1679C48.881 53.3304 49.2089 53.4159 49.5423 53.4163C49.8758 53.4166 50.2038 53.3318 50.4953 53.1699L68.0772 43.3782C68.3826 43.2083 68.6371 42.9599 68.814 42.6585C68.991 42.3572 69.0842 42.014 69.0838 41.6645C69.0834 41.315 68.9894 40.972 68.8118 40.6711C68.6341 40.3701 68.3791 40.1222 68.0733 39.9531Z" fill="#44ACAB"/>
<path d="M49.5006 57.0514L32.8254 47.7885L30.9238 51.2116L48.5488 61.0033C48.8397 61.1648 49.1669 61.2496 49.4996 61.2496C49.8323 61.2496 50.1595 61.1648 50.4504 61.0033L68.0754 51.2116L66.1738 47.7885L49.5006 57.0514Z" fill="#44ACAB"/>
<path d="M49.5006 64.8846L32.8254 55.6217L30.9238 59.0449L48.5488 68.8365C48.8397 68.9981 49.1669 69.0828 49.4996 69.0828C49.8323 69.0828 50.1595 68.9981 50.4504 68.8365L68.0754 59.0449L66.1738 55.6217L49.5006 64.8846Z" fill="#44ACAB"/>
</svg>
