<svg width="206" height="38" viewBox="0 0 206 38" fill="none" xmlns="http://www.w3.org/2000/svg">
<path d="M60.2707 29V11.96H53.5507V8H71.8507V11.96H65.1307V29H60.2707ZM73.784 29V12.86H78.254V17.42L77.624 16.1C78.104 14.96 78.874 14.1 79.934 13.52C80.994 12.92 82.284 12.62 83.804 12.62V16.94C83.604 16.92 83.424 16.91 83.264 16.91C83.104 16.89 82.934 16.88 82.754 16.88C81.474 16.88 80.434 17.25 79.634 17.99C78.854 18.71 78.464 19.84 78.464 21.38V29H73.784ZM93.5139 29.24C92.1739 29.24 90.9739 28.98 89.9139 28.46C88.8739 27.94 88.0639 27.15 87.4839 26.09C86.9039 25.01 86.6139 23.64 86.6139 21.98V12.86H91.2939V21.29C91.2939 22.63 91.5739 23.62 92.1339 24.26C92.7139 24.88 93.5239 25.19 94.5639 25.19C95.2839 25.19 95.9239 25.04 96.4839 24.74C97.0439 24.42 97.4839 23.94 97.8039 23.3C98.1239 22.64 98.2839 21.82 98.2839 20.84V12.86H102.964V29H98.5239V24.56L99.3339 25.85C98.7939 26.97 97.9939 27.82 96.9339 28.4C95.8939 28.96 94.7539 29.24 93.5139 29.24ZM112.73 29.24C111.35 29.24 110.02 29.08 108.74 28.76C107.48 28.42 106.48 28 105.74 27.5L107.3 24.14C108.04 24.6 108.91 24.98 109.91 25.28C110.93 25.56 111.93 25.7 112.91 25.7C113.99 25.7 114.75 25.57 115.19 25.31C115.65 25.05 115.88 24.69 115.88 24.23C115.88 23.85 115.7 23.57 115.34 23.39C115 23.19 114.54 23.04 113.96 22.94C113.38 22.84 112.74 22.74 112.04 22.64C111.36 22.54 110.67 22.41 109.97 22.25C109.27 22.07 108.63 21.81 108.05 21.47C107.47 21.13 107 20.67 106.64 20.09C106.3 19.51 106.13 18.76 106.13 17.84C106.13 16.82 106.42 15.92 107 15.14C107.6 14.36 108.46 13.75 109.58 13.31C110.7 12.85 112.04 12.62 113.6 12.62C114.7 12.62 115.82 12.74 116.96 12.98C118.1 13.22 119.05 13.57 119.81 14.03L118.25 17.36C117.47 16.9 116.68 16.59 115.88 16.43C115.1 16.25 114.34 16.16 113.6 16.16C112.56 16.16 111.8 16.3 111.32 16.58C110.84 16.86 110.6 17.22 110.6 17.66C110.6 18.06 110.77 18.36 111.11 18.56C111.47 18.76 111.94 18.92 112.52 19.04C113.1 19.16 113.73 19.27 114.41 19.37C115.11 19.45 115.81 19.58 116.51 19.76C117.21 19.94 117.84 20.2 118.4 20.54C118.98 20.86 119.45 21.31 119.81 21.89C120.17 22.45 120.35 23.19 120.35 24.11C120.35 25.11 120.05 26 119.45 26.78C118.85 27.54 117.98 28.14 116.84 28.58C115.72 29.02 114.35 29.24 112.73 29.24ZM129.837 29.24C127.937 29.24 126.457 28.76 125.397 27.8C124.337 26.82 123.807 25.37 123.807 23.45V9.29H128.487V23.39C128.487 24.07 128.667 24.6 129.027 24.98C129.387 25.34 129.877 25.52 130.497 25.52C131.237 25.52 131.867 25.32 132.387 24.92L133.647 28.22C133.167 28.56 132.587 28.82 131.907 29C131.247 29.16 130.557 29.24 129.837 29.24ZM121.317 16.82V13.22H132.507V16.82H121.317ZM145.814 29.24C144.454 29.24 143.264 28.94 142.244 28.34C141.224 27.74 140.424 26.83 139.844 25.61C139.284 24.37 139.004 22.81 139.004 20.93C139.004 19.03 139.274 17.47 139.814 16.25C140.354 15.03 141.134 14.12 142.154 13.52C143.174 12.92 144.394 12.62 145.814 12.62C147.334 12.62 148.694 12.97 149.894 13.67C151.114 14.35 152.074 15.31 152.774 16.55C153.494 17.79 153.854 19.25 153.854 20.93C153.854 22.63 153.494 24.1 152.774 25.34C152.074 26.58 151.114 27.54 149.894 28.22C148.694 28.9 147.334 29.24 145.814 29.24ZM136.274 34.82V12.86H140.744V16.16L140.654 20.96L140.954 25.73V34.82H136.274ZM145.004 25.4C145.784 25.4 146.474 25.22 147.074 24.86C147.694 24.5 148.184 23.99 148.544 23.33C148.924 22.65 149.114 21.85 149.114 20.93C149.114 19.99 148.924 19.19 148.544 18.53C148.184 17.87 147.694 17.36 147.074 17C146.474 16.64 145.784 16.46 145.004 16.46C144.224 16.46 143.524 16.64 142.904 17C142.284 17.36 141.794 17.87 141.434 18.53C141.074 19.19 140.894 19.99 140.894 20.93C140.894 21.85 141.074 22.65 141.434 23.33C141.794 23.99 142.284 24.5 142.904 24.86C143.524 25.22 144.224 25.4 145.004 25.4ZM156.987 29V12.86H161.667V29H156.987ZM159.327 10.61C158.467 10.61 157.767 10.36 157.227 9.86C156.687 9.36 156.417 8.74 156.417 8C156.417 7.26 156.687 6.64 157.227 6.14C157.767 5.64 158.467 5.39 159.327 5.39C160.187 5.39 160.887 5.63 161.427 6.11C161.967 6.57 162.237 7.17 162.237 7.91C162.237 8.69 161.967 9.34 161.427 9.86C160.907 10.36 160.207 10.61 159.327 10.61ZM166.011 29V6.74H170.691V29H166.011ZM182.714 29.24C180.994 29.24 179.464 28.88 178.124 28.16C176.804 27.44 175.754 26.46 174.974 25.22C174.214 23.96 173.834 22.53 173.834 20.93C173.834 19.31 174.214 17.88 174.974 16.64C175.754 15.38 176.804 14.4 178.124 13.7C179.464 12.98 180.994 12.62 182.714 12.62C184.414 12.62 185.934 12.98 187.274 13.7C188.614 14.4 189.664 15.37 190.424 16.61C191.184 17.85 191.564 19.29 191.564 20.93C191.564 22.53 191.184 23.96 190.424 25.22C189.664 26.46 188.614 27.44 187.274 28.16C185.934 28.88 184.414 29.24 182.714 29.24ZM182.714 25.4C183.494 25.4 184.194 25.22 184.814 24.86C185.434 24.5 185.924 23.99 186.284 23.33C186.644 22.65 186.824 21.85 186.824 20.93C186.824 19.99 186.644 19.19 186.284 18.53C185.924 17.87 185.434 17.36 184.814 17C184.194 16.64 183.494 16.46 182.714 16.46C181.934 16.46 181.234 16.64 180.614 17C179.994 17.36 179.494 17.87 179.114 18.53C178.754 19.19 178.574 19.99 178.574 20.93C178.574 21.85 178.754 22.65 179.114 23.33C179.494 23.99 179.994 24.5 180.614 24.86C181.234 25.22 181.934 25.4 182.714 25.4ZM201.292 29.24C199.392 29.24 197.912 28.76 196.852 27.8C195.792 26.82 195.262 25.37 195.262 23.45V9.29H199.942V23.39C199.942 24.07 200.122 24.6 200.482 24.98C200.842 25.34 201.332 25.52 201.952 25.52C202.692 25.52 203.322 25.32 203.842 24.92L205.102 28.22C204.622 28.56 204.042 28.82 203.362 29C202.702 29.16 202.012 29.24 201.292 29.24ZM192.772 16.82V13.22H203.962V16.82H192.772Z" fill="white"/>
<circle cx="19" cy="19" r="19" fill="white"/>
<g clip-path="url(#clip0_8_1420)">
<path d="M33.1138 15.8018H22.3364L19.0073 5.42871L15.6681 15.8018L4.89062 15.7915L13.6188 22.2088L10.2792 32.5716L19.0073 26.1646L27.7249 32.5716L24.3959 22.2088L33.1138 15.8018Z" fill="#00B67A"/>
<path d="M25.1454 24.5552L24.3964 22.209L19.0078 26.1649L25.1454 24.5552Z" fill="#005128"/>
</g>
<defs>
<clipPath id="clip0_8_1420">
<rect width="28.2286" height="27.1429" fill="white" transform="translate(4.89062 5.42871)"/>
</clipPath>
</defs>
</svg>
