<svg width="138" height="41" viewBox="0 0 138 41" fill="none" xmlns="http://www.w3.org/2000/svg">
<path d="M37.5937 25.9216C35.358 25.9216 33.2633 24.975 31.36 23.4341L31.8232 21.2589L31.8434 21.1783C32.2563 18.8621 33.5654 14.9748 37.5937 14.9748C40.6149 14.9748 43.0721 17.4321 43.0721 20.4532C43.062 23.4644 40.6048 25.9216 37.5937 25.9216ZM37.5937 9.42591C32.4476 9.42591 28.4596 12.7694 26.8383 18.2679C24.3609 14.5519 22.4878 10.0906 21.3901 6.33423H15.8512V20.7453C15.8512 23.5852 13.535 25.9014 10.6951 25.9014C7.85515 25.9014 5.53891 23.5852 5.53891 20.7453V6.33423H6.31067e-05V20.7453C-0.0200781 26.6467 4.78361 31.4906 10.685 31.4906C16.5864 31.4906 21.3901 26.6467 21.3901 20.7453V18.3283C22.4676 20.5741 23.7869 22.84 25.3881 24.8541L21.9943 40.806H27.6641L30.1213 29.2348C32.2764 30.6145 34.7538 31.4806 37.5937 31.4806C43.6663 31.4806 48.611 26.5057 48.611 20.4331C48.611 14.3706 43.6663 9.42591 37.5937 9.42591Z" fill="white"/>
<path d="M65.5197 10.0505L69.0947 24.4615L73.0323 10.0505H77.7253L71.6728 30.8765H66.9799L63.2638 16.3748L59.5579 30.8665H54.8649L48.8125 10.0404H53.5054L57.443 24.4515L61.0181 10.0404H65.5197V10.0505ZM88.954 9.4261C82.8613 9.4261 77.9267 14.3708 77.9267 20.4534C77.9267 26.5462 82.8713 31.4808 88.954 31.4808C95.0467 31.4808 99.9914 26.5462 99.9914 20.4534C99.9914 14.3607 95.0467 9.4261 88.954 9.4261ZM88.954 26.949C85.3689 26.949 82.4685 24.0486 82.4685 20.4635C82.4685 16.8784 85.3789 13.978 88.954 13.978C92.5391 13.978 95.4395 16.8784 95.4395 20.4635C95.4395 24.0386 92.5391 26.949 88.954 26.949ZM113.395 14.7132C110.243 14.7132 107.695 17.2711 107.695 20.4132V30.8665H102.972V10.0505H107.695V13.2529C107.695 13.2529 109.71 10.0404 113.849 10.0404H115.299V14.7132H113.395ZM129.247 19.6478C132.6 17.7545 134.876 14.1593 134.876 10.0404H130.153C130.153 13.5148 127.333 16.3345 123.859 16.3345H123.224V0H118.501V30.8665H123.224V21.0577H123.788C124.252 21.0577 124.856 21.3598 125.128 21.7324L131.835 30.8665H137.494L129.247 19.6478Z" fill="black"/>
</svg>
