<svg width="179" height="178" viewBox="0 0 179 178" fill="none" xmlns="http://www.w3.org/2000/svg">
<g clip-path="url(#clip0_8_2393)">
<path d="M82.4186 136.86L81.3858 133.095L77.1191 133.289C76.7242 132.46 76.2658 131.674 75.7479 130.939L78.0066 127.327L75.2262 124.582L71.6275 126.88C70.8785 126.367 70.0876 125.917 69.2635 125.535L69.4108 121.273L65.6297 120.284L63.6666 124.064C62.7693 123.994 61.8584 124.001 60.9427 124.083L58.9356 120.321L55.1643 121.352L55.3584 125.611C54.5285 126.005 53.7405 126.463 53.0042 126.979L49.386 124.724L46.6358 127.5L48.9374 131.092C48.4234 131.84 47.9729 132.628 47.5896 133.45L43.32 133.303L42.3281 137.078L46.115 139.037C46.0448 139.933 46.0516 140.842 46.1345 141.757L42.3642 143.76L43.397 147.524L47.6637 147.33C48.0587 148.159 48.517 148.945 49.0349 149.68L46.7762 153.292L49.5567 156.037L53.1553 153.739C53.9043 154.252 54.6952 154.702 55.5193 155.085L55.3721 159.346L59.1551 160.335L61.1182 156.555C62.0155 156.625 62.9263 156.619 63.8421 156.536L65.8492 160.298L69.6204 159.267L69.4264 155.009C70.2573 154.614 71.0443 154.157 71.7806 153.64L75.3988 155.895L78.149 153.12L75.8474 149.528C76.3614 148.78 76.8119 147.991 77.1952 147.168L81.4648 147.315L82.4567 143.54L78.6698 141.581C78.74 140.685 78.7332 139.777 78.6503 138.862L82.4186 136.86ZM65.0504 149.999C59.6885 151.465 54.1511 148.315 52.6833 142.963C51.2156 137.611 54.3715 132.085 59.7334 130.62C65.0953 129.155 70.6328 132.305 72.1005 137.657C73.5692 143.008 70.4123 148.534 65.0504 149.999Z" fill="white"/>
<path d="M59.1573 160.549C59.1388 160.549 59.1202 160.547 59.1027 160.542L55.3207 159.553C55.2231 159.528 55.1558 159.438 55.1597 159.337L55.3021 155.218C54.559 154.865 53.8383 154.455 53.1556 153.996L49.6769 156.217C49.5921 156.271 49.4799 156.259 49.4087 156.188L46.6283 153.443C46.5561 153.372 46.5434 153.262 46.5971 153.176L48.7806 149.685C48.3194 149.017 47.901 148.3 47.5353 147.551L43.4119 147.738C43.3115 147.744 43.2208 147.676 43.1934 147.579L42.1607 143.815C42.1343 143.718 42.1782 143.615 42.2679 143.568L45.9124 141.632C45.8442 140.803 45.8383 139.973 45.8939 139.163L42.2338 137.269C42.1441 137.222 42.0982 137.12 42.1246 137.023L43.1164 133.248C43.1418 133.15 43.2354 133.081 43.3329 133.087L47.4602 133.229C47.8132 132.488 48.2238 131.768 48.6841 131.086L46.4596 127.614C46.4049 127.529 46.4166 127.418 46.4878 127.346L49.238 124.571C49.3092 124.499 49.4204 124.487 49.5062 124.54L53.0035 126.719C53.6735 126.259 54.3912 125.841 55.1422 125.477L54.9549 121.361C54.9501 121.26 55.0164 121.17 55.1139 121.143L58.8852 120.112C58.9827 120.086 59.0861 120.129 59.1329 120.219L61.0727 123.856C61.9046 123.787 62.7355 123.782 63.5469 123.838L65.4447 120.185C65.4915 120.095 65.5939 120.049 65.6914 120.076L69.4735 121.065C69.571 121.09 69.6383 121.18 69.6344 121.281L69.492 125.4C70.2351 125.752 70.9558 126.163 71.6385 126.621L75.1172 124.4C75.203 124.346 75.3142 124.357 75.3854 124.428L78.1659 127.173C78.238 127.244 78.2507 127.355 78.1971 127.441L76.0135 130.932C76.4757 131.601 76.8941 132.318 77.2589 133.066L81.3822 132.879C81.4827 132.872 81.5734 132.94 81.6007 133.038L82.6335 136.802C82.6598 136.899 82.6159 137.001 82.5272 137.049L78.8827 138.985C78.9509 139.814 78.9568 140.644 78.9012 141.454L82.5613 143.348C82.651 143.395 82.6969 143.497 82.6705 143.594L81.6787 147.369C81.6533 147.466 81.5656 147.543 81.4622 147.53L77.3349 147.388C76.9819 148.13 76.5703 148.849 76.111 149.53L78.3355 153.003C78.3902 153.087 78.3784 153.198 78.3073 153.27L75.5571 156.045C75.4859 156.117 75.3747 156.13 75.2889 156.076L71.7916 153.898C71.1216 154.359 70.4038 154.776 69.6529 155.14L69.8402 159.256C69.845 159.356 69.7787 159.447 69.6812 159.474L65.9099 160.505C65.8124 160.53 65.709 160.488 65.6622 160.398L63.7224 156.761C62.8905 156.829 62.0596 156.835 61.2482 156.779L59.3504 160.432C59.3114 160.506 59.2363 160.549 59.1573 160.549ZM55.5967 159.179L59.0451 160.081L60.9283 156.454C60.9683 156.377 61.0522 156.332 61.137 156.338C62.0157 156.407 62.9198 156.4 63.8248 156.319C63.9097 156.31 63.9945 156.356 64.0355 156.432L65.9606 160.043L69.3984 159.103L69.2121 155.017C69.2082 154.931 69.257 154.85 69.335 154.813C70.1552 154.423 70.9363 153.969 71.658 153.463C71.7292 153.412 71.8228 153.41 71.897 153.456L75.3688 155.619L77.8752 153.09L75.6663 149.643C75.6195 149.57 75.6214 149.477 75.6702 149.405C76.1754 148.67 76.623 147.886 77.0004 147.076C77.0365 146.997 77.1126 146.946 77.2043 146.952L81.3003 147.093L82.2043 143.651L78.5706 141.77C78.4935 141.73 78.4477 141.649 78.4545 141.562C78.5238 140.684 78.5169 139.781 78.435 138.88C78.4272 138.793 78.4721 138.71 78.5491 138.669L82.1673 136.748L81.2262 133.317L77.1321 133.503C77.0463 133.509 76.9643 133.458 76.9273 133.38C76.5372 132.562 76.0817 131.782 75.5746 131.062C75.5249 130.991 75.5219 130.898 75.5678 130.824L77.7358 127.358L75.2011 124.856L71.7477 127.061C71.6746 127.107 71.581 127.105 71.5088 127.057C70.7715 126.552 69.9864 126.105 69.176 125.73C69.097 125.694 69.0483 125.614 69.0512 125.528L69.1926 121.438L65.7441 120.537L63.8609 124.164C63.8209 124.241 63.739 124.288 63.6522 124.28C62.7735 124.211 61.8695 124.217 60.9644 124.299C60.8786 124.306 60.7947 124.262 60.7538 124.185L58.8286 120.575L55.3909 121.514L55.5772 125.601C55.5811 125.687 55.5323 125.768 55.4543 125.805C54.6341 126.195 53.8529 126.649 53.1312 127.155C53.06 127.205 52.9664 127.207 52.8923 127.162L49.4204 124.998L46.914 127.528L49.123 130.975C49.1698 131.048 49.1678 131.141 49.1191 131.213C48.6129 131.949 48.1653 132.733 47.7888 133.541C47.7527 133.62 47.6767 133.677 47.585 133.666L43.4889 133.525L42.5849 136.967L46.2187 138.847C46.2957 138.887 46.3415 138.969 46.3347 139.056C46.2655 139.934 46.2723 140.836 46.3542 141.738C46.362 141.825 46.3172 141.907 46.2401 141.948L42.622 143.87L43.5631 147.302L47.6572 147.116C47.744 147.108 47.8249 147.161 47.862 147.239C48.2521 148.057 48.7075 148.837 49.2146 149.557C49.2644 149.628 49.2673 149.721 49.2215 149.795L47.0545 153.261L49.5891 155.762L53.0425 153.558C53.1156 153.512 53.2092 153.513 53.2814 153.562C54.0187 154.067 54.8038 154.513 55.6142 154.89C55.6932 154.926 55.742 155.006 55.739 155.092L55.5967 159.179ZM62.3785 150.576C60.6153 150.576 58.8754 150.12 57.3024 149.225C54.9159 147.867 53.2034 145.664 52.4778 143.019C50.9808 137.562 54.2108 131.905 59.68 130.411C62.3288 129.688 65.1024 130.037 67.4879 131.394C69.8733 132.752 71.5878 134.955 72.3124 137.599C73.8094 143.057 70.5794 148.713 65.1112 150.207C64.2071 150.453 63.2894 150.576 62.3785 150.576ZM62.4097 130.474C61.5369 130.474 60.6582 130.59 59.7931 130.827C54.5551 132.259 51.4597 137.676 52.8942 142.905C53.5886 145.438 55.2309 147.549 57.5159 148.849C59.8019 150.15 62.4575 150.485 64.9961 149.791C70.2342 148.359 73.3296 142.941 71.895 137.712C71.2006 135.179 69.5583 133.069 67.2733 131.768C65.7665 130.91 64.0989 130.474 62.4097 130.474Z" fill="black"/>
<path d="M63.5134 7.02866C63.489 7.02866 63.4637 7.02477 63.4393 7.01602C63.3271 6.97516 63.2696 6.85163 63.3096 6.73978L63.883 5.1689C63.924 5.05704 64.0488 4.99966 64.16 5.04051C64.2721 5.08136 64.3297 5.20489 64.2897 5.31675L63.7162 6.88762C63.6841 6.97419 63.6012 7.02866 63.5134 7.02866Z" fill="black"/>
<path d="M62.1775 10.6892C62.1531 10.6892 62.1277 10.6853 62.1033 10.6766C61.9912 10.6357 61.9336 10.5122 61.9736 10.4003L62.5471 8.82945C62.588 8.71759 62.7119 8.65923 62.824 8.70105C62.9362 8.74191 62.9937 8.86544 62.9538 8.9773L62.3803 10.5482C62.3491 10.6347 62.2662 10.6892 62.1775 10.6892Z" fill="black"/>
<path d="M62.088 7.69305C62.0636 7.69305 62.0382 7.68916 62.0138 7.68041L60.4388 7.10847C60.3267 7.06762 60.2691 6.94409 60.3101 6.83223C60.351 6.72037 60.4749 6.66299 60.587 6.70384L62.1621 7.27577C62.2742 7.31663 62.3318 7.44016 62.2908 7.55201C62.2586 7.63858 62.1757 7.69305 62.088 7.69305Z" fill="black"/>
<path d="M65.7603 9.02484C65.7359 9.02484 65.7106 9.02095 65.6862 9.01219L64.1111 8.44026C63.999 8.39941 63.9415 8.27588 63.9814 8.16402C64.0224 8.05216 64.1463 7.99477 64.2584 8.03563L65.8334 8.60756C65.9456 8.64841 66.0031 8.77194 65.9631 8.8838C65.931 8.97134 65.8481 9.02484 65.7603 9.02484Z" fill="black"/>
<path d="M21.6638 30.3807C21.3615 30.3807 21.0591 30.3243 20.7695 30.2125C20.1375 29.9673 19.6401 29.4859 19.368 28.8575C18.8122 27.5736 19.3885 26.0679 20.6524 25.5018C21.26 25.2294 21.9378 25.2119 22.5581 25.4522C23.19 25.6973 23.6874 26.1788 23.9595 26.8071C24.5154 28.0911 23.939 29.5968 22.6751 30.1629C22.3513 30.3078 22.0071 30.3807 21.6638 30.3807ZM20.828 25.8947C19.7786 26.3646 19.3017 27.6174 19.764 28.6863C19.9903 29.2087 20.4018 29.6075 20.9255 29.8108C21.4375 30.0092 21.9954 29.9946 22.4976 29.7699C23.547 29.3001 24.0239 28.0473 23.5616 26.9783C23.3354 26.456 22.9238 26.0572 22.4001 25.8539C21.8881 25.6555 21.3302 25.6701 20.828 25.8947Z" fill="black"/>
<path d="M49.5462 13.567C49.2438 13.567 48.9415 13.5106 48.6519 13.3987C48.0199 13.1536 47.5225 12.6722 47.2504 12.0438C46.6955 10.7599 47.2709 9.25417 48.5348 8.68807C49.1424 8.41572 49.8202 8.39821 50.4405 8.63846C51.0724 8.88358 51.5698 9.36505 51.8419 9.9934C52.3968 11.2773 51.8214 12.783 50.5575 13.3491C50.2328 13.4941 49.8895 13.567 49.5462 13.567ZM49.5452 8.90108C49.2614 8.90108 48.9786 8.96139 48.7114 9.08103C47.662 9.55083 47.1851 10.8036 47.6474 11.8726C47.8727 12.3949 48.2852 12.7937 48.8089 12.997C49.3209 13.1955 49.8787 13.1809 50.381 12.9562C51.4304 12.4864 51.9073 11.2336 51.445 10.1646C51.2197 9.64226 50.8072 9.24347 50.2835 9.04018C50.0436 8.94777 49.7939 8.90108 49.5452 8.90108Z" fill="black"/>
<path d="M35.6375 20.6552C35.5838 20.6552 35.5302 20.6357 35.4882 20.5959C35.4024 20.5132 35.3995 20.377 35.4814 20.2914L36.2762 19.4637C36.3591 19.3781 36.4957 19.3751 36.5815 19.4568C36.6673 19.5395 36.6702 19.6757 36.5883 19.7613L35.7935 20.589C35.7516 20.6328 35.695 20.6552 35.6375 20.6552Z" fill="black"/>
<path d="M32.8484 23.553C32.7948 23.553 32.7411 23.5336 32.6992 23.4927C32.6134 23.41 32.6104 23.2739 32.6924 23.1883L33.4872 22.3605C33.5701 22.2749 33.7066 22.271 33.7924 22.3537C33.8783 22.4364 33.8812 22.5726 33.7993 22.6582L33.0044 23.4859C32.9615 23.5306 32.905 23.553 32.8484 23.553Z" fill="black"/>
<path d="M33.6323 20.699C33.5777 20.699 33.5231 20.6786 33.4811 20.6367L32.6736 19.844C32.5888 19.7603 32.5878 19.6242 32.6717 19.5395C32.7555 19.4549 32.8921 19.454 32.9769 19.5366L33.7844 20.3294C33.8693 20.413 33.8703 20.5492 33.7864 20.6338C33.7435 20.6776 33.6879 20.699 33.6323 20.699Z" fill="black"/>
<path d="M36.4604 23.4731C36.4058 23.4731 36.3512 23.4527 36.3093 23.4109L35.5018 22.6182C35.4169 22.5345 35.4159 22.3983 35.4998 22.3137C35.5837 22.2291 35.7202 22.2281 35.8051 22.3108L36.6126 23.1035C36.6974 23.1872 36.6984 23.3234 36.6145 23.408C36.5716 23.4517 36.516 23.4731 36.4604 23.4731Z" fill="black"/>
<path d="M152.49 166.335L148.443 166.628L73.3812 166.335C69.9717 166.335 67.557 163.592 67.9871 160.209L87.4667 6.99939C87.8968 3.61642 91.0088 0.873465 94.4183 0.873465L169.556 0C178.181 0 179.352 3.61642 178.922 6.99939L159.442 160.209C159.012 163.592 155.9 166.335 152.49 166.335Z" fill="#157B6C"/>
<path d="M147.733 166.629H68.6234C65.2139 166.629 62.7992 163.873 63.2293 160.473L82.7089 6.50422C83.139 3.10374 86.251 0.348145 89.6605 0.348145H168.77C172.179 0.348145 174.594 3.10471 174.164 6.50422L154.684 160.472C154.254 163.873 151.142 166.629 147.733 166.629Z" fill="white"/>
<path d="M148.516 162.322H68.9808C68.539 162.322 68.1441 162.149 67.8671 161.836C67.5882 161.52 67.4653 161.102 67.5209 160.658L86.1208 13.644C86.233 12.7559 87.0493 12.0342 87.9397 12.0342H167.475C167.916 12.0342 168.312 12.2063 168.589 12.5195C168.868 12.8357 168.991 13.2539 168.935 13.6984L150.336 160.713C150.223 161.6 149.407 162.322 148.516 162.322ZM67.951 160.712C67.911 161.031 67.9958 161.329 68.1928 161.551C68.3859 161.77 68.6668 161.891 68.9818 161.891H148.517C149.198 161.891 149.821 161.338 149.908 160.658L168.507 13.644C168.547 13.3249 168.461 13.0263 168.265 12.8045C168.072 12.5857 167.791 12.4651 167.476 12.4651H87.9406C87.2599 12.4651 86.6367 13.0176 86.5499 13.6975L67.951 160.712Z" fill="black"/>
<path d="M128.224 8.39392C127.547 8.39392 126.94 8.13032 126.518 7.65176C126.091 7.16834 125.903 6.52637 125.989 5.84453C126.164 4.46916 127.428 3.34961 128.808 3.34961C129.485 3.34961 130.09 3.61321 130.514 4.09176C130.941 4.57518 131.129 5.21715 131.042 5.89802C130.868 7.27436 129.604 8.39392 128.224 8.39392ZM128.807 3.78148C127.637 3.78148 126.565 4.73178 126.418 5.899C126.347 6.45634 126.498 6.9777 126.842 7.36677C127.181 7.75098 127.673 7.96302 128.224 7.96302C129.393 7.96302 130.466 7.01271 130.613 5.8455C130.683 5.28816 130.533 4.7668 130.189 4.37773C129.849 3.99255 129.358 3.78148 128.807 3.78148Z" fill="black"/>
<path d="M162.01 102.761C162.001 102.761 161.992 102.761 161.983 102.76C161.865 102.745 161.78 102.637 161.796 102.518L173.946 6.47613C174.147 4.88483 173.714 3.39274 172.726 2.27513C171.75 1.17017 170.344 0.562248 168.767 0.562248H89.6574C86.3591 0.562248 83.3368 3.23906 82.9204 6.52962L81.0245 21.5157C81.0099 21.6343 80.9016 21.718 80.7827 21.7024C80.6637 21.6878 80.5808 21.5799 80.5954 21.4612L82.4913 6.4771C82.9341 2.97838 86.1485 0.132324 89.6574 0.132324H168.767C170.469 0.132324 171.99 0.792772 173.05 1.99111C174.121 3.20307 174.592 4.81577 174.374 6.53157L162.224 102.574C162.21 102.683 162.117 102.761 162.01 102.761Z" fill="black"/>
<path d="M68.6215 166.844C66.9178 166.844 65.3964 166.184 64.3373 164.986C63.2655 163.774 62.7954 162.162 63.0129 160.446L69.9713 105.444C69.9859 105.326 70.0932 105.242 70.2131 105.257C70.3311 105.272 70.416 105.38 70.4004 105.499L63.442 160.501C63.2411 162.092 63.6741 163.584 64.662 164.702C65.6382 165.807 67.0445 166.414 68.6215 166.414L106.146 166.193H106.147C106.266 166.193 106.363 166.288 106.364 166.407C106.365 166.525 106.268 166.623 106.149 166.624L68.6215 166.844Z" fill="black"/>
<path d="M80.0368 131.76C79.9725 131.76 79.9081 131.731 79.8652 131.676C79.7921 131.582 79.8106 131.447 79.9042 131.374L96.5458 118.6C96.6404 118.527 96.776 118.546 96.8491 118.639C96.9213 118.734 96.9038 118.869 96.8101 118.942L80.1685 131.715C80.1295 131.745 80.0827 131.76 80.0368 131.76Z" fill="black"/>
<path d="M99.3411 116.943C99.2767 116.943 99.2124 116.914 99.1695 116.859C99.0973 116.765 99.1149 116.63 99.2085 116.557L106.261 111.145C106.355 111.073 106.491 111.09 106.564 111.184C106.636 111.278 106.618 111.413 106.525 111.486L99.4728 116.898C99.4328 116.929 99.387 116.943 99.3411 116.943Z" fill="black"/>
<path d="M76.5759 142.968C76.5115 142.968 76.4472 142.939 76.4043 142.884C76.3311 142.79 76.3496 142.655 76.4433 142.582L84.5388 136.368C84.6334 136.295 84.769 136.313 84.8421 136.407C84.9153 136.502 84.8967 136.637 84.8031 136.71L76.7076 142.923C76.6676 142.953 76.6217 142.968 76.5759 142.968Z" fill="black"/>
<path d="M88.4743 133.833C88.41 133.833 88.3456 133.804 88.3027 133.75C88.2296 133.655 88.2481 133.52 88.3417 133.447L102.796 122.353C102.89 122.281 103.026 122.298 103.099 122.392C103.171 122.486 103.154 122.621 103.06 122.694L88.606 133.789C88.567 133.819 88.5211 133.833 88.4743 133.833Z" fill="black"/>
<path d="M93.2161 142.107C93.1517 142.107 93.0874 142.077 93.0445 142.023C92.9723 141.929 92.9899 141.793 93.0835 141.72L105.11 132.49C105.206 132.418 105.34 132.435 105.414 132.529C105.486 132.623 105.468 132.758 105.375 132.831L93.3478 142.062C93.3088 142.092 93.2619 142.107 93.2161 142.107Z" fill="black"/>
<path d="M151.508 26.0289C156.056 26.0406 159.39 29.6823 158.941 34.1459L152.973 93.4462C152.523 97.9098 148.459 101.532 143.911 101.52L44.2542 101.259C39.7067 101.247 36.3723 97.6053 36.8219 93.1417L42.7894 33.8414C43.239 29.3778 47.3038 25.7556 51.8514 25.7672L151.508 26.0289Z" fill="white"/>
<path d="M143.935 101.736C143.927 101.736 143.92 101.736 143.911 101.736L97.6309 101.614C97.5119 101.614 97.4154 101.517 97.4154 101.398C97.4154 101.28 97.5129 101.184 97.6319 101.184C97.6319 101.184 97.6319 101.184 97.6328 101.184L143.913 101.305C143.92 101.305 143.928 101.305 143.936 101.305C148.366 101.305 152.323 97.7743 152.76 93.4254L158.726 34.1252C158.936 32.0436 158.311 30.0798 156.967 28.5945C155.602 27.0849 153.663 26.2504 151.508 26.2445L51.8508 25.9829C51.843 25.9829 51.8362 25.9829 51.8284 25.9829C47.3978 25.9829 43.4412 29.5137 43.0043 33.8626L38.4704 78.9189C38.4587 79.0376 38.3543 79.1242 38.2334 79.1115C38.1144 79.0998 38.0276 78.9938 38.0403 78.8752L42.5742 33.8188C43.0336 29.255 47.1823 25.551 51.8284 25.551C51.8362 25.551 51.843 25.551 51.8518 25.551L151.508 25.8127C153.787 25.8185 155.839 26.7036 157.288 28.3047C158.715 29.8814 159.378 31.9639 159.156 34.167L153.19 93.4673C152.73 98.0311 148.581 101.735 143.935 101.736ZM87.9067 101.588C87.9057 101.588 87.9057 101.588 87.9067 101.588L45.7828 101.477C45.6638 101.477 45.5673 101.38 45.5673 101.261C45.5673 101.143 45.6638 101.046 45.7838 101.046C45.7838 101.046 45.7838 101.046 45.7847 101.046L87.9077 101.157C88.0266 101.157 88.1232 101.255 88.1232 101.373C88.1222 101.492 88.0257 101.588 87.9067 101.588Z" fill="black"/>
<path d="M66.6763 40.3389H59.8232C59.2946 40.3389 58.8138 40.1308 58.4705 39.7524C58.1136 39.3604 57.9478 38.8361 58.0024 38.2778C58.1116 37.1641 59.0888 36.2585 60.1811 36.2585H67.0342C67.5628 36.2585 68.0435 36.4667 68.3868 36.8451C68.7438 37.2371 68.9096 37.7613 68.855 38.3196C68.7448 39.4334 67.7676 40.3389 66.6763 40.3389ZM60.1801 36.6904C59.3043 36.6904 58.5193 37.4219 58.4315 38.3206C58.3886 38.7564 58.5163 39.163 58.7894 39.4635C59.0498 39.7505 59.4165 39.908 59.8222 39.908H66.6753C67.551 39.908 68.3361 39.1766 68.4239 38.2778C68.4668 37.8421 68.3391 37.4355 68.066 37.1349C67.8056 36.848 67.4389 36.6904 67.0332 36.6904H60.1801Z" fill="black"/>
<path d="M86.6658 86.1392H53.1982C52.6696 86.1392 52.1888 85.9311 51.8455 85.5527C51.4886 85.1607 51.3228 84.6364 51.3774 84.0781C51.4866 82.9644 52.4638 82.0588 53.5561 82.0588H87.0247C87.5533 82.0588 88.0341 82.267 88.3773 82.6454C88.7343 83.0373 88.9001 83.5616 88.8455 84.1199C88.7362 85.2337 87.7581 86.1392 86.6658 86.1392ZM53.5561 82.4907C52.6803 82.4907 51.8953 83.2222 51.8075 84.1209C51.7646 84.5567 51.8923 84.9633 52.1654 85.2638C52.4258 85.5508 52.7925 85.7083 53.1982 85.7083H86.6658C87.5416 85.7083 88.3266 84.9769 88.4144 84.0781C88.4573 83.6424 88.3296 83.2358 88.0565 82.9352C87.7961 82.6483 87.4294 82.4907 87.0237 82.4907H53.5561Z" fill="black"/>
<path d="M90.7425 93.6883H51.8544C51.3258 93.6883 50.845 93.4801 50.5018 93.1018C50.1448 92.7098 49.979 92.1855 50.0336 91.6272C50.1429 90.5135 51.1201 89.6079 52.2123 89.6079H91.0994C91.628 89.6079 92.1088 89.8161 92.4521 90.1944C92.809 90.5864 92.9748 91.1107 92.9202 91.669C92.8119 92.7827 91.8338 93.6883 90.7425 93.6883ZM52.2123 90.0388C51.3366 90.0388 50.5515 90.7703 50.4637 91.669C50.4208 92.1048 50.5486 92.5114 50.8216 92.8119C51.082 93.0989 51.4487 93.2564 51.8544 93.2564H90.7415C91.6172 93.2564 92.4023 92.525 92.4901 91.6262C92.533 91.1905 92.4053 90.7839 92.1322 90.4833C91.8718 90.1964 91.5051 90.0388 91.0994 90.0388H52.2123Z" fill="black"/>
<path d="M106.694 40.3389H77.3857C76.8571 40.3389 76.3763 40.1308 76.033 39.7524C75.6761 39.3604 75.5103 38.8361 75.5649 38.2778C75.6741 37.1641 76.6513 36.2585 77.7436 36.2585H107.052C107.58 36.2585 108.061 36.4667 108.404 36.8451C108.761 37.2371 108.927 37.7613 108.873 38.3196C108.763 39.4334 107.786 40.3389 106.694 40.3389ZM77.7446 36.6904C76.8688 36.6904 76.0837 37.4219 75.996 38.3206C75.953 38.7564 76.0808 39.163 76.3539 39.4635C76.6143 39.7505 76.981 39.908 77.3867 39.908H106.694C107.57 39.908 108.355 39.1766 108.442 38.2778C108.485 37.8421 108.358 37.4355 108.085 37.1349C107.824 36.848 107.457 36.6904 107.052 36.6904H77.7446Z" fill="black"/>
<path d="M155.615 66.4805L39.48 66.9795C38.9387 66.9815 38.5164 66.5136 38.5759 65.9767L39.6204 56.5631C39.6575 56.2314 39.9383 55.9815 40.2728 55.9834L156.755 56.605C157.158 56.6069 157.469 56.96 157.42 57.3598L156.367 65.8162C156.32 66.1946 155.998 66.4796 155.615 66.4805Z" fill="#157B6C"/>
<path d="M127.256 101.962H117.338C116.975 101.962 116.709 101.621 116.745 101.2L123.272 26.0162C123.308 25.596 123.633 25.2546 123.996 25.2546H133.914C134.278 25.2546 134.543 25.5951 134.507 26.0162L127.98 101.2C127.944 101.621 127.619 101.962 127.256 101.962Z" fill="#157B6C"/>
<path d="M131.7 64.2523C135.376 72.8858 137.597 79.6294 138.105 82.2799C138.231 82.9384 137.814 83.6426 137.153 83.8527C136.155 84.1708 135.166 84.3255 134.185 84.3342L129.227 64.9312L131.7 64.2523Z" fill="#157B6C"/>
<path d="M134.182 84.5491C134.084 84.5491 133.997 84.482 133.973 84.3867L129.015 64.9837C128.985 64.8699 129.053 64.7541 129.167 64.723L131.641 64.0441C131.746 64.0159 131.855 64.0684 131.897 64.1676C135.59 72.84 137.813 79.6137 138.316 82.239C138.464 83.0152 137.981 83.8138 137.216 84.0569C136.221 84.374 135.201 84.5394 134.183 84.5481C134.184 84.5491 134.183 84.5491 134.182 84.5491ZM129.487 65.0829L134.35 84.1153C135.267 84.091 136.187 83.9334 137.086 83.6474C137.637 83.4723 137.998 82.8771 137.891 82.3207C137.396 79.7353 135.209 73.0696 131.574 64.511L129.487 65.0829Z" fill="#157B6C"/>
<path d="M130.768 64.4211C132.859 77.5377 134.985 84.22 136.705 83.9934C129.564 85.5039 120.2 85.1333 110.07 83.9603C109.127 83.8513 108.505 82.9983 108.655 82.0188C109.495 76.5281 112.202 70.9313 116.077 65.2693L130.768 64.4211Z" fill="white"/>
<path d="M125.533 85.2105C121.112 85.2105 116.003 84.8652 110.043 84.1756C109.542 84.1172 109.101 83.8702 108.801 83.4772C108.484 83.0628 108.355 82.5337 108.439 81.9871C109.227 76.8387 111.665 71.3304 115.896 65.1481C115.934 65.0926 115.995 65.0586 116.062 65.0547L130.754 64.2065C130.864 64.2017 130.962 64.2785 130.98 64.3874C133.898 82.6903 136.082 83.8604 136.675 83.7797C136.793 83.7632 136.897 83.8429 136.916 83.9567C136.936 84.0705 136.862 84.1805 136.749 84.2038C133.579 84.8749 129.891 85.2105 125.533 85.2105ZM116.193 65.4788C112.038 71.5707 109.641 76.9933 108.867 82.0522C108.802 82.4822 108.9 82.8955 109.145 83.2156C109.373 83.5142 109.71 83.7029 110.093 83.7466C121.436 85.0598 129.682 85.1201 135.935 83.9285C133.81 82.1845 131.888 72.7894 130.584 64.6481L116.193 65.4788Z" fill="black"/>
<path d="M126.286 71.4258C126.285 71.4258 126.284 71.4258 126.284 71.4258C126.165 71.4248 126.068 71.3275 126.07 71.2079L126.127 65.5508C126.128 65.4321 126.224 65.3378 126.343 65.3378C126.344 65.3378 126.345 65.3378 126.345 65.3378C126.464 65.3387 126.561 65.436 126.559 65.5556L126.502 71.2127C126.5 71.3304 126.404 71.4258 126.286 71.4258Z" fill="black"/>
<path d="M118.903 71.0299C118.881 71.0299 118.858 71.027 118.836 71.0192C118.723 70.9823 118.661 70.8607 118.698 70.7469L120.431 65.4857C120.468 65.3728 120.59 65.3116 120.704 65.3485C120.818 65.3855 120.879 65.5071 120.842 65.6209L119.109 70.8821C119.078 70.9725 118.994 71.0299 118.903 71.0299Z" fill="black"/>
<path d="M132.071 58.2271C136.997 49.4185 140.209 42.564 141.115 39.8843C141.34 39.219 141.039 38.5294 140.426 38.3455C139.499 38.0673 138.556 37.9516 137.599 37.9827L129.758 57.6464L132.071 58.2271Z" fill="#157B6C"/>
<path d="M132.068 58.4433C132.051 58.4433 132.033 58.4414 132.015 58.4365L129.702 57.8558C129.642 57.8403 129.591 57.8004 129.563 57.7449C129.534 57.6895 129.532 57.6253 129.554 57.5669L137.395 37.9033C137.427 37.8235 137.503 37.77 137.589 37.7671C138.585 37.734 139.558 37.8605 140.486 38.1387C140.813 38.2369 141.083 38.4626 141.243 38.7729C141.425 39.123 141.451 39.553 141.315 39.9527C140.419 42.6042 137.203 49.4859 132.256 58.3315C132.218 58.4025 132.145 58.4433 132.068 58.4433ZM130.046 57.4979L131.96 57.9784C136.847 49.2272 140.021 42.435 140.906 39.8165C141.003 39.5267 140.987 39.2183 140.859 38.9713C140.753 38.7661 140.575 38.6163 140.361 38.5521C139.521 38.3001 138.641 38.1766 137.743 38.1951L130.046 57.4979Z" fill="#157B6C"/>
<path d="M131.191 58.0952C135.258 44.8532 138.367 38.0648 140.015 38.2214C133.267 36.9949 124.057 37.7439 113.973 39.3293C113.033 39.4772 112.294 40.3574 112.289 41.334C112.263 46.8082 114.046 52.3136 116.959 57.8365L131.191 58.0952Z" fill="white"/>
<path d="M131.187 58.3111C131.186 58.3111 131.184 58.3111 131.184 58.3111L116.953 58.0524C116.874 58.0505 116.803 58.0067 116.765 57.9376C113.581 51.9012 112.046 46.4707 112.071 41.3331C112.075 40.2544 112.896 39.2807 113.936 39.1163C125.717 37.2634 134.015 36.9122 140.051 38.0094C140.166 38.0298 140.243 38.1368 140.227 38.2506C140.211 38.3644 140.111 38.45 139.992 38.4355C139.425 38.3771 137.085 39.6357 131.395 58.1575C131.366 58.2489 131.282 58.3111 131.187 58.3111ZM117.088 57.6235L131.028 57.8764C133.561 49.6495 136.897 40.1162 139.231 38.308C133.309 37.3762 125.257 37.7721 114.004 39.5424C113.167 39.6737 112.508 40.4615 112.503 41.335C112.478 46.3676 113.978 51.6969 117.088 57.6235Z" fill="black"/>
<path d="M127.037 57.355C127.027 57.355 127.017 57.354 127.006 57.353C126.888 57.3355 126.806 57.2266 126.822 57.1089L127.64 51.4362C127.657 51.3185 127.765 51.2368 127.884 51.2533C128.002 51.2709 128.084 51.3798 128.068 51.4975L127.251 57.1701C127.236 57.2771 127.143 57.355 127.037 57.355Z" fill="black"/>
<path d="M121.465 57.5844C121.362 57.5844 121.27 57.5105 121.253 57.4045L120.37 52.1968C120.351 52.0791 120.43 51.9682 120.548 51.9478C120.667 51.9273 120.777 52.0071 120.797 52.1248L121.68 57.3325C121.699 57.4502 121.62 57.5611 121.502 57.5815C121.49 57.5835 121.477 57.5844 121.465 57.5844Z" fill="black"/>
<path d="M118.059 57.4641H131.235C132.043 57.4641 132.632 58.1343 132.551 58.9601L132.063 63.9441C131.982 64.7709 131.261 65.4401 130.453 65.4401H117.277C116.469 65.4401 115.88 64.7699 115.961 63.9441L116.449 58.9601C116.53 58.1343 117.251 57.4641 118.059 57.4641Z" fill="white"/>
<path d="M130.451 65.6561H117.275C116.83 65.6561 116.427 65.481 116.137 65.163C115.837 64.8332 115.697 64.3926 115.743 63.9238L116.232 58.9398C116.323 58.008 117.142 57.2493 118.057 57.2493H131.233C131.678 57.2493 132.081 57.4244 132.371 57.7424C132.67 58.0722 132.811 58.5128 132.765 58.9816L132.276 63.9656C132.186 64.8974 131.366 65.6561 130.451 65.6561ZM118.058 57.6792C117.36 57.6792 116.734 58.2638 116.663 58.9806L116.174 63.9646C116.14 64.3109 116.24 64.6338 116.458 64.8721C116.665 65.0988 116.954 65.2243 117.276 65.2243H130.452C131.151 65.2243 131.777 64.6406 131.847 63.9228L132.336 58.9388C132.37 58.5925 132.269 58.2696 132.052 58.0313C131.845 57.8047 131.555 57.6792 131.234 57.6792H118.058Z" fill="black"/>
<path d="M12.0413 162.014L9.17795 171.409L4.99219 170.207L8.03691 160.333L12.0413 162.014Z" fill="white"/>
<path d="M9.1752 171.625C9.15569 171.625 9.13521 171.622 9.11571 171.617L4.92994 170.413C4.87435 170.398 4.82754 170.36 4.79926 170.308C4.77195 170.258 4.7661 170.197 4.78268 170.142L7.82643 160.267C7.84496 160.209 7.88592 160.161 7.94151 160.135C7.9971 160.11 8.06049 160.109 8.11705 160.132L12.1224 161.814C12.2248 161.857 12.2775 161.97 12.2453 162.076L9.38195 171.471C9.35367 171.565 9.26784 171.625 9.1752 171.625ZM5.26055 170.06L9.03086 171.144L11.7762 162.138L8.17069 160.623L5.26055 170.06Z" fill="black"/>
<path d="M9.5669 169.993L5.39186 168.673C5.09539 168.58 4.77258 168.672 4.57363 168.91C3.91826 169.691 2.49635 171.551 1.96484 173.574C1.81953 174.126 2.13746 174.695 2.6836 174.868L8.61603 176.745C9.91897 177.157 11.2638 177.426 12.6253 177.55C12.6253 177.55 17.009 178.011 17.0607 176.619C17.1348 174.619 14.1808 174.221 13.7848 173.816C12.2674 172.266 10.6787 170.82 10.0955 170.296C9.94237 170.158 9.76293 170.056 9.5669 169.993Z" fill="white"/>
<path d="M14.1644 177.842C13.3959 177.842 12.7474 177.778 12.5991 177.763C11.228 177.639 9.86358 177.365 8.54797 176.949L2.61553 175.072C1.95724 174.864 1.57884 174.181 1.75341 173.517C2.30248 171.429 3.79071 169.502 4.40511 168.769C4.6616 168.465 5.07316 168.345 5.45448 168.466L9.62952 169.786C9.85675 169.858 10.0616 169.975 10.2371 170.133C10.8457 170.68 12.4246 172.119 13.9362 173.662C14.0064 173.734 14.3195 173.853 14.5945 173.957C15.6185 174.344 17.333 174.994 17.2735 176.624C17.2647 176.867 17.1584 177.078 16.9575 177.252C16.4046 177.731 15.1797 177.842 14.1644 177.842ZM5.15508 168.852C4.99514 168.852 4.84105 168.921 4.73572 169.048C4.13985 169.757 2.69745 171.623 2.17082 173.628C2.05476 174.07 2.30735 174.524 2.74622 174.663L8.67865 176.539C9.965 176.946 11.2982 177.214 12.6421 177.335C13.5276 177.428 15.9725 177.536 16.6747 176.929C16.7849 176.834 16.8376 176.733 16.8425 176.611C16.8912 175.289 15.4176 174.732 14.4424 174.362C14.0493 174.214 13.7646 174.106 13.628 173.967C12.1252 172.433 10.5541 171.001 9.94842 170.456C9.81872 170.339 9.66755 170.253 9.49981 170.2L5.32477 168.88C5.26821 168.861 5.21164 168.852 5.15508 168.852Z" fill="black"/>
<path d="M9.38002 174.119C9.31663 174.119 9.25421 174.092 9.2113 174.039C9.13718 173.946 9.15181 173.81 9.24446 173.736L11.7021 171.771C11.7947 171.697 11.9313 171.712 12.0064 171.804C12.0805 171.897 12.0659 172.033 11.9732 172.107L9.51558 174.072C9.47462 174.104 9.42683 174.119 9.38002 174.119Z" fill="black"/>
<path d="M10.6925 175.578C10.6291 175.578 10.5667 175.551 10.5238 175.498C10.4497 175.404 10.4643 175.269 10.557 175.194L13.0146 173.229C13.1072 173.155 13.2438 173.17 13.3189 173.262C13.393 173.356 13.3784 173.491 13.2857 173.566L10.8281 175.531C10.7881 175.563 10.7403 175.578 10.6925 175.578Z" fill="black"/>
<path d="M35.7453 164.369L35.5454 171.074L30.8125 171.072L31.1441 164.071L35.7453 164.369Z" fill="white"/>
<path d="M35.5434 171.291L30.8095 171.289C30.7501 171.289 30.6945 171.264 30.6535 171.222C30.6125 171.179 30.5911 171.121 30.594 171.063L30.9256 164.062C30.9285 164.003 30.9539 163.95 30.9978 163.911C31.0407 163.872 31.0963 163.855 31.1558 163.856L35.757 164.154C35.873 164.162 35.9628 164.259 35.9589 164.376L35.7589 171.082C35.756 171.197 35.6604 171.291 35.5434 171.291ZM31.0368 170.857L35.3337 170.859L35.521 164.57L31.3479 164.3L31.0368 170.857Z" fill="black"/>
<path d="M35.3578 170.973L30.9633 170.971C30.6513 170.971 30.3704 171.159 30.2524 171.449C29.8623 172.403 29.0675 174.633 29.1738 176.748C29.203 177.326 29.6799 177.779 30.2543 177.779L43.1491 177.784C43.742 177.784 44.1926 177.239 44.0746 176.654C43.9322 175.953 43.4426 175.031 42.0285 174.203C39.7396 172.86 36.8636 171.519 35.9566 171.104C35.7674 171.018 35.5646 170.973 35.3578 170.973Z" fill="white"/>
<path d="M43.1469 178L30.2512 177.995C29.5587 177.995 28.9892 177.453 28.9551 176.76C28.8458 174.576 29.6836 172.262 30.0493 171.369C30.2014 170.998 30.5584 170.758 30.9602 170.758C30.9602 170.758 30.9602 170.758 30.9611 170.758L35.3556 170.76C35.5945 170.76 35.8257 170.81 36.0441 170.91C36.8877 171.296 39.8203 172.662 42.1355 174.02C43.6569 174.912 44.1436 175.922 44.283 176.614C44.3523 176.955 44.2645 177.308 44.0431 177.577C43.8217 177.845 43.495 178 43.1469 178ZM30.9602 171.187C30.7349 171.187 30.535 171.323 30.4491 171.532C30.0941 172.398 29.2808 174.641 29.3861 176.739C29.4095 177.202 29.7889 177.564 30.2512 177.564L43.1459 177.569C43.1459 177.569 43.1459 177.569 43.1469 177.569C43.3653 177.569 43.5691 177.472 43.7086 177.303C43.8481 177.132 43.9027 176.913 43.8598 176.698C43.6842 175.83 43.0123 175.032 41.9161 174.39C39.6184 173.042 36.7024 171.685 35.8627 171.3C35.7018 171.226 35.5312 171.189 35.3546 171.189L30.9602 171.187Z" fill="black"/>
<path d="M36.3644 175.022C36.3234 175.022 36.2825 175.011 36.2454 174.986C36.1459 174.92 36.1186 174.787 36.184 174.688L37.9384 172.041C38.0047 171.942 38.1384 171.914 38.2378 171.98C38.3373 172.046 38.3646 172.179 38.2993 172.278L36.5448 174.925C36.5029 174.989 36.4346 175.022 36.3644 175.022Z" fill="black"/>
<path d="M38.0597 176.031C38.0187 176.031 37.9778 176.02 37.9407 175.995C37.8412 175.929 37.8139 175.796 37.8793 175.697L39.6337 173.05C39.7001 172.951 39.8337 172.924 39.9331 172.989C40.0326 173.055 40.0599 173.188 39.9946 173.288L38.2401 175.934C38.1991 175.997 38.1299 176.031 38.0597 176.031Z" fill="black"/>
<path d="M15.9068 107.324C15.9068 107.324 13.7457 112.704 13.3263 118.221C12.9069 123.737 7.16467 157.03 5.44531 165.42C5.44531 165.42 9.29852 167.57 11.4948 167.217C11.4948 167.217 23.8999 142.575 25.9207 124.219C27.9414 105.863 27.3513 107.328 27.3513 107.328L15.9068 107.324Z" fill="#157B6C"/>
<path d="M19.7136 109.39C19.7136 109.39 19.0173 119.335 22.4755 126.365C25.9338 133.394 30.0874 160.722 29.7977 167.671C29.7977 167.671 34.1776 168.827 36.2548 168.017C36.2548 168.017 42.5462 128.626 34.5335 109.258L19.7136 109.39Z" fill="#157B6C"/>
<path d="M24.5844 134.021C24.482 134.021 24.3913 133.948 24.3718 133.845C24.3669 133.816 23.8247 130.952 22.5198 128.653C20.5537 125.187 19.8145 120.881 19.8076 120.838C19.7881 120.72 19.8671 120.609 19.9851 120.59C20.1031 120.572 20.2143 120.649 20.2338 120.767C20.2407 120.809 20.9682 125.042 22.8963 128.44C24.2372 130.804 24.7746 133.646 24.797 133.766C24.8185 133.883 24.7414 133.995 24.6234 134.017C24.6107 134.02 24.5981 134.021 24.5844 134.021Z" fill="white"/>
<path d="M20.0596 85.1508L18.0018 82.8738C17.1143 80.6142 14.6421 78.6572 12.5668 77.3917C3.95728 72.1432 5.16658 62.1791 5.11587 58.1444L1.83904 58.6512C1.83904 58.6512 -6.22626 79.5764 13.6317 89.5775L20.0596 85.1508Z" fill="white"/>
<path d="M13.6285 89.7937C13.5954 89.7937 13.5622 89.7859 13.531 89.7704C3.18263 84.5578 0.498743 76.3484 0.0696342 70.3791C-0.394584 63.9244 1.61345 58.6262 1.63393 58.5737C1.66221 58.5017 1.72561 58.4501 1.80265 58.4375L5.07948 57.9307C5.1419 57.921 5.20432 57.9385 5.2521 57.9794C5.29989 58.0202 5.32817 58.0786 5.32817 58.1408C5.33402 58.5717 5.32525 59.0571 5.31452 59.6183C5.23455 64.1481 5.08436 72.5793 12.6747 77.2073C14.3014 78.1994 17.1726 80.2352 18.1839 82.7573L20.2153 85.0052C20.2573 85.0509 20.2768 85.1132 20.27 85.1744C20.2631 85.2357 20.229 85.2912 20.1783 85.3272L13.7514 89.7558C13.7143 89.7811 13.6714 89.7937 13.6285 89.7937ZM1.99477 58.845C1.70805 59.6504 0.0793867 64.5274 0.502644 70.3635C0.924927 76.1947 3.5464 84.2066 13.6119 89.3278L19.7316 85.1132L17.8387 83.019C17.8211 82.9995 17.8075 82.9772 17.7977 82.9529C16.8459 80.5309 14.0391 78.5447 12.4504 77.5759C4.64843 72.8195 4.80154 64.2269 4.88346 59.6115C4.89126 59.1592 4.89809 58.7575 4.89809 58.3957L1.99477 58.845Z" fill="black"/>
<path d="M2.98519 59.052C2.79989 58.9946 2.60971 58.9109 2.41564 58.7991C1.48038 58.2602 0.273995 56.5356 0.759669 55.4112C1.45502 53.8014 5.16487 54.139 5.85827 55.5688C6.69893 57.3011 4.86254 59.6365 2.98519 59.052Z" fill="white"/>
<path d="M3.5802 59.3576C3.35979 59.3576 3.13841 59.3245 2.92288 59.2584C2.71905 59.1952 2.5123 59.1037 2.30945 58.987C1.26106 58.383 0.0390694 56.5398 0.562778 55.3278C0.875832 54.6041 1.76428 54.1567 2.93946 54.1304C4.15169 54.11 5.60871 54.5574 6.0544 55.4766C6.49424 56.3812 6.29529 57.526 5.54727 58.3917C5.00796 59.0162 4.2931 59.3576 3.5802 59.3576ZM3.05161 58.8469C3.94201 59.1242 4.75635 58.6485 5.22056 58.1106C5.85545 57.3753 6.03099 56.4143 5.66625 55.6643C5.34735 55.0088 4.1829 54.5321 2.94921 54.5613C1.94763 54.5837 1.20352 54.9339 0.959704 55.498C0.544248 56.459 1.6258 58.0951 2.52595 58.6135C2.70052 58.7147 2.87704 58.7925 3.05161 58.8469Z" fill="black"/>
<path d="M52.7763 78.1215C61.7535 83.9693 56.6754 102.363 42.7908 95.9381L41.875 86.6189C53.8754 91.7809 53.0513 84.6998 49.9364 77.071L52.7763 78.1215Z" fill="white"/>
<path d="M48.2569 97.5009C46.5258 97.5009 44.666 97.0448 42.697 96.1334C42.6277 96.1013 42.5799 96.0351 42.5731 95.9592L41.6574 86.64C41.6495 86.5641 41.6837 86.4902 41.7451 86.4445C41.8066 86.3998 41.8875 86.39 41.9577 86.4212C46.4887 88.3704 49.471 88.6894 50.8218 87.3695C52.2837 85.9407 51.9179 82.5032 49.7334 77.1525C49.7012 77.0737 49.7188 76.9823 49.7782 76.921C49.8377 76.8597 49.9284 76.8393 50.0084 76.8695L52.8483 77.92C52.8629 77.9258 52.8776 77.9326 52.8912 77.9414C57.8991 81.2027 58.5467 88.277 56.0101 92.8379C54.8281 94.9622 53.0765 96.4368 50.9446 97.1012C50.0884 97.3677 49.1911 97.5009 48.2569 97.5009ZM42.9905 95.7939C48.4314 98.2664 53.1516 97.0875 55.6317 92.6288C58.0708 88.244 57.4622 81.4517 52.6747 78.3158L50.3156 77.4433C52.4377 82.7853 52.702 86.1362 51.1241 87.6779C49.6505 89.1184 46.7043 88.883 42.1225 86.96L42.9905 95.7939Z" fill="black"/>
<path d="M50.8029 78.2459C50.6001 78.1827 50.3914 78.0913 50.1788 77.9697C49.1538 77.3793 47.8323 75.4894 48.3638 74.2589C49.1255 72.4955 53.1894 72.8651 53.9501 74.4311C54.8726 76.3278 52.8597 78.886 50.8029 78.2459Z" fill="white"/>
<path d="M51.4529 78.56C51.213 78.56 50.973 78.524 50.739 78.4521C50.5166 78.383 50.2923 78.2838 50.0719 78.1564C48.9299 77.4979 47.5977 75.4912 48.1672 74.1733C48.5066 73.3873 49.4731 72.902 50.7526 72.8738C52.0673 72.8378 53.6608 73.3377 54.1465 74.3367C54.6244 75.321 54.4079 76.566 53.5935 77.5086C53.0055 78.1885 52.2282 78.56 51.4529 78.56ZM50.8716 73.3027C50.8346 73.3027 50.7975 73.3027 50.7614 73.3037C49.6555 73.328 48.8343 73.7161 48.5632 74.3425C48.1048 75.4047 49.2956 77.21 50.2874 77.7819C50.4805 77.8928 50.6756 77.9793 50.8677 78.0397C51.8527 78.347 52.7529 77.8208 53.2658 77.2265C53.9671 76.4143 54.1601 75.3531 53.7574 74.5234C53.4141 73.8192 52.1862 73.3027 50.8716 73.3027Z" fill="black"/>
<path d="M43.993 86.8464C43.9813 86.5984 43.8643 86.3679 43.6702 86.2113C42.9729 85.6461 40.449 84.3884 38.2781 83.1493C35.8809 81.7807 33.7568 80.9228 30.9949 80.9568L21.6472 80.4511C19.0403 80.4394 17.5423 79.9521 15.3763 78.673C12.8455 77.178 11.2422 75.0663 10.6044 74.3699C10.4874 74.2425 10.2806 74.2707 10.2007 74.4243L4.75 84.8232C4.75 84.8232 8.96405 88.6605 14.521 92.9247C14.6975 93.0608 14.9316 97.3027 14.9072 97.5235L13.1664 113.345C13.0221 114.444 37.6968 116.213 37.6256 115.067C37.3955 111.372 36.0974 108.303 36.6445 96.6763C36.664 96.259 37.0463 95.9555 37.4569 96.0343C38.6418 96.2639 41.0234 96.7162 43.4303 97.1237C43.9823 97.2171 44.4787 96.7765 44.4514 96.2191L43.993 86.8464Z" fill="white"/>
<path d="M34.3507 115.635C27.919 115.635 14.445 114.528 13.1362 113.655C12.9597 113.538 12.9372 113.406 12.9489 113.317L14.6897 97.5002C14.7151 97.1627 14.4849 93.5239 14.3484 93.0658C8.86556 88.857 4.64372 85.0207 4.60178 84.9828C4.52961 84.9167 4.51011 84.8106 4.55594 84.7241L10.0066 74.3232C10.0778 74.188 10.2095 74.0956 10.3606 74.0762C10.5108 74.0577 10.66 74.1122 10.7614 74.2231C10.857 74.3271 10.9731 74.4623 11.1106 74.6218C11.8957 75.5332 13.3566 77.2286 15.4836 78.4853C17.7325 79.814 19.173 80.2225 21.6452 80.2332L31.0037 80.739C33.8368 80.6943 36.0018 81.6008 38.3824 82.9596C39.1792 83.4139 40.0072 83.8633 40.8088 84.2971C42.1713 85.0344 43.3474 85.6724 43.8038 86.0421C44.0437 86.2366 44.191 86.5255 44.2056 86.8338L44.665 96.2075C44.6816 96.5392 44.5479 96.8563 44.2983 97.0761C44.0496 97.2959 43.719 97.3903 43.3913 97.3348C40.9756 96.9253 38.6087 96.475 37.413 96.2435C37.2784 96.2182 37.1448 96.2493 37.0376 96.334C36.9303 96.4186 36.864 96.546 36.8581 96.6831C36.4602 105.13 37.0444 109.086 37.4715 111.975C37.6354 113.082 37.7758 114.037 37.8392 115.049C37.8441 115.122 37.8246 115.259 37.6451 115.362C37.3155 115.554 36.0906 115.635 34.3507 115.635ZM13.3849 113.306C13.8939 113.673 18.1821 114.321 25.3502 114.83C32.5007 115.339 36.8308 115.302 37.4013 115.009C37.337 114.041 37.2004 113.112 37.0415 112.041C36.6123 109.134 36.0243 105.154 36.4241 96.6666C36.4368 96.404 36.5616 96.1608 36.7684 95.9984C36.9732 95.8379 37.2375 95.7737 37.493 95.8233C38.6867 96.0548 41.0497 96.5032 43.4615 96.9117C43.6595 96.9448 43.8584 96.8884 44.0086 96.7551C44.1598 96.6219 44.2398 96.4303 44.23 96.2299L43.7707 86.8562C43.7619 86.6694 43.6731 86.4953 43.5278 86.3776C43.1026 86.0333 41.9431 85.405 40.6001 84.6774C39.7965 84.2426 38.9656 83.7923 38.1649 83.3351C35.8897 82.0366 33.8183 81.1699 31.1461 81.1699C31.0954 81.1699 31.0437 81.1699 30.992 81.1709L21.6296 80.6651C19.1086 80.6544 17.5589 80.2147 15.2603 78.8569C13.0728 77.5642 11.5816 75.8338 10.78 74.9039C10.6454 74.7483 10.5323 74.616 10.4386 74.5139C10.4357 74.511 10.4289 74.5032 10.4123 74.5042C10.4045 74.5051 10.3928 74.509 10.386 74.5226L5.01236 84.7756C5.7477 85.4371 9.68282 88.9455 14.6468 92.7535C14.9755 93.0055 15.1198 97.506 15.1159 97.5469L13.3849 113.306ZM13.378 113.363L13.3771 113.368C13.378 113.367 13.378 113.365 13.378 113.363Z" fill="black"/>
<path d="M24.004 73.8964L23.2453 81.3743C23.138 82.2896 23.8353 83.1018 24.7589 83.1378L26.9961 83.2243C27.9011 83.2594 28.6511 82.5337 28.6433 81.6301L28.5887 74.4887L24.004 73.8964Z" fill="white"/>
<path d="M27.0572 83.4423C27.0329 83.4423 27.0095 83.4423 26.9851 83.4403L24.7478 83.3538C24.2475 83.3343 23.7746 83.1057 23.4488 82.7264C23.1231 82.347 22.97 81.8451 23.0275 81.3491L23.7853 73.874C23.7911 73.8157 23.8204 73.7632 23.8662 73.7272C23.9121 73.6912 23.9706 73.6746 24.0281 73.6824L28.6137 74.2758C28.721 74.2894 28.801 74.3798 28.802 74.4878L28.8566 81.6292C28.8605 82.1253 28.6664 82.5892 28.3095 82.9345C27.9691 83.2633 27.5273 83.4423 27.0572 83.4423ZM24.1929 74.1386L23.4566 81.3967C23.4118 81.7829 23.5249 82.1544 23.7765 82.4472C24.0271 82.74 24.3782 82.9093 24.7644 82.9238L27.0016 83.0104C27.38 83.026 27.737 82.8888 28.0091 82.6262C28.2802 82.3636 28.4284 82.0115 28.4255 81.6341L28.3728 74.6804L24.1929 74.1386Z" fill="black"/>
<path d="M27.6064 64.6899C25.809 64.9321 25.5632 66.9562 23.4157 67.1926C22.4317 67.3015 21.9373 66.9368 21.0654 67.3541C20.488 67.6303 19.6474 68.2966 19.5616 69.1778C19.4514 70.3003 20.686 70.5435 21.946 72.7048C22.8306 74.2231 22.8842 75.2386 23.5884 75.3495C24.3003 75.4604 24.6192 74.4799 25.4062 74.5431C26.4244 74.6248 26.557 76.3212 27.6317 76.827C28.3095 77.146 29.7275 77.0799 31.7317 75.5849C32.0564 75.3427 32.1618 74.903 31.9813 74.5412C31.7502 74.0772 31.4547 73.4926 31.1251 72.9577C29.5559 70.4073 28.448 69.9774 28.6665 69.1953C29.002 67.998 31.206 68.2207 31.3757 67.2568C31.5513 66.2569 29.4525 64.4419 27.6064 64.6899Z" fill="#157B6C"/>
<path d="M25.1406 69.5658C25.1406 69.5658 26.7196 72.8758 27.3252 73.7026C27.9318 74.5293 30.642 72.8515 30.642 72.8515L30.7083 72.2552L31.0321 72.0451C31.1326 71.9799 31.1979 71.873 31.2106 71.7533C31.2223 71.6346 31.1803 71.516 31.0955 71.4323C30.4421 70.7855 29.0553 69.3187 28.3814 67.8908C28.3814 67.8898 26.5489 67.4249 25.1406 69.5658Z" fill="white"/>
<path d="M27.8978 74.145C27.5819 74.145 27.3146 74.0565 27.1488 73.8299C26.5374 72.9963 25.0082 69.7942 24.9428 69.659C24.9107 69.5909 24.9155 69.5112 24.9575 69.448C26.434 67.205 28.3513 67.6602 28.4323 67.6816C28.4947 67.6971 28.5474 67.7399 28.5747 67.7983C29.2437 69.2174 30.6656 70.7047 31.2449 71.2785C31.3775 71.4099 31.4419 71.5908 31.4234 71.7746C31.4048 71.9594 31.3044 72.1238 31.1483 72.225L30.9094 72.3796L30.8538 72.8747C30.847 72.9408 30.809 72.9992 30.7534 73.0342C30.3886 73.2609 28.8965 74.145 27.8978 74.145ZM25.3866 69.5841C25.6665 70.1648 26.9723 72.8582 27.498 73.576C27.8218 74.0166 29.4075 73.3435 30.4374 72.723L30.492 72.2318C30.4988 72.1676 30.5349 72.1102 30.5885 72.0752L30.9123 71.8651C30.9582 71.8349 30.9874 71.7873 30.9933 71.7328C30.9991 71.6783 30.9796 71.6248 30.9406 71.5859C30.217 70.87 28.9189 69.4771 28.2314 68.0823C27.8647 68.0269 26.514 67.9549 25.3866 69.5841Z" fill="black"/>
<path d="M25.7037 72.2566C25.7037 72.2566 24.4573 70.7344 23.8829 71.4464C23.3085 72.1584 24.7226 73.8002 25.7037 72.2566Z" fill="white"/>
<path d="M171.875 127.296L141.982 135.248L112.175 127.259C112.119 127.245 112.119 127.166 112.175 127.15L142.334 119.115L171.875 127.212C171.918 127.225 171.918 127.285 171.875 127.296Z" fill="white"/>
<path d="M141.98 135.464C141.961 135.464 141.942 135.461 141.923 135.456L112.116 127.467C111.998 127.436 111.914 127.328 111.914 127.205C111.914 127.082 111.997 126.974 112.117 126.942L142.275 118.907C142.313 118.897 142.352 118.897 142.389 118.907L171.93 127.004C172.043 127.035 172.121 127.139 172.121 127.255C172.12 127.372 172.041 127.474 171.928 127.504L142.036 135.456C142.017 135.461 141.999 135.464 141.98 135.464ZM112.804 127.206L141.98 135.025L171.2 127.252L142.33 119.34L112.804 127.206ZM112.227 127.051H112.228C112.228 127.051 112.228 127.051 112.227 127.051Z" fill="black"/>
<path d="M141.961 177.574L141.989 135.182L172.155 127.227L172.126 169.433L141.961 177.574Z" fill="white"/>
<path d="M154.25 174.469L154.278 132.077L162.579 129.851L162.55 172.056L154.25 174.469Z" fill="#157B6C"/>
<path d="M141.959 177.79C141.912 177.79 141.865 177.774 141.827 177.745C141.773 177.704 141.742 177.641 141.742 177.574L141.77 135.182C141.77 135.085 141.837 134.999 141.931 134.974L172.097 127.019C172.163 127.002 172.231 127.016 172.284 127.057C172.338 127.098 172.368 127.161 172.368 127.228L172.34 169.434C172.34 169.531 172.274 169.617 172.18 169.642L142.014 177.783C141.996 177.787 141.977 177.79 141.959 177.79ZM142.203 135.347L142.174 177.292L171.908 169.267L171.936 127.506L142.203 135.347Z" fill="black"/>
<path d="M141.964 177.574L141.992 135.182L112.099 127.177L112.07 169.433L141.964 177.574Z" fill="white"/>
<path d="M121.395 129.541L121.367 171.687L129.352 174.169L129.38 132.001L121.395 129.541Z" fill="#157B6C"/>
<path d="M141.524 177.655C141.467 177.655 141.408 177.647 141.351 177.631L112.011 169.641C111.917 169.615 111.852 169.53 111.852 169.433L111.88 127.431C111.88 127.303 111.939 127.184 112.042 127.106C112.144 127.027 112.274 127.001 112.399 127.036L142.045 134.975C142.14 135 142.205 135.085 142.205 135.183L142.177 177.004C142.177 177.209 142.083 177.398 141.919 177.521C141.803 177.609 141.666 177.655 141.524 177.655ZM112.284 169.268L141.465 177.216C141.531 177.233 141.602 177.221 141.657 177.179C141.712 177.137 141.744 177.073 141.744 177.004L141.772 135.348L112.312 127.46L112.284 169.268Z" fill="black"/>
<path d="M121.527 135.206L127.466 133.15C128.025 132.956 128.584 133.439 128.473 134.019L127.573 138.713C127.428 139.468 128.365 139.942 128.891 139.379L138.7 128.869C139.096 128.445 138.895 127.754 138.334 127.606L130.333 125.489C130.078 125.421 129.804 125.49 129.611 125.67L120.748 133.922C120.142 134.486 120.741 135.479 121.527 135.206Z" fill="white"/>
<path d="M128.333 139.843C128.181 139.843 128.026 139.807 127.879 139.732C127.477 139.529 127.273 139.113 127.357 138.672L128.258 133.978C128.296 133.782 128.227 133.588 128.076 133.457C127.925 133.327 127.722 133.288 127.533 133.353L121.594 135.41C121.073 135.591 120.632 135.328 120.427 134.988C120.222 134.649 120.195 134.138 120.599 133.763L129.462 125.511C129.712 125.278 130.057 125.193 130.387 125.279L138.387 127.396C138.725 127.485 138.984 127.738 139.081 128.073C139.177 128.407 139.094 128.759 138.856 129.014L129.047 139.524C128.851 139.734 128.596 139.843 128.333 139.843ZM127.719 132.89C127.95 132.89 128.177 132.973 128.36 133.131C128.629 133.363 128.75 133.709 128.684 134.059L127.784 138.753C127.726 139.053 127.897 139.258 128.076 139.348C128.256 139.438 128.522 139.456 128.731 139.232L138.54 128.722C138.673 128.579 138.721 128.382 138.666 128.194C138.612 128.007 138.466 127.865 138.277 127.814L130.276 125.697C130.09 125.648 129.897 125.696 129.758 125.827L120.894 134.079C120.653 134.304 120.692 134.59 120.798 134.767C120.904 134.944 121.14 135.11 121.452 135.003L127.392 132.947C127.5 132.909 127.61 132.89 127.719 132.89Z" fill="black"/>
<path d="M152.36 111.811L146.474 115.386C146.056 115.64 145.523 115.329 145.538 114.842L145.74 108.544C145.761 107.901 144.901 107.664 144.587 108.226L136.609 122.519C136.435 122.83 136.563 123.224 136.888 123.373L143.983 126.66C144.267 126.791 144.604 126.689 144.767 126.424L153.206 112.657C153.542 112.106 152.911 111.476 152.36 111.811Z" fill="white"/>
<path d="M144.239 126.932C144.121 126.932 144.002 126.907 143.889 126.855L136.794 123.569C136.585 123.472 136.424 123.292 136.353 123.073C136.282 122.854 136.305 122.614 136.417 122.413L144.396 108.121C144.586 107.78 144.966 107.622 145.344 107.725C145.72 107.829 145.966 108.161 145.953 108.551L145.751 114.849C145.747 114.998 145.821 115.131 145.949 115.206C146.078 115.281 146.231 115.279 146.358 115.202L152.245 111.627C152.579 111.424 152.989 111.474 153.266 111.75C153.542 112.026 153.591 112.436 153.387 112.768L144.948 126.536C144.793 126.789 144.521 126.932 144.239 126.932ZM145.115 108.125C144.992 108.125 144.859 108.178 144.774 108.331L136.796 122.623C136.741 122.722 136.73 122.834 136.765 122.941C136.799 123.047 136.875 123.131 136.976 123.179L144.071 126.465C144.255 126.55 144.474 126.484 144.58 126.311L153.019 112.544C153.14 112.346 153.069 112.161 152.961 112.054C152.853 111.947 152.668 111.875 152.47 111.996L146.583 115.571C146.318 115.732 146 115.735 145.732 115.578C145.464 115.423 145.31 115.145 145.319 114.835L145.521 108.537C145.528 108.307 145.375 108.181 145.229 108.14C145.194 108.13 145.155 108.125 145.115 108.125Z" fill="black"/>
<path d="M137.296 128.231L142.143 124.213C142.143 124.213 139.972 112.892 130.692 111.266C127.13 110.641 123.256 111.9 119.847 117.292C117.127 121.593 122.34 126.54 137.296 128.231Z" fill="white"/>
<path d="M137.3 128.446C137.292 128.446 137.283 128.446 137.275 128.444C127.564 127.346 121.033 124.72 119.356 121.238C118.717 119.912 118.826 118.507 119.667 117.175C122.713 112.359 126.435 110.3 130.732 111.051C140.052 112.685 142.337 124.056 142.358 124.171C142.373 124.248 142.345 124.327 142.284 124.377L137.437 128.395C137.398 128.429 137.349 128.446 137.3 128.446ZM129.05 111.334C125.612 111.334 122.586 113.369 120.033 117.406C119.263 118.623 119.167 119.85 119.745 121.053C121.35 124.387 127.721 126.92 137.231 128.006L141.907 124.13C141.634 122.905 139.164 112.969 130.656 111.478C130.112 111.381 129.577 111.334 129.05 111.334Z" fill="black"/>
<path d="M137.304 128.231C137.304 128.231 135.704 118.086 126.671 115.976C117.638 113.866 112.791 125.459 137.304 128.231Z" fill="white"/>
<path d="M137.303 128.446C137.295 128.446 137.287 128.446 137.279 128.444C123.165 126.848 120.047 122.595 119.362 120.84C118.859 119.555 119.068 118.289 119.951 117.275C121.308 115.714 123.966 115.122 126.72 115.765C135.789 117.883 137.501 128.093 137.517 128.196C137.527 128.262 137.506 128.33 137.459 128.378C137.418 128.422 137.362 128.446 137.303 128.446ZM124.54 115.94C122.753 115.94 121.188 116.511 120.276 117.559C119.505 118.446 119.323 119.556 119.764 120.685C120.184 121.758 121.364 123.36 124.601 124.889C127.664 126.335 131.847 127.376 137.036 127.983C136.692 126.343 134.567 118.042 126.621 116.186C125.911 116.021 125.21 115.94 124.54 115.94Z" fill="black"/>
<path d="M137.352 128.061L142.85 122.845C142.85 122.845 149.571 115.754 156.374 118.774C160.327 120.53 161.665 124.323 162.037 127.572C162.041 127.602 162.044 127.632 162.047 127.663C162.28 129.941 160.842 132.06 158.657 132.763L152.136 134.861C152.136 134.862 145.821 135.946 137.352 128.061Z" fill="white"/>
<path d="M151.241 135.135C149.173 135.135 143.871 134.429 137.201 128.219C137.157 128.178 137.133 128.122 137.133 128.062C137.133 128.003 137.157 127.946 137.2 127.905L142.699 122.688C142.759 122.624 149.596 115.529 156.459 118.577C160.608 120.419 161.897 124.471 162.249 127.547L162.259 127.641C162.499 129.99 161.011 132.231 158.72 132.969L152.199 135.067C152.19 135.07 152.18 135.073 152.17 135.074C152.115 135.084 151.793 135.135 151.241 135.135ZM137.664 128.06C145.674 135.428 151.756 134.698 152.083 134.651L158.587 132.559C160.685 131.884 162.048 129.835 161.828 127.686L161.819 127.601C161.48 124.634 160.244 120.731 156.283 118.972C149.701 116.051 143.07 122.924 143.004 122.994L137.664 128.06Z" fill="black"/>
<path d="M137.352 128.062C137.352 128.062 144.375 121.244 151.374 125.196C160.859 130.553 153.529 142.199 137.352 128.062Z" fill="white"/>
<path d="M150.745 135.032C147.095 135.032 142.252 132.632 137.207 128.224C137.161 128.184 137.135 128.128 137.133 128.067C137.131 128.007 137.155 127.949 137.198 127.907C137.269 127.838 144.419 121.022 151.478 125.008C154.315 126.61 155.927 128.915 155.792 131.172C155.701 132.698 154.784 133.935 153.277 134.562C152.521 134.877 151.672 135.032 150.745 135.032ZM137.674 128.058C146.744 135.91 151.778 134.72 153.111 134.164C154.46 133.602 155.28 132.502 155.362 131.146C155.485 129.088 153.916 126.88 151.266 125.383C145.085 121.893 138.789 127.066 137.674 128.058Z" fill="black"/>
<path d="M30.3761 52.2901C33.923 48.7525 33.923 43.017 30.3761 39.4795C26.8292 35.9419 21.0785 35.9419 17.5316 39.4795C13.9847 43.017 13.9847 48.7525 17.5316 52.2901C21.0785 55.8276 26.8292 55.8276 30.3761 52.2901Z" fill="white"/>
<path d="M23.9552 55.1583C18.8284 55.1583 14.6562 50.9982 14.6562 45.8839C14.6562 40.7705 18.8274 36.6094 23.9552 36.6094C29.0821 36.6094 33.2542 40.7695 33.2542 45.8839C33.2542 50.9982 29.0821 55.1583 23.9552 55.1583ZM23.9552 37.0412C19.0663 37.0412 15.0893 41.0078 15.0893 45.8839C15.0893 50.7599 19.0663 54.7265 23.9552 54.7265C28.8442 54.7265 32.8212 50.7599 32.8212 45.8839C32.8212 41.0088 28.8442 37.0412 23.9552 37.0412Z" fill="black"/>
<path d="M24.0028 50.4412C23.913 50.4967 23.7999 50.4996 23.7082 50.448C22.9075 50.0016 19.1948 47.7703 19.3401 44.8512C19.4932 41.7669 22.85 42.3019 23.679 43.8192C23.7102 43.8766 23.7726 43.9116 23.8379 43.9078C23.9033 43.9039 23.9618 43.864 23.9862 43.8037C24.3928 42.8291 25.7055 42.1229 26.9421 42.5859C28.4157 43.1384 29.9147 46.7869 24.0028 50.4412Z" fill="#157B6C"/>
</g>
<defs>
<clipPath id="clip0_8_2393">
<rect width="179" height="178" fill="white"/>
</clipPath>
</defs>
</svg>
