<svg width="223" height="232" viewBox="0 0 223 232" fill="none" xmlns="http://www.w3.org/2000/svg">
<g clip-path="url(#clip0_8_1653)">
<path d="M49.8171 214.351C54.0745 211.295 58.4833 208.445 62.9615 205.728C72.0517 200.212 81.4777 195.281 90.9693 190.502C95.9625 187.988 101.087 185.715 106.162 183.376C111.268 181.023 116.383 178.692 121.5 176.361C126.175 174.231 130.851 172.101 135.521 169.96C151.073 136.805 168.24 99.2186 166.134 99.2186L6.83472 94.6801C3.06584 94.6801 0 97.7594 0 101.544V212.651C0 216.437 3.06584 219.516 6.83472 219.516L53.8031 219.821C56.2126 218.043 47.3861 216.097 49.8171 214.351Z" fill="#157B6C"/>
<path d="M171.431 95.068H10.0891C6.5285 95.068 3.64062 97.9674 3.64062 101.545V212.653C3.64062 216.229 6.52724 219.13 10.0891 219.13H171.431C174.992 219.13 177.88 216.23 177.88 212.653V101.544C177.879 97.9674 174.992 95.068 171.431 95.068Z" fill="white"/>
<path d="M171.432 219.411H10.0893C6.37852 219.411 3.35938 216.379 3.35938 212.651V101.544C3.35938 97.8165 6.37852 94.7841 10.0893 94.7841H171.432C175.143 94.7841 178.162 97.8165 178.162 101.544V212.651C178.162 216.379 175.143 219.411 171.432 219.411ZM10.0893 95.3507C6.68901 95.3507 3.92357 98.1297 3.92357 101.544V212.651C3.92357 216.067 6.69028 218.844 10.0893 218.844H171.432C174.832 218.844 177.597 216.066 177.597 212.651V101.544C177.597 98.1284 174.831 95.3507 171.432 95.3507H10.0893Z" fill="black"/>
<path d="M75.336 219.623H9.47148C6.81585 219.623 4.65625 221.793 4.65625 224.459C4.65625 227.127 6.81711 229.296 9.47148 229.296H77.3037C79.9594 229.297 75.336 219.623 75.336 219.623Z" fill="#157B6C"/>
<path d="M208.732 219.623H53.2527C50.5933 219.623 48.4375 221.788 48.4375 224.459C48.4375 227.131 50.5933 229.296 53.2527 229.296H208.732C211.392 229.296 213.547 227.131 213.547 224.459C213.549 221.788 211.392 219.623 208.732 219.623Z" fill="white"/>
<path d="M208.734 229.58H53.2542C50.4433 229.58 48.1562 227.283 48.1562 224.459C48.1562 221.636 50.4433 219.339 53.2542 219.339H208.734C211.545 219.339 213.832 221.636 213.832 224.459C213.832 227.283 211.545 229.58 208.734 229.58ZM53.2542 219.905C50.7538 219.905 48.7204 221.948 48.7204 224.459C48.7204 226.971 50.7538 229.013 53.2542 229.013H208.734C211.234 229.013 213.267 226.971 213.267 224.459C213.267 221.948 211.234 219.905 208.734 219.905H53.2542Z" fill="black"/>
<path d="M166.021 104.35H15.4926C13.93 104.35 12.6641 105.622 12.6641 107.192V109.282C12.6641 110.852 13.93 112.123 15.4926 112.123H166.021C167.583 112.123 168.849 110.852 168.849 109.282V107.192C168.848 105.622 167.582 104.35 166.021 104.35Z" fill="#157B6C"/>
<path d="M163.849 110.045C164.85 109.807 165.47 108.799 165.234 107.793C164.997 106.788 163.994 106.165 162.993 106.402C161.991 106.64 161.371 107.648 161.608 108.653C161.844 109.659 162.848 110.282 163.849 110.045Z" fill="white"/>
<path d="M168.846 115.769H12.7266V210.115H168.846V115.769Z" fill="white"/>
<path d="M168.846 210.399H12.7268C12.5715 210.399 12.4453 210.272 12.4453 210.116V115.769C12.4453 115.613 12.5715 115.486 12.7268 115.486H168.847C169.003 115.486 169.129 115.613 169.129 115.769V210.115C169.129 210.272 169.003 210.399 168.846 210.399ZM13.0082 209.832H168.565V116.053H13.0082V209.832Z" fill="black"/>
<path d="M203.74 183.464H164.32L170.405 230.527C179.44 232.46 188.521 232.52 197.655 230.527L203.74 183.464Z" fill="#157B6C"/>
<path d="M206.652 171.844H161.406L168.391 225.863C178.761 228.083 189.184 228.15 199.668 225.863L206.652 171.844Z" fill="white"/>
<path d="M184.105 227.829C178.861 227.829 173.591 227.266 168.333 226.142C168.216 226.116 168.127 226.02 168.112 225.901L161.127 171.881C161.117 171.8 161.141 171.719 161.195 171.658C161.248 171.598 161.327 171.562 161.407 171.562H206.653C206.734 171.562 206.811 171.598 206.865 171.658C206.918 171.719 206.943 171.802 206.933 171.881L199.948 225.901C199.933 226.02 199.845 226.115 199.729 226.142C194.57 227.266 189.35 227.829 184.105 227.829ZM168.645 225.628C178.952 227.806 189.303 227.806 199.414 225.629L206.332 172.127H161.728L168.645 225.628Z" fill="black"/>
<path d="M203.808 166.376H164.258L162.836 171.075H205.229L203.808 166.376Z" fill="#157B6C"/>
<path d="M205.229 171.358H162.836C162.746 171.358 162.663 171.315 162.61 171.244C162.557 171.171 162.541 171.079 162.567 170.993L163.988 166.294C164.025 166.175 164.134 166.094 164.258 166.094H203.808C203.931 166.094 204.041 166.175 204.078 166.294L205.5 170.993C205.527 171.079 205.51 171.171 205.457 171.244C205.402 171.315 205.319 171.358 205.229 171.358ZM163.217 170.791H204.849L203.598 166.658H164.467L163.217 170.791Z" fill="white"/>
<path d="M208.926 171.075H159.133V176.156H208.926V171.075Z" fill="#157B6C"/>
<path d="M208.926 176.439H159.133C158.978 176.439 158.852 176.312 158.852 176.156V171.075C158.852 170.919 158.978 170.792 159.133 170.792H208.926C209.081 170.792 209.208 170.919 209.208 171.075V176.156C209.208 176.312 209.081 176.439 208.926 176.439ZM159.415 175.872H208.643V171.358H159.415V175.872Z" fill="white"/>
<path d="M163.055 189.583L166.632 217.158C166.632 217.158 184.479 222.626 201.511 217.158C203.47 203.81 204.978 189.583 204.978 189.583C204.978 189.583 184.287 192.404 163.055 189.583Z" fill="#157B6C"/>
<path d="M188.413 212.446C188.394 212.446 188.375 212.446 188.356 212.445C187.533 212.408 187.086 211.613 186.654 210.844C186.259 210.139 185.885 209.473 185.293 209.411C184.61 209.339 183.966 210.102 183.343 210.841C182.662 211.647 182.02 212.411 181.223 212.215C180.62 212.068 180.404 211.476 180.196 210.903C179.994 210.347 179.802 209.822 179.304 209.621C178.826 209.43 178.395 209.651 177.674 210.058C177.087 210.388 176.421 210.764 175.556 210.877C174.016 211.077 172.339 210.34 170.567 208.692C170.453 208.586 170.446 208.407 170.552 208.292C170.658 208.176 170.836 208.17 170.95 208.276C172.595 209.807 174.12 210.492 175.484 210.315C176.24 210.217 176.855 209.87 177.398 209.564C178.099 209.169 178.761 208.796 179.512 209.097C180.245 209.391 180.511 210.122 180.725 210.709C180.924 211.257 181.066 211.595 181.356 211.665C181.814 211.775 182.372 211.115 182.912 210.475C183.596 209.665 184.374 208.74 185.352 208.848C186.234 208.941 186.719 209.804 187.145 210.566C187.518 211.23 187.87 211.858 188.381 211.879C188.896 211.892 189.316 211.306 189.77 210.676C190.316 209.914 190.936 209.051 191.923 208.97C192.854 208.892 193.822 209.543 194.811 210.901C194.903 211.026 194.875 211.204 194.749 211.296C194.624 211.389 194.447 211.361 194.355 211.234C193.49 210.045 192.688 209.473 191.97 209.533C191.241 209.594 190.725 210.312 190.228 211.006C189.719 211.715 189.194 212.446 188.413 212.446Z" fill="white"/>
<path d="M189.07 134.655C188.56 135.171 188.037 135.669 187.55 136.203C187.299 136.462 187.059 136.733 186.826 137.007L186.467 137.411L186.127 137.829C185.227 138.948 184.411 140.144 183.85 141.445C183.279 142.734 183.014 144.176 183.33 145.53C183.607 146.895 184.463 148.072 185.465 149.076C186.47 150.09 187.618 150.982 188.674 152.006C189.202 152.515 189.697 153.074 190.124 153.687C190.553 154.298 190.885 154.987 191.087 155.714C191.497 157.174 191.295 158.75 190.711 160.104C190.134 161.472 189.247 162.669 188.25 163.73C188.214 163.768 188.155 163.769 188.117 163.734C188.08 163.699 188.078 163.641 188.111 163.603C189.048 162.509 189.885 161.312 190.399 159.977C190.654 159.313 190.826 158.618 190.882 157.915C190.937 157.212 190.872 156.501 190.67 155.832C190.47 155.162 190.153 154.528 189.736 153.959C189.325 153.386 188.836 152.868 188.321 152.372C187.288 151.381 186.133 150.496 185.086 149.455C184.563 148.936 184.072 148.37 183.664 147.736C183.251 147.106 182.943 146.396 182.779 145.65C182.61 144.906 182.602 144.129 182.72 143.382C182.833 142.634 183.064 141.913 183.372 141.235C183.442 141.061 183.524 140.895 183.612 140.731C183.698 140.567 183.779 140.399 183.871 140.238C184.063 139.923 184.245 139.599 184.463 139.301L184.779 138.847C184.887 138.699 185.003 138.557 185.114 138.411L185.454 137.979L185.812 137.563L186.172 137.149L186.548 136.751C186.799 136.486 187.055 136.224 187.323 135.977C187.842 135.465 188.393 134.988 188.944 134.513C188.983 134.479 189.042 134.484 189.075 134.523C189.107 134.56 189.105 134.616 189.071 134.651L189.07 134.655Z" fill="black"/>
<path d="M191.162 140.852C190.774 141.87 190.544 142.95 190.582 144.025C190.587 144.564 190.703 145.09 190.822 145.608C190.912 145.859 190.977 146.118 191.086 146.362L191.256 146.723C191.312 146.845 191.367 146.965 191.442 147.075C191.973 148.003 192.72 148.791 193.493 149.556C194.267 150.323 195.102 151.059 195.796 151.96C196.485 152.847 197.028 153.957 197.045 155.134C197.091 156.306 196.725 157.433 196.217 158.433C195.173 160.443 193.608 162.063 191.968 163.523C191.93 163.557 191.872 163.554 191.839 163.516C191.808 163.48 191.809 163.426 191.842 163.391C192.598 162.598 193.336 161.786 194.012 160.932C194.689 160.081 195.293 159.171 195.757 158.205C195.998 157.726 196.177 157.221 196.31 156.712C196.446 156.202 196.511 155.677 196.488 155.159C196.456 154.114 196.011 153.134 195.367 152.292C194.726 151.441 193.912 150.706 193.133 149.923C192.351 149.144 191.598 148.291 191.057 147.291C190.51 146.297 190.229 145.153 190.243 144.028C190.255 142.898 190.533 141.789 190.995 140.78C191.016 140.734 191.071 140.714 191.116 140.734C191.158 140.757 191.178 140.807 191.162 140.852Z" fill="black"/>
<path d="M205.159 52.2342H136.852C134.863 52.2342 133.25 50.614 133.25 48.616V3.9009C133.25 1.90291 134.863 0.282715 136.852 0.282715H205.159C207.148 0.282715 208.761 1.90291 208.761 3.9009V48.616C208.761 50.6153 207.15 52.2342 205.159 52.2342Z" fill="white"/>
<path d="M205.159 52.5182H136.852C134.711 52.5182 132.969 50.7687 132.969 48.6173V3.9009C132.969 1.74951 134.711 0 136.852 0H205.159C207.301 0 209.043 1.74951 209.043 3.9009V48.616C209.044 50.7674 207.301 52.5182 205.159 52.5182ZM136.854 0.566688C135.022 0.566688 133.533 2.06264 133.533 3.90216V48.6173C133.533 50.4556 135.022 51.9528 136.854 51.9528H205.161C206.991 51.9528 208.481 50.4568 208.481 48.6173V3.9009C208.481 2.06264 206.992 0.565421 205.161 0.565421H136.854V0.566688Z" fill="black"/>
<path d="M171 45.8575C170.845 45.8575 170.719 45.7308 170.719 45.5748V6.73828C170.719 6.58234 170.845 6.45557 171 6.45557C171.155 6.45557 171.282 6.58234 171.282 6.73828V45.5748C171.283 45.7308 171.157 45.8575 171 45.8575Z" fill="black"/>
<path d="M170.047 7.8652L171.002 6.9055L171.959 7.8652V7.05003L171.002 6.09033L170.047 7.05003V7.8652Z" fill="black"/>
<path d="M200.28 30.5859H141.094C140.939 30.5859 140.812 30.4592 140.812 30.3032C140.812 30.1473 140.939 30.0205 141.094 30.0205H200.28C200.436 30.0205 200.562 30.1473 200.562 30.3032C200.563 30.4592 200.437 30.5859 200.28 30.5859Z" fill="black"/>
<path d="M199.156 31.2629L200.112 30.302L199.156 29.3423H199.968L200.923 30.302L199.968 31.2629H199.156Z" fill="black"/>
<path d="M171.143 43.2446C164.375 43.2446 158.871 37.7147 158.871 30.9182V23.7756C158.871 17.2911 153.617 12.0146 147.161 12.0146H141.094C140.939 12.0146 140.812 11.8879 140.812 11.7319C140.812 11.576 140.939 11.4492 141.094 11.4492H147.161C153.929 11.4492 159.435 16.9792 159.435 23.7769V30.9195C159.435 37.4041 164.688 42.6805 171.144 42.6805C177.6 42.6805 182.853 37.4053 182.853 30.9195V23.7769C182.853 16.9792 188.359 11.4492 195.126 11.4492H198.68C198.835 11.4492 198.961 11.576 198.961 11.7319C198.961 11.8879 198.835 12.0146 198.68 12.0146H195.126C188.669 12.0146 183.416 17.2911 183.416 23.7756V30.9182C183.416 37.7147 177.911 43.2446 171.143 43.2446Z" fill="black"/>
<path d="M100.228 81.3003C97.4313 82.1737 96.0063 78.1511 90.8314 77.5249C85.7915 76.9151 84.6025 80.4255 79.1802 80.5447C72.9992 80.6816 66.061 76.3091 65.6496 71.8618C65.2911 67.9875 70.0445 65.7702 69.0032 63.1383C68.0439 60.7118 63.8421 62.1837 59.6226 59.0409C56.0002 56.3444 53.4947 51.0883 54.7493 47.323C55.7036 44.4592 58.0626 44.766 59.2591 41.4711C60.5276 37.9784 58.3592 36.523 59.3614 32.9606C60.3938 29.2917 64.1476 25.7584 67.7763 25.7229C71.294 25.6874 71.8696 28.9646 75.7962 29.2029C80.2947 29.4755 82.1122 25.3274 84.8171 26.372C87.734 27.4978 86.5071 32.6627 90.3808 34.8698C91.9938 35.789 92.452 35.0625 95.7173 35.9994C97.3821 36.4773 100.577 37.3939 102.539 39.5022C106.299 43.5426 102.806 49.0345 106.055 51.6664C108.474 53.6276 111.117 51.1479 114.699 53.3652C116.913 54.7344 119.22 57.7339 118.726 60.3543C117.946 64.4771 111.062 63.2233 106.243 69.0322C101.826 74.3529 103.587 80.2505 100.228 81.3003Z" fill="#157B6C"/>
<path d="M53.4144 126.587C53.4055 126.587 53.3955 126.587 53.3866 126.586C53.2314 126.571 53.119 126.433 53.1342 126.277L53.9432 118.021C53.9584 117.865 54.0934 117.755 54.2512 117.768C54.4065 117.783 54.5188 117.921 54.5036 118.077L53.6946 126.333C53.6807 126.478 53.5583 126.587 53.4144 126.587Z" fill="black"/>
<path d="M197.462 51.4547C196.205 50.2579 194.735 50.2212 193.016 50.4354L192.41 50.0551C191.081 49.2209 189.473 48.9623 187.952 49.3375L175.965 52.294C175.462 52.4182 175.007 51.9694 175.12 51.4623C175.349 50.4519 175.692 48.9357 175.957 47.7376C176.228 46.5117 175.746 45.7903 175.34 45.4202C175.108 45.2084 174.749 45.2313 174.543 45.4683C173.217 46.996 168.317 52.8416 168.472 55.7334C168.652 59.0765 170.935 68.8103 170.935 68.8103H181.123L179.125 62.256C178.985 61.7971 179.23 61.3077 179.682 61.148L194.228 55.9806C194.49 55.8881 194.577 55.561 194.396 55.348C194.073 54.9677 193.562 54.4251 193.005 54.0473L197.142 52.4055C197.515 52.2559 197.669 51.8033 197.462 51.4547Z" fill="white"/>
<path d="M181.124 69.0929H170.935C170.804 69.0929 170.69 69.0029 170.661 68.8749C170.568 68.4768 168.371 59.0789 168.191 55.7485C168.032 52.7794 172.851 46.987 174.332 45.2832C174.482 45.1095 174.692 45.0068 174.919 44.9941C175.143 44.9764 175.363 45.0575 175.531 45.2109C175.927 45.5735 176.546 46.3912 176.234 47.7997C175.969 48.9977 175.626 50.5152 175.397 51.5256C175.364 51.6689 175.406 51.8096 175.509 51.9123C175.614 52.015 175.756 52.0543 175.898 52.0188L187.885 49.0623C189.47 48.6706 191.176 48.9457 192.56 49.8141L193.083 50.1412C194.908 49.9244 196.39 50.0398 197.658 51.248C197.677 51.2657 197.694 51.286 197.706 51.3088C197.846 51.5472 197.877 51.8337 197.787 52.0948C197.697 52.3573 197.5 52.5652 197.244 52.6666L193.575 54.1232C193.988 54.4668 194.353 54.8598 194.609 55.1615C194.754 55.3327 194.807 55.5634 194.749 55.7802C194.691 55.9957 194.532 56.1694 194.321 56.2442L179.774 61.4116C179.465 61.5219 179.297 61.854 179.393 62.1697L181.391 68.724C181.418 68.8102 181.401 68.9028 181.348 68.975C181.298 69.0498 181.213 69.0929 181.124 69.0929ZM171.16 68.5263H180.742L178.857 62.3383C178.673 61.7323 178.993 61.0921 179.589 60.8804L194.136 55.713C194.185 55.6953 194.201 55.6572 194.206 55.6357C194.213 55.6141 194.216 55.5723 194.182 55.5317C193.865 55.159 193.376 54.6392 192.848 54.2817C192.761 54.2234 192.714 54.1207 192.726 54.0167C192.737 53.9128 192.805 53.8228 192.902 53.7848L197.039 52.143C197.141 52.1024 197.22 52.0188 197.256 51.9148C197.287 51.821 197.281 51.7196 197.239 51.6308C196.111 50.5786 194.799 50.5 193.054 50.7168C192.989 50.7244 192.925 50.7104 192.87 50.6762L192.264 50.2959C191.007 49.5073 189.462 49.2589 188.022 49.6126L176.035 52.569C175.703 52.6514 175.359 52.5563 175.116 52.3154C174.873 52.0758 174.772 51.7335 174.848 51.4001C175.077 50.3897 175.42 48.8747 175.685 47.6767C175.922 46.6042 175.527 45.9716 175.154 45.6293C175.098 45.5798 175.027 45.5532 174.953 45.5583C174.877 45.5621 174.808 45.5976 174.758 45.6546C171.78 49.0826 168.639 53.5274 168.757 55.7181C168.916 58.7214 170.823 67.0671 171.16 68.5263Z" fill="black"/>
<path d="M180.562 57.3776C180.436 57.3776 180.321 57.2914 180.29 57.1633C180.252 57.0112 180.344 56.8578 180.494 56.8198L190.83 54.2209C190.982 54.1816 191.134 54.2754 191.172 54.4263C191.21 54.5784 191.118 54.7318 190.968 54.7698L180.632 57.3687C180.608 57.3751 180.585 57.3776 180.562 57.3776Z" fill="black"/>
<path d="M179.516 54.3362C179.389 54.3362 179.274 54.25 179.243 54.1219C179.205 53.9698 179.297 53.8164 179.447 53.7784L189.783 51.1794C189.935 51.1414 190.088 51.234 190.125 51.3848C190.163 51.537 190.071 51.6903 189.921 51.7284L179.585 54.3273C179.561 54.3336 179.538 54.3362 179.516 54.3362Z" fill="black"/>
<path d="M43.28 96.7681C46.1742 96.9431 51.0248 97.1827 53.9745 97.326C55.3402 97.3919 56.3664 98.6013 56.2162 99.968L54.2244 118.049C54.2244 118.049 58.7759 115.992 63.7615 110.029C68.7458 104.065 73.2367 91.8061 84.277 91.3726C91.3011 91.0962 108.925 92.2258 120.817 93.084C126.925 93.5252 132.848 95.4053 138.064 98.6292C141.853 100.971 147.48 103.064 154.596 101.763C167.659 99.3759 173.56 88.1448 168.121 70.0045C167.623 68.3437 168.855 66.6677 170.583 66.6677H181.662C182.865 66.6677 183.923 67.4639 184.261 68.6239C186.785 77.2713 195.22 112.121 170.935 123.093C156.603 129.569 141.538 128.822 141.538 128.822L147.488 183.426C148.125 189.261 145.267 194.928 140.198 197.848C134.877 200.912 126.559 203.726 114.184 203.314C103.853 202.971 95.8247 201.133 89.8975 199.042C81.788 196.181 75.9441 189.024 74.7008 180.482C73.3617 171.283 71.813 157.016 71.558 139.101C71.558 139.101 63.1632 148.337 47.1903 145.347C27.4636 141.654 37.0133 108.229 40.0678 98.9563C40.5222 97.577 41.8399 96.6819 43.28 96.7681Z" fill="white"/>
<path d="M116.612 203.637C115.81 203.637 114.999 203.623 114.176 203.596C105.224 203.298 97.0252 201.855 89.8043 199.307C81.5812 196.405 75.6868 189.207 74.4221 180.52C73.1447 171.749 71.5721 157.594 71.2855 139.758C69.2711 141.614 60.9672 148.21 47.1387 145.623C42.9419 144.837 39.7663 142.656 37.6988 139.142C31.0572 127.845 37.6282 105.457 39.8004 98.8651C40.2926 97.3691 41.7366 96.3904 43.2979 96.4867C46.235 96.6642 51.2572 96.9114 53.9898 97.0433C54.7282 97.0788 55.3997 97.4097 55.8793 97.9738C56.3602 98.5392 56.5798 99.2581 56.4978 99.9984L54.5629 117.558C55.8288 116.875 59.5649 114.609 63.5458 109.846C64.7487 108.407 65.9301 106.586 67.1809 104.657C71.0066 98.7611 75.7688 91.422 84.2658 91.0886C91.1422 90.8186 107.949 91.8708 120.838 92.8001C127.011 93.2451 133.02 95.1771 138.212 98.3858C141.676 100.527 147.322 102.803 154.545 101.483C160.191 100.451 164.523 97.6936 167.073 93.5088C170.493 87.8939 170.762 79.7942 167.851 70.0856C167.588 69.2046 167.749 68.2766 168.294 67.5387C168.837 66.8047 169.671 66.3838 170.583 66.3838H181.662C182.98 66.3838 184.16 67.2725 184.532 68.544C185.76 72.7505 188.551 83.7496 187.934 95.0022C187.162 109.101 181.482 118.638 171.051 123.351C157.986 129.253 144.149 129.173 141.854 129.115L147.769 183.394C148.418 189.35 145.501 195.118 140.338 198.093C133.944 201.775 125.971 203.637 116.612 203.637ZM71.5582 138.816C71.5922 138.816 71.6251 138.822 71.6579 138.835C71.7664 138.876 71.8384 138.98 71.8396 139.095C72.0971 157.21 73.69 171.577 74.9799 180.439C76.2144 188.917 81.9661 195.941 89.9911 198.773C97.1578 201.303 105.3 202.735 114.195 203.031C124.503 203.372 133.207 201.547 140.058 197.601C145.026 194.739 147.833 189.187 147.21 183.455L141.26 128.851C141.251 128.769 141.279 128.687 141.334 128.627C141.391 128.566 141.47 128.534 141.554 128.538C141.704 128.547 156.719 129.205 170.821 122.833C181.044 118.215 186.612 108.84 187.372 94.9705C187.983 83.8053 185.213 72.8811 183.992 68.7025C183.691 67.6706 182.733 66.9492 181.663 66.9492H170.584C169.853 66.9492 169.184 67.2877 168.749 67.8759C168.311 68.468 168.181 69.2134 168.393 69.9208C171.351 79.7891 171.062 88.0473 167.555 93.8029C164.918 98.1298 160.455 100.978 154.648 102.04C147.249 103.392 141.467 101.061 137.917 98.8676C132.802 95.7058 126.882 93.8029 120.798 93.3642C107.924 92.435 91.1409 91.3853 84.2898 91.654C76.0844 91.9761 71.6061 98.8777 67.6555 104.967C66.3946 106.909 65.2043 108.745 63.9788 110.21C59.0095 116.156 54.5301 118.221 54.342 118.306C54.2498 118.348 54.1426 118.337 54.0605 118.277C53.9785 118.217 53.9356 118.119 53.9457 118.017L55.9374 99.9363C56.0018 99.3531 55.8288 98.7877 55.4502 98.3415C55.0728 97.8965 54.5439 97.6366 53.9633 97.6087C51.2294 97.4769 46.2047 97.2284 43.2651 97.0509C41.9461 96.966 40.7495 97.79 40.3368 99.0425C38.1835 105.578 31.6643 127.762 38.186 138.854C40.1664 142.221 43.2133 144.312 47.2435 145.066C62.8807 147.995 71.2691 138.999 71.3512 138.909C71.4042 138.848 71.4799 138.816 71.5582 138.816Z" fill="black"/>
<path d="M53.8475 85.3495L52.5525 83.9081V74.2034C52.5525 73.2589 51.7902 72.4932 50.8498 72.4932C49.9095 72.4932 49.1472 73.2589 49.1472 74.2034V84.6535L40.0859 86.6338V91.9685C40.0859 94.2923 41.4302 96.4044 43.5292 97.3806L43.9798 97.5897C46.6973 98.8537 49.8716 98.6179 52.3746 96.966C53.5825 96.1686 54.3814 94.8793 54.5607 93.4391L55.0781 89.2821C55.2586 87.8546 54.808 86.4182 53.8475 85.3495Z" fill="white"/>
<path d="M47.629 98.6863C46.3529 98.6863 45.0705 98.4087 43.8626 97.8471L43.412 97.6379C41.2209 96.6199 39.8047 94.3937 39.8047 91.9685V86.6337C39.8047 86.5006 39.8968 86.3853 40.0268 86.3574L48.8659 84.4253V74.2034C48.8659 73.1042 49.7557 72.2104 50.8501 72.2104C51.9444 72.2104 52.8342 73.1042 52.8342 74.2034V83.799L54.056 85.1593C55.0721 86.2902 55.5479 87.8064 55.3598 89.3189L54.8423 93.4758C54.653 95.001 53.8099 96.36 52.53 97.2043C51.0406 98.1868 49.3405 98.6863 47.629 98.6863ZM40.3689 86.8619V91.9685C40.3689 94.1744 41.6563 96.1977 43.6493 97.1245L44.0999 97.3336C46.748 98.5646 49.7835 98.339 52.222 96.7302C53.3631 95.9771 54.1141 94.7652 54.2845 93.4049L54.8019 89.2479C54.9698 87.899 54.5457 86.5475 53.6395 85.5384L52.3445 84.097C52.2978 84.045 52.2713 83.9778 52.2713 83.9068V74.2021C52.2713 73.4148 51.6339 72.7746 50.8501 72.7746C50.0662 72.7746 49.4288 73.4148 49.4288 74.2021V84.6522C49.4288 84.7853 49.3367 84.9007 49.2067 84.9286L40.3689 86.8619Z" fill="black"/>
<path d="M47.7401 87.3992H46.6319C45.9326 87.3992 45.3672 86.83 45.3672 86.1289V82.2293C45.3672 81.5269 45.9339 80.959 46.6319 80.959H47.4031C48.2879 80.959 49.0061 81.6803 49.0061 82.569V86.1302C49.0048 86.8313 48.4381 87.3992 47.7401 87.3992Z" fill="white"/>
<path d="M47.7416 87.6835H46.6334C45.7801 87.6835 45.0859 86.9862 45.0859 86.1292V82.2296C45.0859 81.3726 45.7801 80.6753 46.6334 80.6753H47.4046C48.4433 80.6753 49.289 81.5247 49.289 82.5681V86.1292C49.289 86.9862 48.5948 87.6835 47.7416 87.6835ZM46.6334 81.242C46.0906 81.242 45.6501 81.6844 45.6501 82.2296V86.1292C45.6501 86.6743 46.0919 87.1168 46.6334 87.1168H47.7416C48.2843 87.1168 48.7248 86.6743 48.7248 86.1292V82.5681C48.7248 81.8366 48.1328 81.242 47.4033 81.242H46.6334Z" fill="black"/>
<path d="M44.1053 88.2007H43.8819C43.1826 88.2007 42.6172 87.6315 42.6172 86.9304V83.1297C42.6172 82.4273 43.1839 81.8594 43.8819 81.8594H44.1053C44.8046 81.8594 45.37 82.4286 45.37 83.1297V86.9304C45.37 87.6315 44.8046 88.2007 44.1053 88.2007Z" fill="white"/>
<path d="M44.1068 88.4845H43.8834C43.0301 88.4845 42.3359 87.7872 42.3359 86.9302V83.1295C42.3359 82.2725 43.0301 81.5752 43.8834 81.5752H44.1068C44.96 81.5752 45.6542 82.2725 45.6542 83.1295V86.9302C45.6542 87.7872 44.96 88.4845 44.1068 88.4845ZM43.8834 82.1406C43.3406 82.1406 42.9001 82.5831 42.9001 83.1282V86.9289C42.9001 87.4741 43.3406 87.9165 43.8834 87.9165H44.1068C44.6495 87.9165 45.09 87.4741 45.09 86.9289V83.1282C45.09 82.5831 44.6495 82.1406 44.1068 82.1406H43.8834Z" fill="black"/>
<path d="M41.3506 89.2024C40.6514 89.2024 40.0859 88.6332 40.0859 87.9321V84.1707C40.0859 83.4683 40.6527 82.9004 41.3506 82.9004C42.0486 82.9004 42.6154 83.4696 42.6154 84.1707V87.9321C42.6154 88.6332 42.0486 89.2024 41.3506 89.2024Z" fill="white"/>
<path d="M41.3521 89.4852C40.4989 89.4852 39.8047 88.788 39.8047 87.931V84.1695C39.8047 83.3125 40.4989 82.6152 41.3521 82.6152C42.2054 82.6152 42.8996 83.3125 42.8996 84.1695V87.931C42.8983 88.788 42.2041 89.4852 41.3521 89.4852ZM41.3521 83.1832C40.8094 83.1832 40.3689 83.6256 40.3689 84.1708V87.9322C40.3689 88.4774 40.8106 88.9198 41.3521 88.9198C41.8949 88.9198 42.3354 88.4774 42.3354 87.9322V84.1708C42.3354 83.6256 41.8936 83.1832 41.3521 83.1832Z" fill="black"/>
<path d="M53.4169 87.6836C53.3601 87.6836 53.302 87.6659 53.2528 87.6304L49.383 84.8337C49.2567 84.7424 49.2277 84.5649 49.3186 84.4382C49.4095 84.3114 49.5862 84.2822 49.7124 84.3735L53.5822 87.1702C53.7085 87.2615 53.7375 87.439 53.6466 87.5657C53.5911 87.6418 53.504 87.6836 53.4169 87.6836Z" fill="black"/>
<path d="M46.5385 94.2582C46.3883 94.2582 46.2634 94.139 46.2571 93.9881C46.1157 90.8137 48.1339 89.518 49.0402 89.0984L47.542 87.6012C47.4322 87.4909 47.4309 87.3108 47.5407 87.2005C47.6505 87.0903 47.8285 87.089 47.9395 87.1993L49.7419 89.002C49.8126 89.073 49.8417 89.177 49.8152 89.2746C49.7899 89.3722 49.7142 89.4483 49.6183 89.4762C49.4983 89.5104 46.6584 90.3598 46.8187 93.9628C46.825 94.1187 46.7051 94.2518 46.5499 94.2582C46.5474 94.2582 46.5436 94.2582 46.5385 94.2582Z" fill="black"/>
<path d="M88.3244 210.404C88.3244 210.404 84.8483 166.273 94.8839 152.195L127.603 150.813C127.603 150.813 139.481 165.859 138.194 210.115L88.3244 210.404Z" fill="#157B6C"/>
<path d="M86.0274 91.2963L81.818 150.965C81.6274 153.66 83.498 156.066 86.1498 156.525C94.5699 157.983 113.207 160.224 132.095 155.923C134.226 155.437 135.591 153.345 135.152 151.195L123.341 93.35C123.341 93.3488 102.043 90.3252 86.0274 91.2963Z" fill="white"/>
<path d="M108.428 158.721C99.1778 158.721 91.2387 157.693 86.1029 156.804C83.2983 156.318 81.3369 153.799 81.5375 150.944L85.7469 91.2759C85.757 91.1339 85.8693 91.0224 86.0107 91.0135C101.87 90.05 123.167 93.0394 123.38 93.0698C123.498 93.0863 123.592 93.1763 123.616 93.2929L135.426 151.138C135.899 153.451 134.462 155.674 132.156 156.199C123.923 158.074 115.763 158.721 108.428 158.721ZM86.2909 91.5637L82.0992 150.984C81.9187 153.548 83.6807 155.81 86.1975 156.246C95.3648 157.833 113.51 159.866 132.031 155.646C134.036 155.19 135.284 153.259 134.875 151.252L123.104 93.6035C120.926 93.3043 101.25 90.6991 86.2909 91.5637Z" fill="black"/>
<path d="M98.0156 149.707C97.8957 149.707 97.7834 149.628 97.7468 149.508C97.7013 149.358 97.7847 149.2 97.9323 149.154C114.387 144.044 122.194 125.082 122.271 124.892C122.329 124.747 122.494 124.678 122.638 124.736C122.782 124.794 122.853 124.959 122.794 125.105C122.715 125.299 114.806 144.508 98.0989 149.697C98.0712 149.703 98.0434 149.707 98.0156 149.707Z" fill="black"/>
<path d="M113.534 70.7514C112.559 69.5762 111.902 68.1677 111.622 66.6654C111.123 63.9879 110.58 61.6172 110.58 61.6172C106.598 64.9336 102.111 62.6517 102.111 62.6517C98.3636 65.5777 99.0414 69.6966 99.0414 69.6966C99.0414 69.6966 95.5552 69.3125 95.8001 71.5729C96.0425 73.8156 99.4036 74.3785 99.4541 74.3861L95.3609 90.9886C95.1046 92.0269 95.7496 93.0804 96.7909 93.3086C103.093 94.6905 107.044 94.172 109.04 93.637C109.624 93.4811 109.802 92.7559 109.371 92.3299C107.174 90.1494 106.803 83.9183 106.81 79.8273C108.844 80.2824 110.719 79.8767 111.651 77.9979C112.316 76.6554 112.494 75.2431 112.415 73.1221C112.402 72.7494 113.776 71.1824 113.534 70.7514Z" fill="white"/>
<path d="M104.237 94.481C102.222 94.481 99.7394 94.2439 96.7316 93.5847C96.156 93.4579 95.6663 93.1105 95.3545 92.6059C95.0403 92.0988 94.9456 91.4992 95.0882 90.9198L99.1108 74.605C98.2323 74.406 95.742 73.6605 95.5211 71.603C95.4568 71.0097 95.6133 70.519 95.9844 70.1463C96.7126 69.4161 98.0846 69.3692 98.7271 69.392C98.6476 68.3055 98.7006 64.9561 101.941 62.4269C102.026 62.3597 102.144 62.3483 102.241 62.3978C102.284 62.4206 106.616 64.553 110.404 61.3988C110.479 61.3354 110.582 61.3164 110.674 61.3481C110.766 61.3798 110.836 61.4571 110.858 61.5534C110.863 61.5775 111.407 63.9596 111.902 66.6118C112.173 68.0647 112.813 69.4338 113.753 70.5697C113.765 70.5824 113.774 70.5964 113.782 70.6116C113.993 70.9868 113.679 71.5269 113.134 72.3712C112.958 72.6425 112.718 73.0153 112.699 73.1268C112.784 75.3948 112.562 76.7995 111.907 78.1231C111.049 79.8548 109.347 80.5749 107.097 80.1718C107.109 83.8888 107.466 90.0387 109.573 92.128C109.851 92.4044 109.958 92.7923 109.86 93.1663C109.762 93.5327 109.485 93.8116 109.117 93.9092C107.965 94.2185 106.361 94.481 104.237 94.481ZM98.4835 69.9549C97.8726 69.9549 96.8868 70.0411 96.3832 70.5469C96.1358 70.7967 96.0374 71.1212 96.0828 71.5421C96.3012 73.5642 99.4693 74.1017 99.5021 74.1068C99.5803 74.1195 99.6485 74.1638 99.6927 74.2298C99.7356 74.2957 99.7507 74.3768 99.7318 74.4542L95.6385 91.0567C95.5325 91.4865 95.6032 91.9315 95.8354 92.308C96.0664 92.682 96.4287 92.9394 96.854 93.0319C103.243 94.4328 107.188 93.8407 108.971 93.3628C109.144 93.3159 109.269 93.1916 109.314 93.0205C109.361 92.8443 109.309 92.6617 109.177 92.5299C106.974 90.3443 106.522 84.415 106.532 79.8244C106.532 79.7382 106.572 79.657 106.638 79.6038C106.705 79.5506 106.792 79.5303 106.876 79.5493C108.393 79.889 110.41 79.8738 111.403 77.8708C112.013 76.6398 112.219 75.3112 112.138 73.1319C112.129 72.8999 112.312 72.6058 112.662 72.0632C112.881 71.7221 113.285 71.0959 113.286 70.888C112.303 69.6874 111.634 68.2459 111.349 66.7158C110.982 64.7444 110.587 62.9226 110.409 62.1163C106.862 64.7685 103 63.3435 102.158 62.9797C98.7309 65.7624 99.3191 69.6113 99.3254 69.6494C99.3393 69.7368 99.3127 69.8256 99.2522 69.8902C99.1916 69.9549 99.1045 69.9878 99.0174 69.9777C99.0073 69.9777 98.7927 69.9549 98.4835 69.9549Z" fill="black"/>
<path d="M106.814 80.1099C106.798 80.1099 106.78 80.1086 106.762 80.1048C105.153 79.8056 102.943 78.3008 102.85 78.2374C102.721 78.1486 102.688 77.9724 102.775 77.8444C102.864 77.7151 103.038 77.6821 103.166 77.7696C103.188 77.7848 105.372 79.2706 106.863 79.5482C107.016 79.5761 107.117 79.7245 107.089 79.8779C107.065 80.0148 106.947 80.1099 106.814 80.1099Z" fill="black"/>
<path d="M34.227 88.7508H13.1637C11.0231 88.7508 9.28125 87.0013 9.28125 84.8512V40.0777C9.28125 37.9276 11.0231 36.1781 13.1637 36.1781H26.6388C26.794 36.1781 26.9203 36.3049 26.9203 36.4608C26.9203 36.6167 26.794 36.7435 26.6388 36.7435H13.1637C11.3336 36.7435 9.84418 38.2395 9.84418 40.0777V84.8512C9.84418 86.6894 11.3336 88.1854 13.1637 88.1854H34.227C34.3823 88.1854 34.5085 88.3122 34.5085 88.4681C34.5085 88.6241 34.3835 88.7508 34.227 88.7508Z" fill="black"/>
<path d="M81.4705 88.7511H59.6487C59.4934 88.7511 59.3672 88.6243 59.3672 88.4684C59.3672 88.3124 59.4934 88.1856 59.6487 88.1856H81.4705C83.3007 88.1856 84.7901 86.6897 84.7901 84.8514V78.0043C84.7901 77.8483 84.9163 77.7216 85.0716 77.7216C85.2268 77.7216 85.353 77.8483 85.353 78.0043V84.8514C85.3543 87.0016 83.6125 88.7511 81.4705 88.7511Z" fill="black"/>
<path d="M85.0715 78.2867C84.9163 78.2867 84.7901 78.16 84.7901 78.004V40.0777C84.7901 38.2395 83.3007 36.7435 81.4705 36.7435H59.6487C59.4934 36.7435 59.3672 36.6167 59.3672 36.4608C59.3672 36.3049 59.4934 36.1781 59.6487 36.1781H81.4705C83.6112 36.1781 85.353 37.9276 85.353 40.0777V78.0028C85.3543 78.16 85.2281 78.2867 85.0715 78.2867Z" fill="white"/>
<path d="M59.65 36.745H35.719C35.5637 36.745 35.4375 36.6182 35.4375 36.4623C35.4375 36.3063 35.5637 36.1796 35.719 36.1796H59.6487C59.8039 36.1796 59.9302 36.3063 59.9302 36.4623C59.9302 36.6182 59.8052 36.745 59.65 36.745Z" fill="black"/>
<path d="M69.9758 81.6415H61.0471C60.8918 81.6415 60.7656 81.5147 60.7656 81.3588C60.7656 81.2028 60.8918 81.076 61.0471 81.076H69.9758C70.131 81.076 70.2572 81.2028 70.2572 81.3588C70.2585 81.5147 70.1323 81.6415 69.9758 81.6415Z" fill="black"/>
<path d="M38.8532 81.6412H20.7737C20.6184 81.6412 20.4922 81.5144 20.4922 81.3585C20.4922 81.2026 20.6184 81.0758 20.7737 81.0758H38.8532C39.0084 81.0758 39.1346 81.2026 39.1346 81.3585C39.1346 81.5144 39.0084 81.6412 38.8532 81.6412Z" fill="black"/>
<path d="M49.9353 73.2039H22.469C22.3137 73.2039 22.1875 73.0771 22.1875 72.9212V44.4612C22.1875 44.3459 22.2569 44.2419 22.3629 44.1988C22.469 44.1557 22.5914 44.1811 22.6709 44.2635L50.1373 72.7221C50.2155 72.8046 50.2383 72.925 50.1941 73.0302C50.1512 73.1354 50.0489 73.2039 49.9353 73.2039ZM22.7517 72.6372H49.2702L22.7517 45.1598V72.6372Z" fill="black"/>
<path d="M25.0575 72.921C25.0575 74.3586 23.8976 75.5237 22.4663 75.5237C21.0349 75.5237 19.875 74.3586 19.875 72.921C19.875 71.4833 21.0349 70.3182 22.4663 70.3182C23.8963 70.317 25.0575 71.482 25.0575 72.921Z" fill="black"/>
<path d="M52.5263 72.921C52.5263 74.3586 51.3663 75.5237 49.935 75.5237C48.5037 75.5237 47.3438 74.3586 47.3438 72.921C47.3438 71.4833 48.5037 70.3182 49.935 70.3182C51.3651 70.317 52.5263 71.482 52.5263 72.921Z" fill="black"/>
<path d="M22.7833 47.0439C24.2036 46.8682 25.2133 45.5693 25.0384 44.1426C24.8635 42.716 23.5703 41.7019 22.15 41.8775C20.7296 42.0532 19.7199 43.3521 19.8948 44.7787C20.0697 46.2054 21.3629 47.2195 22.7833 47.0439Z" fill="black"/>
<path d="M60.5389 207.445H29.6621C25.8806 207.445 22.8047 204.355 22.8047 200.557V157.209C22.8047 153.41 25.8806 150.321 29.6621 150.321H60.5389C64.3204 150.321 67.3964 153.41 67.3964 157.209V200.557C67.3964 204.355 64.3204 207.445 60.5389 207.445ZM29.6621 150.887C26.1924 150.887 23.3689 153.723 23.3689 157.209V200.557C23.3689 204.042 26.1924 206.878 29.6621 206.878H60.5389C64.0087 206.878 66.8322 204.042 66.8322 200.557V157.209C66.8322 153.723 64.0087 150.887 60.5389 150.887H29.6621Z" fill="black"/>
<path d="M37.9116 166.767H28.3203V198.423H37.9116V166.767Z" fill="#157B6C"/>
<path d="M49.896 158.031H40.3047V198.423H49.896V158.031Z" fill="#157B6C"/>
<path d="M61.8804 179.551H52.2891V198.425H61.8804V179.551Z" fill="#157B6C"/>
<path d="M184.68 125.985C184.608 125.985 184.536 125.957 184.481 125.902C184.371 125.792 184.371 125.612 184.481 125.502L208.384 101.493C208.494 101.383 208.673 101.383 208.783 101.493C208.893 101.603 208.893 101.783 208.783 101.893L184.88 125.902C184.824 125.957 184.752 125.985 184.68 125.985Z" fill="black"/>
<path d="M159.133 151.642C159.061 151.642 158.989 151.614 158.934 151.559C158.824 151.449 158.824 151.269 158.934 151.159L174.421 135.603C174.531 135.493 174.71 135.493 174.82 135.603C174.93 135.714 174.93 135.894 174.82 136.004L159.333 151.559C159.277 151.614 159.205 151.642 159.133 151.642Z" fill="black"/>
<path d="M198.633 99.5141C198.561 99.5141 198.489 99.4862 198.434 99.4317C198.324 99.3214 198.324 99.1414 198.434 99.0311L208.581 88.8396C210.488 86.924 210.488 83.8053 208.581 81.8897C207.551 80.8552 206.983 79.4784 206.983 78.0142C206.983 76.5499 207.551 75.1744 208.581 74.1386L222.516 60.1413C222.626 60.031 222.805 60.031 222.915 60.1413C223.025 60.2516 223.025 60.4316 222.915 60.5419L208.979 74.5393C208.056 75.4673 207.547 76.7021 207.547 78.0142C207.547 79.3263 208.056 80.5611 208.979 81.4891C211.107 83.6266 211.107 87.1028 208.979 89.2402L198.833 99.4317C198.777 99.4862 198.705 99.5141 198.633 99.5141Z" fill="black"/>
<path d="M134.946 85.427C134.874 85.427 134.802 85.3991 134.746 85.3446C134.637 85.2343 134.637 85.0542 134.746 84.944L158.751 60.8337C158.86 60.7234 159.04 60.7234 159.149 60.8337C159.259 60.944 159.259 61.124 159.149 61.2343L135.145 85.3446C135.09 85.3991 135.018 85.427 134.946 85.427Z" fill="black"/>
<path d="M97.0865 27.7259C97.0145 27.7259 96.9426 27.698 96.887 27.6435C96.7772 27.5332 96.7772 27.3531 96.887 27.2429L116.334 7.71175C116.443 7.60145 116.623 7.60145 116.732 7.71175C116.842 7.82204 116.842 8.00207 116.732 8.11236L97.2859 27.6435C97.2316 27.698 97.1584 27.7259 97.0865 27.7259Z" fill="black"/>
<path d="M193.59 107.331C191.951 107.331 190.617 105.994 190.617 104.351C190.617 102.708 191.95 101.37 193.59 101.37C193.745 101.37 193.871 101.497 193.871 101.653C193.871 101.809 193.745 101.936 193.59 101.936C192.262 101.936 191.181 103.019 191.181 104.351C191.181 105.682 192.262 106.766 193.59 106.766C194.917 106.766 195.998 105.682 195.998 104.351C195.998 104.195 196.124 104.068 196.279 104.068C196.435 104.068 196.561 104.195 196.561 104.351C196.562 105.995 195.228 107.331 193.59 107.331Z" fill="black"/>
<path d="M155.104 80.5974C155.032 80.5974 154.96 80.5695 154.904 80.515L153.676 79.2802C153.566 79.1699 153.566 78.9899 153.676 78.8796C153.786 78.7693 153.965 78.7693 154.075 78.8796L155.303 80.1144C155.413 80.2247 155.413 80.4047 155.303 80.515C155.248 80.5695 155.176 80.5974 155.104 80.5974Z" fill="black"/>
<path d="M159.401 84.9192C159.329 84.9192 159.257 84.8913 159.201 84.8368L157.973 83.602C157.863 83.4917 157.863 83.3117 157.973 83.2014C158.083 83.0911 158.262 83.0911 158.372 83.2014L159.6 84.4362C159.71 84.5465 159.71 84.7265 159.6 84.8368C159.546 84.8926 159.474 84.9192 159.401 84.9192Z" fill="black"/>
<path d="M153.876 84.9192C153.804 84.9192 153.732 84.8913 153.676 84.8368C153.566 84.7265 153.566 84.5465 153.676 84.4362L154.904 83.2014C155.014 83.0911 155.192 83.0911 155.303 83.2014C155.413 83.3117 155.413 83.4917 155.303 83.602L154.075 84.8368C154.019 84.8926 153.947 84.9192 153.876 84.9192Z" fill="black"/>
<path d="M158.172 80.5974C158.1 80.5974 158.029 80.5695 157.973 80.515C157.863 80.4047 157.863 80.2247 157.973 80.1144L159.201 78.8796C159.311 78.7693 159.489 78.7693 159.6 78.8796C159.71 78.9899 159.71 79.1699 159.6 79.2802L158.372 80.515C158.318 80.5695 158.246 80.5974 158.172 80.5974Z" fill="black"/>
<path d="M111.626 19.5082C111.554 19.5082 111.482 19.4803 111.426 19.4258C111.316 19.3155 111.316 19.1355 111.426 19.0252L126.032 4.35469C126.142 4.2444 126.321 4.2444 126.431 4.35469C126.541 4.46499 126.541 4.64501 126.431 4.75531L111.825 19.4246C111.769 19.4803 111.697 19.5082 111.626 19.5082Z" fill="black"/>
</g>
<defs>
<clipPath id="clip0_8_1653">
<rect width="223" height="232" fill="white"/>
</clipPath>
</defs>
</svg>
