<svg width="228" height="228" viewBox="0 0 228 228" fill="none" xmlns="http://www.w3.org/2000/svg">
<g clip-path="url(#clip0_8_2585)">
<path d="M150.191 122.317L106.937 122.591C106.657 122.591 106.564 122.854 106.564 123.106V160.267C106.564 163.825 81.9877 173.068 81.7484 172.599L81.7188 176.531C81.7175 177.263 82.3542 177.912 83.1673 177.912H83.7078C83.7115 177.912 83.7152 177.912 83.7189 177.912H119.985C121.668 177.912 123.33 177.532 124.854 176.888L144.793 168.41C148.382 166.884 150.647 163.606 150.647 160.03V122.831C150.648 122.579 150.471 122.317 150.191 122.317Z" fill="#157B6C"/>
<path d="M102.18 120.425V157.593C102.18 161.257 99.8442 164.595 96.1759 166.177L82.7243 171.974C81.8457 172.353 82.1456 173.542 83.1191 173.542H120.077C121.739 173.542 123.38 173.21 124.883 172.571L139.787 166.236C143.484 164.665 145.842 161.312 145.842 157.63V120.425C145.842 120.273 145.705 120.15 145.536 120.15H102.486C102.317 120.15 102.18 120.273 102.18 120.425Z" fill="white"/>
<path d="M120.079 173.82H83.1206C82.4382 173.82 82.0409 173.367 81.9509 172.919C81.8497 172.417 82.1174 171.935 82.6184 171.718L96.0701 165.921C99.6162 164.392 101.908 161.124 101.908 157.593V120.425C101.908 120.12 102.168 119.872 102.489 119.872H145.539C145.859 119.872 146.12 120.12 146.12 120.425V157.63C146.12 161.407 143.677 164.885 139.896 166.492L124.993 172.828C123.466 173.477 121.767 173.82 120.079 173.82ZM102.457 120.436V157.594C102.457 161.348 100.035 164.818 96.2848 166.434L82.8331 172.231C82.5678 172.346 82.4382 172.561 82.4888 172.809C82.532 173.02 82.722 173.265 83.1193 173.265H120.078C121.693 173.265 123.318 172.938 124.777 172.317L139.68 165.98C143.256 164.46 145.567 161.182 145.567 157.632V120.429C145.564 120.434 145.555 120.428 145.536 120.428H102.486C102.471 120.428 102.462 120.433 102.457 120.436Z" fill="black"/>
<path d="M21.3281 141.726L207.766 142.149C209.399 142.149 211.025 140.91 211.232 139.273L226.381 21.4756C226.742 18.6213 224.553 15.7819 221.741 15.8529L37.466 16.8359L21.3281 141.726Z" fill="#157B6C"/>
<path d="M214.42 16.522C217.628 16.522 220.524 19.8049 220.113 23.0256L205.405 138.985C205.197 140.622 203.461 142.009 201.83 142.009L18.692 141.709C16.7363 141.709 15.4296 140.069 15.6789 138.106L30.911 19.9968C31.1196 18.3597 32.1918 16.5232 33.823 16.5232H214.42V16.522Z" fill="white"/>
<path d="M201.831 142.287L18.6918 141.987C17.7047 141.987 16.82 141.597 16.2043 140.889C15.5627 140.153 15.2728 139.126 15.4073 138.071L30.6394 19.9594C30.8689 18.1578 32.0633 16.2441 33.824 16.2441H214.421C216.04 16.2441 217.653 17.0303 218.847 18.4008C220.03 19.7588 220.592 21.4582 220.387 23.0605L205.679 139.02C205.457 140.761 203.659 142.287 201.831 142.287ZM33.824 16.7998C32.3779 16.7998 31.3847 18.4643 31.1848 20.0304L15.9526 138.141C15.8366 139.05 16.0723 139.896 16.6177 140.52C17.1285 141.107 17.8651 141.43 18.6931 141.43L201.832 141.73C203.374 141.73 204.949 140.404 205.134 138.949L219.842 22.9895C220.025 21.5442 219.513 20.0055 218.434 18.7671C217.344 17.5162 215.882 16.7986 214.421 16.7986H33.824V16.7998Z" fill="black"/>
<path d="M197.521 137.008L24.4874 136.731C23.5731 136.731 22.7538 136.37 22.1825 135.713C21.589 135.032 21.32 134.08 21.4434 133.103L35.4565 24.4443C35.6688 22.7785 36.7755 21.0068 38.408 21.0068H209.104C210.6 21.0068 212.09 21.7332 213.193 22.999C214.287 24.2537 214.805 25.8222 214.616 27.3036L201.084 133.984C200.878 135.595 199.214 137.008 197.521 137.008ZM38.408 21.5638C37.0902 21.5638 36.1845 23.085 36.0019 24.5165L21.9888 133.175C21.8827 134.006 22.0986 134.778 22.5946 135.347C23.0598 135.881 23.7323 136.177 24.4874 136.177L197.521 136.453C198.93 136.453 200.367 135.244 200.536 133.914L214.068 27.2339C214.237 25.9107 213.767 24.5016 212.779 23.3666C211.781 22.2203 210.441 21.5638 209.103 21.5638H38.408Z" fill="black"/>
<path d="M190.917 36.2869H120.58C120.501 36.2869 120.426 36.252 120.373 36.1922C120.321 36.1324 120.296 36.0514 120.307 35.9717L120.781 32.4109C120.8 32.2726 120.916 32.1704 121.054 32.1704H191.391C191.47 32.1704 191.545 32.2053 191.598 32.2651C191.65 32.3249 191.675 32.4059 191.663 32.4856L191.19 36.0464C191.171 36.1847 191.055 36.2869 190.917 36.2869ZM120.895 35.7312H190.676L191.076 32.7261H121.294L120.895 35.7312Z" fill="black"/>
<path d="M206.093 41.8796H134.43L134.903 38.3188H206.567L206.093 41.8796Z" fill="#157B6C"/>
<path d="M196.668 48.0282H159.627C159.548 48.0282 159.473 47.9933 159.42 47.9335C159.368 47.8737 159.343 47.7927 159.354 47.713L159.828 44.1522C159.846 44.0139 159.962 43.9117 160.101 43.9117H197.142C197.221 43.9117 197.296 43.9466 197.349 44.0064C197.401 44.0662 197.425 44.1472 197.414 44.227L196.94 47.7877C196.923 47.9248 196.806 48.0282 196.668 48.0282ZM159.942 47.4725H196.427L196.827 44.4674H160.341L159.942 47.4725Z" fill="black"/>
<path d="M184.659 83.2512H114.322C114.243 83.2512 114.168 83.2163 114.115 83.1565C114.063 83.0967 114.038 83.0158 114.049 82.936L114.523 79.3752C114.542 79.2369 114.658 79.1348 114.796 79.1348H185.133C185.212 79.1348 185.287 79.1697 185.34 79.2295C185.392 79.2893 185.417 79.3702 185.406 79.45L184.932 83.0108C184.913 83.1478 184.797 83.2512 184.659 83.2512ZM114.638 82.6956H184.419L184.818 79.6904H115.038L114.638 82.6956Z" fill="black"/>
<path d="M146.6 89.1204H128.174C128.095 89.1204 128.02 89.0855 127.966 89.0257C127.915 88.9659 127.89 88.8849 127.901 88.8052L128.375 85.2444C128.393 85.1061 128.509 85.0039 128.648 85.0039H145.316C145.468 85.0039 145.591 85.1285 145.591 85.2817C145.591 85.435 145.468 85.5596 145.316 85.5596H128.888L128.488 88.5647H146.6C146.752 88.5647 146.876 88.6893 146.876 88.8425C146.876 88.997 146.752 89.1204 146.6 89.1204Z" fill="black"/>
<path d="M199.842 89.1204H155.578C155.426 89.1204 155.303 88.9958 155.303 88.8425C155.303 88.6893 155.426 88.5647 155.578 88.5647H199.6L200 85.5596H153.189C153.037 85.5596 152.914 85.435 152.914 85.2817C152.914 85.1285 153.037 85.0039 153.189 85.0039H200.316C200.395 85.0039 200.47 85.0388 200.523 85.0986C200.575 85.1584 200.6 85.2394 200.588 85.3191L200.115 88.8799C200.096 89.0182 199.979 89.1204 199.842 89.1204Z" fill="black"/>
<path d="M199.055 94.9912H160.773C160.621 94.9912 160.498 94.8666 160.498 94.7134C160.498 94.5601 160.621 94.4355 160.773 94.4355H198.815L199.215 91.4304H158.666C158.514 91.4304 158.391 91.3058 158.391 91.1526C158.391 90.9993 158.514 90.8748 158.666 90.8748H199.529C199.608 90.8748 199.683 90.9096 199.736 90.9694C199.788 91.0292 199.813 91.1102 199.802 91.19L199.328 94.7508C199.31 94.889 199.194 94.9912 199.055 94.9912Z" fill="black"/>
<path d="M152.482 100.617H126.377C126.298 100.617 126.223 100.583 126.17 100.523C126.118 100.463 126.093 100.382 126.104 100.302L126.578 96.7414C126.596 96.6031 126.712 96.501 126.851 96.501H148.336C148.488 96.501 148.611 96.6256 148.611 96.7788C148.611 96.9321 148.488 97.0567 148.336 97.0567H127.091L126.691 100.062H152.482C152.634 100.062 152.757 100.186 152.757 100.34C152.757 100.493 152.634 100.617 152.482 100.617Z" fill="black"/>
<path d="M188.57 53.6213H118.234L118.708 50.0605H189.045L188.57 53.6213Z" fill="#157B6C"/>
<path d="M193.495 59.4914H132.086L132.56 55.9307H193.588L193.495 59.4914Z" fill="#157B6C"/>
<path d="M184.902 71.51H156.502C156.423 71.51 156.348 71.4751 156.295 71.4153C156.243 71.3555 156.218 71.2745 156.229 71.1948L156.703 67.634C156.722 67.4957 156.837 67.3936 156.976 67.3936H185.376C185.455 67.3936 185.53 67.4284 185.583 67.4882C185.635 67.548 185.66 67.629 185.648 67.7088L185.175 71.2696C185.156 71.4066 185.04 71.51 184.902 71.51ZM156.817 70.9543H184.661L185.061 67.9492H157.218L156.817 70.9543Z" fill="black"/>
<path d="M192.611 77.0976H164.211L164.685 73.5381H193.085L192.611 77.0976Z" fill="#157B6C"/>
<path d="M191.242 65.3613H157.281L157.755 61.8018H191.383L191.242 65.3613Z" fill="#157B6C"/>
<path d="M181.531 106.455H111.195L111.669 102.894H182.005L181.531 106.455Z" fill="white"/>
<path d="M162.18 112.602H125.049C124.97 112.602 124.895 112.567 124.841 112.507C124.79 112.448 124.765 112.367 124.776 112.287L125.25 108.726C125.268 108.588 125.384 108.486 125.523 108.486H160.915C161.067 108.486 161.19 108.61 161.19 108.763C161.19 108.917 161.067 109.041 160.915 109.041H125.763L125.363 112.046H162.18C162.331 112.046 162.455 112.171 162.455 112.324C162.455 112.479 162.331 112.602 162.18 112.602Z" fill="black"/>
<path d="M181.716 118.473H150.252C150.173 118.473 150.098 118.438 150.045 118.378C149.993 118.318 149.968 118.237 149.979 118.158L150.453 114.597C150.471 114.459 150.587 114.356 150.726 114.356H180.592C180.743 114.356 180.867 114.481 180.867 114.634C180.867 114.788 180.743 114.912 180.592 114.912H150.966L150.567 117.917H181.716C181.867 117.917 181.991 118.042 181.991 118.195C181.991 118.348 181.867 118.473 181.716 118.473Z" fill="black"/>
<path d="M179.188 124.066H108.852L109.325 120.505H179.662L179.188 124.066Z" fill="white"/>
<path d="M181.432 130.214H122.705C122.626 130.214 122.551 130.179 122.498 130.119C122.446 130.06 122.421 129.979 122.432 129.899L122.906 126.338C122.925 126.2 123.041 126.098 123.179 126.098H181.714C181.865 126.098 181.989 126.222 181.989 126.375C181.989 126.529 181.865 126.653 181.714 126.653H123.421L123.021 129.658H181.434C181.585 129.658 181.709 129.783 181.709 129.936C181.708 130.09 181.585 130.214 181.432 130.214Z" fill="black"/>
<path d="M109.258 77.0335H102.406L102.862 73.6123H109.713L109.258 77.0335Z" fill="#157B6C"/>
<path d="M114.978 36.0105H107.836L108.31 32.4497H115.451L114.978 36.0105Z" fill="#157B6C"/>
<path d="M115.689 30.6145H108.547L109.022 27.0537H116.162L115.689 30.6145Z" fill="#157B6C"/>
<path d="M114.141 41.8811H107.055L107.528 38.3203H114.615L114.141 41.8811Z" fill="#157B6C"/>
<path d="M113.116 47.7522H106.391L106.864 44.1914H113.59L113.116 47.7522Z" fill="#157B6C"/>
<path d="M112.37 53.6211H105.523L105.997 50.0615H112.844L112.37 53.6211Z" fill="#157B6C"/>
<path d="M111.55 59.4919H104.703L105.178 55.9312H112.024L111.55 59.4919Z" fill="#157B6C"/>
<path d="M110.191 70.9966H103.406L103.881 67.437H110.665L110.191 70.9966Z" fill="#157B6C"/>
<path d="M110.799 65.1272H104.312L104.786 61.5664H111.273L110.799 65.1272Z" fill="#157B6C"/>
<path d="M106.883 94.8643H100.031L100.487 91.4443H107.338L106.883 94.8643Z" fill="#157B6C"/>
<path d="M107.816 88.8293H101.031L101.505 85.2686H108.29L107.816 88.8293Z" fill="#157B6C"/>
<path d="M108.432 82.9582H101.945L102.419 79.3975H108.906L108.432 82.9582Z" fill="#157B6C"/>
<path d="M102.258 129.589H95.4062L95.8615 126.169H102.713L102.258 129.589Z" fill="#157B6C"/>
<path d="M106.116 100.308H99.3906L99.8657 96.7471H106.592L106.116 100.308Z" fill="#157B6C"/>
<path d="M105.369 106.178H98.5234L98.9972 102.618H105.844L105.369 106.178Z" fill="#157B6C"/>
<path d="M104.558 112.049H97.7109L98.1847 108.488H105.032L104.558 112.049Z" fill="#157B6C"/>
<path d="M103.191 123.554H96.4062L96.8801 119.993H103.665L103.191 123.554Z" fill="#157B6C"/>
<path d="M103.807 117.683H97.3203L97.7941 114.124H104.281L103.807 117.683Z" fill="#157B6C"/>
<path d="M78.6622 29.8343H44.8047L45.26 26.4131H79.1175L78.6622 29.8343Z" fill="#157B6C"/>
<path d="M84.6057 36.053H48.9159C48.837 36.053 48.7605 36.0181 48.7086 35.9583C48.6568 35.8985 48.6321 35.8175 48.6432 35.7378L49.1171 32.177C49.1356 32.0387 49.2515 31.9365 49.3897 31.9365H85.0795C85.1585 31.9365 85.235 31.9714 85.2868 32.0312C85.3386 32.091 85.3633 32.172 85.3522 32.2517L84.8784 35.8125C84.8599 35.9496 84.7427 36.053 84.6057 36.053ZM49.2306 35.4973H84.3651L84.7649 32.4922H49.6303L49.2306 35.4973Z" fill="black"/>
<path d="M93.9415 41.9231H52.3612C52.2823 41.9231 52.2058 41.8882 52.154 41.8284C52.1021 41.7686 52.0775 41.6876 52.0886 41.6079L52.5624 38.0471C52.5809 37.9088 52.6969 37.8066 52.835 37.8066H94.4153C94.4943 37.8066 94.5708 37.8415 94.6226 37.9013C94.6744 37.9611 94.6991 38.0421 94.688 38.1219L94.2142 41.6826C94.1957 41.8197 94.0785 41.9231 93.9415 41.9231ZM52.6759 41.3674H93.7009L94.1007 38.3623H53.0757L52.6759 41.3674Z" fill="black"/>
<path d="M99.2699 47.7927H64.5722C64.4932 47.7927 64.4167 47.7578 64.3649 47.698C64.3131 47.6382 64.2884 47.5573 64.2995 47.4775L64.7733 43.9167C64.7918 43.7784 64.9078 43.6763 65.046 43.6763H99.745C99.8239 43.6763 99.9004 43.7112 99.9522 43.771C100.004 43.8308 100.029 43.9117 100.018 43.9915L99.5438 47.5523C99.5241 47.6906 99.4081 47.7927 99.2699 47.7927ZM64.8868 47.2371H99.0305L99.4303 44.2319H65.2866L64.8868 47.2371Z" fill="black"/>
<path d="M65.9709 76.7974H38.5469L39.0022 73.3774H66.4262L65.9709 76.7974Z" fill="#157B6C"/>
<path d="M66.3998 83.0159H46.3456C46.2666 83.0159 46.1901 82.981 46.1383 82.9212C46.0865 82.8614 46.0618 82.7804 46.0729 82.7007L46.5467 79.1399C46.5652 79.0016 46.6812 78.8994 46.8194 78.8994H66.8736C66.9525 78.8994 67.029 78.9343 67.0809 78.9941C67.1327 79.0539 67.1574 79.1349 67.1462 79.2146L66.6724 82.7754C66.6539 82.9125 66.5379 83.0159 66.3998 83.0159ZM46.6603 82.4602H66.1591L66.5589 79.4551H47.06L46.6603 82.4602Z" fill="black"/>
<path d="M73.5825 88.886H54.3847C54.3057 88.886 54.2292 88.8511 54.1774 88.7913C54.1256 88.7315 54.1009 88.6505 54.112 88.5708L54.5858 85.01C54.6043 84.8717 54.7203 84.7695 54.8585 84.7695H74.0563C74.1353 84.7695 74.2118 84.8044 74.2636 84.8642C74.3154 84.924 74.3401 85.005 74.329 85.0847L73.8552 88.6455C73.8367 88.7826 73.7207 88.886 73.5825 88.886ZM54.6993 88.3303H73.3419L73.7417 85.3252H55.0991L54.6993 88.3303Z" fill="black"/>
<path d="M86.2878 94.7561H61.9941C61.9151 94.7561 61.8386 94.7212 61.7868 94.6614C61.7349 94.6016 61.7103 94.5206 61.7214 94.4409L62.1952 90.8801C62.2137 90.7418 62.3297 90.6396 62.4679 90.6396H86.7616C86.8406 90.6396 86.9171 90.6745 86.9689 90.7343C87.0207 90.7941 87.0454 90.8751 87.0343 90.9549L86.5605 94.5156C86.542 94.6539 86.426 94.7561 86.2878 94.7561ZM62.3087 94.2004H86.0472L86.447 91.1953H62.7085L62.3087 94.2004Z" fill="black"/>
<path d="M66.6223 53.386H42.1016L42.5766 49.8252H67.0961L66.6223 53.386Z" fill="#157B6C"/>
<path d="M97.1001 59.5344H59.2128C59.1338 59.5344 59.0573 59.4995 59.0055 59.4397C58.9537 59.3799 58.929 59.299 58.9401 59.2192L59.4139 55.6584C59.4324 55.5201 59.5484 55.418 59.6866 55.418H97.5739C97.6529 55.418 97.7294 55.4529 97.7812 55.5127C97.833 55.5725 97.8577 55.6534 97.8466 55.7332L97.3728 59.294C97.3543 59.431 97.2383 59.5344 97.1001 59.5344ZM59.5274 58.9788H96.8595L97.2593 55.9736H59.9272L59.5274 58.9788Z" fill="black"/>
<path d="M65.3711 65.1174H40.8516L41.3254 61.5566H65.8449L65.3711 65.1174Z" fill="#157B6C"/>
<path d="M95.8423 71.2655H57.955C57.876 71.2655 57.7995 71.2306 57.7477 71.1708C57.6959 71.111 57.6712 71.03 57.6823 70.9503L58.1561 67.3895C58.1746 67.2512 58.2906 67.149 58.4288 67.149H96.3161C96.3951 67.149 96.4716 67.1839 96.5234 67.2437C96.5752 67.3035 96.5999 67.3845 96.5888 67.4643L96.115 71.025C96.0977 71.1621 95.9805 71.2655 95.8423 71.2655ZM58.2696 70.7098H95.6017L96.0015 67.7047H58.6694L58.2696 70.7098Z" fill="black"/>
<path d="M65.9096 100.279H35.4219L35.8772 96.8589H66.365L65.9096 100.279Z" fill="#157B6C"/>
<path d="M85.6468 106.497H35.8612C35.7823 106.497 35.7058 106.462 35.654 106.403C35.6021 106.343 35.5775 106.262 35.5886 106.182L36.0624 102.621C36.0809 102.483 36.1969 102.381 36.335 102.381H86.1206C86.1996 102.381 86.2761 102.416 86.3279 102.475C86.3797 102.535 86.4044 102.616 86.3933 102.696L85.9195 106.257C85.901 106.394 85.785 106.497 85.6468 106.497ZM36.1759 105.942H85.4062L85.806 102.936H36.5757L36.1759 105.942Z" fill="black"/>
<path d="M85.4817 112.368H56.9003C56.8213 112.368 56.7448 112.333 56.693 112.273C56.6412 112.213 56.6165 112.132 56.6276 112.053L57.1014 108.492C57.1199 108.354 57.2359 108.251 57.3741 108.251H85.9568C86.0358 108.251 86.1123 108.286 86.1641 108.346C86.2159 108.406 86.2406 108.487 86.2295 108.567L85.7557 112.127C85.7359 112.265 85.6199 112.368 85.4817 112.368ZM57.2149 111.812H85.2424L85.6421 108.807H57.6147L57.2149 111.812Z" fill="black"/>
<path d="M73.4881 123.83H54.3742L52.8281 120.271H73.9619L73.4881 123.83Z" fill="#157B6C"/>
<path d="M91.1895 117.774H63.7753C63.6963 117.774 63.6198 117.739 63.568 117.679C63.5162 117.619 63.4915 117.538 63.5026 117.458L63.9764 113.898C63.9949 113.759 64.1109 113.657 64.2491 113.657H91.6633C91.7423 113.657 91.8188 113.692 91.8706 113.752C91.9224 113.812 91.9471 113.893 91.936 113.972L91.4622 117.533C91.4449 117.67 91.3277 117.774 91.1895 117.774ZM64.0899 117.218H90.9489L91.3487 114.213H64.4897L64.0899 117.218Z" fill="black"/>
<path d="M79.1438 129.979H57.2672C57.1154 129.979 56.992 129.854 56.992 129.701C56.992 129.548 57.1154 129.423 57.2672 129.423H78.9032L79.3029 126.418H56.2517C56.1 126.418 55.9766 126.293 55.9766 126.14C55.9766 125.987 56.1 125.862 56.2517 125.862H79.6188C79.6978 125.862 79.7743 125.897 79.8261 125.957C79.8779 126.017 79.9026 126.098 79.8915 126.178L79.4177 129.738C79.3992 129.875 79.282 129.979 79.1438 129.979Z" fill="black"/>
<path d="M216.853 208.038L216.167 214.688L211.742 215.215V207.329L216.853 208.038Z" fill="white"/>
<path d="M211.744 215.493C211.677 215.493 211.612 215.468 211.561 215.423C211.502 215.371 211.469 215.295 211.469 215.215V207.33C211.469 207.25 211.503 207.173 211.563 207.12C211.623 207.068 211.702 207.043 211.781 207.054L216.892 207.762C217.038 207.782 217.143 207.917 217.127 208.066L216.44 214.717C216.426 214.846 216.327 214.948 216.198 214.963L211.774 215.49C211.766 215.492 211.755 215.493 211.744 215.493ZM212.019 207.647V214.902L215.917 214.438L216.554 208.275L212.019 207.647Z" fill="black"/>
<path d="M211.044 226.792C212.889 227.056 215.913 227.288 219.464 226.788C220.625 226.625 221.395 225.477 221.115 224.321C220.334 221.093 218.987 214.967 216.676 212.127L216.102 213.667L215.309 212.218C215.2 212.02 215.005 211.886 214.783 211.857L213.046 211.633C212.683 211.585 212.346 211.83 212.271 212.193L211.995 213.529L210.936 211.779L210.466 218.318C210.365 219.72 210.156 221.11 209.843 222.478L209.369 224.542C209.227 225.632 209.973 226.638 211.044 226.792Z" fill="white"/>
<path d="M215.229 227.361C213.536 227.361 212.093 227.223 211.007 227.067C209.793 226.894 208.937 225.744 209.097 224.506L209.576 222.416C209.886 221.066 210.093 219.68 210.193 218.299L210.663 211.759C210.672 211.638 210.757 211.537 210.873 211.508C210.989 211.48 211.11 211.531 211.173 211.634L211.87 212.787L212.004 212.138C212.108 211.636 212.583 211.292 213.084 211.358L214.821 211.581C215.129 211.621 215.403 211.809 215.553 212.083L216.058 213.005L216.422 212.029C216.456 211.937 216.538 211.87 216.634 211.854C216.733 211.837 216.829 211.875 216.892 211.951C219.086 214.646 220.421 220.224 221.219 223.556L221.387 224.255C221.539 224.883 221.42 225.551 221.06 226.086C220.702 226.619 220.136 226.975 219.505 227.064C217.965 227.28 216.524 227.361 215.229 227.361ZM211.149 212.663L210.741 218.338C210.64 219.749 210.428 221.163 210.112 222.541L209.638 224.604C209.521 225.516 210.168 226.386 211.084 226.517C212.966 226.786 215.939 227.004 219.427 226.513C219.904 226.446 220.331 226.176 220.602 225.773C220.875 225.368 220.965 224.862 220.849 224.386L220.681 223.686C219.932 220.555 218.702 215.417 216.76 212.692L216.36 213.765C216.323 213.866 216.229 213.937 216.122 213.944C216.011 213.95 215.913 213.896 215.862 213.801L215.068 212.352C215.002 212.231 214.883 212.149 214.749 212.133L213.011 211.908C212.792 211.88 212.586 212.031 212.54 212.251L212.264 213.587C212.24 213.699 212.153 213.785 212.041 213.803C211.93 213.823 211.818 213.772 211.76 213.674L211.149 212.663Z" fill="black"/>
<path d="M215.094 225.385C212.845 225.385 211.476 224.899 211.392 224.868C211.249 224.816 211.176 224.657 211.227 224.513C211.279 224.369 211.436 224.294 211.579 224.346C211.608 224.358 214.529 225.387 218.839 224.389C218.987 224.354 219.135 224.447 219.168 224.597C219.203 224.746 219.11 224.896 218.962 224.929C217.495 225.271 216.19 225.385 215.094 225.385Z" fill="black"/>
<path d="M217.227 220.276C217.223 220.276 217.221 220.276 217.217 220.276L213.07 220.136C212.918 220.131 212.799 220.003 212.805 219.85C212.81 219.696 212.942 219.573 213.089 219.58L217.236 219.72C217.388 219.725 217.507 219.853 217.501 220.006C217.497 220.157 217.375 220.276 217.227 220.276Z" fill="black"/>
<path d="M196.133 204.495L195.469 214.201H190.146L189.898 204.495H196.133Z" fill="white"/>
<path d="M195.465 214.479H190.14C189.991 214.479 189.869 214.359 189.865 214.208L189.617 204.503C189.615 204.428 189.643 204.356 189.695 204.302C189.747 204.249 189.818 204.219 189.892 204.219H196.127C196.204 204.219 196.277 204.251 196.328 204.307C196.38 204.363 196.407 204.439 196.401 204.515L195.739 214.221C195.73 214.365 195.61 214.479 195.465 214.479ZM190.409 213.923H195.208L195.834 204.773H190.176L190.409 213.923Z" fill="black"/>
<path d="M196.853 219.68C196.866 220.598 196.249 221.404 195.37 221.612C192.31 222.336 185.415 223.948 183.448 224.246C180.895 224.632 177.759 223.838 176.41 222.32C175.061 220.803 179.43 217.179 181.503 215.861C184.583 213.903 187.542 210.033 188.783 209.859C190.024 209.684 192.34 213.343 192.34 213.343L196.126 211.727C196.125 211.726 196.784 215.023 196.853 219.68Z" fill="white"/>
<path d="M182.116 224.622C179.769 224.622 177.351 223.792 176.207 222.506C175.943 222.208 175.839 221.837 175.9 221.401C176.164 219.492 179.691 216.686 181.358 215.626C182.871 214.664 184.339 213.249 185.635 211.999C187.029 210.655 188.037 209.683 188.747 209.583C189.99 209.408 191.845 212.075 192.446 212.996L196.019 211.471C196.096 211.439 196.182 211.442 196.255 211.481C196.328 211.52 196.379 211.589 196.397 211.672C196.403 211.705 197.062 215.048 197.13 219.677C197.144 220.719 196.431 221.648 195.433 221.883C192.504 222.576 185.474 224.22 183.489 224.521C183.042 224.588 182.58 224.622 182.116 224.622ZM188.879 210.129C188.859 210.129 188.84 210.13 188.822 210.133C188.288 210.208 187.183 211.273 186.014 212.4C184.7 213.668 183.21 215.104 181.651 216.096C179.944 217.181 176.666 219.873 176.444 221.477C176.407 221.746 176.462 221.962 176.616 222.133C177.875 223.549 180.858 224.356 183.409 223.97C185.374 223.672 192.385 222.033 195.308 221.341C196.056 221.164 196.592 220.466 196.579 219.683C196.525 215.946 196.082 213.066 195.918 212.115L192.448 213.597C192.325 213.649 192.182 213.604 192.109 213.491C191.209 212.072 189.637 210.129 188.879 210.129Z" fill="black"/>
<path d="M182.156 222.242C180.492 222.242 179.004 221.966 177.929 221.255C177.802 221.17 177.766 220.998 177.85 220.87C177.933 220.742 178.104 220.706 178.231 220.79C182.18 223.403 192.702 219.537 194.771 218.736C194.913 218.681 195.073 218.752 195.127 218.895C195.181 219.039 195.111 219.199 194.969 219.254C192.784 220.1 186.791 222.242 182.156 222.242Z" fill="black"/>
<path d="M188.066 216.962C187.997 216.962 187.927 216.936 187.874 216.882L185.669 214.702C185.56 214.595 185.558 214.419 185.665 214.309C185.771 214.2 185.946 214.198 186.054 214.306L188.259 216.486C188.367 216.593 188.37 216.769 188.262 216.878C188.209 216.933 188.138 216.962 188.066 216.962Z" fill="black"/>
<path d="M218.36 141.226C218.36 141.226 220.01 171.566 220.873 182.039C221.737 192.512 218.855 209.348 218.855 209.348L210.637 208.909C210.637 208.909 210.074 188.439 209.464 182.755C209.464 182.755 205.993 175.049 204.964 168.177C203.935 161.305 200.43 150.448 200.43 150.448C200.43 150.448 197.585 204.632 197.31 208.888C197.31 208.888 190.867 209.18 188.556 207.702C188.556 207.702 184.462 187.944 185.05 177.196C185.637 166.446 184.992 139.739 184.992 139.739L218.36 141.226Z" fill="white"/>
<path d="M218.856 209.626C218.852 209.626 218.847 209.626 218.842 209.626L210.624 209.187C210.481 209.18 210.367 209.063 210.364 208.918C210.359 208.714 209.797 188.499 209.196 182.83C208.921 182.209 205.677 174.792 204.694 168.22C203.903 162.931 201.611 155.184 200.627 151.992C200.162 160.835 197.832 205.101 197.587 208.908C197.578 209.049 197.465 209.161 197.324 209.167C197.056 209.18 190.767 209.445 188.411 207.939C188.348 207.899 188.303 207.834 188.288 207.761C188.248 207.563 184.194 187.845 184.777 177.183C185.357 166.568 184.725 140.015 184.719 139.748C184.716 139.671 184.747 139.597 184.802 139.543C184.856 139.489 184.93 139.462 185.006 139.463L218.374 140.949C218.516 140.956 218.629 141.069 218.637 141.212C218.654 141.515 220.296 171.668 221.149 182.018C222.005 192.406 219.156 209.228 219.127 209.398C219.104 209.53 218.988 209.626 218.856 209.626ZM210.907 208.645L218.626 209.058C218.972 206.95 221.395 191.699 220.601 182.063C219.789 172.21 218.262 144.437 218.101 141.493L185.277 140.03C185.344 142.994 185.875 167.183 185.327 177.211C184.772 187.372 188.467 205.871 188.804 207.528C190.835 208.72 195.879 208.652 197.054 208.619C197.403 202.889 200.13 150.966 200.158 150.433C200.166 150.3 200.266 150.19 200.398 150.173C200.527 150.155 200.654 150.235 200.695 150.362C200.73 150.47 204.218 161.319 205.238 168.135C206.249 174.889 209.683 182.564 209.716 182.64C209.728 182.667 209.736 182.696 209.739 182.724C210.306 188.011 210.839 206.262 210.907 208.645Z" fill="black"/>
<path d="M213.49 183.031H210.978C210.827 183.031 210.703 182.906 210.703 182.753C210.703 182.6 210.827 182.475 210.978 182.475H213.49C213.642 182.475 213.766 182.6 213.766 182.753C213.766 182.906 213.642 183.031 213.49 183.031Z" fill="black"/>
<path d="M193.084 198.79C192.934 198.79 192.811 198.669 192.809 198.517C192.721 193.655 187.213 184.511 187.157 184.419C187.078 184.288 187.119 184.117 187.249 184.036C187.378 183.957 187.547 183.998 187.626 184.128C187.857 184.508 193.269 193.493 193.359 198.506C193.361 198.659 193.24 198.786 193.089 198.789C193.086 198.79 193.085 198.79 193.084 198.79Z" fill="black"/>
<path d="M179.922 93.2295C179.467 93.1934 175.68 99.7581 173.898 102.893C173.393 103.784 172.262 104.074 171.4 103.536L157.476 94.8554C156.339 94.1465 155.363 93.1984 154.629 92.0684C153.467 90.2792 152.775 88.4602 151.217 87.1894C149.951 86.1553 148.669 85.0066 148.286 84.7063C148.046 84.5182 146.928 85.3206 147.77 86.7459C148.028 87.1832 148.994 88.0715 149.259 88.4739C149.681 89.1168 149.681 89.9728 149.212 90.5808C148.713 91.2286 148.296 92.2677 148.857 93.7142C149.686 95.8522 151.568 96.3817 152.633 96.5063C153.168 96.5686 153.659 96.8302 154.015 97.2413L166.864 112.109C168.858 114.415 172.191 114.937 174.773 113.343C178.951 110.767 184.33 105.574 188.204 99.0105L179.922 93.2295Z" fill="white"/>
<path d="M171.542 114.543C169.723 114.543 167.93 113.767 166.656 112.293L153.806 97.426C153.495 97.0659 153.067 96.8379 152.601 96.7843C151.487 96.6548 149.485 96.0966 148.601 93.8179C147.984 92.2268 148.475 91.0881 148.995 90.4128C149.384 89.9082 149.399 89.1918 149.03 88.6299C148.92 88.463 148.646 88.1702 148.38 87.8874C148.039 87.5248 147.687 87.151 147.533 86.8894C146.924 85.8578 147.22 85.0355 147.657 84.6443C147.935 84.3951 148.256 84.3328 148.454 84.4873C148.619 84.6169 148.942 84.896 149.352 85.2485C149.902 85.7245 150.657 86.3748 151.39 86.9729C152.53 87.9036 153.212 89.0984 153.933 90.3642C154.223 90.8725 154.523 91.3983 154.859 91.9154C155.561 92.9956 156.516 93.93 157.62 94.619L171.544 103.299C171.897 103.52 172.313 103.584 172.714 103.481C173.116 103.378 173.453 103.12 173.661 102.755C179.26 92.8996 179.668 92.9333 179.945 92.9532C179.993 92.9569 180.04 92.9744 180.079 93.0018L188.358 98.784C188.478 98.8675 188.513 99.0295 188.439 99.1553C184.273 106.212 178.721 111.236 174.914 113.583C173.865 114.228 172.698 114.543 171.542 114.543ZM148.167 84.9657C148.092 84.9944 147.943 85.1003 147.84 85.3009C147.713 85.5513 147.638 85.9799 148.007 86.6053C148.13 86.8134 148.475 87.1809 148.779 87.5049C149.074 87.8188 149.353 88.1154 149.489 88.3222C149.987 89.0834 149.964 90.0602 149.43 90.7529C148.8 91.569 148.693 92.5321 149.113 93.6135C149.892 95.6207 151.672 96.1153 152.664 96.2312C153.267 96.3009 153.82 96.5962 154.221 97.0597L167.07 111.927C168.978 114.135 172.158 114.632 174.628 113.107C178.338 110.818 183.735 105.944 187.834 99.0918L179.919 93.5637C179.43 94.0695 177.698 96.7669 174.139 103.031C173.857 103.528 173.399 103.88 172.851 104.021C172.304 104.161 171.738 104.073 171.257 103.773L157.333 95.0924C156.16 94.3611 155.146 93.3681 154.4 92.2206C154.054 91.6899 153.751 91.1566 153.457 90.6408C152.762 89.4223 152.106 88.2711 151.045 87.4052C150.306 86.8022 149.548 86.1481 148.995 85.6709C148.631 85.3557 148.335 85.1015 148.167 84.9657Z" fill="black"/>
<path d="M227.714 105.44C227.714 105.44 228.641 88.1552 215.7 83.3C205.68 79.5398 192.884 81.162 188.874 82.5661C179.001 86.0248 174.141 99.1977 174.141 99.1977L185.712 100.845C185.712 100.845 182.224 138.693 183.736 147.134C183.736 147.134 193.048 148.238 196.998 146.657C200.948 145.076 213.934 142.86 220.142 145.76L219.015 105.276L227.714 105.44Z" fill="#157B6C"/>
<path d="M190.31 147.79C186.989 147.79 183.926 147.435 183.708 147.409C183.587 147.395 183.491 147.303 183.469 147.182C182.016 139.075 185.084 104.732 185.417 101.081L174.105 99.473C174.022 99.4618 173.949 99.412 173.906 99.3397C173.863 99.2674 173.855 99.179 173.885 99.1005C173.934 98.9672 178.904 85.7656 188.787 82.3045C193.164 80.772 205.988 79.3592 215.798 83.0396C221.174 85.0567 224.988 89.5781 226.827 96.1141C228.209 101.03 227.993 105.41 227.992 105.455C227.983 105.602 227.862 105.717 227.716 105.717C227.715 105.717 227.713 105.717 227.712 105.717L219.3 105.56L220.421 145.752C220.423 145.848 220.376 145.939 220.297 145.992C220.218 146.046 220.117 146.054 220.031 146.012C213.833 143.118 200.988 145.361 197.103 146.916C195.409 147.592 192.787 147.79 190.31 147.79ZM183.976 146.88C185.358 147.028 193.38 147.807 196.9 146.397C200.766 144.85 213.385 142.641 219.859 145.328L218.742 105.284C218.74 105.208 218.77 105.134 218.821 105.081C218.875 105.027 218.953 105 219.023 104.999L227.45 105.156C227.492 102.959 227.331 87.9584 215.607 83.5591C205.926 79.9261 193.282 81.3165 188.968 82.8278C180.185 85.9039 175.355 96.9351 174.529 98.9709L185.754 100.568C185.899 100.589 186.003 100.721 185.989 100.87C185.954 101.245 182.575 138.182 183.976 146.88Z" fill="white"/>
<path d="M211.588 137.694C211.572 137.694 211.556 137.692 211.54 137.69C196.435 134.976 192.016 124.288 191.973 124.181C191.916 124.038 191.984 123.877 192.126 123.819C192.266 123.762 192.427 123.83 192.484 123.972C192.526 124.077 196.844 134.485 211.636 137.142C211.785 137.169 211.885 137.312 211.859 137.464C211.835 137.599 211.719 137.694 211.588 137.694Z" fill="white"/>
<path d="M183.976 119.361H202.935L196.996 97.838H178.039L183.976 119.361Z" fill="white"/>
<path d="M202.937 119.639H183.979C183.855 119.639 183.747 119.556 183.713 119.436L177.776 97.9118C177.752 97.8283 177.77 97.7386 177.822 97.6688C177.873 97.5991 177.955 97.5592 178.041 97.5592H197C197.123 97.5592 197.232 97.6427 197.265 97.7623L203.202 119.286C203.226 119.37 203.208 119.46 203.157 119.529C203.104 119.599 203.022 119.639 202.937 119.639ZM184.187 119.083H202.574L196.79 98.1149H178.403L184.187 119.083Z" fill="black"/>
<path d="M225.469 105.455L217.132 105.072C217.132 105.072 217.069 112.208 216.317 112.336C213.637 112.79 208.025 112.813 204.372 112.365C203.1 112.209 202.093 111.22 201.854 109.94C201.674 108.975 201.158 107.84 199.853 107.022C198.59 106.232 199.835 108.717 198.654 110.316C198.02 111.176 196.013 110.795 193.276 110.151C190.538 109.507 189.843 112.479 192.911 114.276C196.237 116.224 198.35 116.005 199.411 116.233C201.523 116.688 220.203 119.663 223.086 118.071C225.315 116.84 225.469 105.455 225.469 105.455Z" fill="white"/>
<path d="M219.461 118.817C212.798 118.817 200.408 116.731 199.352 116.504C199.14 116.458 198.868 116.431 198.555 116.399C197.314 116.27 195.437 116.077 192.772 114.516C190.841 113.385 190.367 111.834 190.745 110.872C191.024 110.163 191.85 109.53 193.337 109.879C195.805 110.461 197.892 110.882 198.433 110.149C198.96 109.434 198.952 108.491 198.946 107.802C198.941 107.234 198.938 106.823 199.24 106.651C199.494 106.506 199.793 106.658 199.995 106.784C201.141 107.5 201.877 108.573 202.122 109.886C202.342 111.062 203.259 111.946 204.404 112.086C208.003 112.528 213.511 112.518 216.229 112.067C216.582 111.632 216.827 108.126 216.855 105.068C216.856 104.992 216.887 104.921 216.941 104.869C216.995 104.817 217.068 104.789 217.142 104.793L225.479 105.175C225.627 105.182 225.745 105.306 225.742 105.457C225.726 106.639 225.519 117.04 223.218 118.312C222.566 118.674 221.21 118.817 219.461 118.817ZM192.555 110.338C191.918 110.338 191.443 110.599 191.255 111.076C190.962 111.824 191.397 113.068 193.047 114.035C195.611 115.536 197.416 115.723 198.611 115.845C198.94 115.879 199.225 115.909 199.466 115.96C201.619 116.423 220.185 119.354 222.952 117.825C224.617 116.906 225.12 109.023 225.187 105.72L217.401 105.362C217.391 105.942 217.363 107.31 217.279 108.673C217.064 112.197 216.708 112.55 216.36 112.608C213.614 113.073 207.997 113.088 204.337 112.638C202.954 112.469 201.846 111.404 201.582 109.99C201.362 108.817 200.732 107.898 199.706 107.256C199.617 107.201 199.558 107.174 199.521 107.16C199.492 107.288 199.494 107.578 199.497 107.797C199.503 108.521 199.511 109.616 198.873 110.48C198.132 111.486 196.059 111.09 193.211 110.419C192.978 110.366 192.758 110.338 192.555 110.338Z" fill="black"/>
<path d="M196.756 82.8749C196.756 82.8749 198.915 81.533 198.893 80.7494L199.508 76.7239C199.515 76.3551 199.29 76.0249 198.949 75.9041L196.397 75.0195C196.071 74.9036 195.861 74.5797 195.883 74.2271L196.082 71.0276L195.081 70.133C195.002 70.0633 194.994 69.9424 195.06 69.8602L196.641 67.9153C197.158 67.1803 197.676 65.4223 198.099 65.5431C198.099 65.5431 207.105 64.4928 207.543 69.0778C207.608 69.7418 207.409 70.4046 207.028 70.9466L206.231 72.0816C205.43 73.2216 205.008 74.6195 205.15 76.0162C205.179 76.3065 205.553 78.1753 205.804 79.4113C205.946 80.1127 206.332 80.7369 206.891 81.1717C207.594 81.7187 208.45 82.4151 208.311 82.4612C208.311 82.4612 207.314 83.2013 205.739 83.8566C202.944 85.0203 199.764 84.7313 197.18 83.139L196.756 82.8749Z" fill="white"/>
<path d="M202.19 84.8395C200.403 84.8395 198.614 84.3462 197.041 83.3756L196.613 83.1115C196.531 83.0616 196.481 82.9719 196.481 82.8747C196.481 82.7776 196.53 82.6879 196.612 82.638C197.585 82.0325 198.629 81.1417 198.618 80.7567C198.618 80.7405 198.619 80.7231 198.622 80.7069L199.235 76.7026C199.232 76.4596 199.083 76.2453 198.86 76.1656L196.309 75.281C195.868 75.124 195.581 74.6829 195.611 74.2083L195.801 71.1446L194.901 70.3397C194.711 70.169 194.688 69.8812 194.85 69.6819L196.43 67.737C196.599 67.4953 196.792 67.0792 196.977 66.678C197.357 65.8532 197.663 65.1954 198.114 65.2589C198.697 65.1954 204.053 64.6771 206.559 66.7216C207.307 67.3321 207.731 68.1146 207.821 69.0477C207.889 69.7591 207.689 70.4892 207.256 71.1047L206.459 72.2397C205.663 73.3723 205.297 74.7029 205.428 75.9849C205.44 76.1058 205.541 76.7038 206.078 79.3526C206.206 79.988 206.557 80.5549 207.064 80.9486C208.654 82.1858 208.634 82.3004 208.602 82.4898C208.59 82.5633 208.542 82.6343 208.479 82.6804C208.437 82.7115 207.436 83.4479 205.85 84.1094C204.679 84.5991 203.435 84.8395 202.19 84.8395ZM197.273 82.8673L197.327 82.9009C199.849 84.4545 202.956 84.7162 205.639 83.5986C206.742 83.1389 207.562 82.633 207.932 82.3876C207.77 82.2331 207.43 81.9391 206.727 81.3921C206.115 80.9162 205.693 80.2322 205.537 79.4672C205.124 77.4302 204.903 76.2789 204.879 76.0447C204.734 74.6281 205.135 73.1629 206.009 71.9208L206.806 70.7858C207.161 70.2787 207.327 69.6819 207.271 69.1038C207.196 68.3139 206.849 67.6772 206.211 67.1565C203.794 65.1829 198.187 65.8121 198.132 65.8184C198.113 65.8208 198.095 65.8208 198.076 65.8196C197.924 65.9355 197.644 66.5447 197.473 66.9147C197.278 67.3384 197.076 67.7769 196.865 68.0759L195.321 69.9759L196.264 70.8194C196.327 70.8767 196.361 70.9589 196.356 71.0449L196.158 74.2444C196.143 74.4724 196.278 74.6829 196.487 74.7577L199.037 75.6423C199.491 75.8043 199.789 76.2416 199.781 76.73C199.781 76.7424 199.78 76.7549 199.778 76.7673L199.165 80.7717C199.155 81.4893 197.945 82.41 197.273 82.8673Z" fill="black"/>
<path d="M197.802 58.5638C199.854 58.4566 197.259 60.5921 204.861 58.3869C207.889 57.5085 206.333 61.0942 207.119 60.8687C210.021 60.0352 209.922 60.0601 211.332 60.4488C212.266 60.7067 212.862 62.4709 212.676 63.7854C212.43 65.5197 210.503 68.2731 208.778 71.1848C207.885 72.6923 206.303 72.8281 204.389 70.5855C204.186 70.3463 205.227 68.9409 204.683 68.3342C203.271 66.7581 202.643 69.139 201.503 68.4039C200.409 67.6987 199.957 67.2415 198.8 66.175C197.401 64.8843 195.05 66.8939 194.239 63.9872C193.819 62.4697 194.992 58.7096 197.802 58.5638Z" fill="#157B6C"/>
<path d="M130.628 217.389C130.628 217.389 131.256 217.391 131.858 216.96C133.72 215.627 137.591 212.649 140.235 213.022C144.664 213.645 145.188 217.296 145.188 217.296C145.188 217.296 148.923 217.157 148.849 219.666C148.792 221.592 147.705 224.039 144.686 225.386C140.57 227.221 136.444 228.62 131.888 225.608C131.003 225.024 129.955 224.751 128.903 224.857C126.344 225.117 88.2077 225.947 88.2077 225.947C79.4842 225.947 71.4801 221.059 67.4293 213.257L59.3906 197.776L68.6003 171.792L83.0415 205.668C90.0388 215.309 129.899 217.556 130.628 217.389Z" fill="white"/>
<path d="M137.45 227.63C135.605 227.63 133.703 227.139 131.738 225.84C130.901 225.285 129.904 225.035 128.932 225.133C126.392 225.391 89.773 226.19 88.2147 226.225C79.3542 226.225 71.2983 221.306 67.187 213.386L59.1483 197.904C59.1125 197.836 59.1076 197.755 59.1335 197.681L68.3431 171.698C68.3814 171.591 68.4801 171.517 68.5936 171.513C68.7059 171.507 68.8108 171.577 68.8552 171.682L83.2841 205.528C90.0655 214.781 129.04 217.309 130.581 217.116C130.601 217.111 130.608 217.111 130.629 217.111C130.645 217.111 131.188 217.1 131.7 216.733L132.132 216.422C134.218 214.912 137.71 212.385 140.274 212.747C144.184 213.296 145.195 216.165 145.411 217.018C146.009 217.029 147.612 217.145 148.505 218.042C148.936 218.474 149.145 219.022 149.126 219.674C149.098 220.633 148.702 223.9 144.799 225.64C142.452 226.686 140.005 227.63 137.45 227.63ZM129.348 224.555C130.291 224.555 131.231 224.839 132.041 225.374C136.5 228.324 140.515 226.942 144.576 225.131C148.183 223.522 148.549 220.533 148.575 219.656C148.589 219.158 148.44 218.759 148.118 218.435C147.198 217.512 145.22 217.572 145.199 217.573C145.195 217.573 145.192 217.573 145.189 217.573C145.053 217.573 144.936 217.472 144.916 217.335C144.895 217.196 144.357 213.882 140.198 213.296C137.853 212.967 134.339 215.507 132.451 216.873L132.017 217.186C131.35 217.663 130.648 217.659 130.627 217.665C129.672 217.719 119.713 217.168 109.142 215.48C99.1727 213.888 86.5132 210.92 82.8202 205.829C82.8078 205.812 82.798 205.794 82.7893 205.774L68.6245 172.548L59.6912 197.752L67.6731 213.127C71.6894 220.862 79.5578 225.668 88.2073 225.668C88.5824 225.659 126.356 224.836 128.876 224.58C129.034 224.563 129.19 224.555 129.348 224.555Z" fill="black"/>
<path d="M120.609 210.425L124.297 203.906L127.325 205.89C127.492 205.999 127.631 206.148 127.731 206.321L127.913 206.636C128.141 207.032 128.563 207.276 129.011 207.27C129.254 207.268 129.494 207.337 129.702 207.473L152.216 222.197C152.401 222.318 152.572 222.464 152.72 222.631L157.27 227.724L150.937 226.279C150.592 226.2 150.258 226.076 149.942 225.91L126.248 213.402C126.046 213.295 125.876 213.135 125.756 212.939L125.726 212.889C125.497 212.512 125.088 212.28 124.655 212.282L124.437 212.284C124.236 212.285 124.037 212.235 123.857 212.14L120.609 210.425Z" fill="white"/>
<path d="M157.265 228C157.246 228 157.225 227.998 157.205 227.994L150.872 226.549C150.504 226.466 150.147 226.332 149.81 226.155L126.116 213.648C125.87 213.518 125.662 213.322 125.517 213.083L125.487 213.035C125.308 212.741 124.99 212.56 124.654 212.56C124.653 212.56 124.652 212.56 124.65 212.56L124.431 212.561C124.428 212.561 124.427 212.561 124.425 212.561C124.183 212.561 123.94 212.5 123.723 212.387L120.476 210.674C120.41 210.639 120.36 210.578 120.339 210.506C120.318 210.433 120.327 210.355 120.364 210.29L124.052 203.771C124.089 203.705 124.152 203.657 124.226 203.639C124.3 203.622 124.378 203.634 124.441 203.677L127.469 205.66C127.671 205.792 127.843 205.974 127.963 206.185L128.145 206.5C128.321 206.808 128.645 206.997 128.99 206.997C129 206.997 129.01 206.997 129.021 206.997C129.312 206.997 129.597 207.083 129.845 207.245L152.36 221.969C152.566 222.104 152.753 222.266 152.917 222.449L157.468 227.542C157.548 227.632 157.562 227.764 157.501 227.868C157.453 227.949 157.362 228 157.265 228ZM124.655 212.003C125.181 212.003 125.68 212.286 125.957 212.743L125.987 212.792C126.081 212.946 126.214 213.072 126.373 213.156L150.067 225.663C150.361 225.818 150.673 225.934 150.995 226.007L156.482 227.259L152.513 222.816C152.381 222.668 152.23 222.538 152.063 222.43L129.549 207.706C129.387 207.6 129.203 207.539 129.011 207.548C129.005 207.548 128.999 207.548 128.992 207.548C128.451 207.548 127.945 207.252 127.671 206.774L127.49 206.46C127.412 206.324 127.302 206.207 127.171 206.122L124.388 204.298L120.986 210.311L123.979 211.891C124.119 211.964 124.27 212.001 124.43 212.003L124.649 212.002C124.65 212.003 124.653 212.003 124.655 212.003Z" fill="black"/>
<path d="M151.071 225.352C151.03 225.352 150.986 225.342 150.946 225.321C150.811 225.25 150.758 225.083 150.827 224.946L152.18 222.3C152.25 222.165 152.415 222.111 152.551 222.181C152.685 222.252 152.738 222.419 152.669 222.556L151.317 225.201C151.268 225.298 151.171 225.352 151.071 225.352Z" fill="black"/>
<path d="M119.048 200.678L124.413 203.952L120.628 210.461L115.263 207.186C114.279 206.587 113.942 205.31 114.51 204.334L116.241 201.358C116.808 200.382 118.065 200.078 119.048 200.678Z" fill="#157B6C"/>
<path d="M120.629 210.738C120.579 210.738 120.53 210.725 120.487 210.698L115.121 207.424C114.011 206.746 113.631 205.297 114.273 204.194L116.004 201.217C116.311 200.689 116.806 200.315 117.396 200.164C118.005 200.009 118.643 200.107 119.19 200.441L124.555 203.715C124.683 203.794 124.726 203.963 124.65 204.094L120.864 210.602C120.827 210.666 120.766 210.713 120.694 210.731C120.674 210.736 120.651 210.738 120.629 210.738ZM117.968 200.648C117.823 200.648 117.676 200.666 117.533 200.703C117.086 200.817 116.712 201.1 116.48 201.499L114.749 204.475C114.259 205.319 114.554 206.429 115.407 206.948L120.534 210.077L124.04 204.048L118.907 200.916C118.616 200.739 118.293 200.648 117.968 200.648Z" fill="#157B6C"/>
<path d="M125.916 211.629C125.868 211.629 125.819 211.617 125.774 211.589C125.643 211.511 125.602 211.339 125.68 211.208L127.507 208.147C127.584 208.015 127.755 207.973 127.884 208.052C128.015 208.131 128.057 208.303 127.978 208.434L126.152 211.495C126.101 211.581 126.01 211.629 125.916 211.629Z" fill="black"/>
<path d="M136.688 214.218C136.638 214.218 136.588 214.204 136.543 214.176L129.824 209.917C129.696 209.835 129.656 209.664 129.738 209.533C129.819 209.404 129.988 209.364 130.117 209.446L136.835 213.705C136.963 213.787 137.003 213.957 136.921 214.088C136.87 214.172 136.779 214.218 136.688 214.218Z" fill="black"/>
<path d="M150.697 222.99C150.648 222.99 150.597 222.976 150.551 222.948L147.927 221.298C147.797 221.217 147.758 221.045 147.839 220.916C147.919 220.785 148.09 220.746 148.218 220.827L150.843 222.477C150.972 222.558 151.012 222.73 150.93 222.859C150.878 222.943 150.789 222.99 150.697 222.99Z" fill="black"/>
<path d="M120.029 208.123C119.979 208.123 119.93 208.109 119.884 208.082L115.795 205.547C115.666 205.467 115.625 205.295 115.705 205.164C115.785 205.033 115.954 204.992 116.084 205.073L120.173 207.609C120.303 207.688 120.343 207.86 120.263 207.991C120.211 208.076 120.121 208.123 120.029 208.123Z" fill="white"/>
<path d="M130.629 217.389C130.629 217.389 136.125 216.698 139.624 217.189C142.35 217.57 150.417 215.614 148.731 220.884C148.369 222.019 148.177 222.774 147.178 223.845C146.631 224.431 145.136 225.637 144.289 226.016C140.169 227.854 136.435 228.624 131.875 225.6C130.997 225.018 129.951 224.751 128.905 224.857C128.297 224.918 130.435 217.433 130.629 217.389Z" fill="white"/>
<path d="M138.014 227.904C135.998 227.904 133.951 227.307 131.723 225.83C130.895 225.281 129.906 225.034 128.931 225.132C128.26 225.2 126.11 225.275 126.018 225.279C125.867 225.286 125.739 225.164 125.735 225.011C125.73 224.858 125.848 224.73 126 224.723C126.022 224.722 128.223 224.645 128.876 224.579C129.974 224.468 131.092 224.747 132.025 225.365C136.39 228.259 139.91 227.662 144.177 225.76C144.966 225.409 146.435 224.234 146.977 223.654C147.865 222.702 148.076 222.035 148.396 221.024L148.467 220.799C148.78 219.821 148.752 219.104 148.383 218.607C147.565 217.505 145.131 217.574 142.982 217.634C141.631 217.673 140.355 217.709 139.54 217.453C135.388 216.151 130.759 217.638 130.712 217.654C130.482 217.708 129.885 217.689 128.482 217.593C128.331 217.583 128.216 217.45 128.227 217.296C128.237 217.143 128.365 217.027 128.521 217.039C129.74 217.122 130.428 217.149 130.568 217.118C130.739 217.061 135.383 215.567 139.706 216.923C140.432 217.151 141.665 217.116 142.968 217.078C145.251 217.014 147.836 216.94 148.825 218.273C149.303 218.916 149.359 219.823 148.992 220.969L148.92 221.194C148.59 222.238 148.35 222.991 147.377 224.036C146.808 224.646 145.273 225.879 144.399 226.269C142.194 227.251 140.121 227.904 138.014 227.904Z" fill="black"/>
<path d="M46.1274 153.585C46.1274 153.585 63.0512 155.848 68.6728 162.764C75.791 171.523 78.8596 184.537 79.8566 190.162C80.149 191.814 80.1145 193.507 79.7529 195.145L79.3384 197.024C77.8762 203.655 71.887 208.252 65.1686 207.898L65.5054 207.9C64.4196 207.842 62.8353 207.48 62.3751 206.486L60.5971 203.21L60.4292 204.391C59.093 213.106 66.0693 225.046 66.0693 225.046L46.0522 222.319C35.7678 221.276 25.9807 217.184 18.1296 210.396C13.8666 206.711 10.5709 203.262 9.14825 199.075C6.73356 191.963 6.95443 189.938 6.27703 181.31C5.81556 175.435 7.52324 169.567 11.1718 164.967C16.5355 158.207 26.858 151.116 46.1274 153.585Z" fill="white"/>
<path d="M66.0651 225.323C66.0527 225.323 66.0404 225.321 66.028 225.32L46.0109 222.593C35.4909 221.526 25.7828 217.381 17.9465 210.606C14.14 207.316 10.4075 203.651 8.88369 199.164C6.84286 193.153 6.67505 190.768 6.26787 185.003C6.19137 183.915 6.10624 182.707 5.99766 181.331C5.52385 175.291 7.28335 169.418 10.9529 164.793C16.208 158.17 26.5799 150.801 46.1565 153.309H46.1578C46.8537 153.403 63.2543 155.668 68.8795 162.589C76.4308 171.88 79.3934 186.006 80.1226 190.113C80.4236 191.81 80.3879 193.525 80.0177 195.207L79.6031 197.085C78.1064 203.874 72.0333 208.539 65.1495 208.177C65.1039 208.174 65.0607 208.16 65.0237 208.138C63.8305 207.996 62.5535 207.536 62.1216 206.603L60.7483 204.074L60.6977 204.429C59.391 212.951 66.2329 224.784 66.302 224.903C66.355 224.995 66.3526 225.11 66.2946 225.198C66.2427 225.277 66.1564 225.323 66.0651 225.323ZM38.6225 153.363C24.0505 153.363 15.8403 159.523 11.3835 165.139C7.80281 169.653 6.08526 175.387 6.54796 181.285C6.65654 182.663 6.74168 183.873 6.81818 184.962C7.22042 190.675 7.38823 193.04 9.40561 198.982C10.8863 203.344 14.5583 206.943 18.3055 210.182C26.0555 216.883 35.6587 220.983 46.0763 222.04L65.5518 224.692C64.2426 222.325 58.9567 212.161 60.156 204.345L60.3226 203.168C60.3387 203.05 60.4287 202.955 60.546 202.934C60.6619 202.914 60.7792 202.969 60.8359 203.073L62.6139 206.349C63.0075 207.198 64.4228 207.562 65.5172 207.62C65.5431 207.621 65.5678 207.626 65.5913 207.635C72.0247 207.783 77.6598 203.35 79.0676 196.962L79.4822 195.083C79.8376 193.474 79.8709 191.833 79.5834 190.209C78.8616 186.135 75.9249 172.126 68.4575 162.939C62.9693 156.186 46.2577 153.881 46.0887 153.858C43.4309 153.52 40.9459 153.363 38.6225 153.363Z" fill="black"/>
<path d="M61.742 206.563C61.6396 206.563 61.5408 206.504 61.494 206.405L56.7534 196.354C56.688 196.216 56.746 196.05 56.8842 195.984C57.0212 195.918 57.1853 195.977 57.2507 196.116L61.9912 206.168C62.0566 206.306 61.9986 206.472 61.8604 206.538C61.8222 206.554 61.7827 206.563 61.742 206.563Z" fill="black"/>
<path d="M48.7741 119.357L50.0166 118.521C51.0135 117.85 51.4343 116.575 51.0185 115.44C49.7698 112.034 45.218 106.099 28.6595 110.606C11.7751 115.204 14.7611 142.559 29.1444 148.404C43.5276 154.25 48.4125 124.199 48.4125 124.199L48.7741 119.357Z" fill="#157B6C"/>
<path d="M46.7009 119.984C46.8934 118.941 48.2691 118.711 48.7898 119.633C50.0533 121.872 50.6555 123.43 50.8578 124.381C51.1293 125.659 49.9534 126.939 50.5864 128.309C51.2193 129.68 52.2151 131.232 52.3051 133.699C52.394 136.108 54.8136 147.153 46.3159 146.805C45.9828 146.791 45.7027 147.056 45.7076 147.394C45.7286 149.075 45.8174 153.699 46.1876 156.202C46.3887 157.567 45.5472 158.864 44.2331 159.239C40.8314 160.209 34.4979 161.575 29.7573 160.019C28.5247 159.614 27.8782 158.251 28.3174 157.02C28.8776 155.449 29.6611 151.033 29.1478 148.407C29.1478 148.407 31.9857 148.124 35.1469 146.66C40.0047 144.41 42.3947 138.93 41.0522 133.706C40.7635 132.583 40.1392 130.985 40.7894 129.293C42.4675 124.929 44.9784 129.316 44.9784 129.316L46.7009 119.984Z" fill="white"/>
<path d="M34.7518 160.998C32.9936 160.998 31.2452 160.799 29.667 160.28C29.0057 160.063 28.4714 159.594 28.1642 158.96C27.8532 158.318 27.8138 157.594 28.0531 156.923C28.5948 155.403 29.3758 151.037 28.8724 148.458C28.8576 148.381 28.8749 148.301 28.9218 148.239C28.9674 148.176 29.039 148.135 29.1155 148.128C29.1439 148.125 31.9485 147.831 35.027 146.406C39.6873 144.247 42.107 138.934 40.7818 133.774C40.7435 133.624 40.6991 133.466 40.6522 133.3C40.3487 132.22 39.9329 130.741 40.5288 129.191C41.0434 127.854 41.7059 127.145 42.4993 127.084C43.4704 127.008 44.3464 127.952 44.8264 128.597L46.4267 119.933C46.5353 119.342 46.9844 118.898 47.5705 118.798C48.1566 118.698 48.7291 118.972 49.0253 119.496C50.4467 122.015 50.9501 123.511 51.1229 124.324C51.2574 124.955 51.0821 125.567 50.9119 126.159C50.7107 126.859 50.5207 127.521 50.8317 128.192C50.9365 128.419 51.0513 128.649 51.1698 128.89C51.762 130.086 52.4986 131.573 52.5764 133.689C52.5875 133.982 52.6356 134.428 52.6923 134.946C52.9897 137.667 53.5425 142.733 51.0821 145.395C49.9692 146.599 48.359 147.168 46.3009 147.082C46.2108 147.079 46.1306 147.11 46.0689 147.171C46.0097 147.229 45.9776 147.307 45.9788 147.39C46.0011 149.209 46.0924 153.704 46.4551 156.161C46.676 157.655 45.7506 159.093 44.3032 159.505C42.0181 160.156 38.3646 160.998 34.7518 160.998ZM29.4647 148.644C29.8879 151.376 29.1266 155.553 28.5714 157.111C28.3826 157.64 28.4134 158.21 28.6577 158.715C28.8996 159.214 29.3179 159.581 29.8361 159.752C34.5162 161.288 40.8139 159.921 44.1515 158.97C45.3335 158.632 46.0887 157.46 45.9085 156.242C45.5408 153.752 45.4483 149.227 45.4261 147.396C45.4236 147.16 45.5149 146.937 45.6827 146.772C45.8505 146.608 46.0825 146.518 46.3206 146.527C48.2146 146.604 49.678 146.096 50.6762 145.015C52.9638 142.54 52.4295 137.638 52.142 135.006C52.0816 134.456 52.0347 134.022 52.0236 133.709C51.9508 131.714 51.2722 130.345 50.675 129.138C50.554 128.893 50.4368 128.658 50.3307 128.428C49.9334 127.567 50.1715 126.737 50.3813 126.004C50.5392 125.455 50.6873 124.937 50.5824 124.441C50.4479 123.808 50.005 122.36 48.5453 119.772C48.3269 119.386 47.9456 119.299 47.6606 119.347C47.3781 119.396 47.0474 119.602 46.9659 120.036L45.2422 129.366C45.2212 129.48 45.1312 129.569 45.0189 129.589C44.9066 129.609 44.7919 129.555 44.7339 129.454C44.4303 128.926 43.4519 127.57 42.5388 127.639C41.9749 127.682 41.4703 128.273 41.0396 129.393C40.5103 130.77 40.8817 132.089 41.1791 133.149C41.2272 133.319 41.2729 133.481 41.3111 133.635C42.7041 139.056 40.1562 144.64 35.254 146.912C32.6431 148.121 30.2766 148.531 29.4647 148.644Z" fill="black"/>
<path d="M21.8626 116.136C21.8626 116.136 13.555 112.131 7.51268 117.851C1.47041 123.571 -4.38309 136.155 4.67971 149.882C10.3753 158.509 12.5666 165.329 13.4081 169.206C13.6895 170.504 15.3749 170.829 16.1041 169.723C19.7515 164.194 26.407 151.999 23.1841 140.539C18.8409 125.096 21.8626 116.136 21.8626 116.136Z" fill="#157B6C"/>
<path d="M52.3255 132.62C52.2317 132.62 52.1404 132.571 52.0898 132.485C52.0121 132.353 52.054 132.183 52.1836 132.104C54.9104 130.452 53.1435 125.784 52.6537 124.63L44.9395 128.607C44.8038 128.677 44.6384 128.622 44.5693 128.486C44.5002 128.349 44.5533 128.182 44.689 128.112L52.6611 124.002C52.7265 123.968 52.8042 123.962 52.8745 123.986C52.9449 124.009 53.0029 124.061 53.0349 124.128C53.1571 124.384 55.9987 130.44 52.4674 132.579C52.4229 132.606 52.3736 132.62 52.3255 132.62Z" fill="black"/>
<path d="M52.5483 135.813C52.478 135.813 52.4064 135.786 52.3533 135.731C52.246 135.622 52.2472 135.445 52.3546 135.338L53.4416 134.249C53.7723 133.918 53.8155 133.4 53.544 133.017L52.7963 131.963C52.7075 131.838 52.7358 131.665 52.8592 131.576C52.9826 131.486 53.1541 131.515 53.243 131.639L53.9907 132.693C54.4201 133.299 54.3522 134.12 53.8278 134.644L52.7408 135.733C52.6877 135.785 52.6174 135.813 52.5483 135.813Z" fill="black"/>
<path d="M43.7956 136.769C43.6179 136.769 43.4303 136.749 43.2329 136.699C42.2915 136.463 41.4845 135.65 40.8318 134.284C40.7664 134.146 40.8232 133.98 40.9601 133.913C41.0971 133.847 41.2612 133.904 41.3278 134.043C41.904 135.249 42.5876 135.961 43.3588 136.158C44.1879 136.37 44.8555 135.893 44.8616 135.888C44.985 135.798 45.1565 135.825 45.2454 135.949C45.3342 136.072 45.3083 136.245 45.1861 136.336C45.1578 136.357 44.5927 136.769 43.7956 136.769Z" fill="black"/>
<path d="M19.7734 115.379C19.7734 115.379 27.4938 117.727 24.3326 125.203C24.3326 125.203 27.8985 122.605 27.8084 118.548C27.7183 114.49 24.7385 113.169 22.752 113.214C20.7655 113.259 19.7734 115.379 19.7734 115.379Z" fill="white"/>
<path d="M24.3346 125.481C24.2742 125.481 24.2125 125.461 24.1631 125.42C24.0669 125.341 24.0336 125.208 24.0817 125.093C24.9799 122.968 25.0577 121.071 24.3112 119.458C23.0329 116.692 19.7286 115.654 19.6953 115.644C19.6188 115.621 19.5558 115.565 19.5238 115.491C19.4917 115.418 19.4917 115.333 19.5262 115.259C19.5694 115.167 20.617 112.984 22.7479 112.936C23.9756 112.908 25.2206 113.342 26.1682 114.127C27.0134 114.827 28.0325 116.161 28.0856 118.541C28.1781 122.696 24.6456 125.319 24.495 125.428C24.4481 125.463 24.3914 125.481 24.3346 125.481ZM20.1765 115.224C21.0858 115.568 23.6535 116.727 24.8084 119.219C25.4982 120.709 25.5525 122.402 24.9725 124.266C25.9856 123.253 27.5958 121.217 27.5365 118.552C27.4983 116.837 26.9048 115.454 25.8202 114.555C24.9849 113.864 23.8374 113.47 22.7614 113.49C21.3844 113.522 20.5109 114.684 20.1765 115.224Z" fill="black"/>
<path d="M5.05455 179.288C11.425 183.176 24.3832 188.719 45.2369 187.434C46.7706 187.339 48.1883 188.257 48.7287 189.709L50.0292 194.966C52.3168 204.21 56.6181 212.821 62.6197 220.173L65.7352 223.99C66.2152 224.576 65.7636 225.458 65.0109 225.402L51.2619 224.382C27.6616 221.23 9.32499 209.277 3.44435 187.503L1.8761 181.696C1.36897 179.812 3.3987 178.277 5.05455 179.288Z" fill="#157B6C"/>
<path d="M134.767 31.1772H180.041C182.604 31.1772 184.565 33.2828 184.565 35.8718V49.102C184.565 51.6898 182.604 53.7816 180.041 53.7816C180.018 53.7816 179.328 53.7816 178.404 53.7816V62.6163L172.447 53.7816C163.788 53.7816 134.767 53.7816 134.767 53.7816C132.204 53.7816 130.008 51.691 130.008 49.102V35.8718C130.009 33.2828 132.204 31.1772 134.767 31.1772Z" fill="white"/>
<path d="M178.406 62.8942C178.317 62.8942 178.231 62.8506 178.179 62.7733L172.303 54.0595H134.769C132.04 54.0595 129.734 51.7894 129.734 49.102V35.8718C129.734 33.1769 132.039 30.8994 134.769 30.8994H180.043C182.734 30.8994 184.842 33.0835 184.842 35.8718V49.102C184.842 51.8816 182.734 54.0595 180.043 54.0595H178.681V62.6163C178.681 62.7384 178.602 62.8456 178.487 62.8817C178.46 62.8892 178.433 62.8942 178.406 62.8942ZM134.769 31.4551C132.338 31.4551 130.285 33.4772 130.285 35.8718V49.102C130.285 51.4879 132.338 53.5026 134.769 53.5026H172.449C172.54 53.5026 172.625 53.5474 172.676 53.6234L178.131 61.7131V53.7804C178.131 53.6272 178.254 53.5026 178.406 53.5026H180.043C182.426 53.5026 184.291 51.5689 184.291 49.102V35.8718C184.291 33.395 182.424 31.4551 180.043 31.4551H134.769Z" fill="black"/>
<path d="M151.769 45.758C151.731 45.758 151.692 45.7505 151.655 45.7331L145.419 42.8775C145.321 42.8326 145.258 42.7342 145.258 42.6245C145.258 42.5161 145.321 42.4165 145.418 42.3716L151.654 39.4986C151.792 39.4338 151.955 39.4961 152.019 39.6356C152.082 39.7752 152.022 39.9396 151.884 40.0032L146.198 42.6233L151.882 45.2272C152.021 45.2908 152.082 45.4552 152.019 45.5948C151.974 45.6982 151.874 45.758 151.769 45.758Z" fill="black"/>
<path d="M160.697 45.758C160.592 45.758 160.492 45.697 160.447 45.5948C160.384 45.4553 160.446 45.2908 160.584 45.2273L166.268 42.6234L160.582 40.0032C160.444 39.9397 160.384 39.7752 160.447 39.6357C160.51 39.4961 160.673 39.4351 160.812 39.4986L167.048 42.3717C167.145 42.4165 167.208 42.5162 167.208 42.6246C167.208 42.733 167.145 42.8327 167.047 42.8775L160.811 45.7331C160.774 45.7506 160.735 45.758 160.697 45.758Z" fill="black"/>
<path d="M153.643 49.1107C153.61 49.1107 153.578 49.1045 153.545 49.092C153.403 49.0372 153.331 48.8765 153.385 48.7332L158.239 35.9104C158.294 35.7671 158.453 35.6961 158.595 35.7496C158.737 35.8045 158.807 35.9652 158.753 36.1085L153.899 48.9313C153.859 49.0422 153.754 49.1107 153.643 49.1107Z" fill="black"/>
<path d="M144.729 203.766C144.622 203.766 144.522 203.705 144.477 203.601C144.415 203.46 144.478 203.297 144.616 203.234C158.816 196.884 171.695 186.593 181.861 173.475C181.953 173.354 182.127 173.333 182.247 173.427C182.367 173.522 182.388 173.696 182.294 173.817C172.072 187.006 159.122 197.355 144.84 203.743C144.803 203.759 144.766 203.766 144.729 203.766Z" fill="black"/>
<path d="M143.369 211.09C143.259 211.09 143.154 211.022 143.112 210.913C143.058 210.77 143.127 210.609 143.269 210.553C156.929 205.202 169.168 196.717 179.646 185.336C179.75 185.224 179.924 185.217 180.035 185.321C180.146 185.425 180.152 185.601 180.049 185.713C169.515 197.157 157.208 205.689 143.469 211.07C143.436 211.083 143.402 211.09 143.369 211.09Z" fill="black"/>
<path d="M83.1812 9.41282C83.0554 9.41282 82.9431 9.3256 82.9135 9.19728C82.8789 9.04777 82.9715 8.89826 83.1195 8.86462C97.3375 5.55426 111.421 5.33249 124.98 8.20429C125.129 8.23544 125.224 8.3837 125.192 8.53321C125.161 8.68396 125.014 8.77865 124.866 8.74751C111.385 5.8919 97.3807 6.11367 83.2417 9.40534C83.2232 9.41033 83.2022 9.41282 83.1812 9.41282Z" fill="black"/>
<path d="M130.27 3.61187C130.246 3.61187 130.224 3.60938 130.201 3.60315C118.583 0.560657 106.423 -0.208065 94.0581 1.31692C93.9075 1.33436 93.7706 1.22721 93.7521 1.07521C93.7336 0.923214 93.8409 0.784919 93.9914 0.76623C106.425 -0.76872 118.654 0.00498467 130.339 3.06492C130.486 3.10354 130.575 3.25554 130.536 3.4038C130.504 3.52839 130.392 3.61187 130.27 3.61187Z" fill="black"/>
<path d="M138.06 206.22C139.076 206.22 139.901 205.388 139.901 204.363C139.901 203.337 139.076 202.505 138.06 202.505C137.043 202.505 136.219 203.337 136.219 204.363C136.219 205.388 137.043 206.22 138.06 206.22Z" fill="black"/>
<path d="M9.98585 95.8198C9.91675 95.8198 9.84889 95.7937 9.79583 95.7426C9.68602 95.6367 9.68232 95.461 9.7872 95.3501L10.8002 94.2824C10.9051 94.1715 11.0803 94.1678 11.1889 94.2737C11.2987 94.3796 11.3024 94.5552 11.1975 94.6661L10.1845 95.7339C10.1314 95.7912 10.0586 95.8198 9.98585 95.8198Z" fill="black"/>
<path d="M6.43897 99.5547C6.36988 99.5547 6.30201 99.5285 6.24896 99.4774C6.13914 99.3715 6.13544 99.1959 6.24032 99.085L7.25333 98.0172C7.35821 97.9064 7.53342 97.9026 7.642 98.0085C7.75182 98.1144 7.75552 98.2901 7.65064 98.401L6.63763 99.4687C6.58334 99.526 6.51177 99.5547 6.43897 99.5547Z" fill="black"/>
<path d="M7.43548 95.8772C7.36515 95.8772 7.29606 95.851 7.243 95.7974L6.21518 94.7758C6.1066 94.6687 6.10537 94.4917 6.21148 94.3833C6.3176 94.2737 6.49281 94.2725 6.60015 94.3796L7.62797 95.4012C7.73655 95.5084 7.73778 95.6853 7.63044 95.7937C7.57861 95.8485 7.50705 95.8772 7.43548 95.8772Z" fill="black"/>
<path d="M11.037 99.4519C10.9667 99.4519 10.8976 99.4257 10.8446 99.3722L9.81675 98.3505C9.70817 98.2434 9.70693 98.0664 9.81305 97.9581C9.91916 97.8484 10.0944 97.8472 10.2017 97.9543L11.2295 98.976C11.3381 99.0831 11.3393 99.26 11.2332 99.3684C11.1789 99.4245 11.1086 99.4519 11.037 99.4519Z" fill="black"/>
<path d="M135.845 8.75121C135.516 8.75121 135.186 8.68892 134.869 8.56433C134.179 8.29397 133.636 7.76197 133.34 7.068C132.734 5.65016 133.362 3.98937 134.741 3.36393C135.404 3.06242 136.142 3.04374 136.82 3.30911C137.508 3.57947 138.052 4.11147 138.348 4.80544C138.954 6.22328 138.326 7.88406 136.948 8.50951C136.595 8.67147 136.22 8.75121 135.845 8.75121ZM135.844 3.68039C135.545 3.68039 135.247 3.74393 134.966 3.87226C133.861 4.37311 133.359 5.70872 133.846 6.84872C134.084 7.40564 134.519 7.83049 135.069 8.04728C135.607 8.25908 136.195 8.24288 136.722 8.00367C137.828 7.50282 138.33 6.16721 137.843 5.02721C137.604 4.47029 137.17 4.04544 136.62 3.82865C136.368 3.73023 136.105 3.68039 135.844 3.68039Z" fill="black"/>
</g>
<defs>
<clipPath id="clip0_8_2585">
<rect width="228" height="228" fill="white"/>
</clipPath>
</defs>
</svg>
