<svg width="465" height="410" viewBox="0 0 465 410" fill="none" xmlns="http://www.w3.org/2000/svg">
<g clip-path="url(#clip0_8_2781)">
<path d="M376.631 223.675C376.631 239.339 363.942 252.02 348.294 252.02C332.646 252.02 319.969 239.339 319.969 223.675C319.969 208.023 332.646 195.33 348.294 195.33C363.942 195.33 376.631 208.034 376.631 223.675Z" stroke="#FF879F" stroke-miterlimit="10"/>
<path d="M176.952 157.833C176.952 173.497 164.263 186.178 148.615 186.178C132.967 186.178 120.289 173.497 120.289 157.833C120.289 142.181 132.967 129.488 148.615 129.488C164.263 129.488 176.952 142.181 176.952 157.833Z" stroke="#4675CD" stroke-miterlimit="10"/>
<path d="M66.2726 253.135C55.6548 280.604 61.5726 299.614 67.7976 313.183C68.4463 288.015 72.9756 246.533 93.1074 209.719C92.6067 210.208 76.7084 226.088 66.2726 253.135Z" fill="#8DB566"/>
<path d="M67.7969 313.183C95.6104 297.008 91.4566 242.389 93.1067 209.719C72.9749 246.533 68.4456 288.015 67.7969 313.183Z" fill="#A7D678"/>
<path d="M67.7995 313.194C67.4354 327.446 68.3116 336.474 68.3116 336.474" stroke="#213D8C" stroke-linecap="round" stroke-linejoin="round"/>
<path d="M93.1067 209.719C72.9749 246.533 68.4456 288.015 67.7969 313.183" stroke="#213D8C" stroke-linecap="round" stroke-linejoin="round"/>
<path d="M93.1188 209.707L93.1074 209.718M93.1074 209.718C92.6067 210.208 76.7084 226.088 66.2726 253.135C55.6548 280.604 61.5726 299.614 67.7976 313.183V313.195C95.6111 297.007 91.4459 242.389 93.1074 209.718Z" stroke="#213D8C" stroke-linecap="round" stroke-linejoin="round"/>
<path d="M35.6978 272.384C52.9504 290.381 54.5209 307.161 54.077 319.796C45.3597 300.342 28.3006 269.413 0.578125 247.227C1.12438 247.443 18.7297 254.66 35.6978 272.384Z" fill="#8DB566"/>
<path d="M54.077 319.796C27.0829 316.233 12.5161 272.213 0.578125 247.227C28.312 269.413 45.3711 300.342 54.077 319.796Z" fill="#A7D678"/>
<path d="M54.0781 319.809C59.0058 330.828 61.2705 338.159 61.2705 338.159" stroke="#213D8C" stroke-linecap="round" stroke-linejoin="round"/>
<path d="M0.578125 247.227C28.312 269.424 45.3711 300.342 54.077 319.796" stroke="#213D8C" stroke-linecap="round" stroke-linejoin="round"/>
<path d="M0.570312 247.216C1.12795 247.443 18.7333 254.661 35.7014 272.385C52.9539 290.382 54.5244 307.161 54.0806 319.797V319.808C27.0865 316.234 12.531 272.214 0.570312 247.216Z" stroke="#213D8C" stroke-linecap="round" stroke-linejoin="round"/>
<path d="M85.535 271.395C72.4248 292.602 74.3936 309.336 77.4663 321.596C81.9274 300.753 92.1469 266.944 114.634 239.441C114.134 239.783 98.4289 250.518 85.535 271.395Z" fill="#8DB566"/>
<path d="M77.4688 321.596C103.131 312.467 108.173 266.375 114.637 239.441C92.1494 266.944 81.9298 300.753 77.4688 321.596Z" fill="#A7D678"/>
<path d="M77.4635 321.607C74.9371 333.412 74.2656 341.062 74.2656 341.062" stroke="#213D8C" stroke-linecap="round" stroke-linejoin="round"/>
<path d="M114.621 239.453C92.1337 266.944 81.9142 300.765 77.4531 321.608" stroke="#213D8C" stroke-linecap="round" stroke-linejoin="round"/>
<path d="M114.634 239.441C114.134 239.783 98.4289 250.518 85.535 271.395C72.4248 292.602 74.3936 309.336 77.4663 321.596V321.608C103.129 312.467 108.159 266.386 114.634 239.441Z" stroke="#213D8C" stroke-linecap="round" stroke-linejoin="round"/>
<path d="M15.4062 195.523C16.0094 195.979 35.3104 210.925 49.8886 239.316C67.7444 274.07 62.885 293.148 59.6643 307.344C52.8134 256.027 36.9264 222.582 15.4062 195.523Z" fill="#8DB566"/>
<path d="M15.4062 195.523C36.9378 222.582 52.8134 256.027 59.6643 307.344C20.7095 285.704 29.7796 231.734 15.4062 195.523Z" fill="#A7D678"/>
<path d="M15.4062 195.523C36.9378 222.582 52.8134 256.027 59.6643 307.344C60.8934 316.576 61.8266 326.377 62.4525 336.827" stroke="#213D8C" stroke-linecap="round" stroke-linejoin="round"/>
<path d="M15.4062 195.523C16.0094 195.979 35.3104 210.925 49.8886 239.316C67.7444 274.07 62.885 293.148 59.6643 307.344C20.7095 285.704 29.7796 231.734 15.4062 195.523Z" stroke="#213D8C" stroke-linecap="round" stroke-linejoin="round"/>
<path d="M15.4097 195.523L15.3984 195.512" stroke="#213D8C" stroke-linecap="round" stroke-linejoin="round"/>
<path d="M91.2156 320.548H42.3371L39.0938 325.932L52.2949 395.474H81.2579L94.459 325.932L91.2156 320.548Z" fill="white" stroke="#213D8C" stroke-linecap="round" stroke-linejoin="round"/>
<path d="M49.6633 371.103H45.3047V409.431H49.6633V371.103Z" fill="#F7CDBA" stroke="#213D8C" stroke-linecap="round" stroke-linejoin="round"/>
<path d="M88.2415 371.103H83.8828V409.431H88.2415V371.103Z" fill="#F7CDBA" stroke="#213D8C" stroke-linecap="round" stroke-linejoin="round"/>
<path d="M91.2842 368.393H42.2578V373.811H91.2842V368.393Z" fill="#F7CDBA" stroke="#213D8C" stroke-linecap="round" stroke-linejoin="round"/>
<path d="M39.0938 325.933H94.459" stroke="#213D8C" stroke-linecap="round" stroke-linejoin="round"/>
<path d="M416.07 253.135C405.452 280.604 411.369 299.614 417.594 313.183C418.243 288.015 422.773 246.533 442.904 209.719C442.404 210.208 426.505 226.088 416.07 253.135Z" fill="#8DB566"/>
<path d="M417.594 313.183C445.407 297.008 441.253 242.389 442.904 209.719C422.772 246.533 418.242 288.015 417.594 313.183Z" fill="#A7D678"/>
<path d="M417.596 313.194C417.232 327.446 418.109 336.474 418.109 336.474" stroke="#213D8C" stroke-linecap="round" stroke-linejoin="round"/>
<path d="M442.904 209.719C422.772 246.533 418.242 288.015 417.594 313.183" stroke="#213D8C" stroke-linecap="round" stroke-linejoin="round"/>
<path d="M442.916 209.707L442.904 209.718M442.904 209.718C442.404 210.208 426.505 226.088 416.07 253.135C405.452 280.604 411.369 299.614 417.594 313.183V313.195C445.408 297.007 441.243 242.389 442.904 209.718Z" stroke="#213D8C" stroke-linecap="round" stroke-linejoin="round"/>
<path d="M385.495 272.384C402.747 290.381 404.318 307.161 403.874 319.796C395.157 300.342 378.097 269.413 350.375 247.227C350.921 247.443 368.527 254.66 385.495 272.384Z" fill="#8DB566"/>
<path d="M403.874 319.796C376.88 316.233 362.313 272.213 350.375 247.227C378.109 269.413 395.168 300.342 403.874 319.796Z" fill="#A7D678"/>
<path d="M403.875 319.809C408.803 330.828 411.067 338.159 411.067 338.159" stroke="#213D8C" stroke-linecap="round" stroke-linejoin="round"/>
<path d="M350.375 247.227C378.109 269.424 395.168 300.342 403.874 319.796" stroke="#213D8C" stroke-linecap="round" stroke-linejoin="round"/>
<path d="M350.367 247.216C350.925 247.443 368.53 254.661 385.498 272.385C402.751 290.382 404.321 307.161 403.877 319.797V319.808C376.883 316.234 362.328 272.214 350.367 247.216Z" stroke="#213D8C" stroke-linecap="round" stroke-linejoin="round"/>
<path d="M435.332 271.394C422.222 292.601 424.191 309.335 427.263 321.595C431.724 300.752 441.944 266.943 464.431 239.44C463.931 239.782 448.237 250.517 435.332 271.394Z" fill="#8DB566"/>
<path d="M427.266 321.595C452.928 312.466 457.97 266.374 464.434 239.44C441.946 266.943 431.727 300.752 427.266 321.595Z" fill="#A7D678"/>
<path d="M427.26 321.606C424.734 333.411 424.062 341.061 424.062 341.061" stroke="#213D8C" stroke-linecap="round" stroke-linejoin="round"/>
<path d="M464.426 239.451C441.938 266.942 431.719 300.763 427.258 321.606" stroke="#213D8C" stroke-linecap="round" stroke-linejoin="round"/>
<path d="M464.431 239.44C463.931 239.782 448.226 250.517 435.332 271.394C422.222 292.601 424.191 309.335 427.263 321.595V321.607C452.926 312.466 457.967 266.385 464.431 239.44Z" stroke="#213D8C" stroke-linecap="round" stroke-linejoin="round"/>
<path d="M365.203 195.523C365.806 195.979 385.107 210.925 399.685 239.316C417.541 274.07 412.682 293.148 409.461 307.344C402.61 256.027 386.723 222.582 365.203 195.523Z" fill="#8DB566"/>
<path d="M365.203 195.523C386.735 222.582 402.61 256.027 409.461 307.344C370.506 285.704 379.576 231.734 365.203 195.523Z" fill="#A7D678"/>
<path d="M365.203 195.523C386.735 222.582 402.61 256.027 409.461 307.344C410.69 316.576 411.623 326.377 412.249 336.827" stroke="#213D8C" stroke-linecap="round" stroke-linejoin="round"/>
<path d="M365.203 195.523C365.806 195.979 385.107 210.925 399.685 239.316C417.541 274.07 412.682 293.148 409.461 307.344C370.506 285.704 379.576 231.734 365.203 195.523Z" stroke="#213D8C" stroke-linecap="round" stroke-linejoin="round"/>
<path d="M365.207 195.523L365.195 195.512" stroke="#213D8C" stroke-linecap="round" stroke-linejoin="round"/>
<path d="M441.012 320.548H392.134L388.891 325.932L402.092 395.474H431.055L444.256 325.932L441.012 320.548Z" fill="white" stroke="#213D8C" stroke-linecap="round" stroke-linejoin="round"/>
<path d="M399.46 371.103H395.102V409.431H399.46V371.103Z" fill="#F7CDBA" stroke="#213D8C" stroke-linecap="round" stroke-linejoin="round"/>
<path d="M438.038 371.103H433.68V409.431H438.038V371.103Z" fill="#F7CDBA" stroke="#213D8C" stroke-linecap="round" stroke-linejoin="round"/>
<path d="M441.089 368.393H392.062V373.811H441.089V368.393Z" fill="#F7CDBA" stroke="#213D8C" stroke-linecap="round" stroke-linejoin="round"/>
<path d="M388.891 325.933H444.256" stroke="#213D8C" stroke-linecap="round" stroke-linejoin="round"/>
<path d="M183.992 318.499H177.141V389.862H183.992V318.499Z" fill="#E1EDF7" stroke="#213D8C" stroke-linecap="round" stroke-linejoin="round"/>
<path d="M190.536 319.786C190.536 321.835 188.874 323.485 186.837 323.485H174.285C172.236 323.485 170.586 321.823 170.586 319.786V302.153C170.586 300.104 172.247 298.453 174.285 298.453H186.837C188.885 298.453 190.536 300.115 190.536 302.153V319.786Z" fill="#E1EDF7" stroke="#213D8C" stroke-linecap="round" stroke-linejoin="round"/>
<path d="M186.425 391.775C186.425 392.982 185.446 393.949 184.251 393.949H176.877C175.67 393.949 174.703 392.97 174.703 391.775V381.405C174.703 380.198 175.682 379.23 176.877 379.23H184.251C185.458 379.23 186.425 380.209 186.425 381.405V391.775Z" fill="#E1EDF7" stroke="#213D8C" stroke-linecap="round" stroke-linejoin="round"/>
<path d="M186.79 397.524L214.012 405.959L217.403 409.431H225.119L221.204 403.557L186.79 385.605H174.329L139.915 403.557L136 409.431H143.716L147.107 405.959L174.329 397.524H186.79Z" fill="#E1EDF7" stroke="#213D8C" stroke-linecap="round" stroke-linejoin="round"/>
<path d="M224.766 303.747C224.766 305.796 223.105 307.447 221.068 307.447H133.644C131.595 307.447 129.945 305.785 129.945 303.747V290.997C129.945 288.948 131.607 287.298 133.644 287.298H221.068C223.116 287.298 224.766 288.96 224.766 290.997V303.747Z" fill="#FFD373" stroke="#213D8C" stroke-linecap="round" stroke-linejoin="round"/>
<path d="M182.715 262.982C187.825 262.982 191.489 258.839 190.909 253.727L179.995 171.322C179.415 166.211 174.806 162.067 169.696 162.067H115.981C110.871 162.067 107.207 166.211 107.787 171.322L118.701 253.727C119.281 258.839 123.89 262.982 129 262.982H182.715Z" fill="#FFBB73" stroke="#213D8C" stroke-linecap="round" stroke-linejoin="round"/>
<path d="M135.772 253.727C136.352 258.839 132.688 262.982 127.578 262.982C122.468 262.982 117.859 258.839 117.279 253.727L106.365 171.322C105.785 166.211 109.449 162.067 114.559 162.067C119.669 162.067 124.278 166.211 124.858 171.322L135.772 253.727Z" fill="#FFD373" stroke="#213D8C" stroke-linecap="round" stroke-linejoin="round"/>
<path d="M194.435 167.259C197.189 170.378 211.779 197.004 212.188 197.63C212.598 198.245 205.508 206.577 197.383 208.535H191.727V167.27H194.435V167.259Z" fill="white" stroke="#213D8C" stroke-linecap="round" stroke-linejoin="round"/>
<path d="M170.411 157.833C170.411 157.833 151.792 164.72 146.079 168.579C140.378 172.438 139.137 173.975 139.911 179.382C140.685 184.778 147.616 227.659 147.775 232.293C147.934 236.926 141.914 259.909 141.914 259.909C141.914 259.909 177.535 263.609 201.445 254.661C201.445 254.661 196.972 231.678 196.972 226.43C196.972 221.182 201.285 210.231 201.445 200.829C201.604 191.414 198.201 182.399 197.132 178.005C196.05 173.611 196.665 169.979 194.821 167.668C192.966 165.358 177.785 157.856 177.785 157.856H170.411V157.833Z" fill="white" stroke="#213D8C" stroke-linecap="round" stroke-linejoin="round"/>
<path d="M184.207 141.805C184.207 141.805 181.976 154.327 182.169 161.931C182.169 161.931 176.582 169.126 166.852 162.546V136.318L184.207 141.805Z" fill="white"/>
<path d="M166.852 148.783C168.627 150.138 174.818 154.839 182.169 159.928C182.329 152.312 184.207 141.794 184.207 141.794L166.852 136.318V148.783Z" fill="#BADBF7"/>
<path d="M184.207 141.805C184.207 141.805 181.976 154.327 182.169 161.931C182.169 161.931 176.582 169.126 166.852 162.546V136.318L184.207 141.805Z" stroke="#213D8C" stroke-linecap="round" stroke-linejoin="round"/>
<path d="M265.953 342.109L271.313 352.855L263.153 358.957L257.008 347.369L265.953 342.109Z" fill="white" stroke="#213D8C" stroke-linecap="round" stroke-linejoin="round"/>
<path d="M296.118 348.874L265.805 366.681L267.136 368.948L297.449 351.141L296.118 348.874Z" fill="#E1EDF7" stroke="#213D8C" stroke-linecap="round" stroke-linejoin="round"/>
<path d="M286.31 348.894C286.31 348.894 285.263 347.369 283.659 347.46C282.054 347.551 272.278 347.733 271.004 347.745C269.729 347.745 268.841 347.244 268.147 347.87C267.442 348.496 267.1 351.364 269.831 351.74C272.563 352.116 286.083 350.955 286.083 350.955L286.31 348.894Z" fill="#BADBF7" stroke="#213D8C" stroke-linecap="round" stroke-linejoin="round"/>
<path d="M284.683 351.751C284.421 350.67 284.341 350.169 282.76 349.93C281.178 349.679 273.587 350.408 271.664 350.305C269.741 350.203 269.08 350.544 268.045 352.696C267.009 354.847 265.712 355.212 263.971 356.612C262.229 358.012 261.797 357.727 262.025 359.036C262.252 360.346 264.46 364.41 265.792 366.675L287.448 353.948L284.683 351.751Z" fill="white" stroke="#213D8C" stroke-linecap="round" stroke-linejoin="round"/>
<path d="M296.123 348.871C296.123 348.871 294.95 347.232 292.97 347.232C290.99 347.22 287.303 347.937 285.937 348.165C284.572 348.381 284.185 351.819 285.448 355.154L296.123 348.871Z" fill="white" stroke="#213D8C" stroke-linecap="round" stroke-linejoin="round"/>
<path d="M280.016 351.091C280.004 351.603 280.403 352.024 280.915 352.036C281.427 352.047 281.848 351.649 281.859 351.136L281.951 347.152C281.962 346.64 281.564 346.219 281.051 346.207C280.539 346.196 280.118 346.594 280.107 347.107L280.016 351.091Z" fill="white" stroke="#213D8C" stroke-linecap="round" stroke-linejoin="round"/>
<path d="M275.422 351.034C275.411 351.547 275.809 351.968 276.321 351.979C276.833 351.991 277.254 351.592 277.254 351.08L277.357 347.107C277.368 346.595 276.97 346.174 276.458 346.162C275.946 346.151 275.525 346.549 275.513 347.062L275.422 351.034Z" fill="white" stroke="#213D8C" stroke-linecap="round" stroke-linejoin="round"/>
<path d="M271.142 351.386C271.153 351.899 271.586 352.297 272.086 352.274C272.598 352.263 272.997 351.83 272.974 351.329L272.849 347.357C272.826 346.844 272.405 346.446 271.904 346.469C271.392 346.491 270.994 346.913 271.017 347.425L271.142 351.386Z" fill="white" stroke="#213D8C" stroke-linecap="round" stroke-linejoin="round"/>
<path d="M202.965 132.424C205.002 134.336 205.89 134.587 205.458 135.964C205.036 137.342 202.999 138.264 202.476 138.446C201.941 138.628 201.338 139.209 202.351 140.54C202.191 141.041 201.486 141.667 200.416 141.804C200.416 141.804 201.042 142.851 200.894 143.603C200.746 144.343 199.563 144.764 199.563 146.346C199.574 147.94 200.462 150.262 198.049 150.797C195.636 151.343 178.85 150.057 174.981 143.068C173.65 142.658 172.466 141.918 171.487 141.007L171.453 140.996C172.261 137.046 173.365 134.428 174.332 131.935C175.004 132.504 175.527 133.289 175.778 134.28C183.926 128.121 181.889 117.808 181.889 117.808C181.889 117.808 185.997 122.486 195.067 122.224L195.181 121.974C196.353 122.441 197.605 122.771 198.925 122.896C200.268 129.829 201.11 130.705 202.965 132.424Z" fill="white"/>
<path d="M195.155 121.986L195.041 122.237C185.971 122.498 181.863 117.82 181.863 117.82C181.863 117.82 183.9 128.133 175.752 134.292C175.501 133.301 174.978 132.516 174.306 131.947C173.339 134.44 172.246 137.058 171.427 141.008C171.37 141.27 171.313 141.543 171.268 141.816C169.515 151.151 172.645 155.875 178.153 160.405C170.653 165.243 156.917 165.346 151.933 155.875C146.994 146.518 151.318 139.471 153.64 121.007C155.335 107.506 164.679 107.028 164.679 107.028C164.679 107.028 169.777 97.9783 184.196 100.403C198.615 102.805 201.13 116.442 200.663 122.976C200.06 122.999 199.468 122.988 198.888 122.931C197.568 122.794 196.327 122.453 195.155 121.986Z" fill="#4675CD"/>
<path d="M180.284 128.122C180.58 127.279 180.853 126.46 181.047 125.617C181.263 124.775 181.388 123.91 181.502 123.056C181.593 122.191 181.627 121.326 181.604 120.472C181.593 120.039 181.559 119.618 181.513 119.186C181.468 118.764 181.399 118.332 181.308 117.956C181.229 117.649 181.422 117.342 181.729 117.273C181.946 117.216 182.162 117.296 182.298 117.455C182.412 117.592 182.583 117.751 182.731 117.899C182.89 118.047 183.049 118.195 183.22 118.332C183.562 118.605 183.914 118.878 184.29 119.117C185.03 119.607 185.815 120.039 186.634 120.404C187.465 120.757 188.307 121.075 189.172 121.303C190.037 121.553 190.936 121.713 191.835 121.849H191.846C192.006 121.872 192.108 122.02 192.085 122.18C192.063 122.328 191.926 122.43 191.778 122.419C190.856 122.328 189.923 122.202 189.013 121.997C188.091 121.804 187.203 121.519 186.316 121.201C185.439 120.859 184.586 120.449 183.766 119.971C183.357 119.732 182.958 119.47 182.572 119.186C182.378 119.049 182.185 118.89 182.003 118.742C181.809 118.582 181.638 118.434 181.445 118.229L182.424 117.717C182.515 118.218 182.56 118.651 182.594 119.117C182.617 119.573 182.64 120.028 182.617 120.483C182.594 121.394 182.515 122.305 182.378 123.193C182.219 124.081 182.048 124.968 181.775 125.834C181.525 126.71 181.206 127.553 180.864 128.361C180.796 128.52 180.614 128.6 180.455 128.532C180.307 128.452 180.227 128.281 180.284 128.122Z" fill="#213D8C"/>
<path d="M175.38 133.871C175.38 133.871 175.517 133.746 175.756 133.541C175.87 133.438 176.018 133.313 176.177 133.165C176.302 133.017 176.45 132.846 176.598 132.653C176.757 132.471 176.928 132.277 177.087 132.015C177.247 131.765 177.429 131.526 177.588 131.241C177.725 130.957 177.873 130.661 178.021 130.353C178.191 130.057 178.26 129.716 178.385 129.397C178.499 129.067 178.624 128.748 178.669 128.407C178.738 128.077 178.806 127.747 178.874 127.428C178.931 127.109 178.931 126.79 178.954 126.494C178.977 126.198 178.999 125.914 179.022 125.652C178.965 124.605 178.977 123.876 178.977 123.876V123.853C178.977 123.762 179.056 123.683 179.147 123.683C179.227 123.683 179.295 123.74 179.307 123.808C179.307 123.808 179.477 124.514 179.671 125.618C179.693 125.891 179.693 126.198 179.705 126.517C179.705 126.836 179.728 127.177 179.705 127.519C179.659 127.872 179.614 128.225 179.568 128.589C179.534 128.953 179.432 129.317 179.329 129.682C179.216 130.035 179.159 130.422 178.999 130.752C178.851 131.093 178.703 131.423 178.555 131.754C178.396 132.072 178.203 132.357 178.032 132.641C177.873 132.926 177.691 133.176 177.486 133.404C177.292 133.632 177.11 133.837 176.962 134.019C176.803 134.167 176.655 134.292 176.541 134.394C176.302 134.599 176.177 134.725 176.177 134.725C175.938 134.93 175.585 134.918 175.369 134.679C175.13 134.44 175.141 134.076 175.38 133.871Z" fill="#213D8C"/>
<path d="M174.32 131.947C174.992 132.516 175.515 133.302 175.766 134.292" stroke="#213D8C" stroke-linecap="round" stroke-linejoin="round"/>
<path d="M198.9 122.92C200.265 129.83 201.107 130.706 202.962 132.437C204.999 134.349 205.887 134.599 205.455 135.977C205.034 137.354 202.997 138.276 202.473 138.458C201.938 138.641 201.335 139.221 202.348 140.553C202.188 141.054 201.483 141.68 200.413 141.817C200.413 141.817 201.039 142.864 200.891 143.615C200.743 144.355 199.56 144.776 199.56 146.359C199.571 147.952 200.459 150.274 198.046 150.81C195.633 151.356 178.847 150.07 174.978 143.08C173.647 142.67 172.463 141.93 171.484 141.02" stroke="#213D8C" stroke-linecap="round" stroke-linejoin="round"/>
<path d="M173.783 131.753C173.783 131.753 174.079 131.002 174.534 129.863C174.637 129.579 174.785 129.272 174.876 128.953C174.978 128.623 175.081 128.281 175.183 127.928C175.286 127.575 175.399 127.2 175.513 126.824C175.65 126.448 175.673 126.05 175.752 125.663C175.889 124.878 176.025 124.081 176.162 123.341C176.207 122.589 176.242 121.884 176.276 121.28C176.344 120.074 176.389 119.265 176.389 119.265V119.243C176.389 119.14 176.481 119.049 176.594 119.061C176.697 119.061 176.776 119.152 176.776 119.254C176.776 119.254 176.776 120.074 176.788 121.292C176.788 121.906 176.788 122.624 176.788 123.386C176.697 124.149 176.606 124.969 176.515 125.788C176.458 126.198 176.458 126.608 176.333 127.006C176.242 127.405 176.139 127.792 176.048 128.167C175.957 128.543 175.866 128.907 175.786 129.26C175.718 129.613 175.593 129.909 175.502 130.205C175.115 131.366 174.864 132.129 174.864 132.129V132.14C174.762 132.436 174.443 132.596 174.148 132.504C173.852 132.402 173.692 132.083 173.783 131.787C173.772 131.776 173.772 131.765 173.783 131.753Z" fill="#213D8C"/>
<path d="M171.281 141.805C171.327 141.532 171.384 141.259 171.441 140.997C172.249 137.047 173.352 134.429 174.32 131.936" stroke="#213D8C" stroke-linecap="round" stroke-linejoin="round"/>
<path d="M172.292 153.951C172.292 153.951 172.201 153.781 172.053 153.473C171.974 153.325 171.883 153.143 171.78 152.927C171.666 152.722 171.587 152.46 171.473 152.187C171.37 151.914 171.234 151.618 171.143 151.288C171.052 150.957 170.949 150.616 170.847 150.263C170.756 149.91 170.699 149.523 170.631 149.147C170.551 148.772 170.506 148.373 170.471 147.986C170.449 147.599 170.369 147.201 170.38 146.814C170.38 146.427 170.369 146.04 170.369 145.676C170.358 145.3 170.403 144.947 170.415 144.617C170.437 144.275 170.449 143.957 170.471 143.661C170.619 142.488 170.71 141.714 170.71 141.714C170.745 141.407 171.029 141.179 171.348 141.225C171.655 141.259 171.883 141.543 171.837 141.862C171.837 141.873 171.837 141.885 171.837 141.896L171.826 141.93C171.826 141.93 171.689 142.682 171.473 143.797C171.439 144.082 171.405 144.389 171.359 144.708C171.325 145.027 171.257 145.368 171.257 145.721C171.245 146.074 171.223 146.438 171.2 146.814C171.166 147.19 171.211 147.565 171.211 147.941C171.223 148.316 171.234 148.704 171.291 149.068C171.336 149.432 171.37 149.808 171.439 150.149C171.518 150.502 171.587 150.832 171.655 151.151C171.723 151.47 171.837 151.754 171.917 152.028C172.008 152.301 172.065 152.551 172.167 152.767C172.258 152.984 172.338 153.177 172.406 153.325C172.543 153.633 172.611 153.815 172.611 153.815C172.656 153.906 172.611 154.02 172.509 154.065C172.44 154.088 172.338 154.042 172.292 153.951Z" fill="#213D8C"/>
<path d="M177.908 160.895C177.908 160.895 177.76 160.815 177.51 160.679C177.248 160.531 176.896 160.36 176.452 160.075C176.008 159.814 175.507 159.483 174.984 159.108C174.722 158.937 174.46 158.709 174.198 158.504C173.937 158.288 173.664 158.083 173.436 157.833C173.197 157.594 172.947 157.355 172.708 157.116C172.491 156.865 172.275 156.603 172.07 156.364C171.649 155.886 171.342 155.363 171.046 154.964C170.773 154.532 170.58 154.156 170.432 153.905C170.284 153.644 170.204 153.507 170.204 153.507C170.136 153.382 170.181 153.234 170.295 153.154C170.409 153.086 170.557 153.12 170.636 153.234L170.648 153.257C170.648 153.257 170.739 153.393 170.898 153.632C171.057 153.871 171.274 154.224 171.558 154.623C171.877 154.998 172.184 155.476 172.617 155.909C172.821 156.125 173.049 156.353 173.265 156.592C173.504 156.797 173.755 157.013 173.994 157.229C174.233 157.446 174.506 157.628 174.756 157.821C175.018 158.004 175.257 158.197 175.53 158.356C176.042 158.687 176.531 158.971 176.964 159.187C177.374 159.427 177.772 159.586 178.034 159.711C178.295 159.836 178.443 159.905 178.443 159.905C178.728 160.041 178.853 160.383 178.716 160.667C178.58 160.952 178.238 161.077 177.954 160.941C177.931 160.906 177.92 160.906 177.908 160.895Z" fill="#213D8C"/>
<path d="M193.428 121.167C193.974 121.474 194.555 121.747 195.146 121.986C196.319 122.453 197.57 122.783 198.891 122.908C199.471 122.965 200.063 122.988 200.666 122.954C201.132 116.431 198.617 102.794 184.199 100.38C169.78 97.967 164.681 107.006 164.681 107.006C164.681 107.006 155.327 107.484 153.642 120.984C151.321 139.449 147.008 146.495 151.935 155.852C156.92 165.312 170.645 165.221 178.156 160.383" stroke="#213D8C" stroke-linecap="round" stroke-linejoin="round"/>
<path d="M184.964 112.379C184.964 112.379 185.362 113.039 186.068 113.95C186.398 114.416 186.853 114.917 187.308 115.475C187.809 115.999 188.298 116.579 188.867 117.091C189.448 117.592 189.96 118.161 190.551 118.56C191.132 118.981 191.621 119.425 192.122 119.698C193.089 120.279 193.738 120.654 193.738 120.654L193.795 120.689C194.068 120.848 194.159 121.201 193.988 121.474C193.829 121.747 193.476 121.838 193.203 121.668C193.192 121.668 193.18 121.656 193.169 121.645C193.169 121.645 192.509 121.201 191.519 120.518C191.018 120.188 190.529 119.698 189.96 119.22C189.379 118.765 188.879 118.139 188.321 117.592C187.775 117.023 187.308 116.397 186.83 115.839C186.409 115.236 185.977 114.701 185.669 114.211C185.009 113.244 184.645 112.549 184.645 112.549V112.538C184.6 112.447 184.634 112.333 184.725 112.276C184.793 112.265 184.907 112.288 184.964 112.379Z" fill="#213D8C"/>
<path d="M200.348 142.374C200.348 142.374 200.245 142.352 200.052 142.317C199.858 142.283 199.585 142.226 199.278 142.147C198.652 141.999 197.833 141.737 197.036 141.407C196.649 141.225 196.239 141.077 195.898 140.872C195.545 140.667 195.215 140.507 194.953 140.314C194.43 139.927 194.088 139.676 194.088 139.676C193.975 139.597 193.952 139.437 194.032 139.324C194.111 139.221 194.259 139.187 194.362 139.255L194.396 139.278C194.396 139.278 194.749 139.483 195.261 139.802C195.522 139.961 195.864 140.075 196.194 140.246C196.535 140.405 196.934 140.507 197.309 140.655C198.083 140.894 198.88 141.065 199.483 141.145C199.779 141.19 200.029 141.225 200.2 141.236C200.382 141.247 200.473 141.259 200.473 141.259H200.496C200.814 141.282 201.042 141.566 201.019 141.873C200.996 142.192 200.712 142.42 200.405 142.386C200.382 142.374 200.359 142.374 200.348 142.374Z" fill="#213D8C"/>
<path d="M193.798 129.169C194.082 130.091 194.867 130.672 195.562 130.467C196.244 130.262 196.574 129.328 196.29 128.406C196.005 127.484 195.22 126.904 194.526 127.109C193.843 127.325 193.513 128.247 193.798 129.169Z" fill="#213D8C"/>
<path d="M145.514 214.762V214.774C148.803 214.796 151.625 215.753 154.311 216.538C159.557 218.075 185.311 223.402 185.311 223.402C185.311 223.402 191.934 219.93 193.789 218.701C195.644 217.471 196.805 217.631 197.795 218.394C198.796 219.156 203.724 222.947 204.657 224.176C205.579 225.406 205.511 226.408 205.056 227.102C204.589 227.796 201.573 229.811 201.573 229.811C201.573 229.811 132.882 229.811 130.014 229.811C127.169 229.811 124.54 221.626 125.473 219.247C126.383 216.857 133.166 197.801 133.166 197.801L149.44 203.208L145.514 214.762Z" fill="white"/>
<path d="M134.498 218.007C138.811 215.502 142.384 214.728 145.514 214.774C148.803 214.796 151.625 215.753 154.311 216.538C159.557 218.075 185.311 223.402 185.311 223.402C185.311 223.402 191.934 219.93 193.789 218.701C195.644 217.471 196.805 217.631 197.795 218.394C198.796 219.156 203.724 222.947 204.657 224.176C205.579 225.406 205.511 226.408 205.056 227.102C204.589 227.796 201.573 229.811 201.573 229.811C201.573 229.811 132.882 229.811 130.014 229.811C127.169 229.811 124.54 221.626 125.473 219.247C126.383 216.857 133.166 197.801 133.166 197.801L149.44 203.208L145.502 214.774" stroke="#213D8C" stroke-linecap="round" stroke-linejoin="round"/>
<path d="M141.21 172.507C138.842 175.501 126.188 200.954 126.188 200.954C126.188 200.954 138.467 204.608 148.14 212.52C148.14 212.52 153.079 202.445 155.754 195.65L141.21 172.507Z" fill="white"/>
<path d="M150.789 205.622L155.512 195.558C155.569 195.433 155.717 195.376 155.842 195.433C155.967 195.49 156.024 195.638 155.967 195.763L151.825 206.065V206.077C151.711 206.373 151.381 206.509 151.085 206.396C150.789 206.282 150.653 205.952 150.767 205.656C150.778 205.644 150.778 205.633 150.789 205.622Z" fill="#213D8C"/>
<path d="M141.21 172.507C138.842 175.501 126.188 200.954 126.188 200.954C126.188 200.954 138.467 204.608 148.14 212.52C148.14 212.52 149.574 209.594 151.315 205.838" stroke="#213D8C" stroke-linecap="round" stroke-linejoin="round"/>
<path d="M268.046 186.462C268.558 185.335 268.058 184.425 266.931 184.425H208.743C207.617 184.425 206.285 185.335 205.773 186.462L189.42 222.412C188.908 223.539 189.408 224.449 190.535 224.449H248.723C249.849 224.449 251.181 223.539 251.693 222.412L268.046 186.462Z" fill="white" stroke="#213D8C" stroke-linecap="round" stroke-linejoin="round"/>
<path d="M236.036 206.281C234.989 209.73 231.347 212.53 227.899 212.53C224.45 212.53 222.493 209.73 223.54 206.281C224.587 202.832 228.229 200.031 231.677 200.031C235.125 200.031 237.071 202.832 236.036 206.281Z" fill="#E1EDF7" stroke="#213D8C" stroke-linecap="round" stroke-linejoin="round"/>
<path d="M190.535 224.461L151.319 227.136L148.633 229.811H190.535V224.461Z" fill="white" stroke="#213D8C" stroke-linecap="round" stroke-linejoin="round"/>
<path d="M248.719 224.461H190.531V229.811H248.719V224.461Z" fill="#E1EDF7" stroke="#213D8C" stroke-linecap="round" stroke-linejoin="round"/>
<path d="M169.016 256.745C169.016 256.745 178.518 255.413 201.165 253.147C214.753 260.057 225.508 266.83 230.754 300.15L169.016 256.745Z" fill="#BADBF7" stroke="#213D8C" stroke-linecap="round" stroke-linejoin="round"/>
<path d="M141.915 259.886C141.915 259.886 139.708 267.137 140.424 275.982C141.141 284.827 146.081 294.287 165.712 293.672C185.343 293.058 199.841 289.563 212.075 282.152C212.075 282.152 243.098 333.207 256.993 351.182C256.993 351.182 264.094 347.562 268.419 344.113C268.419 344.113 240.765 276.085 237.988 271.304C235.211 266.523 233.675 263.438 226.881 262.356C220.098 261.275 197.781 257.575 179.072 256.961C171.663 256.71 154.718 256.027 141.915 259.886Z" fill="#BADBF7" stroke="#213D8C" stroke-linecap="round" stroke-linejoin="round"/>
<path d="M234.304 383.238L236.648 395.02L227.18 398.765L224.289 385.959L234.304 383.238Z" fill="white" stroke="#213D8C" stroke-linecap="round" stroke-linejoin="round"/>
<path d="M261.65 397.677L227.727 406.9L228.416 409.438L262.34 400.215L261.65 397.677Z" fill="#E1EDF7" stroke="#213D8C" stroke-linecap="round" stroke-linejoin="round"/>
<path d="M252.16 395.122C252.16 395.122 251.545 393.381 249.975 393.039C248.404 392.698 238.924 390.319 237.695 389.988C236.455 389.658 235.738 388.941 234.896 389.362C234.054 389.784 232.973 392.459 235.51 393.54C238.048 394.622 251.397 397.046 251.397 397.046L252.16 395.122Z" fill="#BADBF7" stroke="#213D8C" stroke-linecap="round" stroke-linejoin="round"/>
<path d="M249.85 397.456C249.884 396.352 249.941 395.851 248.473 395.191C247.005 394.542 239.494 393.244 237.662 392.641C235.83 392.038 235.101 392.197 233.542 393.995C231.983 395.805 230.64 395.805 228.592 396.705C226.543 397.593 226.202 397.206 226.088 398.526C225.963 399.847 227.033 404.354 227.716 406.893L251.956 400.302L249.85 397.456Z" fill="white" stroke="#213D8C" stroke-linecap="round" stroke-linejoin="round"/>
<path d="M261.642 397.684C261.642 397.684 260.936 395.794 259.024 395.271C257.112 394.736 253.368 394.462 251.991 394.314C250.614 394.167 249.34 397.377 249.681 400.928L261.642 397.684Z" fill="white" stroke="#213D8C" stroke-linecap="round" stroke-linejoin="round"/>
<path d="M245.516 395.589C245.368 396.079 245.652 396.591 246.13 396.728C246.62 396.876 247.132 396.591 247.268 396.113L248.406 392.299C248.554 391.81 248.27 391.298 247.792 391.15C247.303 391.002 246.79 391.286 246.642 391.764L245.516 395.589Z" fill="white" stroke="#213D8C" stroke-linecap="round" stroke-linejoin="round"/>
<path d="M241.102 394.337C240.954 394.827 241.238 395.339 241.728 395.476C242.217 395.624 242.729 395.339 242.866 394.861L244.004 391.047C244.152 390.558 243.867 390.046 243.378 389.898C242.888 389.75 242.376 390.034 242.228 390.512L241.102 394.337Z" fill="white" stroke="#213D8C" stroke-linecap="round" stroke-linejoin="round"/>
<path d="M236.875 393.552C236.761 394.041 237.069 394.542 237.558 394.656C238.047 394.781 238.548 394.462 238.662 393.973L239.584 390.103C239.698 389.602 239.39 389.112 238.901 388.998C238.4 388.884 237.911 389.192 237.797 389.681L236.875 393.552Z" fill="white" stroke="#213D8C" stroke-linecap="round" stroke-linejoin="round"/>
<path d="M218.563 278.396C209.504 277.531 199.296 281.948 201.447 298.135C203.597 314.334 222.614 393.13 222.614 393.13C222.614 393.13 231.229 390.683 236.839 387.598C236.839 387.598 231.263 300.446 230.455 292.42C229.67 284.418 225.038 279.011 218.563 278.396Z" fill="#BADBF7" stroke="#213D8C" stroke-linecap="round" stroke-linejoin="round"/>
<path d="M347.676 180.099C347.676 180.099 338.47 209.411 331.687 219.395C328.774 221.33 320.523 222.764 318.702 222.855C316.881 222.946 315.311 224.153 313.137 224.847C310.963 225.542 308.926 226.589 307.185 226.543C305.444 226.498 304.67 226.714 304.704 227.363C304.75 228.012 305.524 229.799 307.663 229.799C309.791 229.799 313 229.105 314.173 228.934C315.345 228.763 316.415 228.479 316.415 228.479L316.426 228.467C316.232 229.15 316.358 229.799 317.382 229.799C319.203 229.799 322.765 229.014 324.768 229.059C326.759 229.105 328.205 229.799 330.765 229.799C333.326 229.799 335.374 228.035 337.582 223.845C340.655 218.028 343.488 214.204 345.616 211.073C347.745 207.943 358.34 189.672 358.34 189.672L347.676 180.099Z" fill="white"/>
<path d="M317.226 227.113C316.577 227.728 315.576 229.811 317.397 229.811C319.218 229.811 322.78 229.025 324.783 229.071C326.774 229.116 328.22 229.811 330.78 229.811C333.341 229.811 335.389 228.046 337.597 223.857C340.67 218.04 343.503 214.215 345.631 211.085C347.76 207.954 358.355 189.684 358.355 189.684L347.669 180.11C347.669 180.11 338.462 209.423 331.679 219.406C328.766 221.341 320.515 222.776 318.694 222.867C316.873 222.958 315.303 224.165 313.129 224.859C310.956 225.553 308.919 226.601 307.177 226.555C305.436 226.51 304.662 226.726 304.696 227.375C304.742 228.024 305.516 229.811 307.655 229.811C309.783 229.811 312.993 229.116 314.165 228.946C315.337 228.775 316.407 228.49 316.407 228.49" stroke="#213D8C" stroke-linecap="round" stroke-linejoin="round"/>
<path d="M325.235 223.857C325.235 223.857 325.133 223.948 324.951 224.096C324.757 224.244 324.473 224.449 324.143 224.7C323.79 224.916 323.38 225.178 322.948 225.451C322.481 225.679 321.969 225.918 321.457 226.157C320.934 226.362 320.433 226.521 319.921 226.669C319.431 226.805 318.988 226.942 318.589 227.045C318.214 227.158 317.963 227.284 317.804 227.363C317.679 227.454 317.611 227.511 317.611 227.511L317.542 227.568C317.292 227.762 316.939 227.716 316.746 227.477C316.552 227.238 316.598 226.885 316.837 226.68C316.837 226.68 316.985 226.555 317.258 226.396C317.531 226.259 317.906 226.134 318.316 226.043C318.714 225.963 319.181 225.861 319.682 225.758C319.921 225.701 320.171 225.644 320.422 225.587C320.672 225.519 320.956 225.451 321.195 225.383C321.685 225.2 322.174 225.018 322.629 224.836C323.073 224.608 323.483 224.392 323.836 224.21C324.166 223.994 324.45 223.823 324.644 223.698C324.837 223.561 324.951 223.482 324.951 223.482C325.053 223.402 325.19 223.425 325.27 223.527C325.338 223.652 325.315 223.777 325.235 223.857Z" fill="#213D8C"/>
<path d="M368.18 385.707L368.988 397.683L379.116 398.821L378.547 385.707H368.18Z" fill="white" stroke="#213D8C" stroke-linecap="round" stroke-linejoin="round"/>
<path d="M380.732 406.812H345.578V409.442H380.732V406.812Z" fill="#E1EDF7" stroke="#213D8C" stroke-linecap="round" stroke-linejoin="round"/>
<path d="M354.047 401.86C354.047 401.86 354.183 400.016 355.617 399.276C357.04 398.536 365.564 393.744 366.668 393.106C367.772 392.457 368.284 391.581 369.205 391.774C370.127 391.957 371.88 394.267 369.718 395.963C367.555 397.671 355.299 403.522 355.299 403.522L354.047 401.86Z" fill="#BADBF7" stroke="#213D8C" stroke-linecap="round" stroke-linejoin="round"/>
<path d="M356.888 403.499C356.558 402.441 356.376 401.974 357.628 400.949C358.868 399.936 365.776 396.715 367.392 395.656C369.008 394.597 369.737 394.552 371.717 395.884C373.697 397.216 374.994 396.874 377.213 397.193C379.421 397.512 379.649 397.056 380.115 398.297C380.582 399.538 380.741 404.171 380.741 406.789H355.625L356.888 403.499Z" fill="white" stroke="#213D8C" stroke-linecap="round" stroke-linejoin="round"/>
<path d="M345.578 406.812C345.578 406.812 345.76 404.809 347.467 403.796C349.174 402.783 352.714 401.542 354.011 401.03C355.297 400.529 357.368 403.284 357.971 406.812H345.578Z" fill="white" stroke="#213D8C" stroke-linecap="round" stroke-linejoin="round"/>
<path d="M360.591 400.562C360.864 400.995 360.728 401.564 360.295 401.826C359.863 402.099 359.294 401.962 359.032 401.53L356.938 398.149C356.665 397.716 356.801 397.147 357.234 396.885C357.666 396.612 358.235 396.749 358.497 397.181L360.591 400.562Z" fill="white" stroke="#213D8C" stroke-linecap="round" stroke-linejoin="round"/>
<path d="M364.529 398.206C364.802 398.638 364.665 399.207 364.233 399.469C363.8 399.742 363.231 399.606 362.969 399.173L360.875 395.792C360.602 395.36 360.739 394.79 361.171 394.529C361.604 394.267 362.173 394.392 362.435 394.825L364.529 398.206Z" fill="white" stroke="#213D8C" stroke-linecap="round" stroke-linejoin="round"/>
<path d="M368.385 396.328C368.624 396.772 368.465 397.33 368.01 397.569C367.566 397.808 367.008 397.648 366.769 397.204L364.869 393.71C364.63 393.254 364.789 392.697 365.233 392.458C365.677 392.218 366.234 392.378 366.485 392.822L368.385 396.328Z" fill="white" stroke="#213D8C" stroke-linecap="round" stroke-linejoin="round"/>
<path d="M397.141 385.707L397.949 397.683L408.077 398.821L407.508 385.707H397.141Z" fill="white" stroke="#213D8C" stroke-linecap="round" stroke-linejoin="round"/>
<path d="M409.693 406.812H374.539V409.442H409.693V406.812Z" fill="#E1EDF7" stroke="#213D8C" stroke-linecap="round" stroke-linejoin="round"/>
<path d="M383.008 401.86C383.008 401.86 383.144 400.016 384.578 399.276C386.001 398.536 394.525 393.744 395.629 393.106C396.733 392.457 397.245 391.581 398.166 391.774C399.088 391.957 400.841 394.267 398.679 395.963C396.516 397.671 384.26 403.522 384.26 403.522L383.008 401.86Z" fill="#BADBF7" stroke="#213D8C" stroke-linecap="round" stroke-linejoin="round"/>
<path d="M385.849 403.499C385.519 402.441 385.337 401.974 386.589 400.949C387.829 399.936 394.737 396.715 396.353 395.656C397.969 394.597 398.698 394.552 400.678 395.884C402.658 397.216 403.955 396.874 406.174 397.193C408.382 397.512 408.61 397.056 409.076 398.297C409.543 399.538 409.702 404.171 409.702 406.789H384.586L385.849 403.499Z" fill="white" stroke="#213D8C" stroke-linecap="round" stroke-linejoin="round"/>
<path d="M374.539 406.812C374.539 406.812 374.721 404.809 376.428 403.796C378.135 402.783 381.675 401.542 382.972 401.03C384.258 400.529 386.329 403.284 386.932 406.812H374.539Z" fill="white" stroke="#213D8C" stroke-linecap="round" stroke-linejoin="round"/>
<path d="M389.552 400.562C389.825 400.995 389.689 401.564 389.256 401.826C388.824 402.099 388.255 401.962 387.993 401.53L385.899 398.149C385.626 397.716 385.762 397.147 386.195 396.885C386.627 396.612 387.196 396.749 387.458 397.181L389.552 400.562Z" fill="white" stroke="#213D8C" stroke-linecap="round" stroke-linejoin="round"/>
<path d="M393.49 398.206C393.763 398.638 393.626 399.207 393.194 399.469C392.761 399.742 392.192 399.606 391.93 399.173L389.836 395.792C389.563 395.36 389.7 394.79 390.132 394.529C390.565 394.267 391.134 394.392 391.407 394.825L393.49 398.206Z" fill="white" stroke="#213D8C" stroke-linecap="round" stroke-linejoin="round"/>
<path d="M397.354 396.328C397.593 396.772 397.434 397.33 396.978 397.569C396.535 397.808 395.977 397.648 395.738 397.204L393.837 393.71C393.598 393.254 393.758 392.697 394.202 392.458C394.645 392.218 395.203 392.378 395.453 392.822L397.354 396.328Z" fill="white" stroke="#213D8C" stroke-linecap="round" stroke-linejoin="round"/>
<path d="M362.43 212.53C362.43 212.53 350.401 279.784 349.172 285.806C347.943 291.828 348.091 297.998 349.172 303.234C350.253 308.482 368.143 388.224 368.143 388.224H379.557C379.557 388.224 375.699 305.693 375.859 302.153C376.007 298.601 377.862 290.28 380.479 283.951C383.097 277.621 409.01 211.574 409.01 211.574L362.43 212.53Z" fill="#E1EDF7" stroke="#213D8C" stroke-linecap="round" stroke-linejoin="round"/>
<path d="M365.828 213.919C365.828 213.919 375.695 279.943 376.776 286.568C377.857 293.205 380.475 301.219 382.637 308.163C384.799 315.107 395.895 374.802 396.202 388.223H408.538C408.538 388.223 409.62 336.861 408.538 320.195C407.457 303.541 405.762 288.731 406.228 276.699C406.695 264.666 413.83 225.177 410.803 208.671L365.828 213.919Z" fill="white" stroke="#213D8C" stroke-linecap="round" stroke-linejoin="round"/>
<path d="M393.719 205.666C393.719 205.666 394.515 265.293 395.585 292.636C396.655 319.991 403.449 388.223 403.449 388.223" stroke="#213D8C" stroke-width="0.5" stroke-linecap="round" stroke-linejoin="round"/>
<path d="M385.266 206.668C386.7 220.032 391.969 230.22 394.176 233.715" stroke="#213D8C" stroke-width="0.5" stroke-linecap="round" stroke-linejoin="round"/>
<path d="M412.015 211.426C412.015 211.426 405.277 215.456 385.168 216.902C365.059 218.347 361.486 216.685 360.883 216.594L361.349 212.53L410.797 205.666L412.015 211.426Z" fill="#F7CDBA" stroke="#213D8C" stroke-linecap="round" stroke-linejoin="round"/>
<path d="M321.18 123.989C321.18 123.989 330.045 128.998 332.287 137.638L345.09 122.054C345.09 122.054 338.694 114.802 335.61 110.215L321.18 123.989Z" fill="white"/>
<path d="M335.599 110.215L321.18 123.978C321.18 123.978 326.767 127.154 330.193 132.777C335.075 125.241 337.476 117.99 338.512 114.154C337.431 112.788 336.407 111.41 335.599 110.215Z" fill="#BADBF7"/>
<path d="M321.18 123.989C321.18 123.989 330.045 128.998 332.287 137.638L345.09 122.054C345.09 122.054 338.694 114.802 335.61 110.215L321.18 123.989Z" stroke="#213D8C" stroke-linecap="round" stroke-linejoin="round"/>
<path d="M336.784 112.321C336.773 112.332 336.773 112.332 336.773 112.332C336.112 113.846 335.043 115.247 333.597 116.225C331.947 124.035 316.277 130.193 313.807 130.398C311.338 130.58 311.508 128.098 311.042 126.584C310.586 125.07 309.323 125.014 308.97 124.353C308.595 123.682 308.902 122.486 308.902 122.486C307.844 122.68 306.99 122.293 306.683 121.86C307.263 120.289 306.512 119.914 305.955 119.891C305.397 119.88 303.178 119.606 302.37 118.411C301.573 117.216 302.336 116.704 303.724 114.279C305.101 111.866 305.625 110.784 304.521 101.552C303.11 89.6564 309.46 82.4848 318.257 80.8797C328.249 79.0583 338.32 82.2457 341.006 91.7623C344.762 105.092 337.171 111.979 336.784 112.321Z" fill="white"/>
<path d="M322.492 94.6082C322.492 94.6082 322.492 101.006 322.492 102.064C322.492 103.123 323.073 104.136 323.994 104.501C324.916 104.865 325.963 105.058 325.997 107.062C326.031 109.065 325.997 110.42 325.997 110.955C325.997 111.49 326.418 112.116 327.158 112.116C327.886 112.116 329.047 111.809 329.389 111.035C329.741 110.261 329.946 109.726 330.299 107.096C330.652 104.478 332.973 103.123 334.794 103.59C336.615 104.057 338.106 106.447 337.446 110.215C337.321 110.887 337.23 111.444 337.139 111.968C338.675 110.409 344.342 103.658 340.997 91.751C340.598 90.3394 340.018 89.0759 339.312 87.9375H322.925L322.492 94.6082Z" fill="#2358B8"/>
<path d="M327.886 111.479C327.886 111.479 328.068 111.411 328.341 111.308C328.421 111.285 328.433 111.24 328.478 111.206C328.524 111.172 328.569 111.137 328.615 111.103C328.66 111.058 328.728 111.046 328.774 110.967L328.933 110.762C329.036 110.625 329.172 110.5 329.229 110.341C329.309 110.181 329.377 110.045 329.434 109.919C329.559 109.669 329.639 109.498 329.639 109.498L329.662 109.453C329.719 109.327 329.866 109.27 329.992 109.339C330.094 109.396 330.151 109.51 330.128 109.623C330.128 109.623 330.083 109.817 330.003 110.113C329.969 110.261 329.923 110.443 329.878 110.625C329.832 110.819 329.707 111.001 329.627 111.194L329.48 111.49C329.445 111.593 329.332 111.672 329.263 111.763C329.184 111.855 329.104 111.934 329.024 112.014C328.945 112.082 328.865 112.185 328.808 112.207C328.558 112.367 328.398 112.469 328.398 112.469C328.125 112.64 327.772 112.56 327.613 112.287C327.442 112.025 327.522 111.661 327.795 111.502C327.818 111.513 327.852 111.49 327.886 111.479Z" fill="#213D8C"/>
<path d="M322.492 94.6084C322.492 94.6084 322.492 101.006 322.492 102.065C322.492 103.123 323.073 104.136 323.994 104.501C324.916 104.865 325.963 105.058 325.997 107.062C326.031 109.065 325.997 110.42 325.997 110.955C325.997 111.49 326.418 112.116 327.158 112.116C327.431 112.116 327.773 112.116 328.137 111.991" stroke="#213D8C" stroke-width="1.0011" stroke-linecap="round" stroke-linejoin="round"/>
<path d="M332.289 104.045C333.256 103.442 334.428 103.294 335.452 103.829C337.854 105.058 338.252 108.974 336.784 112.321C336.773 112.332 336.773 112.332 336.773 112.332C336.112 113.846 335.043 115.247 333.597 116.225C331.947 124.035 316.277 130.193 313.807 130.398C311.338 130.58 311.508 128.099 311.042 126.584C310.586 125.07 309.323 125.014 308.97 124.353C308.595 123.682 308.902 122.486 308.902 122.486C307.844 122.68 306.99 122.293 306.683 121.86C307.263 120.289 306.512 119.914 305.955 119.891C305.397 119.88 303.178 119.606 302.37 118.411C301.573 117.216 302.336 116.704 303.724 114.279C305.101 111.866 305.625 110.784 304.521 101.552C303.11 89.6564 309.46 82.4848 318.257 80.8797C328.249 79.0583 338.32 82.2457 341.006 91.7623C344.75 105.104 337.171 111.991 336.784 112.332" stroke="#213D8C" stroke-linecap="round" stroke-linejoin="round"/>
<path d="M330.044 108.04C330.044 108.04 330.044 107.972 330.033 107.835C330.033 107.699 329.999 107.528 330.01 107.3C330.044 107.073 330.033 106.765 330.113 106.492C330.169 106.196 330.26 105.9 330.386 105.604C330.431 105.445 330.522 105.32 330.591 105.172C330.659 105.035 330.738 104.887 330.83 104.773C331 104.511 331.182 104.295 331.353 104.124C331.512 103.931 331.694 103.817 331.797 103.715C331.911 103.623 331.979 103.567 331.979 103.567C332.218 103.373 332.582 103.407 332.787 103.646C332.992 103.897 332.946 104.25 332.707 104.454C332.685 104.466 332.662 104.489 332.639 104.5L332.582 104.534C332.582 104.534 332.525 104.568 332.434 104.625C332.343 104.682 332.195 104.75 332.047 104.876C331.888 104.99 331.717 105.137 331.558 105.32C331.467 105.399 331.387 105.513 331.319 105.616C331.251 105.718 331.148 105.821 331.091 105.946C330.955 106.173 330.83 106.412 330.75 106.663C330.636 106.902 330.625 107.13 330.556 107.323C330.511 107.528 330.511 107.722 330.499 107.847C330.488 107.972 330.477 108.052 330.477 108.052C330.465 108.166 330.363 108.257 330.238 108.245C330.135 108.234 330.056 108.143 330.044 108.04Z" fill="#213D8C"/>
<path d="M308.668 121.963C308.668 121.963 308.759 121.929 308.93 121.861C309.089 121.804 309.317 121.701 309.59 121.565C310.136 121.314 310.853 120.916 311.524 120.461C311.843 120.221 312.196 120.005 312.48 119.743C312.765 119.493 313.049 119.277 313.254 119.049C313.664 118.594 313.937 118.298 313.937 118.298L313.96 118.275C314.04 118.184 314.176 118.184 314.267 118.263C314.347 118.343 314.358 118.457 314.301 118.548C314.301 118.548 314.051 118.89 313.664 119.413C313.471 119.675 313.197 119.925 312.924 120.233C312.651 120.54 312.31 120.791 312.002 121.087C311.342 121.633 310.637 122.134 310.091 122.464C309.817 122.635 309.578 122.771 309.408 122.862C309.237 122.953 309.146 122.999 309.146 122.999C308.861 123.147 308.52 123.045 308.372 122.76C308.224 122.487 308.327 122.134 308.611 121.986C308.622 121.975 308.645 121.963 308.668 121.963Z" fill="#213D8C"/>
<path d="M311.509 108.462C311.509 109.43 310.928 110.215 310.211 110.215C309.494 110.215 308.914 109.43 308.914 108.462C308.914 107.494 309.494 106.709 310.211 106.709C310.928 106.709 311.509 107.494 311.509 108.462Z" fill="#213D8C"/>
<path d="M324.915 93.6978C324.915 93.6978 327.43 101.871 336.124 99.7197C336.124 99.7197 339.06 102.235 344.603 101.883C344.603 101.883 345.012 94.1759 342.543 87.6418C340.073 81.1077 335.032 78.7968 331.231 78.8537C327.02 75.8143 320.738 74.2206 313.546 77.0551C305.067 80.3905 301.46 87.4369 301.255 95.2005C301.084 101.655 302.689 104.512 302.689 104.512C302.689 104.512 310.2 104.102 314.82 98.8546C314.82 98.8546 314.513 100.038 314.661 101.325C317.483 100.403 319.85 98.7521 319.85 98.7521C319.85 98.7521 319.953 100.596 320.055 101.268C320.078 101.256 324.812 99.5603 324.915 93.6978Z" fill="#4675CD"/>
<path d="M314.95 97.1929C314.95 97.1929 315.167 96.84 315.497 96.2936C315.656 96.0204 315.849 95.713 316.054 95.3715C316.271 95.0414 316.419 94.6657 316.601 94.3015C316.976 93.5729 317.306 92.8216 317.534 92.2411C317.784 91.6719 317.909 91.2735 317.909 91.2735C317.955 91.1369 318.103 91.0572 318.239 91.1027C318.365 91.1482 318.444 91.2848 318.41 91.4101V91.4214C318.41 91.4214 318.308 91.8426 318.114 92.446C317.932 93.0493 317.67 93.8575 317.34 94.6658C317.181 95.0642 317.056 95.4854 316.862 95.8269C316.692 96.1798 316.532 96.5099 316.384 96.7945C316.111 97.3636 315.918 97.7393 315.918 97.7393C315.781 98.0239 315.44 98.1377 315.155 98.0011C314.871 97.8645 314.757 97.523 314.894 97.2384C314.928 97.227 314.939 97.2043 314.95 97.1929Z" fill="#213D8C"/>
<path d="M310.57 102.064C312.038 101.222 313.484 100.095 314.679 98.5808C314.952 98.2393 315.213 97.8636 315.452 97.4766" stroke="#213D8C" stroke-linecap="round" stroke-linejoin="round"/>
<path d="M304.812 104.193C306.326 103.886 308.466 103.271 310.56 102.064" stroke="#213D8C" stroke-linecap="round" stroke-linejoin="round"/>
<path d="M338.195 100.653C338.73 100.767 339.276 100.96 339.8 101.017C340.334 101.074 340.835 101.211 341.37 101.222L342.167 101.268C342.428 101.29 342.69 101.313 342.963 101.29C343.498 101.268 344.022 101.279 344.557 101.313L344.022 101.848C344.056 100.653 344.056 99.4121 343.976 98.1941C343.953 97.5794 343.908 96.9761 343.84 96.3613C343.771 95.758 343.737 95.1433 343.623 94.54L343.339 92.73L342.941 90.9542C342.827 90.3509 342.633 89.7817 342.44 89.2011C342.246 88.6433 342.098 87.9945 341.859 87.5164L341.086 85.8316C340.812 85.2852 340.448 84.8412 340.141 84.3404C339.857 83.8281 339.413 83.4183 339.026 82.9743C338.821 82.758 338.639 82.519 338.423 82.3255L337.728 81.7677C337.501 81.5856 337.273 81.392 337.034 81.2213L336.272 80.7887C336.01 80.6521 335.771 80.4813 335.498 80.3675L334.678 80.0488C334.144 79.7983 333.552 79.7187 332.983 79.5821C332.414 79.4341 331.822 79.4796 331.242 79.4113L331.185 79.3999C331.082 79.3885 330.98 79.3544 330.9 79.2975C330.024 78.7397 329.17 78.1591 328.214 77.7493L327.52 77.4078L326.792 77.1574C326.303 76.998 325.825 76.7931 325.312 76.6793C324.3 76.463 323.287 76.2239 322.251 76.2011C321.216 76.0645 320.18 76.1898 319.144 76.2353C318.621 76.2467 318.12 76.4061 317.608 76.4857C317.096 76.5996 316.572 76.6451 316.083 76.8045L314.592 77.2826L313.852 77.5216C313.648 77.6013 313.374 77.7265 313.136 77.829C312.646 78.0453 312.145 78.2502 311.713 78.5006C311.258 78.7397 310.803 78.9787 310.37 79.2633C309.926 79.5365 309.494 79.8211 309.084 80.1398C308.663 80.4358 308.253 80.7659 307.878 81.1188C307.093 81.8018 306.398 82.5759 305.761 83.3841C305.431 83.7826 305.169 84.2265 304.862 84.6477C304.589 85.0917 304.339 85.5356 304.088 85.991C303.622 86.9244 303.212 87.8692 302.905 88.871C302.575 89.8614 302.347 90.8745 302.176 91.9104C301.994 92.9349 301.915 93.9822 301.869 95.0295C301.88 96.0426 301.823 97.181 301.937 98.1941C301.994 99.23 302.131 100.277 302.336 101.29C302.518 102.304 302.836 103.339 303.235 104.182L303.269 104.25C303.405 104.535 303.28 104.876 302.996 105.001C302.711 105.138 302.381 105.013 302.245 104.728C301.721 103.635 301.437 102.6 301.22 101.507C301.004 100.425 300.868 99.3438 300.799 98.2396C300.685 97.1127 300.742 96.1109 300.731 94.9839C300.776 93.8911 300.868 92.7983 301.05 91.7169C301.232 90.6354 301.471 89.554 301.823 88.5181C302.142 87.4708 302.586 86.4577 303.087 85.4673C303.348 84.9778 303.633 84.4997 303.917 84.033C304.236 83.589 304.521 83.1109 304.873 82.6784C305.556 81.8132 306.296 80.9822 307.138 80.2651C307.548 79.8894 307.969 79.5365 308.424 79.2178C308.857 78.8763 309.323 78.5803 309.79 78.2843C310.245 77.977 310.734 77.7152 311.235 77.4647C311.724 77.1915 312.214 76.9752 312.714 76.7703C312.965 76.6679 313.181 76.554 313.477 76.4516L314.262 76.2011L315.833 75.6889C316.356 75.5181 316.914 75.4612 317.449 75.3474C317.995 75.2677 318.53 75.1083 319.076 75.0856C320.18 75.04 321.284 74.9034 322.376 75.0514C323.48 75.0742 324.561 75.336 325.642 75.5637C326.177 75.6775 326.689 75.9052 327.224 76.0645L328.01 76.3377L328.761 76.702C329.785 77.1346 330.695 77.7607 331.629 78.3526L331.287 78.2502C331.936 78.3185 332.607 78.2729 333.245 78.4323C333.882 78.5803 334.531 78.6828 335.122 78.9446L336.033 79.2975C336.329 79.4341 336.602 79.6048 336.886 79.7642L337.728 80.2537C337.99 80.4472 338.24 80.6521 338.491 80.857L339.253 81.4717C339.492 81.688 339.697 81.9384 339.913 82.1775C340.346 82.667 340.812 83.1109 341.142 83.6801C341.484 84.2265 341.894 84.7729 342.178 85.3307L342.952 87.0155C343.259 87.6416 343.373 88.2221 343.589 88.8368C343.783 89.4402 343.988 90.0435 344.113 90.6582L344.534 92.5023L344.818 94.3692C344.932 94.9839 344.966 95.61 345.035 96.2361C345.103 96.8622 345.148 97.4883 345.182 98.1144C345.262 99.3666 345.274 100.607 345.228 101.894C345.239 102.178 345.023 102.406 344.75 102.429H344.705C344.136 102.463 343.566 102.474 342.986 102.463C342.417 102.474 341.848 102.304 341.29 102.224C340.733 102.156 340.175 101.928 339.629 101.757C339.071 101.598 338.616 101.29 338.104 101.063C337.99 101.017 337.945 100.881 337.99 100.767C338.036 100.664 338.138 100.619 338.24 100.642L338.195 100.653Z" fill="#213D8C"/>
<path d="M325.245 93.2423C325.245 93.2423 325.245 93.2537 325.257 93.2764C325.257 93.2878 325.268 93.322 325.348 93.413C325.405 93.4927 325.473 93.6065 325.53 93.7431C325.553 93.8001 325.575 93.857 325.598 93.9253C325.689 94.1871 325.849 94.5514 326.065 94.9726C326.497 95.8149 327.203 96.9078 328.159 97.7501C328.625 98.1827 329.149 98.547 329.672 98.8316C329.923 98.9909 330.196 99.0934 330.446 99.1958C330.697 99.3097 330.947 99.3894 331.175 99.4463C331.63 99.5943 332.028 99.6512 332.313 99.6967C332.597 99.7423 332.756 99.765 332.756 99.765H332.791C332.95 99.7878 333.052 99.9358 333.03 100.095C333.007 100.243 332.87 100.357 332.711 100.334C332.711 100.334 332.54 100.311 332.244 100.289C331.937 100.266 331.516 100.22 331.004 100.084C330.754 100.038 330.48 99.9585 330.196 99.8447C329.911 99.7423 329.615 99.6398 329.32 99.4804C328.728 99.1958 328.125 98.8316 327.59 98.3762C326.486 97.4997 325.655 96.35 325.132 95.4507C324.87 94.9953 324.676 94.5969 324.563 94.3123C324.528 94.244 324.506 94.1871 324.483 94.1302C324.494 94.1643 324.528 94.1871 324.563 94.1985C324.608 94.2213 324.608 94.1871 324.597 94.1643C324.585 94.1416 324.585 94.1302 324.585 94.1302L324.358 93.5041C324.267 93.265 324.392 92.9918 324.642 92.9008C324.881 92.8097 325.154 92.9349 325.245 93.1854C325.234 93.2309 325.245 93.2309 325.245 93.2423Z" fill="#213D8C"/>
<path d="M319.96 100.948C319.96 100.948 320.472 100.755 321.166 100.243C321.86 99.7532 322.68 98.9449 323.249 97.9773C323.533 97.4992 323.749 96.9756 323.92 96.4861C324 96.2357 324.057 95.9852 324.113 95.7576C324.182 95.5299 324.193 95.2908 324.227 95.0859C324.307 94.6761 324.296 94.3232 324.307 94.0728C324.318 93.8224 324.318 93.6858 324.318 93.6858V93.6288C324.33 93.3101 324.603 93.071 324.91 93.0824C325.229 93.0938 325.468 93.3556 325.456 93.6744C325.456 93.6858 325.456 93.6971 325.456 93.6971C325.456 93.6971 325.445 93.8565 325.422 94.1297C325.388 94.4029 325.377 94.79 325.274 95.2567C325.217 95.4843 325.195 95.7462 325.104 95.9966C325.024 96.2584 324.944 96.5316 324.842 96.8048C324.626 97.3512 324.352 97.9204 324 98.4441C323.305 99.4913 322.361 100.345 321.576 100.835C320.802 101.347 320.187 101.552 320.187 101.552H320.176C320.005 101.609 319.823 101.518 319.755 101.347C319.709 101.199 319.789 101.017 319.96 100.948Z" fill="#213D8C"/>
<path d="M314.598 101.108C314.598 101.108 314.746 101.028 315.008 100.892C315.144 100.823 315.304 100.744 315.486 100.653C315.679 100.573 315.85 100.436 316.066 100.311C316.499 100.095 316.954 99.7646 317.443 99.4003C317.705 99.241 317.921 99.0247 318.16 98.8198C318.399 98.6149 318.65 98.4214 318.843 98.1709C319.048 97.9319 319.253 97.6928 319.469 97.4652C319.64 97.2033 319.81 96.9529 319.981 96.7138C320.175 96.4862 320.288 96.2243 320.402 95.9853C320.527 95.7462 320.641 95.5186 320.755 95.3023C320.869 95.0974 320.891 94.8697 320.971 94.6876C321.039 94.5054 321.096 94.3347 321.142 94.2095C321.244 93.9363 321.301 93.7883 321.301 93.7883L321.313 93.7541C321.369 93.6175 321.517 93.5378 321.665 93.5948C321.779 93.6403 321.847 93.7427 321.847 93.8566C321.847 93.8566 321.836 94.0273 321.802 94.3347C321.779 94.4827 321.768 94.6762 321.734 94.8811C321.699 95.0974 321.688 95.3478 321.597 95.5869C321.506 95.8373 321.404 96.1105 321.313 96.3951C321.21 96.6911 321.085 96.987 320.891 97.2602C320.709 97.5448 320.516 97.8294 320.334 98.1254C320.106 98.3872 319.856 98.6376 319.605 98.8995C319.378 99.1727 319.082 99.3776 318.809 99.5939C318.536 99.7988 318.285 100.038 317.989 100.186C317.42 100.516 316.886 100.801 316.385 100.994C315.895 101.21 315.497 101.301 315.213 101.381C314.928 101.449 314.757 101.495 314.757 101.495C314.644 101.529 314.518 101.449 314.496 101.336C314.462 101.256 314.507 101.153 314.598 101.108Z" fill="#213D8C"/>
<path d="M329.601 92.6611C329.601 92.6611 329.999 93.2644 330.671 94.0954C331.001 94.5052 331.399 94.9833 331.843 95.45C332.298 95.9167 332.787 96.4062 333.334 96.8274C333.607 97.0323 333.868 97.26 334.153 97.4307C334.426 97.6243 334.711 97.795 334.995 97.943C335.28 98.1024 335.553 98.239 335.826 98.3414C336.099 98.4553 336.361 98.5805 336.611 98.6374C336.862 98.7171 337.089 98.7968 337.294 98.8651C337.51 98.9106 337.692 98.9447 337.84 98.9789C338.147 99.0472 338.33 99.1041 338.33 99.1041L338.352 99.1155C338.443 99.1383 338.5 99.2407 338.478 99.3318C338.455 99.4001 338.398 99.4456 338.33 99.457C338.33 99.457 338.147 99.4798 337.817 99.5025C337.487 99.5253 337.009 99.5708 336.429 99.4798C336.133 99.457 335.826 99.4001 335.507 99.309C335.177 99.2293 334.836 99.1383 334.506 98.9789C333.812 98.7285 333.152 98.3073 332.537 97.8405C332.218 97.6129 331.957 97.3283 331.672 97.0779C331.41 96.8046 331.149 96.5314 330.932 96.2469C330.477 95.6891 330.124 95.1199 329.863 94.6076C329.339 93.5945 329.18 92.8432 329.18 92.8432C329.146 92.718 329.225 92.5927 329.351 92.5586C329.453 92.5358 329.555 92.5814 329.601 92.6611Z" fill="#213D8C"/>
<path d="M314.93 88.9394C314.93 88.9394 314.839 89.7135 314.418 90.7608C314.201 91.2845 313.905 91.8878 313.507 92.4911C313.314 92.7985 313.086 93.0944 312.847 93.3904C312.585 93.6636 312.346 93.971 312.05 94.2328C311.481 94.7564 310.855 95.2345 310.195 95.5533C309.877 95.7468 309.547 95.8606 309.228 95.9745C308.921 96.0997 308.614 96.1907 308.329 96.2363C307.76 96.3729 307.282 96.3843 306.952 96.3843C306.622 96.3956 306.429 96.3843 306.429 96.3843C306.326 96.3843 306.258 96.2932 306.258 96.2021C306.258 96.1338 306.303 96.0655 306.372 96.0428L306.394 96.0314C306.394 96.0314 306.565 95.9631 306.872 95.8606C307.02 95.8151 307.202 95.7582 307.407 95.6899C307.601 95.5988 307.828 95.5077 308.067 95.4053C308.318 95.3142 308.557 95.1776 308.818 95.0296C309.08 94.9044 309.342 94.7337 309.615 94.5515C309.888 94.3921 310.15 94.1873 310.412 93.971C310.685 93.7774 310.924 93.527 311.174 93.2993C311.675 92.8326 312.119 92.2976 312.528 91.7967C312.927 91.2845 313.279 90.7722 313.575 90.3282C314.167 89.4403 314.509 88.8028 314.509 88.8028C314.565 88.689 314.713 88.6435 314.827 88.7118C314.896 88.7459 314.941 88.837 314.93 88.9394Z" fill="#213D8C"/>
<path d="M335.453 93.1624C335.453 93.1624 335.817 93.6861 336.42 94.4032C336.716 94.7561 337.069 95.1659 337.467 95.5871C337.865 95.9969 338.298 96.4181 338.764 96.7824C339.003 96.9645 339.231 97.1581 339.481 97.306C339.72 97.4768 339.959 97.6362 340.21 97.75C340.449 97.8866 340.688 98.0118 340.938 98.1029C341.177 98.2053 341.393 98.3192 341.621 98.3761C342.053 98.5355 342.429 98.6493 342.702 98.6948C342.975 98.7631 343.123 98.8087 343.123 98.8087L343.146 98.82C343.237 98.8542 343.294 98.9453 343.26 99.0477C343.237 99.116 343.18 99.1616 343.123 99.1729C343.123 99.1729 342.964 99.1957 342.668 99.2299C342.372 99.2526 341.951 99.2982 341.439 99.2299C341.177 99.2185 340.904 99.1729 340.619 99.0819C340.335 99.0136 340.028 98.9339 339.732 98.7973C339.117 98.581 338.525 98.2053 337.979 97.7955C337.695 97.602 337.467 97.3402 337.205 97.1239C336.978 96.8849 336.75 96.6344 336.557 96.384C336.158 95.8831 335.851 95.3822 335.623 94.9269C335.168 94.0276 335.043 93.3446 335.043 93.3446C335.02 93.2194 335.1 93.0941 335.225 93.0714C335.305 93.0486 335.396 93.0828 335.453 93.1624Z" fill="#213D8C"/>
<path d="M346.706 121.508C346.706 121.508 359.145 122.555 375.077 136.944C391.01 151.344 404.381 175.819 410.242 195.478C412.689 203.685 411.915 207.351 411.915 207.351C411.915 207.351 405.303 211.597 385.262 213.68C365.21 215.763 361.591 214.215 360.977 214.147C360.362 214.067 359.588 211.529 360.897 208.364C355.423 194.476 334.882 165.016 333.141 136.602L346.706 121.508Z" fill="#BADBF7" stroke="#213D8C" stroke-linecap="round" stroke-linejoin="round"/>
<path d="M339.789 131.354C339.789 131.354 340.791 139.334 345.081 145.129C349.371 150.923 372.667 175.375 382.499 213.953" stroke="#213D8C" stroke-width="0.5" stroke-linecap="round" stroke-linejoin="round"/>
<path d="M342.936 119.561C342.936 119.561 330.304 134.883 330.201 135.191C330.099 135.498 331.339 143.762 331.339 143.762C331.339 143.762 342.037 131.354 349.377 121.769L344.336 118.946L342.936 119.561Z" fill="#BADBF7" stroke="#213D8C" stroke-linecap="round" stroke-linejoin="round"/>
<path d="M316.558 170.412V170.4L329.043 155.875L349.038 164.868C349.038 164.868 331.763 180.236 327.745 183.48C323.751 186.724 321.224 188.625 320.052 189.035C318.869 189.445 317.071 188.625 315.113 187.646C313.156 186.667 305.03 183.127 296.802 175.99C288.586 168.841 278.969 160.827 278.343 160.406C277.729 159.996 274.497 160.406 272.175 158.504C271.822 158.208 271.47 157.924 271.151 157.651C271.959 159.404 270.377 159.7 269.228 159.267C268.067 158.846 266.018 158.504 265.757 157.844C265.484 157.195 264.323 155.681 263.788 154.6C263.242 153.53 263.515 152.562 264.562 151.788C264.607 151.754 264.676 151.697 264.732 151.652C264.732 151.652 264.289 149.102 264.095 148.157C263.913 147.246 264.209 146.085 265.222 145.618C265.393 145.55 265.666 145.413 265.996 145.243C265.757 143.979 266.053 142.306 267.452 141.566C268.147 141.213 269.114 140.598 269.922 140.086C269.922 140.086 268.898 138.8 268.226 137.991C267.543 137.16 266.735 136.432 263.128 133.609C259.52 130.786 260.499 127.029 260.966 126.676C261.432 126.323 262.343 126.414 263.788 128.532C265.233 130.638 268.442 132.311 269.91 133.518C271.731 135.02 276.534 138.549 277.148 139.847C277.763 141.133 281.37 148.533 283.738 154.6C289.553 160.588 307.329 166.427 313.19 168.681C314.476 169.171 315.591 169.751 316.558 170.412Z" fill="white"/>
<path d="M329.04 155.875L318.82 167.771C321.347 171.516 325.33 176.889 330.11 181.499C336.232 176.263 349.035 164.868 349.035 164.868L329.04 155.875Z" fill="#BADBF7"/>
<path d="M270.803 158.061C270.803 158.061 270.541 157.822 270.165 157.457C269.778 157.082 269.266 156.638 268.754 156.182C268.504 155.955 268.208 155.807 267.957 155.613C267.832 155.522 267.707 155.442 267.582 155.363C267.445 155.306 267.332 155.26 267.218 155.215C266.763 155.021 266.455 154.896 266.455 154.896L266.398 154.873C266.239 154.805 266.159 154.623 266.228 154.463C266.296 154.315 266.455 154.236 266.615 154.281C266.615 154.281 266.967 154.395 267.491 154.555C267.627 154.6 267.764 154.646 267.923 154.691C268.06 154.759 268.208 154.839 268.356 154.93C268.652 155.101 269.004 155.26 269.289 155.477C269.869 155.898 270.461 156.33 270.859 156.649C271.269 156.979 271.554 157.196 271.554 157.196C271.804 157.389 271.85 157.753 271.645 157.992C271.451 158.243 271.098 158.288 270.848 158.095C270.825 158.083 270.814 158.072 270.803 158.061Z" fill="#213D8C"/>
<path d="M316.564 170.4L329.048 155.875L349.043 164.868C349.043 164.868 331.768 180.236 327.751 183.48C323.756 186.724 321.23 188.625 320.058 189.035C318.874 189.445 317.076 188.625 315.118 187.646C313.161 186.667 305.035 183.127 296.807 175.99C288.591 168.841 278.975 160.827 278.349 160.406C277.734 159.996 274.502 160.406 272.18 158.505C271.828 158.209 271.475 157.924 271.156 157.651" stroke="#213D8C" stroke-linecap="round" stroke-linejoin="round"/>
<path d="M316.563 170.411C315.584 169.74 314.48 169.171 313.205 168.67C307.345 166.416 289.569 160.576 283.753 154.588C281.386 148.521 277.779 141.11 277.164 139.835C276.549 138.538 271.747 135.009 269.926 133.506C268.458 132.299 265.249 130.626 263.804 128.52C262.358 126.414 261.448 126.312 260.981 126.665C260.515 127.017 259.536 130.774 263.143 133.597C266.751 136.42 267.559 137.149 268.242 137.98C268.902 138.788 269.938 140.074 269.938 140.074" stroke="#213D8C" stroke-linecap="round" stroke-linejoin="round"/>
<path d="M322.606 178.573C322.606 178.573 322.538 178.425 322.413 178.175C322.287 177.924 322.128 177.549 321.889 177.128C321.673 176.695 321.388 176.217 321.07 175.716C320.922 175.454 320.728 175.215 320.558 174.953C320.387 174.691 320.193 174.441 319.989 174.202C319.602 173.701 319.169 173.246 318.748 172.836C318.338 172.415 317.883 172.096 317.542 171.777C316.779 171.231 316.256 170.889 316.256 170.889L316.222 170.867C315.96 170.696 315.892 170.343 316.062 170.081C316.233 169.819 316.586 169.751 316.848 169.922C316.859 169.933 316.87 169.933 316.882 169.945C316.882 169.945 317.417 170.354 318.191 171.003C318.543 171.367 318.987 171.743 319.397 172.221C319.807 172.688 320.228 173.2 320.603 173.758C320.797 174.02 320.979 174.304 321.138 174.589C321.297 174.874 321.479 175.135 321.616 175.409C321.901 175.955 322.162 176.467 322.344 176.923C322.549 177.378 322.686 177.754 322.788 178.015C322.891 178.277 322.947 178.425 322.947 178.425C322.982 178.516 322.936 178.619 322.845 178.664C322.743 178.698 322.652 178.653 322.606 178.573Z" fill="#213D8C"/>
<path d="M264.751 151.641C264.694 151.686 264.625 151.743 264.58 151.777C263.533 152.551 263.26 153.519 263.806 154.589C264.352 155.67 265.513 157.184 265.775 157.833C266.037 158.493 268.085 158.835 269.246 159.256C270.395 159.689 271.977 159.393 271.169 157.64V157.628" stroke="#213D8C" stroke-linecap="round" stroke-linejoin="round"/>
<path d="M269.582 147.793L265.121 152.073C264.893 152.289 264.529 152.289 264.313 152.061C264.097 151.834 264.108 151.469 264.324 151.253C264.336 151.242 264.347 151.23 264.37 151.219L264.381 151.208L269.241 147.394C269.354 147.303 269.514 147.326 269.605 147.44C269.696 147.553 269.684 147.701 269.582 147.793Z" fill="#213D8C"/>
<path d="M266.23 145.129C266.161 145.163 266.082 145.197 266.013 145.231C265.683 145.391 265.41 145.527 265.24 145.607C264.227 146.074 263.931 147.235 264.113 148.146C264.306 149.079 264.75 151.64 264.75 151.64" stroke="#213D8C" stroke-linecap="round" stroke-linejoin="round"/>
<path d="M270.334 143.284L266.476 145.641C266.203 145.8 265.862 145.721 265.691 145.447C265.531 145.174 265.611 144.821 265.884 144.662C265.907 144.65 265.941 144.628 265.964 144.616L270.141 142.92C270.243 142.875 270.368 142.932 270.402 143.034C270.459 143.125 270.414 143.239 270.334 143.284Z" fill="#213D8C"/>
<path d="M270.051 140.006C270.017 140.029 269.971 140.051 269.937 140.086C269.129 140.609 268.162 141.213 267.468 141.565C266.079 142.305 265.772 143.979 266.011 145.242" stroke="#213D8C" stroke-linecap="round" stroke-linejoin="round"/>
<path d="M271.928 139.414C271.928 139.414 271.826 139.482 271.667 139.574C271.507 139.665 271.291 139.801 271.109 139.938C270.734 140.211 270.358 140.484 270.358 140.484L270.29 140.53C270.028 140.712 269.675 140.655 269.482 140.405C269.3 140.143 269.357 139.79 269.607 139.596C269.652 139.562 269.698 139.539 269.743 139.528C269.743 139.528 270.233 139.334 270.734 139.152C270.973 139.05 271.212 138.982 271.394 138.936C271.576 138.891 271.689 138.856 271.689 138.856C271.86 138.811 272.031 138.902 272.076 139.073C272.111 139.198 272.054 139.346 271.928 139.414Z" fill="#213D8C"/>
<path d="M340.089 136.978C336.345 140.041 321.812 162.819 321.812 162.819L340.419 179.473C340.419 179.473 351.185 169.137 356.898 159.802C362.6 150.468 359.311 141.555 354.281 137.354C349.649 133.506 342.9 134.679 340.089 136.978Z" fill="#BADBF7" stroke="#213D8C" stroke-linecap="round" stroke-linejoin="round"/>
<path d="M322.894 158.492L318.797 164.719C318.797 164.719 329.016 174.839 338.576 182.318L344.164 177.241C333.386 168.828 330.382 166.21 322.894 158.492Z" fill="#E1EDF7" stroke="#213D8C" stroke-linecap="round" stroke-linejoin="round"/>
<path d="M352.173 229.811H62.3047V236.902H352.173V229.811Z" fill="#F7CDBA" stroke="#213D8C" stroke-linecap="round" stroke-linejoin="round"/>
<path d="M70.8024 409.431H65.0781L98.2518 236.902H114.594L70.8024 409.431Z" fill="#F7CDBA" stroke="#213D8C" stroke-linecap="round" stroke-linejoin="round"/>
<path d="M343.671 409.431H349.406L316.221 236.902H299.891L343.671 409.431Z" fill="#F7CDBA" stroke="#213D8C" stroke-linecap="round" stroke-linejoin="round"/>
<path d="M151.311 68.0611C151.311 43.9736 128.483 24.4395 100.328 24.4395C72.1727 24.4395 49.3438 43.9736 49.3438 68.0611C49.3438 92.1486 72.1727 111.683 100.328 111.683C102.888 111.683 105.403 111.466 107.873 111.205C110.24 110.954 111.389 111.353 112.596 112.138C119.503 116.646 127.504 120.459 135.368 120.459C137.632 120.459 138.611 119.423 137.473 118.023C136.688 117.044 130.429 112.058 130.235 106.219C130.155 103.999 131.771 102.405 132.636 101.79C144.028 93.7878 151.311 81.653 151.311 68.0611Z" fill="white" stroke="#213D8C" stroke-linecap="round" stroke-linejoin="round"/>
<path d="M93.7194 92.0009C91.5799 92.0009 89.5314 91.1471 88.0178 89.6445L74.8167 76.4282C71.6757 73.2864 71.6757 68.1752 74.8167 65.0333C77.9576 61.8915 83.0674 61.8915 86.2084 65.0333L93.7194 72.5464L114.443 51.8171C117.584 48.6638 122.694 48.6638 125.835 51.8171C128.976 54.9589 128.976 60.0701 125.835 63.212L99.4209 89.6445C97.9073 91.1585 95.8589 92.0009 93.7194 92.0009Z" fill="#A7D678" stroke="#213D8C" stroke-linecap="round" stroke-linejoin="round"/>
<path d="M342.734 60.9927C342.734 36.9052 365.563 17.3711 393.718 17.3711C421.873 17.3711 444.702 36.9052 444.702 60.9927C444.702 85.0802 421.873 104.614 393.718 104.614C391.158 104.614 388.643 104.398 386.184 104.136C383.817 103.886 382.668 104.284 381.462 105.081C374.554 109.589 366.553 113.402 358.69 113.402C356.425 113.402 355.446 112.367 356.584 110.966C357.369 109.987 363.629 105.001 363.822 99.1616C363.902 96.9418 362.286 95.3368 361.421 94.7335C350.018 86.7308 342.734 74.596 342.734 60.9927Z" fill="white" stroke="#213D8C" stroke-linecap="round" stroke-linejoin="round"/>
<path d="M441.37 25.5102L453.103 24.1898C455.857 23.871 458.338 25.8631 458.645 28.6066C458.952 31.3614 456.972 33.8316 454.23 34.1503C453.444 34.2414 452.648 34.1276 451.954 33.8771L440.858 29.836C439.697 29.4148 439.105 28.1284 439.526 26.9673C439.822 26.1477 440.562 25.6013 441.37 25.5102Z" fill="#FFD373" stroke="#213D8C" stroke-linecap="round" stroke-linejoin="round"/>
<path d="M435.391 17.0977L440.114 6.272C441.218 3.73347 444.176 2.57235 446.714 3.68794C449.252 4.79214 450.413 7.75185 449.298 10.279C448.979 11.0075 448.49 11.6336 447.921 12.1117L438.873 19.7045C437.929 20.5014 436.517 20.3762 435.721 19.4313C435.163 18.7597 435.061 17.849 435.391 17.0977Z" fill="#FFD373" stroke="#213D8C" stroke-linecap="round" stroke-linejoin="round"/>
<path d="M425.129 18.0659L418.118 8.56066C416.48 6.32949 416.946 3.19902 419.177 1.54842C421.407 -0.0908103 424.537 0.375914 426.187 2.60708C426.654 3.24456 426.961 3.98449 427.086 4.71303L429.135 16.347C429.351 17.565 428.543 18.7261 427.325 18.9424C426.449 19.0904 425.618 18.7261 425.129 18.0659Z" fill="#FFD373" stroke="#213D8C" stroke-linecap="round" stroke-linejoin="round"/>
<path d="M400.845 30.2682C412.191 33.3987 418.848 45.1351 415.73 56.4731C411.792 70.7822 401.903 68.9722 392.719 82.0746C391.627 81.7672 388.781 80.9818 387.006 80.5037C385.242 80.0142 382.386 79.2287 381.293 78.9327C380.121 62.9844 370.698 59.4669 374.636 45.1579C377.765 33.8085 389.498 27.1491 400.845 30.2682Z" fill="#FFD373" stroke="#213D8C" stroke-linecap="round" stroke-linejoin="round"/>
<path d="M405.604 63.6106C404.705 62.791 404.625 61.4136 405.433 60.5029C406.799 58.9547 407.732 57.1106 408.46 54.481C408.711 53.5476 408.881 52.5914 408.938 51.6351C409.007 50.4171 410.065 49.4837 411.283 49.5633C412.512 49.643 413.434 50.6903 413.354 51.9083C413.274 53.1719 413.069 54.4355 412.728 55.6649C411.818 58.9775 410.589 61.3794 408.745 63.4512C407.937 64.3619 406.537 64.453 405.615 63.6334C405.615 63.622 405.615 63.622 405.604 63.6106Z" fill="#F2FCFF" stroke="#213D8C" stroke-linecap="round" stroke-linejoin="round"/>
<path d="M408.707 46.9453C408.445 46.7063 408.252 46.4103 408.115 46.0688C408.035 45.8525 407.956 45.6476 407.865 45.4313C407.387 44.3044 407.91 43.0067 409.025 42.5285C410.152 42.0504 411.449 42.5741 411.927 43.701C412.053 43.9856 412.166 44.2702 412.269 44.5548C412.69 45.7045 412.098 46.9795 410.96 47.4007C410.163 47.6739 409.31 47.469 408.707 46.9453Z" fill="#F2FCFF" stroke="#213D8C" stroke-linecap="round" stroke-linejoin="round"/>
<path d="M396.767 76.1098C396.676 75.0397 395.458 73.9241 394.047 73.5371L384.499 70.9075C383.077 70.5205 381.472 70.8506 380.846 71.7157L380.266 72.524C380.744 74.4364 381.096 76.531 381.278 78.9215C382.371 79.2175 385.227 80.0143 386.991 80.4924C388.755 80.9819 391.612 81.7674 392.704 82.0633C394.081 80.1054 395.458 78.4889 396.847 77.0888L396.767 76.1098Z" fill="#F2FCFF" stroke="#213D8C" stroke-linecap="round" stroke-linejoin="round"/>
<path d="M388.669 88.1191C389.17 88.2557 389.409 88.7679 389.193 89.2347L386.245 95.3704C386.029 95.8485 385.449 96.1217 384.937 95.9851L381.306 94.9833C380.794 94.8467 380.441 94.3117 380.498 93.7881L381.113 87.0149C381.17 86.4912 381.636 86.1839 382.137 86.3205L388.669 88.1191Z" fill="#7096B5" stroke="#213D8C" stroke-linecap="round" stroke-linejoin="round"/>
<path d="M394.221 78.9776C395.165 79.2281 395.598 80.1729 395.2 81.0608L389.703 92.5126C389.305 93.4005 388.201 93.9128 387.268 93.651L380.485 91.7841C379.54 91.5223 378.869 90.5205 378.971 89.5529L380.109 76.9058C380.223 75.9382 381.077 75.3577 382.021 75.6195L394.221 78.9776Z" fill="#BADBF7" stroke="#213D8C" stroke-linecap="round" stroke-linejoin="round"/>
<path d="M396.629 80.4351C396.424 81.1978 395.628 81.6531 394.865 81.4368L379.775 77.2818C379.001 77.0769 378.557 76.2801 378.773 75.5174C378.99 74.7433 379.775 74.2993 380.537 74.5156L395.628 78.6706C396.39 78.8755 396.834 79.6724 396.629 80.4351Z" fill="#F2FCFF" stroke="#213D8C" stroke-linecap="round" stroke-linejoin="round"/>
<path d="M395.24 83.702C395.035 84.4647 394.239 84.9201 393.476 84.7038L379.296 80.7992C378.534 80.5829 378.079 79.7975 378.283 79.0234C378.5 78.2607 379.285 77.8054 380.059 78.0216L394.239 81.9262C395.001 82.1425 395.445 82.9393 395.24 83.702Z" fill="#F2FCFF" stroke="#213D8C" stroke-linecap="round" stroke-linejoin="round"/>
<path d="M393.854 86.9692C393.637 87.7319 392.852 88.1872 392.078 87.9709L378.798 84.3054C378.035 84.0891 377.58 83.3037 377.796 82.541C378.001 81.7783 378.797 81.3229 379.56 81.5392L392.841 85.2047C393.615 85.4096 394.07 86.2065 393.854 86.9692Z" fill="#F2FCFF" stroke="#213D8C" stroke-linecap="round" stroke-linejoin="round"/>
<path d="M392.479 90.2363C392.263 91.0104 391.477 91.4543 390.704 91.2494L378.322 87.8344C377.548 87.6181 377.104 86.8326 377.32 86.0585C377.537 85.2958 378.322 84.8405 379.084 85.0568L391.466 88.4719C392.24 88.6768 392.684 89.4736 392.479 90.2363Z" fill="#F2FCFF" stroke="#213D8C" stroke-linecap="round" stroke-linejoin="round"/>
<path d="M237.947 98.5819H235.398V96.0433C235.398 95.2237 234.738 94.5635 233.919 94.5635C233.099 94.5635 232.439 95.2237 232.439 96.0433V98.5819H229.901C229.082 98.5819 228.422 99.2421 228.422 100.062C228.422 100.881 229.082 101.542 229.901 101.542H232.439V104.091C232.439 104.911 233.099 105.571 233.919 105.571C234.738 105.571 235.398 104.911 235.398 104.091V101.542H237.947C238.767 101.542 239.427 100.881 239.427 100.062C239.427 99.2421 238.767 98.5819 237.947 98.5819Z" fill="#BADBF7"/>
<path d="M291.478 199.268H288.929V196.73C288.929 195.91 288.269 195.25 287.45 195.25C286.63 195.25 285.97 195.91 285.97 196.73V199.268H283.433C282.613 199.268 281.953 199.929 281.953 200.748C281.953 201.568 282.613 202.228 283.433 202.228H285.97V204.778C285.97 205.598 286.63 206.258 287.45 206.258C288.269 206.258 288.929 205.598 288.929 204.778V202.228H291.478C292.298 202.228 292.958 201.568 292.958 200.748C292.958 199.94 292.298 199.268 291.478 199.268Z" fill="#FFD373"/>
<path d="M304.641 31.3049L302.843 29.5063L304.641 27.7077C305.222 27.1272 305.222 26.1937 304.641 25.6132C304.061 25.0326 303.128 25.0326 302.547 25.6132L300.749 27.4117L298.951 25.6132C298.371 25.0326 297.438 25.0326 296.857 25.6132C296.277 26.1937 296.277 27.1272 296.857 27.7077L298.655 29.5063L296.857 31.3049C296.277 31.8855 296.277 32.8189 296.857 33.3995C297.438 33.98 298.371 33.98 298.951 33.3995L300.749 31.6009L302.547 33.3995C303.128 33.98 304.061 33.98 304.641 33.3995C305.222 32.8189 305.222 31.8741 304.641 31.3049Z" fill="#FF879F"/>
<path d="M444.378 189.82C444.378 192.586 442.136 194.829 439.371 194.829C436.606 194.829 434.375 192.586 434.375 189.82C434.375 187.054 436.617 184.812 439.371 184.812C442.136 184.812 444.378 187.054 444.378 189.82Z" stroke="#FF879F" stroke-miterlimit="10"/>
<path d="M126.058 331.341C126.058 334.107 123.816 336.35 121.051 336.35C118.285 336.35 116.055 334.107 116.055 331.341C116.055 328.575 118.297 326.332 121.051 326.332C123.816 326.332 126.058 328.575 126.058 331.341Z" stroke="#FF879F" stroke-miterlimit="10"/>
<path d="M174.039 35.915L179.126 38.5105L174.335 41.6182L174.039 35.915Z" stroke="#2E7EFB" stroke-miterlimit="10" stroke-linejoin="round"/>
<path d="M288.695 277.678L293.794 280.262L289.003 283.381L288.695 277.678Z" stroke="#2E7EFB" stroke-miterlimit="10" stroke-linejoin="round"/>
<path d="M37.3594 164.901C41.8887 164.901 41.8887 169.17 46.4295 169.17C50.9702 169.17 50.9702 164.901 55.4996 164.901C60.029 164.901 60.0404 169.17 64.5697 169.17C69.1105 169.17 69.1105 164.901 73.6398 164.901C78.1806 164.901 78.1806 169.17 82.7213 169.17C87.2621 169.17 87.2621 164.901 91.8028 164.901" stroke="#FF879F" stroke-miterlimit="10"/>
<path d="M399.32 135.51C403.861 135.51 403.861 139.779 408.39 139.779C412.931 139.779 412.931 135.51 417.461 135.51C422.001 135.51 422.001 139.779 426.542 139.779C431.083 139.779 431.083 135.51 435.612 135.51C440.153 135.51 440.153 139.779 444.694 139.779C449.234 139.779 449.234 135.51 453.775 135.51" stroke="#2E7EFB" stroke-miterlimit="10" stroke-linecap="round" stroke-linejoin="round"/>
</g>
<defs>
<clipPath id="clip0_8_2781">
<rect width="465" height="410" fill="white"/>
</clipPath>
</defs>
</svg>
