<svg width="222" height="122" viewBox="0 0 222 122" fill="none" xmlns="http://www.w3.org/2000/svg">
<g clip-path="url(#clip0_8_1435)">
<path d="M110.165 1.81104C102.386 -1.17677 94.8692 -1.20661 88.3896 1.4292C81.9107 4.06481 76.5156 9.34681 72.9434 16.897C67.2746 28.8789 68.3325 40.7494 74.249 52.2046L74.248 52.2056C83.3081 69.7734 98.3432 79.5905 116.858 84.604C118.767 85.1206 120.689 85.5971 123.34 86.2729C121.866 87.7274 120.734 88.9005 119.561 89.9556L118.982 90.4614L118.981 90.4624C108.8 99.1965 96.8182 104.549 84.0986 108.321H84.0977C69.5758 112.643 54.7644 113.975 39.7451 111.534C27.2347 109.493 15.9269 105.188 7.79883 94.8735C6.99795 93.8531 6.07304 93.0217 4.99512 92.6655C3.88672 92.2994 2.69468 92.4603 1.44238 93.269L1.44141 93.27C0.0910486 94.1443 -0.494118 95.2989 -0.512695 96.5132C-0.530667 97.6941 -0.0132601 98.863 0.693359 99.8208L0.694336 99.8218C2.83139 102.706 5.20086 105.577 7.96484 107.917C17.2285 115.8 28.2023 119.91 39.9746 121.491L41.1162 121.636C69.6462 125.052 95.8282 118.352 119.522 102.398L120.648 101.631C125.269 98.447 129.237 94.2417 133.152 90.27L133.508 89.9175C134.328 89.1204 135.098 88.4968 135.949 88.0532C136.792 87.6137 137.734 87.3405 138.908 87.271L139.427 87.2544C159.963 87.0643 180.295 84.9222 200.056 78.7778L200.061 78.7759C200.065 78.7745 200.119 78.765 200.431 78.8433C200.564 78.8768 200.73 78.9202 200.935 78.9712C196.039 83.5049 191.493 87.7004 186.971 91.9058H186.972C185.683 93.1016 184.206 94.3002 183.055 95.73H183.056C182.394 96.5507 181.913 97.559 181.86 98.5591C181.806 99.59 182.212 100.585 183.259 101.271L183.261 101.272C183.972 101.734 184.89 101.99 185.805 102.085C186.724 102.181 187.682 102.119 188.496 101.906L188.498 101.905C189.319 101.686 190.041 101.177 190.683 100.634C191.006 100.361 191.322 100.068 191.625 99.7866C191.931 99.5023 192.225 99.2298 192.52 98.9829H192.521C201.136 91.7437 209.727 84.5043 218.305 77.2524V77.2515C221.132 74.8612 222.654 72.7213 222.487 70.5298C222.321 68.3504 220.5 66.3778 217.407 64.27C205.632 56.2478 193.947 48.1122 182.219 40.0239C181.459 39.4951 180.598 38.767 179.656 38.314L179.653 38.312C178.731 37.8752 177.684 37.5717 176.702 37.6567C175.687 37.7447 174.768 38.2496 174.186 39.353L174.184 39.356C173.791 40.1094 173.528 41.0485 173.432 41.981C173.347 42.7938 173.386 43.6363 173.604 44.3696L173.708 44.6772C174.04 45.5361 174.645 46.3 175.325 46.9683C176.007 47.6388 176.791 48.2392 177.507 48.7612L177.508 48.7603C183.671 53.2682 189.91 57.6512 196.129 62.0659C198.161 63.5089 200.207 64.9294 202.248 66.3569C202.24 66.6927 202.233 67.0326 202.225 67.3735C183.107 74.7385 163.064 76.6471 142.101 77.3823C142.683 75.6324 143.032 74.4915 143.455 73.3628V73.3618C153.873 45.9415 137.648 12.3689 110.165 1.81104ZM91.1328 11.0542C96.2575 8.64069 102.618 8.86484 109.435 12.2798C126.009 20.5875 134.834 34.4771 136.62 52.9106C137.443 61.3411 135.487 69.2116 130.756 76.8667C121.184 76.1451 112.607 73.6291 104.556 69.2798H104.555C96.1609 64.7617 89.3293 58.607 84.418 50.3784C80.0205 42.9981 77.8641 35.2617 79.8457 26.8159L80.0508 25.9966C82.0194 18.5714 86.0047 13.4695 91.1328 11.0542Z" fill="url(#paint0_linear_8_1435)" stroke="black"/>
</g>
<defs>
<linearGradient id="paint0_linear_8_1435" x1="222" y1="61.0067" x2="-0.0128326" y2="61.0067" gradientUnits="userSpaceOnUse">
<stop stop-color="white"/>
<stop offset="0.955" stop-color="#157B6C"/>
</linearGradient>
<clipPath id="clip0_8_1435">
<rect width="222" height="122" fill="white" transform="matrix(-1 0 0 1 222 0)"/>
</clipPath>
</defs>
</svg>
