<svg width="224" height="224" viewBox="0 0 224 224" fill="none" xmlns="http://www.w3.org/2000/svg">
<g clip-path="url(#clip0_8_2192)">
<path d="M205.949 37.3258C205.8 37.3258 205.68 37.2046 205.68 37.0565V34.9646C205.68 34.8153 205.801 34.6953 205.949 34.6953C206.098 34.6953 206.218 34.8165 206.218 34.9646V37.0565C206.218 37.2058 206.097 37.3258 205.949 37.3258Z" fill="black"/>
<path d="M205.949 42.1998C205.8 42.1998 205.68 42.0786 205.68 41.9305V39.8386C205.68 39.6893 205.801 39.5693 205.949 39.5693C206.098 39.5693 206.218 39.6905 206.218 39.8386V41.9305C206.218 42.0786 206.097 42.1998 205.949 42.1998Z" fill="black"/>
<path d="M204.562 38.7175H202.472C202.323 38.7175 202.203 38.5964 202.203 38.4482C202.203 38.2989 202.324 38.179 202.472 38.179H204.562C204.711 38.179 204.831 38.3001 204.831 38.4482C204.832 38.5964 204.711 38.7175 204.562 38.7175Z" fill="black"/>
<path d="M209.429 38.7173H207.339C207.19 38.7173 207.07 38.5961 207.07 38.448C207.07 38.2987 207.191 38.1787 207.339 38.1787H209.429C209.578 38.1787 209.698 38.2999 209.698 38.448C209.699 38.5961 209.578 38.7173 209.429 38.7173Z" fill="black"/>
<path d="M212.006 51.2015C211.627 51.2015 211.253 51.095 210.92 50.887C209.955 50.2859 209.641 49.0129 210.22 48.0496C210.498 47.5857 210.941 47.2601 211.467 47.134C212.001 47.0055 212.556 47.0961 213.029 47.3923C213.994 47.9933 214.308 49.2663 213.73 50.2296C213.451 50.6936 213.008 51.0192 212.483 51.1452C212.325 51.1832 212.165 51.2015 212.006 51.2015ZM211.942 47.6175C211.825 47.6175 211.709 47.631 211.593 47.6591C211.209 47.7522 210.886 47.9896 210.682 48.3287C210.254 49.0411 210.489 49.9836 211.205 50.4304C211.555 50.6483 211.964 50.7156 212.357 50.6213C212.741 50.5283 213.064 50.2908 213.268 49.9518C213.696 49.2394 213.46 48.2969 212.744 47.8501C212.497 47.6959 212.221 47.6175 211.942 47.6175Z" fill="black"/>
<path d="M166.071 211.785H65.8195C61.4998 211.785 58.4395 208.297 58.9848 203.994L83.6694 9.13489C84.2147 4.83238 88.159 1.34385 92.4787 1.34385L187.699 0.232422C198.629 0.232422 200.112 4.83238 199.567 9.13489L174.881 203.994C174.337 208.297 170.392 211.785 166.071 211.785Z" fill="#157B6C"/>
<path d="M160.041 211.786H59.7883C55.4686 211.786 52.4082 208.28 52.9535 203.954L77.6381 8.10096C78.1834 3.77642 82.1278 0.269531 86.4475 0.269531H186.701C191.02 0.269531 194.081 3.77519 193.535 8.10096L168.85 203.954C168.305 208.28 164.361 211.786 160.041 211.786Z" fill="white"/>
<path d="M160.038 212.056H59.7853C57.6285 212.056 55.7028 211.216 54.3603 209.692C53.0032 208.151 52.4077 206.102 52.6828 203.921L77.3674 8.06645C77.9286 3.61827 82.0001 0 86.4445 0H186.698C188.854 0 190.78 0.839694 192.123 2.36363C193.48 3.9047 194.075 5.95375 193.8 8.135L169.114 203.988C168.554 208.436 164.483 212.056 160.038 212.056ZM86.4445 0.539803C82.263 0.539803 78.4311 3.94632 77.9029 8.135L53.2171 203.988C52.9616 206.014 53.5118 207.912 54.7638 209.335C56.0024 210.741 57.785 211.515 59.7841 211.515H160.036C164.219 211.515 168.051 208.107 168.578 203.92L193.265 8.06645C193.52 6.04066 192.97 4.14216 191.718 2.71983C190.479 1.3134 188.697 0.539803 186.698 0.539803H86.4445Z" fill="black"/>
<path d="M58.663 204.224L82.2337 17.2175C82.3596 16.2186 83.2705 15.4095 84.267 15.4095H185.058C186.056 15.4095 186.763 16.2186 186.637 17.2175L163.066 204.224C162.94 205.223 162.029 206.032 161.033 206.032H60.2414C59.2437 206.032 58.537 205.223 58.663 204.224Z" fill="white"/>
<path d="M135.315 10.4997C134.458 10.4997 133.692 10.1655 133.156 9.55715C132.616 8.94268 132.377 8.12869 132.487 7.26207C132.707 5.51414 134.308 4.0918 136.055 4.0918C136.912 4.0918 137.679 4.42596 138.214 5.03431C138.755 5.64878 138.993 6.46277 138.883 7.32939C138.662 9.07855 137.061 10.4997 135.315 10.4997ZM136.054 4.63282C134.569 4.63282 133.209 5.8434 133.021 7.33062C132.932 8.04056 133.123 8.70522 133.561 9.20095C133.992 9.69057 134.615 9.96109 135.315 9.96109C136.8 9.96109 138.16 8.75051 138.347 7.26329C138.437 6.55335 138.246 5.88869 137.808 5.39296C137.377 4.90334 136.754 4.63282 136.054 4.63282Z" fill="black"/>
<path d="M178.188 84.3534C178.177 84.3534 178.164 84.3522 178.153 84.351C178.005 84.3326 177.902 84.198 177.92 84.0499L186.365 17.1828C186.416 16.7752 186.307 16.3945 186.058 16.1118C185.812 15.8327 185.455 15.6785 185.054 15.6785H84.2631C83.3986 15.6785 82.6064 16.3835 82.4963 17.2501L78.5911 48.2393C78.5728 48.3874 78.437 48.4926 78.2903 48.4731C78.1424 48.4547 78.0384 48.32 78.0568 48.1719L81.962 17.1828C82.1038 16.0555 83.1358 15.1387 84.2631 15.1387H185.054C185.612 15.1387 186.112 15.3578 186.462 15.7544C186.815 16.1559 186.97 16.6871 186.899 17.2501L178.454 84.1172C178.438 84.2543 178.322 84.3534 178.188 84.3534Z" fill="black"/>
<path d="M67.1214 135.16C67.1104 135.16 67.0994 135.16 67.0884 135.158C66.9404 135.14 66.8353 135.005 66.8536 134.858L67.6154 128.569C67.6337 128.421 67.7694 128.317 67.9149 128.334C68.0629 128.352 68.168 128.487 68.1497 128.634L67.3879 134.923C67.3721 135.06 67.2559 135.16 67.1214 135.16Z" fill="black"/>
<path d="M62.3792 175.016C62.3682 175.016 62.356 175.015 62.345 175.014C62.1971 174.996 62.0931 174.861 62.1115 174.713L66.1622 142.573C66.1805 142.425 66.3175 142.325 66.463 142.339C66.6109 142.358 66.7148 142.492 66.6965 142.64L62.6458 174.78C62.6287 174.917 62.5125 175.016 62.3792 175.016Z" fill="black"/>
<path d="M87.2787 206.391L60.2368 206.301C59.6793 206.301 59.1792 206.082 58.8295 205.686C58.4762 205.284 58.3209 204.753 58.3918 204.19L60.8102 185.002C60.8286 184.854 60.9643 184.753 61.111 184.768C61.259 184.786 61.3629 184.921 61.3445 185.069L58.9273 204.257C58.876 204.665 58.9848 205.046 59.2342 205.328C59.48 205.607 59.837 205.762 60.238 205.762L87.2799 205.851C87.4291 205.851 87.5489 205.972 87.5489 206.121C87.5477 206.271 87.4279 206.391 87.2787 206.391Z" fill="black"/>
<path d="M171.786 35.7042H117.567C116.476 35.7042 115.431 35.2403 114.701 34.43C113.97 33.6197 113.613 32.5327 113.723 31.447C113.923 29.464 115.576 27.9683 117.567 27.9683H171.785C172.876 27.9683 173.92 28.4322 174.651 29.2425C175.382 30.0528 175.739 31.1398 175.629 32.2255C175.43 34.2084 173.777 35.7042 171.786 35.7042ZM117.567 28.5068C115.854 28.5068 114.432 29.7933 114.258 31.4996C114.164 32.4336 114.47 33.37 115.099 34.0664C115.729 34.7629 116.628 35.1632 117.567 35.1632H171.785C173.498 35.1632 174.92 33.8767 175.094 32.1704C175.188 31.2352 174.882 30.3001 174.252 29.6024C173.623 28.9059 172.724 28.5056 171.786 28.5056H117.567V28.5068Z" fill="black"/>
<path d="M170.358 49.8209H126.918C125.828 49.8209 124.784 49.357 124.052 48.5467C123.321 47.7364 122.964 46.6494 123.074 45.5637C123.275 43.5807 124.928 42.085 126.918 42.085H170.358C171.448 42.085 172.492 42.5489 173.223 43.3592C173.955 44.1695 174.312 45.2565 174.202 46.3422C174.001 48.3251 172.348 49.8209 170.358 49.8209ZM126.918 42.6235C125.205 42.6235 123.783 43.91 123.61 45.6163C123.516 46.5515 123.821 47.4867 124.451 48.1844C125.081 48.8808 125.979 49.2811 126.917 49.2811H170.356C172.069 49.2811 173.491 47.9946 173.664 46.2883C173.758 45.3532 173.452 44.418 172.822 43.7203C172.193 43.0238 171.294 42.6235 170.356 42.6235H126.918Z" fill="black"/>
<path d="M102.28 147.511C99.4251 147.916 96.7218 145.523 96.2547 142.176L90.4531 100.728L100.747 99.2651L106.559 140.788C107.022 144.106 105.111 147.108 102.28 147.511Z" fill="white"/>
<path d="M101.656 147.824C100.572 147.824 99.4935 147.453 98.5594 146.75C97.1851 145.713 96.2485 144.06 95.9918 142.213L90.1902 100.765C90.1694 100.618 90.2721 100.481 90.4188 100.46L100.713 98.9972C100.783 98.9861 100.856 99.0057 100.913 99.0486C100.97 99.0914 101.008 99.1563 101.018 99.2273L106.831 140.751C107.312 144.204 105.29 147.357 102.323 147.778C102.1 147.81 101.879 147.824 101.656 147.824ZM90.7612 100.957L96.5261 142.139C96.7645 143.844 97.624 145.368 98.8846 146.319C99.8945 147.08 101.089 147.409 102.246 147.244C104.92 146.865 106.737 143.984 106.295 140.825L100.521 99.57L90.7612 100.957Z" fill="black"/>
<path d="M116.536 70.8344L87.834 76.8922L75.4471 82.0161L69.5184 86.4765L69.4756 86.5132C68.3703 87.2501 67.7137 89.7777 67.9093 92.7252C68.1025 95.6397 69.099 98.0376 70.274 98.6643L70.2287 98.6667L76.3592 102.174L89.2315 105.513L118.763 107.541L148.129 126.872L148.35 126.976C140.99 122.015 134.885 106.639 133.66 88.1204C132.436 69.6238 136.452 53.6317 143.084 47.7796L143.079 47.7734L116.873 70.5406L116.536 70.8344Z" fill="white"/>
<path d="M153.897 128.645C163.519 127.998 170.071 108.843 168.529 85.8609C166.988 62.8789 157.937 44.7727 148.314 45.4195C138.692 46.0664 132.14 65.2214 133.682 88.2035C135.223 111.185 144.274 129.292 153.897 128.645Z" fill="white"/>
<path d="M153.375 128.934C148.768 128.934 144.204 124.845 140.471 117.35C136.643 109.665 134.129 99.2909 133.391 88.141C132.273 71.2517 135.5 55.8422 141.612 48.8835C143.654 46.559 145.91 45.3032 148.317 45.1538C152.084 44.9225 155.854 47.4281 159.217 52.4124C162.473 57.2364 165.111 63.9968 166.844 71.9628C166.876 72.1085 166.784 72.2517 166.639 72.2836C166.493 72.3166 166.35 72.2236 166.319 72.0779C162.857 56.1788 155.857 45.679 148.794 45.679C148.646 45.679 148.499 45.6839 148.351 45.6924C146.092 45.8332 143.961 47.0266 142.017 49.2397C135.995 56.0968 132.82 71.3533 133.929 88.1055C135.437 110.903 144.363 128.967 153.826 128.38C156.086 128.239 158.217 127.046 160.161 124.833C166.183 117.976 169.358 102.719 168.249 85.9671C168.017 82.4554 167.602 78.9791 167.017 75.6325C166.991 75.4857 167.089 75.3461 167.236 75.3204C167.383 75.2959 167.522 75.3926 167.547 75.5395C168.137 78.9044 168.554 82.4003 168.787 85.9316C169.905 102.821 166.678 118.23 160.566 125.19C158.524 127.515 156.268 128.769 153.861 128.92C153.698 128.929 153.537 128.934 153.375 128.934Z" fill="black"/>
<path d="M153.114 124.096C149.031 124.096 144.986 120.477 141.681 113.841C138.297 107.045 136.073 97.8721 135.42 88.0137C134.432 73.0791 137.287 59.4506 142.694 53.2937C144.503 51.2324 146.505 50.1197 148.642 49.9863C154.354 49.6277 160.096 56.6182 163.627 68.2233C163.671 68.3653 163.59 68.5171 163.447 68.5599C163.305 68.6028 163.154 68.5232 163.111 68.38C159.656 57.027 154.13 50.1895 148.675 50.5249C146.687 50.6485 144.81 51.7 143.098 53.6499C137.781 59.704 134.978 73.1795 135.958 87.977C137.269 107.788 144.916 123.554 153.113 123.555C153.245 123.555 153.377 123.551 153.511 123.543C161.073 123.07 166.621 109.038 166.415 90.9012C166.413 90.7519 166.532 90.6295 166.681 90.6282C166.823 90.6319 166.951 90.7457 166.954 90.8951C167.054 99.7339 165.78 107.959 163.367 114.058C160.904 120.279 157.416 123.839 153.544 124.081C153.402 124.092 153.257 124.096 153.114 124.096Z" fill="black"/>
<path d="M146.499 97.0203C148.727 96.8705 150.244 92.4352 149.887 87.1138C149.53 81.7924 147.435 77.6 145.206 77.7498C142.978 77.8996 141.461 82.3348 141.818 87.6562C142.175 92.9776 144.271 97.17 146.499 97.0203Z" fill="white"/>
<path d="M146.37 97.297C144.006 97.297 141.897 93.1157 141.535 87.6577C141.273 83.6954 142.04 80.0686 143.49 78.4173C144 77.8359 144.571 77.5226 145.186 77.4834C147.591 77.3231 149.777 81.5644 150.145 87.1178C150.407 91.0813 149.64 94.7081 148.19 96.3582C147.68 96.9396 147.109 97.2529 146.494 97.2921C146.453 97.2958 146.411 97.297 146.37 97.297ZM145.309 78.0183C145.279 78.0183 145.248 78.0195 145.218 78.0208C144.752 78.0501 144.306 78.3023 143.894 78.7723C142.534 80.3207 141.819 83.7946 142.072 87.6209C142.408 92.6983 144.418 96.8906 146.459 96.7535C146.925 96.7241 147.371 96.472 147.783 96.002C149.143 94.4535 149.858 90.9797 149.605 87.1533C149.275 82.1519 147.321 78.0183 145.309 78.0183Z" fill="black"/>
<path d="M148.354 127.248C148.314 127.248 148.275 127.239 148.239 127.222L148.017 127.118C148.006 127.113 147.994 127.107 147.984 127.1L118.678 107.806L89.2165 105.783C89.1994 105.782 89.1835 105.779 89.1676 105.775L76.2953 102.435C76.272 102.429 76.25 102.421 76.2292 102.408L70.1 98.9028C70.0645 98.882 70.0339 98.8538 70.0119 98.822C68.7783 98.03 67.8356 95.6272 67.6448 92.7446C67.4431 89.7041 68.1156 87.1177 69.3162 86.3L69.3468 86.2731L75.289 81.8017C75.3073 81.7882 75.3269 81.7772 75.3477 81.7686L87.7346 76.6448C87.7493 76.6386 87.7652 76.6337 87.7823 76.6301L116.416 70.5857L142.907 47.5725C143.018 47.4758 143.187 47.4868 143.284 47.597C143.332 47.6508 143.359 47.7243 143.355 47.7953C143.35 47.8675 143.321 47.9373 143.267 47.985C136.491 53.9632 132.741 70.0876 133.933 88.1055C135.128 106.153 140.983 121.686 148.505 126.756C148.623 126.834 148.658 126.99 148.59 127.113C148.539 127.199 148.448 127.248 148.354 127.248ZM89.2788 105.247L118.786 107.273C118.832 107.276 118.876 107.291 118.915 107.317L145.36 124.726C139.108 117.993 134.446 104.02 133.394 88.141C132.351 72.3777 135.088 58.0258 140.329 50.5249L116.716 71.0399C116.681 71.0705 116.64 71.0913 116.595 71.0998L87.918 77.1515L75.5861 82.2533L69.6561 86.7186C69.6476 86.726 69.639 86.7321 69.6292 86.7382C68.6071 87.42 67.9982 89.9318 68.1816 92.7079C68.3625 95.4314 69.2967 97.8366 70.4044 98.4266C70.4423 98.4462 70.4729 98.4744 70.4973 98.5074L76.4652 101.921L89.2788 105.247Z" fill="black"/>
<path d="M116.622 70.7654L143.085 47.7754L143.09 47.7815C136.459 53.6337 132.442 69.627 133.666 88.1223C134.891 106.64 140.996 122.016 148.356 126.978L148.135 126.874L118.819 107.575L118.138 107.13C114.739 104.868 111.911 97.9159 111.375 89.541C110.825 80.9433 113.242 73.6688 116.292 71.0432L116.622 70.7654Z" fill="white"/>
<path d="M148.356 127.248C148.317 127.248 148.278 127.239 148.241 127.222L148.02 127.118C148.009 127.113 147.996 127.107 147.987 127.1L118.669 107.8L117.99 107.356C114.4 104.967 111.634 97.8146 111.106 89.5572C110.506 80.1749 113.282 73.2762 116.116 70.8379L116.447 70.56L142.909 47.5713C143.02 47.4746 143.189 47.4856 143.287 47.5958C143.334 47.6496 143.361 47.7231 143.358 47.794C143.353 47.8663 143.323 47.936 143.27 47.9838C136.494 53.962 132.744 70.0863 133.936 88.1043C135.13 106.152 140.986 121.685 148.508 126.755C148.625 126.833 148.66 126.988 148.592 127.112C148.542 127.199 148.45 127.248 148.356 127.248ZM140.333 50.5237L116.798 70.9701C116.796 70.9713 116.795 70.9725 116.794 70.9725L116.465 71.2492C113.644 73.6765 111.082 80.7343 111.644 89.5229C112.162 97.6212 114.831 104.607 118.287 106.906L118.965 107.349L145.363 124.726C139.11 117.993 134.448 104.02 133.397 88.141C132.354 72.3777 135.091 58.0258 140.333 50.5237Z" fill="black"/>
<path d="M76.0324 102.255C75.9871 102.255 75.9407 102.244 75.8991 102.22L70.1 98.9028C70.0645 98.882 70.0339 98.8538 70.0119 98.822C68.7783 98.03 67.8356 95.6272 67.6448 92.7446C67.4431 89.7041 68.1156 87.1177 69.3162 86.3L69.3468 86.2731L75.289 81.8017C75.4076 81.7123 75.5776 81.7368 75.6668 81.8555C75.7561 81.9742 75.7328 82.1432 75.613 82.2337L69.6561 86.7199C69.6476 86.7272 69.639 86.7333 69.6292 86.7395C68.6071 87.4212 67.9982 89.933 68.1828 92.7091C68.3625 95.4326 69.2979 97.8379 70.4056 98.4278C70.4435 98.4474 70.4741 98.4756 70.4986 98.5086L76.1681 101.751C76.2977 101.825 76.3417 101.99 76.2684 102.12C76.217 102.208 76.1265 102.255 76.0324 102.255Z" fill="black"/>
<path d="M76.4379 102.165C74.5208 101.159 72.9814 97.1438 72.6672 92.3908C72.3334 87.3551 73.6894 82.8873 75.6493 81.9448L69.5262 86.4775L69.4834 86.5142C68.3781 87.251 67.7215 89.7787 67.9171 92.7262C68.1103 95.6406 69.1068 98.0385 70.2818 98.6653L70.2365 98.6677L76.4379 102.165Z" fill="white"/>
<path d="M76.4346 102.434C76.3931 102.434 76.3503 102.424 76.3099 102.403C76.2622 102.378 76.2133 102.351 76.1657 102.323L70.1012 98.9039C70.0645 98.8831 70.0339 98.855 70.0119 98.8219C68.7783 98.03 67.8356 95.6272 67.6448 92.7445C67.4431 89.704 68.1156 87.1176 69.3162 86.3L69.3468 86.273L74.7302 82.2875C74.9821 82.0342 75.2487 81.8371 75.5299 81.7012C75.6546 81.6412 75.805 81.6865 75.8771 81.8053C75.9492 81.924 75.9187 82.0782 75.8062 82.1615L75.0591 82.7147C73.5626 84.2668 72.6554 88.1984 72.9317 92.3737C73.2337 96.9308 74.663 100.785 76.4322 101.855L76.5655 101.931C76.6938 102.003 76.7403 102.165 76.6694 102.295C76.6229 102.383 76.53 102.434 76.4346 102.434ZM70.4961 98.5073L74.7755 100.92C73.5284 99.0875 72.6321 95.987 72.3949 92.4092C72.1663 88.95 72.7177 85.7124 73.7619 83.6756L69.6561 86.7198C69.6476 86.7271 69.639 86.7333 69.6292 86.7394C68.6071 87.4212 67.9982 89.9329 68.1828 92.7091C68.3625 95.4326 69.2979 97.8378 70.4056 98.4278C70.4423 98.4474 70.4729 98.4755 70.4961 98.5073Z" fill="black"/>
<path d="M88.7624 105.392L89.3162 105.514C86.295 104.88 83.7518 98.7888 83.2677 91.4849C82.7749 84.0354 84.8229 77.7071 87.8344 76.8931L87.4199 77.0644L75.6761 81.9288C73.6978 82.837 72.3247 87.3256 72.6597 92.3907C72.9838 97.2783 74.6613 101.386 76.6518 102.244L88.7624 105.392Z" fill="white"/>
<path d="M89.3186 105.783C89.3002 105.783 89.2819 105.78 89.2636 105.777C89.2501 105.774 89.2354 105.771 89.222 105.767L88.7085 105.656C88.7048 105.654 88.7011 105.654 88.6987 105.653L76.5881 102.505C76.5746 102.501 76.5624 102.498 76.549 102.491C74.4362 101.581 72.7281 97.4337 72.3955 92.409C72.0556 87.2802 73.4201 82.6705 75.5684 81.6839L87.086 76.9126C87.3073 76.789 87.5347 76.6959 87.7682 76.6323C87.9064 76.5956 88.0482 76.6714 88.0935 76.8061C88.1387 76.9407 88.0727 77.0876 87.9406 77.1427L87.2743 77.4181C84.7091 78.8821 83.0976 84.7685 83.5402 91.4665C84.0183 98.6957 86.5076 104.6 89.3381 105.242L89.3773 105.25C89.5228 105.282 89.6145 105.425 89.5839 105.571C89.5558 105.696 89.4433 105.783 89.3186 105.783ZM76.7421 101.988L87.465 104.777C85.1737 102.663 83.4057 97.5989 83.0022 91.5032C82.6183 85.711 83.786 80.4892 85.8022 78.0289L75.7823 82.1796C73.8676 83.0585 72.612 87.5385 72.9323 92.3747C73.2453 97.1117 74.847 101.149 76.7421 101.988Z" fill="black"/>
<path d="M145.207 77.7524C142.978 77.892 141.362 82.3255 141.809 87.639C142.56 96.5501 146.029 97.0519 146.451 97.0801C146.458 97.0801 146.458 97.0911 146.451 97.0935L137.41 99.5563C136.655 95.9393 136.117 92.0493 135.848 87.9854C135.59 84.0905 135.598 80.3229 135.839 76.7744L145.207 77.7524Z" fill="#157B6C"/>
<path d="M137.406 99.8268C137.357 99.8268 137.308 99.8134 137.266 99.7864C137.202 99.7473 137.158 99.6848 137.142 99.6114C136.366 95.8989 135.839 91.993 135.575 88.0038C135.322 84.1774 135.319 80.3939 135.566 76.7573C135.571 76.6838 135.605 76.6165 135.661 76.5688C135.718 76.521 135.79 76.4978 135.863 76.5076L145.231 77.4831C145.371 77.4978 145.476 77.6166 145.473 77.7573C145.471 77.8981 145.361 78.0119 145.22 78.0205C144.737 78.0511 144.274 78.3192 143.842 78.8186C142.475 80.4037 141.765 83.9388 142.074 87.6146C142.807 96.3151 146.092 96.7851 146.465 96.8096C146.597 96.8181 146.71 96.9271 146.721 97.0593C146.733 97.1915 146.641 97.32 146.513 97.353L137.476 99.8146C137.454 99.8232 137.431 99.8268 137.406 99.8268ZM136.086 77.0731C135.858 80.6008 135.868 84.2643 136.113 87.9683C136.368 91.8326 136.873 95.6173 137.612 99.2209L145.482 97.0776C144.187 96.446 142.104 94.3823 141.538 87.6623C141.211 83.7919 141.956 80.1822 143.435 78.4673C143.631 78.2408 143.835 78.0523 144.047 77.903L136.086 77.0731Z" fill="#157B6C"/>
<path d="M140.866 185.298L139.448 180.12L133.59 180.386C133.047 179.246 132.419 178.165 131.707 177.154L134.809 172.184L130.992 168.408L126.05 171.568C125.022 170.863 123.936 170.244 122.804 169.718L123.005 163.854L117.812 162.493L115.117 167.694C113.884 167.598 112.634 167.607 111.375 167.721L108.621 162.543L103.443 163.962L103.709 169.822C102.569 170.365 101.488 170.993 100.477 171.704L95.5076 168.602L91.7319 172.42L94.8926 177.363C94.1871 178.392 93.5684 179.478 93.0426 180.609L87.1811 180.407L85.8203 185.602L91.0203 188.297C90.9237 189.53 90.9335 190.781 91.0472 192.039L85.8704 194.795L87.2887 199.973L93.1466 199.707C93.6894 200.847 94.3179 201.928 95.0295 202.939L91.9276 207.909L95.7448 211.685L100.687 208.525C101.715 209.231 102.801 209.849 103.933 210.375L103.731 216.239L108.925 217.6L111.62 212.399C112.852 212.495 114.103 212.486 115.36 212.372L118.116 217.55L123.294 216.131L123.028 210.271C124.168 209.728 125.249 209.1 126.26 208.389L131.229 211.491L135.005 207.673L131.844 202.73C132.55 201.701 133.168 200.615 133.694 199.484L139.557 199.686L140.918 194.491L135.718 191.796C135.814 190.563 135.804 189.312 135.691 188.054L140.866 185.298ZM117.018 203.379C109.655 205.395 102.053 201.06 100.036 193.697C98.0201 186.333 102.355 178.729 109.717 176.712C117.08 174.696 124.683 179.03 126.699 186.394C128.715 193.759 124.381 201.363 117.018 203.379Z" fill="white"/>
<path d="M108.921 217.869C108.898 217.869 108.876 217.867 108.852 217.86L103.658 216.499C103.536 216.467 103.453 216.355 103.458 216.229L103.654 210.543C102.623 210.053 101.623 209.483 100.679 208.847L95.8872 211.912C95.7808 211.979 95.6426 211.964 95.5522 211.876L91.735 208.1C91.6457 208.012 91.6286 207.872 91.6959 207.764L94.7036 202.947C94.0629 202.019 93.4834 201.022 92.9784 199.983L87.2979 200.242C87.1744 200.251 87.0595 200.164 87.0252 200.043L85.6069 194.863C85.5739 194.742 85.6289 194.613 85.7402 194.553L90.7593 191.881C90.6639 190.728 90.6554 189.576 90.7348 188.452L85.6925 185.838C85.5813 185.781 85.5238 185.652 85.5556 185.53L86.9164 180.335C86.9482 180.214 87.0668 180.127 87.1866 180.134L92.8708 180.33C93.3587 179.301 93.9285 178.302 94.5667 177.356L91.5027 172.563C91.4342 172.457 91.4501 172.317 91.5381 172.228L95.3137 168.41C95.4018 168.321 95.5412 168.305 95.6475 168.371L100.465 171.38C101.393 170.738 102.388 170.159 103.429 169.654L103.171 163.973C103.165 163.847 103.248 163.734 103.369 163.7L108.547 162.281C108.668 162.248 108.796 162.304 108.856 162.415L111.528 167.435C112.681 167.339 113.832 167.331 114.957 167.41L117.571 162.367C117.63 162.256 117.757 162.199 117.879 162.23L123.073 163.591C123.196 163.623 123.279 163.736 123.274 163.862L123.078 169.547C124.109 170.036 125.108 170.606 126.053 171.244L130.845 168.179C130.951 168.112 131.09 168.126 131.18 168.214L134.997 171.991C135.086 172.079 135.103 172.218 135.036 172.326L132.028 177.144C132.669 178.072 133.248 179.068 133.753 180.107L139.434 179.849C139.559 179.844 139.672 179.926 139.707 180.047L141.125 185.227C141.158 185.349 141.103 185.477 140.992 185.537L135.973 188.209C136.068 189.362 136.076 190.514 135.997 191.639L141.039 194.252C141.151 194.31 141.208 194.438 141.176 194.561L139.815 199.756C139.784 199.874 139.677 199.956 139.555 199.956C139.551 199.956 139.549 199.956 139.545 199.956L133.861 199.76C133.372 200.791 132.802 201.79 132.165 202.735L135.229 207.527C135.298 207.634 135.282 207.773 135.194 207.862L131.418 211.68C131.33 211.77 131.191 211.785 131.084 211.719L126.267 208.712C125.34 209.352 124.345 209.932 123.303 210.438L123.561 216.119C123.567 216.245 123.484 216.357 123.363 216.392L118.185 217.81C118.064 217.842 117.936 217.788 117.876 217.677L115.204 212.656C114.051 212.751 112.899 212.76 111.775 212.68L109.161 217.723C109.113 217.814 109.02 217.869 108.921 217.869ZM104.005 216.032L108.781 217.284L111.377 212.274C111.427 212.177 111.531 212.12 111.638 212.129C112.847 212.225 114.089 212.215 115.333 212.103C115.439 212.091 115.544 212.149 115.594 212.244L118.249 217.231L123.012 215.926L122.755 210.284C122.751 210.175 122.81 210.074 122.908 210.028C124.037 209.49 125.112 208.865 126.102 208.167C126.19 208.105 126.307 208.101 126.399 208.159L131.185 211.147L134.657 207.635L131.612 202.874C131.554 202.783 131.556 202.666 131.617 202.576C132.312 201.563 132.927 200.484 133.445 199.369C133.491 199.271 133.59 199.2 133.698 199.213L139.345 199.408L140.597 194.631L135.589 192.034C135.492 191.984 135.436 191.881 135.444 191.774C135.539 190.564 135.53 189.321 135.417 188.077C135.408 187.969 135.464 187.865 135.559 187.815L140.545 185.161L139.241 180.397L133.598 180.654C133.493 180.662 133.389 180.599 133.343 180.501C132.806 179.374 132.18 178.299 131.483 177.307C131.421 177.217 131.417 177.101 131.474 177.008L134.461 172.222L130.951 168.749L126.191 171.795C126.099 171.852 125.983 171.851 125.894 171.79C124.88 171.095 123.802 170.479 122.687 169.961C122.589 169.916 122.527 169.815 122.53 169.708L122.725 164.06L117.948 162.808L115.356 167.817C115.306 167.913 115.202 167.97 115.095 167.961C113.886 167.867 112.643 167.875 111.4 167.988C111.294 167.997 111.189 167.941 111.139 167.846L108.484 162.859L103.721 164.164L103.978 169.807C103.982 169.916 103.923 170.016 103.825 170.063C102.699 170.599 101.624 171.224 100.631 171.923C100.543 171.986 100.426 171.988 100.334 171.932L95.5485 168.944L92.0761 172.456L95.1206 177.216C95.1792 177.307 95.1768 177.424 95.1157 177.513C94.42 178.528 93.805 179.608 93.2878 180.72C93.2425 180.818 93.1423 180.886 93.0347 180.876L87.3884 180.681L86.1363 185.459L91.1444 188.055C91.241 188.105 91.2973 188.208 91.2887 188.316C91.1946 189.525 91.2031 190.769 91.3156 192.012C91.3254 192.12 91.2691 192.224 91.1738 192.274L86.1877 194.928L87.4923 199.692L93.1349 199.435C93.2413 199.429 93.344 199.49 93.3905 199.588C93.9272 200.715 94.5532 201.79 95.2502 202.783C95.3125 202.872 95.3162 202.988 95.2587 203.081L92.2717 207.867L95.782 211.34L100.542 208.294C100.634 208.236 100.75 208.238 100.839 208.299C101.851 208.995 102.93 209.609 104.046 210.128C104.144 210.173 104.205 210.274 104.201 210.381L104.005 216.032ZM113.37 204.141C107.179 204.141 101.488 200.022 99.7753 193.768C98.7812 190.136 99.2605 186.335 101.124 183.065C102.988 179.794 106.013 177.445 109.645 176.451C117.138 174.398 124.905 178.827 126.957 186.323C127.951 189.955 127.471 193.755 125.607 197.026C123.742 200.297 120.717 202.646 117.086 203.639C115.847 203.979 114.599 204.141 113.37 204.141ZM113.363 176.489C112.181 176.489 110.981 176.644 109.788 176.972C106.296 177.928 103.386 180.187 101.593 183.333C99.801 186.477 99.34 190.133 100.296 193.624C102.27 200.834 109.74 205.094 116.947 203.118C120.437 202.162 123.348 199.904 125.141 196.758C126.933 193.612 127.394 189.957 126.438 186.466C124.791 180.451 119.317 176.489 113.363 176.489Z" fill="black"/>
<path d="M183.007 181.419L183.241 177.507L179.13 176.32C179.022 175.404 178.84 174.51 178.586 173.645L181.893 170.937L180.14 167.433L175.984 168.462C175.439 167.733 174.834 167.052 174.175 166.424L175.688 162.419L172.418 160.262L169.336 163.225C168.507 162.87 167.641 162.584 166.744 162.368L166.054 158.145L162.142 157.914L160.954 162.026C160.038 162.135 159.144 162.316 158.279 162.57L155.572 159.264L152.067 161.019L153.093 165.175C152.364 165.721 151.682 166.327 151.054 166.985L147.049 165.474L144.891 168.746L147.854 171.825C147.498 172.654 147.212 173.522 146.996 174.418L142.773 175.111L142.539 179.023L146.65 180.21C146.757 181.126 146.939 182.02 147.194 182.885L143.886 185.593L145.64 189.097L149.796 188.068C150.341 188.797 150.946 189.478 151.605 190.106L150.092 194.111L153.362 196.268L156.443 193.305C157.272 193.66 158.139 193.946 159.035 194.162L159.727 198.385L163.639 198.616L164.827 194.504C165.743 194.395 166.637 194.214 167.502 193.96L170.209 197.266L173.714 195.511L172.687 191.355C173.415 190.809 174.098 190.203 174.726 189.545L178.73 191.056L180.888 187.784L177.926 184.705C178.281 183.876 178.568 183.008 178.784 182.112L183.007 181.419ZM162.289 188.334C156.728 188.005 152.489 183.23 152.821 177.669C153.152 172.108 157.929 167.867 163.49 168.196C169.05 168.525 173.289 173.3 172.958 178.861C172.627 184.422 167.85 188.663 162.289 188.334Z" fill="white"/>
<path d="M163.643 198.885C163.638 198.885 163.632 198.885 163.627 198.885L159.715 198.654C159.589 198.647 159.485 198.552 159.466 198.429L158.803 194.382C158.012 194.183 157.242 193.928 156.508 193.623L153.556 196.464C153.465 196.551 153.326 196.565 153.221 196.495L149.95 194.338C149.845 194.268 149.801 194.135 149.846 194.017L151.296 190.179C150.72 189.617 150.182 189.011 149.693 188.373L145.71 189.359C145.587 189.388 145.46 189.33 145.404 189.218L143.651 185.715C143.594 185.602 143.624 185.465 143.72 185.385L146.891 182.789C146.676 182.024 146.514 181.229 146.409 180.421L142.468 179.284C142.347 179.248 142.267 179.134 142.274 179.008L142.507 175.096C142.515 174.97 142.609 174.866 142.732 174.846L146.781 174.182C146.98 173.391 147.236 172.62 147.54 171.887L144.701 168.934C144.613 168.844 144.601 168.704 144.67 168.599L146.828 165.327C146.898 165.222 147.03 165.179 147.149 165.223L150.987 166.672C151.548 166.097 152.154 165.558 152.793 165.069L151.808 161.086C151.778 160.963 151.836 160.836 151.949 160.78L155.453 159.024C155.566 158.968 155.703 158.997 155.782 159.094L158.377 162.263C159.143 162.047 159.938 161.885 160.746 161.781L161.886 157.839C161.921 157.718 162.035 157.639 162.161 157.645L166.072 157.876C166.198 157.884 166.302 157.978 166.321 158.101L166.984 162.148C167.774 162.348 168.544 162.602 169.28 162.907L172.234 160.066C172.325 159.979 172.464 159.966 172.569 160.035L175.84 162.192C175.945 162.262 175.989 162.395 175.944 162.513L174.494 166.351C175.07 166.912 175.608 167.519 176.097 168.157L180.08 167.172C180.202 167.141 180.33 167.2 180.386 167.312L182.139 170.816C182.195 170.928 182.166 171.065 182.069 171.145L178.899 173.741C179.114 174.507 179.276 175.302 179.38 176.11L183.32 177.247C183.441 177.282 183.522 177.396 183.515 177.522L183.281 181.434C183.274 181.56 183.18 181.664 183.056 181.684L179.008 182.349C178.809 183.139 178.553 183.909 178.249 184.644L181.088 187.596C181.176 187.687 181.188 187.826 181.118 187.931L178.96 191.203C178.891 191.309 178.758 191.353 178.64 191.307L174.802 189.859C174.241 190.436 173.634 190.974 172.996 191.463L173.98 195.446C174.011 195.568 173.952 195.695 173.84 195.752L170.335 197.507C170.223 197.563 170.086 197.534 170.007 197.437L167.412 194.268C166.647 194.484 165.851 194.645 165.043 194.751L163.903 198.692C163.868 198.807 163.761 198.885 163.643 198.885ZM159.962 198.128L163.443 198.335L164.572 194.43C164.602 194.326 164.692 194.25 164.799 194.236C165.7 194.13 166.586 193.949 167.43 193.7C167.534 193.67 167.647 193.704 167.715 193.788L170.287 196.928L173.406 195.366L172.431 191.42C172.405 191.315 172.445 191.204 172.531 191.14C173.245 190.605 173.92 190.006 174.538 189.359C174.612 189.28 174.727 189.255 174.828 189.292L178.63 190.727L180.551 187.816L177.738 184.892C177.662 184.814 177.641 184.699 177.684 184.598C178.031 183.788 178.315 182.931 178.527 182.05C178.553 181.945 178.639 181.864 178.746 181.847L182.757 181.188L182.964 177.707L179.06 176.58C178.957 176.549 178.881 176.46 178.867 176.352C178.761 175.452 178.581 174.566 178.333 173.721C178.302 173.617 178.337 173.505 178.421 173.436L181.562 170.865L180.002 167.747L176.055 168.724C175.95 168.749 175.84 168.71 175.775 168.623C175.24 167.908 174.641 167.234 173.995 166.618C173.917 166.544 173.891 166.429 173.929 166.328L175.366 162.525L172.456 160.606L169.53 163.42C169.452 163.495 169.337 163.515 169.238 163.474C168.427 163.127 167.57 162.843 166.688 162.632C166.583 162.606 166.502 162.52 166.485 162.413L165.829 158.403L162.348 158.196L161.219 162.1C161.189 162.204 161.099 162.28 160.992 162.294C160.092 162.4 159.207 162.58 158.361 162.83C158.257 162.861 158.144 162.826 158.076 162.742L155.504 159.602L152.385 161.164L153.36 165.11C153.386 165.216 153.346 165.326 153.26 165.391C152.544 165.927 151.869 166.527 151.253 167.172C151.179 167.25 151.064 167.277 150.963 167.238L147.161 165.802L145.24 168.714L148.053 171.638C148.129 171.716 148.15 171.832 148.107 171.932C147.76 172.741 147.476 173.598 147.264 174.48C147.238 174.586 147.152 174.666 147.045 174.684L143.034 175.342L142.827 178.823L146.731 179.951C146.834 179.981 146.91 180.071 146.924 180.178C147.03 181.079 147.21 181.964 147.458 182.809C147.489 182.913 147.454 183.025 147.37 183.094L144.229 185.666L145.789 188.783L149.736 187.807C149.841 187.78 149.951 187.82 150.016 187.907C150.55 188.621 151.149 189.295 151.796 189.912C151.874 189.987 151.9 190.102 151.862 190.202L150.425 194.005L153.337 195.924L156.263 193.11C156.341 193.034 156.456 193.014 156.555 193.056C157.364 193.403 158.221 193.687 159.103 193.899C159.208 193.924 159.289 194.01 159.306 194.118L159.962 198.128ZM162.896 188.623C162.69 188.623 162.485 188.617 162.277 188.605C159.516 188.441 156.984 187.212 155.147 185.144C153.311 183.076 152.39 180.416 152.555 177.654C152.895 171.954 157.81 167.593 163.509 167.928C166.27 168.091 168.802 169.321 170.639 171.388C172.475 173.457 173.396 176.117 173.231 178.878C172.903 184.371 168.328 188.623 162.896 188.623ZM162.309 188.065C167.71 188.384 172.371 184.248 172.693 178.845C172.849 176.228 171.976 173.707 170.236 171.746C168.495 169.785 166.096 168.621 163.479 168.465C158.071 168.145 153.416 172.282 153.095 177.685C152.938 180.302 153.811 182.823 155.551 184.784C157.291 186.745 159.691 187.911 162.309 188.065Z" fill="black"/>
<path d="M194.359 207.86L196.147 219.589L200.472 217.387L199.235 205.684L194.359 207.86Z" fill="white"/>
<path d="M196.143 219.858C196.1 219.858 196.059 219.849 196.02 219.829C195.943 219.79 195.89 219.715 195.877 219.629L194.089 207.901C194.071 207.781 194.135 207.663 194.246 207.614L199.123 205.439C199.201 205.404 199.293 205.409 199.367 205.451C199.442 205.494 199.492 205.57 199.501 205.657L200.737 217.36C200.749 217.471 200.69 217.578 200.591 217.629L196.267 219.831C196.226 219.849 196.185 219.858 196.143 219.858ZM194.653 208.023L196.352 219.18L200.179 217.232L199.002 206.083L194.653 208.023Z" fill="black"/>
<path d="M195.023 215.152C194.529 216.283 194.061 218.422 193.586 221.208C193.361 222.528 194.396 223.732 195.752 223.732H211.662C212.757 223.732 213.274 222.396 212.457 221.673C209.292 218.871 204.443 215.767 200.256 213.94L198.66 216.199C198.66 216.199 195.162 214.836 195.023 215.152Z" fill="white"/>
<path d="M211.665 224.001H195.755C195.022 224.001 194.331 223.68 193.86 223.123C193.399 222.577 193.204 221.862 193.324 221.162C193.854 218.047 194.316 216.103 194.78 215.044C194.88 214.815 195.017 214.502 198.564 215.872L200.04 213.785C200.113 213.681 200.25 213.643 200.367 213.693C204.478 215.485 209.41 218.611 212.639 221.47C213.1 221.878 213.252 222.488 213.035 223.06C212.819 223.631 212.281 224.001 211.665 224.001ZM195.225 215.373C194.796 216.416 194.359 218.293 193.854 221.253C193.761 221.795 193.914 222.349 194.271 222.774C194.639 223.21 195.18 223.461 195.754 223.461H211.664C212.137 223.461 212.422 223.155 212.529 222.868C212.636 222.588 212.626 222.179 212.28 221.874C209.141 219.096 204.373 216.061 200.35 214.276L198.879 216.354C198.808 216.454 198.678 216.495 198.561 216.449C197.241 215.934 195.665 215.405 195.225 215.373Z" fill="black"/>
<path d="M211.372 222.634H194.613C194.464 222.634 194.344 222.513 194.344 222.365C194.344 222.216 194.465 222.096 194.613 222.096H211.372C211.521 222.096 211.641 222.217 211.641 222.365C211.642 222.513 211.521 222.634 211.372 222.634Z" fill="black"/>
<path d="M202.231 219.262C202.184 219.262 202.137 219.25 202.094 219.225C201.965 219.149 201.923 218.983 201.998 218.855L203.632 216.084C203.708 215.955 203.873 215.914 204.001 215.988C204.13 216.064 204.172 216.229 204.097 216.358L202.463 219.129C202.413 219.216 202.324 219.262 202.231 219.262Z" fill="black"/>
<path d="M204.62 219.667C204.576 219.667 204.531 219.656 204.489 219.633C204.36 219.561 204.313 219.396 204.386 219.266L205.444 217.369C205.517 217.239 205.682 217.191 205.811 217.265C205.941 217.337 205.987 217.501 205.915 217.632L204.856 219.529C204.806 219.617 204.714 219.667 204.62 219.667Z" fill="black"/>
<path d="M205.066 132.318C205.066 132.318 217.118 150.595 221.234 162.203C222.016 164.41 221.412 166.869 219.696 168.462C214.91 172.9 204.674 182.285 198.103 187.523L196.14 182.534C196.14 182.534 198.512 170.981 207.41 165.776L196.369 149.295L193.938 136.467L205.066 132.318Z" fill="#157B6C"/>
<path d="M184.164 137.265C184.164 137.265 187.733 164.584 188.28 171.561C188.826 178.538 188.322 186.301 188.052 191.998C187.782 197.695 194.239 210.94 194.239 210.94L200.462 209.838L201.617 145.668L203.29 133.79L184.164 137.265Z" fill="#157B6C"/>
<path d="M200.886 186.61C200.737 186.61 200.616 186.488 200.617 186.339L200.65 176.455C200.65 176.305 200.771 176.186 200.919 176.186C200.919 176.186 200.919 176.186 200.92 176.186C201.07 176.186 201.189 176.307 201.189 176.456L201.156 186.34C201.155 186.49 201.034 186.61 200.886 186.61Z" fill="white"/>
<path d="M201.527 156.066C201.378 156.066 201.258 155.945 201.258 155.797V150.698C201.258 150.607 201.303 150.522 201.378 150.472L204.379 148.475C204.504 148.393 204.67 148.426 204.753 148.551C204.835 148.674 204.802 148.842 204.679 148.925L201.798 150.843V155.798C201.797 155.945 201.676 156.066 201.527 156.066Z" fill="white"/>
<path d="M186.629 151.935C186.552 151.935 186.477 151.901 186.423 151.839C186.327 151.725 186.341 151.555 186.455 151.458C186.488 151.43 189.734 148.61 190.824 141.695C190.848 141.549 190.987 141.447 191.133 141.471C191.279 141.495 191.38 141.633 191.356 141.78C190.231 148.911 186.941 151.753 186.802 151.871C186.752 151.914 186.691 151.935 186.629 151.935Z" fill="white"/>
<path d="M216.352 114.446C216.352 114.446 217.487 113.482 218.389 112.993C219.291 112.503 222.082 108.33 222.082 108.33C222.082 108.33 221.999 114.911 219.116 115.917L216.352 114.446Z" fill="white"/>
<path d="M219.121 116.186C219.077 116.186 219.034 116.175 218.995 116.155L216.229 114.685C216.15 114.643 216.097 114.565 216.088 114.475C216.078 114.386 216.113 114.298 216.182 114.24C216.229 114.2 217.349 113.254 218.265 112.757C218.884 112.42 220.757 109.836 221.863 108.181C221.929 108.082 222.053 108.038 222.168 108.073C222.282 108.109 222.359 108.215 222.357 108.334C222.354 108.611 222.236 115.115 219.21 116.172C219.181 116.18 219.15 116.186 219.121 116.186ZM216.839 114.398L219.139 115.621C221.089 114.814 221.621 111.067 221.764 109.28C220.885 110.548 219.231 112.845 218.521 113.23C217.935 113.549 217.234 114.084 216.839 114.398Z" fill="black"/>
<path d="M213.547 115.265H216.82L223.02 106.29H219.828L213.547 115.265Z" fill="black"/>
<path d="M216.817 115.535H213.543C213.443 115.535 213.35 115.479 213.304 115.39C213.257 115.3 213.265 115.193 213.322 115.11L219.604 106.136C219.654 106.064 219.738 106.021 219.824 106.021H223.017C223.117 106.021 223.209 106.076 223.255 106.165C223.302 106.255 223.296 106.361 223.238 106.444L217.038 115.419C216.988 115.491 216.905 115.535 216.817 115.535ZM214.061 114.995H216.675L222.503 106.561H219.966L214.061 114.995Z" fill="black"/>
<path d="M214.266 115.265H217.539L223.739 106.29H220.548L214.266 115.265Z" fill="white"/>
<path d="M217.535 115.535H214.262C214.162 115.535 214.069 115.479 214.023 115.39C213.976 115.3 213.983 115.193 214.041 115.11L220.323 106.136C220.373 106.064 220.456 106.021 220.543 106.021H223.735C223.836 106.021 223.927 106.076 223.974 106.165C224.02 106.255 224.014 106.361 223.957 106.444L217.755 115.419C217.707 115.491 217.623 115.535 217.535 115.535ZM214.781 114.995H217.395L223.223 106.561H220.685L214.781 114.995Z" fill="black"/>
<path d="M216.357 114.445C216.357 114.445 212.281 120.964 208.479 120.279C205.791 119.796 204.4 116.891 202.094 113.633C199.788 110.374 196.995 108.653 196.995 108.653C196.995 108.653 192.003 106.963 185.9 107.226C179.9 107.484 174.625 111.249 172.527 116.883C170.896 121.261 169.709 127.658 170.752 136.477C172.741 153.297 186.789 151.11 186.789 151.11L189.068 147.522C189.068 147.522 182.784 147.103 181.313 138.439C180.775 135.273 181.987 130.561 181.987 130.561L182.99 137.797C183.13 138.811 183.948 139.595 184.967 139.689C186.115 139.795 187.856 139.783 190.278 139.333C195.254 138.406 200.166 135.265 203.335 134.907C205.464 134.665 205.975 133.377 205.86 131.669C207.1 131.946 208.319 132.007 209.437 131.728C217.369 129.747 218.815 116.111 218.815 116.111L216.357 114.445Z" fill="white"/>
<path d="M185.183 151.48C183.17 151.48 179.645 151.078 176.493 148.682C173.161 146.15 171.139 142.054 170.483 136.51C169.595 128.998 170.197 122.363 172.273 116.79C174.399 111.082 179.742 107.223 185.886 106.958C191.97 106.696 197.03 108.382 197.08 108.399C197.1 108.405 197.118 108.414 197.135 108.425C197.251 108.496 200.002 110.212 202.313 113.478C202.751 114.096 203.152 114.695 203.539 115.276C205.17 117.715 206.458 119.642 208.525 120.014C208.699 120.046 208.875 120.06 209.051 120.06C212.486 120.06 216.089 114.364 216.127 114.303C216.166 114.24 216.228 114.197 216.299 114.181C216.371 114.167 216.446 114.181 216.506 114.222L218.965 115.889C219.047 115.945 219.092 116.042 219.082 116.141C219.022 116.705 217.523 129.986 209.501 131.99C208.511 132.237 207.382 132.242 206.141 132.003C206.166 133.922 205.254 134.96 203.363 135.174C201.89 135.341 200.038 136.122 197.893 137.026C195.579 138.001 192.956 139.108 190.326 139.597C188.282 139.978 186.47 140.098 184.941 139.957C183.793 139.851 182.88 138.977 182.722 137.834L181.929 132.106C181.618 133.738 181.24 136.398 181.579 138.394C182.998 146.752 189.025 147.248 189.085 147.253C189.18 147.259 189.265 147.315 189.307 147.399C189.35 147.485 189.345 147.586 189.294 147.666L187.015 151.255C186.973 151.321 186.906 151.365 186.829 151.378C186.755 151.39 186.138 151.48 185.183 151.48ZM187.189 107.47C186.768 107.47 186.341 107.479 185.91 107.497C179.983 107.753 174.829 111.474 172.778 116.978C170.733 122.471 170.14 129.02 171.017 136.447C171.656 141.84 173.607 145.812 176.818 148.253C180.917 151.369 185.808 150.955 186.626 150.861L188.615 147.728C187.138 147.437 182.308 145.927 181.045 138.487C180.503 135.3 181.673 130.691 181.723 130.497C181.755 130.372 181.869 130.292 182 130.295C182.128 130.302 182.233 130.399 182.251 130.527L183.254 137.763C183.377 138.657 184.092 139.34 184.989 139.424C186.006 139.518 187.74 139.534 190.226 139.071C192.799 138.592 195.394 137.498 197.683 136.532C199.865 135.612 201.751 134.818 203.301 134.641C205.029 134.445 205.713 133.563 205.587 131.69C205.581 131.606 205.617 131.522 205.68 131.467C205.745 131.412 205.832 131.39 205.914 131.409C207.207 131.697 208.37 131.718 209.368 131.469C216.568 129.67 218.328 117.769 218.523 116.245L216.429 114.825C215.637 116.021 211.987 121.184 208.428 120.546C206.135 120.134 204.79 118.123 203.089 115.577C202.703 114.999 202.304 114.402 201.872 113.79C199.739 110.777 197.161 109.082 196.877 108.901C196.489 108.774 192.348 107.47 187.189 107.47Z" fill="black"/>
<path d="M182.497 129.946C182.47 129.946 182.442 129.942 182.415 129.934C182.273 129.889 182.195 129.737 182.239 129.595L184.733 121.711C184.778 121.569 184.93 121.489 185.072 121.534C185.214 121.58 185.292 121.732 185.248 121.874L182.754 129.758C182.717 129.873 182.611 129.946 182.497 129.946Z" fill="black"/>
<path d="M205.76 130.017C205.623 130.017 205.506 129.913 205.492 129.773C205.086 125.575 200.716 115.882 200.672 115.784C200.611 115.648 200.671 115.488 200.807 115.426C200.943 115.365 201.102 115.425 201.164 115.561C201.345 115.962 205.613 125.435 206.029 129.721C206.044 129.869 205.935 130.001 205.787 130.016C205.778 130.017 205.77 130.017 205.76 130.017Z" fill="black"/>
<path d="M189.949 99.1428L184.359 107.514C184.359 107.514 189.037 109.528 191.9 109.962C194.762 110.395 191.267 107.363 191.267 107.363L193.529 102.212L189.949 99.1428Z" fill="white"/>
<path d="M192.397 110.275C192.215 110.275 192.028 110.253 191.863 110.229C188.999 109.796 184.449 107.846 184.257 107.762C184.183 107.731 184.127 107.668 184.105 107.591C184.082 107.514 184.095 107.431 184.139 107.365L189.729 98.9934C189.772 98.9298 189.841 98.8869 189.916 98.8759C189.992 98.8637 190.069 98.8882 190.128 98.9383L193.708 102.007C193.798 102.084 193.828 102.211 193.779 102.32L191.596 107.291C192.302 107.923 193.566 109.185 193.244 109.883C193.103 110.191 192.758 110.275 192.397 110.275ZM184.769 107.392C185.842 107.837 189.562 109.333 191.944 109.694C192.654 109.8 192.755 109.656 192.755 109.655C192.867 109.412 192.076 108.417 191.094 107.565C191.005 107.488 190.976 107.361 191.024 107.253L193.205 102.285L190.008 99.5442L184.769 107.392Z" fill="black"/>
<path d="M200.764 95.1524C199.209 93.7754 197.269 95.0826 195.455 93.3984C194.625 92.626 194.571 91.9246 193.557 91.4815C192.884 91.1877 191.677 90.9588 190.847 91.5464C189.79 92.2943 190.502 93.5465 189.568 96.2626C188.912 98.1697 188.069 98.9788 188.501 99.6728C188.937 100.374 190.027 99.9139 190.56 100.643C191.251 101.588 189.876 102.977 190.242 104.287C190.472 105.114 191.591 106.295 194.388 106.909C194.842 107.008 195.301 106.771 195.481 106.341C195.711 105.792 195.998 105.098 196.216 104.41C197.256 101.134 196.802 99.8503 197.644 99.4537C198.935 98.8454 200.39 100.924 201.354 100.347C202.355 99.7499 202.361 96.5662 200.764 95.1524Z" fill="black"/>
<path d="M194.062 96.5292L194.635 96.7581C194.635 96.7581 192.991 100.526 192.725 101.671C192.461 102.818 195.946 103.908 195.946 103.908L196.513 103.518L196.939 103.642C197.071 103.68 197.212 103.657 197.325 103.578C197.437 103.5 197.508 103.374 197.518 103.237C197.59 102.184 197.827 99.8806 198.563 98.2245C198.562 98.222 196.974 96.1424 194.062 96.5292Z" fill="white"/>
<path d="M194.328 96.5622C194.431 96.5585 194.523 96.5292 194.583 96.5034C194.643 96.479 194.68 96.4777 194.737 96.4998C194.879 96.5549 194.948 96.7152 194.893 96.856L194.891 96.8633L194.888 96.8682C194.58 97.5867 194.283 98.3126 193.988 99.036C193.695 99.7594 193.405 100.489 193.159 101.22C193.102 101.398 193.042 101.592 193.007 101.747C192.987 101.835 193.023 101.948 193.113 102.074C193.296 102.325 193.613 102.545 193.931 102.734C194.579 103.11 195.308 103.405 196.028 103.647L195.793 103.682C195.984 103.555 196.17 103.421 196.365 103.299L196.387 103.286C196.45 103.247 196.524 103.242 196.589 103.264C196.715 103.308 196.837 103.365 196.961 103.416L197.029 103.446C197.046 103.452 197.065 103.458 197.083 103.46C197.121 103.462 197.16 103.456 197.194 103.436C197.264 103.401 197.312 103.329 197.325 103.253L197.353 102.873C197.397 102.337 197.453 101.802 197.524 101.269C197.675 100.203 197.888 99.1339 198.319 98.1118L198.351 98.3848C198.117 98.1045 197.803 97.8279 197.482 97.6063C197.156 97.3799 196.803 97.195 196.434 97.0567C196.065 96.9172 195.677 96.829 195.286 96.7862C195.089 96.7678 194.892 96.7519 194.694 96.7568C194.595 96.7544 194.496 96.7642 194.397 96.7678L194.36 96.7703C194.353 96.7703 194.359 96.7703 194.36 96.7678C194.364 96.7642 194.375 96.7519 194.382 96.7299C194.397 96.6846 194.377 96.6038 194.328 96.5622ZM193.794 96.4949C193.849 96.4422 193.933 96.3504 194.056 96.2941C194.116 96.266 194.178 96.2488 194.234 96.239C194.261 96.2342 194.293 96.2305 194.311 96.2293L194.353 96.2268C194.463 96.2207 194.572 96.2097 194.682 96.2097C194.902 96.2011 195.122 96.2146 195.342 96.2329C195.781 96.2819 196.214 96.3835 196.626 96.5414C197.039 96.6981 197.43 96.9062 197.791 97.1595C198.153 97.4178 198.478 97.6932 198.776 98.0592C198.84 98.1375 198.85 98.2416 198.811 98.3273L198.808 98.3322C198.595 98.7985 198.432 99.2943 198.291 99.7986C198.15 100.303 198.035 100.817 197.945 101.337C197.853 101.856 197.782 102.381 197.737 102.908L197.72 103.105C197.713 103.178 197.715 103.217 197.698 103.325C197.664 103.511 197.54 103.676 197.375 103.768C197.293 103.815 197.202 103.845 197.106 103.856C197.059 103.861 197.01 103.865 196.962 103.86C196.911 103.856 196.864 103.845 196.836 103.842C196.704 103.818 196.571 103.801 196.441 103.772L196.664 103.736C196.48 103.875 196.288 103.999 196.1 104.133C196.029 104.183 195.941 104.193 195.865 104.168C195.099 103.917 194.36 103.629 193.646 103.225C193.294 103.014 192.938 102.794 192.646 102.414C192.575 102.316 192.51 102.206 192.466 102.074C192.423 101.943 192.408 101.788 192.437 101.641C192.488 101.413 192.547 101.233 192.609 101.037C192.866 100.28 193.157 99.5489 193.454 98.8181C193.751 98.0874 194.064 97.3676 194.381 96.6454L194.533 97.0139C194.397 96.96 194.244 96.8829 194.113 96.7813C193.981 96.6809 193.882 96.5744 193.794 96.4949Z" fill="black"/>
<path d="M192.768 99.1858C192.768 99.1858 193.158 96.963 192.11 96.9985C191.061 97.0352 190.694 99.4943 192.768 99.1858Z" fill="white"/>
<path d="M22.9528 130.03C22.8073 130.421 22.6007 130.782 22.3146 131.101C21.5822 131.918 20.4745 132.268 19.423 132.582C18.5549 132.842 17.6733 133.104 16.7673 133.111C14.9749 133.126 13.301 132.146 11.5098 132.061C10.2969 132.002 9.10847 132.356 7.91148 132.559C5.6532 132.943 3.84486 132.03 2.16491 130.55C-0.809858 127.927 -0.652133 120.556 2.22726 115.885C5.2705 110.95 10.0071 111.209 10.6625 106.975C11.0403 104.539 9.43737 103.525 10.2468 100.928C10.6711 99.5698 11.8949 98.402 14.3427 96.0653C17.699 92.862 19.1038 92.3749 19.5905 92.2218C20.4158 91.9636 22.0884 91.4654 23.86 92.1937C24.3919 92.4128 25.7014 92.9502 26.177 94.2587C26.6759 95.632 25.9471 96.9993 25.551 97.7423C24.6646 99.407 23.5348 99.855 22.899 100.636C20.0502 104.137 25.4189 109.092 24.1425 117C23.8686 118.697 23.19 120.237 22.7498 121.883C22.1776 124.023 23.0665 124.576 23.2108 126.499C23.2988 127.676 23.3538 128.958 22.9528 130.03Z" fill="#157B6C"/>
<path d="M38.9487 205.703L37.6172 208.614C37.6771 208.861 37.8128 209.105 38.0794 209.409C39.4928 211.024 43.3222 209.736 44.2367 209.429C47.6015 208.298 48.027 206.901 51.0556 205.833C53.1354 205.098 55.0073 205.025 56.2177 205.068C56.0747 204.77 55.8252 204.305 55.3655 203.891C54.7114 203.303 53.6036 202.713 51.7868 202.708C48.1505 202.698 38.9487 205.703 38.9487 205.703Z" fill="white"/>
<path d="M40.3782 210.472C39.0283 210.472 38.2874 210.053 37.8802 209.588C37.5929 209.26 37.4327 208.98 37.3594 208.678C37.3447 208.62 37.3508 208.557 37.3765 208.502L38.708 205.591C38.7398 205.523 38.7985 205.47 38.8694 205.447C39.246 205.325 48.1226 202.438 51.771 202.438C51.7772 202.438 51.7833 202.438 51.7894 202.438C53.7518 202.444 54.917 203.122 55.5479 203.692C56.037 204.132 56.3047 204.622 56.4637 204.952C56.504 205.038 56.4979 205.138 56.4466 205.217C56.3952 205.296 56.3108 205.349 56.2118 205.339C54.4389 205.278 52.7357 205.529 51.1499 206.088C49.728 206.59 48.9063 207.158 48.0358 207.759C47.0894 208.412 46.1113 209.087 44.3286 209.687C42.6291 210.255 41.3465 210.472 40.3782 210.472ZM37.9071 208.634C37.9695 208.819 38.0893 209.006 38.2849 209.232C38.7691 209.785 40.1752 210.511 44.1526 209.174C45.8643 208.599 46.8107 207.945 47.7264 207.314C48.5884 206.719 49.4785 206.104 50.9677 205.578C52.4533 205.054 54.0354 204.788 55.6799 204.788C55.7068 204.788 55.735 204.788 55.7619 204.788C55.6249 204.566 55.4391 204.32 55.186 204.091C54.3814 203.365 53.2052 202.98 51.7869 202.976C51.7808 202.976 51.7747 202.976 51.7698 202.976C48.4221 202.976 40.2045 205.582 39.1482 205.921L37.9071 208.634Z" fill="black"/>
<path d="M50.457 219.286C50.457 219.286 56.6327 221.664 56.6266 217.611C56.6266 217.479 51.5513 201.084 51.5513 201.084L44.2812 205.02L50.457 219.286Z" fill="white"/>
<path d="M53.9076 220.248C52.2362 220.248 50.4694 219.579 50.3643 219.538C50.297 219.513 50.242 219.46 50.2139 219.394L44.0382 205.128C43.9819 204.999 44.0345 204.85 44.1568 204.782L51.4268 200.846C51.4977 200.808 51.5821 200.803 51.6566 200.834C51.7312 200.864 51.7887 200.927 51.8119 201.004C56.8982 217.438 56.8995 217.559 56.8995 217.61C56.9007 218.576 56.5742 219.291 55.9287 219.735C55.3772 220.115 54.651 220.248 53.9076 220.248ZM50.6614 219.072C51.2544 219.282 54.2194 220.258 55.623 219.29C56.1145 218.951 56.3554 218.411 56.3603 217.64C56.1989 217.025 53.1104 207.021 51.395 201.476L44.6299 205.139L50.6614 219.072Z" fill="black"/>
<path d="M49.7018 223.528H65.0047C65.418 223.528 65.7371 223.164 65.6833 222.756L65.5696 221.884C65.2823 221.112 64.7223 220.469 63.996 220.08L55.6965 215.622C55.6965 215.622 53.0189 216.19 53.2499 219C53.2499 219 51.4465 217.268 49.7849 218.481C49.7849 218.481 49.1369 220.64 49.1907 223.03C49.1956 223.306 49.4242 223.528 49.7018 223.528Z" fill="white"/>
<path d="M65.0016 223.797H49.6986C49.2768 223.797 48.9259 223.454 48.9173 223.034C48.8635 220.63 49.4956 218.492 49.5225 218.403C49.5397 218.346 49.5739 218.297 49.6216 218.262C50.8149 217.39 52.1488 217.87 52.968 218.431C53.1123 215.924 55.609 215.363 55.6359 215.357C55.6983 215.344 55.7631 215.354 55.8193 215.384L64.1188 219.842C64.9038 220.263 65.5078 220.956 65.8183 221.791C65.8257 221.81 65.8306 221.83 65.833 221.85L65.9467 222.721C65.9822 222.993 65.899 223.267 65.7181 223.473C65.5371 223.679 65.2755 223.797 65.0016 223.797ZM50.014 218.646C49.8967 219.072 49.4101 220.974 49.4553 223.022C49.4577 223.152 49.5666 223.257 49.6986 223.257H65.0016C65.1226 223.257 65.2339 223.207 65.3134 223.116C65.3928 223.026 65.4283 222.91 65.4124 222.791L65.3024 221.95C65.0346 221.251 64.5247 220.672 63.8645 220.317L55.6567 215.908C55.208 216.033 53.3263 216.696 53.5146 218.977C53.5243 219.088 53.4632 219.193 53.3617 219.242C53.2602 219.291 53.1404 219.272 53.0597 219.195C52.9925 219.131 51.4495 217.685 50.014 218.646Z" fill="black"/>
<path d="M60.7257 220.656C60.7123 220.656 60.6976 220.655 60.6829 220.653C56.6493 220.017 54.2602 217.901 54.16 217.812C54.0487 217.712 54.0401 217.542 54.1392 217.431C54.2382 217.321 54.4094 217.311 54.5194 217.41C54.5426 217.431 56.8987 219.511 60.7661 220.119C60.9128 220.142 61.013 220.28 60.9898 220.427C60.9702 220.561 60.8553 220.656 60.7257 220.656Z" fill="black"/>
<path d="M65.1156 222.805H49.7221C49.5729 222.805 49.4531 222.684 49.4531 222.536C49.4531 222.388 49.5742 222.267 49.7221 222.267H65.1156C65.2647 222.267 65.3846 222.388 65.3846 222.536C65.3846 222.684 65.2647 222.805 65.1156 222.805Z" fill="black"/>
<path d="M17.8194 210.026C16.4671 209.726 13.875 209.152 13.3016 207.379C12.8675 206.036 13.7968 204.638 14.0083 204.32C16.6224 200.388 25.2838 199.277 30.1867 203.126C32.7739 205.157 34.5248 208.734 33.6102 209.876C33.0539 210.57 31.8814 209.905 29.0142 209.653C23.6625 209.183 22.2944 211.018 17.8194 210.026Z" fill="white"/>
<path d="M20.3887 210.593C19.6148 210.593 18.7626 210.511 17.7649 210.29C16.3343 209.973 13.6701 209.381 13.0502 207.462C12.7397 206.501 12.9952 205.364 13.7887 204.171C14.9588 202.412 17.3113 201.132 20.2432 200.66C24.0078 200.054 27.7884 200.897 30.3572 202.913C32.2915 204.433 33.9042 206.914 34.1084 208.686C34.1756 209.267 34.0802 209.725 33.8247 210.045C33.3711 210.61 32.6607 210.483 31.4821 210.272C30.834 210.156 30.0271 210.013 28.9951 209.921C26.507 209.701 24.8613 209.995 23.41 210.252C22.4343 210.425 21.4916 210.593 20.3887 210.593ZM17.881 209.763C20.1943 210.276 21.6407 210.019 23.3146 209.722C24.7989 209.457 26.4825 209.159 29.0404 209.384C30.0968 209.477 30.916 209.624 31.575 209.741C32.6949 209.942 33.1583 210.01 33.4029 209.707C33.563 209.507 33.6217 209.176 33.5728 208.748C33.409 207.331 32.0371 204.92 30.0234 203.339C27.5707 201.414 23.9455 200.613 20.3276 201.194C17.5436 201.642 15.3232 202.835 14.2362 204.47C13.5369 205.522 13.3033 206.499 13.5613 207.297C14.0871 208.921 16.5544 209.469 17.881 209.763Z" fill="black"/>
<path d="M18.5743 202.708C18.3591 202.845 21.1554 219.908 21.1554 219.908L26.7406 220.59L26.4948 204.15L18.5743 202.708Z" fill="white"/>
<path d="M26.7419 220.859C26.7309 220.859 26.7199 220.859 26.7089 220.856L21.1237 220.175C21.0051 220.16 20.9097 220.069 20.8902 219.951C20.8828 219.908 20.1835 215.635 19.5183 211.399C18.1465 202.659 18.2186 202.613 18.4302 202.479C18.4876 202.442 18.5561 202.428 18.6221 202.441L26.5426 203.883C26.6698 203.906 26.7615 204.015 26.7639 204.145L27.0097 220.585C27.0109 220.663 26.9779 220.738 26.9204 220.789C26.8715 220.834 26.8079 220.859 26.7419 220.859ZM21.389 219.664L26.4668 220.284L26.2284 204.375L18.8447 203.029C18.995 204.742 20.395 213.59 21.389 219.664Z" fill="black"/>
<path d="M35.7919 223.528H20.4205C20.4205 223.528 19.8544 219.71 20.7396 218.01L21.2189 218.547C21.4671 218.826 21.8938 218.848 22.1701 218.598C22.7815 218.049 23.855 217.153 24.7818 216.729C26.5815 215.908 32.6057 219.983 34.9128 221.365C35.4594 221.693 35.7932 222.281 35.7932 222.919V223.528H35.7919Z" fill="white"/>
<path d="M35.7889 223.797H20.4175C20.2842 223.797 20.1705 223.699 20.1509 223.567C20.1277 223.408 19.5824 219.641 20.4982 217.885C20.5397 217.806 20.6155 217.753 20.7036 217.742C20.7904 217.731 20.8796 217.764 20.9383 217.83L21.4176 218.367C21.4885 218.447 21.5876 218.494 21.6939 218.5C21.8052 218.504 21.9067 218.47 21.9874 218.396C22.699 217.756 23.7419 216.904 24.6663 216.483C26.2105 215.779 30.0534 218.032 33.8571 220.399C34.3144 220.683 34.7179 220.935 35.0468 221.132C35.6703 221.505 36.0579 222.191 36.0579 222.918V223.525C36.0579 223.677 35.9381 223.797 35.7889 223.797ZM20.6534 223.258H35.5199V222.92C35.5199 222.381 35.2326 221.874 34.7704 221.597C34.4391 221.399 34.0319 221.146 33.5722 220.859C31.0303 219.277 26.2998 216.331 24.89 216.977C23.9828 217.39 22.9068 218.297 22.3468 218.8C22.1586 218.969 21.9152 219.05 21.6634 219.041C21.4115 219.027 21.1816 218.917 21.0141 218.728L20.8173 218.508C20.3074 219.975 20.5593 222.488 20.6534 223.258Z" fill="black"/>
<path d="M35.0675 222.597H20.7377C20.5886 222.597 20.4688 222.476 20.4688 222.328C20.4688 222.179 20.5898 222.059 20.7377 222.059H35.0675C35.2166 222.059 35.3365 222.18 35.3365 222.328C35.3377 222.477 35.2166 222.597 35.0675 222.597Z" fill="black"/>
<path d="M28.6229 220.759C28.5826 220.759 28.541 220.749 28.5019 220.73L24.0697 218.491C23.9364 218.423 23.8839 218.262 23.9511 218.128C24.0184 217.996 24.181 217.942 24.313 218.008L28.7452 220.247C28.8785 220.315 28.9311 220.476 28.8638 220.61C28.8161 220.705 28.7208 220.759 28.6229 220.759Z" fill="black"/>
<path d="M56.2207 205.068C53.2655 195.684 50.2834 186.307 47.2719 176.937C43.2139 164.308 39.1057 151.697 34.9486 139.104C28.4929 139.862 14.0763 134.958 15.5814 141.377C16.3273 144.56 16.2588 145.263 16.1781 146.448C15.5546 155.703 14.5862 162.319 14.6168 164.633C14.6449 166.684 14.7244 172.85 14.5862 181.279C14.5642 182.654 14.5251 184.123 14.4627 185.892C14.1473 194.798 13.5506 196.971 13.5029 204.226C13.4968 205.245 13.5005 206.233 13.5127 207.193C16.798 206.549 20.5516 206.369 24.5314 207.269C27.6786 207.98 28.0344 208.703 30.8685 209.086C31.8002 209.212 32.6708 209.255 33.4985 209.237C31.1742 178.238 31.3454 171.129 31.3454 171.129C32.2294 178.014 33.3273 185.2 34.6857 192.651C35.6834 198.124 36.7643 203.41 37.9026 208.516C41.2564 207.524 44.1969 205.786 48.2012 205.047C50.2944 204.663 52.9647 204.497 56.2207 205.068Z" fill="#157B6C"/>
<path d="M31.3464 170.881C31.2009 170.881 31.0811 170.765 31.0774 170.619L30.6642 155.416C30.6617 155.324 30.7057 155.238 30.7803 155.187L32.7586 153.822C32.8809 153.737 33.0484 153.768 33.134 153.89C33.2183 154.013 33.1878 154.182 33.0643 154.266L31.2058 155.548L31.6142 170.606C31.6178 170.755 31.5005 170.879 31.3525 170.883C31.3513 170.881 31.3489 170.881 31.3464 170.881Z" fill="white"/>
<path d="M51.9868 111.77L49.4045 111.943C49.0964 113.06 48.5266 114.681 47.4201 116.403C46.3955 117.997 44.2142 121.39 41.5683 121.471C38.8406 121.553 36.8464 115.752 33.3764 112.682C28.8415 112.288 24.984 112.469 22.0606 112.775C18.2483 113.174 15.3616 113.855 14.1817 114.15C11.2949 114.874 8.81781 115.748 6.68424 116.606C5.44445 120.525 1.83878 130.081 3.42948 141.437C4.64604 150.124 14.0288 155.614 16.5634 158.438C17.1882 157.737 17.7091 156.922 18.1431 156.051C17.4034 154.718 16.2945 152.722 14.9385 150.296C12.3428 145.649 11.828 144.764 11.6092 144.347C10.4586 142.155 9.94511 138.535 11.9894 132.17C11.8928 133.376 11.8684 134.679 11.9564 136.069C12.1924 139.738 12.399 142.963 14.568 144.458C16.4069 145.726 17.747 144.438 25.5391 143.116C31.9202 142.034 34.6064 142.291 36.4979 139.931C37.5396 138.631 37.8612 137.135 37.9664 136.066C37.4675 133.699 36.9772 131.307 36.4918 128.904C38.6327 130.029 41.0499 130.505 43.0661 130.17C48.7259 129.229 53.8452 121.462 51.9868 111.77Z" fill="white"/>
<path d="M16.5657 158.708C16.4886 158.708 16.4165 158.677 16.3651 158.619C15.7868 157.975 14.8172 157.166 13.6936 156.23C9.87764 153.048 4.11151 148.24 3.16394 141.476C1.69551 130.995 4.6556 121.953 6.07879 117.607C6.2084 117.21 6.327 116.85 6.42848 116.527C6.45293 116.45 6.5104 116.388 6.58498 116.358C9.16116 115.322 11.6248 114.516 14.1179 113.89C16.595 113.268 19.3326 112.791 22.0347 112.508C25.781 112.115 29.6055 112.083 33.4019 112.414C33.4594 112.419 33.5132 112.442 33.5572 112.48C35.0158 113.77 36.2299 115.552 37.3022 117.124C38.7914 119.31 40.0801 121.201 41.5143 121.201C41.5302 121.201 41.5473 121.201 41.5632 121.2C44.0673 121.124 46.1801 117.836 47.1961 116.257C48.0605 114.913 48.7171 113.437 49.1475 111.872C49.1781 111.761 49.2746 111.682 49.3896 111.675L51.9719 111.502C52.1076 111.492 52.2286 111.586 52.2543 111.72C53.252 116.92 52.3154 122.07 49.6855 125.851C47.9138 128.399 45.5797 130.027 43.1136 130.437C41.2001 130.755 38.9516 130.375 36.8682 129.393C37.3756 131.898 37.8109 134.013 38.2327 136.012C38.2388 136.039 38.24 136.067 38.2376 136.094C38.0811 137.685 37.5675 139.033 36.7117 140.1C35.1919 141.997 33.1549 142.282 29.4588 142.797C28.3364 142.954 27.0635 143.131 25.5878 143.382C22.7793 143.858 20.7998 144.333 19.3546 144.68C16.7637 145.301 15.6915 145.558 14.4187 144.681C12.142 143.11 11.933 139.856 11.6909 136.087C11.6542 135.519 11.6358 134.946 11.6358 134.372C10.5587 138.589 10.6296 141.896 11.851 144.222C11.9537 144.419 12.1335 144.737 12.5651 145.505C13.0407 146.35 13.8281 147.748 15.1767 150.163C16.5327 152.591 17.6416 154.587 18.3813 155.92C18.4241 155.998 18.4266 156.091 18.3875 156.171C17.9167 157.116 17.3714 157.938 16.7686 158.617C16.7161 158.675 16.6427 158.707 16.5657 158.708ZM6.9041 116.809C6.81118 117.102 6.7048 117.424 6.59109 117.774C5.18135 122.081 2.24816 131.043 3.69825 141.4C4.61648 147.959 10.2872 152.686 14.0384 155.815C15.0544 156.662 15.947 157.406 16.5571 158.035C17.0266 157.468 17.457 156.806 17.8397 156.058C17.1012 154.727 16.0179 152.78 14.7048 150.428C13.3561 148.014 12.57 146.615 12.0943 145.77C11.6469 144.975 11.4793 144.677 11.3717 144.473C9.88376 141.638 10.0048 137.47 11.7337 132.088C11.7752 131.957 11.9085 131.877 12.043 131.906C12.1775 131.932 12.2704 132.055 12.2594 132.192C12.1567 133.478 12.1457 134.777 12.2276 136.051C12.4599 139.681 12.6617 142.814 14.7231 144.237C15.7978 144.978 16.6623 144.771 19.2274 144.155C20.68 143.806 22.6693 143.328 25.4961 142.85C26.9792 142.599 28.2557 142.42 29.3817 142.262C33.0583 141.748 34.9033 141.491 36.2886 139.761C37.0699 138.786 37.5431 137.547 37.6947 136.081C37.246 133.951 36.7801 131.685 36.2287 128.957C36.2079 128.855 36.2483 128.75 36.3314 128.687C36.4146 128.625 36.5258 128.617 36.6187 128.664C38.7352 129.777 41.0705 130.227 43.0243 129.903C45.3462 129.516 47.5543 127.968 49.2429 125.54C51.7506 121.934 52.6663 117.031 51.7677 112.054L49.6145 112.198C49.1695 113.748 48.508 115.211 47.6485 116.549C46.5835 118.206 44.3656 121.655 41.5791 121.74C41.5571 121.74 41.5351 121.741 41.5119 121.741C39.7953 121.741 38.432 119.741 36.8559 117.429C35.8191 115.907 34.6453 114.185 33.2662 112.943C29.5333 112.624 25.7748 112.657 22.0909 113.043C19.4145 113.323 16.7026 113.797 14.2499 114.411C11.818 115.021 9.41425 115.807 6.9041 116.809Z" fill="black"/>
<path d="M49.0033 108.044L50.3813 103.459C50.4767 103.14 50.786 102.936 51.1173 102.974C51.4915 103.017 51.7617 103.353 51.7226 103.728L51.5245 105.608L53.3499 107.073C53.9124 107.525 54.1325 108.278 53.9026 108.961L53.2949 110.767C52.9905 111.672 52.1627 112.298 51.209 112.343L50.5671 112.373C49.5792 112.421 48.6695 111.836 48.304 110.918L47.8724 109.836C47.6009 109.158 47.958 108.39 48.6512 108.16L49.0033 108.044Z" fill="white"/>
<path d="M50.4608 112.648C49.4069 112.648 48.452 112.006 48.0583 111.02L47.6267 109.938C47.4677 109.54 47.48 109.106 47.6597 108.718C47.8407 108.329 48.1634 108.042 48.5706 107.906L48.7907 107.832L50.1283 103.382C50.2616 102.939 50.6919 102.655 51.1529 102.707C51.6725 102.766 52.0503 103.237 51.9965 103.757L51.8143 105.492L53.5261 106.865C54.1741 107.385 54.4309 108.263 54.1656 109.05L53.5579 110.857C53.2155 111.874 52.301 112.564 51.2299 112.616L50.588 112.646C50.5428 112.646 50.5024 112.648 50.4608 112.648ZM51.0428 103.24C50.8607 103.24 50.6968 103.358 50.643 103.537L49.2651 108.122C49.2394 108.207 49.1758 108.273 49.0915 108.301L48.7393 108.419C48.474 108.507 48.2637 108.694 48.1476 108.946C48.0302 109.198 48.0228 109.479 48.1255 109.737L48.5571 110.819C48.8812 111.629 49.6845 112.146 50.5574 112.105L51.1993 112.075C52.0479 112.034 52.7717 111.487 53.0431 110.683L53.6508 108.876C53.844 108.304 53.6569 107.663 53.185 107.285L51.3595 105.82C51.2874 105.762 51.2507 105.673 51.2605 105.581L51.4586 103.701C51.4818 103.475 51.3179 103.269 51.0905 103.243C51.0746 103.241 51.0587 103.24 51.0428 103.24Z" fill="black"/>
<path d="M49.0078 108.044L50.5948 108.246C50.5948 108.246 50.8296 109.538 49.8307 109.513L49.0078 108.044Z" fill="white"/>
<path d="M49.8606 109.783C49.8496 109.783 49.8374 109.783 49.8263 109.783C49.6772 109.78 49.5598 109.656 49.5635 109.507C49.5671 109.358 49.6845 109.244 49.8398 109.244C50.0036 109.251 50.1247 109.206 50.2042 109.113C50.3362 108.958 50.3594 108.687 50.3521 108.487L48.9778 108.312C48.8299 108.294 48.7259 108.158 48.7443 108.011C48.7626 107.863 48.8996 107.761 49.0463 107.777L50.6333 107.979C50.7495 107.994 50.8436 108.083 50.8644 108.198C50.8791 108.28 50.9989 109.015 50.615 109.463C50.4878 109.61 50.2567 109.783 49.8606 109.783Z" fill="black"/>
<path d="M51.6287 108.548C51.6141 108.548 51.5982 108.547 51.5835 108.545C51.4368 108.52 51.3378 108.381 51.3634 108.234L51.751 105.959C51.7755 105.813 51.9161 105.713 52.0616 105.739C52.2083 105.764 52.3073 105.903 52.2817 106.05L51.8941 108.324C51.8721 108.455 51.7571 108.548 51.6287 108.548Z" fill="black"/>
<path d="M52.7694 109.095C52.7536 109.095 52.7377 109.093 52.7218 109.091C52.575 109.064 52.4785 108.924 52.5041 108.777L52.8306 106.971C52.8575 106.824 52.9981 106.727 53.1436 106.753C53.2903 106.78 53.3869 106.919 53.3612 107.066L53.0348 108.873C53.0103 109.003 52.8966 109.095 52.7694 109.095Z" fill="black"/>
<path d="M36.3983 127.44C36.2748 127.44 36.1648 127.356 36.1354 127.23L34.3271 119.264C34.2941 119.118 34.3846 118.974 34.5301 118.941C34.6756 118.908 34.8198 118.999 34.8529 119.144L36.6612 127.11C36.6942 127.255 36.6037 127.4 36.4582 127.433C36.4374 127.438 36.4179 127.44 36.3983 127.44Z" fill="black"/>
<path d="M14.9725 159.861C14.8661 159.861 14.7646 159.797 14.723 159.692C14.6668 159.554 14.734 159.397 14.871 159.341C20.2275 157.166 19.4401 145.117 19.4315 144.996C19.4205 144.848 19.533 144.718 19.681 144.709C19.8362 144.696 19.9585 144.81 19.9683 144.958C20.005 145.47 20.7887 157.521 15.0727 159.842C15.0409 159.855 15.0067 159.861 14.9725 159.861Z" fill="white"/>
<path d="M26.8102 112.451C25.1755 112.184 24.003 110.73 24.0898 109.076L24.2243 106.508C25.7758 106.387 27.0658 105.649 27.0621 105.158C27.0596 104.919 26.4911 102.585 26.1353 101.62C26.4361 101.375 26.8017 100.702 26.1536 100.29C25.5068 99.8772 24.0519 97.2516 24.0519 97.2516C22.2582 95.167 21.7386 98.1047 20.3985 98.3496C19.4705 98.5185 18.9668 99.084 19.3177 100.296C19.6686 101.509 19.0022 100.9 18.3187 100.554C17.6365 100.209 17.1719 100.477 17.546 101.58C17.9202 102.683 19.2859 103.345 19.2859 103.345L19.9327 104.614L18.5694 110.858C18.3114 112.038 17.4629 113.003 16.3246 113.409L14.4453 114.079L24.3221 119.248L29.0929 112.824L26.8102 112.451Z" fill="white"/>
<path d="M24.3183 119.517C24.2755 119.517 24.2327 119.507 24.1936 119.486L14.3168 114.317C14.2214 114.268 14.1652 114.167 14.1725 114.059C14.1799 113.951 14.2495 113.859 14.351 113.824L16.2303 113.154C17.2879 112.777 18.0631 111.897 18.3027 110.8L19.6464 104.651L19.0828 103.544C18.7637 103.374 17.6437 102.711 17.2879 101.667C17.0641 101.007 17.0935 100.547 17.3784 100.299C17.5202 100.176 17.8454 100.014 18.4372 100.314C18.5656 100.379 18.6927 100.452 18.8126 100.522C18.9079 100.577 19.0326 100.649 19.1317 100.697C19.1207 100.626 19.0987 100.521 19.0559 100.372C18.8688 99.7229 18.8969 99.1941 19.1415 98.7975C19.3701 98.4291 19.7748 98.1892 20.347 98.0839C20.7346 98.0129 21.0806 97.6114 21.4156 97.2234C21.8338 96.7387 22.2654 96.238 22.8743 96.238C23.3169 96.238 23.7681 96.5122 24.2522 97.0753C24.2645 97.0888 24.2742 97.1047 24.284 97.1206C24.8342 98.1133 25.8662 99.789 26.2953 100.062C26.6719 100.302 26.7661 100.609 26.7783 100.823C26.7978 101.154 26.6401 101.473 26.4445 101.692C26.8015 102.738 27.3273 104.875 27.3297 105.154C27.3346 105.841 26.0043 106.574 24.4784 106.753L24.3562 109.089C24.2767 110.608 25.349 111.939 26.8516 112.184L29.1332 112.557C29.2261 112.572 29.3043 112.634 29.3398 112.722C29.3752 112.809 29.363 112.908 29.3068 112.984L24.5359 119.407C24.4821 119.479 24.4014 119.517 24.3183 119.517ZM15.1128 114.125L24.2388 118.901L28.6074 113.018L26.7624 112.717C24.9895 112.427 23.7228 110.856 23.8157 109.061L23.9502 106.493C23.9576 106.358 24.0639 106.248 24.1984 106.238C25.7745 106.116 26.7893 105.384 26.7881 105.159C26.7758 104.93 26.2317 102.672 25.8772 101.713C25.8368 101.605 25.8711 101.483 25.9603 101.411C26.0838 101.31 26.2513 101.072 26.2391 100.855C26.2317 100.723 26.1547 100.613 26.0043 100.517C25.3368 100.093 24.0309 97.7779 23.8255 97.407C23.4624 96.9896 23.1421 96.7778 22.8731 96.7778C22.5099 96.7778 22.1761 97.1659 21.8216 97.5771C21.4266 98.0362 21.017 98.5099 20.4424 98.6151C20.0267 98.691 19.743 98.8477 19.5987 99.0815C19.4373 99.3422 19.4288 99.7253 19.5718 100.221C19.7039 100.68 19.7455 101.023 19.5156 101.203C19.2588 101.404 18.9275 101.211 18.5424 100.989C18.4299 100.924 18.3113 100.855 18.1927 100.795C17.931 100.663 17.7733 100.669 17.7305 100.706C17.6767 100.752 17.6217 100.976 17.7965 101.493C18.1315 102.477 19.386 103.095 19.3994 103.101C19.452 103.127 19.4948 103.17 19.5217 103.221L20.1685 104.491C20.1966 104.546 20.2052 104.609 20.1917 104.67L18.8285 110.914C18.5485 112.193 17.6449 113.22 16.41 113.661L15.1128 114.125Z" fill="black"/>
<path d="M23.6607 106.845C22.4881 106.845 21.7606 105.996 21.5173 105.474C21.455 105.34 21.5124 105.178 21.6481 105.116C21.7826 105.053 21.9428 105.111 22.0064 105.246C22.0345 105.304 22.6691 106.596 24.1558 106.244C24.3001 106.209 24.4456 106.299 24.4799 106.445C24.5141 106.59 24.4248 106.735 24.2793 106.769C24.0617 106.821 23.8551 106.845 23.6607 106.845Z" fill="black"/>
<path d="M27.9996 69.2539C33.2289 69.2539 37.468 65.0303 37.468 59.8202C37.468 54.6101 33.2289 50.3865 27.9996 50.3865C22.7704 50.3865 18.5312 54.6101 18.5312 59.8202C18.5312 65.0303 22.7704 69.2539 27.9996 69.2539Z" fill="white"/>
<path d="M28.0051 69.5244C23.815 69.5244 19.9354 66.8058 18.6724 62.6061C17.9278 60.1299 18.1919 57.5129 19.4183 55.2349C20.6507 52.9447 22.706 51.2715 25.2052 50.526C30.3477 48.9899 35.7862 51.9092 37.328 57.0343C38.0726 59.5105 37.8085 62.1275 36.5821 64.4055C35.3497 66.6957 33.2944 68.3689 30.7952 69.1144C29.8672 69.3922 28.9282 69.5244 28.0051 69.5244ZM27.9965 50.6558C27.1235 50.6558 26.2371 50.7806 25.3592 51.0426C22.9995 51.7476 21.0579 53.3267 19.8939 55.4908C18.736 57.6414 18.4866 60.1128 19.1896 62.4507C20.6458 67.2905 25.7835 70.0483 30.6424 68.5978C33.0022 67.8928 34.9438 66.3138 36.1077 64.1496C37.2656 61.999 37.515 59.5277 36.812 57.1897C35.6187 53.2238 31.9543 50.6558 27.9965 50.6558Z" fill="black"/>
<path d="M25.147 63.5141L24.5565 56.3192C24.5259 55.952 24.8915 55.6802 25.2338 55.8161L32.7154 58.7734C33.0956 58.9239 33.1409 59.4442 32.7924 59.6584L25.9002 63.896C25.586 64.0906 25.1776 63.8825 25.147 63.5141Z" fill="#157B6C"/>
<path d="M60.0579 30.3416C65.3452 30.3416 69.6314 26.0714 69.6314 20.8039C69.6314 15.5363 65.3452 11.2661 60.0579 11.2661C54.7706 11.2661 50.4844 15.5363 50.4844 20.8039C50.4844 26.0714 54.7706 30.3416 60.0579 30.3416Z" fill="white"/>
<path d="M60.0631 30.612C55.8277 30.612 51.9066 27.8641 50.6301 23.6191C49.877 21.1159 50.1447 18.4708 51.3845 16.1683C52.6304 13.8537 54.7078 12.1633 57.2338 11.4092C62.4314 9.85594 67.9298 12.8083 69.4874 17.9873C70.2406 20.4892 69.9728 23.1356 68.7331 25.438C67.4872 27.7527 65.4098 29.4431 62.8838 30.1971C61.9448 30.4786 60.996 30.612 60.0631 30.612ZM51.1461 23.4649C52.6194 28.3598 57.8146 31.1494 62.7297 29.6818C65.1176 28.9694 67.08 27.3708 68.2574 25.1834C69.4288 23.0083 69.6806 20.5076 68.9703 18.1439C67.4969 13.2478 62.3018 10.4594 57.3866 11.927C55 12.6394 53.0364 14.238 51.8589 16.4254C50.6876 18.6005 50.4345 21.1 51.1461 23.4649Z" fill="black"/>
<path d="M57.9688 27.0513H56.4453L58.3771 14.6982H59.9006L57.9688 27.0513Z" fill="black"/>
<path d="M55.2109 19.805L55.4176 18.3545H65.2821L65.0742 19.805H55.2109Z" fill="black"/>
<path d="M54.7422 23.1L54.95 21.6495H64.8134L64.6055 23.1H54.7422Z" fill="black"/>
<path d="M61.6172 27.0513H60.0938L62.0244 14.6982H63.5478L61.6172 27.0513Z" fill="black"/>
<path d="M34.7537 45.2812C41.4652 45.2812 46.9059 39.8344 46.9059 33.1155C46.9059 26.3965 41.4652 20.9497 34.7537 20.9497C28.0423 20.9497 22.6016 26.3965 22.6016 33.1155C22.6016 39.8344 28.0423 45.2812 34.7537 45.2812Z" fill="white"/>
<path d="M34.7571 45.5518C27.9077 45.5518 22.3359 39.9738 22.3359 33.1167C22.3359 26.2596 27.9089 20.6816 34.7571 20.6816C41.6065 20.6816 47.1795 26.2596 47.1795 33.1167C47.1782 39.9726 41.6065 45.5518 34.7571 45.5518ZM34.7571 21.2202C28.2048 21.2202 22.8739 26.557 22.8739 33.1167C22.8739 39.6763 28.2048 45.0132 34.7571 45.0132C41.3094 45.0132 46.6403 39.6763 46.6403 33.1167C46.6403 26.557 41.3094 21.2202 34.7571 21.2202Z" fill="black"/>
<path d="M34.823 39.2358C34.7032 39.3105 34.5516 39.3142 34.4281 39.2444C33.357 38.6446 28.3893 35.6482 28.5837 31.7288C28.7891 27.5854 33.28 28.3039 34.3889 30.3431C34.4305 30.4203 34.5136 30.4668 34.6017 30.4619C34.6897 30.457 34.7667 30.4031 34.801 30.3211C35.3451 29.0114 37.102 28.0628 38.7563 28.6846C40.7285 29.4276 42.7337 34.3274 34.823 39.2358Z" fill="#157B6C"/>
<path d="M58.4645 90.0405L50.6871 91.7945C49.7285 92.0112 48.9839 92.7664 48.7797 93.7285L47.7429 98.6161L44.1861 94.5964C43.5785 93.9097 42.6456 93.6086 41.7506 93.8093L34.5992 95.425C33.2444 95.7311 31.8983 94.8791 31.5926 93.5217L28.1716 78.3227C27.8659 76.9665 28.7169 75.6188 30.0728 75.3128L53.9382 69.9294C55.2929 69.6234 56.6391 70.4754 56.9447 71.8328L60.3658 87.0318C60.6702 88.388 59.8193 89.7357 58.4645 90.0405Z" fill="white"/>
<path d="M47.7464 98.8868C47.6706 98.8868 47.596 98.8549 47.5446 98.7962L43.9879 94.7776C43.445 94.1644 42.6124 93.8951 41.814 94.075L34.6613 95.6883C33.1636 96.0274 31.6707 95.0812 31.3332 93.5818L27.9122 78.3828C27.5747 76.8834 28.5186 75.3888 30.0164 75.051L53.8818 69.6676C55.3795 69.3298 56.8724 70.2747 57.2099 71.7742L60.6309 86.9731C60.9684 88.4726 60.0245 89.9672 58.5267 90.305L50.7493 92.0591C49.8958 92.2512 49.2283 92.9293 49.0461 93.785L48.0093 98.6726C47.9885 98.7717 47.9127 98.8513 47.8149 98.877C47.7916 98.8843 47.7684 98.8868 47.7464 98.8868ZM42.3055 93.4802C43.0929 93.4802 43.8546 93.8155 44.3901 94.419L47.5923 98.0373L48.5179 93.6723C48.7429 92.6111 49.5718 91.7702 50.6294 91.5315L58.4069 89.7774C59.6149 89.5045 60.3766 88.2988 60.1039 87.0894L56.6829 71.8905C56.4103 70.6811 55.2071 69.9185 53.9979 70.1915L30.1325 75.5749C28.9245 75.8478 28.164 77.0535 28.4355 78.2629L31.8565 93.4618C31.9886 94.0469 32.3407 94.5463 32.8469 94.8682C33.3531 95.1901 33.9558 95.293 34.5403 95.1608L41.6929 93.5475C41.8971 93.5022 42.1025 93.4802 42.3055 93.4802Z" fill="black"/>
<path d="M35.2853 80.7701C35.1618 80.7701 35.0518 80.6856 35.0224 80.5607C34.9894 80.4151 35.0799 80.2706 35.2254 80.2376L52.3819 76.3207C52.5274 76.2864 52.6717 76.3782 52.7047 76.5238C52.7377 76.6695 52.6473 76.8139 52.5018 76.847L35.3452 80.7639C35.3244 80.7676 35.3049 80.7701 35.2853 80.7701Z" fill="black"/>
<path d="M35.7853 84.8889C35.6618 84.8889 35.5518 84.8044 35.5224 84.6796C35.4894 84.5339 35.5799 84.3895 35.7254 84.3564L48.4412 81.453C48.5867 81.4187 48.731 81.5105 48.764 81.6562C48.797 81.8018 48.7065 81.9463 48.561 81.9793L35.8452 84.8828C35.8256 84.8864 35.8049 84.8889 35.7853 84.8889Z" fill="black"/>
<path d="M37.1915 88.9063C37.0681 88.9063 36.958 88.8218 36.9287 88.697C36.8957 88.5513 36.9861 88.4069 37.1316 88.3738L54.2882 84.4569C54.4337 84.4238 54.578 84.5144 54.611 84.6601C54.644 84.8057 54.5535 84.9502 54.408 84.9832L37.2515 88.9002C37.2319 88.9038 37.2111 88.9063 37.1915 88.9063Z" fill="black"/>
<path d="M221.917 76.1011C222.613 76.1011 223.178 76.6666 223.178 77.3631V86.0477C223.178 86.7441 222.613 87.3096 221.917 87.3096H198.003C197.307 87.3096 196.742 86.7441 196.742 86.0477V77.3631C196.742 76.6666 197.307 76.1011 198.003 76.1011H221.917Z" fill="white"/>
<path d="M221.92 87.5802H198.006C197.162 87.5802 196.477 86.8935 196.477 86.0489V77.3643C196.477 76.5197 197.162 75.833 198.006 75.833H202.724C202.874 75.833 202.993 75.9542 202.993 76.1023C202.993 76.2516 202.872 76.3716 202.724 76.3716H198.006C197.46 76.3716 197.015 76.8171 197.015 77.3643V86.0489C197.015 86.596 197.46 87.0416 198.006 87.0416H221.92C222.467 87.0416 222.912 86.596 222.912 86.0489V77.3643C222.912 76.8171 222.467 76.3716 221.92 76.3716H205.902C205.753 76.3716 205.633 76.2504 205.633 76.1023C205.633 75.953 205.754 75.833 205.902 75.833H221.92C222.764 75.833 223.45 76.5197 223.45 77.3643V86.0489C223.45 86.8935 222.764 87.5802 221.92 87.5802Z" fill="black"/>
<path d="M219.69 80.5054H200.683C200.534 80.5054 200.414 80.3842 200.414 80.2361C200.414 80.088 200.535 79.9668 200.683 79.9668H219.69C219.839 79.9668 219.959 80.088 219.959 80.2361C219.959 80.3842 219.839 80.5054 219.69 80.5054Z" fill="black"/>
<path d="M219.688 83.0474H215.714C215.565 83.0474 215.445 82.9262 215.445 82.7781C215.445 82.6287 215.566 82.5088 215.714 82.5088H219.688C219.837 82.5088 219.957 82.63 219.957 82.7781C219.958 82.9274 219.837 83.0474 219.688 83.0474Z" fill="black"/>
<path d="M213.175 83.0474H200.683C200.534 83.0474 200.414 82.9262 200.414 82.7781C200.414 82.6287 200.535 82.5088 200.683 82.5088H213.175C213.324 82.5088 213.444 82.63 213.444 82.7781C213.444 82.9274 213.323 83.0474 213.175 83.0474Z" fill="black"/>
</g>
<defs>
<clipPath id="clip0_8_2192">
<rect width="224" height="224" fill="white"/>
</clipPath>
</defs>
</svg>
