<svg width="223" height="220" viewBox="0 0 223 220" fill="none" xmlns="http://www.w3.org/2000/svg">
<g clip-path="url(#clip0_8_1777)">
<path d="M134.05 87.9555C133.98 87.9555 133.911 87.9291 133.858 87.875C133.754 87.7692 133.756 87.5997 133.862 87.4963L134.737 86.6391C134.842 86.5358 135.014 86.537 135.118 86.6428C135.222 86.7486 135.22 86.9181 135.114 87.0214L134.239 87.8786C134.187 87.9303 134.118 87.9555 134.05 87.9555Z" fill="black"/>
<path d="M129.855 92.0611C129.785 92.0611 129.716 92.0347 129.663 91.9806C129.559 91.8748 129.56 91.7053 129.667 91.6019L130.542 90.7447C130.647 90.6414 130.819 90.6426 130.922 90.7483C131.026 90.8541 131.025 91.0236 130.919 91.127L130.043 91.9842C129.991 92.0359 129.924 92.0611 129.855 92.0611Z" fill="black"/>
<path d="M130.762 87.9136C130.692 87.9136 130.622 87.8872 130.569 87.8331L129.709 86.9543C129.605 86.8485 129.608 86.679 129.714 86.5756C129.822 86.4734 129.991 86.4746 130.094 86.5804L130.954 87.4592C131.058 87.565 131.056 87.7345 130.949 87.8379C130.897 87.8884 130.83 87.9136 130.762 87.9136Z" fill="black"/>
<path d="M134.879 92.125C134.809 92.125 134.739 92.0986 134.686 92.0445L133.826 91.1657C133.723 91.0599 133.725 90.8904 133.831 90.787C133.937 90.6836 134.108 90.686 134.212 90.7918L135.071 91.6706C135.175 91.7764 135.173 91.9459 135.067 92.0493C135.015 92.0998 134.947 92.125 134.879 92.125Z" fill="black"/>
<path d="M158.168 196.762C158.02 196.762 157.9 196.643 157.898 196.496C157.897 196.348 158.017 196.228 158.165 196.227L159.393 196.22H159.395C159.542 196.22 159.663 196.339 159.664 196.485C159.665 196.633 159.546 196.754 159.397 196.755L158.169 196.762H158.168Z" fill="black"/>
<path d="M152.285 196.797C152.138 196.797 152.017 196.678 152.016 196.531C152.014 196.383 152.134 196.263 152.282 196.262L153.511 196.255H153.512C153.659 196.255 153.78 196.374 153.781 196.52C153.782 196.668 153.663 196.788 153.514 196.79L152.286 196.797H152.285Z" fill="black"/>
<path d="M155.833 194.45C155.684 194.45 155.564 194.33 155.564 194.182L155.562 192.955C155.562 192.807 155.682 192.687 155.832 192.687C155.98 192.687 156.101 192.807 156.101 192.955L156.102 194.182C156.102 194.33 155.982 194.45 155.833 194.45Z" fill="black"/>
<path d="M155.849 200.329C155.7 200.329 155.579 200.209 155.579 200.061L155.578 198.834C155.578 198.686 155.698 198.565 155.847 198.565C155.996 198.565 156.117 198.686 156.117 198.834L156.118 200.061C156.118 200.209 155.997 200.329 155.849 200.329Z" fill="black"/>
<path d="M175.047 85.5004C175.047 85.5004 177.805 85.1265 178.667 78.9521C179.529 72.7776 179.702 67.3522 185.391 65.6679C191.081 63.9836 198.099 66.6958 197.927 72.6827C197.755 78.6695 198.646 83.7896 202.247 86.4417C206.902 89.8715 208.724 87.9324 217.344 96.29C228.196 106.81 225.045 138.825 193.667 130.031L175.047 85.5004Z" fill="#157B6C"/>
<path d="M182.789 80.2095C182.789 80.2095 183.725 81.2349 185.68 80.8755L182.789 80.2095Z" fill="white"/>
<path d="M184.872 81.2192C183.371 81.2192 182.63 80.4282 182.593 80.3885C182.493 80.2791 182.502 80.1096 182.612 80.0098C182.721 79.9112 182.891 79.9185 182.991 80.0266C183.028 80.0663 183.867 80.9343 185.635 80.6097C185.78 80.5821 185.921 80.6794 185.949 80.8249C185.977 80.9704 185.879 81.1098 185.733 81.1375C185.422 81.1952 185.135 81.2192 184.872 81.2192Z" fill="black"/>
<path d="M183.506 201.746C183.506 201.746 181.876 206.719 180.245 208.238C178.615 209.756 172.133 212.741 172.043 215.986C171.938 219.755 174.136 220.452 180.026 219.091C184.28 218.108 187.791 215.517 189.046 214.039C190.154 212.734 189.535 211.623 189.264 210.093C188.932 208.215 188.868 206.3 188.868 204.394V201.276L183.506 201.746Z" fill="white"/>
<path d="M175.592 220C174.355 220 173.482 219.751 172.867 219.251C172.074 218.606 171.726 217.565 171.769 215.977C171.839 213.486 175.328 211.227 177.875 209.578C178.814 208.97 179.625 208.444 180.058 208.042C181.619 206.588 183.23 201.711 183.246 201.663C183.279 201.561 183.37 201.488 183.477 201.479L188.841 201.008C188.916 201 188.991 201.026 189.047 201.077C189.102 201.128 189.134 201.2 189.134 201.274V204.393C189.134 206.093 189.181 208.093 189.526 210.046C189.579 210.347 189.647 210.633 189.712 210.91C189.973 212.018 190.22 213.067 189.247 214.212C188.014 215.666 184.435 218.347 180.082 219.352C178.216 219.783 176.747 220 175.592 220ZM183.702 201.997C183.395 202.899 181.935 207.028 180.426 208.433C179.959 208.869 179.129 209.406 178.168 210.028C175.72 211.613 172.369 213.783 172.308 215.993C172.268 217.402 172.554 218.305 173.207 218.837C174.236 219.674 176.319 219.673 179.961 218.83C184.188 217.854 187.648 215.267 188.838 213.866C189.636 212.926 189.449 212.131 189.189 211.033C189.123 210.749 189.053 210.454 188.997 210.138C188.645 208.146 188.597 206.116 188.597 204.393V201.568L183.702 201.997Z" fill="black"/>
<path d="M172.269 217.815C172.129 217.815 172.012 217.708 172.001 217.566C171.99 217.418 172.101 217.291 172.249 217.28L174.343 217.129C179.637 216.748 184.587 214.478 188.282 210.74C188.777 210.24 189.054 209.919 189.057 209.917C189.154 209.805 189.324 209.792 189.436 209.889C189.549 209.985 189.562 210.155 189.464 210.267C189.452 210.28 189.173 210.602 188.665 211.117C184.878 214.948 179.805 217.273 174.381 217.664L172.287 217.815C172.282 217.814 172.276 217.815 172.269 217.815Z" fill="black"/>
<path d="M184.912 209.816C184.897 209.816 184.883 209.815 184.867 209.812C184.748 209.792 181.93 209.31 180.798 207.84C180.707 207.722 180.73 207.555 180.847 207.464C180.966 207.374 181.135 207.397 181.224 207.514C182.229 208.818 184.927 209.28 184.954 209.283C185.1 209.307 185.199 209.446 185.175 209.591C185.154 209.723 185.041 209.816 184.912 209.816Z" fill="black"/>
<path d="M182.417 211.5C182.399 211.5 182.38 211.498 182.362 211.494C182.248 211.47 179.558 210.892 178.693 209.435C178.618 209.307 178.661 209.143 178.789 209.068C178.917 208.994 179.081 209.036 179.157 209.163C179.901 210.417 182.447 210.965 182.473 210.971C182.618 211.001 182.711 211.144 182.681 211.289C182.654 211.414 182.542 211.5 182.417 211.5Z" fill="black"/>
<path d="M179.745 213.091C179.714 213.091 179.682 213.086 179.651 213.074C179.558 213.039 177.348 212.208 176.651 210.755C176.587 210.621 176.644 210.462 176.778 210.398C176.912 210.333 177.073 210.391 177.137 210.524C177.739 211.78 179.817 212.564 179.838 212.571C179.977 212.623 180.048 212.777 179.996 212.916C179.956 213.023 179.854 213.091 179.745 213.091Z" fill="black"/>
<path d="M196.07 189.513C196.268 189.513 199.102 189.232 200.741 189.069C201.377 189.005 201.945 189.464 202.014 190.098L202.336 193.054C202.45 194.099 202.661 195.13 202.957 196.139C203.494 197.97 204.286 201.126 203.853 202.566C203.389 204.106 201.938 206.251 200.98 207.472C200.538 208.036 199.792 208.259 199.111 208.031C197.893 207.625 195.949 206.843 194.807 205.707C193.054 203.962 194.947 200.611 194.947 200.611L196.07 189.513Z" fill="white"/>
<path d="M199.644 208.387C199.437 208.387 199.228 208.354 199.024 208.286C197.645 207.826 195.761 207.037 194.616 205.897C192.841 204.13 194.439 200.985 194.684 200.532L195.799 189.487C195.813 189.352 195.93 189.248 196.066 189.247C196.212 189.246 197.949 189.081 200.71 188.805C201.486 188.726 202.193 189.295 202.278 190.072L202.6 193.028C202.71 194.036 202.915 195.06 203.211 196.067C203.859 198.274 204.541 201.206 204.107 202.645C203.647 204.172 202.248 206.29 201.189 207.639C200.812 208.119 200.236 208.386 199.644 208.387ZM196.313 189.765L195.214 200.639C195.21 200.675 195.199 200.711 195.181 200.743C195.163 200.775 193.41 203.938 194.996 205.519C196.124 206.641 198.111 207.417 199.195 207.779C199.765 207.969 200.397 207.78 200.766 207.309C201.877 205.892 203.182 203.854 203.593 202.49C204.009 201.108 203.21 197.965 202.696 196.216C202.391 195.179 202.179 194.124 202.067 193.084L201.744 190.128C201.691 189.642 201.249 189.288 200.766 189.337C198.37 189.575 196.878 189.718 196.313 189.765Z" fill="black"/>
<path d="M198.347 207.899C198.293 207.899 198.239 207.883 198.191 207.849C198.071 207.764 198.042 207.597 198.127 207.475C201.47 202.795 201.246 201.59 200.759 198.95C200.652 198.371 200.53 197.716 200.431 196.946C200.171 194.933 199.388 189.396 199.381 189.34C199.36 189.194 199.463 189.058 199.609 189.038C199.759 189.016 199.893 189.119 199.913 189.265C199.922 189.32 200.704 194.861 200.965 196.876C201.063 197.632 201.183 198.28 201.289 198.851C201.789 201.56 202.04 202.919 198.567 207.784C198.514 207.859 198.431 207.899 198.347 207.899Z" fill="black"/>
<path d="M198.816 199.432C198.803 199.432 198.79 199.431 198.777 199.43L195.582 198.962C195.434 198.94 195.333 198.804 195.354 198.658C195.376 198.511 195.509 198.408 195.66 198.432L198.855 198.899C199.002 198.921 199.104 199.057 199.082 199.204C199.063 199.337 198.948 199.432 198.816 199.432Z" fill="black"/>
<path d="M198.488 201.724C198.475 201.724 198.462 201.723 198.449 201.722L195.253 201.254C195.106 201.232 195.005 201.097 195.026 200.95C195.048 200.803 195.181 200.699 195.332 200.724L198.527 201.192C198.674 201.213 198.776 201.349 198.754 201.496C198.735 201.628 198.619 201.724 198.488 201.724Z" fill="black"/>
<path d="M195.008 202.754C193.145 204.034 189.204 205.68 182.578 203.702L185.619 136.812L198.099 134.439C198.099 134.439 199.728 151.069 197.958 167.804C196.343 183.081 196.278 196.101 196.304 200.238C196.31 201.237 195.836 202.187 195.008 202.754Z" fill="#157B6C"/>
<path d="M197.54 132.484L167.672 134.16L168.689 166.677C168.807 170.473 169.984 174.161 172.091 177.327C175.469 182.404 180.863 189.874 185.13 192.794C191.861 197.4 197.54 132.484 197.54 132.484Z" fill="#157B6C"/>
<path d="M182.699 191.691C182.696 191.691 182.691 191.691 182.686 191.691C182.537 191.683 182.423 191.558 182.43 191.411L183.417 170.339C183.424 170.191 183.545 170.077 183.698 170.084C183.846 170.091 183.961 170.216 183.954 170.364L182.967 191.436C182.961 191.579 182.843 191.691 182.699 191.691Z" fill="white"/>
<path d="M148.527 79.218C148.724 79.1796 148.865 79.0089 148.861 78.8093C148.838 77.773 148.621 74.6642 146.869 73.2372C144.749 71.5096 142.95 67.5448 141.665 67.9283C140.38 68.3118 143.207 71.7657 142.886 72.1504C142.564 72.5339 141.887 71.2211 141.179 69.9408C140.473 68.6616 141.102 68.3743 140.076 68.4597C138.668 68.5763 137.733 68.7927 139.596 72.951C141.369 76.9074 144.902 76.7836 145.365 79.4128C145.405 79.6364 145.622 79.7819 145.847 79.7386L148.527 79.218Z" fill="white"/>
<path d="M145.769 80.0124C145.633 80.0124 145.5 79.9715 145.384 79.8922C145.234 79.7888 145.134 79.6349 145.102 79.457C144.901 78.3101 144.051 77.7331 142.972 77.0009C141.785 76.1943 140.309 75.1916 139.352 73.059C138.332 70.782 138.067 69.5233 138.467 68.8501C138.795 68.2959 139.493 68.2382 140.055 68.1925C140.744 68.1336 140.94 68.2538 141.048 68.7948C141.093 69.0244 141.156 69.3394 141.417 69.8107L141.579 70.1052C141.842 70.5849 142.198 71.2316 142.47 71.6199C142.354 71.3891 142.2 71.1114 142.07 70.8806C141.363 69.6147 140.88 68.6722 141.121 68.0795C141.203 67.8787 141.365 67.7369 141.589 67.6708C142.512 67.3943 143.429 68.6277 144.588 70.1893C145.331 71.1884 146.171 72.3208 147.041 73.0289C148.846 74.4992 149.103 77.5563 149.13 78.803C149.137 79.1324 148.905 79.4173 148.579 79.481L145.898 80.0004C145.856 80.0088 145.812 80.0124 145.769 80.0124ZM140.356 68.7131C140.298 68.7131 140.216 68.7167 140.101 68.7263C139.544 68.7732 139.105 68.8309 138.931 69.123C138.642 69.6099 138.94 70.8253 139.844 72.8414C140.737 74.8358 142.086 75.7519 143.275 76.5597C144.411 77.3303 145.391 77.9963 145.631 79.3656C145.64 79.4137 145.67 79.4402 145.688 79.4522C145.721 79.4738 145.759 79.4822 145.797 79.475L148.477 78.9557C148.546 78.9425 148.595 78.8836 148.593 78.815C148.574 77.9014 148.378 74.8105 146.701 73.4449C145.78 72.6947 144.918 71.5334 144.157 70.5091C143.246 69.2841 142.306 68.0158 141.744 68.1853C141.661 68.2105 141.637 68.2466 141.621 68.2827C141.458 68.683 142.11 69.8491 142.541 70.6209C143.104 71.6284 143.324 72.0479 143.094 72.3208C142.995 72.4398 142.86 72.4987 142.714 72.4831C142.268 72.4398 141.857 71.7269 141.108 70.3625L140.946 70.0691C140.645 69.5257 140.571 69.1483 140.521 68.8994C140.509 68.8357 140.493 68.7587 140.48 68.7227C140.462 68.7179 140.426 68.7131 140.356 68.7131Z" fill="black"/>
<path d="M211.671 140.781C211.86 140.749 212.044 140.849 212.119 141.025C212.465 141.826 213.439 143.816 214.952 144.559C216.028 145.087 216.995 145.422 218.305 146.659C219.616 147.896 221.864 151.1 221.373 151.889C220.789 152.826 218.922 151.871 217.487 150.999C216.051 150.128 214.626 148.036 213.229 147.825C211.832 147.615 214.787 150.961 214.364 151.488C213.941 152.016 212.437 151.232 211.471 149.649C211.089 149.024 208.812 143.516 208.125 141.848C208.024 141.603 208.178 141.33 208.44 141.287L211.671 140.781Z" fill="white"/>
<path d="M220.585 152.549C219.677 152.549 218.438 151.889 217.35 151.228C216.753 150.865 216.163 150.306 215.593 149.765C214.784 148.998 213.947 148.204 213.191 148.09C213.161 148.085 213.138 148.084 213.121 148.084C213.134 148.35 213.596 149.128 213.878 149.604C214.515 150.676 214.861 151.3 214.577 151.655C214.471 151.788 214.262 151.939 213.902 151.917C213.084 151.865 211.966 150.969 211.245 149.788C210.865 149.166 208.764 144.099 207.879 141.949C207.801 141.757 207.813 141.543 207.914 141.361C208.016 141.18 208.193 141.056 208.4 141.021L211.631 140.515C211.944 140.462 212.246 140.629 212.37 140.918C212.711 141.708 213.655 143.62 215.075 144.318C215.245 144.402 215.414 144.48 215.581 144.559C216.456 144.97 217.362 145.396 218.493 146.464C219.523 147.436 222.269 150.96 221.604 152.028C221.373 152.399 221.017 152.549 220.585 152.549ZM213.119 147.548C213.166 147.548 213.217 147.551 213.272 147.56C214.196 147.699 215.094 148.552 215.964 149.376C216.513 149.898 217.082 150.437 217.629 150.77C219.615 151.976 220.799 152.306 221.145 151.747C221.466 151.23 219.658 148.303 218.122 146.853C217.053 145.844 216.226 145.455 215.349 145.044C215.179 144.964 215.009 144.884 214.835 144.798C213.254 144.022 212.237 141.973 211.874 141.128C211.847 141.067 211.782 141.033 211.717 141.044C211.716 141.044 211.716 141.044 211.714 141.044L208.484 141.55C208.426 141.56 208.396 141.599 208.383 141.622C208.371 141.645 208.353 141.691 208.376 141.746C209.792 145.184 211.41 149.029 211.704 149.51C212.392 150.637 213.378 151.348 213.936 151.383C214.03 151.39 214.099 151.373 214.14 151.338C214.149 151.114 213.691 150.343 213.415 149.877C212.764 148.78 212.407 148.142 212.668 147.757C212.737 147.657 212.869 147.548 213.119 147.548Z" fill="black"/>
<path d="M182.178 85.0625C179.515 84.4638 177.547 83.8868 174.821 84.0346C171.705 84.2029 170.108 83.8964 167.527 85.1815C162.689 87.5895 160.768 94.1691 157.929 93.0174C155.089 91.8657 149.29 76.7734 149.29 76.7734L144.203 78.9001C144.203 78.9001 150.663 106.823 155.817 108.498C160.971 110.174 167.239 102.191 167.239 102.191C167.239 102.191 167.467 122.434 164.102 135.836C164.102 135.836 169.413 135.808 172.866 137.231C191.276 144.824 199.049 135.836 199.049 135.836C198.933 130.633 197.785 127.064 194.019 121.26C191.96 118.088 191.369 112.96 195.442 108.333C195.442 108.333 205.365 138.847 207.213 142.442C207.34 142.688 213.449 141.337 213.462 141.194C214.451 130.251 206.913 109.838 205.816 104.889C205.484 103.387 205.042 101.914 204.446 100.496C202.587 96.0721 198.431 88.8193 190.675 86.974L182.178 85.0625Z" fill="white"/>
<path d="M207.365 142.739C207.067 142.739 207.027 142.662 206.976 142.563C205.241 139.189 196.629 112.837 195.338 108.872C191.618 113.396 192.399 118.266 194.246 121.114C197.966 126.846 199.199 130.421 199.319 135.829C199.321 135.895 199.298 135.96 199.254 136.009C199.173 136.103 197.211 138.329 192.942 139.636C189.028 140.833 182.349 141.431 172.766 137.478C169.403 136.092 164.166 136.104 164.105 136.103H164.104C164.022 136.103 163.943 136.066 163.893 136.001C163.841 135.936 163.823 135.85 163.843 135.771C166.8 123.992 166.974 106.696 166.974 102.932C165.575 104.559 161.381 108.998 157.323 108.998C156.789 108.998 156.257 108.921 155.736 108.752C150.499 107.05 144.209 80.105 143.944 78.9593C143.915 78.8319 143.982 78.7033 144.102 78.6528L149.19 76.5261C149.256 76.4985 149.332 76.4985 149.4 76.5261C149.466 76.555 149.519 76.6091 149.545 76.6764C151.146 80.8444 155.793 91.86 158.033 92.7688C159.356 93.305 160.541 91.8131 162.044 89.9245C163.471 88.1308 165.088 86.0967 167.409 84.9426C169.479 83.9123 170.94 83.8787 172.964 83.8318C173.538 83.8186 174.131 83.8053 174.81 83.7681C177.208 83.637 179.063 84.0674 181.209 84.5651C181.543 84.6421 181.885 84.7226 182.241 84.802L190.737 86.7122C198.677 88.6021 202.891 96.0941 204.698 100.393C205.269 101.754 205.722 103.206 206.083 104.832C206.339 105.987 206.951 108.002 207.727 110.553C210.258 118.874 214.494 132.8 213.734 141.218C213.714 141.431 213.711 141.474 212.151 141.844C211.3 142.046 210.276 142.266 209.413 142.434C208.256 142.657 207.673 142.739 207.365 142.739ZM195.444 108.064C195.462 108.064 195.481 108.067 195.499 108.07C195.594 108.089 195.67 108.158 195.7 108.251C195.798 108.552 205.442 138.184 207.398 142.206C208.173 142.194 212.392 141.295 213.21 141.019C213.897 132.687 209.715 118.942 207.211 110.709C206.432 108.147 205.816 106.123 205.555 104.948C205.201 103.353 204.758 101.931 204.199 100.6C202.432 96.3958 198.318 89.0673 190.613 87.234L182.119 85.3237C181.763 85.2432 181.419 85.1638 181.083 85.0857C178.89 84.5771 177.159 84.1744 174.835 84.3018C174.149 84.3391 173.524 84.3535 172.972 84.3656C170.947 84.4124 169.608 84.4437 167.646 85.4199C165.432 86.5223 163.854 88.5059 162.462 90.2563C160.885 92.2399 159.521 93.9542 157.826 93.2641C155.087 92.1533 149.944 79.1962 149.138 77.1248L144.515 79.0567C145.137 81.6787 151.183 106.708 155.899 108.241C160.812 109.839 166.963 102.103 167.025 102.023C167.095 101.933 167.216 101.898 167.323 101.934C167.432 101.97 167.504 102.071 167.506 102.184C167.508 102.385 167.693 122.284 164.442 135.568C165.687 135.587 169.97 135.746 172.966 136.982C182.38 140.863 188.916 140.295 192.742 139.134C196.45 138.008 198.398 136.124 198.775 135.731C198.642 130.499 197.422 127.001 193.79 121.404C191.79 118.322 190.969 113.003 195.238 108.154C195.293 108.097 195.368 108.064 195.444 108.064Z" fill="black"/>
<path d="M178.897 135.544C178.798 135.544 178.703 135.489 178.656 135.394L171.363 120.596C171.298 120.463 171.353 120.303 171.487 120.238C171.621 120.172 171.781 120.227 171.846 120.361L179.139 135.158C179.204 135.292 179.15 135.452 179.016 135.516C178.977 135.536 178.937 135.544 178.897 135.544Z" fill="black"/>
<path d="M172.518 130.658C172.413 130.658 172.312 130.596 172.269 130.492L170.27 125.676C170.214 125.539 170.279 125.383 170.417 125.327C170.554 125.27 170.711 125.335 170.768 125.472L172.766 130.288C172.823 130.425 172.758 130.581 172.62 130.638C172.587 130.651 172.552 130.658 172.518 130.658Z" fill="black"/>
<path d="M146.789 76.4385H140.607C140.174 76.4385 139.815 76.1007 139.792 75.6691L139.204 64.4382C139.18 63.9742 139.552 63.5835 140.019 63.5835H147.318C147.783 63.5835 148.154 63.9706 148.133 64.4334L147.604 75.6643C147.583 76.0982 147.225 76.4385 146.789 76.4385Z" fill="#157B6C"/>
<path d="M146.692 74.8997C146.609 74.8997 146.526 74.8612 146.473 74.7891C146.386 74.6689 146.413 74.5017 146.532 74.4152C150.564 71.4999 151.77 67.5748 150.826 66.1538C150.209 65.2245 148.753 65.3471 146.828 66.4928C146.702 66.5685 146.536 66.5277 146.46 66.4002C146.384 66.2728 146.425 66.1093 146.553 66.0336C149.684 64.169 150.899 65.2918 151.276 65.8592C152.5 67.7058 150.868 71.9435 146.849 74.8492C146.802 74.8828 146.746 74.8997 146.692 74.8997Z" fill="#157B6C"/>
<path d="M139.84 74.2915C137.062 70.216 137.568 68.301 139.152 67.094C139.245 67.023 139.377 67.023 139.473 67.0892C142.531 69.2146 143.293 71.6082 141.085 74.348C140.76 74.7531 140.133 74.7206 139.84 74.2915Z" fill="white"/>
<path d="M140.486 74.9008C140.471 74.9008 140.457 74.9008 140.443 74.8996C140.107 74.8864 139.805 74.7193 139.615 74.4416C137.119 70.7821 136.926 68.4499 138.986 66.8799C139.17 66.7392 139.433 66.7344 139.625 66.869C141.389 68.0953 142.384 69.4117 142.582 70.7809C142.756 71.9819 142.321 73.2382 141.294 74.5149C141.094 74.7626 140.802 74.9008 140.486 74.9008ZM139.316 67.309C138.113 68.2203 137.114 69.8228 140.059 74.141C140.152 74.2769 140.3 74.3586 140.464 74.3647C140.632 74.3731 140.773 74.3045 140.872 74.1807C141.803 73.0242 142.199 71.9062 142.048 70.8579C141.873 69.6413 140.954 68.4475 139.316 67.309Z" fill="black"/>
<path d="M182.931 80.3424C181.029 79.0381 183.194 71.2335 185.349 70.0818C187.505 68.9301 192.028 70.1864 192.028 70.1864C190.345 75.6828 193.369 77.0448 193.79 77.0448C194.21 77.0448 195.552 77.123 194.71 78.9034C193.868 80.6839 191.975 79.7149 191.975 79.7149C191.596 80.0491 190.881 80.4278 190.006 80.75C188.961 83.8396 190.107 86.2704 191.092 87.6397C191.592 88.3346 191.243 89.3192 190.409 89.5175C189.072 89.8349 187.03 90.0224 184.456 89.3468C182.489 88.8299 181.174 88.1206 180.308 87.463C179.595 86.922 179.708 85.8004 180.523 85.4277C182.717 84.4263 184.189 81.2056 182.931 80.3424Z" fill="white"/>
<path d="M187.868 90.0702C186.859 90.0702 185.689 89.9475 184.384 89.6049C182.66 89.1517 181.232 88.5025 180.141 87.6754C179.726 87.3616 179.514 86.8627 179.572 86.3434C179.629 85.83 179.941 85.3973 180.406 85.1845C181.896 84.5052 183.009 82.7609 183.114 81.5587C183.143 81.2305 183.106 80.7905 182.774 80.5621C182.146 80.1317 181.858 79.1195 181.941 77.6348C182.098 74.8156 183.595 70.7126 185.22 69.8446C187.445 68.6556 191.908 69.8746 192.098 69.9275C192.168 69.9468 192.227 69.9937 192.262 70.0562C192.297 70.1187 192.304 70.1944 192.284 70.263C191.368 73.254 191.896 74.9106 192.5 75.775C193.013 76.5083 193.654 76.7668 193.789 76.7752C194.573 76.7752 194.927 77.0709 195.085 77.3198C195.339 77.7189 195.294 78.2887 194.95 79.0161C194.681 79.5871 194.283 79.9646 193.77 80.1389C193.06 80.3793 192.333 80.1533 192.016 80.0259C191.61 80.3373 190.971 80.6679 190.219 80.954C189.3 83.814 190.3 86.0789 191.309 87.4831C191.6 87.8882 191.67 88.4075 191.495 88.8728C191.325 89.3272 190.941 89.665 190.469 89.778C189.802 89.9355 188.924 90.0702 187.868 90.0702ZM183.081 80.1209C183.506 80.413 183.709 80.9396 183.651 81.6044C183.534 82.9508 182.346 84.8875 180.632 85.6702C180.34 85.8036 180.144 86.0765 180.108 86.4011C180.071 86.7329 180.206 87.0491 180.468 87.2486C181.503 88.0337 182.866 88.6516 184.522 89.0868C187.088 89.76 189.103 89.5508 190.343 89.2563C190.645 89.1842 190.882 88.9762 190.99 88.6852C191.103 88.3871 191.057 88.0541 190.871 87.7944C189.774 86.2688 188.689 83.7935 189.748 80.6631C189.773 80.5861 189.834 80.526 189.91 80.4972C190.734 80.193 191.44 79.8251 191.795 79.5126C191.878 79.4392 191.997 79.4248 192.095 79.4753C192.102 79.4789 192.893 79.872 193.6 79.6304C193.968 79.5042 194.259 79.2216 194.463 78.7876C194.719 78.2455 194.777 77.8367 194.631 77.6071C194.508 77.4135 194.216 77.3114 193.787 77.3114C193.531 77.3114 192.757 77.024 192.122 76.1705C191.427 75.2376 190.802 73.48 191.688 70.376C190.704 70.1355 187.219 69.3854 185.474 70.317C184.179 71.0095 182.639 74.7856 182.478 77.6648C182.408 78.9343 182.622 79.8071 183.081 80.1209Z" fill="black"/>
<path d="M130.356 27.8164C130.003 23.2805 130.352 16.8164 134.263 11.421C145.08 -3.50057 176.651 -1.31259 182.787 10.8655C185.901 17.046 182.532 25.9386 177.5 30.8339C170.06 38.0722 157.511 38.0037 149.85 33.653C142.556 29.5103 140.29 21.8223 135.659 22.5376C133.085 22.9343 131.37 25.6837 130.356 27.8164Z" fill="white"/>
<path d="M161.945 36.9178C157.539 36.9178 153.165 35.8442 149.715 33.8847C146.347 31.972 144.09 29.3716 142.099 27.0779C139.848 24.4848 138.071 22.4338 135.699 22.8017C133.793 23.0962 132.077 24.8226 130.598 27.9314C130.546 28.0408 130.427 28.1009 130.305 28.0805C130.186 28.0589 130.095 27.9591 130.086 27.8377C129.567 21.1788 130.898 15.603 134.044 11.2643C136.822 7.43055 141.189 4.45154 146.671 2.64826C151.564 1.03974 157.329 0.39897 162.905 0.843779C172.631 1.62159 180.341 5.41569 183.025 10.745C186.218 17.0817 182.817 26.0332 177.686 31.0247C174.208 34.4088 169.268 36.4802 163.774 36.8553C163.166 36.8973 162.556 36.9178 161.945 36.9178ZM136.266 22.2198C138.596 22.2198 140.342 24.2323 142.507 26.7256C144.471 28.9869 146.695 31.55 149.983 33.4182C157.414 37.6391 169.976 37.7773 177.312 30.6412C182.198 25.8889 185.587 17.0216 182.547 10.9842C179.946 5.82083 172.404 2.13973 162.865 1.37635C153.712 0.644216 140.789 2.87667 134.482 11.5757C131.57 15.5946 130.252 20.7171 130.561 26.8122C132.024 24.0892 133.721 22.5625 135.618 22.2691C135.838 22.2367 136.054 22.2198 136.266 22.2198Z" fill="black"/>
<path d="M172.063 15.5059H145.48C145.332 15.5059 145.211 15.3857 145.211 15.2378C145.211 15.0899 145.332 14.9697 145.48 14.9697H172.063C172.211 14.9697 172.332 15.0899 172.332 15.2378C172.332 15.3869 172.211 15.5059 172.063 15.5059Z" fill="black"/>
<path d="M164.988 20.1582H151.613C151.465 20.1582 151.344 20.038 151.344 19.8902C151.344 19.7423 151.465 19.6221 151.613 19.6221H164.988C165.136 19.6221 165.257 19.7423 165.257 19.8902C165.257 20.038 165.136 20.1582 164.988 20.1582Z" fill="black"/>
<path d="M200.065 56.7623C200.741 55.8162 208.362 44.7621 203.575 32.1547C200.216 23.3043 191.67 16.1332 181.748 15.7473C180.074 15.6824 169.518 15.2725 163.852 23.6673C160.037 29.3212 159.62 37.2208 163.328 42.9672C167.736 49.7968 176.152 50.7706 177.401 50.8956C186.143 51.7708 190.962 46.1879 195.729 48.8832C198.646 50.5326 199.653 54.2125 200.065 56.7623Z" fill="white"/>
<path d="M200.061 57.0306C200.041 57.0306 200.02 57.0282 200 57.0234C199.893 56.9981 199.812 56.9128 199.796 56.8046C199.171 52.9263 197.757 50.3392 195.593 49.1154C193.237 47.7834 190.863 48.5636 187.858 49.553C184.953 50.5088 181.66 51.5907 177.372 51.1615C175.094 50.9331 167.337 49.678 163.1 43.1117C159.446 37.4494 159.663 29.3924 163.628 23.5173C168.815 15.8293 178.031 15.3328 181.756 15.4795C186.562 15.6658 191.241 17.4246 195.287 20.5659C199.105 23.5293 202.137 27.6119 203.825 32.06C208.623 44.6962 201.149 55.7034 200.282 56.9176C200.229 56.9897 200.147 57.0306 200.061 57.0306ZM192.869 47.876C193.886 47.876 194.875 48.0924 195.859 48.6502C198.045 49.886 199.508 52.3781 200.212 56.064C201.905 53.4769 207.6 43.5204 203.32 32.2488C199.773 22.9018 191.098 16.3775 181.735 16.0144C178.101 15.875 169.11 16.3522 164.073 23.8166C160.225 29.5186 160.011 37.334 163.551 42.822C167.765 49.3498 175.847 50.4703 177.425 50.6278C181.6 51.0461 184.834 49.9822 187.689 49.0433C189.542 48.435 191.239 47.876 192.869 47.876Z" fill="black"/>
<path d="M195.12 31.7608H170.129C169.98 31.7608 169.859 31.6406 169.859 31.4927C169.859 31.3448 169.98 31.2246 170.129 31.2246H195.12C195.268 31.2246 195.389 31.3448 195.389 31.4927C195.389 31.6406 195.268 31.7608 195.12 31.7608Z" fill="black"/>
<path d="M187.047 35.003H178.105C177.957 35.003 177.836 34.8828 177.836 34.7349C177.836 34.587 177.957 34.4668 178.105 34.4668H187.047C187.196 34.4668 187.316 34.587 187.316 34.7349C187.315 34.884 187.196 35.003 187.047 35.003Z" fill="black"/>
<path d="M16.5988 209.124H111.703C115.749 209.124 119.029 205.811 119.029 201.723L109.756 7.4656C109.756 3.37817 106.477 0.0649414 102.43 0.0649414H7.32611C3.27966 0.0649414 0 3.37937 0 7.4656L9.27144 201.723C9.27144 205.811 12.5523 209.124 16.5988 209.124Z" fill="#157B6C"/>
<path d="M23.0441 209.166H118.148C122.195 209.166 125.474 205.867 125.474 201.798L116.203 7.8887C116.203 3.81931 112.923 0.520508 108.877 0.520508H13.7714C9.72497 0.520508 6.44531 3.81931 6.44531 7.8887L15.7168 201.798C15.718 205.867 18.9976 209.166 23.0441 209.166Z" fill="white"/>
<path d="M108.657 209.182H89.0662C88.9176 209.182 88.7969 209.061 88.7969 208.914C88.7969 208.766 88.9176 208.646 89.0662 208.646H108.658C108.807 208.646 108.928 208.766 108.928 208.914C108.926 209.061 108.806 209.182 108.657 209.182Z" fill="black"/>
<path d="M78.801 209.182H23.0407C18.853 209.182 15.4453 205.757 15.4453 201.545L11.9145 135.91C11.906 135.762 12.0208 135.636 12.1681 135.627C12.3178 135.622 12.4434 135.733 12.4506 135.881L15.9815 201.53C15.9815 205.46 19.1476 208.644 23.0395 208.644H78.7998C78.9483 208.644 79.0691 208.764 79.0691 208.912C79.0703 209.061 78.9495 209.182 78.801 209.182Z" fill="black"/>
<path d="M9.49799 74.0282C9.3555 74.0282 9.23595 73.9164 9.22992 73.7721L6.17969 7.64831C6.17969 3.42503 9.58614 0 13.7739 0H108.878C113.066 0 116.473 3.42503 116.473 7.63628L117.193 25.2748C117.199 25.4226 117.083 25.5477 116.936 25.5537C116.776 25.5633 116.662 25.4455 116.656 25.2976L115.936 7.64831C115.936 3.72197 112.77 0.537377 108.878 0.537377H13.7739C9.88198 0.537377 6.71704 3.72317 6.71704 7.63749L9.76727 73.7505C9.77451 73.8984 9.6598 74.0234 9.51127 74.0306C9.50644 74.0282 9.50282 74.0282 9.49799 74.0282Z" fill="black"/>
<path d="M27.4546 203.623H114.305C118 203.623 120.996 200.61 120.996 196.894L111.842 13.2638C111.842 9.54783 108.846 6.53516 105.151 6.53516H18.3003C14.6053 6.53516 11.6094 9.54783 11.6094 13.2638L20.7637 196.894C20.7637 200.61 23.7596 203.623 27.4546 203.623Z" fill="white"/>
<path d="M114.308 203.891H27.4571C23.6195 203.891 20.4981 200.752 20.4981 196.894L11.3438 13.277C11.3438 9.406 14.4652 6.26709 18.3028 6.26709H105.153C108.991 6.26709 112.112 9.406 112.112 13.2638L121.267 196.881C121.267 200.752 118.145 203.891 114.308 203.891ZM18.3028 6.80206C14.7623 6.80206 11.8811 9.70053 11.8811 13.2638L21.0342 196.881C21.0342 200.457 23.9154 203.356 27.4559 203.356H114.306C117.847 203.356 120.728 200.457 120.728 196.894L111.575 13.277C111.575 9.70053 108.694 6.80206 105.153 6.80206H18.3028Z" fill="black"/>
<path d="M17.9561 65.2066C17.8137 65.2066 17.6941 65.0948 17.6881 64.9517L16.8597 47.5368C16.8525 47.389 16.9672 47.2639 17.1157 47.2567C17.2618 47.2411 17.3898 47.3637 17.3971 47.5116L18.2254 64.9264C18.2327 65.0743 18.118 65.1993 17.9694 65.2066C17.9646 65.2066 17.9598 65.2066 17.9561 65.2066Z" fill="black"/>
<path d="M109.653 49.151C109.511 49.151 109.391 49.0392 109.385 48.8962L107.843 16.4937C107.843 13.0434 105.195 10.2471 101.939 10.2471H21.816C18.5605 10.2471 15.9124 13.0434 15.9124 16.4804L17.0837 41.0832C17.0909 41.231 16.9762 41.3561 16.8277 41.3633C16.6803 41.3681 16.5536 41.2563 16.5463 41.1084L15.375 16.4925C15.375 12.7477 18.2646 9.71094 21.816 9.71094H101.938C105.49 9.71094 108.379 12.7477 108.379 16.4804L109.921 48.8709C109.928 49.0188 109.814 49.1438 109.665 49.151C109.662 49.151 109.658 49.151 109.653 49.151Z" fill="black"/>
<path d="M116.513 166.187C116.371 166.187 116.251 166.075 116.245 165.932L114.946 138.619C114.938 138.472 115.053 138.347 115.202 138.339C115.339 138.331 115.476 138.446 115.483 138.594L116.782 165.907C116.79 166.054 116.675 166.18 116.526 166.187C116.521 166.187 116.517 166.187 116.513 166.187Z" fill="white"/>
<path d="M102.598 200.676H50.949C50.8004 200.676 50.6797 200.556 50.6797 200.408C50.6797 200.26 50.8004 200.14 50.949 200.14H102.596C102.745 200.14 102.866 200.26 102.866 200.408C102.866 200.557 102.746 200.676 102.598 200.676Z" fill="black"/>
<path d="M44.4977 200.676H30.2645C26.7131 200.676 23.8235 197.64 23.8235 193.907L22.6956 170.209C22.6884 170.061 22.8031 169.936 22.9516 169.929C23.099 169.921 23.2257 170.036 23.233 170.184L24.362 193.894C24.362 197.344 27.0102 200.14 30.2657 200.14H44.4989C44.6474 200.14 44.7681 200.26 44.7681 200.408C44.7669 200.557 44.6462 200.676 44.4977 200.676Z" fill="black"/>
<path d="M77.4194 0.530273L75.5876 3.56699C74.4742 5.41115 72.6098 6.51836 70.6137 6.51836H52.1155C50.163 6.51836 48.3323 5.45924 47.2105 3.6788L45.2266 0.530273H77.4194Z" fill="#157B6C"/>
<path d="M121.137 116.077C120.995 116.077 120.876 115.967 120.869 115.824L119.524 89.3093C119.517 89.1614 119.631 89.0352 119.779 89.028C119.928 89.0232 120.054 89.1338 120.061 89.2816L121.406 115.796C121.414 115.944 121.299 116.07 121.152 116.077C121.145 116.077 121.142 116.077 121.137 116.077Z" fill="black"/>
<path d="M63.9676 141.52C90.4076 141.52 111.841 120.181 111.841 93.8581C111.841 67.5352 90.4076 46.1963 63.9676 46.1963C37.5276 46.1963 16.0938 67.5352 16.0938 93.8581C16.0938 120.181 37.5276 141.52 63.9676 141.52Z" fill="white"/>
<path d="M63.9713 141.787C37.4249 141.787 15.8281 120.286 15.8281 93.8567C15.8281 67.4278 37.4249 45.9268 63.9713 45.9268C90.5177 45.9268 112.114 67.4278 112.114 93.8567C112.114 120.286 90.5177 141.787 63.9713 141.787ZM63.9713 46.4629C37.7219 46.4629 16.3667 67.7236 16.3667 93.8567C16.3667 119.99 37.7219 141.25 63.9713 141.25C90.2206 141.25 111.576 119.99 111.576 93.8579C111.576 67.726 90.2206 46.4629 63.9713 46.4629Z" fill="black"/>
<path d="M90.5774 127.013L46.1063 129.506C46.1063 129.506 46.0846 133.393 45.9844 137.823C52.3143 140.896 59.3771 141.518 66.8928 141.518C75.9469 141.518 84.3393 137.146 91.5591 132.799L90.5774 127.013Z" fill="#157B6C"/>
<path d="M128.329 41.3646C128.222 40.4641 128.738 39.4675 128.92 38.5623C129.315 36.5979 129.652 34.6047 129.594 32.6018C129.543 30.8298 129.466 29.2321 128.734 27.6284C128.233 26.5308 127.437 25.1543 125.911 25.2986C124.805 25.4031 123.775 26.1016 123.163 27.0081C122.321 28.2535 122.124 29.8248 122.168 31.3263C122.206 32.6752 122.701 34.321 122.412 35.647C122.105 37.0535 121.286 36.9309 120.577 35.8381C118.791 33.0887 115.82 32.567 116.867 33.5395C117.914 34.5121 119.797 38.4036 120.495 39.4723C120.749 39.8606 121.529 40.3331 122.42 40.7791C122.427 43.3229 122.107 47.2324 120.295 51.493C118.135 56.5698 114.74 60.0622 111.938 62.3006C114.232 66.2979 119.229 72.8294 127.796 73.9185C129.011 71.5178 129.961 68.9848 130.625 66.3796C131.804 61.7536 132.078 56.9088 131.434 52.1794C131.11 49.7907 130.552 47.4332 129.772 45.1502C129.375 43.9913 128.819 42.8925 128.417 41.742C128.372 41.6206 128.344 41.4932 128.329 41.3646Z" fill="white"/>
<path d="M127.799 74.1889C127.788 74.1889 127.776 74.1877 127.765 74.1865C119.023 73.0757 113.952 66.3483 111.707 62.4364C111.642 62.3222 111.67 62.1767 111.772 62.095C115.516 59.1051 118.3 55.5034 120.05 51.3919C121.436 48.134 122.144 44.62 122.155 40.9461C121.128 40.422 120.512 39.988 120.272 39.6201C120.044 39.2691 119.697 38.6355 119.295 37.901C118.481 36.4103 117.365 34.3702 116.684 33.7378C116.591 33.6512 116.308 33.3868 116.399 33.1018C116.422 33.0309 116.503 32.8638 116.769 32.8277C117.465 32.7316 119.47 33.638 120.806 35.6938C121.18 36.2708 121.512 36.4415 121.678 36.4091C121.87 36.3742 122.047 36.0688 122.151 35.5916C122.326 34.7885 122.193 33.8304 122.064 32.9035C121.99 32.3781 121.915 31.8335 121.901 31.3358C121.847 29.4412 122.187 27.9769 122.942 26.8601C123.631 25.8406 124.76 25.141 125.888 25.034C127.557 24.8741 128.416 26.2794 128.982 27.5189C129.71 29.1154 129.81 30.6951 129.866 32.5945C129.921 34.512 129.634 36.3874 129.186 38.6151C129.121 38.9373 129.017 39.2691 128.916 39.5912C128.728 40.1839 128.535 40.797 128.599 41.3344C128.612 41.4498 128.637 41.5556 128.673 41.659C128.866 42.2096 129.1 42.7626 129.327 43.2976C129.571 43.871 129.822 44.4649 130.029 45.0696C130.814 47.3634 131.376 49.7449 131.705 52.1481C132.35 56.8847 132.067 61.8305 130.89 66.4505C130.221 69.076 129.262 71.6319 128.04 74.0447C127.992 74.1324 127.899 74.1889 127.799 74.1889ZM112.288 62.3679C114.521 66.1884 119.393 72.4963 127.643 73.6299C128.806 71.3013 129.721 68.8416 130.366 66.3158C131.526 61.762 131.804 56.8871 131.169 52.2178C130.846 49.8483 130.29 47.5004 129.517 45.2391C129.316 44.6524 129.069 44.0682 128.829 43.5032C128.598 42.961 128.361 42.4008 128.162 41.8333C128.114 41.6951 128.08 41.5484 128.062 41.3957C127.985 40.7453 128.196 40.0769 128.4 39.4301C128.501 39.108 128.598 38.8038 128.657 38.5093C129.098 36.3177 129.38 34.4759 129.326 32.6089C129.272 30.7083 129.179 29.2476 128.49 27.7389C127.999 26.6605 127.264 25.4391 125.938 25.5653C124.966 25.6579 123.989 26.2674 123.386 27.1582C122.696 28.1789 122.385 29.5398 122.437 31.319C122.45 31.7891 122.52 32.294 122.595 32.8289C122.731 33.8015 122.871 34.8077 122.675 35.7034C122.475 36.6218 122.074 36.8803 121.772 36.9344C121.309 37.0186 120.805 36.6808 120.352 35.9835C119.236 34.2656 117.721 33.525 117.087 33.3795C117.829 34.1021 118.901 36.0628 119.765 37.6437C120.161 38.3686 120.504 38.995 120.72 39.328C120.83 39.4963 121.211 39.8774 122.541 40.5422C122.632 40.5879 122.688 40.6792 122.69 40.7802C122.7 44.5863 121.978 48.2265 120.543 51.5999C118.788 55.7282 116.011 59.3504 112.288 62.3679Z" fill="black"/>
<path d="M111.934 62.3027C110.132 63.743 108.574 64.6662 107.748 65.1543C94.1125 73.2162 85.8119 63.9702 63.4725 64.5652C55.3036 64.7828 49.703 63.6263 35.1365 69.9222C35.1365 69.9222 8.59375 78.394 8.59375 105.453C8.59375 113.041 13.6159 119.469 19.534 121.522C24.8242 114.938 26.5196 111.176 30.653 109.559C30.6228 109.249 27.7501 107.293 27.7839 106.97C28.5011 100.096 30.8329 98.1315 33.51 96.8644C34.7356 96.2849 36.1762 96.987 36.3175 98.331C36.9406 104.236 36.07 108.928 37.3946 122.961C38.1638 131.107 38.9837 132.307 39.7723 133.107C44.9671 138.37 53.8267 131.325 74.5263 131.011C84.352 130.862 90.8328 132.32 92.6743 128.939C94.0014 126.501 91.7904 123.615 90.1759 119.375C88.1811 114.137 86.7996 106.051 90.2677 94.0621C104.049 95.5828 117.577 89.4216 125.337 78.0778C126.253 76.7374 127.072 75.3477 127.794 73.9207C119.227 72.8327 114.229 66.3012 111.934 62.3027Z" fill="white"/>
<path d="M44.9273 135.328C42.767 135.328 41.0499 134.783 39.5815 133.296C38.6855 132.388 37.8825 130.986 37.1278 122.988C36.3417 114.657 36.3284 109.667 36.3175 105.656C36.3103 102.916 36.3043 100.751 36.0519 98.36C35.9975 97.8407 35.7065 97.3971 35.2537 97.1446C34.7634 96.8717 34.1561 96.8561 33.6272 97.1074C31.2169 98.2482 28.8019 99.9481 28.0592 106.938C28.209 107.147 28.9637 107.743 29.4708 108.145C30.6083 109.044 30.8993 109.298 30.9223 109.533C30.9344 109.652 30.8643 109.765 30.7532 109.808C27.8141 110.958 26.1477 113.205 23.3885 116.927C22.356 118.319 21.1859 119.896 19.7466 121.688C19.6753 121.777 19.5558 121.811 19.4483 121.774C13.0049 119.539 8.32812 112.674 8.32812 105.452C8.32812 91.3705 15.5975 82.3878 21.6967 77.3338C28.2959 71.8639 34.9917 69.6879 35.0581 69.6663C47.3846 64.3382 53.4186 64.3346 59.8065 64.3322C60.9838 64.3322 62.201 64.331 63.4689 64.2973C72.6389 64.0533 79.3238 65.4358 85.2226 66.6548C93.5957 68.3859 99.6454 69.6362 107.614 64.9248C108.439 64.4368 109.973 63.5291 111.77 62.0949C111.832 62.0456 111.913 62.0264 111.989 62.0408C112.066 62.0552 112.134 62.1033 112.172 62.1706C114.368 65.996 119.321 72.5744 127.832 73.6551C127.919 73.6659 127.993 73.7188 128.035 73.7946C128.076 73.8715 128.077 73.9629 128.037 74.041C127.303 75.4921 126.47 76.901 125.561 78.2282C117.76 89.6358 104.327 95.7994 90.467 94.3532C87.7572 103.844 87.7452 112.23 90.4307 119.28C90.8594 120.406 91.3207 121.414 91.7675 122.391C92.9871 125.056 93.9507 127.162 92.9146 129.066C91.4861 131.689 87.5773 131.567 81.6604 131.382C79.5484 131.316 77.1551 131.24 74.5348 131.279C65.3273 131.419 58.3345 132.924 53.229 134.022C49.8504 134.748 47.1539 135.328 44.9273 135.328ZM34.4145 96.3933C34.7997 96.3933 35.18 96.4882 35.5182 96.677C36.1243 97.016 36.5144 97.6087 36.588 98.3035C36.8428 100.722 36.8489 102.898 36.8561 105.654C36.867 109.652 36.8803 114.63 37.6639 122.936C38.4005 130.749 39.1734 132.116 39.9655 132.919C42.7392 135.73 46.6432 134.89 53.1119 133.499C58.2403 132.395 65.2633 130.885 74.5239 130.743C77.1563 130.705 79.5569 130.778 81.6749 130.846C87.3926 131.025 91.1697 131.144 92.4401 128.81C93.3481 127.14 92.434 125.142 91.2772 122.613C90.8485 121.675 90.3619 120.611 89.9272 119.47C87.1801 112.255 87.2078 103.682 90.0117 93.9877C90.0479 93.8627 90.1687 93.7821 90.3003 93.7953C104.042 95.3125 117.384 89.2318 125.117 77.9265C125.943 76.7195 126.704 75.4452 127.385 74.1336C119.07 72.9098 114.147 66.5899 111.862 62.7044C110.143 64.0509 108.687 64.9116 107.889 65.3829C99.7408 70.2 93.6053 68.9329 85.1128 67.1777C79.2429 65.9647 72.5882 64.5882 63.4834 64.8323C62.2095 64.8659 60.9874 64.8671 59.8065 64.8671C53.4754 64.8695 47.4957 64.8732 35.2465 70.1664C35.1559 70.1964 28.5459 72.3471 22.0252 77.757C16.0213 82.7388 8.86548 91.5869 8.86548 105.453C8.86548 112.388 13.3044 118.979 19.4459 121.205C20.8249 119.482 21.9551 117.958 22.9562 116.608C25.6683 112.951 27.3456 110.688 30.2171 109.449C29.9599 109.215 29.4998 108.85 29.1375 108.564C27.7332 107.453 27.4905 107.211 27.5182 106.942C28.2814 99.6259 30.9525 97.7794 33.3965 96.6229C33.7213 96.4702 34.0691 96.3933 34.4145 96.3933Z" fill="black"/>
<path d="M54.9507 107.889C54.9024 107.889 54.8541 107.876 54.8094 107.849C49.3719 104.519 46.8518 99.2656 48.2308 96.7939C48.6498 96.0426 50.0735 94.5206 54.237 96.5847C54.3699 96.6509 54.4242 96.812 54.3578 96.9442C54.2914 97.0764 54.1296 97.1305 53.9967 97.0644C51.3571 95.7552 49.4274 95.7516 48.7005 97.0548C47.6113 99.0071 49.5591 104.006 55.0908 107.394C55.2176 107.471 55.2574 107.636 55.1789 107.763C55.1294 107.843 55.0413 107.889 54.9507 107.889Z" fill="black"/>
<path d="M55.0069 109.963L62.9814 109.353C63.5417 109.31 63.9692 108.839 63.9559 108.28L63.5961 93.732C63.5816 93.1309 63.0623 92.6644 62.4598 92.7101L53.0446 93.4302C52.4445 93.4759 52.0037 94.0121 52.0786 94.6072L53.879 109.044C53.9479 109.602 54.4442 110.006 55.0069 109.963Z" fill="#157B6C"/>
<path d="M61.0851 101.479C61.0356 101.372 60.9765 101.269 60.9028 101.173C59.4731 99.2966 56.3516 101.24 54.7214 101.759C53.4415 102.166 52.1615 102.573 50.8815 102.98L46.0018 108.723C43.3586 109.419 35.32 112.115 29.4393 108.3C27.5495 107.074 25.0197 107.592 23.677 109.396C21.6701 112.093 19.7851 115.601 18.5703 121.089C28.0132 123.908 41.5062 120.457 47.5692 115.079C50.3296 115.185 52.496 112.521 54.1539 110.678C55.0885 109.639 55.964 108.402 57.1498 107.637C58.2366 106.936 59.554 106.507 60.3715 105.454C60.8968 104.779 61.1347 103.923 61.2373 103.074C61.3013 102.539 61.3049 101.959 61.0851 101.479Z" fill="white"/>
<path d="M26.1437 122.38C23.4871 122.38 20.8837 122.06 18.4891 121.346C18.3539 121.306 18.273 121.169 18.3032 121.032C19.3513 116.302 20.9887 112.554 23.4569 109.238C24.9023 107.296 27.5927 106.785 29.5815 108.076C34.9019 111.528 42.1278 109.519 45.2131 108.661C45.4473 108.596 45.6586 108.537 45.8458 108.486L50.6711 102.808C50.7037 102.77 50.7472 102.741 50.7943 102.727L54.6342 101.505C54.9566 101.403 55.3539 101.236 55.7741 101.06C57.4937 100.341 59.8496 99.3556 61.1126 101.012C61.196 101.12 61.2672 101.241 61.3252 101.368C61.5329 101.821 61.5884 102.374 61.4991 103.108C61.3711 104.166 61.0704 104.987 60.5789 105.619C59.9776 106.393 59.1335 106.843 58.3172 107.278C57.9719 107.462 57.6144 107.653 57.2908 107.862C56.425 108.421 55.7138 109.26 55.0267 110.073C54.8009 110.34 54.5763 110.604 54.3493 110.857L54.0051 111.242C52.3701 113.076 50.3427 115.351 47.7271 115.351C47.7054 115.351 47.6837 115.351 47.6619 115.351C43.1663 119.284 34.4032 122.38 26.1437 122.38ZM18.884 120.902C28.5757 123.671 41.6376 119.98 47.3866 114.879C47.4385 114.834 47.5062 114.805 47.5762 114.812C50.0215 114.9 52.0091 112.677 53.6054 110.886L53.9508 110.5C54.1754 110.251 54.3951 109.99 54.6173 109.728C55.3298 108.887 56.0676 108.015 56.9998 107.414C57.3427 107.193 57.7098 106.997 58.0648 106.807C58.8666 106.379 59.6238 105.975 60.1551 105.291C60.585 104.738 60.8506 104.002 60.9665 103.043C61.0414 102.42 60.9991 101.944 60.8361 101.589C60.7939 101.498 60.7431 101.413 60.684 101.336C59.6733 100.01 57.6265 100.866 55.983 101.553C55.552 101.734 55.1438 101.904 54.7985 102.014L51.0322 103.211L46.2032 108.895C46.1682 108.937 46.1199 108.967 46.0668 108.982C45.8627 109.036 45.6248 109.102 45.3592 109.175C42.2039 110.053 34.8138 112.108 29.2893 108.524C27.5384 107.387 25.1668 107.841 23.8904 109.555C21.5104 112.753 19.9176 116.363 18.884 120.902Z" fill="black"/>
<path d="M59.5592 52.0352C57.9351 52.8491 56.7119 52.9669 55.8304 52.9164C52.6437 52.7337 50.6005 50.1779 50.1912 49.6657C48.0792 47.0221 47.0613 42.681 48.8508 40.1324C50.1405 38.2966 51.7634 38.9891 53.2475 36.9358C54.9332 34.6059 53.2052 32.7041 54.7593 30.6652C56.5489 28.3173 60.4939 28.4964 61.2027 28.5289C63.6371 28.6395 63.9269 29.8417 66.2272 29.7792C68.5759 29.7154 68.8862 28.5409 71.0429 28.5289C72.7552 28.5193 75.2523 29.2454 76.3705 31.217C77.7737 33.6923 76.3391 36.9526 74.6727 38.6729C72.6718 40.7383 71.2639 39.6311 68.4612 41.3129C63.6057 44.2282 64.7661 49.4229 59.5592 52.0352Z" fill="#157B6C"/>
<path d="M68.5994 63.0392L67.2844 54.8968C67.5742 54.8643 69.9953 54.4447 70.2718 54.3077C72.5142 53.1957 71.8911 47.5935 71.8911 47.5935L73.1373 46.1112L69.4193 37.8281C65.4707 41.1041 64.0627 37.887 60.1551 39.4992C56.2475 41.1113 58.368 45.4428 58.368 45.4428C58.368 45.4428 55.174 44.0422 55.8575 47.1174C56.3731 49.44 58.0721 49.5855 59.1915 49.4917L57.1085 63.4515C57.1085 63.4515 53.0283 64.6056 50.618 65.2752C50.257 65.375 50.2654 65.8859 50.6277 65.9761C54.3747 66.9066 63.7608 69.561 74.3545 65.6659C74.7977 65.5024 74.7735 64.8689 74.3207 64.7342L68.5994 63.0392Z" fill="white"/>
<path d="M62.5984 67.986C57.5123 67.986 53.3813 66.9449 51.0701 66.363L50.5666 66.2368C50.2828 66.1658 50.0908 65.9242 50.086 65.6333C50.0824 65.3436 50.2683 65.0959 50.5485 65.0178C52.6677 64.4287 56.0802 63.4645 56.8699 63.2409L58.8792 49.774C57.0945 49.8161 55.9908 48.9445 55.5972 47.1725C55.3834 46.2108 55.5078 45.5327 55.9667 45.1577C56.5052 44.7189 57.3384 44.8367 57.8999 44.9917C57.6282 44.2151 57.2756 42.7653 57.784 41.4273C58.1559 40.4487 58.9203 39.7166 60.0542 39.2477C61.8111 38.5228 63.1153 38.7392 64.2673 38.9315C65.7863 39.184 67.0989 39.4028 69.2495 37.6175C69.3148 37.5634 69.3993 37.5442 69.4826 37.5622C69.5647 37.5815 69.6335 37.638 69.6673 37.7137L73.3853 45.9968C73.4276 46.0905 73.4119 46.1999 73.3455 46.2781L72.1718 47.6738C72.2515 48.5154 72.6186 53.4395 70.3931 54.5419C70.1033 54.685 68.3053 54.9999 67.594 55.1154L68.839 62.8262L74.3985 64.4744C74.7185 64.5693 74.9334 64.847 74.9431 65.1801C74.9539 65.5119 74.7595 65.7992 74.448 65.9134C70.2289 67.4702 66.1776 67.986 62.5984 67.986ZM59.1944 49.221C59.2681 49.221 59.3393 49.2511 59.39 49.3052C59.4468 49.3653 59.4721 49.4471 59.4601 49.5276L57.3771 63.491C57.3614 63.5956 57.2865 63.6809 57.1851 63.7098C57.1851 63.7098 53.1036 64.8639 50.6934 65.5335C50.6354 65.5491 50.6233 65.5924 50.6233 65.6261C50.6233 65.6597 50.6366 65.7018 50.6958 65.7162L51.2017 65.8437C55.09 66.8234 64.1972 69.1172 74.2644 65.4157C74.4021 65.3652 74.4093 65.239 74.4081 65.2017C74.4069 65.1632 74.3912 65.0346 74.2475 64.9913L68.5262 63.295C68.4272 63.2662 68.3535 63.182 68.3379 63.081L67.0229 54.9386C67.0108 54.8665 67.0301 54.792 67.0748 54.7343C67.1195 54.6754 67.1859 54.6381 67.2595 54.6297C67.6073 54.5912 69.9076 54.1813 70.1588 54.0658C71.859 53.2231 71.7974 49.1285 71.6296 47.6209C71.6211 47.5488 71.6441 47.4755 71.6912 47.419L72.8299 46.0653L69.3232 38.2523C67.1388 39.9534 65.7018 39.7142 64.1827 39.4617C63.0501 39.2742 61.8788 39.0782 60.2643 39.7442C59.2729 40.153 58.6088 40.7841 58.2912 41.6184C57.6476 43.3099 58.6063 45.3031 58.616 45.3224C58.6655 45.4233 58.6462 45.5436 58.5677 45.6253C58.4892 45.7058 58.3697 45.7311 58.2658 45.6854C57.8867 45.5195 56.795 45.1757 56.3108 45.5736C55.951 45.8681 56.0114 46.5426 56.1261 47.0571C56.4859 48.6789 57.4568 49.3653 59.1751 49.2222C59.1787 49.221 59.186 49.221 59.1944 49.221Z" fill="black"/>
<path d="M66.3975 55.2249C63.0755 55.2249 61.5214 52.6606 61.5057 52.633C61.4309 52.5055 61.4731 52.3421 61.6011 52.2663C61.7291 52.1918 61.8934 52.2339 61.9694 52.3613C62.0371 52.4743 63.6551 55.1191 67.25 54.6298C67.3961 54.6118 67.5325 54.7128 67.5531 54.8594C67.5736 55.0061 67.4697 55.1407 67.3224 55.1612C67 55.2045 66.6921 55.2249 66.3975 55.2249Z" fill="black"/>
<path d="M53.3898 161.888C50.2032 161.888 47.6094 159.307 47.6094 156.133C47.6094 152.959 50.202 150.378 53.3898 150.378C56.5765 150.378 59.1703 152.959 59.1703 156.133C59.1703 159.307 56.5765 161.888 53.3898 161.888ZM53.3898 150.914C50.499 150.914 48.1479 153.255 48.1479 156.133C48.1479 159.011 50.499 161.352 53.3898 161.352C56.2807 161.352 58.6317 159.011 58.6317 156.133C58.6317 153.255 56.2795 150.914 53.3898 150.914Z" fill="black"/>
<path d="M68.9367 161.888C65.75 161.888 63.1562 159.307 63.1562 156.133C63.1562 152.959 65.7488 150.378 68.9367 150.378C72.1234 150.378 74.7172 152.959 74.7172 156.133C74.7172 159.307 72.1234 161.888 68.9367 161.888ZM68.9367 150.914C66.0459 150.914 63.6948 153.255 63.6948 156.133C63.6948 159.011 66.0459 161.351 68.9367 161.351C71.8275 161.351 74.1786 159.011 74.1786 156.133C74.1786 153.255 71.8275 150.914 68.9367 150.914Z" fill="black"/>
<path d="M84.757 161.325C81.5703 161.325 78.9766 158.744 78.9766 155.57C78.9766 152.398 81.5691 149.815 84.757 149.815C87.9449 149.815 90.5375 152.397 90.5375 155.57C90.5363 158.743 87.9437 161.325 84.757 161.325ZM84.757 150.352C81.8662 150.352 79.5151 152.692 79.5151 155.57C79.5151 158.448 81.8662 160.789 84.757 160.789C87.6479 160.789 89.9989 158.448 89.9989 155.57C89.9989 152.692 87.6467 150.352 84.757 150.352Z" fill="black"/>
<path d="M123.414 202.726C123.414 202.726 129.569 200.81 139.652 181.333C148.162 164.892 140.576 149.003 139.044 138.375C138.889 137.29 137.397 137.133 137.029 138.165C134.477 145.306 130.373 158.291 131.036 166.285C131.992 177.808 123.414 202.726 123.414 202.726Z" fill="white"/>
<path d="M123.418 202.994C123.347 202.994 123.276 202.965 123.225 202.913C123.153 202.841 123.13 202.735 123.163 202.639C123.249 202.39 131.712 177.642 130.77 166.308C130.101 158.247 134.247 145.159 136.778 138.076C136.984 137.498 137.531 137.15 138.14 137.209C138.753 137.27 139.224 137.724 139.314 138.337C139.659 140.735 140.323 143.439 141.027 146.302C143.475 156.261 146.52 168.656 139.893 181.456C129.874 200.81 123.753 202.901 123.497 202.981C123.471 202.99 123.444 202.994 123.418 202.994ZM138.005 137.739C137.732 137.739 137.422 137.873 137.285 138.256C134.769 145.3 130.646 158.304 131.307 166.265C132.174 176.707 125.175 198.31 123.875 202.206C125.578 201.238 131.209 197.065 139.415 181.212C145.949 168.59 142.93 156.303 140.504 146.431C139.798 143.555 139.13 140.839 138.781 138.414C138.716 137.963 138.367 137.771 138.087 137.743C138.06 137.74 138.033 137.739 138.005 137.739Z" fill="black"/>
<path d="M130.082 192.077L132.274 174.818C133.226 167.326 131.994 159.717 128.729 152.915C123.971 143.003 123.598 131.535 127.7 121.332L131.221 112.573C131.667 111.465 130.249 110.566 129.446 111.446L124.502 116.862C113.282 129.149 109.494 146.545 114.582 162.419L123.694 190.853L130.082 192.077Z" fill="white"/>
<path d="M130.084 192.345C130.067 192.345 130.05 192.344 130.033 192.34L123.644 191.117C123.547 191.099 123.468 191.028 123.439 190.936L114.327 162.502C109.222 146.572 113.045 129.015 124.304 116.684L129.249 111.268C129.766 110.702 130.47 110.743 130.939 111.035C131.414 111.331 131.763 111.952 131.473 112.675L127.952 121.434C123.887 131.546 124.26 142.98 128.974 152.803C132.269 159.668 133.503 167.294 132.543 174.855L130.35 192.114C130.341 192.187 130.302 192.254 130.242 192.298C130.196 192.328 130.14 192.345 130.084 192.345ZM123.902 190.621L129.852 191.759L132.008 174.785C132.956 167.326 131.739 159.804 128.487 153.03C123.708 143.072 123.33 131.482 127.451 121.231L130.972 112.472C131.16 112.008 130.917 111.651 130.652 111.486C130.394 111.325 129.976 111.265 129.646 111.625L124.702 117.041C113.572 129.231 109.792 146.587 114.838 162.336L123.902 190.621Z" fill="black"/>
<path d="M127.256 192.643L119.651 173.303C117.487 167.801 112.935 163.598 107.296 161.898L102.11 160.334C100.851 159.954 100.005 161.611 101.047 162.416L104.235 164.884C107.688 167.558 109.75 171.661 109.84 176.042C109.893 178.616 110.63 181.13 111.973 183.322L117.126 191.738L127.256 192.643Z" fill="white"/>
<path d="M127.259 192.911C127.251 192.911 127.243 192.911 127.235 192.91L117.105 192.005C117.02 191.997 116.944 191.949 116.9 191.877L111.746 183.462C110.38 181.231 109.629 178.668 109.575 176.048C109.485 171.726 107.48 167.735 104.073 165.096L100.885 162.628C100.22 162.112 100.204 161.338 100.484 160.8C100.761 160.267 101.395 159.838 102.191 160.078L107.377 161.642C113.131 163.377 117.698 167.592 119.905 173.206L127.51 192.546C127.544 192.632 127.531 192.73 127.475 192.804C127.423 192.871 127.343 192.911 127.259 192.911ZM117.287 191.483L126.85 192.338L119.403 173.401C117.256 167.941 112.816 163.841 107.22 162.154L102.034 160.59C101.5 160.429 101.122 160.735 100.961 161.046C100.796 161.363 100.763 161.857 101.214 162.206L104.402 164.674C107.937 167.412 110.018 171.553 110.111 176.037C110.163 178.562 110.887 181.034 112.203 183.183L117.287 191.483Z" fill="black"/>
<path d="M126.135 183.824C126.127 183.824 126.118 183.824 126.11 183.823C125.962 183.808 125.852 183.678 125.867 183.53C127.027 171.177 124.535 163.224 122.336 156.208C121.321 152.966 120.361 149.904 119.791 146.613C117.101 131.074 126.27 117.592 126.363 117.457C126.448 117.336 126.614 117.304 126.738 117.389C126.859 117.473 126.891 117.639 126.806 117.761C126.715 117.894 117.67 131.204 120.321 146.521C120.885 149.778 121.839 152.824 122.849 156.049C125.063 163.113 127.572 171.12 126.402 183.58C126.39 183.719 126.273 183.824 126.135 183.824Z" fill="black"/>
<path d="M136.261 175.566C136.247 175.566 136.231 175.565 136.217 175.563C136.071 175.537 135.972 175.399 135.996 175.254C138.068 163.056 137.351 144.277 137.343 144.089C137.337 143.941 137.453 143.816 137.602 143.812C137.753 143.802 137.875 143.921 137.881 144.069C137.888 144.258 138.608 163.091 136.526 175.344C136.504 175.474 136.391 175.566 136.261 175.566Z" fill="black"/>
<path d="M118.102 185.671C117.955 185.671 117.834 185.554 117.833 185.406C117.685 170.205 105.492 163.534 105.369 163.468C105.237 163.399 105.189 163.236 105.259 163.105C105.329 162.974 105.492 162.926 105.623 162.996C105.749 163.063 118.223 169.887 118.372 185.4C118.374 185.548 118.254 185.669 118.106 185.67C118.104 185.671 118.103 185.671 118.102 185.671Z" fill="black"/>
<path d="M119.754 157.241C119.675 157.241 119.595 157.205 119.542 157.138C116.243 152.919 114.781 147.217 114.766 147.16C114.73 147.016 114.817 146.871 114.962 146.835C115.104 146.8 115.251 146.885 115.288 147.03C115.302 147.086 116.739 152.681 119.967 156.809C120.057 156.926 120.037 157.094 119.92 157.186C119.87 157.223 119.812 157.241 119.754 157.241Z" fill="black"/>
<path d="M126.148 215.115H124.761C117.187 215.115 111.047 209.002 111.047 201.462V187.967H139.862V201.462C139.862 209.002 133.722 215.115 126.148 215.115Z" fill="white"/>
<path d="M126.152 215.382H124.764C117.054 215.382 110.781 209.137 110.781 201.461V187.966C110.781 187.818 110.902 187.698 111.051 187.698H139.866C140.014 187.698 140.135 187.818 140.135 187.966V201.461C140.135 209.138 133.862 215.382 126.152 215.382ZM111.32 188.236V201.462C111.32 208.842 117.351 214.847 124.764 214.847H126.152C133.565 214.847 139.597 208.842 139.597 201.462V188.236H111.32Z" fill="black"/>
<path d="M137.037 193.028H113.871C113.722 193.028 113.602 192.908 113.602 192.76C113.602 192.612 113.722 192.492 113.871 192.492H137.037C137.186 192.492 137.307 192.612 137.307 192.76C137.307 192.908 137.186 193.028 137.037 193.028Z" fill="black"/>
</g>
<defs>
<clipPath id="clip0_8_1777">
<rect width="223" height="220" fill="white"/>
</clipPath>
</defs>
</svg>
