<svg width="259" height="221" viewBox="0 0 259 221" fill="none" xmlns="http://www.w3.org/2000/svg">
<g clip-path="url(#clip0_8_2008)">
<path d="M106.883 207.261C106.883 207.261 103.912 213.21 102.596 214.996L96.5059 217.693C94.2176 218.9 94.2422 220.754 94.2422 220.754L110.894 220.951L115.797 207.168L106.883 207.261Z" fill="#157B6C"/>
<path d="M161.554 195.122L134.488 169.553C134.488 169.553 125.464 161.03 119.884 164.164C112.613 168.253 104.961 210.857 104.961 210.857L119.792 215.26L127.112 189.364C131.037 192.985 134.039 195.215 139.267 199.279C153.65 210.469 161.554 195.122 161.554 195.122Z" fill="white" stroke="black" stroke-miterlimit="10" stroke-linecap="round" stroke-linejoin="round"/>
<path d="M123.656 184.906L126.732 188.878" stroke="black" stroke-width="1.0299" stroke-miterlimit="10" stroke-linecap="round"/>
<path d="M126.406 185.281L126.732 188.878" stroke="black" stroke-width="1.0299" stroke-miterlimit="10" stroke-linecap="round"/>
<path d="M155.491 219.836C155.491 219.836 166.551 219.614 168.766 219.664L174.031 220.452C178.417 221.406 180.208 220.815 181.284 220.156L168.864 209.447L151.031 209.73L155.491 219.836Z" fill="#157B6C"/>
<path d="M139.061 182.393C139.061 182.393 108.286 195.412 108.273 212.076C108.267 218.167 114.597 220.507 117.008 220.507L160.204 220.686L160.561 206.799L134.448 206.146C134.448 206.146 163.341 208.813 166.171 185.46L139.061 182.393Z" fill="white" stroke="black" stroke-miterlimit="10" stroke-linecap="round" stroke-linejoin="round"/>
<path d="M147.531 127.614C147.531 127.614 150.884 128.728 151.413 131.955C151.942 135.182 153.437 158.596 171.196 156.927C187.042 155.437 186.027 143.755 181.782 139.936C177.052 135.681 169.375 139.893 167.247 132.75C165.45 126.714 155.737 120.285 147.531 127.614Z" fill="#157B6C" stroke="#157B6C" stroke-width="1.0299" stroke-miterlimit="10" stroke-linecap="round"/>
<path d="M140.441 156.084L136.289 141.402L141.942 134.954L152.16 154.113L140.441 156.084Z" fill="white" stroke="black" stroke-miterlimit="10" stroke-linecap="round" stroke-linejoin="round"/>
<path d="M137.994 146.156L140.872 142.461L137.102 143.108L137.994 146.156Z" fill="black" stroke="black" stroke-width="1.0299" stroke-miterlimit="10" stroke-linecap="round"/>
<path d="M153.305 128.765C154.388 135.324 146.674 142.067 139.71 143.219C132.747 144.37 129.382 140.749 128.299 134.191C127.217 127.632 131.775 120.131 138.738 118.979C145.696 117.822 152.216 122.206 153.305 128.765Z" fill="white" stroke="black" stroke-miterlimit="10" stroke-linecap="round" stroke-linejoin="round"/>
<path d="M153.302 128.765C152.219 122.207 145.692 117.828 138.729 118.98C133.248 119.891 129.268 124.732 128.352 129.948C128.425 129.979 132.658 130.293 134.958 125.803C134.958 125.803 134.915 133.089 143.01 132.467C143.01 132.467 144.327 141.698 144.671 141.526C147.2 140.257 148.891 138.662 149.722 137.812C152.268 135.195 153.831 131.962 153.302 128.765Z" fill="#157B6C" stroke="black" stroke-width="1.0299" stroke-miterlimit="10" stroke-linecap="round"/>
<path d="M133.555 138.083C133.555 138.083 135.228 138.489 136.077 136.734L133.555 138.083Z" fill="white"/>
<path d="M133.555 138.083C133.555 138.083 135.228 138.489 136.077 136.734" stroke="black" stroke-miterlimit="10" stroke-linecap="round" stroke-linejoin="round"/>
<path d="M142.788 138.434C143.575 138.36 144.375 137.984 145.002 137.325C146.257 136.007 146.343 134.055 145.199 132.959C144.424 132.22 143.458 132.251 142.523 132.762" fill="white"/>
<path d="M142.788 138.434C143.575 138.36 144.375 137.984 145.002 137.325C146.257 136.007 146.343 134.055 145.199 132.959C144.424 132.22 143.458 132.251 142.523 132.762" stroke="black" stroke-miterlimit="10" stroke-linecap="round" stroke-linejoin="round"/>
<path d="M142.156 136.297C142.156 136.297 142.796 134.905 144.026 135.422L142.156 136.297Z" fill="white"/>
<path d="M142.156 136.297C142.156 136.297 142.796 134.905 144.026 135.422" stroke="black" stroke-miterlimit="10" stroke-linecap="round" stroke-linejoin="round"/>
<path d="M180.814 198.46C180.814 198.46 185.944 197.068 185.391 195.867C184.837 194.66 180.636 196.261 180.636 196.261C183.693 194.623 181.429 194.635 181.429 194.635C179.03 195.269 177.751 193.89 176.871 193.071C165.146 182.084 161.425 156.946 144.539 163.387L148.931 172.945C154.191 180.964 166.53 194.654 166.53 194.654C173.137 201.859 176.686 202.013 176.686 202.013C178.962 203.035 186.357 201.157 186.012 200.252C185.668 199.346 180.808 200.541 180.808 200.541C180.808 200.541 186.129 199.075 186.197 198.01C186.277 196.938 180.814 198.46 180.814 198.46Z" fill="white" stroke="black" stroke-miterlimit="10" stroke-linecap="round" stroke-linejoin="round"/>
<path d="M148.928 147.142L138.391 150.929L139.055 182.398C139.055 182.398 145.157 182.06 148.928 188.193C152.699 194.327 155.485 197.936 163.771 200.88C163.771 200.874 175.791 183.704 148.928 147.142Z" fill="white" stroke="black" stroke-miterlimit="10" stroke-linecap="round" stroke-linejoin="round"/>
<path d="M120.02 117.495L91.7891 116.214L90.0148 155.385L118.246 156.667L120.02 117.495Z" fill="#157B6C"/>
<path d="M95.9297 143.884L101.14 135.472L109.192 142.216L114.913 125.397" stroke="black" stroke-width="1.0299" stroke-miterlimit="10" stroke-linecap="round"/>
<path d="M97.6987 144.624L94.6352 146.114L93.2266 142.862L96.29 141.366L97.6987 144.624Z" fill="white" stroke="black" stroke-miterlimit="10" stroke-linecap="round" stroke-linejoin="round"/>
<path d="M103.081 136.759L100.018 138.25L98.6094 134.998L101.673 133.508L103.081 136.759Z" fill="white" stroke="black" stroke-miterlimit="10" stroke-linecap="round" stroke-linejoin="round"/>
<path d="M111.425 143.103L108.356 144.593L106.953 141.341L110.017 139.845L111.425 143.103Z" fill="white" stroke="black" stroke-miterlimit="10" stroke-linecap="round" stroke-linejoin="round"/>
<path d="M117.824 126.444L114.754 127.941L113.352 124.683L116.415 123.192L117.824 126.444Z" fill="white" stroke="black" stroke-miterlimit="10" stroke-linecap="round" stroke-linejoin="round"/>
<path d="M139.255 169.811C136.813 162.144 129.924 148.3 129.924 148.3C126.208 140.99 123.372 140.06 123.372 140.06C121.767 138.723 115.363 138.569 115.437 139.382C115.511 140.195 119.706 140.325 119.706 140.325C119.706 140.325 115.074 140.306 114.779 141.15C114.484 141.994 119.239 142 119.239 142C119.239 142 114.779 141.963 114.957 143.065C115.136 144.161 118.888 143.816 118.888 143.816C116.052 144.451 117.879 144.95 117.879 144.95C119.958 144.98 120.684 146.378 121.207 147.24C128.207 158.763 125.556 179.917 140.646 178.519" fill="white"/>
<path d="M139.255 169.811C136.813 162.144 129.924 148.3 129.924 148.3C126.208 140.99 123.372 140.06 123.372 140.06C121.767 138.723 115.363 138.569 115.437 139.382C115.511 140.195 119.706 140.325 119.706 140.325C119.706 140.325 115.074 140.306 114.779 141.15C114.484 141.994 119.239 142 119.239 142C119.239 142 114.779 141.963 114.957 143.065C115.136 144.161 118.888 143.816 118.888 143.816C116.052 144.451 117.879 144.95 117.879 144.95C119.958 144.98 120.684 146.378 121.207 147.24C128.207 158.763 125.556 179.917 140.646 178.519" stroke="black" stroke-miterlimit="10" stroke-linecap="round" stroke-linejoin="round"/>
<path d="M137.727 164.964L140.655 178.531C140.655 178.531 157.996 163.314 151.973 155.061C147.089 148.373 137.727 164.964 137.727 164.964Z" fill="white" stroke="black" stroke-miterlimit="10" stroke-linecap="round" stroke-linejoin="round"/>
<path d="M50.9922 220.753V184.425C50.9922 176.789 57.1805 170.593 64.8083 170.593H97.3863C105.014 170.593 111.202 176.789 111.202 184.425V220.753" stroke="#157B6C" stroke-width="6.0269" stroke-miterlimit="10"/>
<path d="M59.5625 131.001L64.6743 167.717H96.7233" stroke="black" stroke-width="2" stroke-miterlimit="10" stroke-linecap="round"/>
<path d="M64.6719 167.717H96.7209" stroke="black" stroke-width="4" stroke-miterlimit="10" stroke-linecap="round"/>
<path d="M136.185 56.2781C139.721 52.738 139.721 46.9983 136.185 43.4582C132.649 39.9181 126.915 39.9181 123.379 43.4582C119.843 46.9983 119.843 52.738 123.379 56.2781C126.915 59.8183 132.649 59.8183 136.185 56.2781Z" fill="white" stroke="black" stroke-miterlimit="10" stroke-linecap="round" stroke-linejoin="round"/>
<path d="M129.781 0.307617V46.2615" stroke="black" stroke-miterlimit="10" stroke-linecap="round" stroke-linejoin="round"/>
<path d="M129.778 38.6805C118.779 38.6805 109.859 45.3809 109.859 53.6454H149.696C149.696 45.3809 140.783 38.6805 129.778 38.6805Z" fill="#157B6C"/>
<path d="M183.414 176.53C194.616 175.138 206.217 183.101 208.967 194.063C209.379 195.72 209.613 197.475 209.176 199.125C208.746 200.776 207.534 202.303 205.879 202.716C203.462 203.319 200.939 201.188 200.57 198.719C200.201 196.249 201.567 193.767 203.492 192.191C207.884 188.582 214.682 189.235 219.394 192.425C224.1 195.609 227.077 200.788 229.31 206.016" stroke="black" stroke-width="1.0299" stroke-miterlimit="10" stroke-linecap="round"/>
<path d="M221.633 202.087L229.298 206.016L232.256 197.906" stroke="black" stroke-width="1.0299" stroke-miterlimit="10" stroke-linecap="round"/>
<path d="M99.6797 197.462H68.7134C66.4804 197.462 64.6719 195.652 64.6719 193.416C64.6719 191.181 66.4804 189.37 68.7134 189.37H99.6797V197.462Z" stroke="black" stroke-width="1.0299" stroke-miterlimit="10" stroke-linecap="round"/>
<path d="M70.6641 189.37V197.462" stroke="black" stroke-width="1.0299" stroke-miterlimit="10" stroke-linecap="round"/>
<path d="M70.6641 192.215H99.6804" stroke="black" stroke-width="1.0299" stroke-miterlimit="10" stroke-linecap="round"/>
<path d="M70.6641 195.073H99.6804" stroke="black" stroke-width="1.0299" stroke-miterlimit="10" stroke-linecap="round"/>
<path d="M258.696 33.7784H158.914V99.8888H258.696V33.7784Z" fill="white" stroke="black" stroke-miterlimit="10" stroke-linecap="round" stroke-linejoin="round"/>
<path d="M158.914 68.4933H258.69" stroke="black" stroke-miterlimit="10" stroke-linecap="round" stroke-linejoin="round"/>
<path d="M208.805 33.7784V99.8888" stroke="black" stroke-miterlimit="10" stroke-linecap="round" stroke-linejoin="round"/>
<path d="M247.312 56.3794C247.312 56.3794 247.687 44.3582 235.353 44.4075C231.423 44.426 227.935 46.3104 225.751 49.2418C224.139 47.8562 222.042 47.0125 219.747 47.0125C216.167 47.0125 213.067 49.0571 211.535 52.0377C203.95 48.5336 199.484 53.5835 199.484 56.3794H247.312Z" stroke="black" stroke-width="1.0299" stroke-miterlimit="10" stroke-linecap="round"/>
<path d="M182.816 61.7871C182.816 63.2651 181.623 64.4599 180.146 64.4599C178.67 64.4599 177.477 63.2651 177.477 61.7871C177.477 60.3091 178.67 59.1144 180.146 59.1144C181.623 59.1144 182.816 60.3153 182.816 61.7871Z" stroke="black" stroke-width="1.0299" stroke-miterlimit="10" stroke-linecap="round"/>
<path d="M179.453 87.1902C181.317 90.3002 185.949 90.7189 189.123 88.9576C192.291 87.2025 194.284 83.9139 195.921 80.6808C198.486 75.6063 191.098 77.5523 194.075 84.7207C195.299 87.6767 197.501 90.7128 200.688 90.9899C205.221 91.3841 207.965 86.3465 210.622 82.6453C212.437 80.1204 214.639 75.0274 217.58 74.5285C222.015 73.7834 222.169 80.2312 222.648 82.0048C223.128 83.7723 224.279 85.6444 226.099 85.86C228.289 86.1186 229.864 83.9509 231.451 82.4174C234.976 78.9934 240.752 78.1681 245.101 80.4591" stroke="black" stroke-miterlimit="10" stroke-linecap="round" stroke-linejoin="round"/>
<path d="M99.6033 33.7906H0.34375V99.5623H99.6033V33.7906Z" fill="white" stroke="black" stroke-miterlimit="10" stroke-linecap="round" stroke-linejoin="round"/>
<path d="M0.34375 68.327H99.6033" stroke="black" stroke-width="1.0717" stroke-miterlimit="10" stroke-linecap="round"/>
<path d="M49.9766 33.7906V99.5623" stroke="black" stroke-width="1.0717" stroke-miterlimit="10" stroke-linecap="round"/>
<path d="M0.341704 99.5623C0.0464354 94.8142 4.56159 81.161 14.3608 81.9185C20.5307 82.3989 23.3973 89.0438 28.1093 92.6341C30.2069 94.2291 33.0243 95.3931 35.694 94.7772C36.9366 94.4878 38.0377 93.8412 39.0158 93.096C42.6759 90.3124 44.7551 86.2663 47.3018 82.6206C49.8546 78.981 53.3548 75.1566 58.1406 74.7317C71.5507 73.5431 78.3173 95.6271 79.8736 99.5623" stroke="black" stroke-width="1.0717" stroke-miterlimit="10" stroke-linecap="round"/>
<path d="M90.4387 83.5198C90.4387 84.2526 89.842 84.85 89.11 84.85C88.3779 84.85 87.7812 84.2526 87.7812 83.5198C87.7812 82.7869 88.3779 82.1896 89.11 82.1896C89.842 82.1896 90.4387 82.7808 90.4387 83.5198Z" stroke="black" stroke-width="1.0717" stroke-miterlimit="10" stroke-linecap="round"/>
<path d="M37.5402 52.1243C37.5402 52.8571 36.9435 53.4545 36.2115 53.4545C35.4795 53.4545 34.8828 52.8571 34.8828 52.1243C34.8828 51.3914 35.4795 50.7941 36.2115 50.7941C36.9435 50.7941 37.5402 51.3914 37.5402 52.1243Z" stroke="black" stroke-width="1.0717" stroke-miterlimit="10" stroke-linecap="round"/>
<g opacity="0.55">
<path d="M88.7046 57.2299L87.8311 58.1044L86.9576 58.9789L86.0841 59.8534L85.2106 60.7279L84.3371 61.6024L83.4636 62.4769L82.5901 63.3514L81.7166 64.2259L80.8431 65.1003L79.9696 65.9748L79.0961 66.8493L78.2226 67.7238L77.3491 68.5983L76.4756 69.4728L75.6021 70.3473L74.7286 71.2218L73.8551 72.0963L73.7812 72.1702C73.8243 72.1825 73.8674 72.1887 73.9104 72.201L74.0642 72.047L74.9377 71.1725L75.8112 70.298L76.6847 69.4235L77.5582 68.549L78.4317 67.6746L79.3052 66.8001L80.1787 65.9256L81.0522 65.0511L81.9258 64.1766L82.7993 63.3021L83.6728 62.4276L84.5463 61.5531L85.4198 60.6786L86.2933 59.8041L87.1668 58.9296L88.0403 58.0551L88.9138 57.1807L89.6458 56.4478C89.6335 56.4047 89.6273 56.3616 89.615 56.3185L89.5781 56.3554L88.7046 57.2299Z" fill="black"/>
</g>
<g opacity="0.55">
<path d="M89.7511 57.0514L89.5727 57.23L88.6992 58.1045L87.8257 58.979L86.9522 59.8535L86.0787 60.728L85.2052 61.6024L84.3317 62.4769L83.4581 63.3514L82.5846 64.2259L81.7111 65.1004L80.8376 65.9749L79.9641 66.8494L79.0906 67.7239L78.2171 68.5984L76.4701 70.3474L75.5966 71.2218L74.7231 72.0963L74.5078 72.3119C74.5509 72.318 74.6001 72.3304 74.6431 72.3365L75.8058 71.1726L76.6793 70.2981L77.5528 69.4236L78.4263 68.5491L79.2998 67.6746L80.1733 66.8001L81.0468 65.9256L81.9203 65.0511L82.7938 64.1766L83.6673 63.3022L84.5408 62.4277L85.4143 61.5532L86.2878 60.6787L87.1613 59.8042L88.0348 58.9297L88.9083 58.0552L89.7757 57.1869C89.7695 57.1438 89.7634 57.0945 89.7511 57.0514Z" fill="black"/>
</g>
<g opacity="0.55">
<path d="M89.8585 57.8214L89.5755 58.1047L88.702 58.9792L87.8285 59.8537L86.955 60.7282L86.0815 61.6027L85.208 62.4772L84.3345 63.3516L83.461 64.2261L82.5875 65.1006L81.714 65.9751L80.8405 66.8496L79.967 67.7241L79.0935 68.5986L78.22 69.4731L76.473 71.2221L75.5995 72.0966L75.2734 72.423C75.3226 72.4291 75.3719 72.4291 75.4211 72.4353L75.8025 72.0535L76.676 71.179L77.5495 70.3045L78.423 69.43L79.2965 68.5555L80.17 67.681L81.0435 66.8065L81.917 65.932L82.7905 65.0575L83.664 64.183L84.5375 63.3085L85.411 62.434L86.2845 61.5596L87.158 60.6851L88.0315 59.8106L88.905 58.9361L89.7785 58.0616L89.8708 57.9692C89.8646 57.9199 89.8585 57.8707 89.8585 57.8214Z" fill="black"/>
</g>
<g opacity="0.55">
<path d="M89.9144 58.6339L89.5699 58.9788L88.6964 59.8533L87.8229 60.7278L86.9494 61.6023L86.0759 62.4767L85.2024 63.3512L84.3289 64.2257L83.4554 65.1002L82.5819 65.9747L81.7083 66.8492L80.8348 67.7237L79.9613 68.5982L78.2143 70.3472L77.3408 71.2217L76.4673 72.0962L76.0859 72.478C76.1351 72.478 76.1905 72.478 76.2459 72.4841L77.55 71.1786L78.4235 70.3041L79.297 69.4296L80.1705 68.5551L81.044 67.6806L81.9175 66.8061L82.791 65.9316L83.6645 65.0571L84.538 64.1826L85.4115 63.3081L86.285 62.4336L87.1585 61.5591L88.032 60.6847L88.9055 59.8102L89.779 58.9357L89.9205 58.794C89.9205 58.7386 89.9205 58.6832 89.9144 58.6339Z" fill="black"/>
</g>
<g opacity="0.55">
<path d="M89.9265 59.4962L89.5759 59.8472L88.7024 60.7217L87.8289 61.5962L86.9554 62.4707L86.0819 63.3452L85.2083 64.2197L84.3348 65.0942L83.4613 65.9687L82.5878 66.8432L81.7143 67.7177L80.8408 68.5922L79.9673 69.4667L78.2203 71.2156L77.3468 72.0901L76.9531 72.4843C77.0085 72.4843 77.0638 72.4843 77.1192 72.4781L77.556 72.0409L78.4295 71.1664L79.303 70.2919L80.1765 69.4174L81.05 68.5429L81.9235 67.6684L82.797 66.7939L83.6705 65.9194L84.544 65.0449L85.4175 64.1704L86.291 63.2959L87.1645 62.4215L88.038 61.547L88.9115 60.6725L89.785 59.798L89.9265 59.6563C89.9203 59.6071 89.9203 59.5516 89.9265 59.4962Z" fill="black"/>
</g>
<g opacity="0.55">
<path d="M89.8764 60.42L89.575 60.7218L88.7015 61.5963L87.828 62.4708L86.9545 63.3453L86.081 64.2198L85.2075 65.0943L84.334 65.9688L83.4605 66.8432L82.587 67.7177L81.7135 68.5922L79.9665 70.3412L79.093 71.2157L78.2195 72.0902L77.875 72.4351C77.9304 72.4289 77.9919 72.4289 78.0472 72.4227L79.296 71.1726L80.1695 70.2981L81.043 69.4236L81.9165 68.5491L82.79 67.6746L83.6635 66.8001L84.537 65.9256L85.4105 65.0512L86.284 64.1767L87.1575 63.3022L88.031 62.4277L88.9045 61.5532L89.778 60.6787L89.858 60.5986C89.8641 60.5371 89.8703 60.4816 89.8764 60.42Z" fill="black"/>
</g>
<g opacity="0.55">
<path d="M88.7326 53.7072L88.7018 53.7379L87.8283 54.6124L86.9548 55.4869L86.0813 56.3614L85.2078 57.2359L84.3343 58.1104L83.4608 58.9849L82.5873 59.8594L81.7138 60.7339L80.8403 61.6084L79.9668 62.4829L79.0933 63.3574L78.2198 64.2318L77.3463 65.1063L76.4727 65.9808L75.5992 66.8553L74.7257 67.7298L73.8522 68.6043L72.1052 70.3533L71.2317 71.2278L71.1641 71.2955C71.201 71.314 71.2379 71.3263 71.2748 71.3448L71.4409 71.1785L72.3144 70.304L73.1879 69.4295L74.0614 68.555L74.9349 67.6805L75.8084 66.8061L76.6819 65.9316L77.5554 65.0571L78.4289 64.1826L79.3024 63.3081L80.1759 62.4336L81.0494 61.5591L81.9229 60.6846L82.7964 59.8101L83.6699 58.9356L84.5434 58.0611L85.4169 57.1866L86.2904 56.3122L87.1639 55.4377L88.0374 54.5632L88.7818 53.818C88.7695 53.7811 88.751 53.7441 88.7326 53.7072Z" fill="black"/>
</g>
<g opacity="0.55">
<path d="M88.9913 54.317L88.7022 54.6065L87.8287 55.481L86.9552 56.3554L86.0817 57.2299L85.2082 58.1044L84.3347 58.9789L83.4612 59.8534L82.5877 60.7279L81.7142 61.6024L80.8406 62.4769L79.9671 63.3514L79.0936 64.2259L78.2201 65.1004L77.3466 65.9749L76.4731 66.8493L75.5996 67.7238L74.7261 68.5983L73.8526 69.4728L72.1056 71.2218L71.7734 71.5544C71.8103 71.5667 71.8473 71.5851 71.8903 71.5975L72.3148 71.1725L73.1883 70.298L74.0618 69.4236L74.9353 68.5491L75.8088 67.6746L76.6823 66.8001L77.5558 65.9256L78.4293 65.0511L79.3028 64.1766L80.1763 63.3021L81.0498 62.4276L81.9233 61.5531L82.7968 60.6786L83.6703 59.8041L84.5438 58.9297L85.4173 58.0552L86.2908 57.1807L87.1643 56.3062L88.0378 55.4317L88.9113 54.5572L89.0405 54.4279C89.0221 54.3971 89.0036 54.354 88.9913 54.317Z" fill="black"/>
</g>
<g opacity="0.55">
<path d="M89.269 55.0745C89.2567 55.0314 89.2444 54.9944 89.2259 54.9513L88.7031 55.4748L87.8296 56.3492L86.956 57.2237L86.0825 58.0982L85.209 58.9727L84.3355 59.8472L83.462 60.7217L82.5885 61.5962L81.715 62.4707L80.8415 63.3452L79.968 64.2197L79.0945 65.0942L78.221 65.9687L77.3475 66.8431L76.474 67.7176L75.6005 68.5921L73.8535 70.3411L72.98 71.2156L72.4141 71.7822C72.4571 71.7945 72.494 71.8068 72.5371 71.8253L73.1891 71.1725L74.0626 70.298L74.9361 69.4235L75.8097 68.549L76.6832 67.6745L77.5567 66.8L78.4302 65.9255L79.3037 65.0511L80.1772 64.1766L81.0507 63.3021L81.9242 62.4276L82.7977 61.5531L83.6712 60.6786L84.5447 59.8041L85.4182 58.9296L86.2917 58.0551L87.1652 57.1806L88.0387 56.3061L88.9122 55.4316L89.269 55.0745Z" fill="black"/>
</g>
<g opacity="0.55">
<path d="M88.701 63.3453L87.8275 64.2197L86.954 65.0942L86.0804 65.9687L85.2069 66.8432L84.3334 67.7177L83.4599 68.5922L81.7129 70.3412L80.8394 71.2157L79.9844 72.0717C80.0582 72.0532 80.132 72.0286 80.2058 72.0101L81.0486 71.1726L81.9221 70.2981L82.7956 69.4236L83.6691 68.5491L84.5426 67.6746L85.4161 66.8001L86.2896 65.9256L87.1631 65.0511L88.0366 64.1766L88.9101 63.3021L89.4576 62.7541C89.476 62.6802 89.5006 62.6062 89.5191 62.5323L88.701 63.3453Z" fill="black"/>
</g>
<g opacity="0.55">
<path d="M87.7989 52.0138L86.9561 52.8575L86.0826 53.732L85.2091 54.6065L84.3356 55.481L83.4621 56.3555L82.5886 57.23L81.7151 58.1044L80.8416 58.9789L79.9681 59.8534L79.0946 60.7279L78.2211 61.6024L77.3476 62.4769L76.4741 63.3514L75.6006 64.2259L74.7271 65.1004L73.8536 65.9749L72.98 66.8494L72.1065 67.7239L71.233 68.5983L70.3595 69.4728L69.5045 70.3288L69.4922 70.3412C69.5229 70.3596 69.5599 70.3843 69.5906 70.4028L69.7136 70.2796L70.5871 69.4051L71.4606 68.5306L72.3341 67.6561L73.2076 66.7816L74.0812 65.9071L74.9547 65.0326L75.8282 64.1581L76.7017 63.2837L77.5752 62.4092L78.4487 61.5347L79.3222 60.6602L80.1957 59.7857L81.0692 58.9112L81.9427 58.0367L82.8162 57.1622L83.6897 56.2877L84.5632 55.4132L85.4367 54.5387L86.3102 53.6642L87.1837 52.7898L87.885 52.0877C87.8419 52.0815 87.8235 52.0507 87.7989 52.0138Z" fill="black"/>
</g>
<g opacity="0.55">
<path d="M88.1915 52.6605C88.173 52.6235 88.1545 52.5927 88.1299 52.5558L87.8224 52.8637L86.9489 53.7382L86.0754 54.6127L85.2019 55.4872L84.3284 56.3617L83.4548 57.2362L82.5813 58.1107L81.7078 58.9851L80.8343 59.8596L79.9608 60.7341L79.0873 61.6086L78.2138 62.4831L77.3403 63.3576L76.4668 64.2321L75.5933 65.1066L74.7198 65.9811L73.8463 66.8556L72.9728 67.7301L72.0993 68.6046L70.3523 70.3535L70.0078 70.6984C70.0447 70.7169 70.0755 70.7354 70.1124 70.76L70.5614 70.3104L71.4349 69.4359L72.3084 68.5614L73.182 67.687L74.0555 66.8125L74.929 65.938L75.8025 65.0635L76.676 64.189L77.5495 63.3145L78.423 62.44L79.2965 61.5655L80.17 60.691L81.0435 59.8165L81.917 58.942L82.7905 58.0675L83.664 57.1931L84.5375 56.3186L85.411 55.4441L86.2845 54.5696L87.158 53.6951L88.0315 52.8206L88.1915 52.6605Z" fill="black"/>
</g>
<g opacity="0.55">
<path d="M86.7586 50.6098C86.7339 50.579 86.7093 50.5544 86.6847 50.5236L86.088 51.1148L85.2145 51.9893L84.341 52.8637L83.4675 53.7382L82.594 54.6127L81.7205 55.4872L80.847 56.3617L79.9735 57.2362L79.1 58.1107L78.2265 58.9852L77.353 59.8597L76.4795 60.7342L75.606 61.6087L74.7325 62.4832L73.859 63.3576L72.9855 64.2321L72.112 65.1066L71.2385 65.9811L70.365 66.8556L69.4915 67.7301L68.618 68.6046L67.9844 69.2389C68.0151 69.2635 68.0397 69.2882 68.0705 69.3128L68.821 68.5615L69.6945 67.687L70.568 66.8125L71.4415 65.938L72.315 65.0635L73.1885 64.189L74.062 63.3145L74.9355 62.44L75.809 61.5656L76.6825 60.6911L77.556 59.8166L78.4295 58.9421L79.303 58.0676L80.1765 57.1931L81.05 56.3186L81.9235 55.4441L82.797 54.5696L83.6705 53.6951L84.544 52.8206L85.4175 51.9461L86.291 51.0717L86.7586 50.6098Z" fill="black"/>
</g>
<g opacity="0.55">
<path d="M86.2607 50.0675L86.0823 50.2461L85.2088 51.1144L84.3353 51.9889L83.4618 52.8634L82.5883 53.7379L81.7148 54.6124L80.8413 55.4869L79.9678 56.3614L79.0943 57.2359L78.2208 58.1104L77.3473 58.9849L76.4738 59.8593L75.6003 60.7338L74.7268 61.6083L73.8533 62.4828L72.9798 63.3573L72.1063 64.2318L71.2328 65.1063L70.3592 65.9808L69.4857 66.8553L68.6122 67.7298L67.7387 68.6043L67.5234 68.8198C67.548 68.8444 67.5788 68.8752 67.6034 68.8999L67.9417 68.5612L68.8152 67.6867L69.6887 66.8122L70.5622 65.9377L71.4358 65.0632L72.3093 64.1887L73.1828 63.3142L74.0563 62.4397L74.9298 61.5652L75.8033 60.6907L76.6768 59.8162L77.5503 58.9417L78.4238 58.0673L79.2973 57.1928L80.1708 56.3183L81.0443 55.4438L81.9178 54.5693L82.7913 53.6948L83.6648 52.8203L84.5383 51.9458L85.4118 51.0713L86.2853 50.1968L86.3345 50.1476C86.3099 50.1229 86.2853 50.0921 86.2607 50.0675Z" fill="black"/>
</g>
<g opacity="0.55">
<path d="M87.1428 51.0901C87.1182 51.0593 87.0936 51.0285 87.069 50.9977L86.9583 51.1147L86.0848 51.9892L85.2113 52.8637L84.3378 53.7382L83.4643 54.6127L82.5908 55.4871L81.7173 56.3616L80.8438 57.2361L79.9703 58.1106L79.0968 58.9851L78.2233 59.8596L77.3498 60.7341L76.4763 61.6086L75.6028 62.4831L74.7292 63.3576L73.8557 64.2321L72.9822 65.1066L72.1087 65.981L71.2352 66.8555L70.3617 67.73L69.4882 68.6045L68.4609 69.633C68.4917 69.6576 68.5224 69.6822 68.5532 69.7007L68.8239 69.4297L69.6974 68.5553L70.5709 67.6808L71.4444 66.8063L72.3179 65.9318L73.1914 65.0573L74.0649 64.1828L74.9384 63.3083L75.8119 62.4338L76.6854 61.5593L77.5589 60.6848L78.4324 59.8103L79.3059 58.9358L80.1794 58.0614L81.0529 57.1869L81.9264 56.3124L82.7999 55.4379L83.6734 54.5634L84.5469 53.6889L85.4204 52.8144L86.2939 51.9399L87.1428 51.0901Z" fill="black"/>
</g>
<g opacity="0.55">
<path d="M85.9032 49.7106C85.8786 49.6859 85.8478 49.6551 85.8232 49.6305L85.2142 50.2463L84.3346 51.1147L83.4611 51.9892L82.5876 52.8636L81.7141 53.7381L80.8405 54.6126L79.967 55.4871L79.0935 56.3616L78.22 57.2361L77.3465 58.1106L76.473 58.9851L75.5995 59.8596L74.726 60.7341L73.8525 61.6086L72.979 62.4831L72.1055 63.3575L71.232 64.232L70.3585 65.1065L69.485 65.981L68.6115 66.8555L67.738 67.73L67.0859 68.3828C67.1105 68.4074 67.1351 68.4382 67.1659 68.4629L67.9471 67.6807L68.8206 66.8062L69.6941 65.9318L70.5677 65.0573L71.4412 64.1828L72.3147 63.3083L73.1882 62.4338L74.0617 61.5593L74.9352 60.6848L75.8087 59.8103L76.6822 58.9358L77.5557 58.0613L78.4292 57.1868L79.3027 56.3124L80.1762 55.4379L81.0497 54.5634L81.9232 53.6889L82.7967 52.8144L83.6702 51.9399L84.5437 51.0654L85.4172 50.1909L85.9032 49.7106Z" fill="black"/>
</g>
<g opacity="0.55">
<path d="M84.3357 49.3656L83.4622 50.2401L82.5949 51.1146L81.7213 51.9891L80.8478 52.8636L79.9743 53.7381L79.1008 54.6126L78.2273 55.487L77.3538 56.3615L76.4803 57.236L75.6068 58.1105L74.7333 58.985L73.8598 59.8595L72.9863 60.734L72.1128 61.6085L71.2393 62.483L70.3658 63.3575L69.4923 64.232L68.6188 65.1065L67.7453 65.9809L66.8718 66.8554L66.2812 67.4466C66.3059 67.4774 66.3305 67.5082 66.3551 67.539L67.0809 66.8123L67.9544 65.9378L68.8279 65.0633L69.7014 64.1889L70.5749 63.3144L71.4485 62.4399L72.322 61.5654L73.1955 60.6909L74.069 59.8164L74.9425 58.9419L75.816 58.0674L76.6895 57.1929L77.563 56.3184L78.4365 55.4439L79.31 54.5694L80.1835 53.695L81.057 52.8205L81.9305 51.946L82.804 51.0715L83.6775 50.197L84.551 49.3225L84.9816 48.8914C84.9509 48.8668 84.9201 48.8421 84.8893 48.8175L84.3357 49.3656Z" fill="black"/>
</g>
<g opacity="0.55">
<path d="M82.8359 70.963C82.9528 70.9015 83.0697 70.8337 83.1866 70.7721L83.6725 70.2856L84.546 69.4111L85.4195 68.5366L86.293 67.6621L87.1666 66.7876L88.0401 65.9132L88.2307 65.7222C88.2984 65.6052 88.3599 65.4882 88.4214 65.3712L87.8309 65.9624L86.9574 66.8369L86.0839 67.7114L85.2104 68.5859L84.3369 69.4604L83.4634 70.3349L82.8359 70.963Z" fill="black"/>
</g>
<g opacity="0.55">
<path d="M81.2578 71.6651C81.3501 71.6343 81.4362 71.5973 81.5223 71.5604L81.9283 71.1539L82.8018 70.2795L83.6753 69.405L84.5488 68.5305L85.4223 67.656L86.2958 66.7815L87.1693 65.907L88.0428 65.0325L88.9163 64.158L89.0271 64.0472C89.064 63.9609 89.1009 63.8686 89.1316 63.7823L88.7133 64.2011L87.8398 65.0756L86.9663 65.9501L86.0928 66.8246L85.2193 67.6991L84.3458 68.5736L83.4723 69.4481L81.7253 71.1971L81.2578 71.6651Z" fill="black"/>
</g>
<g opacity="0.55">
<path d="M80.8502 47.6226L79.9767 48.4971L79.1032 49.3716L78.2297 50.2461L77.3623 51.1144L76.4888 51.9889L75.6153 52.8634L74.7418 53.7379L73.8683 54.6124L72.9948 55.4869L72.1213 56.3614L71.2478 57.2359L70.3743 58.1104L69.507 58.9787L68.6335 59.8532L67.76 60.7277L66.8864 61.6022L66.0129 62.4767L65.1394 63.3512L64.3828 64.1086C64.3951 64.1456 64.4136 64.1887 64.4259 64.2256L64.4751 64.1764L65.3486 63.3019L66.2221 62.4274L67.0956 61.5529L67.9691 60.6784L68.8426 59.8039L69.7161 58.9294L70.5896 58.0549L71.4631 57.1804L72.3366 56.306L73.2101 55.4315L74.0836 54.557L74.9571 53.6825L75.8306 52.808L76.7041 51.9335L77.5776 51.059L78.4511 50.1845L79.3247 49.31L80.1982 48.4355L81.0717 47.561L81.6991 46.9329C81.6622 46.9144 81.6191 46.9021 81.5822 46.8898L80.8502 47.6226Z" fill="black"/>
</g>
<g opacity="0.55">
<path d="M79.1012 46.7481L78.2276 47.6225L77.3541 48.497L76.4806 49.3715L75.6071 50.246L74.7398 51.1144L73.8663 51.9888L72.9928 52.8633L72.1193 53.7378L71.2458 54.6123L70.3723 55.4868L69.5049 56.3551L68.6314 57.2296L67.7579 58.1041L66.8844 58.9786L66.0109 59.8531L65.1374 60.7276L64.2639 61.6021L63.7656 62.1009C63.7779 62.144 63.7841 62.1871 63.7964 62.2303L64.473 61.5528L65.3465 60.6783L66.2201 59.8038L67.0936 58.9294L67.9671 58.0549L68.8406 57.1804L69.7141 56.3059L70.5876 55.4314L71.4611 54.5569L72.3346 53.6824L73.2081 52.8079L74.0816 51.9334L74.9551 51.0589L75.8286 50.1844L76.7021 49.3099L77.5756 48.4355L78.4491 47.561L79.3226 46.6865L79.7101 46.2985C79.6671 46.2862 79.624 46.28 79.581 46.2677L79.1012 46.7481Z" fill="black"/>
</g>
<g opacity="0.55">
<path d="M79.3089 72.0345L80.1824 71.16L81.0559 70.2855L81.9294 69.411L82.8029 68.5365L83.6764 67.662L84.55 66.7875L85.4235 65.913L86.297 65.0385L87.1705 64.1641L88.044 63.2896L88.9175 62.4151L89.7233 61.6083C89.7356 61.5406 89.7479 61.479 89.7602 61.4113L89.588 61.5837L88.7145 62.4582L87.841 63.3327L86.9675 64.2072L86.094 65.0817L85.2205 65.9561L84.347 66.8306L83.4735 67.7051L82.5999 68.5796L81.7264 69.4541L79.9794 71.2031L79.1059 72.0776L78.8906 72.2931C78.9583 72.2808 79.0198 72.2685 79.0875 72.2562L79.3089 72.0345Z" fill="black"/>
</g>
<g opacity="0.55">
<path d="M77.3642 46.7483L76.4907 47.6228L75.6172 48.4973L74.7437 49.3718L73.8701 50.2463L72.9966 51.1146L72.1231 51.9891L71.2496 52.8636L70.3761 53.7381L69.5088 54.6064L68.6353 55.4809L67.7618 56.3554L66.8883 57.2299L66.0148 58.1044L65.1413 58.9789L64.2678 59.8534L63.5234 60.5985C63.5296 60.6478 63.5357 60.6909 63.5419 60.7402L63.6034 60.6786L64.4769 59.8041L65.3504 58.9296L66.2239 58.0551L67.0974 57.1806L67.9709 56.3061L68.8444 55.4316L69.7179 54.5571L70.5914 53.6826L71.4649 52.8082L72.3384 51.9337L73.2119 51.0592L74.0855 50.1847L74.959 49.3102L75.8325 48.4357L76.706 47.5612L77.5795 46.6867L78.2254 46.0401C78.1762 46.0339 78.1331 46.0278 78.0839 46.0216L77.3642 46.7483Z" fill="black"/>
</g>
<g opacity="0.55">
<path d="M75.6145 46.7484L74.741 47.6229L73.8675 48.4973L72.994 49.3718L72.1205 50.2463L71.2531 51.1147L70.3796 51.9891L69.5061 52.8636L68.6326 53.7381L67.7591 54.6126L66.8856 55.4871L66.0121 56.3616L65.1386 57.2361L64.2651 58.1106L63.4593 58.9173C63.4593 58.9728 63.4531 59.0282 63.4531 59.0836L63.6008 58.9358L64.4743 58.0613L65.3478 57.1868L66.2213 56.3123L67.0948 55.4378L67.9683 54.5634L68.8418 53.6889L69.7153 52.8144L70.5888 51.9399L71.4623 51.0654L72.3358 50.1909L73.2093 49.3164L74.0828 48.4419L74.9563 47.5674L75.8298 46.6929L76.5618 45.9601C76.5065 45.9601 76.4511 45.9601 76.3957 45.9662L75.6145 46.7484Z" fill="black"/>
</g>
<g opacity="0.55">
<path d="M73.87 46.7487L72.9965 47.6232L72.123 48.4977L71.2495 49.3722L70.376 50.2467L69.5086 51.115L68.6351 51.9895L67.7616 52.864L66.8881 53.7385L66.0146 54.613L65.1411 55.4875L64.2676 56.3619L63.6463 56.9839C63.634 57.0517 63.6217 57.1133 63.6094 57.181L64.4767 56.3127L65.3502 55.4382L66.2237 54.5637L67.0972 53.6892L67.9707 52.8147L68.8442 51.9402L69.7177 51.0657L70.5913 50.1912L71.4648 49.3167L72.3383 48.4423L73.2118 47.5678L74.0853 46.6933L74.6635 46.1144C74.5958 46.1267 74.5343 46.139 74.4667 46.1513L73.87 46.7487Z" fill="black"/>
</g>
<g opacity="0.55">
<path d="M74.0796 71.1604L74.9531 70.2859L75.8266 69.4114L76.7002 68.5369L77.5737 67.6624L78.4472 66.7879L79.3207 65.9135L80.1942 65.039L81.0677 64.1645L81.9412 63.29L82.8147 62.4155L83.6882 61.541L84.5617 60.6665L85.4352 59.792L86.3087 58.9175L87.1822 58.043L88.0557 57.1685L88.9292 56.2941L89.489 55.7336C89.4767 55.6905 89.4644 55.6474 89.4521 55.6105L88.7201 56.3433L87.8466 57.2178L86.973 58.0923L86.0995 58.9668L85.226 59.8413L84.3525 60.7158L83.479 61.5903L82.6055 62.4648L81.732 63.3393L80.8585 64.2137L79.985 65.0882L79.1115 65.9627L78.238 66.8372L77.3645 67.7117L76.491 68.5862L75.6175 69.4607L73.8705 71.2097L73.1016 71.9795C73.1446 71.9918 73.1877 72.0041 73.2246 72.0164L74.0796 71.1604Z" fill="black"/>
</g>
<g opacity="0.55">
<path d="M73.5597 46.3419C73.492 46.3604 73.4182 46.3727 73.3505 46.3912L72.9999 46.7422L72.1264 47.6167L71.2529 48.4912L70.3794 49.3657L69.5059 50.2402L68.6324 51.1147L67.7589 51.9892L66.8854 52.8637L66.0119 53.7381L65.1384 54.6126L64.2649 55.4871L63.8773 55.8751C63.8589 55.9429 63.8466 56.0168 63.8281 56.0845L64.474 55.4379L65.3475 54.5634L66.221 53.6889L67.0945 52.8144L67.968 51.9399L68.8415 51.0654L69.715 50.1909L70.5886 49.3164L71.4621 48.4419L72.3356 47.5674L73.2091 46.6929L73.5597 46.3419Z" fill="black"/>
</g>
<g opacity="0.55">
<path d="M72.3197 46.7111C72.2336 46.7419 72.1536 46.7665 72.0736 46.7973L71.2493 47.6225L70.3758 48.497L69.5023 49.3653L68.6288 50.2398L67.7553 51.1143L66.8818 51.9888L66.0083 52.8633L65.1348 53.7378L64.2736 54.6C64.2429 54.68 64.2121 54.7662 64.1875 54.8463L64.4705 54.563L65.344 53.6885L66.2175 52.814L67.091 51.9395L67.9645 51.065L68.838 50.1906L69.7115 49.3161L70.585 48.4416L71.4585 47.5671L72.3197 46.7111Z" fill="black"/>
</g>
<g opacity="0.55">
<path d="M71.455 70.2855L72.3285 69.4111L73.202 68.5366L74.0755 67.6621L74.949 66.7876L75.8225 65.9131L76.696 65.0386L77.5695 64.1641L78.443 63.2896L79.3165 62.4151L80.19 61.5406L81.0635 60.6661L81.937 59.7916L82.8105 58.9172L83.684 58.0427L84.5575 57.1682L85.431 56.2937L86.3045 55.4192L87.178 54.5447L88.0515 53.6702L88.5129 53.2083C88.4944 53.1714 88.476 53.1344 88.4575 53.1036L87.8424 53.7195L86.9689 54.594L86.0954 55.4685L85.2219 56.3429L84.3484 57.2174L83.4749 58.0919L82.6013 58.9664L81.7278 59.8409L80.8543 60.7154L79.9808 61.5899L79.1073 62.4644L78.2338 63.3389L77.3603 64.2134L76.4868 65.0879L75.6133 65.9624L74.7398 66.8368L73.8663 67.7113L72.9928 68.5858L72.1193 69.4603L70.5938 70.9876C70.6307 71.0061 70.6676 71.0246 70.6983 71.043L71.455 70.2855Z" fill="black"/>
</g>
<g opacity="0.55">
<path d="M70.4813 47.5183L70.3767 47.623L69.5032 48.4974L68.6297 49.3719L67.7562 50.2464L66.8827 51.1148L66.0092 51.9893L65.1357 52.8637L64.9942 53.0054C64.9388 53.1162 64.8773 53.2271 64.8281 53.3379L65.3448 52.8206L66.2184 51.9461L67.0919 51.0717L67.9654 50.1972L68.8389 49.3227L69.7124 48.4482L70.5859 47.5737L70.8135 47.3458C70.7027 47.4013 70.592 47.4567 70.4813 47.5183Z" fill="black"/>
</g>
<g opacity="0.55">
<path d="M69.7147 69.4109L70.5882 68.5364L71.4617 67.6619L72.3352 66.7874L73.2087 65.9129L74.0823 65.0384L74.9558 64.164L75.8293 63.2895L76.7028 62.415L77.5763 61.5405L78.4498 60.666L79.3233 59.7915L80.1968 58.917L81.0703 58.0425L81.9438 57.168L82.8173 56.2935L83.6908 55.419L84.5643 54.5445L85.4378 53.6701L86.3113 52.7956L87.1848 51.9211L87.5354 51.57C87.5108 51.5392 87.4924 51.5085 87.4678 51.4777L86.9757 51.9703L86.1022 52.8448L85.2287 53.7193L84.3551 54.5938L83.4816 55.4683L82.6081 56.3428L81.7346 57.2173L80.8611 58.0918L79.9876 58.9663L79.1141 59.8408L78.2406 60.7152L77.3671 61.5897L76.4936 62.4642L75.6201 63.3387L74.7466 64.2132L73.8731 65.0877L72.9996 65.9622L72.1261 66.8367L71.2526 67.7112L70.3791 68.5857L69.5056 69.4602L68.9766 69.9898C69.0073 70.0144 69.0381 70.0329 69.0688 70.0575L69.7147 69.4109Z" fill="black"/>
</g>
<g opacity="0.55">
<path d="M68.3775 48.9103C67.6455 49.5015 66.9812 50.1666 66.3906 50.8994L67.0919 50.1974L67.9654 49.3229L68.3775 48.9103Z" fill="black"/>
</g>
<g opacity="0.55">
<path d="M66.6953 67.9027C66.7199 67.9335 66.7445 67.9581 66.7691 67.9889L67.0952 67.6625L67.9687 66.788L68.8422 65.9135L69.7157 65.039L70.5892 64.1645L71.4627 63.29L72.3362 62.4155L73.2097 61.5411L74.0832 60.6666L74.9567 59.7921L75.8302 58.9176L76.7037 58.0431L77.5772 57.1686L78.4507 56.2941L79.3242 55.4196L80.1977 54.5451L81.0712 53.6706L81.9447 52.7961L82.8182 51.9216L83.6917 51.0472L84.5652 50.1727L85.4387 49.2982L85.4695 49.2674C85.4387 49.2428 85.4141 49.2181 85.3834 49.1935L85.2296 49.3474L84.3561 50.2219L83.4703 51.1149L82.5968 51.9894L81.7233 52.8639L80.8498 53.7384L79.9763 54.6129L79.1028 55.4874L78.2293 56.3618L77.3557 57.2363L76.4822 58.1108L75.6087 58.9853L74.7352 59.8598L73.8617 60.7343L72.9882 61.6088L72.1147 62.4833L71.2412 63.3578L70.3677 64.2323L69.4942 65.1068L68.6207 65.9813L67.7472 66.8557L66.8737 67.7302L66.6953 67.9027Z" fill="black"/>
</g>
<g opacity="0.55">
<path d="M65.9297 66.9292C65.9543 66.96 65.9727 66.9908 65.9974 67.0216L66.2311 66.7876L67.1046 65.9131L67.9781 65.0386L68.8516 64.1641L69.7251 63.2896L70.5986 62.4151L71.4721 61.5406L72.3456 60.6662L73.2191 59.7917L74.0926 58.9172L74.9661 58.0427L75.8396 57.1682L76.7132 56.2937L77.5867 55.4192L78.4602 54.5447L79.3337 53.6702L80.2072 52.7957L81.0807 51.9212L81.9542 51.0467L82.8277 50.1723L83.7012 49.2978L84.5132 48.4849C84.4824 48.4602 84.4517 48.4417 84.4209 48.4171L84.3655 48.4725L83.492 49.347L82.6185 50.2215L81.7266 51.1145L80.8531 51.989L79.9796 52.8635L79.1061 53.738L78.2326 54.6125L77.3591 55.4869L76.4855 56.3614L75.612 57.2359L74.7385 58.1104L73.865 58.9849L72.9915 59.8594L72.118 60.7339L71.2445 61.6084L70.371 62.4829L69.4975 63.3574L68.624 64.2319L67.7505 65.1063L66.877 65.9808L66.0035 66.8553L65.9297 66.9292Z" fill="black"/>
</g>
<g opacity="0.55">
<path d="M64.9297 65.3036C64.9481 65.3405 64.9666 65.3775 64.9851 65.4083L65.348 65.0449L66.2215 64.1704L67.095 63.296L67.9685 62.4215L68.842 61.547L69.7155 60.6725L70.589 59.798L71.4625 58.9235L72.336 58.049L73.2095 57.1745L74.083 56.3L74.9565 55.4255L75.83 54.551L76.7035 53.6765L77.577 52.8021L78.4505 51.9276L79.3241 51.0531L80.1976 50.1786L81.0711 49.3041L81.9446 48.4296L82.8181 47.5551L82.8919 47.4812C82.855 47.4627 82.8181 47.4443 82.7873 47.4258L82.6151 47.5982L81.7416 48.4727L80.8681 49.3472L79.9946 50.2217L79.1026 51.1147L78.2291 51.9891L77.3556 52.8636L76.4821 53.7381L75.6086 54.6126L74.7351 55.4871L73.8616 56.3616L72.9881 57.2361L72.1146 58.1106L71.2411 58.9851L70.3676 59.8596L69.5064 60.7217L68.6329 61.5962L67.7594 62.4707L66.8858 63.3452L66.0123 64.2197L65.1388 65.0942L64.9297 65.3036Z" fill="black"/>
</g>
<g opacity="0.55">
<path d="M65.348 64.1706L66.2215 63.2962L67.0951 62.4217L67.9686 61.5472L68.8421 60.6727L69.7156 59.7982L70.5891 58.9237L71.4626 58.0492L72.3361 57.1747L73.2096 56.3002L74.0831 55.4257L74.9566 54.5512L75.8301 53.6768L76.7036 52.8023L77.5771 51.9278L78.4506 51.0533L79.3241 50.1788L80.1976 49.3043L81.0711 48.4298L81.9446 47.5553L82.3075 47.192C82.2706 47.1735 82.2337 47.1612 82.1968 47.1427L81.7355 47.6046L80.862 48.4791L79.9885 49.3536L79.1149 50.2281L78.2291 51.1149L77.3556 51.9894L76.4821 52.8638L75.6086 53.7383L74.7351 54.6128L73.8616 55.4873L72.9881 56.3618L72.1146 57.2363L71.2411 58.1108L70.3676 58.9853L69.5064 59.8475L68.6329 60.722L67.7594 61.5964L66.8859 62.4709L66.0124 63.3454L65.1389 64.2199L64.6406 64.7187C64.6591 64.7557 64.6714 64.7926 64.6898 64.8296L65.348 64.1706Z" fill="black"/>
</g>
<g opacity="0.55">
<path d="M66.2231 65.0448L67.0966 64.1703L67.9701 63.2958L68.8436 62.4213L69.7171 61.5468L70.5906 60.6723L71.4641 59.7978L72.3376 58.9233L73.2111 58.0488L74.0846 57.1743L74.9581 56.2998L75.8316 55.4253L76.7051 54.5509L77.5786 53.6764L78.4521 52.8019L79.3257 51.9274L80.1992 51.0529L81.0727 50.1784L81.9462 49.3039L82.8197 48.4294L83.4533 47.7951C83.4225 47.7766 83.3856 47.7582 83.3487 47.7335L82.6105 48.4725L81.737 49.347L80.8635 50.2215L79.9777 51.1145L79.1042 51.989L78.2307 52.8635L77.3572 53.738L76.4837 54.6124L75.6102 55.4869L74.7367 56.3614L73.8632 57.2359L72.9897 58.1104L72.1162 58.9849L71.2427 59.8594L70.3692 60.7339L69.4957 61.6084L68.6222 62.4829L67.7486 63.3574L66.8751 64.2318L66.0016 65.1063L65.2266 65.8823C65.245 65.9192 65.2635 65.95 65.2881 65.987L65.3434 65.9316L66.2231 65.0448Z" fill="black"/>
</g>
<g opacity="0.55">
<path d="M65.5703 66.4121C65.5888 66.4429 65.6134 66.4798 65.6318 66.5106L66.2224 65.9194L67.0959 65.0449L67.9694 64.1704L68.8429 63.2959L69.7164 62.4214L70.5899 61.547L71.4634 60.6725L72.3369 59.798L73.2104 58.9235L74.0839 58.049L74.9574 57.1745L75.8309 56.3L76.7044 55.4255L77.5779 54.551L78.4514 53.6765L79.3249 52.802L80.1984 51.9275L81.0719 51.0531L81.9454 50.1786L82.8189 49.3041L83.6924 48.4296L83.9877 48.134C83.9569 48.1155 83.92 48.0909 83.8893 48.0724L83.4833 48.4788L82.6098 49.3533L81.7363 50.2278L80.8505 51.1146L79.977 51.9891L79.1035 52.8636L78.23 53.7381L77.3565 54.6126L76.483 55.4871L75.6095 56.3616L74.736 57.2361L73.8624 58.1106L72.9889 58.9851L72.1154 59.8595L71.2419 60.734L70.3684 61.6085L69.4949 62.483L68.6214 63.3575L67.7479 64.232L66.8744 65.1065L66.0009 65.981L65.5703 66.4121Z" fill="black"/>
</g>
<g opacity="0.55">
<path d="M63.5123 57.9876C63.5062 58.043 63.5062 58.1046 63.5 58.16L63.6046 58.0553L64.4781 57.1808L65.3516 56.3063L66.2251 55.4318L67.0986 54.5574L67.9721 53.6829L68.8456 52.8084L69.7191 51.9339L70.5926 51.0594L71.4661 50.1849L72.3396 49.3104L73.2131 48.4359L74.0866 47.5614L74.9601 46.6869L75.6491 45.9972C75.5937 46.0034 75.5322 46.0033 75.4768 46.0095L74.7571 46.73L73.8836 47.6045L73.0101 48.479L72.1366 49.3535L71.2631 50.228L70.3773 51.1148L69.5038 51.9893L68.6303 52.8638L67.7568 53.7383L66.8833 54.6128L66.0098 55.4873L65.1363 56.3618L64.2628 57.2363L63.5123 57.9876Z" fill="black"/>
</g>
<g opacity="0.55">
<path d="M63.4688 59.7792C63.4688 59.8285 63.4688 59.8839 63.4749 59.9332L63.6041 59.8038L64.4776 58.9294L65.3511 58.0549L66.2246 57.1804L67.0981 56.3059L67.9716 55.4314L68.8451 54.5569L69.7186 53.6824L70.5921 52.8079L71.4656 51.9334L72.3391 51.0589L73.2126 50.1844L74.0861 49.3099L74.9596 48.4355L75.8331 47.561L76.7066 46.6865L77.4202 45.9721C77.371 45.9721 77.3156 45.9659 77.2664 45.9659L76.5036 46.7296L75.6301 47.6041L74.7566 48.4786L73.8831 49.3531L73.0096 50.2275L72.1238 51.1144L71.2503 51.9888L70.3768 52.8633L69.5095 53.7378L68.636 54.6123L67.7625 55.4868L66.8889 56.3613L66.0154 57.2358L65.1419 58.1103L64.2684 58.9848L63.4688 59.7792Z" fill="black"/>
</g>
<g opacity="0.55">
<path d="M63.6328 61.3681C63.639 61.4112 63.6513 61.4605 63.6574 61.5036L64.4817 60.6784L65.3552 59.8039L66.2287 58.9294L67.1022 58.0549L67.9757 57.1804L68.8492 56.3059L69.7227 55.4314L70.5962 54.5569L71.4697 53.6824L72.3432 52.808L73.2167 51.9335L74.0903 51.059L74.9638 50.1845L75.8373 49.31L76.7108 48.4355L77.5843 47.561L78.4578 46.6865L78.9929 46.1507C78.9499 46.1446 78.9007 46.1323 78.8576 46.1261L78.2548 46.7296L77.3813 47.6041L76.5078 48.4786L75.6343 49.3531L74.7608 50.2276L73.8688 51.1144L72.9953 51.9889L72.1218 52.8634L71.2483 53.7379L70.3748 54.6124L69.5074 55.4807L68.6339 56.3552L67.7604 57.2297L66.8869 58.1042L66.0134 58.9787L65.1399 59.8532L64.2664 60.7276L63.6328 61.3681Z" fill="black"/>
</g>
<g opacity="0.55">
<path d="M64.1915 63.5854L64.4806 63.296L65.3541 62.4215L66.2276 61.547L67.1011 60.6725L67.9746 59.798L68.8481 58.9235L69.7216 58.049L70.5951 57.1745L71.4686 56.3L72.3421 55.4255L73.2157 54.5511L74.0892 53.6766L74.9627 52.8021L75.8362 51.9276L76.7097 51.0531L77.5832 50.1786L78.4567 49.3041L79.3302 48.4296L80.2037 47.5551L81.071 46.6868C81.0341 46.6745 80.9911 46.6622 80.948 46.6437L80.868 46.7237L79.9945 47.5982L79.121 48.4727L78.2475 49.3472L77.374 50.2217L76.4882 51.1147L75.6147 51.9892L74.7412 52.8637L73.8677 53.7381L72.9942 54.6126L72.1207 55.4871L71.2472 56.3616L70.3737 57.2361L69.5063 58.1044L68.6328 58.9789L67.7593 59.8534L66.8858 60.7279L66.0123 61.6024L65.1388 62.4769L64.2653 63.3514L64.1484 63.4684C64.1669 63.5054 64.1792 63.5423 64.1915 63.5854Z" fill="black"/>
</g>
<g opacity="0.55">
<path d="M64.4788 62.4216L65.3523 61.5471L66.2258 60.6726L67.0993 59.7981L67.9728 58.9236L68.8463 58.0491L69.7198 57.1746L70.5934 56.3001L71.4669 55.4256L72.3404 54.5512L73.2139 53.6767L74.0874 52.8022L74.9609 51.9277L75.8344 51.0532L76.7079 50.1787L77.5814 49.3042L78.4549 48.4297L79.3284 47.5552L80.2019 46.6807L80.4049 46.4775C80.3618 46.4652 80.3188 46.4529 80.2819 46.4406L79.9927 46.73L79.1192 47.6045L78.2457 48.479L77.3722 49.3535L76.4987 50.228L75.6129 51.1148L74.7394 51.9893L73.8659 52.8637L72.9924 53.7382L72.1189 54.6127L71.2454 55.4872L70.3719 56.3617L69.5045 57.2301L68.631 58.1045L67.7575 58.979L66.884 59.8535L66.0105 60.728L65.137 61.6025L64.2635 62.477L63.9375 62.8034C63.9498 62.8465 63.9621 62.8896 63.9744 62.9266L64.4788 62.4216Z" fill="black"/>
</g>
<path d="M94.2266 0.307617H165.343" stroke="black" stroke-miterlimit="10" stroke-linecap="round"/>
</g>
<defs>
<clipPath id="clip0_8_2008">
<rect width="259" height="221" fill="white"/>
</clipPath>
</defs>
</svg>
