<svg width="430" height="419" viewBox="0 0 430 419" fill="none" xmlns="http://www.w3.org/2000/svg">
<path d="M54.6292 275.055L54.7772 266.06H56.48L57.7571 272.297L59.0897 266.06H60.737L60.9035 275.055H59.682L59.5432 268.808L58.2476 275.055H57.3221L56.0173 268.79L55.897 275.055H54.6292Z" fill="#263238"/>
<path d="M61.7776 275.055L63.5822 266.06H65.3312L67.1821 275.055H65.6551L65.3035 272.982H63.7395L63.3693 275.055H61.7776ZM63.8598 271.936H65.0814L64.4706 268.16L63.8598 271.936Z" fill="#263238"/>
<path d="M67.9846 275.054V266.059H70.1409C70.6618 266.046 71.1812 266.121 71.6771 266.281C72.0639 266.41 72.392 266.672 72.6025 267.021C72.847 267.452 72.9626 267.943 72.9357 268.437C72.9378 268.767 72.9037 269.096 72.8339 269.418C72.779 269.688 72.6618 269.942 72.4915 270.159C72.3189 270.372 72.0919 270.535 71.8344 270.631L73.093 275.054H71.4457L70.363 270.936H69.6041V275.054H67.9846ZM69.6319 269.909H70.1409C70.401 269.92 70.6604 269.872 70.8997 269.77C71.0878 269.68 71.2338 269.521 71.3069 269.326C71.3967 269.074 71.4376 268.807 71.4272 268.539C71.4518 268.182 71.3644 267.826 71.1774 267.521C71.0586 267.399 70.9135 267.305 70.7532 267.248C70.5928 267.19 70.4214 267.17 70.2519 267.188H69.6504L69.6319 269.909Z" fill="#263238"/>
<path d="M74.1995 275.055V266.06H75.8375V270.02L77.6143 266.06H79.1782L77.457 270.085L79.3541 275.055H77.7253L76.2076 270.964L75.8375 271.649V275.055H74.1995Z" fill="#263238"/>
<path d="M80.0081 275.055V266.06H83.7838V267.216H81.6461V269.835H83.3211V270.983H81.6461V273.953H83.8023V275.082L80.0081 275.055Z" fill="#263238"/>
<path d="M85.6558 275.055V267.272H84.2307V266.06H88.7098V267.272H87.3031V275.055H85.6558Z" fill="#263238"/>
<path d="M91.7943 275.184C91.3231 275.199 90.8564 275.087 90.4432 274.86C90.0742 274.651 89.7846 274.326 89.6196 273.935C89.4212 273.459 89.3145 272.951 89.3049 272.436L90.7208 272.158C90.7281 272.47 90.7684 272.78 90.8411 273.083C90.8947 273.312 91.0063 273.522 91.165 273.694C91.2402 273.769 91.33 273.827 91.4287 273.865C91.5275 273.903 91.633 273.921 91.7388 273.916C91.8455 273.927 91.9532 273.91 92.0519 273.868C92.1505 273.826 92.237 273.76 92.3033 273.676C92.4199 273.497 92.4781 273.287 92.4699 273.074C92.4881 272.73 92.3939 272.389 92.2015 272.102C92.0002 271.824 91.7638 271.572 91.4982 271.353L90.3599 270.353C90.056 270.091 89.7993 269.778 89.6011 269.428C89.4027 269.042 89.3041 268.613 89.3142 268.179C89.2959 267.875 89.3426 267.571 89.4511 267.287C89.5596 267.003 89.7275 266.745 89.9435 266.531C90.4109 266.125 91.0191 265.919 91.637 265.958C91.9986 265.945 92.3586 266.012 92.692 266.152C92.9611 266.267 93.1944 266.453 93.3676 266.689C93.5366 266.927 93.662 267.193 93.7377 267.475C93.8209 267.778 93.8735 268.088 93.895 268.401L92.4977 268.641C92.4857 268.386 92.4516 268.132 92.3959 267.883C92.3604 267.691 92.2741 267.512 92.146 267.364C92.0731 267.3 91.9882 267.25 91.8961 267.218C91.804 267.186 91.7065 267.173 91.6092 267.179C91.5037 267.172 91.3978 267.188 91.2998 267.229C91.2019 267.269 91.1146 267.331 91.0447 267.411C90.9114 267.582 90.8426 267.795 90.8504 268.012C90.842 268.274 90.906 268.534 91.0355 268.762C91.191 268.985 91.3745 269.187 91.5815 269.363L92.7013 270.353C93.0661 270.666 93.3785 271.034 93.6267 271.445C93.8996 271.904 94.0376 272.43 94.0246 272.963C94.0284 273.361 93.9296 273.753 93.7377 274.101C93.5548 274.432 93.2822 274.705 92.9511 274.888C92.5961 275.081 92.1985 275.183 91.7943 275.184Z" fill="#263238"/>
<path d="M102.337 212.145H66.0237V256.139H102.337V212.145Z" fill="#263238" stroke="#263238" stroke-linecap="round" stroke-linejoin="round"/>
<path d="M87.814 212.145H51.5002V256.139H87.814V212.145Z" fill="white" stroke="#263238" stroke-linecap="round" stroke-linejoin="round"/>
<path d="M102.337 245.645H66.0237V256.139H102.337V245.645Z" fill="white" stroke="#263238" stroke-linecap="round" stroke-linejoin="round"/>
<path d="M87.814 245.645H51.5002V256.139H87.814V245.645Z" fill="white" stroke="#263238" stroke-linecap="round" stroke-linejoin="round"/>
<path d="M74.8829 237.621H64.4534V256.148H74.8829V237.621Z" fill="white" stroke="#263238" stroke-linecap="round" stroke-linejoin="round"/>
<path d="M52.1164 230.718H44.2502L49.9416 212.145H57.8077L52.1164 230.718Z" fill="white" stroke="#263238" stroke-linecap="round" stroke-linejoin="round"/>
<path d="M44.2502 229.912H52.1164V233.503C52.1164 234.514 51.7147 235.484 50.9996 236.199C50.2846 236.914 49.3148 237.316 48.3036 237.316H48.0723C47.0611 237.316 46.0913 236.914 45.3762 236.199C44.6612 235.484 44.2595 234.514 44.2595 233.503V229.912H44.2502Z" fill="white" stroke="#263238" stroke-linecap="round" stroke-linejoin="round"/>
<path d="M59.7336 230.718H51.8674L57.5588 212.145H65.4249L59.7336 230.718Z" fill="#263238" stroke="#263238" stroke-linecap="round" stroke-linejoin="round"/>
<path d="M51.865 229.912H59.7311V233.503C59.7311 234.514 59.3294 235.484 58.6144 236.199C57.8993 236.914 56.9296 237.316 55.9183 237.316H55.6685C54.6573 237.316 53.6875 236.914 52.9724 236.199C52.2574 235.484 51.8557 234.514 51.8557 233.503V229.912H51.865Z" fill="#263238" stroke="#263238" stroke-linecap="round" stroke-linejoin="round"/>
<path d="M67.3444 230.718H59.469L65.1604 212.145H73.0358L67.3444 230.718Z" fill="white" stroke="#263238" stroke-linecap="round" stroke-linejoin="round"/>
<path d="M59.4744 229.912H67.3405V233.503C67.3405 234.003 67.2418 234.499 67.0502 234.962C66.8586 235.424 66.5778 235.845 66.2237 236.199C65.8697 236.553 65.4494 236.834 64.9868 237.025C64.5242 237.217 64.0284 237.316 63.5277 237.316H63.2778C62.2666 237.316 61.2969 236.914 60.5818 236.199C59.8668 235.484 59.4651 234.514 59.4651 233.503V229.912H59.4744Z" fill="white" stroke="#263238" stroke-linecap="round" stroke-linejoin="round"/>
<path d="M74.9562 230.718H67.0901L72.7815 212.145H80.6476L74.9562 230.718Z" fill="#263238" stroke="#263238" stroke-linecap="round" stroke-linejoin="round"/>
<path d="M67.0876 229.912H74.9537V233.503C74.9537 234.514 74.5521 235.484 73.837 236.199C73.122 236.914 72.1522 237.316 71.141 237.316H70.8911C69.8799 237.316 68.9101 236.914 68.1951 236.199C67.4801 235.484 67.0784 234.514 67.0784 233.503V229.912H67.0876Z" fill="#263238" stroke="#263238" stroke-linecap="round" stroke-linejoin="round"/>
<path d="M82.5734 230.718H74.7073L80.3986 212.145H88.2648L82.5734 230.718Z" fill="white" stroke="#263238" stroke-linecap="round" stroke-linejoin="round"/>
<path d="M74.7048 229.912H82.5709V233.503C82.5709 234.514 82.1692 235.484 81.4542 236.199C80.7392 236.914 79.7694 237.316 78.7582 237.316H78.5083C77.4971 237.316 76.5273 236.914 75.8123 236.199C75.0973 235.484 74.6956 234.514 74.6956 233.503V229.912H74.7048Z" fill="white" stroke="#263238" stroke-linecap="round" stroke-linejoin="round"/>
<path d="M41.3713 215.216L62.36 196.671L80.2115 203.667L101.552 188.971" stroke="black" stroke-linecap="round" stroke-linejoin="round"/>
<path d="M101.554 190.72C102.52 190.72 103.303 189.937 103.303 188.971C103.303 188.005 102.52 187.222 101.554 187.222C100.588 187.222 99.8049 188.005 99.8049 188.971C99.8049 189.937 100.588 190.72 101.554 190.72Z" fill="#263238" stroke="#263238" stroke-linecap="round" stroke-linejoin="round"/>
<path d="M80.5501 205.416C81.5161 205.416 82.2991 204.633 82.2991 203.667C82.2991 202.701 81.5161 201.918 80.5501 201.918C79.5841 201.918 78.801 202.701 78.801 203.667C78.801 204.633 79.5841 205.416 80.5501 205.416Z" fill="#263238" stroke="#263238" stroke-linecap="round" stroke-linejoin="round"/>
<path d="M62.3587 198.42C63.3247 198.42 64.1077 197.637 64.1077 196.671C64.1077 195.705 63.3247 194.922 62.3587 194.922C61.3927 194.922 60.6096 195.705 60.6096 196.671C60.6096 197.637 61.3927 198.42 62.3587 198.42Z" fill="#263238" stroke="#263238" stroke-linecap="round" stroke-linejoin="round"/>
<path d="M41.3707 216.965C42.3366 216.965 43.1197 216.182 43.1197 215.216C43.1197 214.25 42.3366 213.467 41.3707 213.467C40.4047 213.467 39.6216 214.25 39.6216 215.216C39.6216 216.182 40.4047 216.965 41.3707 216.965Z" fill="#263238" stroke="#263238" stroke-linecap="round" stroke-linejoin="round"/>
<path d="M39.7154 168.825C39.1699 168.855 38.6281 168.719 38.1606 168.437C37.7923 168.18 37.5191 167.809 37.3833 167.382C37.2272 166.878 37.1522 166.354 37.1612 165.827V162.625C37.1504 162.083 37.2254 161.543 37.3833 161.024C37.5115 160.595 37.7867 160.225 38.1606 159.978C38.6335 159.71 39.1726 159.582 39.7154 159.608C40.223 159.583 40.728 159.695 41.1775 159.932C41.5301 160.141 41.796 160.469 41.9271 160.857C42.0825 161.297 42.1577 161.761 42.1492 162.227V162.986H40.5668V162.208C40.5818 161.977 40.5818 161.745 40.5668 161.514C40.5523 161.332 40.4774 161.159 40.3539 161.024C40.2726 160.955 40.1783 160.903 40.0765 160.871C39.9748 160.839 39.8677 160.828 39.7616 160.839C39.5375 160.82 39.3149 160.89 39.1416 161.033C39.0054 161.175 38.9178 161.356 38.8917 161.551C38.8531 161.796 38.8345 162.044 38.8362 162.292V166.188C38.8304 166.459 38.8583 166.729 38.9195 166.993C38.9562 167.177 39.054 167.343 39.1971 167.465C39.3602 167.584 39.5598 167.643 39.7616 167.631C39.867 167.643 39.9737 167.631 40.0743 167.598C40.1748 167.564 40.267 167.509 40.3446 167.437C40.4645 167.289 40.5384 167.109 40.5575 166.919C40.5932 166.68 40.6086 166.438 40.6038 166.197V165.383H42.1863V166.104C42.1935 166.585 42.1216 167.063 41.9734 167.52C41.8347 167.902 41.5746 168.227 41.233 168.446C40.7763 168.721 40.2478 168.853 39.7154 168.825Z" fill="#263238"/>
<path d="M45.7591 168.825C45.217 168.856 44.6775 168.73 44.2044 168.464C43.8306 168.22 43.5577 167.848 43.4363 167.418C43.2859 166.892 43.2142 166.346 43.2235 165.799V159.709H44.8244V165.984C44.8232 166.25 44.8418 166.516 44.8799 166.78C44.9044 167.002 44.9947 167.211 45.1391 167.381C45.2209 167.46 45.3185 167.52 45.4254 167.559C45.5322 167.597 45.6459 167.612 45.7591 167.603C45.8724 167.614 45.9867 167.6 46.0938 167.561C46.2009 167.523 46.2984 167.461 46.3792 167.381C46.5199 167.209 46.6097 167 46.6383 166.78C46.6797 166.516 46.7014 166.25 46.703 165.984V159.709H48.304V165.799C48.3181 166.346 48.2462 166.893 48.0912 167.418C47.9721 167.847 47.7027 168.218 47.3324 168.464C46.8553 168.737 46.3077 168.863 45.7591 168.825Z" fill="#263238"/>
<path d="M51.8371 168.825C51.3666 168.843 50.9 168.735 50.4859 168.511C50.1207 168.297 49.8325 167.973 49.6623 167.585C49.4639 167.11 49.3572 166.601 49.3477 166.086L50.7636 165.808C50.769 166.121 50.8125 166.432 50.8931 166.734C50.942 166.962 51.0506 167.172 51.2078 167.344C51.2833 167.419 51.3731 167.477 51.4717 167.515C51.5704 167.553 51.6758 167.571 51.7815 167.567C51.8883 167.577 51.9959 167.561 52.0946 167.519C52.1932 167.476 52.2797 167.41 52.346 167.326C52.4639 167.145 52.5221 166.931 52.5126 166.715C52.5207 166.388 52.4304 166.065 52.2535 165.79C52.0439 165.512 51.805 165.258 51.5409 165.031L50.4026 164.031C50.0969 163.77 49.84 163.457 49.6438 163.106C49.4463 162.72 49.3508 162.29 49.3662 161.857C49.3462 161.555 49.3912 161.253 49.4982 160.97C49.6052 160.688 49.7716 160.431 49.9862 160.219C50.4537 159.812 51.0609 159.603 51.6797 159.636C52.0413 159.623 52.4013 159.69 52.7347 159.83C53.0045 159.949 53.2377 160.137 53.4103 160.376C53.5792 160.611 53.7046 160.874 53.7805 161.153C53.8665 161.455 53.9192 161.766 53.9378 162.079L52.5404 162.329C52.5272 162.074 52.4963 161.82 52.4478 161.57C52.4097 161.377 52.3202 161.198 52.1887 161.052C52.1178 160.983 52.0334 160.931 51.9409 160.897C51.8485 160.864 51.75 160.85 51.652 160.857C51.5456 160.851 51.4392 160.869 51.3412 160.911C51.2432 160.953 51.1564 161.017 51.0875 161.098C50.9561 161.267 50.8874 161.476 50.8931 161.69C50.8817 161.954 50.9494 162.215 51.0875 162.44C51.2363 162.668 51.417 162.874 51.6242 163.05L52.7532 164.041C53.1185 164.353 53.431 164.721 53.6786 165.133C53.9545 165.59 54.0926 166.117 54.0766 166.65C54.0852 167.049 53.9861 167.442 53.7897 167.789C53.6041 168.118 53.3321 168.39 53.0031 168.575C52.6415 168.755 52.2405 168.841 51.8371 168.825Z" fill="#263238"/>
<path d="M55.9564 168.705V160.922H54.5312V159.709H59.0103V160.922H57.6036V168.705H55.9564Z" fill="#263238"/>
<path d="M62.2298 168.825C61.7007 168.855 61.1741 168.733 60.7121 168.474C60.334 168.235 60.0472 167.877 59.8977 167.456C59.7285 166.945 59.6472 166.41 59.6571 165.873V162.486C59.6469 161.955 59.7283 161.426 59.8977 160.922C60.0425 160.505 60.3313 160.154 60.7121 159.932C61.1764 159.678 61.7013 159.557 62.2298 159.58C62.7674 159.554 63.302 159.675 63.7753 159.932C64.1489 160.16 64.4331 160.51 64.5804 160.922C64.7583 161.424 64.8429 161.954 64.8302 162.486V165.855C64.8415 166.387 64.7569 166.916 64.5804 167.419C64.4315 167.837 64.1484 168.195 63.7753 168.437C63.3075 168.71 62.7714 168.845 62.2298 168.825ZM62.2298 167.622C62.4334 167.648 62.6391 167.593 62.8021 167.468C62.9651 167.343 63.0721 167.159 63.0997 166.956C63.1459 166.731 63.1676 166.501 63.1645 166.271V162.134C63.1686 161.907 63.1469 161.681 63.0997 161.459C63.0673 161.277 62.9763 161.112 62.8406 160.987C62.6641 160.858 62.4478 160.796 62.2298 160.811C62.0202 160.794 61.812 160.857 61.6468 160.987C61.5054 161.108 61.4105 161.275 61.3784 161.459C61.3312 161.681 61.3095 161.907 61.3136 162.134V166.271C61.3122 166.5 61.3308 166.73 61.3691 166.956C61.4007 167.142 61.4955 167.312 61.6375 167.437C61.8051 167.57 62.0162 167.636 62.2298 167.622Z" fill="#263238"/>
<path d="M66.0273 168.705L66.1754 159.709H67.8782L69.1553 165.938L70.5157 159.709H72.1629L72.3295 168.705H71.108L70.9691 162.458L69.692 168.705H68.6648L67.3692 162.43L67.2489 168.705H66.0273Z" fill="#263238"/>
<path d="M73.5586 168.705V159.709H77.3343V160.866H75.2059V163.457H76.8809V164.596H75.2059V167.576H77.3621V168.705H73.5586Z" fill="#263238"/>
<path d="M78.3164 168.705V159.709H80.4727C80.9936 159.696 81.513 159.772 82.0089 159.932C82.3931 160.06 82.7204 160.319 82.9343 160.663C83.1776 161.097 83.2931 161.591 83.2674 162.088C83.2691 162.418 83.2349 162.746 83.1657 163.069C83.1067 163.335 82.9898 163.584 82.8232 163.8C82.6506 164.013 82.4237 164.176 82.1662 164.272L83.4155 168.705H81.8053L80.6948 164.586H79.9452V168.705H78.3164ZM79.9637 163.55H80.4727C80.7328 163.561 80.9921 163.514 81.2315 163.411C81.4179 163.319 81.5632 163.161 81.6387 162.967C81.7278 162.718 81.7686 162.454 81.759 162.19C81.7848 161.832 81.6974 161.476 81.5091 161.172C81.3909 161.048 81.2461 160.953 81.0858 160.894C80.9255 160.835 80.7538 160.813 80.5837 160.829H79.9914L79.9637 163.55Z" fill="#263238"/>
<path d="M86.7952 168.825C86.3218 168.844 85.852 168.735 85.4348 168.51C85.0696 168.296 84.7814 167.973 84.6112 167.585C84.4118 167.11 84.308 166.601 84.3058 166.086L85.7125 165.808C85.7224 166.12 85.7659 166.431 85.842 166.734C85.894 166.962 86.0057 167.173 86.1659 167.344C86.2404 167.42 86.3301 167.479 86.429 167.517C86.5279 167.555 86.6338 167.572 86.7397 167.566C86.8463 167.575 86.9534 167.558 87.0518 167.516C87.1501 167.474 87.2368 167.409 87.3042 167.326C87.4221 167.145 87.4803 166.931 87.4708 166.715C87.4761 166.387 87.3826 166.064 87.2024 165.79C86.9955 165.51 86.7563 165.255 86.4898 165.031L85.3238 163.994C85.013 163.738 84.7552 163.424 84.5649 163.069C84.3598 162.685 84.2608 162.254 84.278 161.82C84.2581 161.518 84.3031 161.216 84.4101 160.933C84.5171 160.651 84.6835 160.394 84.8981 160.182C85.3679 159.773 85.979 159.563 86.6009 159.599C86.9623 159.588 87.3219 159.654 87.6559 159.793C87.9215 159.914 88.1511 160.102 88.3222 160.339C88.494 160.573 88.6225 160.837 88.7016 161.116C88.7801 161.419 88.8297 161.729 88.8497 162.042L87.4523 162.292C87.4391 162.037 87.4082 161.783 87.3597 161.533C87.3311 161.337 87.2402 161.155 87.1006 161.014C87.03 160.946 86.9457 160.893 86.8531 160.86C86.7606 160.826 86.662 160.813 86.5639 160.82C86.4589 160.814 86.3539 160.832 86.2573 160.874C86.1608 160.916 86.0756 160.98 86.0086 161.061C85.8773 161.23 85.8086 161.439 85.8143 161.653C85.8001 161.916 85.8645 162.177 85.9994 162.403C86.1517 162.631 86.3355 162.837 86.5454 163.013L87.6651 164.004C88.0275 164.318 88.3396 164.686 88.5905 165.096C88.8607 165.555 88.9955 166.081 88.9792 166.613C88.9863 167.01 88.8907 167.402 88.7016 167.752C88.5127 168.081 88.2375 168.353 87.9057 168.538C87.5642 168.722 87.1831 168.821 86.7952 168.825Z" fill="#263238"/>
<path d="M71.9225 104.536H50.0547V125.849H71.9225V104.536Z" fill="#263238" stroke="#263238" stroke-linecap="round" stroke-linejoin="round"/>
<path d="M84.3928 150.03C84.271 143.914 81.7562 138.09 77.3881 133.808C73.0201 129.526 67.1472 127.128 61.0304 127.128C54.9136 127.128 49.0407 129.526 44.6726 133.808C40.3046 138.09 37.7897 143.914 37.668 150.03H84.3928Z" fill="white" stroke="#263238" stroke-linecap="round" stroke-linejoin="round"/>
<path d="M68.5712 128.004L61.5657 130.262L53.8477 128.004V118.593H68.5712V128.004Z" fill="white" stroke="#263238" stroke-linecap="round" stroke-linejoin="round"/>
<path d="M72.3625 106.775C72.3625 107.145 72.3625 107.488 72.3625 107.839C72.0849 119.509 67.1431 124.247 61.0353 124.247C54.9275 124.247 49.9302 120.379 49.7266 107.802C49.7266 107.478 49.7266 107.127 49.7266 106.775C49.7266 99.5846 54.8071 93.7637 61.0445 93.7637C67.2819 93.7637 72.3625 99.5568 72.3625 106.775Z" fill="white" stroke="#263238" stroke-linecap="round" stroke-linejoin="round"/>
<path d="M72.3625 106.775C72.3625 107.145 72.3625 107.488 72.3625 107.839C69.5965 107.051 67.125 105.463 65.258 103.275C63.391 101.087 62.2118 98.3962 61.8682 95.5405C61.8682 95.5405 57.7223 105.905 49.7266 107.802C49.7266 107.478 49.7266 107.127 49.7266 106.775C49.7266 99.5846 54.8071 93.7637 61.0445 93.7637C67.2819 93.7637 72.3625 99.5568 72.3625 106.775Z" fill="#263238" stroke="#263238" stroke-linecap="round" stroke-linejoin="round"/>
<path d="M117.766 84.8332V75.838H119.885C120.474 75.8077 121.062 75.9089 121.606 76.1341C122.003 76.3238 122.316 76.6533 122.485 77.0596C122.676 77.5614 122.764 78.0963 122.745 78.6328V81.9181C122.763 82.4725 122.675 83.0253 122.485 83.5468C122.319 83.9519 122.01 84.2815 121.616 84.4722C121.097 84.7117 120.529 84.8228 119.959 84.7961L117.766 84.8332ZM119.413 83.6856H119.913C120.199 83.7122 120.487 83.6404 120.727 83.482C120.893 83.3302 120.999 83.1229 121.023 82.899C121.063 82.5922 121.082 82.283 121.079 81.9736V78.531C121.089 78.2203 121.061 77.9094 120.995 77.6056C120.959 77.4071 120.846 77.2309 120.681 77.1151C120.433 76.9972 120.159 76.9461 119.885 76.967H119.413V83.6856Z" fill="#263238"/>
<path d="M124.008 84.8328V75.8376H125.627V84.8328H124.008Z" fill="#263238"/>
<path d="M129.279 84.9533C128.806 84.966 128.337 84.8577 127.918 84.6387C127.554 84.4232 127.266 84.0998 127.095 83.7132C126.895 83.2385 126.791 82.729 126.789 82.2141L128.196 81.9364C128.206 82.2487 128.249 82.5589 128.325 82.8619C128.377 83.0932 128.489 83.307 128.649 83.4819C128.724 83.5532 128.813 83.6088 128.91 83.6453C129.007 83.6819 129.11 83.6987 129.214 83.6947C129.322 83.7052 129.431 83.6886 129.531 83.6467C129.631 83.6047 129.719 83.5385 129.788 83.4541C129.904 83.2758 129.962 83.0655 129.954 82.8526C129.957 82.5245 129.864 82.2027 129.686 81.9272C129.481 81.6482 129.241 81.3963 128.973 81.1776L127.863 80.1226C127.556 79.8623 127.299 79.5488 127.104 79.1972C126.901 78.8128 126.802 78.3821 126.817 77.9478C126.797 77.645 126.843 77.3415 126.95 77.0574C127.056 76.7734 127.223 76.5154 127.437 76.3006C127.911 75.8991 128.52 75.6939 129.14 75.7268C129.501 75.7162 129.861 75.7824 130.195 75.9212C130.46 76.039 130.689 76.224 130.861 76.4579C131.034 76.694 131.159 76.961 131.231 77.2445C131.318 77.5461 131.371 77.8566 131.389 78.1699L129.991 78.4106C129.977 78.1589 129.946 77.9084 129.899 77.661C129.866 77.4635 129.776 77.28 129.64 77.1335C129.567 77.0679 129.482 77.0177 129.39 76.9859C129.298 76.9541 129.2 76.9413 129.103 76.9484C128.996 76.9411 128.89 76.9591 128.792 77.0009C128.693 77.0427 128.607 77.1072 128.538 77.189C128.407 77.358 128.338 77.5673 128.344 77.7813C128.332 78.0449 128.4 78.306 128.538 78.5309C128.688 78.7582 128.872 78.9611 129.084 79.1324L130.204 80.1226C130.564 80.4394 130.876 80.8073 131.129 81.2146C131.4 81.6737 131.534 82.1999 131.518 82.7323C131.525 83.1322 131.43 83.5273 131.24 83.8798C131.054 84.2087 130.778 84.4782 130.445 84.6572C130.089 84.8574 129.687 84.9596 129.279 84.9533Z" fill="#263238"/>
<path d="M133.415 84.8328V77.0407H131.981V75.8376H136.469V77.0407H135.053V84.8328H133.415Z" fill="#263238"/>
<path d="M137.274 84.8328V75.8377H139.421C139.944 75.8224 140.466 75.8944 140.966 76.0505C141.35 76.1848 141.676 76.446 141.891 76.7909C142.127 77.2243 142.239 77.7141 142.215 78.2068C142.218 78.5365 142.184 78.8656 142.114 79.1877C142.059 79.4561 141.945 79.709 141.78 79.9281C141.604 80.142 141.374 80.3049 141.114 80.4001L142.373 84.8328H140.725L139.643 80.7054H138.884V84.8328H137.274ZM138.912 79.6782H139.421C139.681 79.6903 139.94 79.6428 140.179 79.5394C140.274 79.4966 140.358 79.4352 140.428 79.3589C140.498 79.2826 140.552 79.1929 140.587 79.0952C140.676 78.8431 140.717 78.5761 140.707 78.3086C140.73 77.9529 140.646 77.5985 140.466 77.2906C140.346 77.1705 140.201 77.0784 140.041 77.0208C139.881 76.9632 139.71 76.9416 139.541 76.9575H138.939L138.912 79.6782Z" fill="#263238"/>
<path d="M143.52 84.8328V75.8376H145.139V84.8328H143.52Z" fill="#263238"/>
<path d="M146.531 84.833V75.8379H148.743C149.107 75.8343 149.47 75.8716 149.826 75.9489C150.127 76.011 150.411 76.1373 150.659 76.3191C150.898 76.5002 151.084 76.7434 151.196 77.0224C151.337 77.3783 151.403 77.7595 151.39 78.1422C151.395 78.4577 151.341 78.7715 151.233 79.0676C151.148 79.3108 150.998 79.5256 150.798 79.6877C150.584 79.8442 150.337 79.9488 150.076 79.993C150.412 80.0295 150.732 80.1575 151.001 80.3632C151.236 80.5597 151.415 80.8152 151.519 81.1036C151.642 81.4543 151.702 81.824 151.695 82.1956C151.703 82.5816 151.646 82.9661 151.529 83.3338C151.438 83.6438 151.273 83.9267 151.047 84.1575C150.83 84.3863 150.56 84.5579 150.261 84.6572C149.906 84.7743 149.533 84.8306 149.16 84.8238L146.531 84.833ZM148.179 79.5118H148.734C148.992 79.5272 149.25 79.4762 149.483 79.3638C149.573 79.3185 149.653 79.2559 149.718 79.1796C149.783 79.1034 149.832 79.015 149.863 78.9195C149.936 78.6765 149.97 78.4236 149.965 78.17C149.978 77.9137 149.923 77.6585 149.807 77.4296C149.696 77.2511 149.52 77.1219 149.317 77.0687C149.05 77.0035 148.777 76.9724 148.503 76.9762H148.225L148.179 79.5118ZM148.179 83.6762H148.799C148.983 83.7003 149.171 83.6802 149.347 83.6174C149.522 83.5547 149.68 83.4511 149.807 83.3153C150.011 82.9789 150.104 82.5876 150.076 82.1956C150.084 81.8972 150.04 81.5996 149.946 81.3164C149.874 81.1015 149.726 80.9204 149.53 80.8074C149.286 80.687 149.015 80.6298 148.743 80.6408H148.225L148.179 83.6762Z" fill="#263238"/>
<path d="M155.181 84.9531C154.638 84.9848 154.097 84.856 153.627 84.5829C153.253 84.3385 152.98 83.967 152.858 83.5372C152.707 83.011 152.635 82.4651 152.646 81.9177V75.8376H154.247V82.112C154.245 82.3753 154.264 82.6382 154.302 82.8987C154.329 83.1199 154.419 83.3288 154.561 83.5002C154.732 83.6563 154.955 83.7428 155.186 83.7428C155.417 83.7428 155.64 83.6563 155.811 83.5002C155.95 83.3277 156.036 83.119 156.06 82.8987C156.106 82.639 156.128 82.3757 156.125 82.112V75.8376H157.717V81.9177C157.727 82.4651 157.655 83.011 157.504 83.5372C157.385 83.9656 157.116 84.3368 156.745 84.5829C156.272 84.8578 155.728 84.9866 155.181 84.9531Z" fill="#263238"/>
<path d="M159.903 84.833V77.0409H158.469V75.8379H162.957V77.0409H161.55V84.833H159.903Z" fill="#263238"/>
<path d="M163.824 84.8328V75.8376H165.444V84.8328H163.824Z" fill="#263238"/>
<path d="M169.273 84.9534C168.74 84.9798 168.211 84.8547 167.746 84.5925C167.368 84.356 167.084 83.9965 166.941 83.5745C166.774 83.0581 166.702 82.5157 166.728 81.9735V78.605C166.715 78.0728 166.8 77.5427 166.978 77.041C167.127 76.6297 167.411 76.2808 167.783 76.0508C168.262 75.8255 168.785 75.7087 169.315 75.7087C169.844 75.7087 170.367 75.8255 170.846 76.0508C171.219 76.283 171.505 76.6308 171.661 77.041C171.839 77.5427 171.923 78.0728 171.911 78.605V81.9735C171.922 82.5027 171.838 83.0295 171.661 83.5282C171.509 83.9504 171.223 84.3112 170.846 84.5555C170.373 84.8418 169.825 84.9804 169.273 84.9534ZM169.273 83.7411C169.374 83.7554 169.476 83.7493 169.574 83.7233C169.672 83.6973 169.764 83.6519 169.844 83.5898C169.924 83.5277 169.991 83.4501 170.041 83.3616C170.091 83.2732 170.122 83.1756 170.134 83.0748C170.183 82.853 170.208 82.6265 170.208 82.3992V78.2718C170.209 78.0446 170.184 77.8179 170.134 77.5963C170.106 77.4134 170.014 77.2462 169.875 77.1243C169.697 77.0095 169.489 76.9485 169.278 76.9485C169.066 76.9485 168.859 77.0095 168.681 77.1243C168.542 77.2481 168.448 77.4139 168.412 77.5963C168.37 77.819 168.348 78.0451 168.348 78.2718V82.4177C168.344 82.6446 168.366 82.8712 168.412 83.0933C168.424 83.1941 168.455 83.2917 168.505 83.3801C168.555 83.4686 168.622 83.5462 168.702 83.6083C168.782 83.6704 168.874 83.7158 168.972 83.7418C169.07 83.7678 169.173 83.7739 169.273 83.7596V83.7411Z" fill="#263238"/>
<path d="M173.082 84.8328V75.8376H174.23L176.414 80.9645V75.8376H177.774V84.8328H176.682L174.489 79.4561V84.8328H173.082Z" fill="#263238"/>
<path d="M135.526 71.3401C139.523 71.3401 142.763 68.1001 142.763 64.1033C142.763 60.1065 139.523 56.8665 135.526 56.8665C131.529 56.8665 128.289 60.1065 128.289 64.1033C128.289 68.1001 131.529 71.3401 135.526 71.3401Z" fill="#263238" stroke="#263238" stroke-linecap="round" stroke-linejoin="round"/>
<path d="M176.608 71.3401C180.605 71.3401 183.845 68.1001 183.845 64.1033C183.845 60.1065 180.605 56.8665 176.608 56.8665C172.611 56.8665 169.371 60.1065 169.371 64.1033C169.371 68.1001 172.611 71.3401 176.608 71.3401Z" fill="#263238" stroke="#263238" stroke-linecap="round" stroke-linejoin="round"/>
<path d="M131.085 63.9182H108.051V49.9257L116.176 40.9954H131.085V63.9182Z" fill="white" stroke="#263238" stroke-linecap="round" stroke-linejoin="round"/>
<path d="M125.827 44.281H119.192V50.5369H125.827V44.281Z" fill="#263238"/>
<path d="M117.685 44.281H117.149L111.457 50.5276H117.685V44.281Z" fill="#263238"/>
<path d="M111.049 60.4849H105.922V63.7979H111.049V60.4849Z" fill="white" stroke="#263238" stroke-linecap="round" stroke-linejoin="round"/>
<path d="M185.838 22.9773H136.707V63.9182H185.838V22.9773Z" fill="#263238" stroke="#263238" stroke-linecap="round" stroke-linejoin="round"/>
<path d="M177.127 22.9773H127.996V63.9182H177.127V22.9773Z" fill="white" stroke="#263238" stroke-linecap="round" stroke-linejoin="round"/>
<path d="M122.506 71.3401C126.503 71.3401 129.743 68.1001 129.743 64.1033C129.743 60.1065 126.503 56.8665 122.506 56.8665C118.51 56.8665 115.27 60.1065 115.27 64.1033C115.27 68.1001 118.51 71.3401 122.506 71.3401Z" fill="#263238" stroke="#263238" stroke-linecap="round" stroke-linejoin="round"/>
<path d="M125.455 64.1032C125.457 63.519 125.285 62.9473 124.962 62.4606C124.639 61.9739 124.178 61.5941 123.639 61.3692C123.1 61.1444 122.506 61.0846 121.933 61.1974C121.36 61.3103 120.833 61.5907 120.419 62.0032C120.005 62.4157 119.723 62.9417 119.608 63.5146C119.494 64.0875 119.552 64.6816 119.775 65.2215C119.998 65.7615 120.376 66.2231 120.862 66.5479C121.348 66.8727 121.919 67.0461 122.503 67.0461C123.284 67.0461 124.034 66.7363 124.587 66.1847C125.141 65.6331 125.453 64.8846 125.455 64.1032Z" fill="white" stroke="#263238" stroke-linecap="round" stroke-linejoin="round"/>
<path d="M163.585 71.3401C167.581 71.3401 170.821 68.1001 170.821 64.1033C170.821 60.1065 167.581 56.8665 163.585 56.8665C159.588 56.8665 156.348 60.1065 156.348 64.1033C156.348 68.1001 159.588 71.3401 163.585 71.3401Z" fill="#263238" stroke="#263238" stroke-linecap="round" stroke-linejoin="round"/>
<path d="M166.541 64.1032C166.543 63.519 166.371 62.9473 166.048 62.4606C165.725 61.9739 165.264 61.5941 164.725 61.3692C164.186 61.1444 163.592 61.0846 163.019 61.1974C162.445 61.3103 161.919 61.5907 161.505 62.0032C161.091 62.4157 160.809 62.9417 160.694 63.5146C160.58 64.0875 160.638 64.6816 160.861 65.2215C161.084 65.7615 161.462 66.2231 161.948 66.5479C162.434 66.8727 163.005 67.0461 163.589 67.0461C164.37 67.0461 165.12 66.7363 165.673 66.1847C166.226 65.6331 166.539 64.8846 166.541 64.1032Z" fill="white" stroke="#263238" stroke-linecap="round" stroke-linejoin="round"/>
<path d="M150.87 54.9414C158.414 54.9414 164.53 48.8259 164.53 41.2821C164.53 33.7383 158.414 27.6228 150.87 27.6228C143.327 27.6228 137.211 33.7383 137.211 41.2821C137.211 48.8259 143.327 54.9414 150.87 54.9414Z" fill="white" stroke="#263238" stroke-linecap="round" stroke-linejoin="round"/>
<path d="M150.871 49.028C155.149 49.028 158.617 45.5601 158.617 41.2822C158.617 37.0043 155.149 33.5364 150.871 33.5364C146.593 33.5364 143.125 37.0043 143.125 41.2822C143.125 45.5601 146.593 49.028 150.871 49.028Z" fill="white" stroke="#263238" stroke-linecap="round" stroke-linejoin="round"/>
<path d="M242.047 84.953C241.505 84.9841 240.965 84.8485 240.502 84.5644C240.128 84.3071 239.852 83.9326 239.715 83.5001C239.559 83.0001 239.484 82.4784 239.493 81.9547V78.7434C239.483 78.2014 239.558 77.6612 239.715 77.1424C239.85 76.7141 240.128 76.345 240.502 76.0967C240.969 75.867 241.48 75.7438 242 75.7358C242.521 75.7278 243.036 75.8352 243.509 76.0504C243.861 76.2605 244.127 76.5884 244.259 76.9759C244.415 77.4121 244.49 77.8731 244.481 78.3362V79.0951H242.908V78.2715C242.908 78.0216 242.908 77.7902 242.908 77.5866C242.889 77.4025 242.814 77.2285 242.695 77.0869C242.53 76.9495 242.317 76.8829 242.103 76.9018C241.992 76.8915 241.88 76.9034 241.773 76.9368C241.667 76.9702 241.568 77.0243 241.483 77.0962C241.345 77.2404 241.257 77.4255 241.233 77.6237C241.193 77.8684 241.175 78.1161 241.177 78.364V82.2693C241.174 82.5395 241.199 82.8094 241.251 83.0744C241.291 83.2621 241.392 83.4313 241.538 83.5557C241.704 83.6679 241.903 83.7231 242.103 83.713C242.208 83.7225 242.314 83.7101 242.415 83.6767C242.515 83.6432 242.607 83.5894 242.686 83.5186C242.806 83.3703 242.88 83.1902 242.899 83.0004C242.93 82.761 242.945 82.5199 242.945 82.2786V81.4734H244.518V82.1953C244.528 82.6759 244.456 83.1548 244.305 83.6112C244.169 83.9911 243.912 84.3161 243.574 84.5366C243.118 84.8247 242.586 84.9697 242.047 84.953Z" fill="#263238"/>
<path d="M248.083 84.9532C247.55 84.9797 247.021 84.8545 246.556 84.5923C246.179 84.3558 245.894 83.9963 245.751 83.5743C245.575 83.069 245.49 82.5362 245.501 82.0011V78.6326C245.489 78.1004 245.573 77.5703 245.751 77.0686C245.9 76.6573 246.184 76.3084 246.556 76.0784C247.035 75.8531 247.558 75.7363 248.088 75.7363C248.617 75.7363 249.14 75.8531 249.619 76.0784C249.992 76.3106 250.278 76.6584 250.434 77.0686C250.612 77.5703 250.696 78.1004 250.684 78.6326V81.9734C250.696 82.5025 250.611 83.0293 250.434 83.5281C250.282 83.9502 249.996 84.311 249.619 84.5553C249.157 84.8346 248.623 84.9729 248.083 84.9532ZM248.083 83.7409C248.184 83.7552 248.286 83.7491 248.384 83.7231C248.482 83.6971 248.574 83.6518 248.654 83.5896C248.735 83.5275 248.802 83.4499 248.851 83.3615C248.901 83.273 248.932 83.1755 248.944 83.0746C248.993 82.8528 249.018 82.6263 249.018 82.399V78.2716C249.019 78.0444 248.994 77.8178 248.944 77.5961C248.916 77.4132 248.824 77.2461 248.685 77.1241C248.507 77.0094 248.3 76.9483 248.088 76.9483C247.876 76.9483 247.669 77.0094 247.491 77.1241C247.352 77.2479 247.258 77.4137 247.223 77.5961C247.18 77.8188 247.159 78.0449 247.158 78.2716V82.4176C247.155 82.6444 247.176 82.871 247.223 83.0931C247.234 83.194 247.265 83.2915 247.315 83.38C247.365 83.4684 247.432 83.546 247.512 83.6081C247.592 83.6703 247.684 83.7157 247.782 83.7416C247.88 83.7676 247.983 83.7737 248.083 83.7594V83.7409Z" fill="#263238"/>
<path d="M251.863 84.833L252.021 75.8379H253.714L255 82.066L256.333 75.8379H257.98L258.147 84.833H256.925L256.796 78.5772L255.519 84.833H254.529L253.224 78.5586L253.103 84.833H251.863Z" fill="#263238"/>
<path d="M259.406 84.8327V75.8376H262.044C262.503 75.8148 262.961 75.9171 263.367 76.1337C263.699 76.3384 263.958 76.6429 264.107 77.0036C264.278 77.4461 264.359 77.9178 264.348 78.3918C264.369 78.8821 264.264 79.3696 264.043 79.8077C263.86 80.1529 263.567 80.4267 263.21 80.585C262.807 80.7599 262.371 80.8452 261.933 80.8349H261.007V84.8327H259.406ZM261.044 79.6781H261.673C261.912 79.6881 262.149 79.6438 262.368 79.5486C262.449 79.507 262.521 79.4495 262.58 79.3796C262.639 79.3096 262.683 79.2287 262.71 79.1414C262.781 78.8918 262.812 78.6326 262.802 78.3733C262.807 78.1091 262.782 77.8453 262.728 77.5867C262.712 77.494 262.676 77.4057 262.624 77.3276C262.571 77.2496 262.503 77.1833 262.423 77.1332C262.189 77.023 261.932 76.9721 261.673 76.9851H261.044V79.6781Z" fill="#263238"/>
<path d="M265.18 84.833V75.8379H268.955V76.9854H266.827V79.5766H268.502V80.7241H266.827V83.6948H268.983V84.833H265.18Z" fill="#263238"/>
<path d="M270.864 84.833V77.0409H269.43V75.8379H273.918V77.0409H272.511V84.833H270.864Z" fill="#263238"/>
<path d="M274.785 84.833V75.8379H276.405V84.833H274.785Z" fill="#263238"/>
<path d="M278.696 84.833V77.0409H277.262V75.8379H281.75V77.0409H280.343V84.833H278.696Z" fill="#263238"/>
<path d="M284.964 84.953C284.434 84.9802 283.907 84.855 283.446 84.5921C283.066 84.3561 282.779 83.9967 282.632 83.5741C282.464 83.0671 282.382 82.5351 282.391 82.0009V78.6323C282.381 78.1011 282.463 77.572 282.632 77.0684C282.785 76.6564 283.072 76.3077 283.446 76.0782C283.924 75.8524 284.445 75.7354 284.973 75.7354C285.501 75.7354 286.023 75.8524 286.5 76.0782C286.875 76.3077 287.162 76.6564 287.315 77.0684C287.493 77.5701 287.577 78.1001 287.565 78.6323V81.9731C287.577 82.5023 287.492 83.0291 287.315 83.5278C287.166 83.9517 286.879 84.3134 286.5 84.5551C286.038 84.8344 285.504 84.9727 284.964 84.953ZM284.964 83.7407C285.182 83.756 285.398 83.6937 285.575 83.5649C285.709 83.4317 285.8 83.2605 285.834 83.0744C285.88 82.8523 285.902 82.6257 285.899 82.3988V78.2714C285.902 78.0445 285.881 77.8179 285.834 77.5959C285.802 77.4144 285.711 77.2486 285.575 77.1239C285.398 76.995 285.182 76.9327 284.964 76.9481C284.756 76.9392 284.55 77.0012 284.381 77.1239C284.24 77.2454 284.145 77.4122 284.113 77.5959C284.066 77.8179 284.044 78.0445 284.048 78.2714V82.4173C284.047 82.6437 284.065 82.8698 284.104 83.0929C284.138 83.279 284.228 83.4502 284.363 83.5834C284.539 83.7036 284.752 83.7592 284.964 83.7407Z" fill="#263238"/>
<path d="M288.777 84.8333V75.8381H290.934C291.454 75.8221 291.973 75.8941 292.47 76.051C292.854 76.1852 293.18 76.4464 293.395 76.7913C293.631 77.2247 293.743 77.7145 293.719 78.2072C293.725 78.5366 293.693 78.8656 293.627 79.1882C293.564 79.4556 293.447 79.7075 293.284 79.9285C293.112 80.142 292.885 80.3051 292.627 80.4005L293.876 84.8333H292.238L291.146 80.7059H290.388V84.8333H288.777ZM290.415 79.6786H290.934C291.194 79.6888 291.453 79.6414 291.692 79.5398C291.879 79.4478 292.024 79.2893 292.1 79.0956C292.185 78.8424 292.226 78.5762 292.22 78.309C292.244 77.952 292.157 77.5961 291.97 77.291C291.851 77.1693 291.706 77.0761 291.546 77.0184C291.385 76.9607 291.214 76.94 291.045 76.9579H290.443L290.415 79.6786Z" fill="#263238"/>
<path d="M297.25 84.9531C296.78 84.9642 296.315 84.856 295.899 84.6384C295.535 84.423 295.247 84.0996 295.075 83.713C294.876 83.2382 294.772 82.7288 294.77 82.2138L296.176 81.9362C296.182 82.2488 296.225 82.5595 296.306 82.8616C296.354 83.0944 296.466 83.3091 296.63 83.4816C296.705 83.553 296.794 83.6085 296.891 83.6451C296.988 83.6816 297.091 83.6984 297.194 83.6945C297.302 83.7049 297.411 83.6884 297.512 83.6464C297.612 83.6044 297.7 83.5383 297.768 83.4539C297.885 83.2755 297.943 83.0653 297.935 82.8524C297.938 82.5243 297.845 82.2025 297.666 81.9269C297.462 81.6479 297.222 81.396 296.954 81.1773L295.816 80.1224C295.514 79.8571 295.258 79.5445 295.057 79.1969C294.861 78.8101 294.766 78.3807 294.779 77.9476C294.76 77.6448 294.805 77.3412 294.912 77.0572C295.019 76.7732 295.185 76.5152 295.399 76.3003C295.873 75.8989 296.482 75.6936 297.102 75.7266C297.46 75.715 297.817 75.7813 298.148 75.9209C298.417 76.0362 298.65 76.2216 298.823 76.4577C298.992 76.6958 299.118 76.9622 299.193 77.2443C299.28 77.5459 299.333 77.8563 299.351 78.1697L297.953 78.4103C297.939 78.1586 297.909 77.9082 297.861 77.6607C297.82 77.4658 297.731 77.2843 297.602 77.1332C297.529 77.0677 297.444 77.0175 297.352 76.9857C297.26 76.9539 297.162 76.9411 297.065 76.9481C296.958 76.9408 296.852 76.9588 296.754 77.0006C296.656 77.0425 296.569 77.1069 296.5 77.1888C296.369 77.3578 296.3 77.5671 296.306 77.781C296.295 78.0447 296.362 78.3057 296.5 78.5306C296.65 78.7579 296.835 78.9608 297.046 79.1321L298.166 80.1224C298.529 80.4361 298.842 80.8046 299.092 81.2144C299.367 81.6715 299.505 82.1984 299.489 82.7321C299.498 83.1333 299.399 83.5295 299.203 83.8796C299.019 84.2078 298.746 84.4774 298.416 84.6569C298.06 84.8568 297.658 84.9589 297.25 84.9531Z" fill="#263238"/>
<path d="M288.317 59.587C288.3 54.8645 286.413 50.341 283.07 47.006C279.726 43.671 275.198 41.796 270.475 41.7911C267.542 41.7825 264.653 42.5079 262.072 43.9011C259.226 45.4276 256.845 47.6959 255.183 50.4657C253.521 53.2354 252.64 56.4033 252.633 59.6333L288.317 59.587Z" fill="white" stroke="#263238" stroke-linecap="round" stroke-linejoin="round"/>
<path d="M270.427 41.791C268.557 41.8068 266.702 42.1192 264.93 42.7164L265.041 42.92L270.843 57.5881L276.183 42.7812C274.332 42.1351 272.387 41.8005 270.427 41.791Z" fill="white" stroke="#263238" stroke-linecap="round" stroke-linejoin="round"/>
<path d="M270.703 43.9199L268.398 45.8263L269.888 47.4458L268.667 49.4817L270.851 57.5422L272.739 49.8889L271.786 47.5846L273.146 45.8263L270.703 43.9199Z" fill="#263238"/>
<path d="M276.189 42.7629L270.84 44.4841L264.945 42.7629V35.5815H276.189V42.7629Z" fill="white" stroke="#263238" stroke-linecap="round" stroke-linejoin="round"/>
<path d="M279.063 26.5587C279.063 26.8363 279.063 27.0954 279.063 27.3638C278.85 36.2757 275.084 39.8941 270.429 39.8941C265.774 39.8941 261.97 36.9327 261.785 27.336C261.785 27.0862 261.785 26.8178 261.785 26.5587C261.785 21.0617 265.663 16.6104 270.438 16.6104C275.213 16.6104 279.063 21.0617 279.063 26.5587Z" fill="white" stroke="#263238" stroke-linecap="round" stroke-linejoin="round"/>
<path d="M279.063 26.5587C279.063 26.8363 279.063 27.0954 279.063 27.3638L278.998 27.6414H276.99V24.2081L273.89 20.784H267.412L265.505 18.8684L266.088 21.4411L263.516 24.3007V27.4378H261.85L261.785 27.336C261.785 27.0862 261.785 26.8178 261.785 26.5587C261.785 21.0617 265.663 16.6104 270.438 16.6104C275.213 16.6104 279.063 21.0617 279.063 26.5587Z" fill="#263238"/>
<path d="M265.988 70.026C265.882 65.3655 263.956 60.9317 260.622 57.6731C257.288 54.4145 252.812 52.5901 248.15 52.5901C243.488 52.5901 239.012 54.4145 235.678 57.6731C232.345 60.9317 230.419 65.3655 230.312 70.026H265.988Z" fill="white" stroke="#263238" stroke-linecap="round" stroke-linejoin="round"/>
<path d="M248.155 52.2395C246.285 52.2379 244.427 52.5315 242.648 53.1094L242.759 53.313L248.571 67.981L253.902 53.1742C252.051 52.5454 250.109 52.2295 248.155 52.2395Z" fill="white" stroke="#263238" stroke-linecap="round" stroke-linejoin="round"/>
<path d="M248.425 54.3677L246.121 56.2648L247.611 57.8936L246.389 59.9295L248.573 67.9807L250.461 60.3367L249.508 58.0324L250.869 56.2648L248.425 54.3677Z" fill="#263238"/>
<path d="M253.903 53.2018L248.554 54.9324L242.668 53.2018V46.0205H253.903V53.2018Z" fill="white" stroke="#263238" stroke-linecap="round" stroke-linejoin="round"/>
<path d="M256.801 36.9977C256.801 37.2753 256.801 37.5437 256.801 37.8028C256.588 46.7239 252.813 50.3331 248.158 50.3331C243.503 50.3331 239.709 47.381 239.523 37.775C239.523 37.5252 239.523 37.2661 239.523 36.9977C239.523 31.5006 243.401 27.0586 248.176 27.0586C252.951 27.0586 256.801 31.5006 256.801 36.9977Z" fill="white" stroke="#263238" stroke-linecap="round" stroke-linejoin="round"/>
<path d="M256.799 36.9973C256.799 37.2749 256.799 37.5433 256.799 37.8024L256.734 38.08H254.726V34.6559L251.626 31.2226H245.148L243.232 29.307L243.815 31.8796L241.196 34.7762V37.9134H239.577L239.512 37.8024C239.512 37.5525 239.512 37.2934 239.512 37.025C239.512 31.528 243.389 27.0859 248.164 27.0859C252.94 27.0859 256.799 31.5002 256.799 36.9973Z" fill="#263238"/>
<path d="M310.749 70.0258C310.643 65.3653 308.717 60.9314 305.384 57.6729C302.05 54.4143 297.574 52.5898 292.912 52.5898C288.25 52.5898 283.774 54.4143 280.44 57.6729C277.106 60.9314 275.18 65.3653 275.074 70.0258H310.749Z" fill="white" stroke="#263238" stroke-linecap="round" stroke-linejoin="round"/>
<path d="M292.948 52.2394C291.078 52.2371 289.219 52.5307 287.441 53.1093L287.552 53.3129L293.364 67.9809L298.695 53.1741C296.844 52.5467 294.902 52.2308 292.948 52.2394Z" fill="white" stroke="#263238" stroke-linecap="round" stroke-linejoin="round"/>
<path d="M293.175 54.3677L290.871 56.2648L292.37 57.8936L291.149 59.9295L293.333 67.9807L295.211 60.3367L294.267 58.0324L295.619 56.2648L293.175 54.3677Z" fill="#263238"/>
<path d="M298.666 53.2018L293.317 54.9324L287.422 53.2018V46.0205H298.666V53.2018Z" fill="white" stroke="#263238" stroke-linecap="round" stroke-linejoin="round"/>
<path d="M301.559 36.9977C301.559 37.2753 301.559 37.5437 301.559 37.8028C301.346 46.7239 297.57 50.3331 292.915 50.3331C288.261 50.3331 284.466 47.381 284.281 37.775C284.281 37.5252 284.281 37.2661 284.281 36.9977C284.281 31.5006 288.159 27.0586 292.934 27.0586C297.709 27.0586 301.559 31.5006 301.559 36.9977Z" fill="white" stroke="#263238" stroke-linecap="round" stroke-linejoin="round"/>
<path d="M301.564 36.9973C301.564 37.2749 301.564 37.5433 301.564 37.8024L301.49 38.08H299.491V34.6559L296.391 31.2226H289.913L287.998 29.307L288.581 31.8796L285.962 34.7762V37.9134H284.342L284.277 37.8024C284.277 37.5525 284.277 37.2934 284.277 37.025C284.277 31.528 288.155 27.0859 292.93 27.0859C297.705 27.0859 301.564 31.5002 301.564 36.9973Z" fill="#263238"/>
<path d="M300.039 168.705V159.709H302.677C303.137 159.689 303.595 159.795 304 160.015C304.337 160.214 304.597 160.52 304.74 160.885C304.91 161.324 304.991 161.793 304.981 162.264C305.002 162.754 304.897 163.241 304.675 163.679C304.493 164.027 304.2 164.304 303.843 164.466C303.438 164.634 303.003 164.715 302.565 164.707H301.64V168.705H300.039ZM301.677 163.55H302.306C302.544 163.562 302.781 163.521 303 163.43C303.082 163.386 303.154 163.327 303.213 163.256C303.272 163.184 303.316 163.102 303.343 163.013C303.414 162.767 303.445 162.511 303.435 162.254C303.44 161.987 303.415 161.72 303.361 161.458C303.345 161.367 303.309 161.28 303.256 161.204C303.204 161.127 303.135 161.063 303.056 161.014C302.823 160.9 302.565 160.849 302.306 160.866H301.677V163.55Z" fill="#263238"/>
<path d="M305.84 168.705V159.709H307.996C308.517 159.696 309.036 159.772 309.532 159.932C309.916 160.061 310.243 160.32 310.458 160.663C310.691 161.1 310.803 161.592 310.782 162.088C310.783 162.418 310.749 162.746 310.68 163.069C310.624 163.334 310.51 163.583 310.347 163.8C310.171 164.014 309.941 164.177 309.68 164.272L310.939 168.705H309.329L308.246 164.586H307.487V168.705H305.84ZM307.487 163.55H307.996C308.256 163.562 308.516 163.515 308.755 163.411C308.943 163.321 309.089 163.162 309.162 162.967C309.251 162.718 309.292 162.454 309.282 162.19C309.308 161.832 309.221 161.476 309.033 161.172C308.915 161.048 308.77 160.952 308.61 160.893C308.449 160.834 308.277 160.812 308.107 160.829H307.506L307.487 163.55Z" fill="#263238"/>
<path d="M314.478 168.825C313.946 168.853 313.417 168.731 312.951 168.473C312.575 168.234 312.291 167.875 312.146 167.455C311.969 166.947 311.884 166.411 311.896 165.872V162.485C311.883 161.953 311.968 161.423 312.146 160.921C312.288 160.506 312.573 160.155 312.951 159.931C313.428 159.699 313.952 159.579 314.482 159.579C315.013 159.579 315.537 159.699 316.014 159.931C316.391 160.158 316.678 160.508 316.828 160.921C317.006 161.423 317.091 161.953 317.078 162.485V165.854C317.089 166.386 317.005 166.916 316.828 167.418C316.676 167.837 316.39 168.195 316.014 168.436C315.55 168.712 315.017 168.847 314.478 168.825ZM314.478 167.621C314.694 167.637 314.909 167.571 315.079 167.436C315.218 167.311 315.31 167.141 315.338 166.955C315.388 166.73 315.413 166.501 315.412 166.27V162.134C315.414 161.906 315.389 161.68 315.338 161.458C315.31 161.275 315.218 161.108 315.079 160.986C314.901 160.871 314.694 160.81 314.482 160.81C314.271 160.81 314.063 160.871 313.885 160.986C313.747 161.11 313.653 161.276 313.617 161.458C313.574 161.681 313.553 161.907 313.552 162.134V166.27C313.549 166.5 313.571 166.73 313.617 166.955C313.645 167.141 313.737 167.311 313.876 167.436C314.047 167.571 314.261 167.637 314.478 167.621Z" fill="#263238"/>
<path d="M318.281 168.705V159.71H320.41C320.996 159.681 321.582 159.786 322.122 160.015C322.539 160.191 322.871 160.523 323.047 160.94C323.237 161.446 323.325 161.983 323.307 162.523V165.808C323.324 166.363 323.236 166.915 323.047 167.437C322.876 167.838 322.568 168.166 322.178 168.362C321.658 168.598 321.09 168.706 320.521 168.677L318.281 168.705ZM319.929 167.566H320.428C320.715 167.589 321.001 167.517 321.243 167.363C321.409 167.211 321.515 167.004 321.539 166.78C321.579 166.473 321.597 166.164 321.595 165.854V162.412C321.6 162.117 321.575 161.822 321.52 161.533C321.48 161.333 321.364 161.158 321.197 161.042C320.953 160.921 320.681 160.867 320.41 160.885H319.929V167.566Z" fill="#263238"/>
<path d="M326.93 168.825C326.388 168.856 325.849 168.73 325.375 168.464C325.006 168.215 324.735 167.845 324.607 167.418C324.46 166.891 324.391 166.346 324.404 165.799V159.709H325.995V165.984C325.994 166.25 326.013 166.516 326.051 166.78C326.079 167.002 326.172 167.212 326.319 167.381C326.399 167.46 326.495 167.52 326.601 167.558C326.706 167.597 326.818 167.612 326.93 167.603C327.045 167.614 327.161 167.6 327.269 167.561C327.378 167.523 327.477 167.462 327.559 167.381C327.697 167.207 327.786 166.999 327.819 166.78C327.857 166.516 327.875 166.25 327.874 165.984V159.709H329.466V165.799C329.475 166.346 329.403 166.892 329.253 167.418C329.129 167.844 328.861 168.214 328.494 168.464C328.018 168.732 327.475 168.857 326.93 168.825Z" fill="#263238"/>
<path d="M333.176 168.825C332.631 168.855 332.089 168.72 331.622 168.436C331.253 168.179 330.98 167.809 330.844 167.381C330.688 166.878 330.613 166.353 330.622 165.826V162.624C330.611 162.082 330.686 161.542 330.844 161.023C330.972 160.594 331.248 160.224 331.622 159.977C332.094 159.709 332.633 159.58 333.176 159.607C333.681 159.581 334.183 159.693 334.629 159.931C334.982 160.14 335.248 160.468 335.379 160.857C335.534 161.296 335.609 161.76 335.601 162.226V162.985H334.028V162.208C334.043 161.977 334.043 161.745 334.028 161.514C334.007 161.333 333.932 161.162 333.815 161.023C333.734 160.954 333.639 160.902 333.537 160.871C333.436 160.839 333.329 160.828 333.223 160.838C333.111 160.828 332.999 160.84 332.893 160.873C332.787 160.906 332.688 160.961 332.603 161.032C332.466 161.174 332.379 161.356 332.353 161.551C332.314 161.796 332.295 162.043 332.297 162.291V166.187C332.291 166.458 332.319 166.728 332.38 166.992C332.413 167.178 332.512 167.345 332.658 167.464C332.821 167.584 333.021 167.642 333.223 167.631C333.328 167.64 333.434 167.628 333.534 167.594C333.635 167.561 333.727 167.507 333.806 167.436C333.925 167.288 333.999 167.108 334.018 166.918C334.034 166.678 334.034 166.437 334.018 166.196V165.382H335.592V166.104C335.602 166.584 335.533 167.062 335.388 167.52C335.246 167.899 334.987 168.223 334.648 168.445C334.204 168.71 333.693 168.841 333.176 168.825Z" fill="#263238"/>
<path d="M337.649 168.705V160.922H336.215V159.709H340.703V160.922H339.297V168.705H337.649Z" fill="#263238"/>
<path d="M343.782 168.825C343.309 168.843 342.839 168.734 342.422 168.511C342.059 168.296 341.774 167.972 341.608 167.585C341.405 167.111 341.298 166.601 341.293 166.086L342.7 165.808C342.714 166.12 342.758 166.43 342.829 166.734C342.881 166.962 342.993 167.173 343.153 167.344C343.228 167.419 343.318 167.477 343.417 167.515C343.515 167.554 343.621 167.571 343.727 167.567C343.834 167.577 343.941 167.561 344.04 167.519C344.139 167.476 344.225 167.41 344.291 167.326C344.409 167.145 344.467 166.931 344.458 166.715C344.463 166.387 344.37 166.064 344.19 165.79C343.983 165.51 343.743 165.255 343.477 165.031L342.348 164.031C342.04 163.773 341.782 163.459 341.589 163.106C341.384 162.723 341.285 162.291 341.302 161.857C341.285 161.555 341.331 161.254 341.438 160.972C341.544 160.689 341.71 160.433 341.922 160.219C342.392 159.81 343.003 159.6 343.625 159.636C343.987 159.623 344.347 159.69 344.68 159.83C344.948 159.951 345.181 160.139 345.356 160.376C345.525 160.611 345.65 160.874 345.726 161.153C345.807 161.456 345.86 161.766 345.883 162.079L344.476 162.329C344.468 162.073 344.437 161.82 344.384 161.57C344.353 161.376 344.266 161.196 344.134 161.052C344.061 160.984 343.975 160.931 343.881 160.898C343.787 160.865 343.687 160.851 343.588 160.857C343.483 160.852 343.379 160.871 343.282 160.913C343.186 160.955 343.101 161.018 343.033 161.098C342.901 161.267 342.833 161.476 342.838 161.69C342.829 161.952 342.893 162.212 343.024 162.44C343.176 162.668 343.36 162.874 343.57 163.05L344.708 164.013C345.07 164.328 345.382 164.696 345.633 165.105C345.903 165.564 346.038 166.09 346.022 166.623C346.029 167.02 345.933 167.412 345.744 167.761C345.556 168.088 345.285 168.359 344.958 168.548C344.595 168.737 344.191 168.833 343.782 168.825Z" fill="#263238"/>
<path d="M351.518 168.825C351.141 168.836 350.767 168.746 350.436 168.566C350.134 168.393 349.887 168.14 349.723 167.834C349.551 167.493 349.465 167.115 349.473 166.733C349.463 166.213 349.59 165.698 349.843 165.243C350.096 164.813 350.407 164.421 350.769 164.077L350.334 163.272C350.188 163.005 350.064 162.726 349.964 162.439C349.872 162.165 349.825 161.877 349.825 161.588C349.816 161.234 349.895 160.885 350.056 160.57C350.211 160.277 350.441 160.031 350.723 159.857C351.042 159.68 351.403 159.59 351.768 159.598C352.111 159.592 352.451 159.668 352.759 159.82C353.038 159.966 353.274 160.183 353.443 160.45C353.61 160.729 353.697 161.049 353.693 161.375C353.698 161.761 353.609 162.142 353.434 162.485C353.263 162.819 353.052 163.13 352.805 163.411C352.564 163.689 352.324 163.948 352.101 164.179L353.295 166.233C353.38 166.072 353.446 165.901 353.49 165.724C353.584 165.288 353.649 164.846 353.684 164.401H354.887C354.889 164.75 354.851 165.097 354.776 165.438C354.717 165.755 354.624 166.065 354.498 166.363C354.384 166.626 354.254 166.883 354.11 167.131C354.207 167.244 354.327 167.335 354.461 167.399C354.6 167.479 354.755 167.523 354.915 167.529V168.806H354.794H354.674C354.481 168.799 354.292 168.752 354.119 168.667C353.952 168.579 353.797 168.47 353.656 168.343C353.521 168.229 353.394 168.106 353.277 167.973C353.067 168.239 352.798 168.451 352.491 168.592C352.183 168.734 351.847 168.801 351.509 168.788L351.518 168.825ZM351.518 167.714C351.722 167.718 351.922 167.66 352.092 167.548C352.253 167.44 352.397 167.309 352.518 167.159L351.278 165.086C351.114 165.323 350.983 165.581 350.889 165.854C350.805 166.127 350.761 166.411 350.76 166.696C350.76 166.868 350.785 167.04 350.834 167.205C350.881 167.349 350.968 167.477 351.084 167.575C351.216 167.682 351.386 167.732 351.555 167.714H351.518ZM351.602 163.411C351.743 163.225 351.867 163.027 351.972 162.819C352.09 162.588 352.187 162.346 352.259 162.097C352.33 161.863 352.368 161.62 352.37 161.375C352.377 161.291 352.365 161.207 352.337 161.127C352.308 161.048 352.263 160.976 352.204 160.915C352.146 160.855 352.075 160.808 351.996 160.777C351.918 160.746 351.834 160.732 351.75 160.736C351.656 160.732 351.563 160.753 351.48 160.797C351.397 160.841 351.327 160.906 351.278 160.986C351.173 161.169 351.122 161.377 351.13 161.588C351.132 161.902 351.182 162.214 351.278 162.513C351.426 162.856 351.528 163.143 351.639 163.411H351.602Z" fill="#263238"/>
<path d="M361.107 168.825C360.633 168.844 360.163 168.735 359.746 168.511C359.381 168.297 359.093 167.973 358.923 167.585C358.723 167.11 358.619 166.601 358.617 166.086L360.024 165.808C360.034 166.12 360.077 166.431 360.153 166.734C360.205 166.962 360.317 167.173 360.477 167.344C360.552 167.42 360.641 167.479 360.74 167.517C360.839 167.555 360.945 167.572 361.051 167.567C361.158 167.575 361.265 167.558 361.363 167.516C361.462 167.474 361.548 167.409 361.616 167.326C361.733 167.145 361.792 166.931 361.782 166.715C361.787 166.387 361.694 166.064 361.514 165.79C361.307 165.51 361.068 165.255 360.801 165.031L359.672 164.031C359.361 163.775 359.104 163.461 358.913 163.106C358.708 162.723 358.609 162.291 358.626 161.857C358.606 161.555 358.652 161.253 358.758 160.97C358.865 160.688 359.032 160.431 359.246 160.219C359.716 159.81 360.327 159.6 360.949 159.636C361.311 159.625 361.67 159.691 362.004 159.83C362.27 159.951 362.5 160.139 362.671 160.376C362.842 160.61 362.971 160.874 363.05 161.153C363.128 161.456 363.178 161.766 363.198 162.079L361.801 162.329C361.792 162.073 361.761 161.82 361.708 161.57C361.679 161.374 361.589 161.192 361.449 161.052C361.378 160.983 361.294 160.93 361.202 160.897C361.109 160.863 361.01 160.85 360.912 160.857C360.807 160.852 360.703 160.871 360.607 160.913C360.51 160.955 360.425 161.018 360.357 161.098C360.226 161.267 360.157 161.476 360.163 161.69C360.148 161.953 360.213 162.214 360.348 162.44C360.5 162.668 360.684 162.874 360.894 163.05L362.014 164.041C362.376 164.355 362.688 164.724 362.939 165.133C363.209 165.592 363.344 166.118 363.328 166.65C363.335 167.047 363.239 167.44 363.05 167.789C362.861 168.118 362.586 168.39 362.254 168.575C361.898 168.752 361.504 168.838 361.107 168.825Z" fill="#263238"/>
<path d="M364.238 168.705V159.709H368.014V160.866H365.886V163.457H367.561V164.596H365.886V167.576H368.033V168.705H364.238Z" fill="#263238"/>
<path d="M368.992 168.705V159.709H371.139C371.663 159.697 372.185 159.772 372.685 159.931C373.068 160.062 373.394 160.32 373.61 160.663C373.843 161.1 373.955 161.592 373.934 162.088C373.94 162.418 373.906 162.747 373.832 163.069C373.776 163.334 373.662 163.583 373.499 163.8C373.325 164.016 373.094 164.179 372.833 164.272L374.091 168.705H372.472L371.389 164.586H370.621V168.705H368.992ZM370.63 163.55H371.139C371.402 163.561 371.665 163.514 371.907 163.411C372.093 163.321 372.236 163.161 372.305 162.967C372.398 162.718 372.442 162.455 372.435 162.19C372.461 161.832 372.373 161.476 372.185 161.172C372.066 161.049 371.921 160.954 371.761 160.895C371.601 160.836 371.43 160.813 371.259 160.829H370.621L370.63 163.55Z" fill="#263238"/>
<path d="M376.55 168.705L374.699 159.709H376.171L377.364 166.076L378.475 159.709H379.965L378.114 168.705H376.55Z" fill="#263238"/>
<path d="M380.949 168.705V159.709H382.569V168.705H380.949Z" fill="#263238"/>
<path d="M386.352 168.825C385.806 168.855 385.264 168.72 384.797 168.436C384.429 168.179 384.156 167.809 384.02 167.381C383.864 166.878 383.789 166.353 383.798 165.826V162.624C383.787 162.082 383.862 161.542 384.02 161.023C384.148 160.594 384.423 160.224 384.797 159.977C385.27 159.709 385.809 159.58 386.352 159.607C386.857 159.581 387.359 159.693 387.805 159.931C388.158 160.14 388.424 160.468 388.555 160.857C388.717 161.294 388.796 161.759 388.786 162.226V162.985H387.277V162.208C387.293 161.977 387.293 161.745 387.277 161.514C387.263 161.331 387.188 161.158 387.065 161.023C386.983 160.954 386.889 160.902 386.787 160.871C386.686 160.839 386.578 160.828 386.472 160.838C386.361 160.828 386.249 160.84 386.143 160.873C386.036 160.906 385.938 160.961 385.852 161.032C385.716 161.174 385.629 161.356 385.602 161.551C385.564 161.796 385.545 162.043 385.547 162.291V166.187C385.541 166.458 385.569 166.728 385.63 166.992C385.667 167.176 385.765 167.343 385.908 167.464C386.071 167.584 386.271 167.642 386.472 167.631C386.578 167.64 386.684 167.628 386.784 167.594C386.884 167.561 386.977 167.507 387.055 167.436C387.175 167.288 387.249 167.108 387.268 166.918C387.288 166.678 387.288 166.436 387.268 166.196V165.382H388.851V166.104C388.858 166.584 388.786 167.063 388.638 167.52C388.496 167.899 388.236 168.223 387.898 168.445C387.433 168.725 386.894 168.858 386.352 168.825Z" fill="#263238"/>
<path d="M389.949 168.705V159.709H393.753V160.866H391.624V163.457H393.299V164.596H391.624V167.576H393.753V168.705H389.949Z" fill="#263238"/>
<path d="M396.982 168.825C396.508 168.844 396.038 168.735 395.621 168.511C395.256 168.297 394.968 167.973 394.798 167.585C394.598 167.11 394.494 166.601 394.492 166.086L395.899 165.808C395.909 166.12 395.952 166.431 396.028 166.734C396.076 166.964 396.189 167.176 396.352 167.344C396.426 167.419 396.514 167.477 396.611 167.515C396.708 167.553 396.812 167.571 396.917 167.567C397.025 167.577 397.134 167.56 397.234 167.518C397.334 167.476 397.422 167.41 397.491 167.326C397.608 167.145 397.667 166.931 397.657 166.715C397.663 166.387 397.569 166.064 397.389 165.79C397.182 165.51 396.943 165.255 396.676 165.031L395.547 164.031C395.236 163.773 394.976 163.459 394.779 163.106C394.582 162.72 394.486 162.29 394.501 161.857C394.481 161.555 394.527 161.253 394.633 160.97C394.74 160.688 394.907 160.431 395.121 160.219C395.591 159.81 396.202 159.6 396.824 159.636C397.186 159.625 397.545 159.691 397.879 159.83C398.145 159.951 398.375 160.139 398.546 160.376C398.718 160.609 398.844 160.873 398.916 161.153C399.002 161.455 399.055 161.765 399.073 162.079L397.676 162.329C397.667 162.073 397.636 161.82 397.583 161.57C397.549 161.376 397.459 161.196 397.324 161.052C397.253 160.983 397.169 160.93 397.077 160.897C396.984 160.863 396.885 160.85 396.787 160.857C396.681 160.852 396.575 160.871 396.477 160.913C396.38 160.954 396.293 161.018 396.223 161.098C396.091 161.267 396.023 161.476 396.028 161.69C396.017 161.954 396.085 162.215 396.223 162.44C396.372 162.67 396.556 162.876 396.769 163.05L397.889 164.041C398.254 164.352 398.566 164.721 398.814 165.133C399.09 165.59 399.228 166.117 399.212 166.65C399.221 167.049 399.121 167.442 398.925 167.789C398.742 168.12 398.469 168.392 398.138 168.575C397.78 168.754 397.382 168.84 396.982 168.825Z" fill="#263238"/>
<path d="M315.871 123.932H331.576L339.497 110.902H323.793L315.871 123.932Z" fill="white" stroke="#263238" stroke-linecap="round" stroke-linejoin="round"/>
<path d="M374.167 110.902H323.824V151.288H374.167V110.902Z" fill="white" stroke="#263238" stroke-linecap="round" stroke-linejoin="round"/>
<path d="M374.163 110.902H358.625V151.288H374.163V110.902Z" fill="#263238" stroke="#263238" stroke-linecap="round" stroke-linejoin="round"/>
<path d="M382.26 123.932H366.547L358.625 110.902H374.339L382.26 123.932Z" fill="white" stroke="#263238" stroke-linecap="round" stroke-linejoin="round"/>
<path d="M354.392 123.932H320.484L324.01 110.902H357.909L354.392 123.932Z" fill="white" stroke="#263238" stroke-linecap="round" stroke-linejoin="round"/>
<path d="M355.092 141.895H347.207V145.976H355.092V141.895Z" fill="white" stroke="#263238" stroke-linecap="round" stroke-linejoin="round"/>
<path d="M320.038 275.054V267.271H318.613V266.059H323.102V267.271H321.686V275.054H320.038Z" fill="#263238"/>
<path d="M323.926 275.055V266.06H327.702V267.216H325.592V269.835H327.267V270.983H325.592V273.953H327.72V275.082L323.926 275.055Z" fill="#263238"/>
<path d="M331.145 275.183C330.599 275.213 330.058 275.078 329.59 274.795C329.22 274.537 328.946 274.162 328.813 273.731C328.657 273.231 328.582 272.709 328.591 272.185V268.974C328.581 268.432 328.656 267.892 328.813 267.373C328.944 266.945 329.218 266.576 329.59 266.327C330.064 266.063 330.603 265.938 331.145 265.966C331.652 265.938 332.157 266.047 332.607 266.281C332.959 266.491 333.224 266.819 333.357 267.206C333.513 267.643 333.588 268.104 333.579 268.567V269.326H331.95V268.548C331.965 268.317 331.965 268.085 331.95 267.854C331.936 267.671 331.861 267.499 331.737 267.364C331.656 267.295 331.562 267.243 331.46 267.211C331.358 267.179 331.251 267.168 331.145 267.179C330.921 267.16 330.698 267.23 330.525 267.373C330.387 267.517 330.299 267.702 330.275 267.9C330.236 268.142 330.217 268.387 330.22 268.631V272.546C330.214 272.817 330.242 273.087 330.303 273.351C330.337 273.536 330.435 273.704 330.58 273.823C330.744 273.943 330.943 274.001 331.145 273.99C331.25 274.001 331.357 273.989 331.458 273.956C331.558 273.922 331.65 273.868 331.728 273.795C331.848 273.647 331.922 273.467 331.941 273.277C331.976 273.038 331.992 272.797 331.987 272.555V271.685H333.57V272.416C333.576 272.894 333.504 273.369 333.357 273.823C333.218 274.204 332.958 274.53 332.616 274.749C332.179 275.034 331.667 275.185 331.145 275.183Z" fill="#263238"/>
<path d="M334.695 275.055V266.06H336.324V269.835H338.175V266.069H339.822V275.064H338.156V271.001H336.306V275.064L334.695 275.055Z" fill="#263238"/>
<path d="M341.172 275.054V266.059H342.32L344.504 271.195V266.059H345.864V275.054H344.772L342.579 269.687V275.054H341.172Z" fill="#263238"/>
<path d="M349.652 275.184C349.122 275.211 348.595 275.086 348.134 274.823C347.754 274.587 347.466 274.228 347.32 273.805C347.15 273.295 347.069 272.76 347.079 272.223V268.91C347.069 268.378 347.15 267.849 347.32 267.346C347.469 266.932 347.757 266.582 348.134 266.356C348.599 266.106 349.124 265.987 349.652 266.013C350.188 265.984 350.723 266.102 351.197 266.356C351.569 266.586 351.852 266.935 352.002 267.346C352.18 267.847 352.265 268.378 352.252 268.91V272.288C352.264 272.817 352.179 273.344 352.002 273.842C351.854 274.264 351.571 274.625 351.197 274.869C350.722 275.118 350.186 275.227 349.652 275.184ZM349.652 273.972C349.87 273.987 350.086 273.925 350.262 273.796C350.397 273.663 350.487 273.492 350.522 273.305C350.566 273.077 350.584 272.844 350.577 272.611V268.465C350.581 268.239 350.559 268.012 350.512 267.79C350.48 267.609 350.389 267.443 350.253 267.318C350.077 267.189 349.86 267.127 349.642 267.142C349.433 267.125 349.225 267.188 349.059 267.318C348.918 267.439 348.823 267.606 348.791 267.79C348.744 268.012 348.722 268.239 348.726 268.465V272.611C348.725 272.838 348.744 273.064 348.782 273.287C348.819 273.474 348.912 273.646 349.05 273.777C349.218 273.917 349.434 273.987 349.652 273.972Z" fill="#263238"/>
<path d="M353.48 275.055V266.06H355.128V273.926H357.302V275.055H353.48Z" fill="#263238"/>
<path d="M360.488 275.184C359.958 275.211 359.431 275.086 358.97 274.823C358.59 274.587 358.302 274.228 358.156 273.805C357.986 273.295 357.905 272.76 357.915 272.223V268.91C357.905 268.378 357.986 267.849 358.156 267.346C358.305 266.932 358.593 266.582 358.97 266.355C359.447 266.13 359.969 266.013 360.497 266.013C361.025 266.013 361.546 266.13 362.024 266.355C362.401 266.582 362.689 266.932 362.838 267.346C363.016 267.847 363.101 268.377 363.088 268.91V272.287C363.1 272.817 363.015 273.343 362.838 273.842C362.689 274.266 362.403 274.628 362.024 274.869C361.553 275.12 361.019 275.229 360.488 275.184ZM360.488 273.972C360.706 273.987 360.922 273.925 361.098 273.796C361.233 273.663 361.323 273.492 361.358 273.305C361.403 273.083 361.425 272.857 361.422 272.63V268.484C361.426 268.257 361.405 268.03 361.358 267.808C361.325 267.627 361.234 267.461 361.098 267.336C360.922 267.208 360.706 267.145 360.488 267.161C360.278 267.144 360.07 267.206 359.905 267.336C359.763 267.458 359.668 267.625 359.636 267.808C359.589 268.03 359.567 268.257 359.571 268.484V272.611C359.57 272.838 359.589 273.064 359.627 273.287C359.661 273.473 359.752 273.644 359.886 273.777C360.058 273.911 360.27 273.98 360.488 273.972Z" fill="#263238"/>
<path d="M366.549 275.184C366.052 275.209 365.56 275.076 365.142 274.805C364.781 274.54 364.517 274.162 364.393 273.731C364.232 273.201 364.154 272.648 364.161 272.093V269.077C364.15 268.513 364.224 267.951 364.383 267.411C364.513 266.972 364.791 266.593 365.17 266.337C365.638 266.066 366.175 265.937 366.716 265.967C367.224 265.942 367.73 266.047 368.187 266.272C368.545 266.482 368.82 266.809 368.964 267.198C369.139 267.649 369.221 268.13 369.205 268.614V269.077H367.641V268.568C367.646 268.319 367.624 268.071 367.576 267.827C367.554 267.646 367.469 267.479 367.336 267.355C367.165 267.229 366.954 267.17 366.743 267.189C366.629 267.179 366.515 267.193 366.407 267.23C366.298 267.266 366.199 267.325 366.114 267.402C365.974 267.554 365.889 267.75 365.873 267.957C365.835 268.208 365.816 268.462 365.818 268.716V272.482C365.814 272.753 365.842 273.023 365.901 273.287C365.935 273.49 366.036 273.676 366.188 273.815C366.361 273.945 366.574 274.01 366.79 274C367.012 274.015 367.231 273.941 367.4 273.796C367.549 273.644 367.649 273.451 367.687 273.241C367.747 272.964 367.775 272.682 367.771 272.399V271.557H366.845V270.52H369.288V275.083H368.159L368.039 274.157C367.929 274.445 367.744 274.697 367.502 274.888C367.224 275.085 366.89 275.189 366.549 275.184Z" fill="#263238"/>
<path d="M370.547 275.055V266.06H372.176V275.055H370.547Z" fill="#263238"/>
<path d="M373.562 275.055V266.06H377.338V267.216H375.201V269.835H376.876V270.983H375.201V273.953H377.357V275.082L373.562 275.055Z" fill="#263238"/>
<path d="M380.575 275.184C380.101 275.199 379.632 275.087 379.215 274.86C378.851 274.648 378.565 274.323 378.401 273.935C378.198 273.461 378.091 272.951 378.086 272.436L379.493 272.158C379.507 272.47 379.551 272.78 379.622 273.083C379.676 273.311 379.787 273.522 379.946 273.694C380.021 273.769 380.111 273.827 380.21 273.865C380.308 273.903 380.414 273.921 380.52 273.916C380.627 273.927 380.734 273.91 380.833 273.868C380.932 273.826 381.018 273.76 381.084 273.676C381.201 273.497 381.259 273.287 381.251 273.074C381.265 272.73 381.171 272.391 380.983 272.102C380.778 271.823 380.538 271.572 380.27 271.353L379.141 270.353C378.837 270.09 378.58 269.777 378.382 269.428C378.179 269.043 378.081 268.613 378.095 268.179C378.077 267.876 378.124 267.573 378.23 267.289C378.337 267.005 378.502 266.747 378.715 266.531C379.186 266.126 379.797 265.92 380.418 265.958C380.78 265.945 381.14 266.011 381.473 266.152C381.741 266.269 381.973 266.454 382.149 266.689C382.318 266.927 382.443 267.193 382.519 267.475C382.602 267.778 382.655 268.088 382.676 268.401L381.269 268.641C381.26 268.386 381.229 268.132 381.177 267.882C381.141 267.69 381.055 267.511 380.927 267.364C380.776 267.234 380.58 267.168 380.381 267.179C380.277 267.172 380.173 267.189 380.076 267.23C379.98 267.27 379.894 267.332 379.826 267.41C379.692 267.582 379.624 267.795 379.631 268.012C379.623 268.274 379.687 268.534 379.816 268.762C379.969 268.987 380.153 269.189 380.362 269.363L381.482 270.353C381.845 270.668 382.157 271.036 382.408 271.445C382.678 271.904 382.813 272.431 382.796 272.963C382.803 273.36 382.708 273.752 382.519 274.101C382.333 274.43 382.061 274.702 381.732 274.888C381.377 275.081 380.98 275.183 380.575 275.184Z" fill="#263238"/>
<path d="M361.526 201.751H343.785V251.613H361.526V201.751Z" fill="white" stroke="#263238" stroke-linecap="round" stroke-linejoin="round"/>
<path d="M359.647 201.751H341.906V251.613H359.647V201.751Z" fill="white" stroke="#263238" stroke-linecap="round" stroke-linejoin="round"/>
<path d="M359.647 231.708H341.906V243.174H359.647V231.708Z" fill="#263238" stroke="#263238" stroke-linecap="round" stroke-linejoin="round"/>
<path d="M364.782 251.299H339.23V253.946H364.782V251.299Z" fill="white" stroke="#263238" stroke-linecap="round" stroke-linejoin="round"/>
<path d="M361.051 251.299H335.5V253.946H361.051V251.299Z" fill="white" stroke="#263238" stroke-linecap="round" stroke-linejoin="round"/>
<path d="M375.007 201.751H326.533C324.601 201.751 323.035 203.318 323.035 205.25V236.797C323.035 238.729 324.601 240.295 326.533 240.295H375.007C376.939 240.295 378.505 238.729 378.505 236.797V205.25C378.505 203.318 376.939 201.751 375.007 201.751Z" fill="#263238" stroke="#263238" stroke-linecap="round" stroke-linejoin="round"/>
<path d="M377.366 201.751H328.893C326.961 201.751 325.395 203.318 325.395 205.25V236.797C325.395 238.729 326.961 240.295 328.893 240.295H377.366C379.298 240.295 380.865 238.729 380.865 236.797V205.25C380.865 203.318 379.298 201.751 377.366 201.751Z" fill="#263238" stroke="#263238" stroke-linecap="round" stroke-linejoin="round"/>
<path d="M323.035 232.457V236.797C323.035 237.722 323.401 238.609 324.053 239.264C324.705 239.92 325.59 240.291 326.515 240.295H375.007C375.935 240.295 376.825 239.927 377.481 239.271C378.137 238.615 378.505 237.725 378.505 236.797V232.457H323.035Z" fill="white" stroke="#263238" stroke-linecap="round" stroke-linejoin="round"/>
<path d="M327.905 305.529C327.905 305.529 332.032 300.837 334.466 299.153C336.123 297.904 337.671 296.517 339.093 295.007C339.693 294.369 340.491 293.951 341.357 293.822C342.224 293.693 343.108 293.859 343.869 294.295C344.286 294.545 344.663 294.857 344.988 295.22C346.839 297.284 350.606 303.651 350.606 305.335C350.606 307.019 347.237 310.212 347.237 310.212C347.237 310.212 340.676 316.024 337.307 317.523C334.62 318.622 331.866 319.549 329.062 320.299C328.039 319.929 327.125 319.31 326.402 318.497C325.68 317.684 325.172 316.703 324.925 315.644C324 311.896 327.905 305.529 327.905 305.529Z" fill="#263238" stroke="#263238" stroke-linecap="round" stroke-linejoin="round"/>
<path d="M334.464 309.629C335.556 313.22 333.668 317.699 333.002 319.105C330.827 319.827 329.032 320.308 329.032 320.308C328.013 319.934 327.104 319.311 326.386 318.497C325.669 317.683 325.166 316.702 324.923 315.644C323.998 311.896 327.921 305.529 327.921 305.529C328.625 306.279 333.15 305.335 334.464 309.629Z" fill="white" stroke="#263238" stroke-linecap="round" stroke-linejoin="round"/>
<path d="M213.596 315.273C213.596 315.273 214.91 320.706 215.447 322.76C215.961 325.425 216.335 328.116 216.567 330.821C216.567 330.821 212.448 333.449 209.265 334.004C206.081 334.559 207.581 334.004 207.581 334.004L206.081 332.32C204.699 332.62 203.412 333.256 202.333 334.171C200.64 335.67 197.271 336.419 194.273 336.947C191.275 337.474 179.466 338.64 177.402 337.511C175.339 336.382 174.219 335.661 174.626 335.078C175.033 334.495 177.81 333.227 182.307 330.765C186.805 328.303 195.8 321.02 196.735 318.966L197.66 316.902C197.66 316.902 207.793 316.958 213.596 315.273Z" fill="#263238" stroke="#263238" stroke-linecap="round" stroke-linejoin="round"/>
<path d="M113.54 232.614H186.195V293.257H113.54V232.614Z" fill="#263238" stroke="#263238" stroke-linecap="round" stroke-linejoin="round"/>
<path d="M155.786 207.739L146.967 213.792C146.449 214.134 142.988 225.202 142.988 225.202C142.988 225.202 141.785 228.83 144.376 229.524C146.967 230.218 155.962 231.773 155.962 231.773C155.962 231.773 161.32 223.647 161.32 221.593C161.253 219.958 161.023 218.334 160.636 216.744L155.786 207.739Z" fill="white" stroke="#263238" stroke-linecap="round" stroke-linejoin="round"/>
<path d="M139.06 232.744H141.836V226.266C141.836 226.178 141.872 226.093 141.934 226.031C141.996 225.968 142.081 225.933 142.17 225.933H160.521C160.608 225.936 160.69 225.972 160.75 226.034C160.811 226.096 160.845 226.18 160.845 226.266V232.531H163.621V226.34C163.621 225.517 163.295 224.728 162.714 224.145C162.132 223.562 161.344 223.233 160.521 223.231H142.17C141.346 223.233 140.556 223.562 139.974 224.144C139.391 224.727 139.063 225.516 139.06 226.34V232.744Z" fill="#263238"/>
<path d="M179.311 185.945L159.766 202.89L166.855 215.689L191.758 199.605L179.311 185.945Z" fill="#157B6C" stroke="#263238" stroke-linecap="round" stroke-linejoin="round"/>
<path d="M179.382 188.62L181.816 205.722L189.617 201.669L179.382 188.62Z" fill="#263238" stroke="#263238" stroke-linecap="round" stroke-linejoin="round"/>
<path d="M159.767 202.89L154.584 207.905L160.637 216.725L165.477 213.097L159.767 202.89Z" fill="white" stroke="#263238" stroke-linecap="round" stroke-linejoin="round"/>
<path d="M286.12 253.243C286.12 253.243 281.808 295.59 280.688 299.903C279.568 304.215 279.189 306.649 279.189 306.649C279.189 306.649 282.187 306.085 282.187 307.029V307.954L327.903 305.52C327.903 305.52 330.902 308.297 330.68 312.072C330.433 314.876 329.868 317.642 328.995 320.318C328.995 320.318 313.439 324.251 293.579 327.444C273.72 330.636 272.211 331.562 270.342 331.562C268.473 331.562 260.782 331.941 257.784 328.193C254.786 324.445 252.167 322.382 251.417 316.163C250.667 309.944 241.108 247.949 241.108 247.949L200.074 250.013L214.687 316.533C214.687 316.533 209.44 320.096 205.692 320.281C201.944 320.466 195.197 319.911 195.197 319.911C194.889 318.682 194.7 317.427 194.633 316.163V312.415C194.633 312.415 173.089 256.01 170.655 249.079C168.221 242.147 163.529 230.903 164.464 225.656C165.399 220.409 201.009 215.347 204.007 215.347C207.006 215.347 266.409 259.767 268.278 260.322C270.148 260.878 286.12 253.243 286.12 253.243Z" fill="#157B6C" stroke="#263238" stroke-linecap="round" stroke-linejoin="round"/>
<path d="M276.738 309.388C276.738 309.388 273.296 314.07 269.242 315.634" stroke="#263238" stroke-linecap="round" stroke-linejoin="round"/>
<path d="M282.192 307.963C282.192 307.963 280.479 315.32 274.862 318.143" stroke="#263238" stroke-linecap="round" stroke-linejoin="round"/>
<path d="M204.047 215.393L216.79 249.439H232.707L204.047 215.393Z" fill="#263238" stroke="#263238" stroke-linecap="round" stroke-linejoin="round"/>
<path d="M196.098 139.35C196.098 139.35 230.052 146.615 240.167 153.352C250.282 160.089 280.729 196.504 288.641 207.397C296.554 218.289 300.949 225.535 300.949 225.535C300.949 225.535 299.395 245.626 290.714 256.13C282.034 266.633 274.639 276.211 273.344 275.693C272.048 275.175 245.22 255.87 242.111 251.974C239.001 248.078 232.005 252.9 220.335 238.63C208.666 224.36 193.378 206.36 193.378 206.36C193.378 206.36 184.568 194.431 179.385 188.601C174.082 182.588 170.655 175.153 169.529 167.215C168.604 159.7 174.064 148.817 180.81 143.376C187.557 137.934 196.098 139.35 196.098 139.35Z" fill="#157B6C" stroke="#263238" stroke-linecap="round" stroke-linejoin="round"/>
<path d="M264.002 242.36L278.43 226.072L274.876 223.074L256.886 242.943" stroke="#263238" stroke-linecap="round" stroke-linejoin="round"/>
<path d="M258.01 249.124L260.953 245.811" stroke="#263238" stroke-linecap="round" stroke-linejoin="round"/>
<path d="M200.301 140.812C203.306 145.728 205.935 150.863 208.167 156.175C211.351 164.05 213.794 171.907 213.794 171.907C213.794 171.907 208.167 174.156 207.612 174.156C207.057 174.156 214.543 181.466 214.543 181.466C214.914 186.834 214.34 192.224 212.85 197.393C211.585 201.206 210.523 205.083 209.666 209.007L205.548 205.824" stroke="#263238" stroke-linecap="round" stroke-linejoin="round"/>
<path d="M212.096 210.71L219.406 218.761" stroke="#263238" stroke-linecap="round" stroke-linejoin="round"/>
<path d="M200.496 155.314C200.496 155.314 202.958 171 203.865 180.587C204.772 190.175 204.133 204.436 204.133 204.436C204.133 204.436 188.577 190.045 186.245 185.64C184.617 182.319 183.315 178.848 182.358 175.275C182.358 175.275 187.67 165.549 189.484 161.921C191.298 158.294 195.573 148.836 200.496 155.314Z" fill="white" stroke="#263238" stroke-linecap="round" stroke-linejoin="round"/>
<path d="M196.352 178.773L193.502 189.786L201.664 253.168L194.538 263.533L187.672 253.298L191.17 189.786L184.562 178.773L189.226 170.99L196.352 178.773Z" fill="#263238" stroke="#263238" stroke-linecap="round" stroke-linejoin="round"/>
<path d="M190.394 174.627L201.148 184.085C201.148 184.085 202.573 181.494 201.795 169.695C201.018 157.896 199.204 147.41 197.779 143.005C196.354 138.6 195.447 137.943 195.447 137.943C195.447 137.943 193.244 156.609 191.431 160.496C189.617 164.383 177.697 171.388 177.697 171.388C177.697 171.388 179.77 180.328 180.807 182.271C181.45 183.486 182.012 184.741 182.491 186.029L190.394 174.627Z" fill="white" stroke="#263238" stroke-linecap="round" stroke-linejoin="round"/>
<path d="M196.097 139.35C196.097 139.35 197.522 151.279 196.097 157.627C194.672 163.975 190.397 174.609 190.397 174.609L171.472 168.131L169.528 167.205C169.528 167.205 170.953 166.428 177.857 160.727C184.761 155.027 185.26 154.249 185.76 149.196C186.26 144.144 186.926 140.636 189.777 138.175C192.627 135.713 195.579 138.591 196.097 139.35Z" fill="white" stroke="#263238" stroke-linecap="round" stroke-linejoin="round"/>
<path d="M184.832 159.145L180.714 171.24L169.526 167.233L184.832 159.145Z" fill="#263238" stroke="#263238" stroke-linecap="round" stroke-linejoin="round"/>
<path d="M224.527 329.729L218.91 334.596C218.91 334.596 212.349 337.373 213.848 338.159C215.347 338.946 218.91 337.41 220.409 336.475C221.298 335.91 222.226 335.409 223.186 334.976L224.527 329.729Z" fill="white" stroke="#263238" stroke-linecap="round" stroke-linejoin="round"/>
<path d="M230.29 307.417C230.29 307.417 231.271 311.554 226.024 325.787C224.071 331.08 218.158 341.908 216.464 343.777C214.771 345.646 212.161 346.97 213.845 347.34C215.53 347.71 216.622 346.22 218.713 344.906C220.805 343.592 224.34 337.975 224.34 337.975C224.34 337.975 221.341 343.971 220.027 346.22C218.713 348.469 216.844 351.458 216.844 351.458C216.844 351.458 217.408 352.957 219.842 351.088C222.276 349.219 223.59 346.405 224.71 344.906C225.532 343.766 226.283 342.576 226.959 341.343C226.959 341.343 224.525 348.654 223.775 350.153C223.026 351.652 224.701 352.587 225.626 351.079C226.552 349.57 227.551 349.043 227.93 347.923C228.31 346.803 228.624 349.228 231.808 342.648C233.548 339.039 238.175 333.838 240.239 328.767C242.302 323.695 242.302 325.99 242.487 321.835C242.672 317.68 242.302 310.036 242.302 310.036L230.29 307.417Z" fill="white" stroke="#263238" stroke-linecap="round" stroke-linejoin="round"/>
<path d="M228.145 347.571C228.378 345.663 228.733 343.771 229.209 341.908C230.062 340.061 231.081 338.295 232.254 336.633" stroke="#263238" stroke-linecap="round" stroke-linejoin="round"/>
<path d="M226.962 341.342L229.59 335.91" stroke="#263238" stroke-linecap="round" stroke-linejoin="round"/>
<path d="M224.338 337.975L226.207 333.662" stroke="#263238" stroke-linecap="round" stroke-linejoin="round"/>
<path d="M245.516 302.225L245.136 311.97C245.136 311.97 240.084 313.654 236.706 313.654C233.328 313.654 228.84 313.469 228.84 313.469L229.025 302.975L245.516 302.225Z" fill="white" stroke="#263238" stroke-linecap="round" stroke-linejoin="round"/>
<path d="M240.777 168.362C240.777 168.362 249.013 185.945 249.957 190.656C250.901 195.366 252.734 229.635 253.141 236.196C253.548 242.757 249.263 304.243 249.263 304.243C245.58 305.174 241.814 305.738 238.019 305.927C234.548 306.024 231.08 305.647 227.71 304.807C227.71 304.807 223.157 230.569 222.787 228.136C222.417 225.702 222.972 223.638 222.972 219.705C222.972 215.772 219.594 189.536 219.594 189.536C219.594 189.536 221.445 174.914 225.406 169.297" fill="#157B6C"/>
<path d="M240.777 168.362C240.777 168.362 249.013 185.945 249.957 190.656C250.901 195.366 252.734 229.635 253.141 236.196C253.548 242.757 249.263 304.243 249.263 304.243C245.58 305.174 241.814 305.738 238.019 305.927C234.548 306.024 231.08 305.647 227.71 304.807C227.71 304.807 223.157 230.57 222.787 228.136C222.417 225.702 222.972 223.638 222.972 219.705C222.972 215.772 219.594 189.536 219.594 189.536C219.594 189.536 221.445 174.914 225.406 169.297" stroke="#263238" stroke-linecap="round" stroke-linejoin="round"/>
<path d="M245.078 183.909C245.078 183.909 240.775 199.641 229.901 209.766" stroke="#263238" stroke-linecap="round" stroke-linejoin="round"/>
<path d="M231.457 220.065C230.31 221.068 229.018 221.891 227.626 222.509" stroke="#263238" stroke-linecap="round" stroke-linejoin="round"/>
<path d="M245.828 197.967C245.828 197.967 241.118 209.377 234.677 216.864" stroke="#263238" stroke-linecap="round" stroke-linejoin="round"/>
<path d="M156.995 227.376C156.995 227.376 159.29 224.1 160.28 224.859C161.271 225.618 159.623 229.782 158.633 230.662C157.643 231.541 156.116 230.551 156.116 230.551L156.995 227.376Z" fill="white" stroke="#263238" stroke-linecap="round" stroke-linejoin="round"/>
<path d="M154.259 223.99C154.259 223.99 156.018 221.584 157.656 222.787C159.294 223.99 156.888 229.783 156.12 230.551C155.345 231.362 154.287 231.842 153.167 231.893C152.278 231.941 151.388 231.828 150.539 231.56L154.259 223.99Z" fill="white" stroke="#263238" stroke-linecap="round" stroke-linejoin="round"/>
<path d="M151.305 223.221C151.305 223.221 152.906 220.047 154.405 220.704C155.904 221.361 154.701 224.313 154.044 225.739C153.046 227.768 151.872 229.706 150.536 231.532C150.102 231.865 147.473 231.976 147.149 230.884C146.949 230.061 146.874 229.212 146.927 228.367L151.305 223.221Z" fill="white" stroke="#263238" stroke-linecap="round" stroke-linejoin="round"/>
<path d="M144.413 227.266C144.413 227.266 148.355 221.584 149.447 221.362C150.539 221.14 151.53 222.676 151.298 223.212C151.067 223.749 147.597 229.561 146.819 229.774C146.042 229.987 145.311 230.348 144.367 229.515" fill="white"/>
<path d="M144.413 227.266C144.413 227.266 148.355 221.584 149.447 221.362C150.539 221.14 151.53 222.676 151.298 223.212C151.067 223.749 147.597 229.561 146.819 229.774C146.042 229.987 145.311 230.348 144.367 229.515" stroke="#263238" stroke-linecap="round" stroke-linejoin="round"/>
<path d="M154.924 215.688C154.924 215.688 155.099 219.668 154.405 220.704C153.711 221.741 151.805 224.508 151.805 224.508C151.805 224.508 158.033 226.757 157.172 228.145C156.312 229.533 150.426 227.793 148.844 227.275C147.261 226.757 146.243 226.932 145.901 224.499C145.558 222.065 146.771 217.095 146.771 217.095" fill="white"/>
<path d="M154.924 215.688C154.924 215.688 155.099 219.668 154.405 220.704C153.711 221.741 151.805 224.508 151.805 224.508C151.805 224.508 158.033 226.757 157.172 228.145C156.312 229.533 150.426 227.793 148.844 227.275C147.261 226.757 146.243 226.932 145.901 224.499C145.558 222.065 146.771 217.095 146.771 217.095" stroke="#263238" stroke-linecap="round" stroke-linejoin="round"/>
<path d="M153.51 140.108L160.526 139.774C161.772 139.714 162.83 140.676 162.889 141.921L163.051 145.323C163.111 146.569 162.149 147.627 160.903 147.686L153.887 148.021C152.642 148.08 151.584 147.119 151.524 145.873L151.362 142.471C151.303 141.225 152.264 140.168 153.51 140.108Z" stroke="#263238" stroke-linecap="round" stroke-linejoin="round"/>
<path d="M155.887 125.348C155.887 125.348 154.749 124.553 154.86 123.498C154.971 122.443 155.665 118.352 160.236 114.456C164.808 110.56 173.618 106.914 181.28 108.173C188.943 109.431 194.662 116.862 196.032 120.749C197.401 124.636 196.485 136.305 196.485 137.675C196.485 139.045 194.773 143.274 193.061 143.737C191.349 144.199 192.256 137.906 190.655 139.045C189.054 140.183 184.705 144.764 183.104 142.932C181.503 141.099 181.049 136.648 179.679 136.454C178.31 136.259 173.044 133.936 173.387 131.651C173.729 129.365 176.357 123.757 173.729 122.85C171.101 121.943 167.251 125.015 161.948 125.478C156.646 125.941 155.887 125.348 155.887 125.348Z" fill="#263238" stroke="#263238" stroke-linecap="round" stroke-linejoin="round"/>
<path d="M183.679 140.563C183.679 140.563 185.28 140.452 185.53 140.1C185.78 139.748 187.927 134.843 190.333 134.501C192.739 134.159 193.877 141.358 192.619 145.255C192.353 146.308 191.751 147.245 190.904 147.925C190.058 148.605 189.012 148.99 187.927 149.021C187.927 149.021 187.816 159.201 184.725 161.264C181.634 163.328 167.919 171.324 165.291 171.092C162.663 170.861 161.515 168.464 161.173 166.521C160.83 164.577 160.941 164.004 160.83 163.319C160.719 162.634 158.544 154.629 158.544 154.629C158.544 154.629 154.084 153.704 153.964 153.139C153.843 152.575 156.37 142.737 156.37 142.737C156.37 142.737 154.426 140.331 154.306 139.304C154.186 138.277 154.195 130.494 154.658 128.671C155.12 126.848 157.508 122.147 158.424 122.489C158.972 122.662 159.549 122.72 160.121 122.661C160.692 122.602 161.245 122.427 161.746 122.147C162.672 121.582 171.574 118.26 173.638 118.38C175.702 118.5 179.579 121.008 179.922 123.183C180.264 125.358 176.72 128.782 176.498 130.383C176.276 131.984 181.985 133.159 182.096 133.927C182.208 134.695 182.652 139.878 183.679 140.563Z" fill="white" stroke="#263238" stroke-linecap="round" stroke-linejoin="round"/>
<path d="M162.01 159.33L164.731 158.553" stroke="#263238" stroke-linecap="round" stroke-linejoin="round"/>
<path d="M162.307 139.505L169.323 139.17C170.568 139.111 171.626 140.072 171.686 141.318L171.848 144.72C171.907 145.965 170.946 147.023 169.7 147.083L162.684 147.417C161.438 147.477 160.38 146.515 160.321 145.269L160.159 141.868C160.099 140.622 161.061 139.564 162.307 139.505Z" stroke="#263238" stroke-linecap="round" stroke-linejoin="round"/>
<path d="M164.83 143.552C164.95 144.477 165.367 145.116 165.755 145.06C166.144 145.005 166.366 144.246 166.237 143.357C166.107 142.469 165.7 141.793 165.311 141.849C164.922 141.904 164.756 142.663 164.83 143.552Z" fill="#263238"/>
<path d="M169.527 137.684C169.527 137.684 164.456 137.11 162.3 139.479" stroke="#263238" stroke-linecap="round" stroke-linejoin="round"/>
<path d="M171.675 141.303L186.121 138.203" stroke="#263238" stroke-linecap="round" stroke-linejoin="round"/>
<path d="M160.152 141.849C160.152 141.849 157.95 140.313 156.099 141.951" stroke="#263238" stroke-linecap="round" stroke-linejoin="round"/>
<path d="M161.207 139.758L154.775 140.193" stroke="#263238" stroke-linecap="round" stroke-linejoin="round"/>
<path d="M43.4446 286.104L361.551 411.046" stroke="#263238" stroke-linecap="round" stroke-linejoin="round"/>
<path d="M34.3754 295.007L345.754 418.227" stroke="#263238" stroke-linecap="round" stroke-linejoin="round"/>
</svg>
