<svg width="99" height="100" viewBox="0 0 99 100" fill="none" xmlns="http://www.w3.org/2000/svg">
<path d="M69.2884 65.5715H65.5883V63.3842C65.5883 62.4592 66.5102 61.5373 67.4321 61.5373H67.7508C68.6851 61.5373 69.6163 62.4592 69.6163 63.3842V65.5715H69.2884ZM55.054 60.9185C54.1321 60.9185 53.1978 61.5373 53.1978 62.4592V72.9934C53.1978 73.9154 53.832 74.5403 55.054 74.5403C55.9853 74.5403 56.9165 73.9154 56.9165 72.9934V62.1653C56.9103 61.5373 55.9853 60.9185 55.054 60.9185ZM77.9663 55.0404V75.1405C77.9663 80.1029 73.6289 83.8123 68.6758 83.8123H30.3102C25.3602 83.8123 21.0352 79.7904 21.0352 75.1405V55.0404C21.0352 50.0935 25.0601 46.3717 30.3102 46.3717H68.3726C73.6289 46.3717 77.9663 50.0966 77.9663 55.0404ZM33.1008 77.3278V56.2624H37.7445V53.1934H25.0601V56.2624H29.0789V77.6062L33.1008 77.3278ZM47.0257 59.384H43.304V73.2811C43.304 73.9123 42.6945 74.2123 42.0758 74.2123C41.7633 74.2123 41.1414 73.9123 41.1414 72.9903V59.0499H37.1196V73.9123C37.1196 74.8342 37.1196 76.0655 38.0508 76.6935C39.9132 77.9248 43.304 76.3965 43.932 74.5372V76.9967H47.0257V59.384ZM59.7039 72.0622V62.7748C59.7039 59.053 56.9165 56.8997 53.5226 59.9842V52.8717H49.4946V76.9998H52.5914L52.9132 75.4684C57.2444 79.4748 59.7039 76.6966 59.7039 72.0622ZM72.0697 70.8185H69.0068V72.9934C69.0068 73.9154 68.3726 74.5403 67.4321 74.5403H66.8196C65.8853 74.5403 65.2913 73.9154 65.2913 72.9934V68.6591H72.0697V61.2464C71.4726 57.8309 66.8196 57.1967 64.36 59.0623C63.732 59.6872 63.0978 60.3152 62.8132 61.2464C62.4945 62.1746 62.1728 63.3842 62.1728 65.2498V70.8185C62.1728 80.3968 73.0009 79.1871 72.0697 70.8185ZM56.9103 40.4967C57.2413 41.1247 57.5321 41.4248 57.8477 41.7311C58.1694 42.0528 58.7789 42.0528 59.3977 42.0528C60.0288 42.0528 60.3196 41.7311 60.9569 41.4248C61.257 41.1247 61.885 40.4967 62.182 39.8841V41.4248H66.5164V22.8685H63.1009V37.4029C63.1009 38.3341 62.5069 38.956 61.5726 38.956C60.6413 38.956 60.0319 38.3341 60.0319 37.4029V23.1748H56.3256V38.956C56.6133 39.5654 56.6133 39.8841 56.9103 40.4967ZM43.6164 29.9872C43.6164 28.1309 43.6164 26.8934 43.9351 25.6529C44.2352 24.7247 44.8663 23.7997 45.4789 23.184C46.3822 22.5495 47.466 22.223 48.5695 22.2528C49.4977 22.2528 50.4196 22.556 51.0538 22.8716C51.6633 23.184 52.2789 23.7997 52.5945 24.4123C52.9163 25.0403 53.1978 25.6528 53.5257 26.2778C53.5257 26.8934 53.8413 27.8247 53.8413 29.3653V34.3123C53.8413 36.1747 53.8413 37.4029 53.5257 38.0309C53.5257 38.956 53.204 39.5654 52.5945 40.1904C52.2411 40.8424 51.7058 41.3776 51.0538 41.7311C50.2829 42.1223 49.4338 42.3349 48.5695 42.3529C47.6476 42.3529 46.7164 42.3529 46.0945 42.0466C45.4789 41.728 44.8663 41.4186 44.5477 40.8122C44.1855 40.1114 43.8762 39.3844 43.6226 38.6373C43.3071 37.7123 43.3071 36.4717 43.3071 34.9341L43.6164 29.9872ZM47.0257 37.4029C47.0257 38.3341 47.957 39.2684 48.8851 39.2684C49.8163 39.2684 50.729 38.3341 50.729 37.4029V27.4998C50.729 26.5686 49.8163 25.6467 48.8851 25.6467C47.957 25.6467 47.0257 26.5686 47.0257 27.4998V37.4029ZM34.9601 42.356H38.982V28.1279L43.932 15.7498H39.2821L36.8164 25.0341L34.0289 15.7498H29.7008L34.9601 28.1279V42.356Z" fill="black"/>
</svg>
