<svg width="169" height="150" viewBox="0 0 169 150" fill="none" xmlns="http://www.w3.org/2000/svg">
<rect x="1" y="0.505859" width="167" height="149" rx="19.5" fill="white" stroke="#CFCFCF"/>
<path d="M73.1278 43.5566H93.3241L72.3599 109.478C72.1656 110.14 71.7649 110.723 71.216 111.142C70.6672 111.561 69.9989 111.794 69.3086 111.807H53.5883C52.7103 111.78 51.8788 111.406 51.2763 110.767C50.6738 110.127 50.3496 109.275 50.3749 108.397C50.3765 108.026 50.434 107.656 50.5455 107.302L70.0821 45.88C70.2771 45.2194 70.6775 44.6381 71.2251 44.2204C71.7727 43.8026 72.4391 43.5701 73.1278 43.5566Z" fill="#01579B"/>
<path d="M102.473 89.0566H70.4519C70.0479 89.0678 69.6647 89.2387 69.3865 89.5319C69.1082 89.8251 68.9576 90.2166 68.9675 90.6207C68.9653 90.8357 69.0059 91.0491 69.0869 91.2483C69.168 91.4475 69.2879 91.6285 69.4396 91.781L90.0169 110.88C90.6003 111.467 91.3928 111.8 92.2208 111.804H110.353L102.473 89.0566Z" fill="#1976D2"/>
<path d="M98.9207 45.8771C98.7253 45.2175 98.3252 44.6372 97.7782 44.22C97.2312 43.8029 96.5657 43.5706 95.8779 43.5566H73.3696C74.058 43.5692 74.7246 43.8005 75.2727 44.2172C75.8208 44.6339 76.222 45.2143 76.4181 45.8743L95.949 107.296C96.2291 108.138 96.1759 109.056 95.8004 109.86C95.4248 110.664 94.7554 111.293 93.9299 111.619C93.5994 111.737 93.2514 111.798 92.9005 111.801H115.409C116.287 111.775 117.119 111.402 117.722 110.763C118.325 110.124 118.65 109.272 118.625 108.394C118.624 108.023 118.566 107.654 118.454 107.299L98.9236 45.88L98.9207 45.8771Z" fill="#29B6F6"/>
</svg>
