<svg width="168" height="150" viewBox="0 0 168 150" fill="none" xmlns="http://www.w3.org/2000/svg">
<rect x="1" y="0.505859" width="166" height="149" rx="19.5" fill="white" stroke="#CFCFCF"/>
<path d="M84.0777 98.6168H70.4594V85.0614H84.0782L84.0777 98.6168ZM70.4594 109.251H60.1415V98.6157H70.4594V109.251ZM60.142 98.6157H51.4773V89.8566H60.1415L60.142 98.6157ZM83.8731 112.38V98.6157C98.3161 98.6157 109.458 84.2271 103.887 69.002C101.823 63.372 97.492 58.7847 91.7137 56.6985C76.8567 51.2781 62.6199 62.5377 62.6199 76.9269H49C49 53.9883 71.0773 35.8445 95.2219 43.3516C105.745 46.6892 113.998 55.0306 117.299 65.6667C124.726 90.0646 106.775 112.379 83.8726 112.379L83.8731 112.38Z" fill="#0080FF"/>
</svg>
