<svg width="168" height="150" viewBox="0 0 168 150" fill="none" xmlns="http://www.w3.org/2000/svg">
<rect x="1" y="0.505859" width="166" height="149" rx="19.5" fill="white" stroke="#CFCFCF"/>
<path d="M95.3015 60.6504H95.5858L95.4437 60.5082L105.397 50.5551V50.3418C97.0077 42.948 85.4194 40.3887 74.6843 43.5879C63.9491 46.7871 55.7022 55.3184 52.7163 66.1246C52.8585 66.0535 53.0718 65.9824 53.2851 65.9824C56.9819 63.5652 61.3897 62.1434 66.0108 62.1434C67.5749 62.1434 69.0679 62.2855 70.5608 62.5699C70.6319 62.4988 70.703 62.4988 70.7741 62.4988C77.1726 55.4605 87.9788 54.6074 95.3726 60.6504H95.3015Z" fill="#EA4535"/>
<path d="M114.852 65.9832C113.217 59.9402 109.805 54.466 105.042 50.2715L94.8751 60.3668C99.1407 63.8504 101.629 69.1113 101.487 74.5855V76.3629C113.502 76.3629 113.502 94.2785 101.487 94.2785H83.429V108.497H83.3579L83.429 108.639H101.487C111.867 108.711 121.038 102.028 124.095 92.2168C127.152 82.4059 123.384 71.7418 114.852 65.9832Z" fill="#557EBF"/>
<path d="M65.7266 108.71H84.4243V94.3494H65.7266C64.3758 94.3494 63.0961 94.065 61.8875 93.5674L51.0813 103.947V104.089C55.3469 107.146 60.4657 108.781 65.7977 108.781L65.7266 108.71Z" fill="#36A852"/>
<path d="M66.5796 61.7881C55.9867 61.8592 46.6023 68.3998 43.1898 77.9975C39.7773 87.6662 43.1898 98.2592 51.5788 104.515L62.6695 93.9225C56.5554 91.292 55.1335 83.6139 59.8257 79.135C64.5179 74.585 72.4804 76.0068 75.2531 81.8365L86.3437 71.2436C81.6515 65.3428 74.3288 61.8592 66.5796 61.9303V61.7881Z" fill="#F9BC15"/>
</svg>
