<svg width="168" height="150" viewBox="0 0 168 150" fill="none" xmlns="http://www.w3.org/2000/svg">
<rect x="1" y="0.505859" width="166" height="149" rx="19.5" fill="white" stroke="#CFCFCF"/>
<path d="M61.6265 71.8813C61.6265 73.132 61.7633 74.1459 62.0018 74.8895C62.3048 75.726 62.6695 76.5393 63.093 77.3227C63.2636 77.593 63.3316 77.8633 63.3316 78.1002C63.3316 78.4378 63.1272 78.7759 62.6838 79.114L60.5353 80.5334C60.2283 80.7363 59.9213 80.8376 59.6481 80.8376C59.3073 80.8376 58.9662 80.6685 58.625 80.3643C58.1651 79.8753 57.754 79.3434 57.3974 78.7759C57.0562 78.2018 56.715 77.5591 56.3401 76.7821C53.6795 79.8911 50.3371 81.4457 46.3129 81.446C43.4482 81.446 41.1629 80.6346 39.4915 79.0128C37.8206 77.3901 36.968 75.2272 36.968 72.5236C36.968 69.6511 37.9912 67.3191 40.0717 65.5617C42.1518 63.8042 44.9147 62.9255 48.4276 62.9255C49.5871 62.9255 50.7809 63.0268 52.0426 63.1958C53.3048 63.3649 54.6007 63.6352 55.9651 63.9394V61.4723C55.9651 58.9035 55.4191 57.1126 54.3617 56.0648C53.2706 55.017 51.4287 54.5099 48.8026 54.5099C47.6088 54.5099 46.3813 54.6455 45.1191 54.9497C43.8569 55.2539 42.6294 55.6254 41.4356 56.0987C40.8901 56.3351 40.4809 56.4703 40.2419 56.538C40.0029 56.6058 39.8327 56.6393 39.6963 56.6393C39.2187 56.6393 38.9801 56.3012 38.9801 55.5916V53.9354C38.9801 53.3948 39.0485 52.9893 39.2187 52.7529C39.3893 52.516 39.6963 52.2796 40.1739 52.0432C41.3675 51.4345 42.7999 50.9275 44.4709 50.5222C46.1427 50.0828 47.9162 49.8803 49.7919 49.8803C53.8508 49.8803 56.8181 50.7925 58.728 52.6177C60.6037 54.4425 61.5589 57.2138 61.5589 60.9316V71.8813H61.6265ZM47.7794 77.0185C48.9052 77.0185 50.0647 76.816 51.2923 76.4101C52.5202 76.0046 53.6118 75.2611 54.5323 74.2472C55.0783 73.6053 55.4875 72.8956 55.6919 72.0843C55.8967 71.2733 56.0331 70.2929 56.0331 69.1439V67.7246C54.9987 67.4753 53.9511 67.2835 52.8952 67.1501C51.8319 67.0164 50.7612 66.9486 49.6893 66.9471C47.404 66.9471 45.7331 67.3865 44.6077 68.2991C43.4824 69.2117 42.9364 70.4959 42.9364 72.1855C42.9364 73.7739 43.3456 74.9569 44.1981 75.7682C45.0169 76.613 46.2107 77.0185 47.7794 77.0185ZM75.1665 80.6685C74.5526 80.6685 74.1434 80.5673 73.8706 80.3304C73.5978 80.1279 73.3588 79.6547 73.1544 79.0128L65.1397 52.888C64.9345 52.2118 64.8323 51.7725 64.8323 51.536C64.8323 50.9954 65.1051 50.6908 65.6511 50.6908H68.9934C69.6411 50.6908 70.0849 50.7925 70.3235 51.0289C70.5963 51.2318 70.8011 51.7051 71.0055 52.347L76.7353 74.7204L82.0559 52.347C82.2265 51.6712 82.4313 51.2318 82.7036 51.0289C82.9768 50.8264 83.4544 50.6912 84.0684 50.6912H86.7967C87.4445 50.6912 87.8882 50.7925 88.1606 51.0289C88.4338 51.2318 88.6724 51.7051 88.8088 52.347L94.1978 74.9907L100.098 52.347C100.302 51.6712 100.541 51.2318 100.78 51.0289C101.053 50.8264 101.496 50.6912 102.11 50.6912H105.282C105.828 50.6912 106.135 50.9615 106.135 51.536C106.135 51.7051 106.1 51.8741 106.066 52.0767C106.032 52.2792 105.964 52.5499 105.828 52.9219L97.6077 79.0462C97.4033 79.7224 97.1645 80.1618 96.8915 80.3643C96.6187 80.5673 96.1753 80.7024 95.5959 80.7024H92.6629C92.0147 80.7024 91.5713 80.6012 91.2981 80.3643C91.0253 80.1279 90.7867 79.6885 90.6503 79.0128L85.3635 57.2138L80.1113 78.9785C79.9411 79.6547 79.7364 80.094 79.4636 80.3304C79.1908 80.5673 78.7132 80.6685 78.0996 80.6685H75.1665ZM118.993 81.5811C117.219 81.5811 115.446 81.3782 113.74 80.9727C112.035 80.5673 110.705 80.1275 109.818 79.6212C109.272 79.3166 108.897 78.9789 108.761 78.6747C108.628 78.3763 108.559 78.0542 108.556 77.7282V76.0046C108.556 75.2949 108.829 74.9569 109.341 74.9569C109.55 74.9576 109.757 74.992 109.955 75.0585C110.159 75.1263 110.466 75.2611 110.807 75.3962C112.012 75.9216 113.269 76.3181 114.559 76.5791C115.895 76.8476 117.254 76.9834 118.618 76.9846C120.766 76.9846 122.438 76.613 123.597 75.8695C124.757 75.1259 125.371 74.0446 125.371 72.6588C125.371 71.7127 125.064 70.9352 124.45 70.2929C123.836 69.6507 122.676 69.0765 121.005 68.5355L116.06 67.0149C113.57 66.2374 111.728 65.0884 110.603 63.5674C109.477 62.0803 108.897 60.4245 108.897 58.6671C108.897 57.2477 109.204 55.9972 109.818 54.9154C110.432 53.8341 111.251 52.888 112.274 52.1445C113.297 51.367 114.457 50.7925 115.821 50.387C117.185 49.9815 118.617 49.8125 120.118 49.8125C120.868 49.8125 121.653 49.8464 122.403 49.9477C123.188 50.0489 123.904 50.1841 124.62 50.3192C125.302 50.4883 125.95 50.6573 126.564 50.8603C127.178 51.0628 127.655 51.2655 127.997 51.4683C128.474 51.739 128.815 52.0093 129.02 52.3135C129.225 52.5838 129.327 52.9555 129.327 53.4286V55.017C129.327 55.7267 129.054 56.0987 128.542 56.0987C128.269 56.0987 127.826 55.9631 127.247 55.6928C125.302 54.8141 123.119 54.3747 120.698 54.3747C118.754 54.3747 117.219 54.6789 116.162 55.3212C115.105 55.9631 114.559 56.9435 114.559 58.329C114.559 59.2755 114.9 60.0864 115.582 60.7287C116.264 61.371 117.526 62.0129 119.334 62.5874L124.177 64.1084C126.632 64.8859 128.406 65.9671 129.463 67.3526C130.521 68.738 131.032 70.3268 131.032 72.0843C131.032 73.5375 130.725 74.8556 130.145 76.0046C129.532 77.1537 128.713 78.1675 127.655 78.9789C126.598 79.8237 125.336 80.4321 123.87 80.8715C122.335 81.3447 120.732 81.5811 118.993 81.5811Z" fill="#252F3E"/>
<path d="M125.439 98.0058C114.218 106.218 97.9151 110.578 83.8979 110.578C64.2526 110.578 46.5519 103.379 33.1824 91.4154C32.1251 90.4693 33.0798 89.1851 34.3416 89.9283C48.8026 98.2426 66.6401 103.278 85.0916 103.278C97.5401 103.278 111.217 100.71 123.802 95.4374C125.678 94.5922 127.281 96.6542 125.439 98.0058ZM130.111 92.7335C128.679 90.9087 120.63 91.8548 116.981 92.2941C115.889 92.4297 115.718 91.4832 116.708 90.7735C123.12 86.3121 133.659 87.5967 134.886 89.0834C136.114 90.6045 134.545 101.047 128.542 106.049C127.622 106.827 126.735 106.421 127.144 105.408C128.508 102.061 131.544 94.5248 130.111 92.7335Z" fill="#FF9900"/>
</svg>
